<?xml version="1.0" encoding="UTF-8" standalone="no"?>
<!DOCTYPE svg PUBLIC "-//W3C//DTD SVG 1.1//EN"
 "http://www.w3.org/Graphics/SVG/1.1/DTD/svg11.dtd">
<!-- Generated by graphviz version 2.43.0 (0)
 -->
<!-- Title: src/code_utils/FMC_code_utils.h Pages: 1 -->
<svg width="732pt" height="313pt"
 viewBox="0.00 0.00 731.88 313.00" xmlns="http://www.w3.org/2000/svg" xmlns:xlink="http://www.w3.org/1999/xlink">
<g id="graph0" class="graph" transform="scale(1 1) rotate(0) translate(4 309)">
<title>src/code_utils/FMC_code_utils.h</title>
<!-- Node1 -->
<g id="node1" class="node">
<title>Node1</title>
<g id="a_node1"><a xlink:title=" ">
<polygon fill="#999999" stroke="#666666" points="348.88,-305 240.88,-305 240.88,-275 348.88,-275 348.88,-305"/>
<text text-anchor="start" x="248.88" y="-293" font-family="Helvetica,sans-Serif" font-size="10.00">src/code_utils/FMC</text>
<text text-anchor="middle" x="294.88" y="-282" font-family="Helvetica,sans-Serif" font-size="10.00">_code_utils.h</text>
</a>
</g>
</g>
<!-- Node2 -->
<g id="node2" class="node">
<title>Node2</title>
<g id="a_node2"><a xlink:href="../../d9/de1/FMC__general_8h.html" target="_top" xlink:title=" ">
<polygon fill="white" stroke="#666666" points="363.88,-239 225.88,-239 225.88,-220 363.88,-220 363.88,-239"/>
<text text-anchor="middle" x="294.88" y="-227" font-family="Helvetica,sans-Serif" font-size="10.00">../general/FMC_general.h</text>
</a>
</g>
</g>
<!-- Node1&#45;&gt;Node2 -->
<g id="edge1" class="edge">
<title>Node1&#45;&gt;Node2</title>
<path fill="none" stroke="#63b8ff" d="M294.88,-274.84C294.88,-267.21 294.88,-257.7 294.88,-249.45"/>
<polygon fill="#63b8ff" stroke="#63b8ff" points="298.38,-249.27 294.88,-239.27 291.38,-249.27 298.38,-249.27"/>
</g>
<!-- Node3 -->
<g id="node3" class="node">
<title>Node3</title>
<g id="a_node3"><a xlink:href="../../d0/d28/FMC__macros_8h.html" target="_top" xlink:title=" ">
<polygon fill="white" stroke="#666666" points="281.38,-74 126.38,-74 126.38,-55 281.38,-55 281.38,-74"/>
<text text-anchor="middle" x="203.88" y="-62" font-family="Helvetica,sans-Serif" font-size="10.00">preprocessor/FMC_macros.h</text>
</a>
</g>
</g>
<!-- Node2&#45;&gt;Node3 -->
<g id="edge2" class="edge">
<title>Node2&#45;&gt;Node3</title>
<path fill="none" stroke="#63b8ff" d="M364.3,-227.3C407.39,-223.43 461.97,-212.56 501.88,-184 531.17,-163.05 558.59,-137.11 534.88,-110 503.85,-74.52 378.76,-66.16 291.58,-64.78"/>
<polygon fill="#63b8ff" stroke="#63b8ff" points="291.45,-61.28 281.41,-64.65 291.36,-68.28 291.45,-61.28"/>
</g>
<!-- Node4 -->
<g id="node4" class="node">
<title>Node4</title>
<g id="a_node4"><a xlink:href="../../d7/dff/FMC__platform_8h.html" target="_top" xlink:title=" ">
<polygon fill="white" stroke="#666666" points="103.38,-19 8.38,-19 8.38,0 103.38,0 103.38,-19"/>
<text text-anchor="middle" x="55.88" y="-7" font-family="Helvetica,sans-Serif" font-size="10.00">FMC_platform.h</text>
</a>
</g>
</g>
<!-- Node2&#45;&gt;Node4 -->
<g id="edge6" class="edge">
<title>Node2&#45;&gt;Node4</title>
<path fill="none" stroke="#63b8ff" d="M225.72,-224.11C179.42,-219 118.16,-207.94 68.88,-184 35.14,-167.61 20.53,-163.08 4.88,-129 -11.77,-92.74 19.44,-49.57 39.97,-26.66"/>
<polygon fill="#63b8ff" stroke="#63b8ff" points="42.68,-28.89 46.94,-19.19 37.56,-24.11 42.68,-28.89"/>
</g>
<!-- Node6 -->
<g id="node6" class="node">
<title>Node6</title>
<g id="a_node6"><a xlink:href="../../da/dd3/FMC__consts_8h.html" target="_top" xlink:title=" ">
<polygon fill="white" stroke="#666666" points="525.88,-129 375.88,-129 375.88,-110 525.88,-110 525.88,-129"/>
<text text-anchor="middle" x="450.88" y="-117" font-family="Helvetica,sans-Serif" font-size="10.00">preprocessor/FMC_consts.h</text>
</a>
</g>
</g>
<!-- Node2&#45;&gt;Node6 -->
<g id="edge7" class="edge">
<title>Node2&#45;&gt;Node6</title>
<path fill="none" stroke="#63b8ff" d="M364.07,-221.39C412.31,-214.84 470.66,-203.17 485.88,-184 497.77,-169.03 483.23,-149.47 469.44,-136.04"/>
<polygon fill="#63b8ff" stroke="#63b8ff" points="471.77,-133.43 462.03,-129.27 467.05,-138.6 471.77,-133.43"/>
</g>
<!-- Node7 -->
<g id="node7" class="node">
<title>Node7</title>
<g id="a_node7"><a xlink:href="../../d5/de5/FMC__structs_8h.html" target="_top" xlink:title=" ">
<polygon fill="white" stroke="#666666" points="352.88,-184 236.88,-184 236.88,-165 352.88,-165 352.88,-184"/>
<text text-anchor="middle" x="294.88" y="-172" font-family="Helvetica,sans-Serif" font-size="10.00">types/FMC_structs.h</text>
</a>
</g>
</g>
<!-- Node2&#45;&gt;Node7 -->
<g id="edge8" class="edge">
<title>Node2&#45;&gt;Node7</title>
<path fill="none" stroke="#63b8ff" d="M294.88,-219.75C294.88,-212.8 294.88,-202.85 294.88,-194.13"/>
<polygon fill="#63b8ff" stroke="#63b8ff" points="298.38,-194.09 294.88,-184.09 291.38,-194.09 298.38,-194.09"/>
</g>
<!-- Node9 -->
<g id="node9" class="node">
<title>Node9</title>
<g id="a_node9"><a xlink:href="../../d6/d25/FMC__enums_8h.html" target="_top" xlink:title=" ">
<polygon fill="white" stroke="#666666" points="99.88,-129 13.88,-129 13.88,-110 99.88,-110 99.88,-129"/>
<text text-anchor="middle" x="56.88" y="-117" font-family="Helvetica,sans-Serif" font-size="10.00">FMC_enums.h</text>
</a>
</g>
</g>
<!-- Node2&#45;&gt;Node9 -->
<g id="edge18" class="edge">
<title>Node2&#45;&gt;Node9</title>
<path fill="none" stroke="#63b8ff" d="M225.69,-220.04C174.48,-212.6 110.08,-200.4 88.88,-184 74.56,-172.93 66.15,-153.71 61.57,-139.3"/>
<polygon fill="#63b8ff" stroke="#63b8ff" points="64.87,-138.12 58.79,-129.45 58.14,-140.02 64.87,-138.12"/>
</g>
<!-- Node10 -->
<g id="node10" class="node">
<title>Node10</title>
<g id="a_node10"><a xlink:href="../../df/df8/FMC__typedefs_8h.html" target="_top" xlink:title=" ">
<polygon fill="white" stroke="#666666" points="213.38,-129 118.38,-129 118.38,-110 213.38,-110 213.38,-129"/>
<text text-anchor="middle" x="165.88" y="-117" font-family="Helvetica,sans-Serif" font-size="10.00">FMC_typedefs.h</text>
</a>
</g>
</g>
<!-- Node2&#45;&gt;Node10 -->
<g id="edge17" class="edge">
<title>Node2&#45;&gt;Node10</title>
<path fill="none" stroke="#63b8ff" d="M225.87,-221.99C175.69,-215.66 113.86,-203.99 97.88,-184 82.32,-164.53 110.22,-145.47 134.84,-133.39"/>
<polygon fill="#63b8ff" stroke="#63b8ff" points="136.43,-136.51 144.02,-129.11 133.47,-130.16 136.43,-136.51"/>
</g>
<!-- Node11 -->
<g id="node11" class="node">
<title>Node11</title>
<g id="a_node11"><a xlink:href="../../d2/d5e/FMC__flags_8h.html" target="_top" xlink:title=" ">
<polygon fill="white" stroke="#666666" points="723.88,-184 581.88,-184 581.88,-165 723.88,-165 723.88,-184"/>
<text text-anchor="middle" x="652.88" y="-172" font-family="Helvetica,sans-Serif" font-size="10.00">preprocessor/FMC_flags.h</text>
</a>
</g>
</g>
<!-- Node2&#45;&gt;Node11 -->
<g id="edge16" class="edge">
<title>Node2&#45;&gt;Node11</title>
<path fill="none" stroke="#63b8ff" d="M352.4,-219.98C415.85,-210.59 517.86,-195.49 585.13,-185.53"/>
<polygon fill="#63b8ff" stroke="#63b8ff" points="585.83,-188.96 595.21,-184.04 584.8,-182.04 585.83,-188.96"/>
</g>
<!-- Node12 -->
<g id="node12" class="node">
<title>Node12</title>
<g id="a_node12"><a xlink:href="../../dd/ddf/FMC__errors_8h.html" target="_top" xlink:title=" ">
<polygon fill="white" stroke="#666666" points="476.38,-184 371.38,-184 371.38,-165 476.38,-165 476.38,-184"/>
<text text-anchor="middle" x="423.88" y="-172" font-family="Helvetica,sans-Serif" font-size="10.00">utils/FMC_errors.h</text>
</a>
</g>
</g>
<!-- Node2&#45;&gt;Node12 -->
<g id="edge19" class="edge">
<title>Node2&#45;&gt;Node12</title>
<path fill="none" stroke="#63b8ff" d="M315.61,-219.98C336.64,-211.34 369.43,-197.87 393.42,-188.02"/>
<polygon fill="#63b8ff" stroke="#63b8ff" points="394.86,-191.21 402.78,-184.17 392.2,-184.73 394.86,-191.21"/>
</g>
<!-- Node13 -->
<g id="node13" class="node">
<title>Node13</title>
<g id="a_node13"><a xlink:href="../../de/d86/FMC__globals_8h.html" target="_top" xlink:title=" ">
<polygon fill="white" stroke="#666666" points="218.88,-184 106.88,-184 106.88,-165 218.88,-165 218.88,-184"/>
<text text-anchor="middle" x="162.88" y="-172" font-family="Helvetica,sans-Serif" font-size="10.00">utils/FMC_globals.h</text>
</a>
</g>
</g>
<!-- Node2&#45;&gt;Node13 -->
<g id="edge23" class="edge">
<title>Node2&#45;&gt;Node13</title>
<path fill="none" stroke="#63b8ff" d="M273.67,-219.98C252.15,-211.34 218.6,-197.87 194.05,-188.02"/>
<polygon fill="#63b8ff" stroke="#63b8ff" points="195.06,-184.65 184.47,-184.17 192.45,-191.14 195.06,-184.65"/>
</g>
<!-- Node3&#45;&gt;Node4 -->
<g id="edge3" class="edge">
<title>Node3&#45;&gt;Node4</title>
<path fill="none" stroke="#63b8ff" d="M180.1,-54.98C155.65,-46.23 117.34,-32.51 89.73,-22.62"/>
<polygon fill="#63b8ff" stroke="#63b8ff" points="90.69,-19.25 80.09,-19.17 88.33,-25.84 90.69,-19.25"/>
</g>
<!-- Node5 -->
<g id="node5" class="node">
<title>Node5</title>
<g id="a_node5"><a xlink:href="../../d1/d2e/FMC__attributes_8h.html" target="_top" xlink:title=" ">
<polygon fill="white" stroke="#666666" points="253.88,-19 153.88,-19 153.88,0 253.88,0 253.88,-19"/>
<text text-anchor="middle" x="203.88" y="-7" font-family="Helvetica,sans-Serif" font-size="10.00">FMC_attributes.h</text>
</a>
</g>
</g>
<!-- Node3&#45;&gt;Node5 -->
<g id="edge4" class="edge">
<title>Node3&#45;&gt;Node5</title>
<path fill="none" stroke="#63b8ff" d="M198.71,-54.75C197.22,-47.8 196.78,-37.85 197.4,-29.13"/>
<polygon fill="#63b8ff" stroke="#63b8ff" points="200.89,-29.47 198.75,-19.09 193.95,-28.53 200.89,-29.47"/>
</g>
<!-- Node5&#45;&gt;Node3 -->
<g id="edge5" class="edge">
<title>Node5&#45;&gt;Node3</title>
<path fill="none" stroke="#63b8ff" d="M209.01,-19.09C210.52,-25.99 210.97,-35.93 210.37,-44.66"/>
<polygon fill="#63b8ff" stroke="#63b8ff" points="206.88,-44.38 209.05,-54.75 213.82,-45.29 206.88,-44.38"/>
</g>
<!-- Node7&#45;&gt;Node3 -->
<g id="edge11" class="edge">
<title>Node7&#45;&gt;Node3</title>
<path fill="none" stroke="#63b8ff" d="M287.43,-164.66C272.23,-146.61 237.4,-105.28 217.85,-82.08"/>
<polygon fill="#63b8ff" stroke="#63b8ff" points="220.3,-79.55 211.18,-74.16 214.94,-84.06 220.3,-79.55"/>
</g>
<!-- Node7&#45;&gt;Node6 -->
<g id="edge10" class="edge">
<title>Node7&#45;&gt;Node6</title>
<path fill="none" stroke="#63b8ff" d="M319.94,-164.98C345.91,-156.16 386.69,-142.31 415.84,-132.41"/>
<polygon fill="#63b8ff" stroke="#63b8ff" points="417.28,-135.61 425.62,-129.08 415.02,-128.99 417.28,-135.61"/>
</g>
<!-- Node8 -->
<g id="node8" class="node">
<title>Node8</title>
<g id="a_node8"><a xlink:title=" ">
<polygon fill="#e0e0e0" stroke="#999999" points="319.88,-129 269.88,-129 269.88,-110 319.88,-110 319.88,-129"/>
<text text-anchor="middle" x="294.88" y="-117" font-family="Helvetica,sans-Serif" font-size="10.00">stdio.h</text>
</a>
</g>
</g>
<!-- Node7&#45;&gt;Node8 -->
<g id="edge9" class="edge">
<title>Node7&#45;&gt;Node8</title>
<path fill="none" stroke="#63b8ff" d="M294.88,-164.75C294.88,-157.8 294.88,-147.85 294.88,-139.13"/>
<polygon fill="#63b8ff" stroke="#63b8ff" points="298.38,-139.09 294.88,-129.09 291.38,-139.09 298.38,-139.09"/>
</g>
<!-- Node7&#45;&gt;Node9 -->
<g id="edge12" class="edge">
<title>Node7&#45;&gt;Node9</title>
<path fill="none" stroke="#63b8ff" d="M256.64,-164.98C215.47,-155.82 149.89,-141.21 105.18,-131.26"/>
<polygon fill="#63b8ff" stroke="#63b8ff" points="105.94,-127.84 95.42,-129.08 104.42,-134.67 105.94,-127.84"/>
</g>
<!-- Node7&#45;&gt;Node10 -->
<g id="edge14" class="edge">
<title>Node7&#45;&gt;Node10</title>
<path fill="none" stroke="#63b8ff" d="M274.15,-164.98C253.12,-156.34 220.33,-142.87 196.34,-133.02"/>
<polygon fill="#63b8ff" stroke="#63b8ff" points="197.56,-129.73 186.98,-129.17 194.9,-136.21 197.56,-129.73"/>
</g>
<!-- Node9&#45;&gt;Node3 -->
<g id="edge13" class="edge">
<title>Node9&#45;&gt;Node3</title>
<path fill="none" stroke="#63b8ff" d="M80.5,-109.98C104.78,-101.23 142.83,-87.51 170.25,-77.62"/>
<polygon fill="#63b8ff" stroke="#63b8ff" points="171.61,-80.85 179.83,-74.17 169.24,-74.27 171.61,-80.85"/>
</g>
<!-- Node10&#45;&gt;Node3 -->
<g id="edge15" class="edge">
<title>Node10&#45;&gt;Node3</title>
<path fill="none" stroke="#63b8ff" d="M172.15,-109.75C177.47,-102.34 185.24,-91.5 191.76,-82.41"/>
<polygon fill="#63b8ff" stroke="#63b8ff" points="194.74,-84.26 197.72,-74.09 189.05,-80.18 194.74,-84.26"/>
</g>
<!-- Node12&#45;&gt;Node3 -->
<g id="edge22" class="edge">
<title>Node12&#45;&gt;Node3</title>
<path fill="none" stroke="#63b8ff" d="M413.02,-164.93C395.93,-151.74 361.32,-126.3 328.88,-110 301.65,-96.32 269.19,-84.9 244.17,-77.05"/>
<polygon fill="#63b8ff" stroke="#63b8ff" points="244.87,-73.6 234.29,-74.01 242.82,-80.3 244.87,-73.6"/>
</g>
<!-- Node12&#45;&gt;Node6 -->
<g id="edge21" class="edge">
<title>Node12&#45;&gt;Node6</title>
<path fill="none" stroke="#63b8ff" d="M428.34,-164.75C431.99,-157.57 437.29,-147.18 441.83,-138.27"/>
<polygon fill="#63b8ff" stroke="#63b8ff" points="445.08,-139.59 446.5,-129.09 438.85,-136.41 445.08,-139.59"/>
</g>
<!-- Node12&#45;&gt;Node8 -->
<g id="edge20" class="edge">
<title>Node12&#45;&gt;Node8</title>
<path fill="none" stroke="#63b8ff" d="M403.15,-164.98C382.12,-156.34 349.33,-142.87 325.34,-133.02"/>
<polygon fill="#63b8ff" stroke="#63b8ff" points="326.56,-129.73 315.98,-129.17 323.9,-136.21 326.56,-129.73"/>
</g>
<!-- Node13&#45;&gt;Node10 -->
<g id="edge24" class="edge">
<title>Node13&#45;&gt;Node10</title>
<path fill="none" stroke="#63b8ff" d="M163.38,-164.75C163.77,-157.8 164.33,-147.85 164.82,-139.13"/>
<polygon fill="#63b8ff" stroke="#63b8ff" points="168.32,-139.27 165.39,-129.09 161.33,-138.88 168.32,-139.27"/>
</g>
</g>
</svg>
