<?xml version="1.0" encoding="UTF-8" standalone="no"?>
<!DOCTYPE svg PUBLIC "-//W3C//DTD SVG 1.1//EN"
 "http://www.w3.org/Graphics/SVG/1.1/DTD/svg11.dtd">
<!-- Generated by graphviz version 2.43.0 (0)
 -->
<!-- Title: src/FMC.h Pages: 1 -->
<svg width="933pt" height="434pt"
 viewBox="0.00 0.00 932.92 434.00" xmlns="http://www.w3.org/2000/svg" xmlns:xlink="http://www.w3.org/1999/xlink">
<g id="graph0" class="graph" transform="scale(1 1) rotate(0) translate(4 430)">
<title>src/FMC.h</title>
<!-- Node1 -->
<g id="node1" class="node">
<title>Node1</title>
<g id="a_node1"><a xlink:title=" ">
<polygon fill="#999999" stroke="#666666" points="506.92,-426 441.92,-426 441.92,-407 506.92,-407 506.92,-426"/>
<text text-anchor="middle" x="474.42" y="-414" font-family="Helvetica,sans-Serif" font-size="10.00">src/FMC.h</text>
</a>
</g>
</g>
<!-- Node2 -->
<g id="node2" class="node">
<title>Node2</title>
<g id="a_node2"><a xlink:href="../../d9/de1/FMC__general_8h.html" target="_top" xlink:title=" ">
<polygon fill="white" stroke="#666666" points="445.92,-239 316.92,-239 316.92,-220 445.92,-220 445.92,-239"/>
<text text-anchor="middle" x="381.42" y="-227" font-family="Helvetica,sans-Serif" font-size="10.00">general/FMC_general.h</text>
</a>
</g>
</g>
<!-- Node1&#45;&gt;Node2 -->
<g id="edge1" class="edge">
<title>Node1&#45;&gt;Node2</title>
<path fill="none" stroke="#63b8ff" d="M469.93,-406.58C455.48,-377.82 409.93,-287.21 390.42,-248.41"/>
<polygon fill="#63b8ff" stroke="#63b8ff" points="393.48,-246.7 385.86,-239.33 387.22,-249.84 393.48,-246.7"/>
</g>
<!-- Node16 -->
<g id="node16" class="node">
<title>Node16</title>
<g id="a_node16"><a xlink:href="../../db/d26/FMC__code__utils_8h.html" target="_top" xlink:title=" ">
<polygon fill="white" stroke="#666666" points="554.92,-305 435.92,-305 435.92,-275 554.92,-275 554.92,-305"/>
<text text-anchor="start" x="443.92" y="-293" font-family="Helvetica,sans-Serif" font-size="10.00">code_utils/FMC_code</text>
<text text-anchor="middle" x="495.42" y="-282" font-family="Helvetica,sans-Serif" font-size="10.00">_utils.h</text>
</a>
</g>
</g>
<!-- Node1&#45;&gt;Node16 -->
<g id="edge28" class="edge">
<title>Node1&#45;&gt;Node16</title>
<path fill="none" stroke="#63b8ff" d="M475.86,-406.94C479,-388.32 486.56,-343.53 491.31,-315.39"/>
<polygon fill="#63b8ff" stroke="#63b8ff" points="494.82,-315.6 493.03,-305.16 487.92,-314.44 494.82,-315.6"/>
</g>
<!-- Node17 -->
<g id="node17" class="node">
<title>Node17</title>
<g id="a_node17"><a xlink:href="../../d2/deb/FMC__file__management_8h.html" target="_top" xlink:title=" ">
<polygon fill="white" stroke="#666666" points="663.92,-365.5 502.92,-365.5 502.92,-346.5 663.92,-346.5 663.92,-365.5"/>
<text text-anchor="middle" x="583.42" y="-353.5" font-family="Helvetica,sans-Serif" font-size="10.00">files/FMC_file_management.h</text>
</a>
</g>
</g>
<!-- Node1&#45;&gt;Node17 -->
<g id="edge30" class="edge">
<title>Node1&#45;&gt;Node17</title>
<path fill="none" stroke="#63b8ff" d="M490.5,-406.87C508.37,-397.28 537.46,-381.67 558.33,-370.47"/>
<polygon fill="#63b8ff" stroke="#63b8ff" points="560.11,-373.48 567.27,-365.67 556.8,-367.31 560.11,-373.48"/>
</g>
<!-- Node18 -->
<g id="node18" class="node">
<title>Node18</title>
<g id="a_node18"><a xlink:href="../../da/db0/FMC__data__analyze_8h.html" target="_top" xlink:title=" ">
<polygon fill="white" stroke="#666666" points="379.42,-371 245.42,-371 245.42,-341 379.42,-341 379.42,-371"/>
<text text-anchor="start" x="253.42" y="-359" font-family="Helvetica,sans-Serif" font-size="10.00">data_analyze/FMC_data</text>
<text text-anchor="middle" x="312.42" y="-348" font-family="Helvetica,sans-Serif" font-size="10.00">_analyze.h</text>
</a>
</g>
</g>
<!-- Node1&#45;&gt;Node18 -->
<g id="edge32" class="edge">
<title>Node1&#45;&gt;Node18</title>
<path fill="none" stroke="#63b8ff" d="M450.86,-406.99C427.45,-398.54 390.84,-385.32 361.14,-374.59"/>
<polygon fill="#63b8ff" stroke="#63b8ff" points="361.96,-371.17 351.37,-371.06 359.58,-377.75 361.96,-371.17"/>
</g>
<!-- Node21 -->
<g id="node21" class="node">
<title>Node21</title>
<g id="a_node21"><a xlink:href="../../d4/db9/FMC__wrapper_8h.html" target="_top" xlink:title=" ">
<polygon fill="white" stroke="#666666" points="775.42,-184 663.42,-184 663.42,-165 775.42,-165 775.42,-184"/>
<text text-anchor="middle" x="719.42" y="-172" font-family="Helvetica,sans-Serif" font-size="10.00">cpp/FMC_wrapper.h</text>
</a>
</g>
</g>
<!-- Node1&#45;&gt;Node21 -->
<g id="edge37" class="edge">
<title>Node1&#45;&gt;Node21</title>
<path fill="none" stroke="#63b8ff" d="M507.29,-412.35C557.59,-406.87 650.26,-393.9 673.42,-371 722.17,-322.78 723.17,-233.28 721.01,-194.37"/>
<polygon fill="#63b8ff" stroke="#63b8ff" points="724.48,-193.76 720.29,-184.02 717.49,-194.24 724.48,-193.76"/>
</g>
<!-- Node3 -->
<g id="node3" class="node">
<title>Node3</title>
<g id="a_node3"><a xlink:href="../../d0/d28/FMC__macros_8h.html" target="_top" xlink:title=" ">
<polygon fill="white" stroke="#666666" points="488.92,-74 333.92,-74 333.92,-55 488.92,-55 488.92,-74"/>
<text text-anchor="middle" x="411.42" y="-62" font-family="Helvetica,sans-Serif" font-size="10.00">preprocessor/FMC_macros.h</text>
</a>
</g>
</g>
<!-- Node2&#45;&gt;Node3 -->
<g id="edge2" class="edge">
<title>Node2&#45;&gt;Node3</title>
<path fill="none" stroke="#63b8ff" d="M316.78,-225.11C218.22,-219.27 39.69,-205.79 20.42,-184 14.83,-177.67 16.93,-172.69 20.42,-165 35.8,-131.16 49.58,-125.37 83.42,-110 124.98,-91.12 241.29,-78.54 323.55,-71.71"/>
<polygon fill="#63b8ff" stroke="#63b8ff" points="323.98,-75.18 333.66,-70.88 323.41,-68.21 323.98,-75.18"/>
</g>
<!-- Node4 -->
<g id="node4" class="node">
<title>Node4</title>
<g id="a_node4"><a xlink:href="../../d7/dff/FMC__platform_8h.html" target="_top" xlink:title=" ">
<polygon fill="white" stroke="#666666" points="182.92,-19 87.92,-19 87.92,0 182.92,0 182.92,-19"/>
<text text-anchor="middle" x="135.42" y="-7" font-family="Helvetica,sans-Serif" font-size="10.00">FMC_platform.h</text>
</a>
</g>
</g>
<!-- Node2&#45;&gt;Node4 -->
<g id="edge6" class="edge">
<title>Node2&#45;&gt;Node4</title>
<path fill="none" stroke="#63b8ff" d="M316.76,-225.27C216.55,-219.59 33.16,-206.27 13.42,-184 -35.01,-129.36 64.77,-55.28 112.23,-24.65"/>
<polygon fill="#63b8ff" stroke="#63b8ff" points="114.38,-27.43 120.96,-19.12 110.64,-21.51 114.38,-27.43"/>
</g>
<!-- Node6 -->
<g id="node6" class="node">
<title>Node6</title>
<g id="a_node6"><a xlink:href="../../da/dd3/FMC__consts_8h.html" target="_top" xlink:title=" ">
<polygon fill="white" stroke="#666666" points="242.42,-129 92.42,-129 92.42,-110 242.42,-110 242.42,-129"/>
<text text-anchor="middle" x="167.42" y="-117" font-family="Helvetica,sans-Serif" font-size="10.00">preprocessor/FMC_consts.h</text>
</a>
</g>
</g>
<!-- Node2&#45;&gt;Node6 -->
<g id="edge7" class="edge">
<title>Node2&#45;&gt;Node6</title>
<path fill="none" stroke="#63b8ff" d="M316.61,-224.85C220.38,-218.76 49,-205.08 30.42,-184 6.33,-156.66 48.78,-140.29 92.62,-131.04"/>
<polygon fill="#63b8ff" stroke="#63b8ff" points="93.44,-134.44 102.56,-129.06 92.07,-127.58 93.44,-134.44"/>
</g>
<!-- Node7 -->
<g id="node7" class="node">
<title>Node7</title>
<g id="a_node7"><a xlink:href="../../d5/de5/FMC__structs_8h.html" target="_top" xlink:title=" ">
<polygon fill="white" stroke="#666666" points="439.42,-184 323.42,-184 323.42,-165 439.42,-165 439.42,-184"/>
<text text-anchor="middle" x="381.42" y="-172" font-family="Helvetica,sans-Serif" font-size="10.00">types/FMC_structs.h</text>
</a>
</g>
</g>
<!-- Node2&#45;&gt;Node7 -->
<g id="edge8" class="edge">
<title>Node2&#45;&gt;Node7</title>
<path fill="none" stroke="#63b8ff" d="M381.42,-219.75C381.42,-212.8 381.42,-202.85 381.42,-194.13"/>
<polygon fill="#63b8ff" stroke="#63b8ff" points="384.92,-194.09 381.42,-184.09 377.92,-194.09 384.92,-194.09"/>
</g>
<!-- Node9 -->
<g id="node9" class="node">
<title>Node9</title>
<g id="a_node9"><a xlink:href="../../d6/d25/FMC__enums_8h.html" target="_top" xlink:title=" ">
<polygon fill="white" stroke="#666666" points="490.42,-129 404.42,-129 404.42,-110 490.42,-110 490.42,-129"/>
<text text-anchor="middle" x="447.42" y="-117" font-family="Helvetica,sans-Serif" font-size="10.00">FMC_enums.h</text>
</a>
</g>
</g>
<!-- Node2&#45;&gt;Node9 -->
<g id="edge18" class="edge">
<title>Node2&#45;&gt;Node9</title>
<path fill="none" stroke="#63b8ff" d="M404.53,-219.98C420.01,-212.92 439.18,-201.23 448.42,-184 455.75,-170.34 454.72,-152.52 452.31,-139.24"/>
<polygon fill="#63b8ff" stroke="#63b8ff" points="455.7,-138.35 450.11,-129.34 448.86,-139.86 455.7,-138.35"/>
</g>
<!-- Node10 -->
<g id="node10" class="node">
<title>Node10</title>
<g id="a_node10"><a xlink:href="../../df/df8/FMC__typedefs_8h.html" target="_top" xlink:title=" ">
<polygon fill="white" stroke="#666666" points="603.92,-129 508.92,-129 508.92,-110 603.92,-110 603.92,-129"/>
<text text-anchor="middle" x="556.42" y="-117" font-family="Helvetica,sans-Serif" font-size="10.00">FMC_typedefs.h</text>
</a>
</g>
</g>
<!-- Node2&#45;&gt;Node10 -->
<g id="edge17" class="edge">
<title>Node2&#45;&gt;Node10</title>
<path fill="none" stroke="#63b8ff" d="M445.97,-225.28C507.92,-220.67 595.13,-209.7 616.42,-184 631.47,-165.83 606.07,-146.29 583.83,-133.76"/>
<polygon fill="#63b8ff" stroke="#63b8ff" points="585.4,-130.63 574.93,-129 582.1,-136.8 585.4,-130.63"/>
</g>
<!-- Node11 -->
<g id="node11" class="node">
<title>Node11</title>
<g id="a_node11"><a xlink:href="../../d2/d5e/FMC__flags_8h.html" target="_top" xlink:title=" ">
<polygon fill="white" stroke="#666666" points="181.42,-184 39.42,-184 39.42,-165 181.42,-165 181.42,-184"/>
<text text-anchor="middle" x="110.42" y="-172" font-family="Helvetica,sans-Serif" font-size="10.00">preprocessor/FMC_flags.h</text>
</a>
</g>
</g>
<!-- Node2&#45;&gt;Node11 -->
<g id="edge16" class="edge">
<title>Node2&#45;&gt;Node11</title>
<path fill="none" stroke="#63b8ff" d="M337.88,-219.98C290.61,-210.74 215.07,-195.97 164.14,-186.01"/>
<polygon fill="#63b8ff" stroke="#63b8ff" points="164.79,-182.57 154.3,-184.08 163.44,-189.44 164.79,-182.57"/>
</g>
<!-- Node12 -->
<g id="node12" class="node">
<title>Node12</title>
<g id="a_node12"><a xlink:href="../../dd/ddf/FMC__errors_8h.html" target="_top" xlink:title=" ">
<polygon fill="white" stroke="#666666" points="304.92,-184 199.92,-184 199.92,-165 304.92,-165 304.92,-184"/>
<text text-anchor="middle" x="252.42" y="-172" font-family="Helvetica,sans-Serif" font-size="10.00">utils/FMC_errors.h</text>
</a>
</g>
</g>
<!-- Node2&#45;&gt;Node12 -->
<g id="edge19" class="edge">
<title>Node2&#45;&gt;Node12</title>
<path fill="none" stroke="#63b8ff" d="M360.69,-219.98C339.66,-211.34 306.87,-197.87 282.88,-188.02"/>
<polygon fill="#63b8ff" stroke="#63b8ff" points="284.1,-184.73 273.52,-184.17 281.44,-191.21 284.1,-184.73"/>
</g>
<!-- Node13 -->
<g id="node13" class="node">
<title>Node13</title>
<g id="a_node13"><a xlink:href="../../de/d86/FMC__globals_8h.html" target="_top" xlink:title=" ">
<polygon fill="white" stroke="#666666" points="607.42,-184 495.42,-184 495.42,-165 607.42,-165 607.42,-184"/>
<text text-anchor="middle" x="551.42" y="-172" font-family="Helvetica,sans-Serif" font-size="10.00">utils/FMC_globals.h</text>
</a>
</g>
</g>
<!-- Node2&#45;&gt;Node13 -->
<g id="edge23" class="edge">
<title>Node2&#45;&gt;Node13</title>
<path fill="none" stroke="#63b8ff" d="M408.73,-219.98C437.27,-211.09 482.24,-197.07 514.06,-187.15"/>
<polygon fill="#63b8ff" stroke="#63b8ff" points="515.39,-190.4 523.89,-184.08 513.3,-183.72 515.39,-190.4"/>
</g>
<!-- Node14 -->
<g id="node14" class="node">
<title>Node14</title>
<g id="a_node14"><a xlink:href="../../d4/d06/FMC__deprecated_8h.html" target="_top" xlink:title=" ">
<polygon fill="white" stroke="#666666" points="924.92,-184 793.92,-184 793.92,-165 924.92,-165 924.92,-184"/>
<text text-anchor="middle" x="859.42" y="-172" font-family="Helvetica,sans-Serif" font-size="10.00">utils/FMC_deprecated.h</text>
</a>
</g>
</g>
<!-- Node2&#45;&gt;Node14 -->
<g id="edge25" class="edge">
<title>Node2&#45;&gt;Node14</title>
<path fill="none" stroke="#63b8ff" d="M445.99,-221.43C523.48,-212.93 657.66,-198.17 783.38,-184.11"/>
<polygon fill="#63b8ff" stroke="#63b8ff" points="784.02,-187.56 793.57,-182.97 783.24,-180.61 784.02,-187.56"/>
</g>
<!-- Node3&#45;&gt;Node4 -->
<g id="edge3" class="edge">
<title>Node3&#45;&gt;Node4</title>
<path fill="none" stroke="#63b8ff" d="M367.08,-54.98C318.93,-45.74 242,-30.97 190.13,-21.01"/>
<polygon fill="#63b8ff" stroke="#63b8ff" points="190.59,-17.53 180.11,-19.08 189.27,-24.41 190.59,-17.53"/>
</g>
<!-- Node5 -->
<g id="node5" class="node">
<title>Node5</title>
<g id="a_node5"><a xlink:href="../../d1/d2e/FMC__attributes_8h.html" target="_top" xlink:title=" ">
<polygon fill="white" stroke="#666666" points="461.42,-19 361.42,-19 361.42,0 461.42,0 461.42,-19"/>
<text text-anchor="middle" x="411.42" y="-7" font-family="Helvetica,sans-Serif" font-size="10.00">FMC_attributes.h</text>
</a>
</g>
</g>
<!-- Node3&#45;&gt;Node5 -->
<g id="edge4" class="edge">
<title>Node3&#45;&gt;Node5</title>
<path fill="none" stroke="#63b8ff" d="M406.25,-54.75C404.76,-47.8 404.32,-37.85 404.94,-29.13"/>
<polygon fill="#63b8ff" stroke="#63b8ff" points="408.43,-29.47 406.29,-19.09 401.49,-28.53 408.43,-29.47"/>
</g>
<!-- Node5&#45;&gt;Node3 -->
<g id="edge5" class="edge">
<title>Node5&#45;&gt;Node3</title>
<path fill="none" stroke="#63b8ff" d="M416.55,-19.09C418.06,-25.99 418.51,-35.93 417.91,-44.66"/>
<polygon fill="#63b8ff" stroke="#63b8ff" points="414.42,-44.38 416.59,-54.75 421.36,-45.29 414.42,-44.38"/>
</g>
<!-- Node7&#45;&gt;Node3 -->
<g id="edge11" class="edge">
<title>Node7&#45;&gt;Node3</title>
<path fill="none" stroke="#63b8ff" d="M382.97,-164.78C385.25,-152.46 389.85,-129.31 395.42,-110 397.95,-101.22 401.31,-91.67 404.29,-83.68"/>
<polygon fill="#63b8ff" stroke="#63b8ff" points="407.59,-84.85 407.89,-74.26 401.05,-82.34 407.59,-84.85"/>
</g>
<!-- Node7&#45;&gt;Node6 -->
<g id="edge10" class="edge">
<title>Node7&#45;&gt;Node6</title>
<path fill="none" stroke="#63b8ff" d="M347.04,-164.98C310.33,-155.89 252.04,-141.46 211.87,-131.51"/>
<polygon fill="#63b8ff" stroke="#63b8ff" points="212.62,-128.09 202.07,-129.08 210.94,-134.88 212.62,-128.09"/>
</g>
<!-- Node8 -->
<g id="node8" class="node">
<title>Node8</title>
<g id="a_node8"><a xlink:title=" ">
<polygon fill="#e0e0e0" stroke="#999999" points="348.42,-129 298.42,-129 298.42,-110 348.42,-110 348.42,-129"/>
<text text-anchor="middle" x="323.42" y="-117" font-family="Helvetica,sans-Serif" font-size="10.00">stdio.h</text>
</a>
</g>
</g>
<!-- Node7&#45;&gt;Node8 -->
<g id="edge9" class="edge">
<title>Node7&#45;&gt;Node8</title>
<path fill="none" stroke="#63b8ff" d="M372.1,-164.98C363.61,-157.23 350.86,-145.58 340.54,-136.14"/>
<polygon fill="#63b8ff" stroke="#63b8ff" points="342.65,-133.33 332.91,-129.17 337.93,-138.5 342.65,-133.33"/>
</g>
<!-- Node7&#45;&gt;Node9 -->
<g id="edge12" class="edge">
<title>Node7&#45;&gt;Node9</title>
<path fill="none" stroke="#63b8ff" d="M392.02,-164.98C401.88,-157.07 416.77,-145.11 428.63,-135.58"/>
<polygon fill="#63b8ff" stroke="#63b8ff" points="431.02,-138.16 436.62,-129.17 426.63,-132.7 431.02,-138.16"/>
</g>
<!-- Node7&#45;&gt;Node10 -->
<g id="edge14" class="edge">
<title>Node7&#45;&gt;Node10</title>
<path fill="none" stroke="#63b8ff" d="M409.54,-164.98C439.04,-156.05 485.61,-141.94 518.39,-132.02"/>
<polygon fill="#63b8ff" stroke="#63b8ff" points="519.53,-135.33 528.08,-129.08 517.5,-128.63 519.53,-135.33"/>
</g>
<!-- Node9&#45;&gt;Node3 -->
<g id="edge13" class="edge">
<title>Node9&#45;&gt;Node3</title>
<path fill="none" stroke="#63b8ff" d="M441.47,-109.75C436.44,-102.34 429.08,-91.5 422.91,-82.41"/>
<polygon fill="#63b8ff" stroke="#63b8ff" points="425.77,-80.39 417.25,-74.09 419.98,-84.33 425.77,-80.39"/>
</g>
<!-- Node10&#45;&gt;Node3 -->
<g id="edge15" class="edge">
<title>Node10&#45;&gt;Node3</title>
<path fill="none" stroke="#63b8ff" d="M533.12,-109.98C509.17,-101.23 471.64,-87.51 444.59,-77.62"/>
<polygon fill="#63b8ff" stroke="#63b8ff" points="445.73,-74.32 435.14,-74.17 443.33,-80.89 445.73,-74.32"/>
</g>
<!-- Node12&#45;&gt;Node3 -->
<g id="edge22" class="edge">
<title>Node12&#45;&gt;Node3</title>
<path fill="none" stroke="#63b8ff" d="M255.28,-164.83C260.17,-151.28 271.41,-125.06 289.42,-110 308.55,-94 333.93,-83.52 356.59,-76.77"/>
<polygon fill="#63b8ff" stroke="#63b8ff" points="357.75,-80.08 366.44,-74.02 355.86,-73.34 357.75,-80.08"/>
</g>
<!-- Node12&#45;&gt;Node6 -->
<g id="edge21" class="edge">
<title>Node12&#45;&gt;Node6</title>
<path fill="none" stroke="#63b8ff" d="M238.76,-164.98C225.58,-156.77 205.39,-144.18 189.85,-134.49"/>
<polygon fill="#63b8ff" stroke="#63b8ff" points="191.66,-131.49 181.32,-129.17 187.96,-137.43 191.66,-131.49"/>
</g>
<!-- Node12&#45;&gt;Node8 -->
<g id="edge20" class="edge">
<title>Node12&#45;&gt;Node8</title>
<path fill="none" stroke="#63b8ff" d="M263.83,-164.98C274.53,-157 290.76,-144.88 303.58,-135.31"/>
<polygon fill="#63b8ff" stroke="#63b8ff" points="305.88,-137.96 311.8,-129.17 301.7,-132.35 305.88,-137.96"/>
</g>
<!-- Node13&#45;&gt;Node10 -->
<g id="edge24" class="edge">
<title>Node13&#45;&gt;Node10</title>
<path fill="none" stroke="#63b8ff" d="M552.25,-164.75C552.9,-157.8 553.84,-147.85 554.66,-139.13"/>
<polygon fill="#63b8ff" stroke="#63b8ff" points="558.15,-139.37 555.61,-129.09 551.19,-138.72 558.15,-139.37"/>
</g>
<!-- Node14&#45;&gt;Node5 -->
<g id="edge26" class="edge">
<title>Node14&#45;&gt;Node5</title>
<path fill="none" stroke="#63b8ff" d="M850.65,-164.76C836.46,-151.11 807.07,-124.77 777.42,-110 676.38,-59.66 546.53,-32.12 471.77,-19.42"/>
<polygon fill="#63b8ff" stroke="#63b8ff" points="472.03,-15.92 461.59,-17.73 470.88,-22.82 472.03,-15.92"/>
</g>
<!-- Node15 -->
<g id="node15" class="node">
<title>Node15</title>
<g id="a_node15"><a xlink:title=" ">
<polygon fill="#e0e0e0" stroke="#999999" points="768.42,-129 712.42,-129 712.42,-110 768.42,-110 768.42,-129"/>
<text text-anchor="middle" x="740.42" y="-117" font-family="Helvetica,sans-Serif" font-size="10.00">stddef.h</text>
</a>
</g>
</g>
<!-- Node14&#45;&gt;Node15 -->
<g id="edge27" class="edge">
<title>Node14&#45;&gt;Node15</title>
<path fill="none" stroke="#63b8ff" d="M840.3,-164.98C821.07,-156.42 791.19,-143.11 769.11,-133.28"/>
<polygon fill="#63b8ff" stroke="#63b8ff" points="770.45,-130.04 759.89,-129.17 767.6,-136.44 770.45,-130.04"/>
</g>
<!-- Node16&#45;&gt;Node2 -->
<g id="edge29" class="edge">
<title>Node16&#45;&gt;Node2</title>
<path fill="none" stroke="#63b8ff" d="M468.11,-274.99C449.77,-265.58 425.74,-253.24 407.63,-243.95"/>
<polygon fill="#63b8ff" stroke="#63b8ff" points="408.75,-240.59 398.25,-239.14 405.55,-246.82 408.75,-240.59"/>
</g>
<!-- Node17&#45;&gt;Node2 -->
<g id="edge31" class="edge">
<title>Node17&#45;&gt;Node2</title>
<path fill="none" stroke="#63b8ff" d="M584.07,-346.14C584.77,-329.72 583.75,-294.43 564.42,-275 549.02,-259.52 499.85,-248.07 456.36,-240.67"/>
<polygon fill="#63b8ff" stroke="#63b8ff" points="456.76,-237.19 446.32,-239.02 455.62,-244.1 456.76,-237.19"/>
</g>
<!-- Node19 -->
<g id="node19" class="node">
<title>Node19</title>
<g id="a_node19"><a xlink:href="../../db/d30/FMC__encodings_8h.html" target="_top" xlink:title=" ">
<polygon fill="white" stroke="#666666" points="238.92,-299.5 83.92,-299.5 83.92,-280.5 238.92,-280.5 238.92,-299.5"/>
<text text-anchor="middle" x="161.42" y="-287.5" font-family="Helvetica,sans-Serif" font-size="10.00">encodings/FMC_encodings.h</text>
</a>
</g>
</g>
<!-- Node18&#45;&gt;Node19 -->
<g id="edge33" class="edge">
<title>Node18&#45;&gt;Node19</title>
<path fill="none" stroke="#63b8ff" d="M279.28,-340.95C252.92,-329.78 216.36,-314.29 190.98,-303.53"/>
<polygon fill="#63b8ff" stroke="#63b8ff" points="192.09,-300.2 181.51,-299.52 189.36,-306.64 192.09,-300.2"/>
</g>
<!-- Node20 -->
<g id="node20" class="node">
<title>Node20</title>
<g id="a_node20"><a xlink:href="../../d9/db5/FMC__strings_8h.html" target="_top" xlink:title=" ">
<polygon fill="white" stroke="#666666" points="379.42,-299.5 257.42,-299.5 257.42,-280.5 379.42,-280.5 379.42,-299.5"/>
<text text-anchor="middle" x="318.42" y="-287.5" font-family="Helvetica,sans-Serif" font-size="10.00">strings/FMC_strings.h</text>
</a>
</g>
</g>
<!-- Node18&#45;&gt;Node20 -->
<g id="edge35" class="edge">
<title>Node18&#45;&gt;Node20</title>
<path fill="none" stroke="#63b8ff" d="M313.75,-340.8C314.6,-331.7 315.72,-319.79 316.65,-309.9"/>
<polygon fill="#63b8ff" stroke="#63b8ff" points="320.14,-310.13 317.59,-299.84 313.17,-309.47 320.14,-310.13"/>
</g>
<!-- Node19&#45;&gt;Node2 -->
<g id="edge34" class="edge">
<title>Node19&#45;&gt;Node2</title>
<path fill="none" stroke="#63b8ff" d="M193.41,-280.49C232.02,-270.23 297.06,-252.93 339.62,-241.62"/>
<polygon fill="#63b8ff" stroke="#63b8ff" points="340.63,-244.97 349.39,-239.02 338.83,-238.2 340.63,-244.97"/>
</g>
<!-- Node20&#45;&gt;Node2 -->
<g id="edge36" class="edge">
<title>Node20&#45;&gt;Node2</title>
<path fill="none" stroke="#63b8ff" d="M327.72,-280.37C337.39,-271.38 352.76,-257.11 364.58,-246.14"/>
<polygon fill="#63b8ff" stroke="#63b8ff" points="367.14,-248.54 372.09,-239.17 362.38,-243.41 367.14,-248.54"/>
</g>
<!-- Node21&#45;&gt;Node3 -->
<g id="edge38" class="edge">
<title>Node21&#45;&gt;Node3</title>
<path fill="none" stroke="#63b8ff" d="M707.99,-164.94C689.23,-151.29 650.3,-124.66 613.42,-110 572.22,-93.63 523.77,-82.69 484.65,-75.77"/>
<polygon fill="#63b8ff" stroke="#63b8ff" points="484.85,-72.25 474.4,-74 483.66,-79.15 484.85,-72.25"/>
</g>
<!-- Node21&#45;&gt;Node15 -->
<g id="edge39" class="edge">
<title>Node21&#45;&gt;Node15</title>
<path fill="none" stroke="#63b8ff" d="M722.89,-164.75C725.7,-157.65 729.76,-147.4 733.27,-138.56"/>
<polygon fill="#63b8ff" stroke="#63b8ff" points="736.59,-139.68 737.02,-129.09 730.08,-137.1 736.59,-139.68"/>
</g>
</g>
</svg>
