<?xml version="1.0" encoding="UTF-8" standalone="no"?>
<!DOCTYPE svg PUBLIC "-//W3C//DTD SVG 1.1//EN"
 "http://www.w3.org/Graphics/SVG/1.1/DTD/svg11.dtd">
<!-- Generated by graphviz version 2.43.0 (0)
 -->
<!-- Title: src/FMC.h Pages: 1 -->
<!--zoomable 434 -->
<svg id="main" version="1.1" xmlns="http://www.w3.org/2000/svg" xmlns:xlink="http://www.w3.org/1999/xlink" xml:space="preserve" onload="init(evt)">
<style type="text/css"><![CDATA[
.edge:hover path { stroke: red; }
.edge:hover polygon { stroke: red; fill: red; }
]]></style>
<script type="text/javascript"><![CDATA[
var edges = document.getElementsByTagName('g');
if (edges && edges.length) {
  for (var i=0;i<edges.length;i++) {
    if (edges[i].id.substr(0,4)=='edge') {
      edges[i].setAttribute('class','edge');
    }
  }
}
]]></script>
        <defs>
                <circle id="rim" cx="0" cy="0" r="7"/>
                <circle id="rim2" cx="0" cy="0" r="3.5"/>
                <g id="zoomPlus">
                        <use xlink:href="#rim" fill="#404040">
                                <set attributeName="fill" to="#808080" begin="zoomplus.mouseover" end="zoomplus.mouseout"/>
                        </use>
                        <path d="M-4,0h8M0,-4v8" fill="none" stroke="white" stroke-width="1.5" pointer-events="none"/>
                </g>
                <g id="zoomMin">
                        <use xlink:href="#rim" fill="#404040">
                                <set attributeName="fill" to="#808080" begin="zoomminus.mouseover" end="zoomminus.mouseout"/>
                        </use>
                        <path d="M-4,0h8" fill="none" stroke="white" stroke-width="1.5" pointer-events="none"/>
                </g>
                <g id="dirArrow">
                        <path fill="none" stroke="white" stroke-width="1.5" d="M0,-3.0v7 M-2.5,-0.5L0,-3.0L2.5,-0.5"/>
                </g>
               <g id="resetDef">
                       <use xlink:href="#rim2" fill="#404040">
                               <set attributeName="fill" to="#808080" begin="reset.mouseover" end="reset.mouseout"/>
                       </use>
               </g>
        </defs>

<script type="text/javascript">
var viewWidth = 1037;
var viewHeight = 434;
var sectionId = 'dynsection-0';
</script>
<script xlink:href="../../svgpan.js"/>
<svg id="graph" class="graph">
<g id="viewport">
<title>src/FMC.h</title>
<!-- Node1 -->
<g id="node1" class="node">
<title>Node1</title>
<g id="a_node1"><a xlink:title=" ">
<polygon fill="#999999" stroke="#666666" points="749.04,-426 684.04,-426 684.04,-407 749.04,-407 749.04,-426"/>
<text text-anchor="middle" x="716.54" y="-414" font-family="Helvetica,sans-Serif" font-size="10.00">src/FMC.h</text>
</a>
</g>
</g>
<!-- Node2 -->
<g id="node2" class="node">
<title>Node2</title>
<g id="a_node2"><a xlink:href="../../d9/de1/FMC__general_8h.html" target="_top" xlink:title=" ">
<polygon fill="white" stroke="#666666" points="608.04,-239 479.04,-239 479.04,-220 608.04,-220 608.04,-239"/>
<text text-anchor="middle" x="543.54" y="-227" font-family="Helvetica,sans-Serif" font-size="10.00">general/FMC_general.h</text>
</a>
</g>
</g>
<!-- Node1&#45;&gt;Node2 -->
<g id="edge1" class="edge">
<title>Node1&#45;&gt;Node2</title>
<path fill="none" stroke="#63b8ff" d="M743,-406.89C759.97,-399.94 780.91,-388.43 792.54,-371 816.32,-335.35 829.15,-307.78 801.54,-275 778.46,-247.6 685.95,-237.07 618.29,-233.02"/>
<polygon fill="#63b8ff" stroke="#63b8ff" points="618.26,-229.52 608.08,-232.45 617.87,-236.5 618.26,-229.52"/>
</g>
<!-- Node18 -->
<g id="node18" class="node">
<title>Node18</title>
<g id="a_node18"><a xlink:href="../../db/d26/FMC__code__utils_8h.html" target="_top" xlink:title=" ">
<polygon fill="white" stroke="#666666" points="440.04,-305 321.04,-305 321.04,-275 440.04,-275 440.04,-305"/>
<text text-anchor="start" x="329.04" y="-293" font-family="Helvetica,sans-Serif" font-size="10.00">code_utils/FMC_code</text>
<text text-anchor="middle" x="380.54" y="-282" font-family="Helvetica,sans-Serif" font-size="10.00">_utils.h</text>
</a>
</g>
</g>
<!-- Node1&#45;&gt;Node18 -->
<g id="edge34" class="edge">
<title>Node1&#45;&gt;Node18</title>
<path fill="none" stroke="#63b8ff" d="M683.81,-413.14C620.46,-408.08 483.77,-394.72 443.54,-371 420.84,-357.62 403.22,-332.71 392.46,-314.23"/>
<polygon fill="#63b8ff" stroke="#63b8ff" points="395.38,-312.28 387.46,-305.24 389.26,-315.68 395.38,-312.28"/>
</g>
<!-- Node19 -->
<g id="node19" class="node">
<title>Node19</title>
<g id="a_node19"><a xlink:href="../../d2/deb/FMC__file__management_8h.html" target="_top" xlink:title=" ">
<polygon fill="white" stroke="#666666" points="614.04,-365.5 453.04,-365.5 453.04,-346.5 614.04,-346.5 614.04,-365.5"/>
<text text-anchor="middle" x="533.54" y="-353.5" font-family="Helvetica,sans-Serif" font-size="10.00">files/FMC_file_management.h</text>
</a>
</g>
</g>
<!-- Node1&#45;&gt;Node19 -->
<g id="edge36" class="edge">
<title>Node1&#45;&gt;Node19</title>
<path fill="none" stroke="#63b8ff" d="M689.93,-406.99C658.35,-396.9 605.53,-380.01 570.12,-368.69"/>
<polygon fill="#63b8ff" stroke="#63b8ff" points="570.77,-365.23 560.18,-365.52 568.64,-371.9 570.77,-365.23"/>
</g>
<!-- Node20 -->
<g id="node20" class="node">
<title>Node20</title>
<g id="a_node20"><a xlink:href="../../da/db0/FMC__data__analyze_8h.html" target="_top" xlink:title=" ">
<polygon fill="white" stroke="#666666" points="783.54,-371 649.54,-371 649.54,-341 783.54,-341 783.54,-371"/>
<text text-anchor="start" x="657.54" y="-359" font-family="Helvetica,sans-Serif" font-size="10.00">data_analyze/FMC_data</text>
<text text-anchor="middle" x="716.54" y="-348" font-family="Helvetica,sans-Serif" font-size="10.00">_analyze.h</text>
</a>
</g>
</g>
<!-- Node1&#45;&gt;Node20 -->
<g id="edge38" class="edge">
<title>Node1&#45;&gt;Node20</title>
<path fill="none" stroke="#63b8ff" d="M716.54,-406.87C716.54,-400.11 716.54,-390.35 716.54,-381.26"/>
<polygon fill="#63b8ff" stroke="#63b8ff" points="720.04,-381.11 716.54,-371.11 713.04,-381.11 720.04,-381.11"/>
</g>
<!-- Node23 -->
<g id="node23" class="node">
<title>Node23</title>
<g id="a_node23"><a xlink:href="../../d4/db9/FMC__wrapper_8h.html" target="_top" xlink:title=" ">
<polygon fill="white" stroke="#666666" points="1006.54,-184 894.54,-184 894.54,-165 1006.54,-165 1006.54,-184"/>
<text text-anchor="middle" x="950.54" y="-172" font-family="Helvetica,sans-Serif" font-size="10.00">cpp/FMC_wrapper.h</text>
</a>
</g>
</g>
<!-- Node1&#45;&gt;Node23 -->
<g id="edge43" class="edge">
<title>Node1&#45;&gt;Node23</title>
<path fill="none" stroke="#63b8ff" d="M746.16,-406.92C767.16,-399.78 795.12,-388 815.54,-371 878.12,-318.88 924.47,-230.87 942.4,-193.33"/>
<polygon fill="#63b8ff" stroke="#63b8ff" points="945.63,-194.69 946.69,-184.15 939.29,-191.73 945.63,-194.69"/>
</g>
<!-- Node3 -->
<g id="node3" class="node">
<title>Node3</title>
<g id="a_node3"><a xlink:href="../../d0/d28/FMC__macros_8h.html" target="_top" xlink:title=" ">
<polygon fill="white" stroke="#666666" points="528.04,-74 373.04,-74 373.04,-55 528.04,-55 528.04,-74"/>
<text text-anchor="middle" x="450.54" y="-62" font-family="Helvetica,sans-Serif" font-size="10.00">preprocessor/FMC_macros.h</text>
</a>
</g>
</g>
<!-- Node2&#45;&gt;Node3 -->
<g id="edge2" class="edge">
<title>Node2&#45;&gt;Node3</title>
<path fill="none" stroke="#63b8ff" d="M547.24,-219.88C555.57,-199.04 573.33,-145.08 550.54,-110 540.28,-94.2 522.96,-83.97 505.6,-77.35"/>
<polygon fill="#63b8ff" stroke="#63b8ff" points="506.59,-73.99 496,-74.04 504.31,-80.61 506.59,-73.99"/>
</g>
<!-- Node4 -->
<g id="node4" class="node">
<title>Node4</title>
<g id="a_node4"><a xlink:href="../../d7/dff/FMC__platform_8h.html" target="_top" xlink:title=" ">
<polygon fill="white" stroke="#666666" points="895.04,-19 800.04,-19 800.04,0 895.04,0 895.04,-19"/>
<text text-anchor="middle" x="847.54" y="-7" font-family="Helvetica,sans-Serif" font-size="10.00">FMC_platform.h</text>
</a>
</g>
</g>
<!-- Node2&#45;&gt;Node4 -->
<g id="edge7" class="edge">
<title>Node2&#45;&gt;Node4</title>
<path fill="none" stroke="#63b8ff" d="M608.46,-227.13C731.46,-223.86 988.67,-213.52 1015.54,-184 1071.66,-122.34 939.22,-51.78 877.3,-23.36"/>
<polygon fill="#63b8ff" stroke="#63b8ff" points="878.56,-20.09 868.01,-19.16 875.68,-26.47 878.56,-20.09"/>
</g>
<!-- Node7 -->
<g id="node7" class="node">
<title>Node7</title>
<g id="a_node7"><a xlink:href="../../da/dd3/FMC__consts_8h.html" target="_top" xlink:title=" ">
<polygon fill="white" stroke="#666666" points="525.54,-129 375.54,-129 375.54,-110 525.54,-110 525.54,-129"/>
<text text-anchor="middle" x="450.54" y="-117" font-family="Helvetica,sans-Serif" font-size="10.00">preprocessor/FMC_consts.h</text>
</a>
</g>
</g>
<!-- Node2&#45;&gt;Node7 -->
<g id="edge8" class="edge">
<title>Node2&#45;&gt;Node7</title>
<path fill="none" stroke="#63b8ff" d="M542.91,-219.8C541.57,-206.66 537.38,-181.54 524.54,-165 513.83,-151.21 497.55,-140.75 482.98,-133.45"/>
<polygon fill="#63b8ff" stroke="#63b8ff" points="484.27,-130.19 473.73,-129.11 481.29,-136.53 484.27,-130.19"/>
</g>
<!-- Node8 -->
<g id="node8" class="node">
<title>Node8</title>
<g id="a_node8"><a xlink:href="../../d5/de5/FMC__structs_8h.html" target="_top" xlink:title=" ">
<polygon fill="white" stroke="#666666" points="223.54,-184 107.54,-184 107.54,-165 223.54,-165 223.54,-184"/>
<text text-anchor="middle" x="165.54" y="-172" font-family="Helvetica,sans-Serif" font-size="10.00">types/FMC_structs.h</text>
</a>
</g>
</g>
<!-- Node2&#45;&gt;Node8 -->
<g id="edge9" class="edge">
<title>Node2&#45;&gt;Node8</title>
<path fill="none" stroke="#63b8ff" d="M482.81,-219.98C414.78,-210.45 304.77,-195.02 233.81,-185.07"/>
<polygon fill="#63b8ff" stroke="#63b8ff" points="234.03,-181.57 223.64,-183.65 233.05,-188.5 234.03,-181.57"/>
</g>
<!-- Node10 -->
<g id="node10" class="node">
<title>Node10</title>
<g id="a_node10"><a xlink:href="../../d6/d25/FMC__enums_8h.html" target="_top" xlink:title=" ">
<polygon fill="white" stroke="#666666" points="99.54,-129 13.54,-129 13.54,-110 99.54,-110 99.54,-129"/>
<text text-anchor="middle" x="56.54" y="-117" font-family="Helvetica,sans-Serif" font-size="10.00">FMC_enums.h</text>
</a>
</g>
</g>
<!-- Node2&#45;&gt;Node10 -->
<g id="edge20" class="edge">
<title>Node2&#45;&gt;Node10</title>
<path fill="none" stroke="#63b8ff" d="M478.82,-228.73C371.16,-228.02 160.94,-221.66 98.54,-184 81.6,-173.78 70.11,-153.8 63.49,-138.97"/>
<polygon fill="#63b8ff" stroke="#63b8ff" points="66.55,-137.22 59.52,-129.3 60.08,-139.88 66.55,-137.22"/>
</g>
<!-- Node11 -->
<g id="node11" class="node">
<title>Node11</title>
<g id="a_node11"><a xlink:href="../../df/df8/FMC__typedefs_8h.html" target="_top" xlink:title=" ">
<polygon fill="white" stroke="#666666" points="319.04,-129 224.04,-129 224.04,-110 319.04,-110 319.04,-129"/>
<text text-anchor="middle" x="271.54" y="-117" font-family="Helvetica,sans-Serif" font-size="10.00">FMC_typedefs.h</text>
</a>
</g>
</g>
<!-- Node2&#45;&gt;Node11 -->
<g id="edge19" class="edge">
<title>Node2&#45;&gt;Node11</title>
<path fill="none" stroke="#63b8ff" d="M478.85,-227.26C406.72,-224.35 296.74,-214.82 270.54,-184 260.17,-171.8 261.88,-153.02 265.31,-139.04"/>
<polygon fill="#63b8ff" stroke="#63b8ff" points="268.78,-139.66 268.23,-129.08 262.06,-137.69 268.78,-139.66"/>
</g>
<!-- Node12 -->
<g id="node12" class="node">
<title>Node12</title>
<g id="a_node12"><a xlink:href="../../d2/d5e/FMC__flags_8h.html" target="_top" xlink:title=" ">
<polygon fill="white" stroke="#666666" points="257.54,-74 115.54,-74 115.54,-55 257.54,-55 257.54,-74"/>
<text text-anchor="middle" x="186.54" y="-62" font-family="Helvetica,sans-Serif" font-size="10.00">preprocessor/FMC_flags.h</text>
</a>
</g>
</g>
<!-- Node2&#45;&gt;Node12 -->
<g id="edge17" class="edge">
<title>Node2&#45;&gt;Node12</title>
<path fill="none" stroke="#63b8ff" d="M478.88,-226.78C368.16,-223.12 147.25,-212.39 75.54,-184 38.42,-169.31 22.11,-164.84 4.54,-129 -17.29,-84.48 47.13,-70.22 105.26,-66.11"/>
<polygon fill="#63b8ff" stroke="#63b8ff" points="105.5,-69.6 115.27,-65.49 105.07,-62.61 105.5,-69.6"/>
</g>
<!-- Node13 -->
<g id="node13" class="node">
<title>Node13</title>
<g id="a_node13"><a xlink:href="../../dd/ddf/FMC__errors_8h.html" target="_top" xlink:title=" ">
<polygon fill="white" stroke="#666666" points="385.04,-184 280.04,-184 280.04,-165 385.04,-165 385.04,-184"/>
<text text-anchor="middle" x="332.54" y="-172" font-family="Helvetica,sans-Serif" font-size="10.00">utils/FMC_errors.h</text>
</a>
</g>
</g>
<!-- Node2&#45;&gt;Node13 -->
<g id="edge21" class="edge">
<title>Node2&#45;&gt;Node13</title>
<path fill="none" stroke="#63b8ff" d="M509.64,-219.98C473.52,-210.91 416.21,-196.52 376.62,-186.57"/>
<polygon fill="#63b8ff" stroke="#63b8ff" points="377.26,-183.12 366.7,-184.08 375.55,-189.91 377.26,-183.12"/>
</g>
<!-- Node14 -->
<g id="node14" class="node">
<title>Node14</title>
<g id="a_node14"><a xlink:href="../../de/d86/FMC__globals_8h.html" target="_top" xlink:title=" ">
<polygon fill="white" stroke="#666666" points="515.54,-184 403.54,-184 403.54,-165 515.54,-165 515.54,-184"/>
<text text-anchor="middle" x="459.54" y="-172" font-family="Helvetica,sans-Serif" font-size="10.00">utils/FMC_globals.h</text>
</a>
</g>
</g>
<!-- Node2&#45;&gt;Node14 -->
<g id="edge25" class="edge">
<title>Node2&#45;&gt;Node14</title>
<path fill="none" stroke="#63b8ff" d="M530.04,-219.98C517.14,-211.84 497.44,-199.41 482.14,-189.76"/>
<polygon fill="#63b8ff" stroke="#63b8ff" points="483.6,-186.55 473.28,-184.17 479.87,-192.47 483.6,-186.55"/>
</g>
<!-- Node15 -->
<g id="node15" class="node">
<title>Node15</title>
<g id="a_node15"><a xlink:href="../../d4/d06/FMC__deprecated_8h.html" target="_top" xlink:title=" ">
<polygon fill="white" stroke="#666666" points="876.04,-184 745.04,-184 745.04,-165 876.04,-165 876.04,-184"/>
<text text-anchor="middle" x="810.54" y="-172" font-family="Helvetica,sans-Serif" font-size="10.00">utils/FMC_deprecated.h</text>
</a>
</g>
</g>
<!-- Node2&#45;&gt;Node15 -->
<g id="edge29" class="edge">
<title>Node2&#45;&gt;Node15</title>
<path fill="none" stroke="#63b8ff" d="M586.44,-219.98C632.91,-210.76 707.13,-196.03 757.29,-186.07"/>
<polygon fill="#63b8ff" stroke="#63b8ff" points="758.18,-189.46 767.3,-184.08 756.81,-182.6 758.18,-189.46"/>
</g>
<!-- Node17 -->
<g id="node17" class="node">
<title>Node17</title>
<g id="a_node17"><a xlink:href="../../da/d45/FMC__str__view_8h.html" target="_top" xlink:title=" ">
<polygon fill="white" stroke="#666666" points="727.04,-184 610.04,-184 610.04,-165 727.04,-165 727.04,-184"/>
<text text-anchor="middle" x="668.54" y="-172" font-family="Helvetica,sans-Serif" font-size="10.00">utils/FMC_str_view.h</text>
</a>
</g>
</g>
<!-- Node2&#45;&gt;Node17 -->
<g id="edge32" class="edge">
<title>Node2&#45;&gt;Node17</title>
<path fill="none" stroke="#63b8ff" d="M558.51,-219.98C577.06,-211.3 608.8,-197.75 633.51,-187.88"/>
<polygon fill="#63b8ff" stroke="#63b8ff" points="634.92,-191.09 642.94,-184.17 632.35,-184.58 634.92,-191.09"/>
</g>
<!-- Node3&#45;&gt;Node4 -->
<g id="edge3" class="edge">
<title>Node3&#45;&gt;Node4</title>
<path fill="none" stroke="#63b8ff" d="M514.32,-54.98C590.42,-44.83 716.52,-27.99 789.83,-18.2"/>
<polygon fill="#63b8ff" stroke="#63b8ff" points="790.36,-21.66 799.81,-16.87 789.44,-14.73 790.36,-21.66"/>
</g>
<!-- Node5 -->
<g id="node5" class="node">
<title>Node5</title>
<g id="a_node5"><a xlink:title=" ">
<polygon fill="#e0e0e0" stroke="#999999" points="354.54,-19 270.54,-19 270.54,0 354.54,0 354.54,-19"/>
<text text-anchor="middle" x="312.54" y="-7" font-family="Helvetica,sans-Serif" font-size="10.00">metalang99.h</text>
</a>
</g>
</g>
<!-- Node3&#45;&gt;Node5 -->
<g id="edge4" class="edge">
<title>Node3&#45;&gt;Node5</title>
<path fill="none" stroke="#63b8ff" d="M428.37,-54.98C405.77,-46.3 370.48,-32.75 344.79,-22.88"/>
<polygon fill="#63b8ff" stroke="#63b8ff" points="345.7,-19.49 335.11,-19.17 343.19,-26.02 345.7,-19.49"/>
</g>
<!-- Node6 -->
<g id="node6" class="node">
<title>Node6</title>
<g id="a_node6"><a xlink:href="../../d1/d2e/FMC__attributes_8h.html" target="_top" xlink:title=" ">
<polygon fill="white" stroke="#666666" points="500.54,-19 400.54,-19 400.54,0 500.54,0 500.54,-19"/>
<text text-anchor="middle" x="450.54" y="-7" font-family="Helvetica,sans-Serif" font-size="10.00">FMC_attributes.h</text>
</a>
</g>
</g>
<!-- Node3&#45;&gt;Node6 -->
<g id="edge5" class="edge">
<title>Node3&#45;&gt;Node6</title>
<path fill="none" stroke="#63b8ff" d="M445.37,-54.75C443.88,-47.8 443.44,-37.85 444.06,-29.13"/>
<polygon fill="#63b8ff" stroke="#63b8ff" points="447.55,-29.47 445.41,-19.09 440.61,-28.53 447.55,-29.47"/>
</g>
<!-- Node6&#45;&gt;Node3 -->
<g id="edge6" class="edge">
<title>Node6&#45;&gt;Node3</title>
<path fill="none" stroke="#63b8ff" d="M455.67,-19.09C457.18,-25.99 457.63,-35.93 457.03,-44.66"/>
<polygon fill="#63b8ff" stroke="#63b8ff" points="453.54,-44.38 455.7,-54.75 460.48,-45.29 453.54,-44.38"/>
</g>
<!-- Node8&#45;&gt;Node3 -->
<g id="edge12" class="edge">
<title>Node8&#45;&gt;Node3</title>
<path fill="none" stroke="#63b8ff" d="M158.26,-164.62C148.22,-151.26 132.84,-125.85 146.54,-110 160.62,-93.71 277.83,-80.27 362.51,-72.56"/>
<polygon fill="#63b8ff" stroke="#63b8ff" points="363.01,-76.03 372.66,-71.65 362.39,-69.06 363.01,-76.03"/>
</g>
<!-- Node8&#45;&gt;Node7 -->
<g id="edge11" class="edge">
<title>Node8&#45;&gt;Node7</title>
<path fill="none" stroke="#63b8ff" d="M211.33,-164.98C261.14,-155.72 340.82,-140.9 394.37,-130.94"/>
<polygon fill="#63b8ff" stroke="#63b8ff" points="395.2,-134.35 404.39,-129.08 393.92,-127.47 395.2,-134.35"/>
</g>
<!-- Node9 -->
<g id="node9" class="node">
<title>Node9</title>
<g id="a_node9"><a xlink:title=" ">
<polygon fill="#e0e0e0" stroke="#999999" points="205.54,-129 155.54,-129 155.54,-110 205.54,-110 205.54,-129"/>
<text text-anchor="middle" x="180.54" y="-117" font-family="Helvetica,sans-Serif" font-size="10.00">stdio.h</text>
</a>
</g>
</g>
<!-- Node8&#45;&gt;Node9 -->
<g id="edge10" class="edge">
<title>Node8&#45;&gt;Node9</title>
<path fill="none" stroke="#63b8ff" d="M168.02,-164.75C170,-157.72 172.86,-147.62 175.35,-138.84"/>
<polygon fill="#63b8ff" stroke="#63b8ff" points="178.75,-139.66 178.11,-129.09 172.02,-137.76 178.75,-139.66"/>
</g>
<!-- Node8&#45;&gt;Node10 -->
<g id="edge13" class="edge">
<title>Node8&#45;&gt;Node10</title>
<path fill="none" stroke="#63b8ff" d="M148.03,-164.98C130.57,-156.5 103.53,-143.35 83.37,-133.54"/>
<polygon fill="#63b8ff" stroke="#63b8ff" points="84.89,-130.4 74.37,-129.17 81.83,-136.69 84.89,-130.4"/>
</g>
<!-- Node8&#45;&gt;Node11 -->
<g id="edge15" class="edge">
<title>Node8&#45;&gt;Node11</title>
<path fill="none" stroke="#63b8ff" d="M182.57,-164.98C199.47,-156.54 225.6,-143.47 245.18,-133.68"/>
<polygon fill="#63b8ff" stroke="#63b8ff" points="246.82,-136.77 254.2,-129.17 243.69,-130.51 246.82,-136.77"/>
</g>
<!-- Node10&#45;&gt;Node3 -->
<g id="edge14" class="edge">
<title>Node10&#45;&gt;Node3</title>
<path fill="none" stroke="#63b8ff" d="M99.79,-111.97C104.43,-111.3 109.08,-110.63 113.54,-110 202.48,-97.5 304.77,-84.13 373.11,-75.35"/>
<polygon fill="#63b8ff" stroke="#63b8ff" points="373.88,-78.78 383.36,-74.03 372.99,-71.84 373.88,-78.78"/>
</g>
<!-- Node11&#45;&gt;Node3 -->
<g id="edge16" class="edge">
<title>Node11&#45;&gt;Node3</title>
<path fill="none" stroke="#63b8ff" d="M300.3,-109.98C330.48,-101.05 378.11,-86.94 411.64,-77.02"/>
<polygon fill="#63b8ff" stroke="#63b8ff" points="412.96,-80.28 421.55,-74.08 410.97,-73.57 412.96,-80.28"/>
</g>
<!-- Node12&#45;&gt;Node5 -->
<g id="edge18" class="edge">
<title>Node12&#45;&gt;Node5</title>
<path fill="none" stroke="#63b8ff" d="M206.78,-54.98C227.23,-46.38 259.07,-32.99 282.47,-23.15"/>
<polygon fill="#63b8ff" stroke="#63b8ff" points="284.07,-26.27 291.93,-19.17 281.35,-19.82 284.07,-26.27"/>
</g>
<!-- Node13&#45;&gt;Node3 -->
<g id="edge24" class="edge">
<title>Node13&#45;&gt;Node3</title>
<path fill="none" stroke="#63b8ff" d="M335.38,-164.68C340.03,-151.38 350.41,-126.06 366.54,-110 380.52,-96.08 399.76,-85.46 416.3,-78.09"/>
<polygon fill="#63b8ff" stroke="#63b8ff" points="417.82,-81.25 425.66,-74.12 415.09,-74.8 417.82,-81.25"/>
</g>
<!-- Node13&#45;&gt;Node7 -->
<g id="edge23" class="edge">
<title>Node13&#45;&gt;Node7</title>
<path fill="none" stroke="#63b8ff" d="M351.5,-164.98C370.57,-156.42 400.2,-143.11 422.09,-133.28"/>
<polygon fill="#63b8ff" stroke="#63b8ff" points="423.55,-136.46 431.23,-129.17 420.68,-130.07 423.55,-136.46"/>
</g>
<!-- Node13&#45;&gt;Node9 -->
<g id="edge22" class="edge">
<title>Node13&#45;&gt;Node9</title>
<path fill="none" stroke="#63b8ff" d="M308.12,-164.98C282.82,-156.16 243.08,-142.31 214.68,-132.41"/>
<polygon fill="#63b8ff" stroke="#63b8ff" points="215.75,-129.07 205.15,-129.08 213.44,-135.68 215.75,-129.07"/>
</g>
<!-- Node14&#45;&gt;Node3 -->
<g id="edge27" class="edge">
<title>Node14&#45;&gt;Node3</title>
<path fill="none" stroke="#63b8ff" d="M485.27,-164.85C512.4,-154.23 549.32,-134.56 534.54,-110 525.45,-94.89 509.32,-84.65 493.6,-77.83"/>
<polygon fill="#63b8ff" stroke="#63b8ff" points="494.53,-74.44 483.94,-74.02 491.96,-80.95 494.53,-74.44"/>
</g>
<!-- Node14&#45;&gt;Node7 -->
<g id="edge28" class="edge">
<title>Node14&#45;&gt;Node7</title>
<path fill="none" stroke="#63b8ff" d="M458.05,-164.75C456.87,-157.8 455.18,-147.85 453.7,-139.13"/>
<polygon fill="#63b8ff" stroke="#63b8ff" points="457.12,-138.36 452,-129.09 450.22,-139.53 457.12,-138.36"/>
</g>
<!-- Node14&#45;&gt;Node11 -->
<g id="edge26" class="edge">
<title>Node14&#45;&gt;Node11</title>
<path fill="none" stroke="#63b8ff" d="M429.33,-164.98C397.5,-156.01 347.17,-141.82 311.94,-131.89"/>
<polygon fill="#63b8ff" stroke="#63b8ff" points="312.56,-128.43 301.98,-129.08 310.66,-135.16 312.56,-128.43"/>
</g>
<!-- Node15&#45;&gt;Node6 -->
<g id="edge30" class="edge">
<title>Node15&#45;&gt;Node6</title>
<path fill="none" stroke="#63b8ff" d="M791.69,-164.97C732.41,-138.13 549.54,-55.32 478.84,-23.31"/>
<polygon fill="#63b8ff" stroke="#63b8ff" points="480.19,-20.08 469.63,-19.15 477.3,-26.46 480.19,-20.08"/>
</g>
<!-- Node16 -->
<g id="node16" class="node">
<title>Node16</title>
<g id="a_node16"><a xlink:title=" ">
<polygon fill="#e0e0e0" stroke="#999999" points="859.54,-129 803.54,-129 803.54,-110 859.54,-110 859.54,-129"/>
<text text-anchor="middle" x="831.54" y="-117" font-family="Helvetica,sans-Serif" font-size="10.00">stddef.h</text>
</a>
</g>
</g>
<!-- Node15&#45;&gt;Node16 -->
<g id="edge31" class="edge">
<title>Node15&#45;&gt;Node16</title>
<path fill="none" stroke="#63b8ff" d="M814.01,-164.75C816.82,-157.65 820.88,-147.4 824.38,-138.56"/>
<polygon fill="#63b8ff" stroke="#63b8ff" points="827.71,-139.68 828.14,-129.09 821.2,-137.1 827.71,-139.68"/>
</g>
<!-- Node17&#45;&gt;Node2 -->
<g id="edge33" class="edge">
<title>Node17&#45;&gt;Node2</title>
<path fill="none" stroke="#63b8ff" d="M653.24,-184.17C634.53,-192.91 602.76,-206.47 578.12,-216.29"/>
<polygon fill="#63b8ff" stroke="#63b8ff" points="576.76,-213.07 568.74,-219.98 579.32,-219.58 576.76,-213.07"/>
</g>
<!-- Node18&#45;&gt;Node2 -->
<g id="edge35" class="edge">
<title>Node18&#45;&gt;Node2</title>
<path fill="none" stroke="#63b8ff" d="M419.58,-274.99C447.14,-265.1 483.69,-251.98 509.95,-242.56"/>
<polygon fill="#63b8ff" stroke="#63b8ff" points="511.24,-245.81 519.47,-239.14 508.87,-239.22 511.24,-245.81"/>
</g>
<!-- Node19&#45;&gt;Node2 -->
<g id="edge37" class="edge">
<title>Node19&#45;&gt;Node2</title>
<path fill="none" stroke="#63b8ff" d="M521.45,-346.26C510.25,-337.34 494.31,-322.36 487.54,-305 482.69,-292.58 481.74,-287.01 487.54,-275 493.76,-262.12 505.72,-251.82 517,-244.38"/>
<polygon fill="#63b8ff" stroke="#63b8ff" points="519.05,-247.23 525.77,-239.04 515.41,-241.25 519.05,-247.23"/>
</g>
<!-- Node21 -->
<g id="node21" class="node">
<title>Node21</title>
<g id="a_node21"><a xlink:href="../../db/d30/FMC__encodings_8h.html" target="_top" xlink:title=" ">
<polygon fill="white" stroke="#666666" points="652.04,-299.5 497.04,-299.5 497.04,-280.5 652.04,-280.5 652.04,-299.5"/>
<text text-anchor="middle" x="574.54" y="-287.5" font-family="Helvetica,sans-Serif" font-size="10.00">encodings/FMC_encodings.h</text>
</a>
</g>
</g>
<!-- Node20&#45;&gt;Node21 -->
<g id="edge39" class="edge">
<title>Node20&#45;&gt;Node21</title>
<path fill="none" stroke="#63b8ff" d="M685.38,-340.95C660.69,-329.83 626.51,-314.42 602.66,-303.67"/>
<polygon fill="#63b8ff" stroke="#63b8ff" points="603.99,-300.44 593.44,-299.52 601.11,-306.82 603.99,-300.44"/>
</g>
<!-- Node22 -->
<g id="node22" class="node">
<title>Node22</title>
<g id="a_node22"><a xlink:href="../../d9/db5/FMC__strings_8h.html" target="_top" xlink:title=" ">
<polygon fill="white" stroke="#666666" points="792.54,-299.5 670.54,-299.5 670.54,-280.5 792.54,-280.5 792.54,-299.5"/>
<text text-anchor="middle" x="731.54" y="-287.5" font-family="Helvetica,sans-Serif" font-size="10.00">strings/FMC_strings.h</text>
</a>
</g>
</g>
<!-- Node20&#45;&gt;Node22 -->
<g id="edge41" class="edge">
<title>Node20&#45;&gt;Node22</title>
<path fill="none" stroke="#63b8ff" d="M719.87,-340.8C722,-331.7 724.79,-319.79 727.11,-309.9"/>
<polygon fill="#63b8ff" stroke="#63b8ff" points="730.59,-310.38 729.47,-299.84 723.78,-308.78 730.59,-310.38"/>
</g>
<!-- Node21&#45;&gt;Node2 -->
<g id="edge40" class="edge">
<title>Node21&#45;&gt;Node2</title>
<path fill="none" stroke="#63b8ff" d="M569.96,-280.37C565.48,-271.9 558.5,-258.74 552.85,-248.07"/>
<polygon fill="#63b8ff" stroke="#63b8ff" points="555.91,-246.36 548.13,-239.17 549.72,-249.64 555.91,-246.36"/>
</g>
<!-- Node22&#45;&gt;Node2 -->
<g id="edge42" class="edge">
<title>Node22&#45;&gt;Node2</title>
<path fill="none" stroke="#63b8ff" d="M704.2,-280.49C671.62,-270.36 617.03,-253.37 580.65,-242.05"/>
<polygon fill="#63b8ff" stroke="#63b8ff" points="581.5,-238.65 570.91,-239.02 579.42,-245.33 581.5,-238.65"/>
</g>
<!-- Node23&#45;&gt;Node3 -->
<g id="edge44" class="edge">
<title>Node23&#45;&gt;Node3</title>
<path fill="none" stroke="#63b8ff" d="M942.47,-164.66C928.82,-150.36 899.61,-122.5 868.54,-110 810.55,-86.67 643.01,-74.64 538.5,-69.23"/>
<polygon fill="#63b8ff" stroke="#63b8ff" points="538.44,-65.72 528.27,-68.71 538.08,-72.71 538.44,-65.72"/>
</g>
<!-- Node23&#45;&gt;Node16 -->
<g id="edge45" class="edge">
<title>Node23&#45;&gt;Node16</title>
<path fill="none" stroke="#63b8ff" d="M931.42,-164.98C912.19,-156.42 882.31,-143.11 860.23,-133.28"/>
<polygon fill="#63b8ff" stroke="#63b8ff" points="861.56,-130.04 851.01,-129.17 858.72,-136.44 861.56,-130.04"/>
</g>
</g>
</svg>
        <g id="navigator" transform="translate(0 0)" fill="#404254">
                <rect fill="#f2f5e9" fill-opacity="0.5" stroke="#606060" stroke-width=".5" x="0" y="0" width="60" height="60"/>
                <use id="zoomplus" xlink:href="#zoomPlus" x="17" y="9" onmousedown="handleZoom(evt,'in')"/>
                <use id="zoomminus" xlink:href="#zoomMin" x="42" y="9" onmousedown="handleZoom(evt,'out')"/>
                <use id="reset" xlink:href="#resetDef" x="30" y="36" onmousedown="handleReset()"/>
                <g id="arrowUp" xlink:href="#dirArrow" transform="translate(30 24)" onmousedown="handlePan(0,-1)">
                  <use xlink:href="#rim" fill="#404040">
                        <set attributeName="fill" to="#808080" begin="arrowUp.mouseover" end="arrowUp.mouseout"/>
                  </use>
                  <path fill="none" stroke="white" stroke-width="1.5" d="M0,-3.0v7 M-2.5,-0.5L0,-3.0L2.5,-0.5"/>
                </g>
                <g id="arrowRight" xlink:href="#dirArrow" transform="rotate(90) translate(36 -43)" onmousedown="handlePan(1,0)">
                  <use xlink:href="#rim" fill="#404040">
                        <set attributeName="fill" to="#808080" begin="arrowRight.mouseover" end="arrowRight.mouseout"/>
                  </use>
                  <path fill="none" stroke="white" stroke-width="1.5" d="M0,-3.0v7 M-2.5,-0.5L0,-3.0L2.5,-0.5"/>
                </g>
                <g id="arrowDown" xlink:href="#dirArrow" transform="rotate(180) translate(-30 -48)" onmousedown="handlePan(0,1)">
                  <use xlink:href="#rim" fill="#404040">
                        <set attributeName="fill" to="#808080" begin="arrowDown.mouseover" end="arrowDown.mouseout"/>
                  </use>
                  <path fill="none" stroke="white" stroke-width="1.5" d="M0,-3.0v7 M-2.5,-0.5L0,-3.0L2.5,-0.5"/>
                </g>
                <g id="arrowLeft" xlink:href="#dirArrow" transform="rotate(270) translate(-36 17)" onmousedown="handlePan(-1,0)">
                  <use xlink:href="#rim" fill="#404040">
                        <set attributeName="fill" to="#808080" begin="arrowLeft.mouseover" end="arrowLeft.mouseout"/>
                  </use>
                  <path fill="none" stroke="white" stroke-width="1.5" d="M0,-3.0v7 M-2.5,-0.5L0,-3.0L2.5,-0.5"/>
                </g>
        </g>
        <svg viewBox="0 0 15 15" width="100%" height="30px" preserveAspectRatio="xMaxYMin meet">
         <g id="arrow_out" transform="scale(0.3 0.3)">
          <a xlink:href="FMC_8h__incl_org.svg" target="_base">
           <rect id="button" ry="5" rx="5" y="6" x="6" height="38" width="38"
                fill="#f2f5e9" fill-opacity="0.5" stroke="#606060" stroke-width="1.0"/>
           <path id="arrow"
             d="M 11.500037,31.436501 C 11.940474,20.09759 22.043105,11.32322 32.158766,21.979434 L 37.068811,17.246167 C 37.068811,17.246167 37.088388,32 37.088388,32 L 22.160133,31.978069 C 22.160133,31.978069 26.997745,27.140456 26.997745,27.140456 C 18.528582,18.264221 13.291696,25.230495 11.500037,31.436501 z"
             style="fill:#404040;"/>
          </a>
         </g>
        </svg>
</svg>
