<?xml version="1.0" encoding="UTF-8" standalone="no"?>
<!DOCTYPE svg PUBLIC "-//W3C//DTD SVG 1.1//EN"
 "http://www.w3.org/Graphics/SVG/1.1/DTD/svg11.dtd">
<!-- Generated by graphviz version 2.43.0 (0)
 -->
<!-- Title: src/FMC.h Pages: 1 -->
<!--zoomable 434 -->
<svg id="main" version="1.1" xmlns="http://www.w3.org/2000/svg" xmlns:xlink="http://www.w3.org/1999/xlink" xml:space="preserve" onload="init(evt)">
<style type="text/css"><![CDATA[
.edge:hover path { stroke: red; }
.edge:hover polygon { stroke: red; fill: red; }
]]></style>
<script type="text/javascript"><![CDATA[
var edges = document.getElementsByTagName('g');
if (edges && edges.length) {
  for (var i=0;i<edges.length;i++) {
    if (edges[i].id.substr(0,4)=='edge') {
      edges[i].setAttribute('class','edge');
    }
  }
}
]]></script>
        <defs>
                <circle id="rim" cx="0" cy="0" r="7"/>
                <circle id="rim2" cx="0" cy="0" r="3.5"/>
                <g id="zoomPlus">
                        <use xlink:href="#rim" fill="#404040">
                                <set attributeName="fill" to="#808080" begin="zoomplus.mouseover" end="zoomplus.mouseout"/>
                        </use>
                        <path d="M-4,0h8M0,-4v8" fill="none" stroke="white" stroke-width="1.5" pointer-events="none"/>
                </g>
                <g id="zoomMin">
                        <use xlink:href="#rim" fill="#404040">
                                <set attributeName="fill" to="#808080" begin="zoomminus.mouseover" end="zoomminus.mouseout"/>
                        </use>
                        <path d="M-4,0h8" fill="none" stroke="white" stroke-width="1.5" pointer-events="none"/>
                </g>
                <g id="dirArrow">
                        <path fill="none" stroke="white" stroke-width="1.5" d="M0,-3.0v7 M-2.5,-0.5L0,-3.0L2.5,-0.5"/>
                </g>
               <g id="resetDef">
                       <use xlink:href="#rim2" fill="#404040">
                               <set attributeName="fill" to="#808080" begin="reset.mouseover" end="reset.mouseout"/>
                       </use>
               </g>
        </defs>

<script type="text/javascript">
var viewWidth = 961;
var viewHeight = 434;
var sectionId = 'dynsection-0';
</script>
<script xlink:href="../../svgpan.js"/>
<svg id="graph" class="graph">
<g id="viewport">
<title>src/FMC.h</title>
<!-- Node1 -->
<g id="node1" class="node">
<title>Node1</title>
<g id="a_node1"><a xlink:title=" ">
<polygon fill="#999999" stroke="#666666" points="587.98,-426 522.98,-426 522.98,-407 587.98,-407 587.98,-426"/>
<text text-anchor="middle" x="555.48" y="-414" font-family="Helvetica,sans-Serif" font-size="10.00">src/FMC.h</text>
</a>
</g>
</g>
<!-- Node2 -->
<g id="node2" class="node">
<title>Node2</title>
<g id="a_node2"><a xlink:href="../../d9/de1/FMC__general_8h.html" target="_top" xlink:title=" ">
<polygon fill="white" stroke="#666666" points="460.98,-239 331.98,-239 331.98,-220 460.98,-220 460.98,-239"/>
<text text-anchor="middle" x="396.48" y="-227" font-family="Helvetica,sans-Serif" font-size="10.00">general/FMC_general.h</text>
</a>
</g>
</g>
<!-- Node1&#45;&gt;Node2 -->
<g id="edge1" class="edge">
<title>Node1&#45;&gt;Node2</title>
<path fill="none" stroke="#63b8ff" d="M581.95,-406.89C598.91,-399.94 619.86,-388.43 631.48,-371 655.27,-335.35 667.93,-307.91 640.48,-275 619.18,-249.46 534.73,-238.54 471.11,-233.89"/>
<polygon fill="#63b8ff" stroke="#63b8ff" points="471.31,-230.4 461.09,-233.2 470.82,-237.38 471.31,-230.4"/>
</g>
<!-- Node16 -->
<g id="node16" class="node">
<title>Node16</title>
<g id="a_node16"><a xlink:href="../../db/d26/FMC__code__utils_8h.html" target="_top" xlink:title=" ">
<polygon fill="white" stroke="#666666" points="278.98,-305 159.98,-305 159.98,-275 278.98,-275 278.98,-305"/>
<text text-anchor="start" x="167.98" y="-293" font-family="Helvetica,sans-Serif" font-size="10.00">code_utils/FMC_code</text>
<text text-anchor="middle" x="219.48" y="-282" font-family="Helvetica,sans-Serif" font-size="10.00">_utils.h</text>
</a>
</g>
</g>
<!-- Node1&#45;&gt;Node16 -->
<g id="edge29" class="edge">
<title>Node1&#45;&gt;Node16</title>
<path fill="none" stroke="#63b8ff" d="M522.75,-413.14C459.4,-408.08 322.71,-394.72 282.48,-371 259.79,-357.62 242.17,-332.71 231.4,-314.23"/>
<polygon fill="#63b8ff" stroke="#63b8ff" points="234.33,-312.28 226.41,-305.24 228.21,-315.68 234.33,-312.28"/>
</g>
<!-- Node17 -->
<g id="node17" class="node">
<title>Node17</title>
<g id="a_node17"><a xlink:href="../../d2/deb/FMC__file__management_8h.html" target="_top" xlink:title=" ">
<polygon fill="white" stroke="#666666" points="452.98,-365.5 291.98,-365.5 291.98,-346.5 452.98,-346.5 452.98,-365.5"/>
<text text-anchor="middle" x="372.48" y="-353.5" font-family="Helvetica,sans-Serif" font-size="10.00">files/FMC_file_management.h</text>
</a>
</g>
</g>
<!-- Node1&#45;&gt;Node17 -->
<g id="edge31" class="edge">
<title>Node1&#45;&gt;Node17</title>
<path fill="none" stroke="#63b8ff" d="M528.87,-406.99C497.3,-396.9 444.47,-380.01 409.06,-368.69"/>
<polygon fill="#63b8ff" stroke="#63b8ff" points="409.72,-365.23 399.13,-365.52 407.58,-371.9 409.72,-365.23"/>
</g>
<!-- Node18 -->
<g id="node18" class="node">
<title>Node18</title>
<g id="a_node18"><a xlink:href="../../da/db0/FMC__data__analyze_8h.html" target="_top" xlink:title=" ">
<polygon fill="white" stroke="#666666" points="622.48,-371 488.48,-371 488.48,-341 622.48,-341 622.48,-371"/>
<text text-anchor="start" x="496.48" y="-359" font-family="Helvetica,sans-Serif" font-size="10.00">data_analyze/FMC_data</text>
<text text-anchor="middle" x="555.48" y="-348" font-family="Helvetica,sans-Serif" font-size="10.00">_analyze.h</text>
</a>
</g>
</g>
<!-- Node1&#45;&gt;Node18 -->
<g id="edge33" class="edge">
<title>Node1&#45;&gt;Node18</title>
<path fill="none" stroke="#63b8ff" d="M555.48,-406.87C555.48,-400.11 555.48,-390.35 555.48,-381.26"/>
<polygon fill="#63b8ff" stroke="#63b8ff" points="558.98,-381.11 555.48,-371.11 551.98,-381.11 558.98,-381.11"/>
</g>
<!-- Node21 -->
<g id="node21" class="node">
<title>Node21</title>
<g id="a_node21"><a xlink:href="../../d4/db9/FMC__wrapper_8h.html" target="_top" xlink:title=" ">
<polygon fill="white" stroke="#666666" points="803.48,-184 691.48,-184 691.48,-165 803.48,-165 803.48,-184"/>
<text text-anchor="middle" x="747.48" y="-172" font-family="Helvetica,sans-Serif" font-size="10.00">cpp/FMC_wrapper.h</text>
</a>
</g>
</g>
<!-- Node1&#45;&gt;Node21 -->
<g id="edge38" class="edge">
<title>Node1&#45;&gt;Node21</title>
<path fill="none" stroke="#63b8ff" d="M588.28,-407.15C609.37,-400.36 636.17,-388.92 654.48,-371 707.07,-319.54 733.61,-232.47 743.19,-194.34"/>
<polygon fill="#63b8ff" stroke="#63b8ff" points="746.7,-194.71 745.63,-184.17 739.9,-193.08 746.7,-194.71"/>
</g>
<!-- Node3 -->
<g id="node3" class="node">
<title>Node3</title>
<g id="a_node3"><a xlink:href="../../d0/d28/FMC__macros_8h.html" target="_top" xlink:title=" ">
<polygon fill="white" stroke="#666666" points="501.98,-74 346.98,-74 346.98,-55 501.98,-55 501.98,-74"/>
<text text-anchor="middle" x="424.48" y="-62" font-family="Helvetica,sans-Serif" font-size="10.00">preprocessor/FMC_macros.h</text>
</a>
</g>
</g>
<!-- Node2&#45;&gt;Node3 -->
<g id="edge2" class="edge">
<title>Node2&#45;&gt;Node3</title>
<path fill="none" stroke="#63b8ff" d="M331.66,-225.44C229.57,-219.95 40.76,-206.82 20.48,-184 14.87,-177.69 17.02,-172.7 20.48,-165 35.59,-131.4 48.96,-125.27 82.48,-110 126.44,-89.97 250.86,-77.51 336.85,-71.04"/>
<polygon fill="#63b8ff" stroke="#63b8ff" points="337.16,-74.52 346.87,-70.3 336.64,-67.54 337.16,-74.52"/>
</g>
<!-- Node4 -->
<g id="node4" class="node">
<title>Node4</title>
<g id="a_node4"><a xlink:href="../../d7/dff/FMC__platform_8h.html" target="_top" xlink:title=" ">
<polygon fill="white" stroke="#666666" points="183.98,-19 88.98,-19 88.98,0 183.98,0 183.98,-19"/>
<text text-anchor="middle" x="136.48" y="-7" font-family="Helvetica,sans-Serif" font-size="10.00">FMC_platform.h</text>
</a>
</g>
</g>
<!-- Node2&#45;&gt;Node4 -->
<g id="edge6" class="edge">
<title>Node2&#45;&gt;Node4</title>
<path fill="none" stroke="#63b8ff" d="M331.71,-225.6C228.03,-220.27 34.24,-207.31 13.48,-184 -35.31,-129.21 65.74,-54.95 113.42,-24.45"/>
<polygon fill="#63b8ff" stroke="#63b8ff" points="115.31,-27.4 121.92,-19.12 111.59,-21.47 115.31,-27.4"/>
</g>
<!-- Node6 -->
<g id="node6" class="node">
<title>Node6</title>
<g id="a_node6"><a xlink:href="../../da/dd3/FMC__consts_8h.html" target="_top" xlink:title=" ">
<polygon fill="white" stroke="#666666" points="324.48,-129 174.48,-129 174.48,-110 324.48,-110 324.48,-129"/>
<text text-anchor="middle" x="249.48" y="-117" font-family="Helvetica,sans-Serif" font-size="10.00">preprocessor/FMC_consts.h</text>
</a>
</g>
</g>
<!-- Node2&#45;&gt;Node6 -->
<g id="edge7" class="edge">
<title>Node2&#45;&gt;Node6</title>
<path fill="none" stroke="#63b8ff" d="M331.77,-223.87C275.82,-218.35 201.07,-206.85 182.48,-184 166.79,-164.71 194.74,-145.47 219.19,-133.31"/>
<polygon fill="#63b8ff" stroke="#63b8ff" points="220.74,-136.45 228.29,-129.01 217.75,-130.12 220.74,-136.45"/>
</g>
<!-- Node7 -->
<g id="node7" class="node">
<title>Node7</title>
<g id="a_node7"><a xlink:href="../../d5/de5/FMC__structs_8h.html" target="_top" xlink:title=" ">
<polygon fill="white" stroke="#666666" points="307.48,-184 191.48,-184 191.48,-165 307.48,-165 307.48,-184"/>
<text text-anchor="middle" x="249.48" y="-172" font-family="Helvetica,sans-Serif" font-size="10.00">types/FMC_structs.h</text>
</a>
</g>
</g>
<!-- Node2&#45;&gt;Node7 -->
<g id="edge8" class="edge">
<title>Node2&#45;&gt;Node7</title>
<path fill="none" stroke="#63b8ff" d="M372.87,-219.98C348.58,-211.23 310.53,-197.51 283.11,-187.62"/>
<polygon fill="#63b8ff" stroke="#63b8ff" points="284.13,-184.27 273.53,-184.17 281.75,-190.85 284.13,-184.27"/>
</g>
<!-- Node9 -->
<g id="node9" class="node">
<title>Node9</title>
<g id="a_node9"><a xlink:href="../../d6/d25/FMC__enums_8h.html" target="_top" xlink:title=" ">
<polygon fill="white" stroke="#666666" points="467.48,-129 381.48,-129 381.48,-110 467.48,-110 467.48,-129"/>
<text text-anchor="middle" x="424.48" y="-117" font-family="Helvetica,sans-Serif" font-size="10.00">FMC_enums.h</text>
</a>
</g>
</g>
<!-- Node2&#45;&gt;Node9 -->
<g id="edge18" class="edge">
<title>Node2&#45;&gt;Node9</title>
<path fill="none" stroke="#63b8ff" d="M427.53,-219.87C445.23,-213.18 465.93,-201.95 476.48,-184 487.35,-165.53 467.5,-146.84 449.28,-134.57"/>
<polygon fill="#63b8ff" stroke="#63b8ff" points="450.93,-131.48 440.6,-129.09 447.19,-137.39 450.93,-131.48"/>
</g>
<!-- Node10 -->
<g id="node10" class="node">
<title>Node10</title>
<g id="a_node10"><a xlink:href="../../df/df8/FMC__typedefs_8h.html" target="_top" xlink:title=" ">
<polygon fill="white" stroke="#666666" points="580.98,-129 485.98,-129 485.98,-110 580.98,-110 580.98,-129"/>
<text text-anchor="middle" x="533.48" y="-117" font-family="Helvetica,sans-Serif" font-size="10.00">FMC_typedefs.h</text>
</a>
</g>
</g>
<!-- Node2&#45;&gt;Node10 -->
<g id="edge17" class="edge">
<title>Node2&#45;&gt;Node10</title>
<path fill="none" stroke="#63b8ff" d="M425.36,-219.92C445.8,-212.77 472.94,-201 492.48,-184 506.99,-171.39 518.31,-152.42 525.35,-138.5"/>
<polygon fill="#63b8ff" stroke="#63b8ff" points="528.54,-139.95 529.7,-129.42 522.23,-136.93 528.54,-139.95"/>
</g>
<!-- Node11 -->
<g id="node11" class="node">
<title>Node11</title>
<g id="a_node11"><a xlink:href="../../d2/d5e/FMC__flags_8h.html" target="_top" xlink:title=" ">
<polygon fill="white" stroke="#666666" points="467.48,-184 325.48,-184 325.48,-165 467.48,-165 467.48,-184"/>
<text text-anchor="middle" x="396.48" y="-172" font-family="Helvetica,sans-Serif" font-size="10.00">preprocessor/FMC_flags.h</text>
</a>
</g>
</g>
<!-- Node2&#45;&gt;Node11 -->
<g id="edge16" class="edge">
<title>Node2&#45;&gt;Node11</title>
<path fill="none" stroke="#63b8ff" d="M396.48,-219.75C396.48,-212.8 396.48,-202.85 396.48,-194.13"/>
<polygon fill="#63b8ff" stroke="#63b8ff" points="399.98,-194.09 396.48,-184.09 392.98,-194.09 399.98,-194.09"/>
</g>
<!-- Node12 -->
<g id="node12" class="node">
<title>Node12</title>
<g id="a_node12"><a xlink:href="../../dd/ddf/FMC__errors_8h.html" target="_top" xlink:title=" ">
<polygon fill="white" stroke="#666666" points="134.98,-184 29.98,-184 29.98,-165 134.98,-165 134.98,-184"/>
<text text-anchor="middle" x="82.48" y="-172" font-family="Helvetica,sans-Serif" font-size="10.00">utils/FMC_errors.h</text>
</a>
</g>
</g>
<!-- Node2&#45;&gt;Node12 -->
<g id="edge19" class="edge">
<title>Node2&#45;&gt;Node12</title>
<path fill="none" stroke="#63b8ff" d="M346.03,-219.98C290.72,-210.65 202.01,-195.67 143,-185.71"/>
<polygon fill="#63b8ff" stroke="#63b8ff" points="143.51,-182.25 133.07,-184.04 142.35,-189.15 143.51,-182.25"/>
</g>
<!-- Node13 -->
<g id="node13" class="node">
<title>Node13</title>
<g id="a_node13"><a xlink:href="../../de/d86/FMC__globals_8h.html" target="_top" xlink:title=" ">
<polygon fill="white" stroke="#666666" points="673.48,-184 561.48,-184 561.48,-165 673.48,-165 673.48,-184"/>
<text text-anchor="middle" x="617.48" y="-172" font-family="Helvetica,sans-Serif" font-size="10.00">utils/FMC_globals.h</text>
</a>
</g>
</g>
<!-- Node2&#45;&gt;Node13 -->
<g id="edge23" class="edge">
<title>Node2&#45;&gt;Node13</title>
<path fill="none" stroke="#63b8ff" d="M431.99,-219.98C469.98,-210.87 530.35,-196.4 571.84,-186.45"/>
<polygon fill="#63b8ff" stroke="#63b8ff" points="572.79,-189.82 581.7,-184.08 571.16,-183.01 572.79,-189.82"/>
</g>
<!-- Node14 -->
<g id="node14" class="node">
<title>Node14</title>
<g id="a_node14"><a xlink:href="../../d4/d06/FMC__deprecated_8h.html" target="_top" xlink:title=" ">
<polygon fill="white" stroke="#666666" points="952.98,-184 821.98,-184 821.98,-165 952.98,-165 952.98,-184"/>
<text text-anchor="middle" x="887.48" y="-172" font-family="Helvetica,sans-Serif" font-size="10.00">utils/FMC_deprecated.h</text>
</a>
</g>
</g>
<!-- Node2&#45;&gt;Node14 -->
<g id="edge26" class="edge">
<title>Node2&#45;&gt;Node14</title>
<path fill="none" stroke="#63b8ff" d="M460.99,-221.73C540.7,-213.33 680.78,-198.48 811.44,-184.11"/>
<polygon fill="#63b8ff" stroke="#63b8ff" points="812.08,-187.56 821.64,-182.99 811.31,-180.6 812.08,-187.56"/>
</g>
<!-- Node3&#45;&gt;Node4 -->
<g id="edge3" class="edge">
<title>Node3&#45;&gt;Node4</title>
<path fill="none" stroke="#63b8ff" d="M378.21,-54.98C327.87,-45.72 247.36,-30.9 193.24,-20.94"/>
<polygon fill="#63b8ff" stroke="#63b8ff" points="193.59,-17.45 183.12,-19.08 192.32,-24.33 193.59,-17.45"/>
</g>
<!-- Node5 -->
<g id="node5" class="node">
<title>Node5</title>
<g id="a_node5"><a xlink:href="../../d1/d2e/FMC__attributes_8h.html" target="_top" xlink:title=" ">
<polygon fill="white" stroke="#666666" points="474.48,-19 374.48,-19 374.48,0 474.48,0 474.48,-19"/>
<text text-anchor="middle" x="424.48" y="-7" font-family="Helvetica,sans-Serif" font-size="10.00">FMC_attributes.h</text>
</a>
</g>
</g>
<!-- Node3&#45;&gt;Node5 -->
<g id="edge4" class="edge">
<title>Node3&#45;&gt;Node5</title>
<path fill="none" stroke="#63b8ff" d="M419.32,-54.75C417.82,-47.8 417.39,-37.85 418,-29.13"/>
<polygon fill="#63b8ff" stroke="#63b8ff" points="421.49,-29.47 419.35,-19.09 414.55,-28.53 421.49,-29.47"/>
</g>
<!-- Node5&#45;&gt;Node3 -->
<g id="edge5" class="edge">
<title>Node5&#45;&gt;Node3</title>
<path fill="none" stroke="#63b8ff" d="M429.61,-19.09C431.12,-25.99 431.58,-35.93 430.98,-44.66"/>
<polygon fill="#63b8ff" stroke="#63b8ff" points="427.48,-44.38 429.65,-54.75 434.42,-45.29 427.48,-44.38"/>
</g>
<!-- Node7&#45;&gt;Node3 -->
<g id="edge11" class="edge">
<title>Node7&#45;&gt;Node3</title>
<path fill="none" stroke="#63b8ff" d="M267.2,-164.9C284.45,-156.36 311.23,-142.59 333.48,-129 358.92,-113.47 386.84,-93.52 404.96,-80.17"/>
<polygon fill="#63b8ff" stroke="#63b8ff" points="407.07,-82.96 413.01,-74.19 402.89,-77.34 407.07,-82.96"/>
</g>
<!-- Node7&#45;&gt;Node6 -->
<g id="edge10" class="edge">
<title>Node7&#45;&gt;Node6</title>
<path fill="none" stroke="#63b8ff" d="M249.48,-164.75C249.48,-157.8 249.48,-147.85 249.48,-139.13"/>
<polygon fill="#63b8ff" stroke="#63b8ff" points="252.98,-139.09 249.48,-129.09 245.98,-139.09 252.98,-139.09"/>
</g>
<!-- Node8 -->
<g id="node8" class="node">
<title>Node8</title>
<g id="a_node8"><a xlink:title=" ">
<polygon fill="#e0e0e0" stroke="#999999" points="156.48,-129 106.48,-129 106.48,-110 156.48,-110 156.48,-129"/>
<text text-anchor="middle" x="131.48" y="-117" font-family="Helvetica,sans-Serif" font-size="10.00">stdio.h</text>
</a>
</g>
</g>
<!-- Node7&#45;&gt;Node8 -->
<g id="edge9" class="edge">
<title>Node7&#45;&gt;Node8</title>
<path fill="none" stroke="#63b8ff" d="M230.52,-164.98C211.46,-156.42 181.82,-143.11 159.94,-133.28"/>
<polygon fill="#63b8ff" stroke="#63b8ff" points="161.34,-130.07 150.79,-129.17 158.48,-136.46 161.34,-130.07"/>
</g>
<!-- Node7&#45;&gt;Node9 -->
<g id="edge12" class="edge">
<title>Node7&#45;&gt;Node9</title>
<path fill="none" stroke="#63b8ff" d="M277.6,-164.98C307.11,-156.05 353.68,-141.94 386.45,-132.02"/>
<polygon fill="#63b8ff" stroke="#63b8ff" points="387.59,-135.33 396.15,-129.08 385.56,-128.63 387.59,-135.33"/>
</g>
<!-- Node7&#45;&gt;Node10 -->
<g id="edge14" class="edge">
<title>Node7&#45;&gt;Node10</title>
<path fill="none" stroke="#63b8ff" d="M295.11,-164.98C344.75,-155.72 424.15,-140.9 477.52,-130.94"/>
<polygon fill="#63b8ff" stroke="#63b8ff" points="478.31,-134.36 487.5,-129.08 477.02,-127.48 478.31,-134.36"/>
</g>
<!-- Node9&#45;&gt;Node3 -->
<g id="edge13" class="edge">
<title>Node9&#45;&gt;Node3</title>
<path fill="none" stroke="#63b8ff" d="M424.48,-109.75C424.48,-102.8 424.48,-92.85 424.48,-84.13"/>
<polygon fill="#63b8ff" stroke="#63b8ff" points="427.98,-84.09 424.48,-74.09 420.98,-84.09 427.98,-84.09"/>
</g>
<!-- Node10&#45;&gt;Node3 -->
<g id="edge15" class="edge">
<title>Node10&#45;&gt;Node3</title>
<path fill="none" stroke="#63b8ff" d="M515.97,-109.98C498.51,-101.5 471.47,-88.35 451.31,-78.54"/>
<polygon fill="#63b8ff" stroke="#63b8ff" points="452.84,-75.4 442.31,-74.17 449.78,-81.69 452.84,-75.4"/>
</g>
<!-- Node12&#45;&gt;Node3 -->
<g id="edge22" class="edge">
<title>Node12&#45;&gt;Node3</title>
<path fill="none" stroke="#63b8ff" d="M81.71,-164.58C81.05,-150.68 82.05,-124.01 97.48,-110 131.57,-79.06 251.74,-69.43 336.47,-66.54"/>
<polygon fill="#63b8ff" stroke="#63b8ff" points="336.74,-70.04 346.62,-66.23 336.52,-63.04 336.74,-70.04"/>
</g>
<!-- Node12&#45;&gt;Node6 -->
<g id="edge21" class="edge">
<title>Node12&#45;&gt;Node6</title>
<path fill="none" stroke="#63b8ff" d="M109.31,-164.98C137.35,-156.09 181.53,-142.07 212.78,-132.15"/>
<polygon fill="#63b8ff" stroke="#63b8ff" points="213.97,-135.44 222.44,-129.08 211.85,-128.77 213.97,-135.44"/>
</g>
<!-- Node12&#45;&gt;Node8 -->
<g id="edge20" class="edge">
<title>Node12&#45;&gt;Node8</title>
<path fill="none" stroke="#63b8ff" d="M90.57,-164.75C97.64,-157.11 108.07,-145.82 116.63,-136.56"/>
<polygon fill="#63b8ff" stroke="#63b8ff" points="119.32,-138.81 123.54,-129.09 114.18,-134.06 119.32,-138.81"/>
</g>
<!-- Node13&#45;&gt;Node3 -->
<g id="edge25" class="edge">
<title>Node13&#45;&gt;Node3</title>
<path fill="none" stroke="#63b8ff" d="M616.08,-164.68C613.41,-150.93 606.3,-124.44 589.48,-110 567.93,-91.5 539.42,-80.61 512.17,-74.23"/>
<polygon fill="#63b8ff" stroke="#63b8ff" points="512.72,-70.77 502.21,-72.08 511.24,-77.61 512.72,-70.77"/>
</g>
<!-- Node13&#45;&gt;Node10 -->
<g id="edge24" class="edge">
<title>Node13&#45;&gt;Node10</title>
<path fill="none" stroke="#63b8ff" d="M603.99,-164.98C591.08,-156.84 571.38,-144.41 556.08,-134.76"/>
<polygon fill="#63b8ff" stroke="#63b8ff" points="557.55,-131.55 547.22,-129.17 553.81,-137.47 557.55,-131.55"/>
</g>
<!-- Node14&#45;&gt;Node5 -->
<g id="edge27" class="edge">
<title>Node14&#45;&gt;Node5</title>
<path fill="none" stroke="#63b8ff" d="M878.73,-164.73C864.57,-151.03 835.21,-124.62 805.48,-110 699.08,-57.65 561.94,-30.56 484.58,-18.54"/>
<polygon fill="#63b8ff" stroke="#63b8ff" points="484.94,-15.05 474.53,-17.01 483.89,-21.97 484.94,-15.05"/>
</g>
<!-- Node15 -->
<g id="node15" class="node">
<title>Node15</title>
<g id="a_node15"><a xlink:title=" ">
<polygon fill="#e0e0e0" stroke="#999999" points="796.48,-129 740.48,-129 740.48,-110 796.48,-110 796.48,-129"/>
<text text-anchor="middle" x="768.48" y="-117" font-family="Helvetica,sans-Serif" font-size="10.00">stddef.h</text>
</a>
</g>
</g>
<!-- Node14&#45;&gt;Node15 -->
<g id="edge28" class="edge">
<title>Node14&#45;&gt;Node15</title>
<path fill="none" stroke="#63b8ff" d="M868.36,-164.98C849.13,-156.42 819.25,-143.11 797.18,-133.28"/>
<polygon fill="#63b8ff" stroke="#63b8ff" points="798.51,-130.04 787.95,-129.17 795.66,-136.44 798.51,-130.04"/>
</g>
<!-- Node16&#45;&gt;Node2 -->
<g id="edge30" class="edge">
<title>Node16&#45;&gt;Node2</title>
<path fill="none" stroke="#63b8ff" d="M261.88,-274.99C292.16,-264.98 332.43,-251.67 361.02,-242.22"/>
<polygon fill="#63b8ff" stroke="#63b8ff" points="362.21,-245.52 370.6,-239.05 360.01,-238.87 362.21,-245.52"/>
</g>
<!-- Node17&#45;&gt;Node2 -->
<g id="edge32" class="edge">
<title>Node17&#45;&gt;Node2</title>
<path fill="none" stroke="#63b8ff" d="M361.12,-346.42C343.25,-331.84 312.06,-301.26 326.48,-275 334.26,-260.85 348.65,-250.56 362.37,-243.46"/>
<polygon fill="#63b8ff" stroke="#63b8ff" points="364.14,-246.49 371.67,-239.05 361.14,-240.17 364.14,-246.49"/>
</g>
<!-- Node19 -->
<g id="node19" class="node">
<title>Node19</title>
<g id="a_node19"><a xlink:href="../../db/d30/FMC__encodings_8h.html" target="_top" xlink:title=" ">
<polygon fill="white" stroke="#666666" points="490.98,-299.5 335.98,-299.5 335.98,-280.5 490.98,-280.5 490.98,-299.5"/>
<text text-anchor="middle" x="413.48" y="-287.5" font-family="Helvetica,sans-Serif" font-size="10.00">encodings/FMC_encodings.h</text>
</a>
</g>
</g>
<!-- Node18&#45;&gt;Node19 -->
<g id="edge34" class="edge">
<title>Node18&#45;&gt;Node19</title>
<path fill="none" stroke="#63b8ff" d="M524.32,-340.95C499.64,-329.83 465.46,-314.42 441.6,-303.67"/>
<polygon fill="#63b8ff" stroke="#63b8ff" points="442.94,-300.44 432.38,-299.52 440.06,-306.82 442.94,-300.44"/>
</g>
<!-- Node20 -->
<g id="node20" class="node">
<title>Node20</title>
<g id="a_node20"><a xlink:href="../../d9/db5/FMC__strings_8h.html" target="_top" xlink:title=" ">
<polygon fill="white" stroke="#666666" points="631.48,-299.5 509.48,-299.5 509.48,-280.5 631.48,-280.5 631.48,-299.5"/>
<text text-anchor="middle" x="570.48" y="-287.5" font-family="Helvetica,sans-Serif" font-size="10.00">strings/FMC_strings.h</text>
</a>
</g>
</g>
<!-- Node18&#45;&gt;Node20 -->
<g id="edge36" class="edge">
<title>Node18&#45;&gt;Node20</title>
<path fill="none" stroke="#63b8ff" d="M558.81,-340.8C560.94,-331.7 563.74,-319.79 566.05,-309.9"/>
<polygon fill="#63b8ff" stroke="#63b8ff" points="569.54,-310.38 568.41,-299.84 562.72,-308.78 569.54,-310.38"/>
</g>
<!-- Node19&#45;&gt;Node2 -->
<g id="edge35" class="edge">
<title>Node19&#45;&gt;Node2</title>
<path fill="none" stroke="#63b8ff" d="M410.97,-280.37C408.59,-272.16 404.92,-259.54 401.87,-249.05"/>
<polygon fill="#63b8ff" stroke="#63b8ff" points="405.15,-247.79 399,-239.17 398.43,-249.75 405.15,-247.79"/>
</g>
<!-- Node20&#45;&gt;Node2 -->
<g id="edge37" class="edge">
<title>Node20&#45;&gt;Node2</title>
<path fill="none" stroke="#63b8ff" d="M545.18,-280.49C515.29,-270.44 465.36,-253.66 431.7,-242.34"/>
<polygon fill="#63b8ff" stroke="#63b8ff" points="432.41,-238.89 421.81,-239.02 430.18,-245.52 432.41,-238.89"/>
</g>
<!-- Node21&#45;&gt;Node3 -->
<g id="edge39" class="edge">
<title>Node21&#45;&gt;Node3</title>
<path fill="none" stroke="#63b8ff" d="M731.47,-164.8C706.34,-151.43 655.8,-125.75 610.48,-110 568.2,-95.31 518.86,-83.75 481.63,-76.1"/>
<polygon fill="#63b8ff" stroke="#63b8ff" points="481.96,-72.59 471.47,-74.04 480.57,-79.45 481.96,-72.59"/>
</g>
<!-- Node21&#45;&gt;Node15 -->
<g id="edge40" class="edge">
<title>Node21&#45;&gt;Node15</title>
<path fill="none" stroke="#63b8ff" d="M750.95,-164.75C753.76,-157.65 757.82,-147.4 761.33,-138.56"/>
<polygon fill="#63b8ff" stroke="#63b8ff" points="764.65,-139.68 765.08,-129.09 758.14,-137.1 764.65,-139.68"/>
</g>
</g>
</svg>
        <g id="navigator" transform="translate(0 0)" fill="#404254">
                <rect fill="#f2f5e9" fill-opacity="0.5" stroke="#606060" stroke-width=".5" x="0" y="0" width="60" height="60"/>
                <use id="zoomplus" xlink:href="#zoomPlus" x="17" y="9" onmousedown="handleZoom(evt,'in')"/>
                <use id="zoomminus" xlink:href="#zoomMin" x="42" y="9" onmousedown="handleZoom(evt,'out')"/>
                <use id="reset" xlink:href="#resetDef" x="30" y="36" onmousedown="handleReset()"/>
                <g id="arrowUp" xlink:href="#dirArrow" transform="translate(30 24)" onmousedown="handlePan(0,-1)">
                  <use xlink:href="#rim" fill="#404040">
                        <set attributeName="fill" to="#808080" begin="arrowUp.mouseover" end="arrowUp.mouseout"/>
                  </use>
                  <path fill="none" stroke="white" stroke-width="1.5" d="M0,-3.0v7 M-2.5,-0.5L0,-3.0L2.5,-0.5"/>
                </g>
                <g id="arrowRight" xlink:href="#dirArrow" transform="rotate(90) translate(36 -43)" onmousedown="handlePan(1,0)">
                  <use xlink:href="#rim" fill="#404040">
                        <set attributeName="fill" to="#808080" begin="arrowRight.mouseover" end="arrowRight.mouseout"/>
                  </use>
                  <path fill="none" stroke="white" stroke-width="1.5" d="M0,-3.0v7 M-2.5,-0.5L0,-3.0L2.5,-0.5"/>
                </g>
                <g id="arrowDown" xlink:href="#dirArrow" transform="rotate(180) translate(-30 -48)" onmousedown="handlePan(0,1)">
                  <use xlink:href="#rim" fill="#404040">
                        <set attributeName="fill" to="#808080" begin="arrowDown.mouseover" end="arrowDown.mouseout"/>
                  </use>
                  <path fill="none" stroke="white" stroke-width="1.5" d="M0,-3.0v7 M-2.5,-0.5L0,-3.0L2.5,-0.5"/>
                </g>
                <g id="arrowLeft" xlink:href="#dirArrow" transform="rotate(270) translate(-36 17)" onmousedown="handlePan(-1,0)">
                  <use xlink:href="#rim" fill="#404040">
                        <set attributeName="fill" to="#808080" begin="arrowLeft.mouseover" end="arrowLeft.mouseout"/>
                  </use>
                  <path fill="none" stroke="white" stroke-width="1.5" d="M0,-3.0v7 M-2.5,-0.5L0,-3.0L2.5,-0.5"/>
                </g>
        </g>
        <svg viewBox="0 0 15 15" width="100%" height="30px" preserveAspectRatio="xMaxYMin meet">
         <g id="arrow_out" transform="scale(0.3 0.3)">
          <a xlink:href="FMC_8h__incl_org.svg" target="_base">
           <rect id="button" ry="5" rx="5" y="6" x="6" height="38" width="38"
                fill="#f2f5e9" fill-opacity="0.5" stroke="#606060" stroke-width="1.0"/>
           <path id="arrow"
             d="M 11.500037,31.436501 C 11.940474,20.09759 22.043105,11.32322 32.158766,21.979434 L 37.068811,17.246167 C 37.068811,17.246167 37.088388,32 37.088388,32 L 22.160133,31.978069 C 22.160133,31.978069 26.997745,27.140456 26.997745,27.140456 C 18.528582,18.264221 13.291696,25.230495 11.500037,31.436501 z"
             style="fill:#404040;"/>
          </a>
         </g>
        </svg>
</svg>
