<?xml version="1.0" encoding="UTF-8" standalone="no"?>
<!DOCTYPE svg PUBLIC "-//W3C//DTD SVG 1.1//EN"
 "http://www.w3.org/Graphics/SVG/1.1/DTD/svg11.dtd">
<!-- Generated by graphviz version 2.43.0 (0)
 -->
<!-- Title: src/FMC.h Pages: 1 -->
<!--zoomable 434 -->
<svg id="main" version="1.1" xmlns="http://www.w3.org/2000/svg" xmlns:xlink="http://www.w3.org/1999/xlink" xml:space="preserve" onload="init(evt)">
<style type="text/css"><![CDATA[
.edge:hover path { stroke: red; }
.edge:hover polygon { stroke: red; fill: red; }
]]></style>
<script type="text/javascript"><![CDATA[
var edges = document.getElementsByTagName('g');
if (edges && edges.length) {
  for (var i=0;i<edges.length;i++) {
    if (edges[i].id.substr(0,4)=='edge') {
      edges[i].setAttribute('class','edge');
    }
  }
}
]]></script>
        <defs>
                <circle id="rim" cx="0" cy="0" r="7"/>
                <circle id="rim2" cx="0" cy="0" r="3.5"/>
                <g id="zoomPlus">
                        <use xlink:href="#rim" fill="#404040">
                                <set attributeName="fill" to="#808080" begin="zoomplus.mouseover" end="zoomplus.mouseout"/>
                        </use>
                        <path d="M-4,0h8M0,-4v8" fill="none" stroke="white" stroke-width="1.5" pointer-events="none"/>
                </g>
                <g id="zoomMin">
                        <use xlink:href="#rim" fill="#404040">
                                <set attributeName="fill" to="#808080" begin="zoomminus.mouseover" end="zoomminus.mouseout"/>
                        </use>
                        <path d="M-4,0h8" fill="none" stroke="white" stroke-width="1.5" pointer-events="none"/>
                </g>
                <g id="dirArrow">
                        <path fill="none" stroke="white" stroke-width="1.5" d="M0,-3.0v7 M-2.5,-0.5L0,-3.0L2.5,-0.5"/>
                </g>
               <g id="resetDef">
                       <use xlink:href="#rim2" fill="#404040">
                               <set attributeName="fill" to="#808080" begin="reset.mouseover" end="reset.mouseout"/>
                       </use>
               </g>
        </defs>

<script type="text/javascript">
var viewWidth = 1090;
var viewHeight = 434;
var sectionId = 'dynsection-0';
</script>
<script xlink:href="../../svgpan.js"/>
<svg id="graph" class="graph">
<g id="viewport">
<title>src/FMC.h</title>
<!-- Node1 -->
<g id="node1" class="node">
<title>Node1</title>
<g id="a_node1"><a xlink:title=" ">
<polygon fill="#999999" stroke="#666666" points="688.83,-426 623.83,-426 623.83,-407 688.83,-407 688.83,-426"/>
<text text-anchor="middle" x="656.33" y="-414" font-family="Helvetica,sans-Serif" font-size="10.00">src/FMC.h</text>
</a>
</g>
</g>
<!-- Node2 -->
<g id="node2" class="node">
<title>Node2</title>
<g id="a_node2"><a xlink:href="../../d9/de1/FMC__general_8h.html" target="_top" xlink:title=" ">
<polygon fill="white" stroke="#666666" points="552.83,-239 423.83,-239 423.83,-220 552.83,-220 552.83,-239"/>
<text text-anchor="middle" x="488.33" y="-227" font-family="Helvetica,sans-Serif" font-size="10.00">general/FMC_general.h</text>
</a>
</g>
</g>
<!-- Node1&#45;&gt;Node2 -->
<g id="edge1" class="edge">
<title>Node1&#45;&gt;Node2</title>
<path fill="none" stroke="#63b8ff" d="M682.8,-406.89C699.76,-399.94 720.71,-388.43 732.33,-371 756.12,-335.35 768.89,-307.82 741.33,-275 718.87,-248.24 629.1,-237.56 562.85,-233.31"/>
<polygon fill="#63b8ff" stroke="#63b8ff" points="563.04,-229.82 552.85,-232.71 562.62,-236.8 563.04,-229.82"/>
</g>
<!-- Node17 -->
<g id="node17" class="node">
<title>Node17</title>
<g id="a_node17"><a xlink:href="../../db/d26/FMC__code__utils_8h.html" target="_top" xlink:title=" ">
<polygon fill="white" stroke="#666666" points="379.83,-305 260.83,-305 260.83,-275 379.83,-275 379.83,-305"/>
<text text-anchor="start" x="268.83" y="-293" font-family="Helvetica,sans-Serif" font-size="10.00">code_utils/FMC_code</text>
<text text-anchor="middle" x="320.33" y="-282" font-family="Helvetica,sans-Serif" font-size="10.00">_utils.h</text>
</a>
</g>
</g>
<!-- Node1&#45;&gt;Node17 -->
<g id="edge32" class="edge">
<title>Node1&#45;&gt;Node17</title>
<path fill="none" stroke="#63b8ff" d="M623.6,-413.14C560.25,-408.08 423.56,-394.72 383.33,-371 360.64,-357.62 343.02,-332.71 332.25,-314.23"/>
<polygon fill="#63b8ff" stroke="#63b8ff" points="335.18,-312.28 327.26,-305.24 329.06,-315.68 335.18,-312.28"/>
</g>
<!-- Node18 -->
<g id="node18" class="node">
<title>Node18</title>
<g id="a_node18"><a xlink:href="../../d2/deb/FMC__file__management_8h.html" target="_top" xlink:title=" ">
<polygon fill="white" stroke="#666666" points="553.83,-365.5 392.83,-365.5 392.83,-346.5 553.83,-346.5 553.83,-365.5"/>
<text text-anchor="middle" x="473.33" y="-353.5" font-family="Helvetica,sans-Serif" font-size="10.00">files/FMC_file_management.h</text>
</a>
</g>
</g>
<!-- Node1&#45;&gt;Node18 -->
<g id="edge34" class="edge">
<title>Node1&#45;&gt;Node18</title>
<path fill="none" stroke="#63b8ff" d="M629.72,-406.99C598.15,-396.9 545.32,-380.01 509.91,-368.69"/>
<polygon fill="#63b8ff" stroke="#63b8ff" points="510.57,-365.23 499.98,-365.52 508.43,-371.9 510.57,-365.23"/>
</g>
<!-- Node19 -->
<g id="node19" class="node">
<title>Node19</title>
<g id="a_node19"><a xlink:href="../../da/db0/FMC__data__analyze_8h.html" target="_top" xlink:title=" ">
<polygon fill="white" stroke="#666666" points="723.33,-371 589.33,-371 589.33,-341 723.33,-341 723.33,-371"/>
<text text-anchor="start" x="597.33" y="-359" font-family="Helvetica,sans-Serif" font-size="10.00">data_analyze/FMC_data</text>
<text text-anchor="middle" x="656.33" y="-348" font-family="Helvetica,sans-Serif" font-size="10.00">_analyze.h</text>
</a>
</g>
</g>
<!-- Node1&#45;&gt;Node19 -->
<g id="edge36" class="edge">
<title>Node1&#45;&gt;Node19</title>
<path fill="none" stroke="#63b8ff" d="M656.33,-406.87C656.33,-400.11 656.33,-390.35 656.33,-381.26"/>
<polygon fill="#63b8ff" stroke="#63b8ff" points="659.83,-381.11 656.33,-371.11 652.83,-381.11 659.83,-381.11"/>
</g>
<!-- Node22 -->
<g id="node22" class="node">
<title>Node22</title>
<g id="a_node22"><a xlink:href="../../d4/db9/FMC__wrapper_8h.html" target="_top" xlink:title=" ">
<polygon fill="white" stroke="#666666" points="932.33,-184 820.33,-184 820.33,-165 932.33,-165 932.33,-184"/>
<text text-anchor="middle" x="876.33" y="-172" font-family="Helvetica,sans-Serif" font-size="10.00">cpp/FMC_wrapper.h</text>
</a>
</g>
</g>
<!-- Node1&#45;&gt;Node22 -->
<g id="edge41" class="edge">
<title>Node1&#45;&gt;Node22</title>
<path fill="none" stroke="#63b8ff" d="M687.12,-406.93C708.14,-399.9 735.63,-388.26 755.33,-371 814.36,-319.29 854.08,-231.7 869.35,-193.84"/>
<polygon fill="#63b8ff" stroke="#63b8ff" points="872.75,-194.75 873.14,-184.17 866.23,-192.2 872.75,-194.75"/>
</g>
<!-- Node3 -->
<g id="node3" class="node">
<title>Node3</title>
<g id="a_node3"><a xlink:href="../../d0/d28/FMC__macros_8h.html" target="_top" xlink:title=" ">
<polygon fill="white" stroke="#666666" points="328.83,-74 173.83,-74 173.83,-55 328.83,-55 328.83,-74"/>
<text text-anchor="middle" x="251.33" y="-62" font-family="Helvetica,sans-Serif" font-size="10.00">preprocessor/FMC_macros.h</text>
</a>
</g>
</g>
<!-- Node2&#45;&gt;Node3 -->
<g id="edge2" class="edge">
<title>Node2&#45;&gt;Node3</title>
<path fill="none" stroke="#63b8ff" d="M423.72,-225.82C307.34,-220.46 71.79,-206.89 42.33,-184 15.43,-163.09 0.66,-136.29 22.33,-110 40.32,-88.18 106.8,-76.93 163.53,-71.2"/>
<polygon fill="#63b8ff" stroke="#63b8ff" points="164.01,-74.67 173.63,-70.23 163.34,-67.7 164.01,-74.67"/>
</g>
<!-- Node4 -->
<g id="node4" class="node">
<title>Node4</title>
<g id="a_node4"><a xlink:href="../../d7/dff/FMC__platform_8h.html" target="_top" xlink:title=" ">
<polygon fill="white" stroke="#666666" points="95.83,-19 0.83,-19 0.83,0 95.83,0 95.83,-19"/>
<text text-anchor="middle" x="48.33" y="-7" font-family="Helvetica,sans-Serif" font-size="10.00">FMC_platform.h</text>
</a>
</g>
</g>
<!-- Node2&#45;&gt;Node4 -->
<g id="edge6" class="edge">
<title>Node2&#45;&gt;Node4</title>
<path fill="none" stroke="#63b8ff" d="M423.51,-226.57C302.03,-222.34 49.65,-210.45 20.33,-184 -24.18,-143.83 16.15,-63.09 37.29,-27.74"/>
<polygon fill="#63b8ff" stroke="#63b8ff" points="40.39,-29.39 42.66,-19.04 34.43,-25.71 40.39,-29.39"/>
</g>
<!-- Node6 -->
<g id="node6" class="node">
<title>Node6</title>
<g id="a_node6"><a xlink:href="../../da/dd3/FMC__consts_8h.html" target="_top" xlink:title=" ">
<polygon fill="white" stroke="#666666" points="434.33,-129 284.33,-129 284.33,-110 434.33,-110 434.33,-129"/>
<text text-anchor="middle" x="359.33" y="-117" font-family="Helvetica,sans-Serif" font-size="10.00">preprocessor/FMC_consts.h</text>
</a>
</g>
</g>
<!-- Node2&#45;&gt;Node6 -->
<g id="edge7" class="edge">
<title>Node2&#45;&gt;Node6</title>
<path fill="none" stroke="#63b8ff" d="M488.05,-219.97C487.17,-206.61 483.59,-180.66 469.33,-165 454.79,-149.03 433.71,-138.68 413.89,-132.02"/>
<polygon fill="#63b8ff" stroke="#63b8ff" points="414.88,-128.66 404.29,-129.04 412.8,-135.35 414.88,-128.66"/>
</g>
<!-- Node7 -->
<g id="node7" class="node">
<title>Node7</title>
<g id="a_node7"><a xlink:href="../../d5/de5/FMC__structs_8h.html" target="_top" xlink:title=" ">
<polygon fill="white" stroke="#666666" points="176.33,-184 60.33,-184 60.33,-165 176.33,-165 176.33,-184"/>
<text text-anchor="middle" x="118.33" y="-172" font-family="Helvetica,sans-Serif" font-size="10.00">types/FMC_structs.h</text>
</a>
</g>
</g>
<!-- Node2&#45;&gt;Node7 -->
<g id="edge8" class="edge">
<title>Node2&#45;&gt;Node7</title>
<path fill="none" stroke="#63b8ff" d="M428.89,-219.98C362.69,-210.5 255.88,-195.2 186.39,-185.25"/>
<polygon fill="#63b8ff" stroke="#63b8ff" points="186.81,-181.77 176.41,-183.82 185.82,-188.7 186.81,-181.77"/>
</g>
<!-- Node9 -->
<g id="node9" class="node">
<title>Node9</title>
<g id="a_node9"><a xlink:href="../../d6/d25/FMC__enums_8h.html" target="_top" xlink:title=" ">
<polygon fill="white" stroke="#666666" points="117.33,-129 31.33,-129 31.33,-110 117.33,-110 117.33,-129"/>
<text text-anchor="middle" x="74.33" y="-117" font-family="Helvetica,sans-Serif" font-size="10.00">FMC_enums.h</text>
</a>
</g>
</g>
<!-- Node2&#45;&gt;Node9 -->
<g id="edge18" class="edge">
<title>Node2&#45;&gt;Node9</title>
<path fill="none" stroke="#63b8ff" d="M423.75,-226.61C308.2,-222.55 75.81,-211.09 51.33,-184 39.49,-170.89 49.56,-151.2 59.85,-137.23"/>
<polygon fill="#63b8ff" stroke="#63b8ff" points="62.61,-139.39 66.09,-129.38 57.13,-135.03 62.61,-139.39"/>
</g>
<!-- Node10 -->
<g id="node10" class="node">
<title>Node10</title>
<g id="a_node10"><a xlink:href="../../df/df8/FMC__typedefs_8h.html" target="_top" xlink:title=" ">
<polygon fill="white" stroke="#666666" points="556.83,-129 461.83,-129 461.83,-110 556.83,-110 556.83,-129"/>
<text text-anchor="middle" x="509.33" y="-117" font-family="Helvetica,sans-Serif" font-size="10.00">FMC_typedefs.h</text>
</a>
</g>
</g>
<!-- Node2&#45;&gt;Node10 -->
<g id="edge17" class="edge">
<title>Node2&#45;&gt;Node10</title>
<path fill="none" stroke="#63b8ff" d="M491.64,-219.77C494.86,-210.89 499.67,-196.68 502.33,-184 505.44,-169.21 507.23,-152.17 508.21,-139.47"/>
<polygon fill="#63b8ff" stroke="#63b8ff" points="511.72,-139.43 508.91,-129.21 504.74,-138.95 511.72,-139.43"/>
</g>
<!-- Node11 -->
<g id="node11" class="node">
<title>Node11</title>
<g id="a_node11"><a xlink:href="../../d2/d5e/FMC__flags_8h.html" target="_top" xlink:title=" ">
<polygon fill="white" stroke="#666666" points="460.33,-184 318.33,-184 318.33,-165 460.33,-165 460.33,-184"/>
<text text-anchor="middle" x="389.33" y="-172" font-family="Helvetica,sans-Serif" font-size="10.00">preprocessor/FMC_flags.h</text>
</a>
</g>
</g>
<!-- Node2&#45;&gt;Node11 -->
<g id="edge16" class="edge">
<title>Node2&#45;&gt;Node11</title>
<path fill="none" stroke="#63b8ff" d="M472.43,-219.98C456.79,-211.61 432.68,-198.7 414.45,-188.95"/>
<polygon fill="#63b8ff" stroke="#63b8ff" points="416,-185.8 405.53,-184.17 412.69,-191.98 416,-185.8"/>
</g>
<!-- Node12 -->
<g id="node12" class="node">
<title>Node12</title>
<g id="a_node12"><a xlink:href="../../dd/ddf/FMC__errors_8h.html" target="_top" xlink:title=" ">
<polygon fill="white" stroke="#666666" points="299.83,-184 194.83,-184 194.83,-165 299.83,-165 299.83,-184"/>
<text text-anchor="middle" x="247.33" y="-172" font-family="Helvetica,sans-Serif" font-size="10.00">utils/FMC_errors.h</text>
</a>
</g>
</g>
<!-- Node2&#45;&gt;Node12 -->
<g id="edge19" class="edge">
<title>Node2&#45;&gt;Node12</title>
<path fill="none" stroke="#63b8ff" d="M449.61,-219.98C407.93,-210.82 341.51,-196.21 296.25,-186.26"/>
<polygon fill="#63b8ff" stroke="#63b8ff" points="296.88,-182.81 286.36,-184.08 295.37,-189.65 296.88,-182.81"/>
</g>
<!-- Node13 -->
<g id="node13" class="node">
<title>Node13</title>
<g id="a_node13"><a xlink:href="../../de/d86/FMC__globals_8h.html" target="_top" xlink:title=" ">
<polygon fill="white" stroke="#666666" points="802.33,-184 690.33,-184 690.33,-165 802.33,-165 802.33,-184"/>
<text text-anchor="middle" x="746.33" y="-172" font-family="Helvetica,sans-Serif" font-size="10.00">utils/FMC_globals.h</text>
</a>
</g>
</g>
<!-- Node2&#45;&gt;Node13 -->
<g id="edge23" class="edge">
<title>Node2&#45;&gt;Node13</title>
<path fill="none" stroke="#63b8ff" d="M529.79,-219.98C574.6,-210.78 646.11,-196.09 694.58,-186.13"/>
<polygon fill="#63b8ff" stroke="#63b8ff" points="695.47,-189.52 704.56,-184.08 694.06,-182.67 695.47,-189.52"/>
</g>
<!-- Node14 -->
<g id="node14" class="node">
<title>Node14</title>
<g id="a_node14"><a xlink:href="../../d4/d06/FMC__deprecated_8h.html" target="_top" xlink:title=" ">
<polygon fill="white" stroke="#666666" points="1081.83,-184 950.83,-184 950.83,-165 1081.83,-165 1081.83,-184"/>
<text text-anchor="middle" x="1016.33" y="-172" font-family="Helvetica,sans-Serif" font-size="10.00">utils/FMC_deprecated.h</text>
</a>
</g>
</g>
<!-- Node2&#45;&gt;Node14 -->
<g id="edge27" class="edge">
<title>Node2&#45;&gt;Node14</title>
<path fill="none" stroke="#63b8ff" d="M552.88,-222.47C638.8,-214.36 795.77,-199.32 940.53,-184.07"/>
<polygon fill="#63b8ff" stroke="#63b8ff" points="940.91,-187.55 950.49,-183.02 940.18,-180.59 940.91,-187.55"/>
</g>
<!-- Node16 -->
<g id="node16" class="node">
<title>Node16</title>
<g id="a_node16"><a xlink:href="../../da/d45/FMC__str__view_8h.html" target="_top" xlink:title=" ">
<polygon fill="white" stroke="#666666" points="671.83,-184 554.83,-184 554.83,-165 671.83,-165 671.83,-184"/>
<text text-anchor="middle" x="613.33" y="-172" font-family="Helvetica,sans-Serif" font-size="10.00">utils/FMC_str_view.h</text>
</a>
</g>
</g>
<!-- Node2&#45;&gt;Node16 -->
<g id="edge30" class="edge">
<title>Node2&#45;&gt;Node16</title>
<path fill="none" stroke="#63b8ff" d="M503.3,-219.98C521.86,-211.3 553.59,-197.75 578.31,-187.88"/>
<polygon fill="#63b8ff" stroke="#63b8ff" points="579.72,-191.09 587.74,-184.17 577.15,-184.58 579.72,-191.09"/>
</g>
<!-- Node3&#45;&gt;Node4 -->
<g id="edge3" class="edge">
<title>Node3&#45;&gt;Node4</title>
<path fill="none" stroke="#63b8ff" d="M218.72,-54.98C184.05,-45.93 129.07,-31.58 90.98,-21.64"/>
<polygon fill="#63b8ff" stroke="#63b8ff" points="91.76,-18.22 81.2,-19.08 90,-24.99 91.76,-18.22"/>
</g>
<!-- Node5 -->
<g id="node5" class="node">
<title>Node5</title>
<g id="a_node5"><a xlink:href="../../d1/d2e/FMC__attributes_8h.html" target="_top" xlink:title=" ">
<polygon fill="white" stroke="#666666" points="301.33,-19 201.33,-19 201.33,0 301.33,0 301.33,-19"/>
<text text-anchor="middle" x="251.33" y="-7" font-family="Helvetica,sans-Serif" font-size="10.00">FMC_attributes.h</text>
</a>
</g>
</g>
<!-- Node3&#45;&gt;Node5 -->
<g id="edge4" class="edge">
<title>Node3&#45;&gt;Node5</title>
<path fill="none" stroke="#63b8ff" d="M246.17,-54.75C244.67,-47.8 244.24,-37.85 244.86,-29.13"/>
<polygon fill="#63b8ff" stroke="#63b8ff" points="248.34,-29.47 246.2,-19.09 241.4,-28.53 248.34,-29.47"/>
</g>
<!-- Node5&#45;&gt;Node3 -->
<g id="edge5" class="edge">
<title>Node5&#45;&gt;Node3</title>
<path fill="none" stroke="#63b8ff" d="M256.46,-19.09C257.97,-25.99 258.43,-35.93 257.83,-44.66"/>
<polygon fill="#63b8ff" stroke="#63b8ff" points="254.33,-44.38 256.5,-54.75 261.27,-45.29 254.33,-44.38"/>
</g>
<!-- Node7&#45;&gt;Node3 -->
<g id="edge11" class="edge">
<title>Node7&#45;&gt;Node3</title>
<path fill="none" stroke="#63b8ff" d="M122.93,-164.69C130.21,-151.41 145.52,-126.12 164.33,-110 180.17,-96.44 200.84,-85.64 218.07,-78.08"/>
<polygon fill="#63b8ff" stroke="#63b8ff" points="219.89,-81.11 227.75,-74.01 217.17,-74.66 219.89,-81.11"/>
</g>
<!-- Node7&#45;&gt;Node6 -->
<g id="edge10" class="edge">
<title>Node7&#45;&gt;Node6</title>
<path fill="none" stroke="#63b8ff" d="M157.05,-164.98C198.74,-155.82 265.15,-141.21 310.42,-131.26"/>
<polygon fill="#63b8ff" stroke="#63b8ff" points="311.29,-134.65 320.31,-129.08 309.79,-127.81 311.29,-134.65"/>
</g>
<!-- Node8 -->
<g id="node8" class="node">
<title>Node8</title>
<g id="a_node8"><a xlink:title=" ">
<polygon fill="#e0e0e0" stroke="#999999" points="223.33,-129 173.33,-129 173.33,-110 223.33,-110 223.33,-129"/>
<text text-anchor="middle" x="198.33" y="-117" font-family="Helvetica,sans-Serif" font-size="10.00">stdio.h</text>
</a>
</g>
</g>
<!-- Node7&#45;&gt;Node8 -->
<g id="edge9" class="edge">
<title>Node7&#45;&gt;Node8</title>
<path fill="none" stroke="#63b8ff" d="M131.19,-164.98C143.48,-156.84 162.24,-144.41 176.81,-134.76"/>
<polygon fill="#63b8ff" stroke="#63b8ff" points="178.84,-137.61 185.25,-129.17 174.98,-131.78 178.84,-137.61"/>
</g>
<!-- Node7&#45;&gt;Node9 -->
<g id="edge12" class="edge">
<title>Node7&#45;&gt;Node9</title>
<path fill="none" stroke="#63b8ff" d="M111.07,-164.75C104.79,-157.18 95.55,-146.05 87.9,-136.84"/>
<polygon fill="#63b8ff" stroke="#63b8ff" points="90.54,-134.55 81.46,-129.09 85.16,-139.02 90.54,-134.55"/>
</g>
<!-- Node7&#45;&gt;Node10 -->
<g id="edge14" class="edge">
<title>Node7&#45;&gt;Node10</title>
<path fill="none" stroke="#63b8ff" d="M176.45,-165.62C250.51,-155.58 377.75,-138.34 451.62,-128.32"/>
<polygon fill="#63b8ff" stroke="#63b8ff" points="452.24,-131.77 461.68,-126.96 451.3,-124.83 452.24,-131.77"/>
</g>
<!-- Node9&#45;&gt;Node3 -->
<g id="edge13" class="edge">
<title>Node9&#45;&gt;Node3</title>
<path fill="none" stroke="#63b8ff" d="M102.77,-109.98C132.62,-101.05 179.72,-86.94 212.87,-77.02"/>
<polygon fill="#63b8ff" stroke="#63b8ff" points="214.1,-80.3 222.67,-74.08 212.09,-73.6 214.1,-80.3"/>
</g>
<!-- Node10&#45;&gt;Node3 -->
<g id="edge15" class="edge">
<title>Node10&#45;&gt;Node3</title>
<path fill="none" stroke="#63b8ff" d="M467.88,-109.98C423.07,-100.78 351.56,-86.09 303.09,-76.13"/>
<polygon fill="#63b8ff" stroke="#63b8ff" points="303.61,-72.67 293.11,-74.08 302.2,-79.52 303.61,-72.67"/>
</g>
<!-- Node12&#45;&gt;Node3 -->
<g id="edge22" class="edge">
<title>Node12&#45;&gt;Node3</title>
<path fill="none" stroke="#63b8ff" d="M247.66,-164.66C248.31,-147.17 249.77,-107.8 250.64,-84.27"/>
<polygon fill="#63b8ff" stroke="#63b8ff" points="254.14,-84.28 251.01,-74.16 247.15,-84.02 254.14,-84.28"/>
</g>
<!-- Node12&#45;&gt;Node6 -->
<g id="edge21" class="edge">
<title>Node12&#45;&gt;Node6</title>
<path fill="none" stroke="#63b8ff" d="M265.33,-164.98C283.26,-156.5 311.05,-143.35 331.77,-133.54"/>
<polygon fill="#63b8ff" stroke="#63b8ff" points="333.47,-136.61 341.01,-129.17 330.48,-130.28 333.47,-136.61"/>
</g>
<!-- Node12&#45;&gt;Node8 -->
<g id="edge20" class="edge">
<title>Node12&#45;&gt;Node8</title>
<path fill="none" stroke="#63b8ff" d="M239.24,-164.75C232.18,-157.11 221.75,-145.82 213.18,-136.56"/>
<polygon fill="#63b8ff" stroke="#63b8ff" points="215.63,-134.06 206.27,-129.09 210.49,-138.81 215.63,-134.06"/>
</g>
<!-- Node13&#45;&gt;Node3 -->
<g id="edge25" class="edge">
<title>Node13&#45;&gt;Node3</title>
<path fill="none" stroke="#63b8ff" d="M726.1,-164.92C693.06,-151.25 625.19,-124.59 565.33,-110 489.93,-91.62 402.37,-79.99 338.89,-73.25"/>
<polygon fill="#63b8ff" stroke="#63b8ff" points="339.23,-69.76 328.92,-72.21 338.5,-76.73 339.23,-69.76"/>
</g>
<!-- Node13&#45;&gt;Node6 -->
<g id="edge26" class="edge">
<title>Node13&#45;&gt;Node6</title>
<path fill="none" stroke="#63b8ff" d="M690.06,-165.79C621.79,-156.44 506.55,-140.66 431.72,-130.41"/>
<polygon fill="#63b8ff" stroke="#63b8ff" points="431.83,-126.9 421.44,-129.01 430.88,-133.83 431.83,-126.9"/>
</g>
<!-- Node13&#45;&gt;Node10 -->
<g id="edge24" class="edge">
<title>Node13&#45;&gt;Node10</title>
<path fill="none" stroke="#63b8ff" d="M708.26,-164.98C667.35,-155.84 602.22,-141.27 557.72,-131.32"/>
<polygon fill="#63b8ff" stroke="#63b8ff" points="558.23,-127.85 547.71,-129.08 556.71,-134.68 558.23,-127.85"/>
</g>
<!-- Node14&#45;&gt;Node5 -->
<g id="edge28" class="edge">
<title>Node14&#45;&gt;Node5</title>
<path fill="none" stroke="#63b8ff" d="M1008.21,-164.79C994.48,-150.68 965.16,-123.1 934.33,-110 822.19,-62.35 457.19,-27.61 311.85,-15.35"/>
<polygon fill="#63b8ff" stroke="#63b8ff" points="312.03,-11.85 301.77,-14.5 311.44,-18.82 312.03,-11.85"/>
</g>
<!-- Node15 -->
<g id="node15" class="node">
<title>Node15</title>
<g id="a_node15"><a xlink:title=" ">
<polygon fill="#e0e0e0" stroke="#999999" points="925.33,-129 869.33,-129 869.33,-110 925.33,-110 925.33,-129"/>
<text text-anchor="middle" x="897.33" y="-117" font-family="Helvetica,sans-Serif" font-size="10.00">stddef.h</text>
</a>
</g>
</g>
<!-- Node14&#45;&gt;Node15 -->
<g id="edge29" class="edge">
<title>Node14&#45;&gt;Node15</title>
<path fill="none" stroke="#63b8ff" d="M997.21,-164.98C977.98,-156.42 948.1,-143.11 926.03,-133.28"/>
<polygon fill="#63b8ff" stroke="#63b8ff" points="927.36,-130.04 916.8,-129.17 924.51,-136.44 927.36,-130.04"/>
</g>
<!-- Node16&#45;&gt;Node2 -->
<g id="edge31" class="edge">
<title>Node16&#45;&gt;Node2</title>
<path fill="none" stroke="#63b8ff" d="M598.03,-184.17C579.32,-192.91 547.55,-206.47 522.92,-216.29"/>
<polygon fill="#63b8ff" stroke="#63b8ff" points="521.56,-213.07 513.53,-219.98 524.12,-219.58 521.56,-213.07"/>
</g>
<!-- Node17&#45;&gt;Node2 -->
<g id="edge33" class="edge">
<title>Node17&#45;&gt;Node2</title>
<path fill="none" stroke="#63b8ff" d="M360.57,-274.99C389.1,-265.05 426.98,-251.86 454.07,-242.43"/>
<polygon fill="#63b8ff" stroke="#63b8ff" points="455.23,-245.73 463.52,-239.14 452.93,-239.12 455.23,-245.73"/>
</g>
<!-- Node18&#45;&gt;Node2 -->
<g id="edge35" class="edge">
<title>Node18&#45;&gt;Node2</title>
<path fill="none" stroke="#63b8ff" d="M461.25,-346.26C450.04,-337.34 434.11,-322.36 427.33,-305 422.49,-292.58 421.29,-286.89 427.33,-275 434.1,-261.68 446.93,-251.41 459.09,-244.1"/>
<polygon fill="#63b8ff" stroke="#63b8ff" points="461.08,-246.99 468.14,-239.09 457.69,-240.87 461.08,-246.99"/>
</g>
<!-- Node20 -->
<g id="node20" class="node">
<title>Node20</title>
<g id="a_node20"><a xlink:href="../../db/d30/FMC__encodings_8h.html" target="_top" xlink:title=" ">
<polygon fill="white" stroke="#666666" points="591.83,-299.5 436.83,-299.5 436.83,-280.5 591.83,-280.5 591.83,-299.5"/>
<text text-anchor="middle" x="514.33" y="-287.5" font-family="Helvetica,sans-Serif" font-size="10.00">encodings/FMC_encodings.h</text>
</a>
</g>
</g>
<!-- Node19&#45;&gt;Node20 -->
<g id="edge37" class="edge">
<title>Node19&#45;&gt;Node20</title>
<path fill="none" stroke="#63b8ff" d="M625.17,-340.95C600.49,-329.83 566.31,-314.42 542.45,-303.67"/>
<polygon fill="#63b8ff" stroke="#63b8ff" points="543.79,-300.44 533.23,-299.52 540.91,-306.82 543.79,-300.44"/>
</g>
<!-- Node21 -->
<g id="node21" class="node">
<title>Node21</title>
<g id="a_node21"><a xlink:href="../../d9/db5/FMC__strings_8h.html" target="_top" xlink:title=" ">
<polygon fill="white" stroke="#666666" points="732.33,-299.5 610.33,-299.5 610.33,-280.5 732.33,-280.5 732.33,-299.5"/>
<text text-anchor="middle" x="671.33" y="-287.5" font-family="Helvetica,sans-Serif" font-size="10.00">strings/FMC_strings.h</text>
</a>
</g>
</g>
<!-- Node19&#45;&gt;Node21 -->
<g id="edge39" class="edge">
<title>Node19&#45;&gt;Node21</title>
<path fill="none" stroke="#63b8ff" d="M659.66,-340.8C661.79,-331.7 664.59,-319.79 666.9,-309.9"/>
<polygon fill="#63b8ff" stroke="#63b8ff" points="670.39,-310.38 669.26,-299.84 663.57,-308.78 670.39,-310.38"/>
</g>
<!-- Node20&#45;&gt;Node2 -->
<g id="edge38" class="edge">
<title>Node20&#45;&gt;Node2</title>
<path fill="none" stroke="#63b8ff" d="M510.5,-280.37C506.77,-271.99 501,-259.01 496.29,-248.39"/>
<polygon fill="#63b8ff" stroke="#63b8ff" points="499.45,-246.88 492.19,-239.17 493.05,-249.73 499.45,-246.88"/>
</g>
<!-- Node21&#45;&gt;Node2 -->
<g id="edge40" class="edge">
<title>Node21&#45;&gt;Node2</title>
<path fill="none" stroke="#63b8ff" d="M644.72,-280.49C613.15,-270.4 560.32,-253.51 524.91,-242.19"/>
<polygon fill="#63b8ff" stroke="#63b8ff" points="525.57,-238.73 514.98,-239.02 523.43,-245.4 525.57,-238.73"/>
</g>
<!-- Node22&#45;&gt;Node3 -->
<g id="edge42" class="edge">
<title>Node22&#45;&gt;Node3</title>
<path fill="none" stroke="#63b8ff" d="M845.45,-164.94C796.11,-151.55 696.3,-125.54 610.33,-110 518.4,-93.38 412.09,-81.05 339.16,-73.64"/>
<polygon fill="#63b8ff" stroke="#63b8ff" points="339.39,-70.14 329.09,-72.62 338.69,-77.11 339.39,-70.14"/>
</g>
<!-- Node22&#45;&gt;Node15 -->
<g id="edge43" class="edge">
<title>Node22&#45;&gt;Node15</title>
<path fill="none" stroke="#63b8ff" d="M879.8,-164.75C882.61,-157.65 886.67,-147.4 890.18,-138.56"/>
<polygon fill="#63b8ff" stroke="#63b8ff" points="893.5,-139.68 893.93,-129.09 886.99,-137.1 893.5,-139.68"/>
</g>
</g>
</svg>
        <g id="navigator" transform="translate(0 0)" fill="#404254">
                <rect fill="#f2f5e9" fill-opacity="0.5" stroke="#606060" stroke-width=".5" x="0" y="0" width="60" height="60"/>
                <use id="zoomplus" xlink:href="#zoomPlus" x="17" y="9" onmousedown="handleZoom(evt,'in')"/>
                <use id="zoomminus" xlink:href="#zoomMin" x="42" y="9" onmousedown="handleZoom(evt,'out')"/>
                <use id="reset" xlink:href="#resetDef" x="30" y="36" onmousedown="handleReset()"/>
                <g id="arrowUp" xlink:href="#dirArrow" transform="translate(30 24)" onmousedown="handlePan(0,-1)">
                  <use xlink:href="#rim" fill="#404040">
                        <set attributeName="fill" to="#808080" begin="arrowUp.mouseover" end="arrowUp.mouseout"/>
                  </use>
                  <path fill="none" stroke="white" stroke-width="1.5" d="M0,-3.0v7 M-2.5,-0.5L0,-3.0L2.5,-0.5"/>
                </g>
                <g id="arrowRight" xlink:href="#dirArrow" transform="rotate(90) translate(36 -43)" onmousedown="handlePan(1,0)">
                  <use xlink:href="#rim" fill="#404040">
                        <set attributeName="fill" to="#808080" begin="arrowRight.mouseover" end="arrowRight.mouseout"/>
                  </use>
                  <path fill="none" stroke="white" stroke-width="1.5" d="M0,-3.0v7 M-2.5,-0.5L0,-3.0L2.5,-0.5"/>
                </g>
                <g id="arrowDown" xlink:href="#dirArrow" transform="rotate(180) translate(-30 -48)" onmousedown="handlePan(0,1)">
                  <use xlink:href="#rim" fill="#404040">
                        <set attributeName="fill" to="#808080" begin="arrowDown.mouseover" end="arrowDown.mouseout"/>
                  </use>
                  <path fill="none" stroke="white" stroke-width="1.5" d="M0,-3.0v7 M-2.5,-0.5L0,-3.0L2.5,-0.5"/>
                </g>
                <g id="arrowLeft" xlink:href="#dirArrow" transform="rotate(270) translate(-36 17)" onmousedown="handlePan(-1,0)">
                  <use xlink:href="#rim" fill="#404040">
                        <set attributeName="fill" to="#808080" begin="arrowLeft.mouseover" end="arrowLeft.mouseout"/>
                  </use>
                  <path fill="none" stroke="white" stroke-width="1.5" d="M0,-3.0v7 M-2.5,-0.5L0,-3.0L2.5,-0.5"/>
                </g>
        </g>
        <svg viewBox="0 0 15 15" width="100%" height="30px" preserveAspectRatio="xMaxYMin meet">
         <g id="arrow_out" transform="scale(0.3 0.3)">
          <a xlink:href="FMC_8h__incl_org.svg" target="_base">
           <rect id="button" ry="5" rx="5" y="6" x="6" height="38" width="38"
                fill="#f2f5e9" fill-opacity="0.5" stroke="#606060" stroke-width="1.0"/>
           <path id="arrow"
             d="M 11.500037,31.436501 C 11.940474,20.09759 22.043105,11.32322 32.158766,21.979434 L 37.068811,17.246167 C 37.068811,17.246167 37.088388,32 37.088388,32 L 22.160133,31.978069 C 22.160133,31.978069 26.997745,27.140456 26.997745,27.140456 C 18.528582,18.264221 13.291696,25.230495 11.500037,31.436501 z"
             style="fill:#404040;"/>
          </a>
         </g>
        </svg>
</svg>
