<?xml version="1.0" encoding="UTF-8" standalone="no"?>
<!DOCTYPE svg PUBLIC "-//W3C//DTD SVG 1.1//EN"
 "http://www.w3.org/Graphics/SVG/1.1/DTD/svg11.dtd">
<!-- Generated by graphviz version 2.43.0 (0)
 -->
<!-- Title: src/FMC.h Pages: 1 -->
<!--zoomable 434 -->
<svg id="main" version="1.1" xmlns="http://www.w3.org/2000/svg" xmlns:xlink="http://www.w3.org/1999/xlink" xml:space="preserve" onload="init(evt)">
<style type="text/css"><![CDATA[
.edge:hover path { stroke: red; }
.edge:hover polygon { stroke: red; fill: red; }
]]></style>
<script type="text/javascript"><![CDATA[
var edges = document.getElementsByTagName('g');
if (edges && edges.length) {
  for (var i=0;i<edges.length;i++) {
    if (edges[i].id.substr(0,4)=='edge') {
      edges[i].setAttribute('class','edge');
    }
  }
}
]]></script>
        <defs>
                <circle id="rim" cx="0" cy="0" r="7"/>
                <circle id="rim2" cx="0" cy="0" r="3.5"/>
                <g id="zoomPlus">
                        <use xlink:href="#rim" fill="#404040">
                                <set attributeName="fill" to="#808080" begin="zoomplus.mouseover" end="zoomplus.mouseout"/>
                        </use>
                        <path d="M-4,0h8M0,-4v8" fill="none" stroke="white" stroke-width="1.5" pointer-events="none"/>
                </g>
                <g id="zoomMin">
                        <use xlink:href="#rim" fill="#404040">
                                <set attributeName="fill" to="#808080" begin="zoomminus.mouseover" end="zoomminus.mouseout"/>
                        </use>
                        <path d="M-4,0h8" fill="none" stroke="white" stroke-width="1.5" pointer-events="none"/>
                </g>
                <g id="dirArrow">
                        <path fill="none" stroke="white" stroke-width="1.5" d="M0,-3.0v7 M-2.5,-0.5L0,-3.0L2.5,-0.5"/>
                </g>
               <g id="resetDef">
                       <use xlink:href="#rim2" fill="#404040">
                               <set attributeName="fill" to="#808080" begin="reset.mouseover" end="reset.mouseout"/>
                       </use>
               </g>
        </defs>

<script type="text/javascript">
var viewWidth = 749;
var viewHeight = 434;
var sectionId = 'dynsection-0';
</script>
<script xlink:href="../../svgpan.js"/>
<svg id="graph" class="graph">
<g id="viewport">
<title>src/FMC.h</title>
<!-- Node1 -->
<g id="node1" class="node">
<title>Node1</title>
<g id="a_node1"><a xlink:title=" ">
<polygon fill="#999999" stroke="#666666" points="456.5,-426 391.5,-426 391.5,-407 456.5,-407 456.5,-426"/>
<text text-anchor="middle" x="424" y="-414" font-family="Helvetica,sans-Serif" font-size="10.00">src/FMC.h</text>
</a>
</g>
</g>
<!-- Node2 -->
<g id="node2" class="node">
<title>Node2</title>
<g id="a_node2"><a xlink:href="../../d9/de1/FMC__general_8h.html" target="_top" xlink:title=" ">
<polygon fill="white" stroke="#666666" points="481.5,-239 352.5,-239 352.5,-220 481.5,-220 481.5,-239"/>
<text text-anchor="middle" x="417" y="-227" font-family="Helvetica,sans-Serif" font-size="10.00">general/FMC_general.h</text>
</a>
</g>
</g>
<!-- Node1&#45;&gt;Node2 -->
<g id="edge1" class="edge">
<title>Node1&#45;&gt;Node2</title>
<path fill="none" stroke="#63b8ff" d="M423.66,-406.58C422.58,-378.07 419.2,-288.74 417.72,-249.41"/>
<polygon fill="#63b8ff" stroke="#63b8ff" points="421.21,-249.19 417.33,-239.33 414.21,-249.46 421.21,-249.19"/>
</g>
<!-- Node14 -->
<g id="node14" class="node">
<title>Node14</title>
<g id="a_node14"><a xlink:href="../../db/d26/FMC__code__utils_8h.html" target="_top" xlink:title=" ">
<polygon fill="white" stroke="#666666" points="571.5,-305 452.5,-305 452.5,-275 571.5,-275 571.5,-305"/>
<text text-anchor="start" x="460.5" y="-293" font-family="Helvetica,sans-Serif" font-size="10.00">code_utils/FMC_code</text>
<text text-anchor="middle" x="512" y="-282" font-family="Helvetica,sans-Serif" font-size="10.00">_utils.h</text>
</a>
</g>
</g>
<!-- Node1&#45;&gt;Node14 -->
<g id="edge25" class="edge">
<title>Node1&#45;&gt;Node14</title>
<path fill="none" stroke="#63b8ff" d="M430.05,-406.94C443.5,-387.91 476.28,-341.53 496.07,-313.54"/>
<polygon fill="#63b8ff" stroke="#63b8ff" points="499.08,-315.35 501.99,-305.16 493.36,-311.31 499.08,-315.35"/>
</g>
<!-- Node15 -->
<g id="node15" class="node">
<title>Node15</title>
<g id="a_node15"><a xlink:href="../../d2/deb/FMC__file__management_8h.html" target="_top" xlink:title=" ">
<polygon fill="white" stroke="#666666" points="672.5,-365.5 511.5,-365.5 511.5,-346.5 672.5,-346.5 672.5,-365.5"/>
<text text-anchor="middle" x="592" y="-353.5" font-family="Helvetica,sans-Serif" font-size="10.00">files/FMC_file_management.h</text>
</a>
</g>
</g>
<!-- Node1&#45;&gt;Node15 -->
<g id="edge27" class="edge">
<title>Node1&#45;&gt;Node15</title>
<path fill="none" stroke="#63b8ff" d="M448.43,-406.99C477.29,-396.94 525.5,-380.16 558,-368.84"/>
<polygon fill="#63b8ff" stroke="#63b8ff" points="559.25,-372.11 567.54,-365.52 556.95,-365.5 559.25,-372.11"/>
</g>
<!-- Node16 -->
<g id="node16" class="node">
<title>Node16</title>
<g id="a_node16"><a xlink:href="../../da/db0/FMC__data__analyze_8h.html" target="_top" xlink:title=" ">
<polygon fill="white" stroke="#666666" points="396,-371 262,-371 262,-341 396,-341 396,-371"/>
<text text-anchor="start" x="270" y="-359" font-family="Helvetica,sans-Serif" font-size="10.00">data_analyze/FMC_data</text>
<text text-anchor="middle" x="329" y="-348" font-family="Helvetica,sans-Serif" font-size="10.00">_analyze.h</text>
</a>
</g>
</g>
<!-- Node1&#45;&gt;Node16 -->
<g id="edge29" class="edge">
<title>Node1&#45;&gt;Node16</title>
<path fill="none" stroke="#63b8ff" d="M409.98,-406.87C397.09,-398.93 377.51,-386.87 360.83,-376.6"/>
<polygon fill="#63b8ff" stroke="#63b8ff" points="362.27,-373.38 351.92,-371.11 358.6,-379.34 362.27,-373.38"/>
</g>
<!-- Node19 -->
<g id="node19" class="node">
<title>Node19</title>
<g id="a_node19"><a xlink:href="../../d4/db9/FMC__wrapper_8h.html" target="_top" xlink:title=" ">
<polygon fill="white" stroke="#666666" points="112,-365.5 0,-365.5 0,-346.5 112,-346.5 112,-365.5"/>
<text text-anchor="middle" x="56" y="-353.5" font-family="Helvetica,sans-Serif" font-size="10.00">cpp/FMC_wrapper.h</text>
</a>
</g>
</g>
<!-- Node1&#45;&gt;Node19 -->
<g id="edge34" class="edge">
<title>Node1&#45;&gt;Node19</title>
<path fill="none" stroke="#63b8ff" d="M391.34,-410.31C330.57,-400.65 199.12,-379.75 120.05,-367.18"/>
<polygon fill="#63b8ff" stroke="#63b8ff" points="120.15,-363.65 109.73,-365.54 119.06,-370.57 120.15,-363.65"/>
</g>
<!-- Node3 -->
<g id="node3" class="node">
<title>Node3</title>
<g id="a_node3"><a xlink:href="../../d0/d28/FMC__macros_8h.html" target="_top" xlink:title=" ">
<polygon fill="white" stroke="#666666" points="348.5,-74 193.5,-74 193.5,-55 348.5,-55 348.5,-74"/>
<text text-anchor="middle" x="271" y="-62" font-family="Helvetica,sans-Serif" font-size="10.00">preprocessor/FMC_macros.h</text>
</a>
</g>
</g>
<!-- Node2&#45;&gt;Node3 -->
<g id="edge2" class="edge">
<title>Node2&#45;&gt;Node3</title>
<path fill="none" stroke="#63b8ff" d="M481.6,-228.23C559.53,-226.36 683.76,-217.97 713,-184 718.51,-177.6 717.97,-171.82 713,-165 671.92,-108.64 475.67,-82.62 358.93,-71.95"/>
<polygon fill="#63b8ff" stroke="#63b8ff" points="359.2,-68.46 348.93,-71.05 358.58,-75.43 359.2,-68.46"/>
</g>
<!-- Node4 -->
<g id="node4" class="node">
<title>Node4</title>
<g id="a_node4"><a xlink:href="../../d7/dff/FMC__platform_8h.html" target="_top" xlink:title=" ">
<polygon fill="white" stroke="#666666" points="626.5,-19 531.5,-19 531.5,0 626.5,0 626.5,-19"/>
<text text-anchor="middle" x="579" y="-7" font-family="Helvetica,sans-Serif" font-size="10.00">FMC_platform.h</text>
</a>
</g>
</g>
<!-- Node2&#45;&gt;Node4 -->
<g id="edge6" class="edge">
<title>Node2&#45;&gt;Node4</title>
<path fill="none" stroke="#63b8ff" d="M481.66,-228.78C563.27,-227.59 696.78,-220.01 728,-184 779.76,-124.31 661.03,-52.59 605.58,-23.6"/>
<polygon fill="#63b8ff" stroke="#63b8ff" points="607.13,-20.46 596.64,-19.01 603.93,-26.69 607.13,-20.46"/>
</g>
<!-- Node6 -->
<g id="node6" class="node">
<title>Node6</title>
<g id="a_node6"><a xlink:href="../../da/dd3/FMC__consts_8h.html" target="_top" xlink:title=" ">
<polygon fill="white" stroke="#666666" points="517,-129 367,-129 367,-110 517,-110 517,-129"/>
<text text-anchor="middle" x="442" y="-117" font-family="Helvetica,sans-Serif" font-size="10.00">preprocessor/FMC_consts.h</text>
</a>
</g>
</g>
<!-- Node2&#45;&gt;Node6 -->
<g id="edge7" class="edge">
<title>Node2&#45;&gt;Node6</title>
<path fill="none" stroke="#63b8ff" d="M418.6,-219.84C420.9,-207.58 425.38,-184.49 430,-165 432.03,-156.44 434.53,-147.01 436.72,-139.06"/>
<polygon fill="#63b8ff" stroke="#63b8ff" points="440.12,-139.9 439.45,-129.32 433.38,-138.01 440.12,-139.9"/>
</g>
<!-- Node7 -->
<g id="node7" class="node">
<title>Node7</title>
<g id="a_node7"><a xlink:href="../../d5/de5/FMC__structs_8h.html" target="_top" xlink:title=" ">
<polygon fill="white" stroke="#666666" points="382,-184 266,-184 266,-165 382,-165 382,-184"/>
<text text-anchor="middle" x="324" y="-172" font-family="Helvetica,sans-Serif" font-size="10.00">types/FMC_structs.h</text>
</a>
</g>
</g>
<!-- Node2&#45;&gt;Node7 -->
<g id="edge8" class="edge">
<title>Node2&#45;&gt;Node7</title>
<path fill="none" stroke="#63b8ff" d="M402.06,-219.98C387.5,-211.69 365.13,-198.94 348.07,-189.22"/>
<polygon fill="#63b8ff" stroke="#63b8ff" points="349.64,-186.08 339.21,-184.17 346.17,-192.16 349.64,-186.08"/>
</g>
<!-- Node9 -->
<g id="node9" class="node">
<title>Node9</title>
<g id="a_node9"><a xlink:href="../../d6/d25/FMC__enums_8h.html" target="_top" xlink:title=" ">
<polygon fill="white" stroke="#666666" points="129,-129 43,-129 43,-110 129,-110 129,-129"/>
<text text-anchor="middle" x="86" y="-117" font-family="Helvetica,sans-Serif" font-size="10.00">FMC_enums.h</text>
</a>
</g>
</g>
<!-- Node2&#45;&gt;Node9 -->
<g id="edge18" class="edge">
<title>Node2&#45;&gt;Node9</title>
<path fill="none" stroke="#63b8ff" d="M352.3,-225.63C276.14,-221.11 155.4,-209.98 119,-184 104.01,-173.3 95.32,-153.71 90.65,-139.1"/>
<polygon fill="#63b8ff" stroke="#63b8ff" points="93.92,-137.81 87.83,-129.14 87.19,-139.71 93.92,-137.81"/>
</g>
<!-- Node10 -->
<g id="node10" class="node">
<title>Node10</title>
<g id="a_node10"><a xlink:href="../../df/df8/FMC__typedefs_8h.html" target="_top" xlink:title=" ">
<polygon fill="white" stroke="#666666" points="242.5,-129 147.5,-129 147.5,-110 242.5,-110 242.5,-129"/>
<text text-anchor="middle" x="195" y="-117" font-family="Helvetica,sans-Serif" font-size="10.00">FMC_typedefs.h</text>
</a>
</g>
</g>
<!-- Node2&#45;&gt;Node10 -->
<g id="edge17" class="edge">
<title>Node2&#45;&gt;Node10</title>
<path fill="none" stroke="#63b8ff" d="M352.37,-227.99C275.93,-225.85 155.45,-217.14 127,-184 110.68,-164.98 139.13,-145.69 164.07,-133.44"/>
<polygon fill="#63b8ff" stroke="#63b8ff" points="165.77,-136.51 173.36,-129.11 162.81,-130.16 165.77,-136.51"/>
</g>
<!-- Node11 -->
<g id="node11" class="node">
<title>Node11</title>
<g id="a_node11"><a xlink:href="../../d2/d5e/FMC__flags_8h.html" target="_top" xlink:title=" ">
<polygon fill="white" stroke="#666666" points="704,-184 562,-184 562,-165 704,-165 704,-184"/>
<text text-anchor="middle" x="633" y="-172" font-family="Helvetica,sans-Serif" font-size="10.00">preprocessor/FMC_flags.h</text>
</a>
</g>
</g>
<!-- Node2&#45;&gt;Node11 -->
<g id="edge16" class="edge">
<title>Node2&#45;&gt;Node11</title>
<path fill="none" stroke="#63b8ff" d="M451.7,-219.98C488.75,-210.89 547.59,-196.46 588.13,-186.51"/>
<polygon fill="#63b8ff" stroke="#63b8ff" points="589.15,-189.86 598.02,-184.08 587.48,-183.07 589.15,-189.86"/>
</g>
<!-- Node12 -->
<g id="node12" class="node">
<title>Node12</title>
<g id="a_node12"><a xlink:href="../../dd/ddf/FMC__errors_8h.html" target="_top" xlink:title=" ">
<polygon fill="white" stroke="#666666" points="543.5,-184 438.5,-184 438.5,-165 543.5,-165 543.5,-184"/>
<text text-anchor="middle" x="491" y="-172" font-family="Helvetica,sans-Serif" font-size="10.00">utils/FMC_errors.h</text>
</a>
</g>
</g>
<!-- Node2&#45;&gt;Node12 -->
<g id="edge19" class="edge">
<title>Node2&#45;&gt;Node12</title>
<path fill="none" stroke="#63b8ff" d="M428.89,-219.98C440.15,-211.92 457.29,-199.65 470.71,-190.03"/>
<polygon fill="#63b8ff" stroke="#63b8ff" points="472.8,-192.84 478.89,-184.17 468.73,-187.15 472.8,-192.84"/>
</g>
<!-- Node13 -->
<g id="node13" class="node">
<title>Node13</title>
<g id="a_node13"><a xlink:href="../../de/d86/FMC__globals_8h.html" target="_top" xlink:title=" ">
<polygon fill="white" stroke="#666666" points="248,-184 136,-184 136,-165 248,-165 248,-184"/>
<text text-anchor="middle" x="192" y="-172" font-family="Helvetica,sans-Serif" font-size="10.00">utils/FMC_globals.h</text>
</a>
</g>
</g>
<!-- Node2&#45;&gt;Node13 -->
<g id="edge23" class="edge">
<title>Node2&#45;&gt;Node13</title>
<path fill="none" stroke="#63b8ff" d="M380.85,-219.98C342.09,-210.86 280.45,-196.33 238.2,-186.38"/>
<polygon fill="#63b8ff" stroke="#63b8ff" points="238.97,-182.97 228.43,-184.08 237.36,-189.78 238.97,-182.97"/>
</g>
<!-- Node3&#45;&gt;Node4 -->
<g id="edge3" class="edge">
<title>Node3&#45;&gt;Node4</title>
<path fill="none" stroke="#63b8ff" d="M320.49,-54.98C375.27,-45.56 463.46,-30.38 521.33,-20.42"/>
<polygon fill="#63b8ff" stroke="#63b8ff" points="522.15,-23.83 531.41,-18.69 520.96,-16.94 522.15,-23.83"/>
</g>
<!-- Node5 -->
<g id="node5" class="node">
<title>Node5</title>
<g id="a_node5"><a xlink:href="../../d1/d2e/FMC__attributes_8h.html" target="_top" xlink:title=" ">
<polygon fill="white" stroke="#666666" points="321,-19 221,-19 221,0 321,0 321,-19"/>
<text text-anchor="middle" x="271" y="-7" font-family="Helvetica,sans-Serif" font-size="10.00">FMC_attributes.h</text>
</a>
</g>
</g>
<!-- Node3&#45;&gt;Node5 -->
<g id="edge4" class="edge">
<title>Node3&#45;&gt;Node5</title>
<path fill="none" stroke="#63b8ff" d="M265.83,-54.75C264.34,-47.8 263.9,-37.85 264.52,-29.13"/>
<polygon fill="#63b8ff" stroke="#63b8ff" points="268.01,-29.47 265.87,-19.09 261.07,-28.53 268.01,-29.47"/>
</g>
<!-- Node5&#45;&gt;Node3 -->
<g id="edge5" class="edge">
<title>Node5&#45;&gt;Node3</title>
<path fill="none" stroke="#63b8ff" d="M276.13,-19.09C277.64,-25.99 278.09,-35.93 277.49,-44.66"/>
<polygon fill="#63b8ff" stroke="#63b8ff" points="274,-44.38 276.17,-54.75 280.94,-45.29 274,-44.38"/>
</g>
<!-- Node7&#45;&gt;Node3 -->
<g id="edge11" class="edge">
<title>Node7&#45;&gt;Node3</title>
<path fill="none" stroke="#63b8ff" d="M315.94,-164.95C308.29,-156.43 296.98,-142.69 290,-129 282.72,-114.73 277.74,-97.2 274.71,-84.18"/>
<polygon fill="#63b8ff" stroke="#63b8ff" points="278.07,-83.13 272.54,-74.09 271.22,-84.6 278.07,-83.13"/>
</g>
<!-- Node7&#45;&gt;Node6 -->
<g id="edge10" class="edge">
<title>Node7&#45;&gt;Node6</title>
<path fill="none" stroke="#63b8ff" d="M342.96,-164.98C362.03,-156.42 391.66,-143.11 413.55,-133.28"/>
<polygon fill="#63b8ff" stroke="#63b8ff" points="415.01,-136.46 422.7,-129.17 412.14,-130.07 415.01,-136.46"/>
</g>
<!-- Node8 -->
<g id="node8" class="node">
<title>Node8</title>
<g id="a_node8"><a xlink:title=" ">
<polygon fill="#e0e0e0" stroke="#999999" points="349,-129 299,-129 299,-110 349,-110 349,-129"/>
<text text-anchor="middle" x="324" y="-117" font-family="Helvetica,sans-Serif" font-size="10.00">stdio.h</text>
</a>
</g>
</g>
<!-- Node7&#45;&gt;Node8 -->
<g id="edge9" class="edge">
<title>Node7&#45;&gt;Node8</title>
<path fill="none" stroke="#63b8ff" d="M324,-164.75C324,-157.8 324,-147.85 324,-139.13"/>
<polygon fill="#63b8ff" stroke="#63b8ff" points="327.5,-139.09 324,-129.09 320.5,-139.09 327.5,-139.09"/>
</g>
<!-- Node7&#45;&gt;Node9 -->
<g id="edge12" class="edge">
<title>Node7&#45;&gt;Node9</title>
<path fill="none" stroke="#63b8ff" d="M285.76,-164.98C244.59,-155.82 179.01,-141.21 134.3,-131.26"/>
<polygon fill="#63b8ff" stroke="#63b8ff" points="135.06,-127.84 124.54,-129.08 133.54,-134.67 135.06,-127.84"/>
</g>
<!-- Node7&#45;&gt;Node10 -->
<g id="edge14" class="edge">
<title>Node7&#45;&gt;Node10</title>
<path fill="none" stroke="#63b8ff" d="M303.27,-164.98C282.24,-156.34 249.45,-142.87 225.46,-133.02"/>
<polygon fill="#63b8ff" stroke="#63b8ff" points="226.68,-129.73 216.1,-129.17 224.02,-136.21 226.68,-129.73"/>
</g>
<!-- Node9&#45;&gt;Node3 -->
<g id="edge13" class="edge">
<title>Node9&#45;&gt;Node3</title>
<path fill="none" stroke="#63b8ff" d="M115.72,-109.98C147.05,-101.01 196.57,-86.82 231.24,-76.89"/>
<polygon fill="#63b8ff" stroke="#63b8ff" points="232.39,-80.2 241.04,-74.08 230.47,-73.47 232.39,-80.2"/>
</g>
<!-- Node10&#45;&gt;Node3 -->
<g id="edge15" class="edge">
<title>Node10&#45;&gt;Node3</title>
<path fill="none" stroke="#63b8ff" d="M207.21,-109.98C218.78,-101.92 236.38,-89.65 250.16,-80.03"/>
<polygon fill="#63b8ff" stroke="#63b8ff" points="252.37,-82.76 258.57,-74.17 248.36,-77.02 252.37,-82.76"/>
</g>
<!-- Node12&#45;&gt;Node3 -->
<g id="edge22" class="edge">
<title>Node12&#45;&gt;Node3</title>
<path fill="none" stroke="#63b8ff" d="M502.28,-164.62C517.35,-151.69 540.58,-127.34 526,-110 504.76,-84.73 423.94,-73.81 358.9,-69.09"/>
<polygon fill="#63b8ff" stroke="#63b8ff" points="358.83,-65.58 348.61,-68.39 358.35,-72.56 358.83,-65.58"/>
</g>
<!-- Node12&#45;&gt;Node6 -->
<g id="edge21" class="edge">
<title>Node12&#45;&gt;Node6</title>
<path fill="none" stroke="#63b8ff" d="M482.91,-164.75C475.84,-157.11 465.41,-145.82 456.85,-136.56"/>
<polygon fill="#63b8ff" stroke="#63b8ff" points="459.3,-134.06 449.94,-129.09 454.16,-138.81 459.3,-134.06"/>
</g>
<!-- Node12&#45;&gt;Node8 -->
<g id="edge20" class="edge">
<title>Node12&#45;&gt;Node8</title>
<path fill="none" stroke="#63b8ff" d="M464.17,-164.98C435.55,-155.9 390.11,-141.48 358.77,-131.53"/>
<polygon fill="#63b8ff" stroke="#63b8ff" points="359.72,-128.16 349.13,-128.47 357.6,-134.84 359.72,-128.16"/>
</g>
<!-- Node13&#45;&gt;Node10 -->
<g id="edge24" class="edge">
<title>Node13&#45;&gt;Node10</title>
<path fill="none" stroke="#63b8ff" d="M192.5,-164.75C192.89,-157.8 193.45,-147.85 193.95,-139.13"/>
<polygon fill="#63b8ff" stroke="#63b8ff" points="197.44,-139.27 194.51,-129.09 190.45,-138.88 197.44,-139.27"/>
</g>
<!-- Node14&#45;&gt;Node2 -->
<g id="edge26" class="edge">
<title>Node14&#45;&gt;Node2</title>
<path fill="none" stroke="#63b8ff" d="M489,-274.84C474,-265.6 454.5,-253.59 439.57,-244.4"/>
<polygon fill="#63b8ff" stroke="#63b8ff" points="441.31,-241.36 430.96,-239.09 437.64,-247.32 441.31,-241.36"/>
</g>
<!-- Node15&#45;&gt;Node2 -->
<g id="edge28" class="edge">
<title>Node15&#45;&gt;Node2</title>
<path fill="none" stroke="#63b8ff" d="M593.61,-346.29C596.07,-330.11 598.77,-295.21 581,-275 567.85,-260.04 522.93,-248.48 483.42,-240.89"/>
<polygon fill="#63b8ff" stroke="#63b8ff" points="483.99,-237.44 473.51,-239.05 482.71,-244.32 483.99,-237.44"/>
</g>
<!-- Node17 -->
<g id="node17" class="node">
<title>Node17</title>
<g id="a_node17"><a xlink:href="../../db/d30/FMC__encodings_8h.html" target="_top" xlink:title=" ">
<polygon fill="white" stroke="#666666" points="255.5,-299.5 100.5,-299.5 100.5,-280.5 255.5,-280.5 255.5,-299.5"/>
<text text-anchor="middle" x="178" y="-287.5" font-family="Helvetica,sans-Serif" font-size="10.00">encodings/FMC_encodings.h</text>
</a>
</g>
</g>
<!-- Node16&#45;&gt;Node17 -->
<g id="edge30" class="edge">
<title>Node16&#45;&gt;Node17</title>
<path fill="none" stroke="#63b8ff" d="M295.86,-340.95C269.5,-329.78 232.94,-314.29 207.56,-303.53"/>
<polygon fill="#63b8ff" stroke="#63b8ff" points="208.67,-300.2 198.1,-299.52 205.94,-306.64 208.67,-300.2"/>
</g>
<!-- Node18 -->
<g id="node18" class="node">
<title>Node18</title>
<g id="a_node18"><a xlink:href="../../d9/db5/FMC__strings_8h.html" target="_top" xlink:title=" ">
<polygon fill="white" stroke="#666666" points="396,-299.5 274,-299.5 274,-280.5 396,-280.5 396,-299.5"/>
<text text-anchor="middle" x="335" y="-287.5" font-family="Helvetica,sans-Serif" font-size="10.00">strings/FMC_strings.h</text>
</a>
</g>
</g>
<!-- Node16&#45;&gt;Node18 -->
<g id="edge32" class="edge">
<title>Node16&#45;&gt;Node18</title>
<path fill="none" stroke="#63b8ff" d="M330.33,-340.8C331.18,-331.7 332.3,-319.79 333.23,-309.9"/>
<polygon fill="#63b8ff" stroke="#63b8ff" points="336.72,-310.13 334.17,-299.84 329.75,-309.47 336.72,-310.13"/>
</g>
<!-- Node17&#45;&gt;Node2 -->
<g id="edge31" class="edge">
<title>Node17&#45;&gt;Node2</title>
<path fill="none" stroke="#63b8ff" d="M212.75,-280.49C254.97,-270.16 326.25,-252.71 372.46,-241.4"/>
<polygon fill="#63b8ff" stroke="#63b8ff" points="373.32,-244.79 382.21,-239.02 371.66,-237.99 373.32,-244.79"/>
</g>
<!-- Node18&#45;&gt;Node2 -->
<g id="edge33" class="edge">
<title>Node18&#45;&gt;Node2</title>
<path fill="none" stroke="#63b8ff" d="M347.1,-280.37C360.06,-271.12 380.86,-256.28 396.4,-245.19"/>
<polygon fill="#63b8ff" stroke="#63b8ff" points="398.74,-247.82 404.85,-239.17 394.68,-242.13 398.74,-247.82"/>
</g>
<!-- Node19&#45;&gt;Node3 -->
<g id="edge35" class="edge">
<title>Node19&#45;&gt;Node3</title>
<path fill="none" stroke="#63b8ff" d="M48.27,-346.43C40.11,-336.94 27.42,-320.89 20,-305 5.54,-274.04 1,-264.67 1,-230.5 1,-230.5 1,-230.5 1,-173.5 1,-141.69 8.46,-128.96 34,-110 57.47,-92.58 125.83,-80.93 183.14,-73.93"/>
<polygon fill="#63b8ff" stroke="#63b8ff" points="183.81,-77.37 193.33,-72.72 182.99,-70.42 183.81,-77.37"/>
</g>
<!-- Node20 -->
<g id="node20" class="node">
<title>Node20</title>
<g id="a_node20"><a xlink:title=" ">
<polygon fill="#e0e0e0" stroke="#999999" points="82.5,-299.5 29.5,-299.5 29.5,-280.5 82.5,-280.5 82.5,-299.5"/>
<text text-anchor="middle" x="56" y="-287.5" font-family="Helvetica,sans-Serif" font-size="10.00">cstddef</text>
</a>
</g>
</g>
<!-- Node19&#45;&gt;Node20 -->
<g id="edge36" class="edge">
<title>Node19&#45;&gt;Node20</title>
<path fill="none" stroke="#63b8ff" d="M56,-346.37C56,-337.16 56,-322.29 56,-310.27"/>
<polygon fill="#63b8ff" stroke="#63b8ff" points="59.5,-309.91 56,-299.91 52.5,-309.91 59.5,-309.91"/>
</g>
</g>
</svg>
        <g id="navigator" transform="translate(0 0)" fill="#404254">
                <rect fill="#f2f5e9" fill-opacity="0.5" stroke="#606060" stroke-width=".5" x="0" y="0" width="60" height="60"/>
                <use id="zoomplus" xlink:href="#zoomPlus" x="17" y="9" onmousedown="handleZoom(evt,'in')"/>
                <use id="zoomminus" xlink:href="#zoomMin" x="42" y="9" onmousedown="handleZoom(evt,'out')"/>
                <use id="reset" xlink:href="#resetDef" x="30" y="36" onmousedown="handleReset()"/>
                <g id="arrowUp" xlink:href="#dirArrow" transform="translate(30 24)" onmousedown="handlePan(0,-1)">
                  <use xlink:href="#rim" fill="#404040">
                        <set attributeName="fill" to="#808080" begin="arrowUp.mouseover" end="arrowUp.mouseout"/>
                  </use>
                  <path fill="none" stroke="white" stroke-width="1.5" d="M0,-3.0v7 M-2.5,-0.5L0,-3.0L2.5,-0.5"/>
                </g>
                <g id="arrowRight" xlink:href="#dirArrow" transform="rotate(90) translate(36 -43)" onmousedown="handlePan(1,0)">
                  <use xlink:href="#rim" fill="#404040">
                        <set attributeName="fill" to="#808080" begin="arrowRight.mouseover" end="arrowRight.mouseout"/>
                  </use>
                  <path fill="none" stroke="white" stroke-width="1.5" d="M0,-3.0v7 M-2.5,-0.5L0,-3.0L2.5,-0.5"/>
                </g>
                <g id="arrowDown" xlink:href="#dirArrow" transform="rotate(180) translate(-30 -48)" onmousedown="handlePan(0,1)">
                  <use xlink:href="#rim" fill="#404040">
                        <set attributeName="fill" to="#808080" begin="arrowDown.mouseover" end="arrowDown.mouseout"/>
                  </use>
                  <path fill="none" stroke="white" stroke-width="1.5" d="M0,-3.0v7 M-2.5,-0.5L0,-3.0L2.5,-0.5"/>
                </g>
                <g id="arrowLeft" xlink:href="#dirArrow" transform="rotate(270) translate(-36 17)" onmousedown="handlePan(-1,0)">
                  <use xlink:href="#rim" fill="#404040">
                        <set attributeName="fill" to="#808080" begin="arrowLeft.mouseover" end="arrowLeft.mouseout"/>
                  </use>
                  <path fill="none" stroke="white" stroke-width="1.5" d="M0,-3.0v7 M-2.5,-0.5L0,-3.0L2.5,-0.5"/>
                </g>
        </g>
        <svg viewBox="0 0 15 15" width="100%" height="30px" preserveAspectRatio="xMaxYMin meet">
         <g id="arrow_out" transform="scale(0.3 0.3)">
          <a xlink:href="FMC_8h__incl_org.svg" target="_base">
           <rect id="button" ry="5" rx="5" y="6" x="6" height="38" width="38"
                fill="#f2f5e9" fill-opacity="0.5" stroke="#606060" stroke-width="1.0"/>
           <path id="arrow"
             d="M 11.500037,31.436501 C 11.940474,20.09759 22.043105,11.32322 32.158766,21.979434 L 37.068811,17.246167 C 37.068811,17.246167 37.088388,32 37.088388,32 L 22.160133,31.978069 C 22.160133,31.978069 26.997745,27.140456 26.997745,27.140456 C 18.528582,18.264221 13.291696,25.230495 11.500037,31.436501 z"
             style="fill:#404040;"/>
          </a>
         </g>
        </svg>
</svg>
