<?xml version="1.0" encoding="UTF-8" standalone="no"?>
<!DOCTYPE svg PUBLIC "-//W3C//DTD SVG 1.1//EN"
 "http://www.w3.org/Graphics/SVG/1.1/DTD/svg11.dtd">
<!-- Generated by graphviz version 2.43.0 (0)
 -->
<!-- Title: src/FMC.h Pages: 1 -->
<svg width="807pt" height="489pt"
 viewBox="0.00 0.00 807.00 489.00" xmlns="http://www.w3.org/2000/svg" xmlns:xlink="http://www.w3.org/1999/xlink">
<g id="graph0" class="graph" transform="scale(1 1) rotate(0) translate(4 485)">
<title>src/FMC.h</title>
<!-- Node1 -->
<g id="node1" class="node">
<title>Node1</title>
<g id="a_node1"><a xlink:title=" ">
<polygon fill="#999999" stroke="#666666" points="611.5,-481 546.5,-481 546.5,-462 611.5,-462 611.5,-481"/>
<text text-anchor="middle" x="579" y="-469" font-family="Helvetica,sans-Serif" font-size="10.00">src/FMC.h</text>
</a>
</g>
</g>
<!-- Node2 -->
<g id="node2" class="node">
<title>Node2</title>
<g id="a_node2"><a xlink:href="../../d9/de1/FMC__general_8h.html" target="_top" xlink:title=" ">
<polygon fill="white" stroke="#666666" points="492.5,-294 363.5,-294 363.5,-275 492.5,-275 492.5,-294"/>
<text text-anchor="middle" x="428" y="-282" font-family="Helvetica,sans-Serif" font-size="10.00">general/FMC_general.h</text>
</a>
</g>
</g>
<!-- Node1&#45;&gt;Node2 -->
<g id="edge1" class="edge">
<title>Node1&#45;&gt;Node2</title>
<path fill="none" stroke="#63b8ff" d="M605.46,-461.89C622.43,-454.94 643.38,-443.43 655,-426 678.78,-390.35 691.35,-362.99 664,-330 643.71,-305.52 563.84,-294.42 502.57,-289.44"/>
<polygon fill="#63b8ff" stroke="#63b8ff" points="502.77,-285.94 492.53,-288.66 502.23,-292.92 502.77,-285.94"/>
</g>
<!-- Node14 -->
<g id="node14" class="node">
<title>Node14</title>
<g id="a_node14"><a xlink:href="../../db/d26/FMC__code__utils_8h.html" target="_top" xlink:title=" ">
<polygon fill="white" stroke="#666666" points="302.5,-360 183.5,-360 183.5,-330 302.5,-330 302.5,-360"/>
<text text-anchor="start" x="191.5" y="-348" font-family="Helvetica,sans-Serif" font-size="10.00">code_utils/FMC_code</text>
<text text-anchor="middle" x="243" y="-337" font-family="Helvetica,sans-Serif" font-size="10.00">_utils.h</text>
</a>
</g>
</g>
<!-- Node1&#45;&gt;Node14 -->
<g id="edge26" class="edge">
<title>Node1&#45;&gt;Node14</title>
<path fill="none" stroke="#63b8ff" d="M546.27,-468.14C482.92,-463.08 346.23,-449.72 306,-426 283.3,-412.62 265.68,-387.71 254.92,-369.23"/>
<polygon fill="#63b8ff" stroke="#63b8ff" points="257.84,-367.28 249.93,-360.24 251.72,-370.68 257.84,-367.28"/>
</g>
<!-- Node15 -->
<g id="node15" class="node">
<title>Node15</title>
<g id="a_node15"><a xlink:href="../../d2/deb/FMC__file__management_8h.html" target="_top" xlink:title=" ">
<polygon fill="white" stroke="#666666" points="476.5,-420.5 315.5,-420.5 315.5,-401.5 476.5,-401.5 476.5,-420.5"/>
<text text-anchor="middle" x="396" y="-408.5" font-family="Helvetica,sans-Serif" font-size="10.00">files/FMC_file_management.h</text>
</a>
</g>
</g>
<!-- Node1&#45;&gt;Node15 -->
<g id="edge28" class="edge">
<title>Node1&#45;&gt;Node15</title>
<path fill="none" stroke="#63b8ff" d="M552.39,-461.99C520.81,-451.9 467.99,-435.01 432.58,-423.69"/>
<polygon fill="#63b8ff" stroke="#63b8ff" points="433.23,-420.23 422.64,-420.52 431.1,-426.9 433.23,-420.23"/>
</g>
<!-- Node16 -->
<g id="node16" class="node">
<title>Node16</title>
<g id="a_node16"><a xlink:href="../../da/db0/FMC__data__analyze_8h.html" target="_top" xlink:title=" ">
<polygon fill="white" stroke="#666666" points="646,-426 512,-426 512,-396 646,-396 646,-426"/>
<text text-anchor="start" x="520" y="-414" font-family="Helvetica,sans-Serif" font-size="10.00">data_analyze/FMC_data</text>
<text text-anchor="middle" x="579" y="-403" font-family="Helvetica,sans-Serif" font-size="10.00">_analyze.h</text>
</a>
</g>
</g>
<!-- Node1&#45;&gt;Node16 -->
<g id="edge30" class="edge">
<title>Node1&#45;&gt;Node16</title>
<path fill="none" stroke="#63b8ff" d="M579,-461.87C579,-455.11 579,-445.35 579,-436.26"/>
<polygon fill="#63b8ff" stroke="#63b8ff" points="582.5,-436.11 579,-426.11 575.5,-436.11 582.5,-436.11"/>
</g>
<!-- Node19 -->
<g id="node19" class="node">
<title>Node19</title>
<g id="a_node19"><a xlink:href="../../d4/db9/FMC__wrapper_8h.html" target="_top" xlink:title=" ">
<polygon fill="white" stroke="#666666" points="799,-294 687,-294 687,-275 799,-275 799,-294"/>
<text text-anchor="middle" x="743" y="-282" font-family="Helvetica,sans-Serif" font-size="10.00">cpp/FMC_wrapper.h</text>
</a>
</g>
</g>
<!-- Node1&#45;&gt;Node19 -->
<g id="edge35" class="edge">
<title>Node1&#45;&gt;Node19</title>
<path fill="none" stroke="#63b8ff" d="M611.86,-462.21C632.98,-455.46 659.78,-444.02 678,-426 713.24,-391.14 731.44,-333.58 738.86,-304.13"/>
<polygon fill="#63b8ff" stroke="#63b8ff" points="742.29,-304.86 741.19,-294.32 735.48,-303.24 742.29,-304.86"/>
</g>
<!-- Node3 -->
<g id="node3" class="node">
<title>Node3</title>
<g id="a_node3"><a xlink:href="../../d0/d28/FMC__macros_8h.html" target="_top" xlink:title=" ">
<polygon fill="white" stroke="#666666" points="470.5,-129 315.5,-129 315.5,-110 470.5,-110 470.5,-129"/>
<text text-anchor="middle" x="393" y="-117" font-family="Helvetica,sans-Serif" font-size="10.00">preprocessor/FMC_macros.h</text>
</a>
</g>
</g>
<!-- Node2&#45;&gt;Node3 -->
<g id="edge2" class="edge">
<title>Node2&#45;&gt;Node3</title>
<path fill="none" stroke="#63b8ff" d="M492.61,-279.64C551.75,-274.6 633,-263.34 653,-239 658.36,-232.48 656.77,-227.56 653,-220 621.95,-157.72 543.58,-134.02 480.94,-125.21"/>
<polygon fill="#63b8ff" stroke="#63b8ff" points="481,-121.69 470.64,-123.87 480.1,-128.63 481,-121.69"/>
</g>
<!-- Node4 -->
<g id="node4" class="node">
<title>Node4</title>
<g id="a_node4"><a xlink:href="../../d7/dff/FMC__platform_8h.html" target="_top" xlink:title=" ">
<polygon fill="white" stroke="#666666" points="518.5,-19 423.5,-19 423.5,0 518.5,0 518.5,-19"/>
<text text-anchor="middle" x="471" y="-7" font-family="Helvetica,sans-Serif" font-size="10.00">FMC_platform.h</text>
</a>
</g>
</g>
<!-- Node2&#45;&gt;Node4 -->
<g id="edge7" class="edge">
<title>Node2&#45;&gt;Node4</title>
<path fill="none" stroke="#63b8ff" d="M492.61,-277.38C553.92,-270.55 640.76,-257.91 669,-239 696.91,-220.31 710,-209.09 710,-175.5 710,-175.5 710,-175.5 710,-118.5 710,-39.19 599.35,-17.81 528.63,-12.24"/>
<polygon fill="#63b8ff" stroke="#63b8ff" points="528.73,-8.74 518.5,-11.53 528.23,-15.72 528.73,-8.74"/>
</g>
<!-- Node6 -->
<g id="node6" class="node">
<title>Node6</title>
<g id="a_node6"><a xlink:href="../../da/dd3/FMC__consts_8h.html" target="_top" xlink:title=" ">
<polygon fill="white" stroke="#666666" points="571,-184 421,-184 421,-165 571,-165 571,-184"/>
<text text-anchor="middle" x="496" y="-172" font-family="Helvetica,sans-Serif" font-size="10.00">preprocessor/FMC_consts.h</text>
</a>
</g>
</g>
<!-- Node2&#45;&gt;Node6 -->
<g id="edge8" class="edge">
<title>Node2&#45;&gt;Node6</title>
<path fill="none" stroke="#63b8ff" d="M433.56,-274.66C444.83,-256.77 470.5,-216 485.17,-192.69"/>
<polygon fill="#63b8ff" stroke="#63b8ff" points="488.18,-194.49 490.55,-184.16 482.26,-190.76 488.18,-194.49"/>
</g>
<!-- Node7 -->
<g id="node7" class="node">
<title>Node7</title>
<g id="a_node7"><a xlink:href="../../d5/de5/FMC__structs_8h.html" target="_top" xlink:title=" ">
<polygon fill="white" stroke="#666666" points="322,-239 206,-239 206,-220 322,-220 322,-239"/>
<text text-anchor="middle" x="264" y="-227" font-family="Helvetica,sans-Serif" font-size="10.00">types/FMC_structs.h</text>
</a>
</g>
</g>
<!-- Node2&#45;&gt;Node7 -->
<g id="edge9" class="edge">
<title>Node2&#45;&gt;Node7</title>
<path fill="none" stroke="#63b8ff" d="M401.65,-274.98C374.24,-266.13 331.11,-252.19 300.44,-242.28"/>
<polygon fill="#63b8ff" stroke="#63b8ff" points="301.15,-238.83 290.56,-239.08 299,-245.49 301.15,-238.83"/>
</g>
<!-- Node9 -->
<g id="node9" class="node">
<title>Node9</title>
<g id="a_node9"><a xlink:href="../../d6/d25/FMC__enums_8h.html" target="_top" xlink:title=" ">
<polygon fill="white" stroke="#666666" points="259,-184 173,-184 173,-165 259,-165 259,-184"/>
<text text-anchor="middle" x="216" y="-172" font-family="Helvetica,sans-Serif" font-size="10.00">FMC_enums.h</text>
</a>
</g>
</g>
<!-- Node2&#45;&gt;Node9 -->
<g id="edge19" class="edge">
<title>Node2&#45;&gt;Node9</title>
<path fill="none" stroke="#63b8ff" d="M363.4,-280.03C302.57,-275.24 217.77,-264.15 197,-239 186.17,-225.88 194.19,-206.73 202.9,-192.89"/>
<polygon fill="#63b8ff" stroke="#63b8ff" points="206.02,-194.52 208.81,-184.3 200.26,-190.55 206.02,-194.52"/>
</g>
<!-- Node10 -->
<g id="node10" class="node">
<title>Node10</title>
<g id="a_node10"><a xlink:href="../../df/df8/FMC__typedefs_8h.html" target="_top" xlink:title=" ">
<polygon fill="white" stroke="#666666" points="154.5,-184 59.5,-184 59.5,-165 154.5,-165 154.5,-184"/>
<text text-anchor="middle" x="107" y="-172" font-family="Helvetica,sans-Serif" font-size="10.00">FMC_typedefs.h</text>
</a>
</g>
</g>
<!-- Node2&#45;&gt;Node10 -->
<g id="edge18" class="edge">
<title>Node2&#45;&gt;Node10</title>
<path fill="none" stroke="#63b8ff" d="M363.35,-279.92C313.56,-275.2 244,-264.29 188,-239 162.44,-227.46 137.78,-206.2 122.52,-191.48"/>
<polygon fill="#63b8ff" stroke="#63b8ff" points="124.62,-188.64 115.06,-184.08 119.69,-193.61 124.62,-188.64"/>
</g>
<!-- Node11 -->
<g id="node11" class="node">
<title>Node11</title>
<g id="a_node11"><a xlink:href="../../d2/d5e/FMC__flags_8h.html" target="_top" xlink:title=" ">
<polygon fill="white" stroke="#666666" points="644,-239 502,-239 502,-220 644,-220 644,-239"/>
<text text-anchor="middle" x="573" y="-227" font-family="Helvetica,sans-Serif" font-size="10.00">preprocessor/FMC_flags.h</text>
</a>
</g>
</g>
<!-- Node2&#45;&gt;Node11 -->
<g id="edge17" class="edge">
<title>Node2&#45;&gt;Node11</title>
<path fill="none" stroke="#63b8ff" d="M451.3,-274.98C475.25,-266.23 512.78,-252.51 539.83,-242.62"/>
<polygon fill="#63b8ff" stroke="#63b8ff" points="541.09,-245.89 549.28,-239.17 538.69,-239.32 541.09,-245.89"/>
</g>
<!-- Node12 -->
<g id="node12" class="node">
<title>Node12</title>
<g id="a_node12"><a xlink:href="../../dd/ddf/FMC__errors_8h.html" target="_top" xlink:title=" ">
<polygon fill="white" stroke="#666666" points="445.5,-239 340.5,-239 340.5,-220 445.5,-220 445.5,-239"/>
<text text-anchor="middle" x="393" y="-227" font-family="Helvetica,sans-Serif" font-size="10.00">utils/FMC_errors.h</text>
</a>
</g>
</g>
<!-- Node2&#45;&gt;Node12 -->
<g id="edge20" class="edge">
<title>Node2&#45;&gt;Node12</title>
<path fill="none" stroke="#63b8ff" d="M422.22,-274.75C417.38,-267.42 410.32,-256.73 404.36,-247.7"/>
<polygon fill="#63b8ff" stroke="#63b8ff" points="407.1,-245.5 398.67,-239.09 401.26,-249.36 407.1,-245.5"/>
</g>
<!-- Node13 -->
<g id="node13" class="node">
<title>Node13</title>
<g id="a_node13"><a xlink:href="../../de/d86/FMC__globals_8h.html" target="_top" xlink:title=" ">
<polygon fill="white" stroke="#666666" points="112,-239 0,-239 0,-220 112,-220 112,-239"/>
<text text-anchor="middle" x="56" y="-227" font-family="Helvetica,sans-Serif" font-size="10.00">utils/FMC_globals.h</text>
</a>
</g>
</g>
<!-- Node2&#45;&gt;Node13 -->
<g id="edge24" class="edge">
<title>Node2&#45;&gt;Node13</title>
<path fill="none" stroke="#63b8ff" d="M368.23,-274.98C300.99,-265.4 192.07,-249.89 122.27,-239.94"/>
<polygon fill="#63b8ff" stroke="#63b8ff" points="122.66,-236.46 112.27,-238.52 121.68,-243.39 122.66,-236.46"/>
</g>
<!-- Node3&#45;&gt;Node4 -->
<g id="edge3" class="edge">
<title>Node3&#45;&gt;Node4</title>
<path fill="none" stroke="#63b8ff" d="M409.59,-109.9C422.89,-102.19 441.09,-89.69 452,-74 461.34,-60.57 466.17,-42.47 468.61,-29.03"/>
<polygon fill="#63b8ff" stroke="#63b8ff" points="472.09,-29.46 470.15,-19.04 465.17,-28.39 472.09,-29.46"/>
</g>
<!-- Node5 -->
<g id="node5" class="node">
<title>Node5</title>
<g id="a_node5"><a xlink:href="../../d1/d2e/FMC__attributes_8h.html" target="_top" xlink:title=" ">
<polygon fill="white" stroke="#666666" points="443,-74 343,-74 343,-55 443,-55 443,-74"/>
<text text-anchor="middle" x="393" y="-62" font-family="Helvetica,sans-Serif" font-size="10.00">FMC_attributes.h</text>
</a>
</g>
</g>
<!-- Node3&#45;&gt;Node5 -->
<g id="edge4" class="edge">
<title>Node3&#45;&gt;Node5</title>
<path fill="none" stroke="#63b8ff" d="M387.83,-109.75C386.34,-102.8 385.9,-92.85 386.52,-84.13"/>
<polygon fill="#63b8ff" stroke="#63b8ff" points="390.01,-84.47 387.87,-74.09 383.07,-83.53 390.01,-84.47"/>
</g>
<!-- Node5&#45;&gt;Node3 -->
<g id="edge6" class="edge">
<title>Node5&#45;&gt;Node3</title>
<path fill="none" stroke="#63b8ff" d="M398.13,-74.09C399.64,-80.99 400.09,-90.93 399.49,-99.66"/>
<polygon fill="#63b8ff" stroke="#63b8ff" points="396,-99.38 398.17,-109.75 402.94,-100.29 396,-99.38"/>
</g>
<!-- Node5&#45;&gt;Node4 -->
<g id="edge5" class="edge">
<title>Node5&#45;&gt;Node4</title>
<path fill="none" stroke="#63b8ff" d="M405.53,-54.98C417.4,-46.92 435.46,-34.65 449.61,-25.03"/>
<polygon fill="#63b8ff" stroke="#63b8ff" points="451.94,-27.69 458.24,-19.17 448,-21.9 451.94,-27.69"/>
</g>
<!-- Node7&#45;&gt;Node3 -->
<g id="edge12" class="edge">
<title>Node7&#45;&gt;Node3</title>
<path fill="none" stroke="#63b8ff" d="M268,-219.67C274.4,-206.37 288.07,-181.04 306,-165 321.33,-151.29 341.65,-140.59 358.79,-133.12"/>
<polygon fill="#63b8ff" stroke="#63b8ff" points="360.57,-136.17 368.46,-129.09 357.88,-129.71 360.57,-136.17"/>
</g>
<!-- Node7&#45;&gt;Node6 -->
<g id="edge11" class="edge">
<title>Node7&#45;&gt;Node6</title>
<path fill="none" stroke="#63b8ff" d="M301.27,-219.98C341.32,-210.84 405.07,-196.27 448.64,-186.32"/>
<polygon fill="#63b8ff" stroke="#63b8ff" points="449.46,-189.72 458.43,-184.08 447.9,-182.9 449.46,-189.72"/>
</g>
<!-- Node8 -->
<g id="node8" class="node">
<title>Node8</title>
<g id="a_node8"><a xlink:title=" ">
<polygon fill="#e0e0e0" stroke="#999999" points="365,-184 315,-184 315,-165 365,-165 365,-184"/>
<text text-anchor="middle" x="340" y="-172" font-family="Helvetica,sans-Serif" font-size="10.00">stdio.h</text>
</a>
</g>
</g>
<!-- Node7&#45;&gt;Node8 -->
<g id="edge10" class="edge">
<title>Node7&#45;&gt;Node8</title>
<path fill="none" stroke="#63b8ff" d="M276.21,-219.98C287.78,-211.92 305.38,-199.65 319.16,-190.03"/>
<polygon fill="#63b8ff" stroke="#63b8ff" points="321.37,-192.76 327.57,-184.17 317.36,-187.02 321.37,-192.76"/>
</g>
<!-- Node7&#45;&gt;Node9 -->
<g id="edge13" class="edge">
<title>Node7&#45;&gt;Node9</title>
<path fill="none" stroke="#63b8ff" d="M256.07,-219.75C249.15,-212.11 238.93,-200.82 230.55,-191.56"/>
<polygon fill="#63b8ff" stroke="#63b8ff" points="233.09,-189.15 223.78,-184.09 227.9,-193.85 233.09,-189.15"/>
</g>
<!-- Node7&#45;&gt;Node10 -->
<g id="edge15" class="edge">
<title>Node7&#45;&gt;Node10</title>
<path fill="none" stroke="#63b8ff" d="M238.78,-219.98C212.64,-211.16 171.6,-197.31 142.27,-187.41"/>
<polygon fill="#63b8ff" stroke="#63b8ff" points="143.02,-183.96 132.42,-184.08 140.78,-190.6 143.02,-183.96"/>
</g>
<!-- Node9&#45;&gt;Node3 -->
<g id="edge14" class="edge">
<title>Node9&#45;&gt;Node3</title>
<path fill="none" stroke="#63b8ff" d="M244.44,-164.98C274.28,-156.05 321.38,-141.94 354.53,-132.02"/>
<polygon fill="#63b8ff" stroke="#63b8ff" points="355.76,-135.3 364.34,-129.08 353.76,-128.6 355.76,-135.3"/>
</g>
<!-- Node10&#45;&gt;Node3 -->
<g id="edge16" class="edge">
<title>Node10&#45;&gt;Node3</title>
<path fill="none" stroke="#63b8ff" d="M152.95,-164.98C202.94,-155.72 282.89,-140.9 336.64,-130.94"/>
<polygon fill="#63b8ff" stroke="#63b8ff" points="337.49,-134.35 346.69,-129.08 336.22,-127.46 337.49,-134.35"/>
</g>
<!-- Node12&#45;&gt;Node3 -->
<g id="edge23" class="edge">
<title>Node12&#45;&gt;Node3</title>
<path fill="none" stroke="#63b8ff" d="M393,-219.66C393,-202.17 393,-162.8 393,-139.27"/>
<polygon fill="#63b8ff" stroke="#63b8ff" points="396.5,-139.16 393,-129.16 389.5,-139.16 396.5,-139.16"/>
</g>
<!-- Node12&#45;&gt;Node6 -->
<g id="edge22" class="edge">
<title>Node12&#45;&gt;Node6</title>
<path fill="none" stroke="#63b8ff" d="M409.55,-219.98C425.89,-211.57 451.13,-198.59 470.13,-188.81"/>
<polygon fill="#63b8ff" stroke="#63b8ff" points="471.86,-191.86 479.15,-184.17 468.66,-185.63 471.86,-191.86"/>
</g>
<!-- Node12&#45;&gt;Node8 -->
<g id="edge21" class="edge">
<title>Node12&#45;&gt;Node8</title>
<path fill="none" stroke="#63b8ff" d="M384.25,-219.75C376.53,-212.03 365.1,-200.6 355.78,-191.28"/>
<polygon fill="#63b8ff" stroke="#63b8ff" points="358.14,-188.69 348.59,-184.09 353.19,-193.64 358.14,-188.69"/>
</g>
<!-- Node13&#45;&gt;Node10 -->
<g id="edge25" class="edge">
<title>Node13&#45;&gt;Node10</title>
<path fill="none" stroke="#63b8ff" d="M64.42,-219.75C71.77,-212.11 82.63,-200.82 91.54,-191.56"/>
<polygon fill="#63b8ff" stroke="#63b8ff" points="94.32,-193.72 98.74,-184.09 89.28,-188.87 94.32,-193.72"/>
</g>
<!-- Node14&#45;&gt;Node2 -->
<g id="edge27" class="edge">
<title>Node14&#45;&gt;Node2</title>
<path fill="none" stroke="#63b8ff" d="M287.31,-329.99C319.1,-319.94 361.42,-306.55 391.32,-297.1"/>
<polygon fill="#63b8ff" stroke="#63b8ff" points="392.47,-300.41 400.95,-294.05 390.36,-293.73 392.47,-300.41"/>
</g>
<!-- Node15&#45;&gt;Node2 -->
<g id="edge29" class="edge">
<title>Node15&#45;&gt;Node2</title>
<path fill="none" stroke="#63b8ff" d="M384.5,-401.34C366.43,-386.65 334.95,-355.91 350,-330 358.54,-315.29 373.97,-305.04 388.86,-298.11"/>
<polygon fill="#63b8ff" stroke="#63b8ff" points="390.66,-301.15 398.5,-294.03 387.92,-294.71 390.66,-301.15"/>
</g>
<!-- Node17 -->
<g id="node17" class="node">
<title>Node17</title>
<g id="a_node17"><a xlink:href="../../db/d30/FMC__encodings_8h.html" target="_top" xlink:title=" ">
<polygon fill="white" stroke="#666666" points="514.5,-354.5 359.5,-354.5 359.5,-335.5 514.5,-335.5 514.5,-354.5"/>
<text text-anchor="middle" x="437" y="-342.5" font-family="Helvetica,sans-Serif" font-size="10.00">encodings/FMC_encodings.h</text>
</a>
</g>
</g>
<!-- Node16&#45;&gt;Node17 -->
<g id="edge31" class="edge">
<title>Node16&#45;&gt;Node17</title>
<path fill="none" stroke="#63b8ff" d="M547.84,-395.95C523.15,-384.83 488.97,-369.42 465.12,-358.67"/>
<polygon fill="#63b8ff" stroke="#63b8ff" points="466.45,-355.44 455.9,-354.52 463.58,-361.82 466.45,-355.44"/>
</g>
<!-- Node18 -->
<g id="node18" class="node">
<title>Node18</title>
<g id="a_node18"><a xlink:href="../../d9/db5/FMC__strings_8h.html" target="_top" xlink:title=" ">
<polygon fill="white" stroke="#666666" points="655,-354.5 533,-354.5 533,-335.5 655,-335.5 655,-354.5"/>
<text text-anchor="middle" x="594" y="-342.5" font-family="Helvetica,sans-Serif" font-size="10.00">strings/FMC_strings.h</text>
</a>
</g>
</g>
<!-- Node16&#45;&gt;Node18 -->
<g id="edge33" class="edge">
<title>Node16&#45;&gt;Node18</title>
<path fill="none" stroke="#63b8ff" d="M582.33,-395.8C584.46,-386.7 587.25,-374.79 589.57,-364.9"/>
<polygon fill="#63b8ff" stroke="#63b8ff" points="593.05,-365.38 591.93,-354.84 586.24,-363.78 593.05,-365.38"/>
</g>
<!-- Node17&#45;&gt;Node2 -->
<g id="edge32" class="edge">
<title>Node17&#45;&gt;Node2</title>
<path fill="none" stroke="#63b8ff" d="M435.67,-335.37C434.41,-327.16 432.47,-314.54 430.85,-304.05"/>
<polygon fill="#63b8ff" stroke="#63b8ff" points="434.31,-303.52 429.33,-294.17 427.39,-304.58 434.31,-303.52"/>
</g>
<!-- Node18&#45;&gt;Node2 -->
<g id="edge34" class="edge">
<title>Node18&#45;&gt;Node2</title>
<path fill="none" stroke="#63b8ff" d="M569.86,-335.49C541.46,-325.49 494.12,-308.8 462.01,-297.49"/>
<polygon fill="#63b8ff" stroke="#63b8ff" points="462.76,-294.04 452.17,-294.02 460.44,-300.64 462.76,-294.04"/>
</g>
<!-- Node19&#45;&gt;Node3 -->
<g id="edge36" class="edge">
<title>Node19&#45;&gt;Node3</title>
<path fill="none" stroke="#63b8ff" d="M737.57,-274.9C723.03,-252.65 680.73,-192.96 629,-165 583.64,-140.48 527.02,-129.26 480.62,-124.22"/>
<polygon fill="#63b8ff" stroke="#63b8ff" points="480.88,-120.73 470.58,-123.21 480.17,-127.7 480.88,-120.73"/>
</g>
</g>
</svg>
