<?xml version="1.0" encoding="UTF-8" standalone="no"?>
<!DOCTYPE svg PUBLIC "-//W3C//DTD SVG 1.1//EN"
 "http://www.w3.org/Graphics/SVG/1.1/DTD/svg11.dtd">
<!-- Generated by graphviz version 2.43.0 (0)
 -->
<!-- Title: src/general/types/FMC_structs.h Pages: 1 -->
<svg width="929pt" height="280pt"
 viewBox="0.00 0.00 929.01 280.00" xmlns="http://www.w3.org/2000/svg" xmlns:xlink="http://www.w3.org/1999/xlink">
<g id="graph0" class="graph" transform="scale(1 1) rotate(0) translate(4 276)">
<title>src/general/types/FMC_structs.h</title>
<!-- Node1 -->
<g id="node1" class="node">
<title>Node1</title>
<g id="a_node1"><a xlink:title=" ">
<polygon fill="#999999" stroke="#666666" points="452.01,-272 327.01,-272 327.01,-242 452.01,-242 452.01,-272"/>
<text text-anchor="start" x="335.01" y="-260" font-family="Helvetica,sans-Serif" font-size="10.00">src/general/types/FMC</text>
<text text-anchor="middle" x="389.51" y="-249" font-family="Helvetica,sans-Serif" font-size="10.00">_structs.h</text>
</a>
</g>
</g>
<!-- Node2 -->
<g id="node2" class="node">
<title>Node2</title>
<g id="a_node2"><a xlink:href="../../d9/de1/FMC__general_8h.html" target="_top" xlink:title=" ">
<polygon fill="white" stroke="#666666" points="462.51,-206 316.51,-206 316.51,-187 462.51,-187 462.51,-206"/>
<text text-anchor="middle" x="389.51" y="-194" font-family="Helvetica,sans-Serif" font-size="10.00">src/general/FMC_general.h</text>
</a>
</g>
</g>
<!-- Node1&#45;&gt;Node2 -->
<g id="edge1" class="edge">
<title>Node1&#45;&gt;Node2</title>
<path fill="none" stroke="#63b8ff" d="M389.51,-231.75C389.51,-222.72 389.51,-213.03 389.51,-206.27"/>
<polygon fill="#63b8ff" stroke="#63b8ff" points="386.01,-231.84 389.51,-241.84 393.01,-231.84 386.01,-231.84"/>
</g>
<!-- Node3 -->
<g id="node3" class="node">
<title>Node3</title>
<g id="a_node3"><a xlink:href="../../de/d47/FMC_8h.html" target="_top" xlink:title=" ">
<polygon fill="white" stroke="#666666" points="164.01,-19 99.01,-19 99.01,0 164.01,0 164.01,-19"/>
<text text-anchor="middle" x="131.51" y="-7" font-family="Helvetica,sans-Serif" font-size="10.00">src/FMC.h</text>
</a>
</g>
</g>
<!-- Node2&#45;&gt;Node3 -->
<g id="edge2" class="edge">
<title>Node2&#45;&gt;Node3</title>
<path fill="none" stroke="#63b8ff" d="M306.32,-191.53C200.45,-185.62 28.89,-172.78 9.51,-151 -0.99,-139.2 -6.01,-80.45 12.51,-55 32.37,-27.72 71,-17.15 98.86,-13.06"/>
<polygon fill="#63b8ff" stroke="#63b8ff" points="306.17,-195.03 316.35,-192.08 306.56,-188.04 306.17,-195.03"/>
</g>
<!-- Node4 -->
<g id="node4" class="node">
<title>Node4</title>
<g id="a_node4"><a xlink:href="../../db/d26/FMC__code__utils_8h.html" target="_top" xlink:title=" ">
<polygon fill="white" stroke="#666666" points="126.51,-151 18.51,-151 18.51,-121 126.51,-121 126.51,-151"/>
<text text-anchor="start" x="26.51" y="-139" font-family="Helvetica,sans-Serif" font-size="10.00">src/code_utils/FMC</text>
<text text-anchor="middle" x="72.51" y="-128" font-family="Helvetica,sans-Serif" font-size="10.00">_code_utils.h</text>
</a>
</g>
</g>
<!-- Node2&#45;&gt;Node4 -->
<g id="edge3" class="edge">
<title>Node2&#45;&gt;Node4</title>
<path fill="none" stroke="#63b8ff" d="M330.72,-185.23C280.64,-176.41 206.78,-163.22 142.51,-151 137.4,-150.03 132.08,-149 126.76,-147.96"/>
<polygon fill="#63b8ff" stroke="#63b8ff" points="330.26,-188.71 340.72,-186.99 331.48,-181.81 330.26,-188.71"/>
</g>
<!-- Node5 -->
<g id="node5" class="node">
<title>Node5</title>
<g id="a_node5"><a xlink:href="../../db/d30/FMC__encodings_8h.html" target="_top" xlink:title=" ">
<polygon fill="white" stroke="#666666" points="303.51,-151 151.51,-151 151.51,-121 303.51,-121 303.51,-151"/>
<text text-anchor="start" x="159.51" y="-139" font-family="Helvetica,sans-Serif" font-size="10.00">src/data_analyze/encodings</text>
<text text-anchor="middle" x="227.51" y="-128" font-family="Helvetica,sans-Serif" font-size="10.00">/FMC_encodings.h</text>
</a>
</g>
</g>
<!-- Node2&#45;&gt;Node5 -->
<g id="edge5" class="edge">
<title>Node2&#45;&gt;Node5</title>
<path fill="none" stroke="#63b8ff" d="M356.51,-183.58C330.43,-174.16 293.97,-161 266.46,-151.06"/>
<polygon fill="#63b8ff" stroke="#63b8ff" points="355.36,-186.89 365.95,-186.99 357.74,-180.31 355.36,-186.89"/>
</g>
<!-- Node8 -->
<g id="node8" class="node">
<title>Node8</title>
<g id="a_node8"><a xlink:href="../../d9/db5/FMC__strings_8h.html" target="_top" xlink:title=" ">
<polygon fill="white" stroke="#666666" points="457.01,-151 322.01,-151 322.01,-121 457.01,-121 457.01,-151"/>
<text text-anchor="start" x="330.01" y="-139" font-family="Helvetica,sans-Serif" font-size="10.00">src/data_analyze/strings</text>
<text text-anchor="middle" x="389.51" y="-128" font-family="Helvetica,sans-Serif" font-size="10.00">/FMC_strings.h</text>
</a>
</g>
</g>
<!-- Node2&#45;&gt;Node8 -->
<g id="edge9" class="edge">
<title>Node2&#45;&gt;Node8</title>
<path fill="none" stroke="#63b8ff" d="M389.51,-176.65C389.51,-168.36 389.51,-158.78 389.51,-151.11"/>
<polygon fill="#63b8ff" stroke="#63b8ff" points="386.01,-176.87 389.51,-186.87 393.01,-176.87 386.01,-176.87"/>
</g>
<!-- Node10 -->
<g id="node10" class="node">
<title>Node10</title>
<g id="a_node10"><a xlink:href="../../d2/deb/FMC__file__management_8h.html" target="_top" xlink:title=" ">
<polygon fill="white" stroke="#666666" points="574.01,-151 475.01,-151 475.01,-121 574.01,-121 574.01,-151"/>
<text text-anchor="start" x="483.01" y="-139" font-family="Helvetica,sans-Serif" font-size="10.00">src/files/FMC_file</text>
<text text-anchor="middle" x="524.51" y="-128" font-family="Helvetica,sans-Serif" font-size="10.00">_management.h</text>
</a>
</g>
</g>
<!-- Node2&#45;&gt;Node10 -->
<g id="edge12" class="edge">
<title>Node2&#45;&gt;Node10</title>
<path fill="none" stroke="#63b8ff" d="M418.46,-182.95C440.08,-173.59 469.63,-160.78 492.05,-151.06"/>
<polygon fill="#63b8ff" stroke="#63b8ff" points="416.92,-179.81 409.14,-186.99 419.71,-186.23 416.92,-179.81"/>
</g>
<!-- Node13 -->
<g id="node13" class="node">
<title>Node13</title>
<g id="a_node13"><a xlink:href="../../da/d45/FMC__str__view_8h.html" target="_top" xlink:title=" ">
<polygon fill="white" stroke="#666666" points="711.01,-151 592.01,-151 592.01,-121 711.01,-121 711.01,-151"/>
<text text-anchor="start" x="600.01" y="-139" font-family="Helvetica,sans-Serif" font-size="10.00">src/general/utils/FMC</text>
<text text-anchor="middle" x="651.51" y="-128" font-family="Helvetica,sans-Serif" font-size="10.00">_str_view.h</text>
</a>
</g>
</g>
<!-- Node2&#45;&gt;Node13 -->
<g id="edge16" class="edge">
<title>Node2&#45;&gt;Node13</title>
<path fill="none" stroke="#63b8ff" d="M432.65,-184.67C476.1,-174.57 543.32,-159.55 591.84,-149.07"/>
<polygon fill="#63b8ff" stroke="#63b8ff" points="431.62,-181.31 422.68,-186.99 433.21,-188.13 431.62,-181.31"/>
</g>
<!-- Node4&#45;&gt;Node3 -->
<g id="edge4" class="edge">
<title>Node4&#45;&gt;Node3</title>
<path fill="none" stroke="#63b8ff" d="M44.16,-114.23C25.58,-98 7.03,-74.93 20.51,-55 37.9,-29.29 72.83,-18.43 98.89,-13.85"/>
<polygon fill="#63b8ff" stroke="#63b8ff" points="42.1,-117.06 52.03,-120.73 46.56,-111.66 42.1,-117.06"/>
</g>
<!-- Node6 -->
<g id="node6" class="node">
<title>Node6</title>
<g id="a_node6"><a xlink:href="../../da/db0/FMC__data__analyze_8h.html" target="_top" xlink:title=" ">
<polygon fill="white" stroke="#666666" points="323.51,-85 199.51,-85 199.51,-55 323.51,-55 323.51,-85"/>
<text text-anchor="start" x="207.51" y="-73" font-family="Helvetica,sans-Serif" font-size="10.00">src/data_analyze/FMC</text>
<text text-anchor="middle" x="261.51" y="-62" font-family="Helvetica,sans-Serif" font-size="10.00">_data_analyze.h</text>
</a>
</g>
</g>
<!-- Node5&#45;&gt;Node6 -->
<g id="edge6" class="edge">
<title>Node5&#45;&gt;Node6</title>
<path fill="none" stroke="#63b8ff" d="M239.75,-111.96C244.51,-103 249.81,-93.03 253.98,-85.16"/>
<polygon fill="#63b8ff" stroke="#63b8ff" points="236.66,-110.32 235.06,-120.8 242.84,-113.61 236.66,-110.32"/>
</g>
<!-- Node7 -->
<g id="node7" class="node">
<title>Node7</title>
<g id="a_node7"><a xlink:href="../../db/dc4/FMC__encodings_8c.html" target="_top" xlink:title=" ">
<polygon fill="white" stroke="#666666" points="181.51,-85 29.51,-85 29.51,-55 181.51,-55 181.51,-85"/>
<text text-anchor="start" x="37.51" y="-73" font-family="Helvetica,sans-Serif" font-size="10.00">src/data_analyze/encodings</text>
<text text-anchor="middle" x="105.51" y="-62" font-family="Helvetica,sans-Serif" font-size="10.00">/FMC_encodings.c</text>
</a>
</g>
</g>
<!-- Node5&#45;&gt;Node7 -->
<g id="edge8" class="edge">
<title>Node5&#45;&gt;Node7</title>
<path fill="none" stroke="#63b8ff" d="M191.75,-116.24C172.71,-106.25 149.69,-94.18 132.22,-85.01"/>
<polygon fill="#63b8ff" stroke="#63b8ff" points="190.25,-119.41 200.74,-120.95 193.51,-113.21 190.25,-119.41"/>
</g>
<!-- Node6&#45;&gt;Node3 -->
<g id="edge7" class="edge">
<title>Node6&#45;&gt;Node3</title>
<path fill="none" stroke="#63b8ff" d="M221,-50.77C197.56,-40.22 169.14,-27.43 150.71,-19.14"/>
<polygon fill="#63b8ff" stroke="#63b8ff" points="219.82,-54.08 230.37,-54.99 222.69,-47.69 219.82,-54.08"/>
</g>
<!-- Node8&#45;&gt;Node6 -->
<g id="edge10" class="edge">
<title>Node8&#45;&gt;Node6</title>
<path fill="none" stroke="#63b8ff" d="M352.26,-116.38C332.24,-106.36 307.94,-94.22 289.53,-85.01"/>
<polygon fill="#63b8ff" stroke="#63b8ff" points="350.91,-119.61 361.42,-120.95 354.04,-113.35 350.91,-119.61"/>
</g>
<!-- Node9 -->
<g id="node9" class="node">
<title>Node9</title>
<g id="a_node9"><a xlink:href="../../d1/d8c/FMC__chars_8c.html" target="_top" xlink:title=" ">
<polygon fill="white" stroke="#666666" points="477.01,-85 342.01,-85 342.01,-55 477.01,-55 477.01,-85"/>
<text text-anchor="start" x="350.01" y="-73" font-family="Helvetica,sans-Serif" font-size="10.00">src/data_analyze/strings</text>
<text text-anchor="middle" x="409.51" y="-62" font-family="Helvetica,sans-Serif" font-size="10.00">/FMC_chars.c</text>
</a>
</g>
</g>
<!-- Node8&#45;&gt;Node9 -->
<g id="edge11" class="edge">
<title>Node8&#45;&gt;Node9</title>
<path fill="none" stroke="#63b8ff" d="M396.97,-111.11C399.7,-102.38 402.7,-92.78 405.08,-85.16"/>
<polygon fill="#63b8ff" stroke="#63b8ff" points="393.59,-110.21 393.95,-120.8 400.27,-112.3 393.59,-110.21"/>
</g>
<!-- Node10&#45;&gt;Node3 -->
<g id="edge13" class="edge">
<title>Node10&#45;&gt;Node3</title>
<path fill="none" stroke="#63b8ff" d="M519.36,-111.02C514.09,-92.63 503.98,-68.22 485.51,-55 434.38,-18.41 241.74,-11.87 164.17,-10.73"/>
<polygon fill="#63b8ff" stroke="#63b8ff" points="515.99,-111.96 521.87,-120.77 522.77,-110.21 515.99,-111.96"/>
</g>
<!-- Node11 -->
<g id="node11" class="node">
<title>Node11</title>
<g id="a_node11"><a xlink:href="../../d0/dc0/FMC__files_8c.html" target="_top" xlink:title=" ">
<polygon fill="white" stroke="#666666" points="647.01,-79.5 534.01,-79.5 534.01,-60.5 647.01,-60.5 647.01,-79.5"/>
<text text-anchor="middle" x="590.51" y="-67.5" font-family="Helvetica,sans-Serif" font-size="10.00">src/files/FMC_files.c</text>
</a>
</g>
</g>
<!-- Node10&#45;&gt;Node11 -->
<g id="edge14" class="edge">
<title>Node10&#45;&gt;Node11</title>
<path fill="none" stroke="#63b8ff" d="M546.57,-113.6C558.44,-102.1 572.44,-88.52 581.39,-79.84"/>
<polygon fill="#63b8ff" stroke="#63b8ff" points="543.9,-111.32 539.16,-120.8 548.77,-116.35 543.9,-111.32"/>
</g>
<!-- Node12 -->
<g id="node12" class="node">
<title>Node12</title>
<g id="a_node12"><a xlink:href="../../dc/d5e/FMC__paths_8c.html" target="_top" xlink:title=" ">
<polygon fill="white" stroke="#666666" points="784.01,-79.5 665.01,-79.5 665.01,-60.5 784.01,-60.5 784.01,-79.5"/>
<text text-anchor="middle" x="724.51" y="-67.5" font-family="Helvetica,sans-Serif" font-size="10.00">src/files/FMC_paths.c</text>
</a>
</g>
</g>
<!-- Node10&#45;&gt;Node12 -->
<g id="edge15" class="edge">
<title>Node10&#45;&gt;Node12</title>
<path fill="none" stroke="#63b8ff" d="M577.97,-117.89C616.7,-105.5 667.41,-89.27 697.89,-79.52"/>
<polygon fill="#63b8ff" stroke="#63b8ff" points="576.86,-114.57 568.4,-120.95 578.99,-121.24 576.86,-114.57"/>
</g>
<!-- Node13&#45;&gt;Node2 -->
<g id="edge17" class="edge">
<title>Node13&#45;&gt;Node2</title>
<path fill="none" stroke="#63b8ff" d="M584.42,-153.35C536.61,-164.27 473.81,-178.21 432.53,-186.99"/>
<polygon fill="#63b8ff" stroke="#63b8ff" points="585.42,-156.71 594.39,-151.06 583.86,-149.89 585.42,-156.71"/>
</g>
<!-- Node14 -->
<g id="node14" class="node">
<title>Node14</title>
<g id="a_node14"><a xlink:href="../../d2/daf/FMC__str__view_8c.html" target="_top" xlink:title=" ">
<polygon fill="white" stroke="#666666" points="921.01,-85 802.01,-85 802.01,-55 921.01,-55 921.01,-85"/>
<text text-anchor="start" x="810.01" y="-73" font-family="Helvetica,sans-Serif" font-size="10.00">src/general/utils/FMC</text>
<text text-anchor="middle" x="861.51" y="-62" font-family="Helvetica,sans-Serif" font-size="10.00">_str_view.c</text>
</a>
</g>
</g>
<!-- Node13&#45;&gt;Node14 -->
<g id="edge18" class="edge">
<title>Node13&#45;&gt;Node14</title>
<path fill="none" stroke="#63b8ff" d="M707.33,-117.99C741.12,-107.69 783.69,-94.72 815.53,-85.01"/>
<polygon fill="#63b8ff" stroke="#63b8ff" points="706.14,-114.69 697.59,-120.95 708.18,-121.39 706.14,-114.69"/>
</g>
</g>
</svg>
