<?xml version="1.0" encoding="UTF-8" standalone="no"?>
<!DOCTYPE svg PUBLIC "-//W3C//DTD SVG 1.1//EN"
 "http://www.w3.org/Graphics/SVG/1.1/DTD/svg11.dtd">
<!-- Generated by graphviz version 2.43.0 (0)
 -->
<!-- Title: FManC_Char Pages: 1 -->
<svg width="348pt" height="320pt"
 viewBox="0.00 0.00 348.00 320.00" xmlns="http://www.w3.org/2000/svg" xmlns:xlink="http://www.w3.org/1999/xlink">
<g id="graph0" class="graph" transform="scale(1 1) rotate(0) translate(4 316)">
<title>FManC_Char</title>
<!-- Node1 -->
<g id="node1" class="node">
<title>Node1</title>
<g id="a_node1"><a xlink:title=" ">
<polygon fill="#999999" stroke="#666666" points="185,-0.5 185,-57.5 263,-57.5 263,-0.5 185,-0.5"/>
<text text-anchor="middle" x="224" y="-45.5" font-family="Helvetica,sans-Serif" font-size="10.00">FManC_Char</text>
<polyline fill="none" stroke="#666666" points="185,-38.5 263,-38.5 "/>
<text text-anchor="middle" x="224" y="-26.5" font-family="Helvetica,sans-Serif" font-size="10.00"> </text>
<polyline fill="none" stroke="#666666" points="185,-19.5 263,-19.5 "/>
<text text-anchor="middle" x="224" y="-7.5" font-family="Helvetica,sans-Serif" font-size="10.00"> </text>
</a>
</g>
</g>
<!-- Node2 -->
<g id="node2" class="node">
<title>Node2</title>
<g id="a_node2"><a xlink:title=" ">
<polygon fill="white" stroke="#666666" points="0,-105.5 0,-173.5 152,-173.5 152,-105.5 0,-105.5"/>
<text text-anchor="start" x="8" y="-161.5" font-family="Helvetica,sans-Serif" font-size="10.00">typedefFMC_SHARED enum</text>
<text text-anchor="middle" x="76" y="-150.5" font-family="Helvetica,sans-Serif" font-size="10.00"> FManC_Encodings</text>
<polyline fill="none" stroke="#666666" points="0,-143.5 152,-143.5 "/>
<text text-anchor="middle" x="76" y="-131.5" font-family="Helvetica,sans-Serif" font-size="10.00"> </text>
<polyline fill="none" stroke="#666666" points="0,-124.5 152,-124.5 "/>
<text text-anchor="middle" x="76" y="-112.5" font-family="Helvetica,sans-Serif" font-size="10.00"> </text>
</a>
</g>
</g>
<!-- Node2&#45;&gt;Node1 -->
<g id="edge1" class="edge">
<title>Node2&#45;&gt;Node1</title>
<path fill="none" stroke="#404040" d="M121.21,-105.36C138.55,-92.65 158.39,-78.1 175.98,-65.2"/>
<polygon fill="none" stroke="#404040" points="176.36,-64.92 178.84,-58.15 186.04,-57.83 183.57,-64.6 176.36,-64.92"/>
<text text-anchor="middle" x="187" y="-79" font-family="Helvetica,sans-Serif" font-size="10.00"> +encoding</text>
</g>
<!-- Node3 -->
<g id="node3" class="node">
<title>Node3</title>
<g id="a_node3"><a xlink:href="../../d5/de5/FMC__structs_8h.html#dc/d1a/structFManC__CharComp" target="_top" xlink:title=" ">
<polygon fill="white" stroke="#666666" points="170.5,-111 170.5,-168 277.5,-168 277.5,-111 170.5,-111"/>
<text text-anchor="middle" x="224" y="-156" font-family="Helvetica,sans-Serif" font-size="10.00">FManC_CharComp</text>
<polyline fill="none" stroke="#666666" points="170.5,-149 277.5,-149 "/>
<text text-anchor="middle" x="224" y="-137" font-family="Helvetica,sans-Serif" font-size="10.00"> </text>
<polyline fill="none" stroke="#666666" points="170.5,-130 277.5,-130 "/>
<text text-anchor="middle" x="224" y="-118" font-family="Helvetica,sans-Serif" font-size="10.00"> </text>
</a>
</g>
</g>
<!-- Node3&#45;&gt;Node1 -->
<g id="edge2" class="edge">
<title>Node3&#45;&gt;Node1</title>
<path fill="none" stroke="#404040" d="M224,-110.84C224,-98.34 224,-83.34 224,-69.68"/>
<polygon fill="none" stroke="#404040" points="224,-69.61 220,-63.61 224,-57.61 228,-63.61 224,-69.61"/>
<text text-anchor="middle" x="243.5" y="-79" font-family="Helvetica,sans-Serif" font-size="10.00"> +comp</text>
</g>
<!-- Node4 -->
<g id="node4" class="node">
<title>Node4</title>
<g id="a_node4"><a xlink:title=" ">
<polygon fill="white" stroke="#666666" points="185.5,-254.5 185.5,-311.5 262.5,-311.5 262.5,-254.5 185.5,-254.5"/>
<text text-anchor="middle" x="224" y="-299.5" font-family="Helvetica,sans-Serif" font-size="10.00">unsigned int</text>
<polyline fill="none" stroke="#666666" points="185.5,-292.5 262.5,-292.5 "/>
<text text-anchor="middle" x="224" y="-280.5" font-family="Helvetica,sans-Serif" font-size="10.00"> </text>
<polyline fill="none" stroke="#666666" points="185.5,-273.5 262.5,-273.5 "/>
<text text-anchor="middle" x="224" y="-261.5" font-family="Helvetica,sans-Serif" font-size="10.00"> </text>
</a>
</g>
</g>
<!-- Node4&#45;&gt;Node3 -->
<g id="edge3" class="edge">
<title>Node4&#45;&gt;Node3</title>
<path fill="none" stroke="#404040" d="M224,-254.38C224,-233.25 224,-203.81 224,-180.16"/>
<polygon fill="none" stroke="#404040" points="224,-180.05 220,-174.05 224,-168.05 228,-174.05 224,-180.05"/>
<text text-anchor="middle" x="258" y="-228" font-family="Helvetica,sans-Serif" font-size="10.00"> +middleLeft</text>
<text text-anchor="middle" x="258" y="-217" font-family="Helvetica,sans-Serif" font-size="10.00">+middleRight</text>
<text text-anchor="middle" x="258" y="-206" font-family="Helvetica,sans-Serif" font-size="10.00">+mostLeft</text>
<text text-anchor="middle" x="258" y="-195" font-family="Helvetica,sans-Serif" font-size="10.00">+mostRight</text>
</g>
<!-- Node5 -->
<g id="node5" class="node">
<title>Node5</title>
<g id="a_node5"><a xlink:title=" ">
<polygon fill="white" stroke="#666666" points="296,-111 296,-168 340,-168 340,-111 296,-111"/>
<text text-anchor="middle" x="318" y="-156" font-family="Helvetica,sans-Serif" font-size="10.00">_Bool</text>
<polyline fill="none" stroke="#666666" points="296,-149 340,-149 "/>
<text text-anchor="middle" x="318" y="-137" font-family="Helvetica,sans-Serif" font-size="10.00"> </text>
<polyline fill="none" stroke="#666666" points="296,-130 340,-130 "/>
<text text-anchor="middle" x="318" y="-118" font-family="Helvetica,sans-Serif" font-size="10.00"> </text>
</a>
</g>
</g>
<!-- Node5&#45;&gt;Node1 -->
<g id="edge4" class="edge">
<title>Node5&#45;&gt;Node1</title>
<path fill="none" stroke="#404040" d="M296.05,-110.79C287.19,-99.82 276.77,-87.18 267,-76 264.41,-73.04 261.7,-70 258.95,-66.96"/>
<polygon fill="none" stroke="#404040" points="258.79,-66.79 251.79,-65.07 250.68,-57.94 257.69,-59.66 258.79,-66.79"/>
<text text-anchor="middle" x="295" y="-79" font-family="Helvetica,sans-Serif" font-size="10.00"> +isNull</text>
</g>
</g>
</svg>
