<?xml version="1.0" encoding="UTF-8" standalone="no"?>
<!DOCTYPE svg PUBLIC "-//W3C//DTD SVG 1.1//EN"
 "http://www.w3.org/Graphics/SVG/1.1/DTD/svg11.dtd">
<!-- Generated by graphviz version 2.43.0 (0)
 -->
<!-- Title: FManC_Char Pages: 1 -->
<svg width="332pt" height="309pt"
 viewBox="0.00 0.00 332.00 309.00" xmlns="http://www.w3.org/2000/svg" xmlns:xlink="http://www.w3.org/1999/xlink">
<g id="graph0" class="graph" transform="scale(1 1) rotate(0) translate(4 305)">
<title>FManC_Char</title>
<!-- Node1 -->
<g id="node1" class="node">
<title>Node1</title>
<g id="a_node1"><a xlink:title=" ">
<polygon fill="#999999" stroke="#666666" points="169,-0.5 169,-57.5 247,-57.5 247,-0.5 169,-0.5"/>
<text text-anchor="middle" x="208" y="-45.5" font-family="Helvetica,sans-Serif" font-size="10.00">FManC_Char</text>
<polyline fill="none" stroke="#666666" points="169,-38.5 247,-38.5 "/>
<text text-anchor="middle" x="208" y="-26.5" font-family="Helvetica,sans-Serif" font-size="10.00"> </text>
<polyline fill="none" stroke="#666666" points="169,-19.5 247,-19.5 "/>
<text text-anchor="middle" x="208" y="-7.5" font-family="Helvetica,sans-Serif" font-size="10.00"> </text>
</a>
</g>
</g>
<!-- Node2 -->
<g id="node2" class="node">
<title>Node2</title>
<g id="a_node2"><a xlink:title=" ">
<polygon fill="white" stroke="#666666" points="0,-105.5 0,-162.5 136,-162.5 136,-105.5 0,-105.5"/>
<text text-anchor="middle" x="68" y="-150.5" font-family="Helvetica,sans-Serif" font-size="10.00">enum FManC_Encodings</text>
<polyline fill="none" stroke="#666666" points="0,-143.5 136,-143.5 "/>
<text text-anchor="middle" x="68" y="-131.5" font-family="Helvetica,sans-Serif" font-size="10.00"> </text>
<polyline fill="none" stroke="#666666" points="0,-124.5 136,-124.5 "/>
<text text-anchor="middle" x="68" y="-112.5" font-family="Helvetica,sans-Serif" font-size="10.00"> </text>
</a>
</g>
</g>
<!-- Node2&#45;&gt;Node1 -->
<g id="edge1" class="edge">
<title>Node2&#45;&gt;Node1</title>
<path fill="none" stroke="#404040" d="M105.52,-105.4C122.47,-92.93 142.68,-78.06 160.66,-64.83"/>
<polygon fill="none" stroke="#404040" points="160.71,-64.79 163.18,-58.01 170.38,-57.68 167.92,-64.46 160.71,-64.79"/>
<text text-anchor="middle" x="171" y="-79" font-family="Helvetica,sans-Serif" font-size="10.00"> +encoding</text>
</g>
<!-- Node3 -->
<g id="node3" class="node">
<title>Node3</title>
<g id="a_node3"><a xlink:href="../../d5/de5/FMC__structs_8h.html#dc/d1a/structFManC__CharComp" target="_top" xlink:title=" ">
<polygon fill="white" stroke="#666666" points="154.5,-105.5 154.5,-162.5 261.5,-162.5 261.5,-105.5 154.5,-105.5"/>
<text text-anchor="middle" x="208" y="-150.5" font-family="Helvetica,sans-Serif" font-size="10.00">FManC_CharComp</text>
<polyline fill="none" stroke="#666666" points="154.5,-143.5 261.5,-143.5 "/>
<text text-anchor="middle" x="208" y="-131.5" font-family="Helvetica,sans-Serif" font-size="10.00"> </text>
<polyline fill="none" stroke="#666666" points="154.5,-124.5 261.5,-124.5 "/>
<text text-anchor="middle" x="208" y="-112.5" font-family="Helvetica,sans-Serif" font-size="10.00"> </text>
</a>
</g>
</g>
<!-- Node3&#45;&gt;Node1 -->
<g id="edge2" class="edge">
<title>Node3&#45;&gt;Node1</title>
<path fill="none" stroke="#404040" d="M208,-105.4C208,-94.55 208,-81.87 208,-70.05"/>
<polygon fill="none" stroke="#404040" points="208,-69.68 204,-63.68 208,-57.68 212,-63.68 208,-69.68"/>
<text text-anchor="middle" x="227.5" y="-79" font-family="Helvetica,sans-Serif" font-size="10.00"> +comp</text>
</g>
<!-- Node4 -->
<g id="node4" class="node">
<title>Node4</title>
<g id="a_node4"><a xlink:title=" ">
<polygon fill="white" stroke="#666666" points="169.5,-243.5 169.5,-300.5 246.5,-300.5 246.5,-243.5 169.5,-243.5"/>
<text text-anchor="middle" x="208" y="-288.5" font-family="Helvetica,sans-Serif" font-size="10.00">unsigned int</text>
<polyline fill="none" stroke="#666666" points="169.5,-281.5 246.5,-281.5 "/>
<text text-anchor="middle" x="208" y="-269.5" font-family="Helvetica,sans-Serif" font-size="10.00"> </text>
<polyline fill="none" stroke="#666666" points="169.5,-262.5 246.5,-262.5 "/>
<text text-anchor="middle" x="208" y="-250.5" font-family="Helvetica,sans-Serif" font-size="10.00"> </text>
</a>
</g>
</g>
<!-- Node4&#45;&gt;Node3 -->
<g id="edge3" class="edge">
<title>Node4&#45;&gt;Node3</title>
<path fill="none" stroke="#404040" d="M208,-243.48C208,-223.79 208,-196.99 208,-174.95"/>
<polygon fill="none" stroke="#404040" points="208,-174.95 204,-168.95 208,-162.95 212,-168.95 208,-174.95"/>
<text text-anchor="middle" x="242" y="-217" font-family="Helvetica,sans-Serif" font-size="10.00"> +middleLeft</text>
<text text-anchor="middle" x="242" y="-206" font-family="Helvetica,sans-Serif" font-size="10.00">+middleRight</text>
<text text-anchor="middle" x="242" y="-195" font-family="Helvetica,sans-Serif" font-size="10.00">+mostLeft</text>
<text text-anchor="middle" x="242" y="-184" font-family="Helvetica,sans-Serif" font-size="10.00">+mostRight</text>
</g>
<!-- Node5 -->
<g id="node5" class="node">
<title>Node5</title>
<g id="a_node5"><a xlink:title=" ">
<polygon fill="white" stroke="#666666" points="280,-105.5 280,-162.5 324,-162.5 324,-105.5 280,-105.5"/>
<text text-anchor="middle" x="302" y="-150.5" font-family="Helvetica,sans-Serif" font-size="10.00">_Bool</text>
<polyline fill="none" stroke="#666666" points="280,-143.5 324,-143.5 "/>
<text text-anchor="middle" x="302" y="-131.5" font-family="Helvetica,sans-Serif" font-size="10.00"> </text>
<polyline fill="none" stroke="#666666" points="280,-124.5 324,-124.5 "/>
<text text-anchor="middle" x="302" y="-112.5" font-family="Helvetica,sans-Serif" font-size="10.00"> </text>
</a>
</g>
</g>
<!-- Node5&#45;&gt;Node1 -->
<g id="edge4" class="edge">
<title>Node5&#45;&gt;Node1</title>
<path fill="none" stroke="#404040" d="M279.77,-107.92C270.88,-97.94 260.5,-86.39 251,-76 248.18,-72.92 245.25,-69.74 242.3,-66.55"/>
<polygon fill="none" stroke="#404040" points="242.19,-66.43 235.17,-64.76 234.02,-57.64 241.03,-59.31 242.19,-66.43"/>
<text text-anchor="middle" x="280" y="-79" font-family="Helvetica,sans-Serif" font-size="10.00"> +isNull</text>
</g>
</g>
</svg>
