<?xml version="1.0" encoding="UTF-8" standalone="no"?>
<!DOCTYPE svg PUBLIC "-//W3C//DTD SVG 1.1//EN"
 "http://www.w3.org/Graphics/SVG/1.1/DTD/svg11.dtd">
<!-- Generated by graphviz version 2.43.0 (0)
 -->
<!-- Title: FMC_FUNC_WARN_UNUSED_RESULT Pages: 1 -->
<svg width="544pt" height="161pt"
 viewBox="0.00 0.00 544.00 161.00" xmlns="http://www.w3.org/2000/svg" xmlns:xlink="http://www.w3.org/1999/xlink">
<g id="graph0" class="graph" transform="scale(1 1) rotate(0) translate(4 157)">
<title>FMC_FUNC_WARN_UNUSED_RESULT</title>
<!-- Node1 -->
<g id="node1" class="node">
<title>Node1</title>
<g id="a_node1"><a xlink:title=" ">
<polygon fill="#999999" stroke="#666666" points="154,-91 0,-91 0,-61 154,-61 154,-91"/>
<text text-anchor="start" x="8" y="-79" font-family="Helvetica,sans-Serif" font-size="10.00">FMC_FUNC_WARN_UNUSED</text>
<text text-anchor="middle" x="77" y="-68" font-family="Helvetica,sans-Serif" font-size="10.00">_RESULT</text>
</a>
</g>
</g>
<!-- Node2 -->
<g id="node2" class="node">
<title>Node2</title>
<g id="a_node2"><a xlink:href="../../dd/ddf/FMC__errors_8h.html#a6f3db48b5173e8c1c93b0080aa95fa61" target="_top" xlink:title=" ">
<polygon fill="white" stroke="#666666" points="333,-104.5 196,-104.5 196,-85.5 333,-85.5 333,-104.5"/>
<text text-anchor="middle" x="264.5" y="-92.5" font-family="Helvetica,sans-Serif" font-size="10.00">FMC_printBrightRedError</text>
</a>
</g>
</g>
<!-- Node1&#45;&gt;Node2 -->
<g id="edge1" class="edge">
<title>Node1&#45;&gt;Node2</title>
<path fill="none" stroke="#63b8ff" d="M154.25,-83.81C164.6,-84.87 175.22,-85.96 185.59,-87.02"/>
<polygon fill="#63b8ff" stroke="#63b8ff" points="185.55,-90.53 195.86,-88.07 186.27,-83.57 185.55,-90.53"/>
</g>
<!-- Node6 -->
<g id="node6" class="node">
<title>Node6</title>
<g id="a_node6"><a xlink:href="../../dd/ddf/FMC__errors_8h.html#a2cca9e193cad8105bb9196ffdbcb45a7" target="_top" xlink:title=" ">
<polygon fill="white" stroke="#666666" points="339,-67.5 190,-67.5 190,-48.5 339,-48.5 339,-67.5"/>
<text text-anchor="middle" x="264.5" y="-55.5" font-family="Helvetica,sans-Serif" font-size="10.00">FMC_printBrightYellowError</text>
</a>
</g>
</g>
<!-- Node1&#45;&gt;Node6 -->
<g id="edge5" class="edge">
<title>Node1&#45;&gt;Node6</title>
<path fill="none" stroke="#63b8ff" d="M154.25,-68.6C162.73,-67.78 171.39,-66.94 179.95,-66.11"/>
<polygon fill="#63b8ff" stroke="#63b8ff" points="180.32,-69.59 189.93,-65.14 179.64,-62.62 180.32,-69.59"/>
</g>
<!-- Node3 -->
<g id="node3" class="node">
<title>Node3</title>
<g id="a_node3"><a xlink:href="../../dd/ddf/FMC__errors_8h.html#ac23433edede3d30268228d5718862b2f" target="_top" xlink:title=" ">
<polygon fill="white" stroke="#666666" points="535.5,-153 375.5,-153 375.5,-123 535.5,-123 535.5,-153"/>
<text text-anchor="start" x="383.5" y="-141" font-family="Helvetica,sans-Serif" font-size="10.00">FMC_changeStreamTextColor</text>
<text text-anchor="middle" x="455.5" y="-130" font-family="Helvetica,sans-Serif" font-size="10.00">ToBrightRed</text>
</a>
</g>
</g>
<!-- Node2&#45;&gt;Node3 -->
<g id="edge2" class="edge">
<title>Node2&#45;&gt;Node3</title>
<path fill="none" stroke="#63b8ff" d="M307.45,-104.54C328.38,-109.31 354.35,-115.22 378.63,-120.74"/>
<polygon fill="#63b8ff" stroke="#63b8ff" points="378.01,-124.19 388.54,-122.99 379.57,-117.36 378.01,-124.19"/>
</g>
<!-- Node4 -->
<g id="node4" class="node">
<title>Node4</title>
<g id="a_node4"><a xlink:href="../../dd/ddf/FMC__errors_8h.html#af11b1f617ef7bc80184285957c3aeee0" target="_top" xlink:title=" ">
<polygon fill="white" stroke="#666666" points="536,-104.5 375,-104.5 375,-85.5 536,-85.5 536,-104.5"/>
<text text-anchor="middle" x="455.5" y="-92.5" font-family="Helvetica,sans-Serif" font-size="10.00">FMC_resetStreamOutputStyle</text>
</a>
</g>
</g>
<!-- Node2&#45;&gt;Node4 -->
<g id="edge3" class="edge">
<title>Node2&#45;&gt;Node4</title>
<path fill="none" stroke="#63b8ff" d="M333.2,-95C343.39,-95 354.04,-95 364.61,-95"/>
<polygon fill="#63b8ff" stroke="#63b8ff" points="364.71,-98.5 374.71,-95 364.71,-91.5 364.71,-98.5"/>
</g>
<!-- Node5 -->
<g id="node5" class="node">
<title>Node5</title>
<g id="a_node5"><a xlink:href="../../dd/ddf/FMC__errors_8h.html#a33a1a2c6f6a143bc6a836ef37778a07f" target="_top" xlink:title=" ">
<polygon fill="white" stroke="#666666" points="523.5,-67.5 387.5,-67.5 387.5,-48.5 523.5,-48.5 523.5,-67.5"/>
<text text-anchor="middle" x="455.5" y="-55.5" font-family="Helvetica,sans-Serif" font-size="10.00">FMC_setTextStyleToBold</text>
</a>
</g>
</g>
<!-- Node2&#45;&gt;Node5 -->
<g id="edge4" class="edge">
<title>Node2&#45;&gt;Node5</title>
<path fill="none" stroke="#63b8ff" d="M314.17,-85.47C339.1,-80.59 369.63,-74.61 395.85,-69.48"/>
<polygon fill="#63b8ff" stroke="#63b8ff" points="396.52,-72.92 405.66,-67.56 395.18,-66.05 396.52,-72.92"/>
</g>
<!-- Node6&#45;&gt;Node4 -->
<g id="edge7" class="edge">
<title>Node6&#45;&gt;Node4</title>
<path fill="none" stroke="#63b8ff" d="M314.17,-67.53C339.1,-72.41 369.63,-78.39 395.85,-83.52"/>
<polygon fill="#63b8ff" stroke="#63b8ff" points="395.18,-86.95 405.66,-85.44 396.52,-80.08 395.18,-86.95"/>
</g>
<!-- Node6&#45;&gt;Node5 -->
<g id="edge8" class="edge">
<title>Node6&#45;&gt;Node5</title>
<path fill="none" stroke="#63b8ff" d="M339.11,-58C351.5,-58 364.4,-58 376.88,-58"/>
<polygon fill="#63b8ff" stroke="#63b8ff" points="377.26,-61.5 387.26,-58 377.26,-54.5 377.26,-61.5"/>
</g>
<!-- Node7 -->
<g id="node7" class="node">
<title>Node7</title>
<g id="a_node7"><a xlink:href="../../dd/ddf/FMC__errors_8h.html#ab3c0b7aa180c19747600cb8854bfa503" target="_top" xlink:title=" ">
<polygon fill="white" stroke="#666666" points="535.5,-30 375.5,-30 375.5,0 535.5,0 535.5,-30"/>
<text text-anchor="start" x="383.5" y="-18" font-family="Helvetica,sans-Serif" font-size="10.00">FMC_changeStreamTextColor</text>
<text text-anchor="middle" x="455.5" y="-7" font-family="Helvetica,sans-Serif" font-size="10.00">ToBrightYellow</text>
</a>
</g>
</g>
<!-- Node6&#45;&gt;Node7 -->
<g id="edge6" class="edge">
<title>Node6&#45;&gt;Node7</title>
<path fill="none" stroke="#63b8ff" d="M307.45,-48.46C328.38,-43.69 354.35,-37.78 378.63,-32.26"/>
<polygon fill="#63b8ff" stroke="#63b8ff" points="379.57,-35.64 388.54,-30.01 378.01,-28.81 379.57,-35.64"/>
</g>
</g>
</svg>
