<?xml version="1.0" encoding="UTF-8" standalone="no"?>
<!DOCTYPE svg PUBLIC "-//W3C//DTD SVG 1.1//EN"
 "http://www.w3.org/Graphics/SVG/1.1/DTD/svg11.dtd">
<!-- Generated by graphviz version 7.1.0 (20230121.1956)
 -->
<!-- Title: src/data_analyze/strings/FMC_strings.h Pages: 1 -->
<svg width="264pt" height="159pt"
 viewBox="0.00 0.00 264.00 159.00" xmlns="http://www.w3.org/2000/svg" xmlns:xlink="http://www.w3.org/1999/xlink">
<g id="graph0" class="graph" transform="scale(1 1) rotate(0) translate(4 155)">
<title>src/data_analyze/strings/FMC_strings.h</title>
<!-- Node1 -->
<g id="node1" class="node">
<title>Node1</title>
<g id="a_node1"><a xlink:title=" ">
<polygon fill="#999999" stroke="#666666" points="187,-151 64,-151 64,-121 187,-121 187,-151"/>
<text text-anchor="start" x="72" y="-139" font-family="Helvetica,sans-Serif" font-size="10.00">src/data_analyze/strings</text>
<text text-anchor="middle" x="125.5" y="-128" font-family="Helvetica,sans-Serif" font-size="10.00">/FMC_strings.h</text>
</a>
</g>
</g>
<!-- Node2 -->
<g id="node2" class="node">
<title>Node2</title>
<g id="a_node2"><a xlink:href="../../d7/d3a/_f_m_c__data__analyze_8h.html" target="_top" xlink:title=" ">
<polygon fill="white" stroke="#666666" points="115,-85 0,-85 0,-55 115,-55 115,-85"/>
<text text-anchor="start" x="8" y="-73" font-family="Helvetica,sans-Serif" font-size="10.00">src/data_analyze/FMC</text>
<text text-anchor="middle" x="57.5" y="-62" font-family="Helvetica,sans-Serif" font-size="10.00">_data_analyze.h</text>
</a>
</g>
</g>
<!-- Node1&#45;&gt;Node2 -->
<g id="edge1" class="edge">
<title>Node1&#45;&gt;Node2</title>
<path fill="none" stroke="#63b8ff" d="M102.22,-113.09C92.4,-103.85 81.26,-93.36 72.55,-85.16"/>
<polygon fill="#63b8ff" stroke="#63b8ff" points="99.63,-115.45 109.31,-119.76 104.42,-110.36 99.63,-115.45"/>
</g>
<!-- Node4 -->
<g id="node4" class="node">
<title>Node4</title>
<g id="a_node4"><a xlink:href="../../d5/dd0/_f_m_c__chars_8c.html" target="_top" xlink:title=" ">
<polygon fill="white" stroke="#666666" points="256,-85 133,-85 133,-55 256,-55 256,-85"/>
<text text-anchor="start" x="141" y="-73" font-family="Helvetica,sans-Serif" font-size="10.00">src/data_analyze/strings</text>
<text text-anchor="middle" x="194.5" y="-62" font-family="Helvetica,sans-Serif" font-size="10.00">/FMC_chars.c</text>
</a>
</g>
</g>
<!-- Node1&#45;&gt;Node4 -->
<g id="edge3" class="edge">
<title>Node1&#45;&gt;Node4</title>
<path fill="none" stroke="#63b8ff" d="M149.12,-113.09C159.09,-103.85 170.39,-93.36 179.23,-85.16"/>
<polygon fill="#63b8ff" stroke="#63b8ff" points="146.87,-110.4 141.92,-119.77 151.63,-115.53 146.87,-110.4"/>
</g>
<!-- Node3 -->
<g id="node3" class="node">
<title>Node3</title>
<g id="a_node3"><a xlink:href="../../d9/d0f/_f_m_c_8h.html" target="_top" xlink:title=" ">
<polygon fill="white" stroke="#666666" points="88.5,-19 26.5,-19 26.5,0 88.5,0 88.5,-19"/>
<text text-anchor="middle" x="57.5" y="-7" font-family="Helvetica,sans-Serif" font-size="10.00">src/FMC.h</text>
</a>
</g>
</g>
<!-- Node2&#45;&gt;Node3 -->
<g id="edge2" class="edge">
<title>Node2&#45;&gt;Node3</title>
<path fill="none" stroke="#63b8ff" d="M57.5,-43.3C57.5,-34.65 57.5,-25.58 57.5,-19.18"/>
<polygon fill="#63b8ff" stroke="#63b8ff" points="54,-43.03 57.5,-53.03 61,-43.03 54,-43.03"/>
</g>
</g>
</svg>
