<?xml version="1.0" encoding="UTF-8" standalone="no"?>
<!DOCTYPE svg PUBLIC "-//W3C//DTD SVG 1.1//EN"
 "http://www.w3.org/Graphics/SVG/1.1/DTD/svg11.dtd">
<!-- Generated by graphviz version 2.43.0 (0)
 -->
<!-- Title: FManC_CStrView Pages: 1 -->
<svg width="118pt" height="171pt"
 viewBox="0.00 0.00 117.50 171.00" xmlns="http://www.w3.org/2000/svg" xmlns:xlink="http://www.w3.org/1999/xlink">
<g id="graph0" class="graph" transform="scale(1 1) rotate(0) translate(4 167)">
<title>FManC_CStrView</title>
<!-- Node1 -->
<g id="node1" class="node">
<title>Node1</title>
<g id="a_node1"><a xlink:title=" ">
<polygon fill="#999999" stroke="#666666" points="4.5,-0.5 4.5,-57.5 104.5,-57.5 104.5,-0.5 4.5,-0.5"/>
<text text-anchor="middle" x="54.5" y="-45.5" font-family="Helvetica,sans-Serif" font-size="10.00">FManC_CStrView</text>
<polyline fill="none" stroke="#666666" points="4.5,-38.5 104.5,-38.5 "/>
<text text-anchor="middle" x="54.5" y="-26.5" font-family="Helvetica,sans-Serif" font-size="10.00"> </text>
<polyline fill="none" stroke="#666666" points="4.5,-19.5 104.5,-19.5 "/>
<text text-anchor="middle" x="54.5" y="-7.5" font-family="Helvetica,sans-Serif" font-size="10.00"> </text>
</a>
</g>
</g>
<!-- Node2 -->
<g id="node2" class="node">
<title>Node2</title>
<g id="a_node2"><a xlink:title=" ">
<polygon fill="white" stroke="#666666" points="0,-105.5 0,-162.5 45,-162.5 45,-105.5 0,-105.5"/>
<text text-anchor="middle" x="22.5" y="-150.5" font-family="Helvetica,sans-Serif" font-size="10.00">size_t</text>
<polyline fill="none" stroke="#666666" points="0,-143.5 45,-143.5 "/>
<text text-anchor="middle" x="22.5" y="-131.5" font-family="Helvetica,sans-Serif" font-size="10.00"> </text>
<polyline fill="none" stroke="#666666" points="0,-124.5 45,-124.5 "/>
<text text-anchor="middle" x="22.5" y="-112.5" font-family="Helvetica,sans-Serif" font-size="10.00"> </text>
</a>
</g>
</g>
<!-- Node2&#45;&gt;Node1 -->
<g id="edge1" class="edge">
<title>Node2&#45;&gt;Node1</title>
<path fill="none" stroke="#404040" d="M26.46,-105.41C28.18,-95.97 30.49,-85.41 33.5,-76 34.22,-73.74 35.03,-71.45 35.88,-69.15"/>
<polygon fill="none" stroke="#404040" points="35.99,-68.91 34.56,-61.84 40.53,-57.8 41.96,-64.87 35.99,-68.91"/>
<text text-anchor="middle" x="49" y="-79" font-family="Helvetica,sans-Serif" font-size="10.00"> +size</text>
</g>
<!-- Node3 -->
<g id="node3" class="node">
<title>Node3</title>
<g id="a_node3"><a xlink:title=" ">
<polygon fill="white" stroke="#666666" points="63.5,-105.5 63.5,-162.5 109.5,-162.5 109.5,-105.5 63.5,-105.5"/>
<text text-anchor="middle" x="86.5" y="-150.5" font-family="Helvetica,sans-Serif" font-size="10.00">char *</text>
<polyline fill="none" stroke="#666666" points="63.5,-143.5 109.5,-143.5 "/>
<text text-anchor="middle" x="86.5" y="-131.5" font-family="Helvetica,sans-Serif" font-size="10.00"> </text>
<polyline fill="none" stroke="#666666" points="63.5,-124.5 109.5,-124.5 "/>
<text text-anchor="middle" x="86.5" y="-112.5" font-family="Helvetica,sans-Serif" font-size="10.00"> </text>
</a>
</g>
</g>
<!-- Node3&#45;&gt;Node1 -->
<g id="edge2" class="edge">
<title>Node3&#45;&gt;Node1</title>
<path fill="none" stroke="#404040" d="M77.92,-105.4C74.48,-94.31 70.45,-81.33 66.71,-69.3"/>
<polygon fill="none" stroke="#404040" points="66.66,-69.14 61.06,-64.59 63.1,-57.68 68.7,-62.22 66.66,-69.14"/>
<text text-anchor="middle" x="83" y="-79" font-family="Helvetica,sans-Serif" font-size="10.00"> +str</text>
</g>
</g>
</svg>
