<?xml version="1.0" encoding="UTF-8" standalone="no"?>
<!DOCTYPE svg PUBLIC "-//W3C//DTD SVG 1.1//EN"
 "http://www.w3.org/Graphics/SVG/1.1/DTD/svg11.dtd">
<!-- Generated by graphviz version 2.43.0 (0)
 -->
<!-- Title: src/general/utils/FMC_globals.h Pages: 1 -->
<svg width="408pt" height="225pt"
 viewBox="0.00 0.00 408.00 225.00" xmlns="http://www.w3.org/2000/svg" xmlns:xlink="http://www.w3.org/1999/xlink">
<g id="graph0" class="graph" transform="scale(1 1) rotate(0) translate(4 221)">
<title>src/general/utils/FMC_globals.h</title>
<!-- Node1 -->
<g id="node1" class="node">
<title>Node1</title>
<g id="a_node1"><a xlink:title=" ">
<polygon fill="#999999" stroke="#666666" points="318,-217 199,-217 199,-187 318,-187 318,-217"/>
<text text-anchor="start" x="207" y="-205" font-family="Helvetica,sans-Serif" font-size="10.00">src/general/utils/FMC</text>
<text text-anchor="middle" x="258.5" y="-194" font-family="Helvetica,sans-Serif" font-size="10.00">_globals.h</text>
</a>
</g>
</g>
<!-- Node2 -->
<g id="node2" class="node">
<title>Node2</title>
<g id="a_node2"><a xlink:href="../../df/df8/FMC__typedefs_8h.html" target="_top" xlink:title=" ">
<polygon fill="white" stroke="#666666" points="230.5,-145.5 96.5,-145.5 96.5,-126.5 230.5,-126.5 230.5,-145.5"/>
<text text-anchor="middle" x="163.5" y="-133.5" font-family="Helvetica,sans-Serif" font-size="10.00">../types/FMC_typedefs.h</text>
</a>
</g>
</g>
<!-- Node1&#45;&gt;Node2 -->
<g id="edge1" class="edge">
<title>Node1&#45;&gt;Node2</title>
<path fill="none" stroke="#63b8ff" d="M237.42,-186.8C221.79,-176.27 200.57,-161.97 184.87,-151.4"/>
<polygon fill="#63b8ff" stroke="#63b8ff" points="186.6,-148.34 176.35,-145.66 182.69,-154.15 186.6,-148.34"/>
</g>
<!-- Node3 -->
<g id="node3" class="node">
<title>Node3</title>
<g id="a_node3"><a xlink:href="../../d0/d28/FMC__macros_8h.html" target="_top" xlink:title=" ">
<polygon fill="white" stroke="#666666" points="267,-85 154,-85 154,-55 267,-55 267,-85"/>
<text text-anchor="start" x="162" y="-73" font-family="Helvetica,sans-Serif" font-size="10.00">../preprocessor/FMC</text>
<text text-anchor="middle" x="210.5" y="-62" font-family="Helvetica,sans-Serif" font-size="10.00">_macros.h</text>
</a>
</g>
</g>
<!-- Node1&#45;&gt;Node3 -->
<g id="edge7" class="edge">
<title>Node1&#45;&gt;Node3</title>
<path fill="none" stroke="#63b8ff" d="M256.41,-186.75C253.72,-170.44 248.33,-143.14 239.5,-121 235.83,-111.79 230.67,-102.24 225.72,-93.99"/>
<polygon fill="#63b8ff" stroke="#63b8ff" points="228.57,-91.94 220.31,-85.3 222.63,-95.64 228.57,-91.94"/>
</g>
<!-- Node7 -->
<g id="node7" class="node">
<title>Node7</title>
<g id="a_node7"><a xlink:href="../../da/dd3/FMC__consts_8h.html" target="_top" xlink:title=" ">
<polygon fill="white" stroke="#666666" points="400,-151 287,-151 287,-121 400,-121 400,-151"/>
<text text-anchor="start" x="295" y="-139" font-family="Helvetica,sans-Serif" font-size="10.00">../preprocessor/FMC</text>
<text text-anchor="middle" x="343.5" y="-128" font-family="Helvetica,sans-Serif" font-size="10.00">_consts.h</text>
</a>
</g>
</g>
<!-- Node1&#45;&gt;Node7 -->
<g id="edge8" class="edge">
<title>Node1&#45;&gt;Node7</title>
<path fill="none" stroke="#63b8ff" d="M277.36,-186.8C288.92,-178.1 303.89,-166.82 316.67,-157.2"/>
<polygon fill="#63b8ff" stroke="#63b8ff" points="318.81,-159.98 324.69,-151.16 314.59,-154.38 318.81,-159.98"/>
</g>
<!-- Node2&#45;&gt;Node3 -->
<g id="edge2" class="edge">
<title>Node2&#45;&gt;Node3</title>
<path fill="none" stroke="#63b8ff" d="M169.84,-126.37C175.99,-117.99 185.59,-104.93 193.91,-93.59"/>
<polygon fill="#63b8ff" stroke="#63b8ff" points="196.86,-95.49 199.95,-85.36 191.21,-91.35 196.86,-95.49"/>
</g>
<!-- Node4 -->
<g id="node4" class="node">
<title>Node4</title>
<g id="a_node4"><a xlink:href="../../d7/dff/FMC__platform_8h.html" target="_top" xlink:title=" ">
<polygon fill="white" stroke="#666666" points="95,-19 0,-19 0,0 95,0 95,-19"/>
<text text-anchor="middle" x="47.5" y="-7" font-family="Helvetica,sans-Serif" font-size="10.00">FMC_platform.h</text>
</a>
</g>
</g>
<!-- Node3&#45;&gt;Node4 -->
<g id="edge3" class="edge">
<title>Node3&#45;&gt;Node4</title>
<path fill="none" stroke="#63b8ff" d="M171.46,-54.99C143.9,-45.1 107.35,-31.98 81.09,-22.56"/>
<polygon fill="#63b8ff" stroke="#63b8ff" points="82.17,-19.22 71.57,-19.14 79.8,-25.81 82.17,-19.22"/>
</g>
<!-- Node5 -->
<g id="node5" class="node">
<title>Node5</title>
<g id="a_node5"><a xlink:title=" ">
<polygon fill="#e0e0e0" stroke="#999999" points="197.5,-19 113.5,-19 113.5,0 197.5,0 197.5,-19"/>
<text text-anchor="middle" x="155.5" y="-7" font-family="Helvetica,sans-Serif" font-size="10.00">metalang99.h</text>
</a>
</g>
</g>
<!-- Node3&#45;&gt;Node5 -->
<g id="edge4" class="edge">
<title>Node3&#45;&gt;Node5</title>
<path fill="none" stroke="#63b8ff" d="M197.19,-54.84C189.2,-46.35 179.02,-35.52 170.72,-26.69"/>
<polygon fill="#63b8ff" stroke="#63b8ff" points="173.14,-24.15 163.74,-19.27 168.04,-28.95 173.14,-24.15"/>
</g>
<!-- Node6 -->
<g id="node6" class="node">
<title>Node6</title>
<g id="a_node6"><a xlink:href="../../d1/d2e/FMC__attributes_8h.html" target="_top" xlink:title=" ">
<polygon fill="white" stroke="#666666" points="315.5,-19 215.5,-19 215.5,0 315.5,0 315.5,-19"/>
<text text-anchor="middle" x="265.5" y="-7" font-family="Helvetica,sans-Serif" font-size="10.00">FMC_attributes.h</text>
</a>
</g>
</g>
<!-- Node3&#45;&gt;Node6 -->
<g id="edge5" class="edge">
<title>Node3&#45;&gt;Node6</title>
<path fill="none" stroke="#63b8ff" d="M217.94,-54.84C224.98,-46.17 235.36,-35.08 244.73,-26.15"/>
<polygon fill="#63b8ff" stroke="#63b8ff" points="247.25,-28.59 252.27,-19.27 242.53,-23.42 247.25,-28.59"/>
</g>
<!-- Node6&#45;&gt;Node3 -->
<g id="edge6" class="edge">
<title>Node6&#45;&gt;Node3</title>
<path fill="none" stroke="#63b8ff" d="M262.24,-19.27C256.79,-26.76 246.88,-37.86 237.08,-47.67"/>
<polygon fill="#63b8ff" stroke="#63b8ff" points="234.43,-45.36 229.69,-54.84 239.31,-50.39 234.43,-45.36"/>
</g>
</g>
</svg>
