<?xml version="1.0" encoding="UTF-8" standalone="no"?>
<!DOCTYPE svg PUBLIC "-//W3C//DTD SVG 1.1//EN"
 "http://www.w3.org/Graphics/SVG/1.1/DTD/svg11.dtd">
<!-- Generated by graphviz version 2.43.0 (0)
 -->
<!-- Title: src/general/utils/FMC_globals.h Pages: 1 -->
<svg width="361pt" height="225pt"
 viewBox="0.00 0.00 361.00 225.00" xmlns="http://www.w3.org/2000/svg" xmlns:xlink="http://www.w3.org/1999/xlink">
<g id="graph0" class="graph" transform="scale(1 1) rotate(0) translate(4 221)">
<title>src/general/utils/FMC_globals.h</title>
<!-- Node1 -->
<g id="node1" class="node">
<title>Node1</title>
<g id="a_node1"><a xlink:title=" ">
<polygon fill="#999999" stroke="#666666" points="271,-217 152,-217 152,-187 271,-187 271,-217"/>
<text text-anchor="start" x="160" y="-205" font-family="Helvetica,sans-Serif" font-size="10.00">src/general/utils/FMC</text>
<text text-anchor="middle" x="211.5" y="-194" font-family="Helvetica,sans-Serif" font-size="10.00">_globals.h</text>
</a>
</g>
</g>
<!-- Node2 -->
<g id="node2" class="node">
<title>Node2</title>
<g id="a_node2"><a xlink:href="../../df/df8/FMC__typedefs_8h.html" target="_top" xlink:title=" ">
<polygon fill="white" stroke="#666666" points="183.5,-145.5 49.5,-145.5 49.5,-126.5 183.5,-126.5 183.5,-145.5"/>
<text text-anchor="middle" x="116.5" y="-133.5" font-family="Helvetica,sans-Serif" font-size="10.00">../types/FMC_typedefs.h</text>
</a>
</g>
</g>
<!-- Node1&#45;&gt;Node2 -->
<g id="edge1" class="edge">
<title>Node1&#45;&gt;Node2</title>
<path fill="none" stroke="#63b8ff" d="M190.42,-186.8C174.79,-176.27 153.57,-161.97 137.87,-151.4"/>
<polygon fill="#63b8ff" stroke="#63b8ff" points="139.6,-148.34 129.35,-145.66 135.69,-154.15 139.6,-148.34"/>
</g>
<!-- Node3 -->
<g id="node3" class="node">
<title>Node3</title>
<g id="a_node3"><a xlink:href="../../d0/d28/FMC__macros_8h.html" target="_top" xlink:title=" ">
<polygon fill="white" stroke="#666666" points="220,-85 107,-85 107,-55 220,-55 220,-85"/>
<text text-anchor="start" x="115" y="-73" font-family="Helvetica,sans-Serif" font-size="10.00">../preprocessor/FMC</text>
<text text-anchor="middle" x="163.5" y="-62" font-family="Helvetica,sans-Serif" font-size="10.00">_macros.h</text>
</a>
</g>
</g>
<!-- Node1&#45;&gt;Node3 -->
<g id="edge6" class="edge">
<title>Node1&#45;&gt;Node3</title>
<path fill="none" stroke="#63b8ff" d="M209.41,-186.75C206.72,-170.44 201.33,-143.14 192.5,-121 188.83,-111.79 183.67,-102.24 178.72,-93.99"/>
<polygon fill="#63b8ff" stroke="#63b8ff" points="181.57,-91.94 173.31,-85.3 175.63,-95.64 181.57,-91.94"/>
</g>
<!-- Node6 -->
<g id="node6" class="node">
<title>Node6</title>
<g id="a_node6"><a xlink:href="../../da/dd3/FMC__consts_8h.html" target="_top" xlink:title=" ">
<polygon fill="white" stroke="#666666" points="353,-151 240,-151 240,-121 353,-121 353,-151"/>
<text text-anchor="start" x="248" y="-139" font-family="Helvetica,sans-Serif" font-size="10.00">../preprocessor/FMC</text>
<text text-anchor="middle" x="296.5" y="-128" font-family="Helvetica,sans-Serif" font-size="10.00">_consts.h</text>
</a>
</g>
</g>
<!-- Node1&#45;&gt;Node6 -->
<g id="edge7" class="edge">
<title>Node1&#45;&gt;Node6</title>
<path fill="none" stroke="#63b8ff" d="M230.36,-186.8C241.92,-178.1 256.89,-166.82 269.67,-157.2"/>
<polygon fill="#63b8ff" stroke="#63b8ff" points="271.81,-159.98 277.69,-151.16 267.59,-154.38 271.81,-159.98"/>
</g>
<!-- Node2&#45;&gt;Node3 -->
<g id="edge2" class="edge">
<title>Node2&#45;&gt;Node3</title>
<path fill="none" stroke="#63b8ff" d="M122.84,-126.37C128.99,-117.99 138.59,-104.93 146.91,-93.59"/>
<polygon fill="#63b8ff" stroke="#63b8ff" points="149.86,-95.49 152.95,-85.36 144.21,-91.35 149.86,-95.49"/>
</g>
<!-- Node4 -->
<g id="node4" class="node">
<title>Node4</title>
<g id="a_node4"><a xlink:href="../../d7/dff/FMC__platform_8h.html" target="_top" xlink:title=" ">
<polygon fill="white" stroke="#666666" points="95,-19 0,-19 0,0 95,0 95,-19"/>
<text text-anchor="middle" x="47.5" y="-7" font-family="Helvetica,sans-Serif" font-size="10.00">FMC_platform.h</text>
</a>
</g>
</g>
<!-- Node3&#45;&gt;Node4 -->
<g id="edge3" class="edge">
<title>Node3&#45;&gt;Node4</title>
<path fill="none" stroke="#63b8ff" d="M135.72,-54.99C116.88,-45.49 92.15,-33.02 73.66,-23.69"/>
<polygon fill="#63b8ff" stroke="#63b8ff" points="75.14,-20.52 64.63,-19.14 71.98,-26.77 75.14,-20.52"/>
</g>
<!-- Node5 -->
<g id="node5" class="node">
<title>Node5</title>
<g id="a_node5"><a xlink:href="../../d1/d2e/FMC__attributes_8h.html" target="_top" xlink:title=" ">
<polygon fill="white" stroke="#666666" points="213.5,-19 113.5,-19 113.5,0 213.5,0 213.5,-19"/>
<text text-anchor="middle" x="163.5" y="-7" font-family="Helvetica,sans-Serif" font-size="10.00">FMC_attributes.h</text>
</a>
</g>
</g>
<!-- Node3&#45;&gt;Node5 -->
<g id="edge4" class="edge">
<title>Node3&#45;&gt;Node5</title>
<path fill="none" stroke="#63b8ff" d="M157.62,-54.84C156.65,-47.21 156.49,-37.7 157.14,-29.45"/>
<polygon fill="#63b8ff" stroke="#63b8ff" points="160.64,-29.65 158.52,-19.27 153.71,-28.71 160.64,-29.65"/>
</g>
<!-- Node5&#45;&gt;Node3 -->
<g id="edge5" class="edge">
<title>Node5&#45;&gt;Node3</title>
<path fill="none" stroke="#63b8ff" d="M168.48,-19.27C169.92,-26.03 170.48,-35.72 170.16,-44.75"/>
<polygon fill="#63b8ff" stroke="#63b8ff" points="166.66,-44.6 169.38,-54.84 173.64,-45.14 166.66,-44.6"/>
</g>
</g>
</svg>
