<?xml version="1.0" encoding="UTF-8" standalone="no"?>
<!DOCTYPE svg PUBLIC "-//W3C//DTD SVG 1.1//EN"
 "http://www.w3.org/Graphics/SVG/1.1/DTD/svg11.dtd">
<!-- Generated by graphviz version 2.43.0 (0)
 -->
<!-- Title: File management utilities Pages: 1 -->
<svg width="285pt" height="138pt"
 viewBox="0.00 0.00 285.00 138.00" xmlns="http://www.w3.org/2000/svg" xmlns:xlink="http://www.w3.org/1999/xlink">
<g id="graph0" class="graph" transform="scale(1 1) rotate(0) translate(4 134)">
<title>File management utilities</title>
<!-- Node1 -->
<g id="node1" class="node">
<title>Node1</title>
<g id="a_node1"><a xlink:title="This module provides utilities to manage informations about files.">
<polygon fill="#999999" stroke="#666666" points="142,-74 0,-74 0,-55 142,-55 142,-74"/>
<text text-anchor="middle" x="71" y="-62" font-family="Helvetica,sans-Serif" font-size="10.00">File management utilities</text>
</a>
</g>
</g>
<!-- Node2 -->
<g id="node2" class="node">
<title>Node2</title>
<g id="a_node2"><a xlink:href="../../d4/d42/group__fmanc__FM__UTILS__const__macros.html" target="_top" xlink:title="This submodule contains constant macros used by the lib.">
<polygon fill="white" stroke="#666666" points="277,-130 178,-130 178,-111 277,-111 277,-130"/>
<text text-anchor="middle" x="227.5" y="-118" font-family="Helvetica,sans-Serif" font-size="10.00">Constant macros</text>
</a>
</g>
</g>
<!-- Node1&#45;&gt;Node2 -->
<g id="edge1" class="edge">
<title>Node1&#45;&gt;Node2</title>
<path fill="none" stroke="black" d="M108.08,-77.58C136.32,-87.81 174.94,-101.81 200.29,-111"/>
<polygon fill="black" stroke="black" points="109.15,-74.24 98.56,-74.13 106.77,-80.82 109.15,-74.24"/>
</g>
<!-- Node5 -->
<g id="node3" class="node">
<title>Node5</title>
<g id="a_node3"><a xlink:href="../../d4/dd8/group__fmanc__FM__UTILS__files.html" target="_top" xlink:title="This submodule contains files related to file management utilities.">
<polygon fill="white" stroke="#666666" points="264,-93 191,-93 191,-74 264,-74 264,-93"/>
<text text-anchor="middle" x="227.5" y="-81" font-family="Helvetica,sans-Serif" font-size="10.00">Source files</text>
</a>
</g>
</g>
<!-- Node1&#45;&gt;Node5 -->
<g id="edge4" class="edge">
<title>Node1&#45;&gt;Node5</title>
<path fill="none" stroke="black" d="M151.96,-74.33C165.63,-76.01 179.18,-77.68 190.91,-79.12"/>
<polygon fill="black" stroke="black" points="152.37,-70.86 142.02,-73.11 151.52,-77.81 152.37,-70.86"/>
</g>
<!-- Node3 -->
<g id="node4" class="node">
<title>Node3</title>
<g id="a_node4"><a xlink:href="../../db/de3/group__fmanc__FM__UTILS__func.html" target="_top" xlink:title="This submodule contains the functions related to file management utilities.">
<polygon fill="white" stroke="#666666" points="259,-56 196,-56 196,-37 259,-37 259,-56"/>
<text text-anchor="middle" x="227.5" y="-44" font-family="Helvetica,sans-Serif" font-size="10.00">Functions</text>
</a>
</g>
</g>
<!-- Node1&#45;&gt;Node3 -->
<g id="edge2" class="edge">
<title>Node1&#45;&gt;Node3</title>
<path fill="none" stroke="black" d="M152.2,-55.16C167.71,-53.35 183.06,-51.56 195.74,-50.08"/>
<polygon fill="black" stroke="black" points="151.55,-51.71 142.02,-56.34 152.36,-58.66 151.55,-51.71"/>
</g>
<!-- Node4 -->
<g id="node5" class="node">
<title>Node4</title>
<g id="a_node5"><a xlink:href="../../dd/d72/group__fmanc__FM__UTILS__macros.html" target="_top" xlink:title="This submodule contains macros related to files management facilities.">
<polygon fill="white" stroke="#666666" points="253.5,-19 201.5,-19 201.5,0 253.5,0 253.5,-19"/>
<text text-anchor="middle" x="227.5" y="-7" font-family="Helvetica,sans-Serif" font-size="10.00">Macros</text>
</a>
</g>
</g>
<!-- Node1&#45;&gt;Node4 -->
<g id="edge3" class="edge">
<title>Node1&#45;&gt;Node4</title>
<path fill="none" stroke="black" d="M108.56,-51.48C137.19,-41.29 176.25,-27.39 201.43,-18.42"/>
<polygon fill="black" stroke="black" points="107.16,-48.27 98.91,-54.92 109.51,-54.86 107.16,-48.27"/>
</g>
</g>
</svg>
