<?xml version="1.0" encoding="UTF-8" standalone="no"?>
<!DOCTYPE svg PUBLIC "-//W3C//DTD SVG 1.1//EN"
 "http://www.w3.org/Graphics/SVG/1.1/DTD/svg11.dtd">
<!-- Generated by graphviz version 2.43.0 (0)
 -->
<!-- Title: src/general/utils/FMC_globals.h Pages: 1 -->
<svg width="816pt" height="280pt"
 viewBox="0.00 0.00 815.92 280.00" xmlns="http://www.w3.org/2000/svg" xmlns:xlink="http://www.w3.org/1999/xlink">
<g id="graph0" class="graph" transform="scale(1 1) rotate(0) translate(4 276)">
<title>src/general/utils/FMC_globals.h</title>
<!-- Node1 -->
<g id="node1" class="node">
<title>Node1</title>
<g id="a_node1"><a xlink:title=" ">
<polygon fill="#999999" stroke="#666666" points="276.92,-272 157.92,-272 157.92,-242 276.92,-242 276.92,-272"/>
<text text-anchor="start" x="165.92" y="-260" font-family="Helvetica,sans-Serif" font-size="10.00">src/general/utils/FMC</text>
<text text-anchor="middle" x="217.42" y="-249" font-family="Helvetica,sans-Serif" font-size="10.00">_globals.h</text>
</a>
</g>
</g>
<!-- Node2 -->
<g id="node2" class="node">
<title>Node2</title>
<g id="a_node2"><a xlink:href="../../d9/de1/FMC__general_8h.html" target="_top" xlink:title=" ">
<polygon fill="white" stroke="#666666" points="290.42,-206 144.42,-206 144.42,-187 290.42,-187 290.42,-206"/>
<text text-anchor="middle" x="217.42" y="-194" font-family="Helvetica,sans-Serif" font-size="10.00">src/general/FMC_general.h</text>
</a>
</g>
</g>
<!-- Node1&#45;&gt;Node2 -->
<g id="edge1" class="edge">
<title>Node1&#45;&gt;Node2</title>
<path fill="none" stroke="#63b8ff" d="M217.42,-231.75C217.42,-222.72 217.42,-213.03 217.42,-206.27"/>
<polygon fill="#63b8ff" stroke="#63b8ff" points="213.92,-231.84 217.42,-241.84 220.92,-231.84 213.92,-231.84"/>
</g>
<!-- Node3 -->
<g id="node3" class="node">
<title>Node3</title>
<g id="a_node3"><a xlink:href="../../de/d47/FMC_8h.html" target="_top" xlink:title=" ">
<polygon fill="white" stroke="#666666" points="187.92,-19 122.92,-19 122.92,0 187.92,0 187.92,-19"/>
<text text-anchor="middle" x="155.42" y="-7" font-family="Helvetica,sans-Serif" font-size="10.00">src/FMC.h</text>
</a>
</g>
</g>
<!-- Node2&#45;&gt;Node3 -->
<g id="edge2" class="edge">
<title>Node2&#45;&gt;Node3</title>
<path fill="none" stroke="#63b8ff" d="M134.15,-188.58C82.37,-182.36 22.64,-171 6.42,-151 -15.47,-124.02 26.86,-63.07 35.42,-55 59.51,-32.29 96.21,-20.94 122.68,-15.42"/>
<polygon fill="#63b8ff" stroke="#63b8ff" points="134.05,-192.09 144.39,-189.76 134.85,-185.14 134.05,-192.09"/>
</g>
<!-- Node4 -->
<g id="node4" class="node">
<title>Node4</title>
<g id="a_node4"><a xlink:href="../../db/d26/FMC__code__utils_8h.html" target="_top" xlink:title=" ">
<polygon fill="white" stroke="#666666" points="123.42,-151 15.42,-151 15.42,-121 123.42,-121 123.42,-151"/>
<text text-anchor="start" x="23.42" y="-139" font-family="Helvetica,sans-Serif" font-size="10.00">src/code_utils/FMC</text>
<text text-anchor="middle" x="69.42" y="-128" font-family="Helvetica,sans-Serif" font-size="10.00">_code_utils.h</text>
</a>
</g>
</g>
<!-- Node2&#45;&gt;Node4 -->
<g id="edge3" class="edge">
<title>Node2&#45;&gt;Node4</title>
<path fill="none" stroke="#63b8ff" d="M186.32,-183.21C162.56,-173.82 129.8,-160.87 105,-151.06"/>
<polygon fill="#63b8ff" stroke="#63b8ff" points="185.31,-186.57 195.9,-186.99 187.88,-180.06 185.31,-186.57"/>
</g>
<!-- Node5 -->
<g id="node5" class="node">
<title>Node5</title>
<g id="a_node5"><a xlink:href="../../db/d30/FMC__encodings_8h.html" target="_top" xlink:title=" ">
<polygon fill="white" stroke="#666666" points="293.42,-151 141.42,-151 141.42,-121 293.42,-121 293.42,-151"/>
<text text-anchor="start" x="149.42" y="-139" font-family="Helvetica,sans-Serif" font-size="10.00">src/data_analyze/encodings</text>
<text text-anchor="middle" x="217.42" y="-128" font-family="Helvetica,sans-Serif" font-size="10.00">/FMC_encodings.h</text>
</a>
</g>
</g>
<!-- Node2&#45;&gt;Node5 -->
<g id="edge5" class="edge">
<title>Node2&#45;&gt;Node5</title>
<path fill="none" stroke="#63b8ff" d="M217.42,-176.65C217.42,-168.36 217.42,-158.78 217.42,-151.11"/>
<polygon fill="#63b8ff" stroke="#63b8ff" points="213.92,-176.87 217.42,-186.87 220.92,-176.87 213.92,-176.87"/>
</g>
<!-- Node8 -->
<g id="node8" class="node">
<title>Node8</title>
<g id="a_node8"><a xlink:href="../../d9/db5/FMC__strings_8h.html" target="_top" xlink:title=" ">
<polygon fill="white" stroke="#666666" points="446.92,-151 311.92,-151 311.92,-121 446.92,-121 446.92,-151"/>
<text text-anchor="start" x="319.92" y="-139" font-family="Helvetica,sans-Serif" font-size="10.00">src/data_analyze/strings</text>
<text text-anchor="middle" x="379.42" y="-128" font-family="Helvetica,sans-Serif" font-size="10.00">/FMC_strings.h</text>
</a>
</g>
</g>
<!-- Node2&#45;&gt;Node8 -->
<g id="edge9" class="edge">
<title>Node2&#45;&gt;Node8</title>
<path fill="none" stroke="#63b8ff" d="M250.42,-183.58C276.5,-174.16 312.96,-161 340.47,-151.06"/>
<polygon fill="#63b8ff" stroke="#63b8ff" points="249.19,-180.31 240.97,-186.99 251.57,-186.89 249.19,-180.31"/>
</g>
<!-- Node10 -->
<g id="node10" class="node">
<title>Node10</title>
<g id="a_node10"><a xlink:href="../../d2/deb/FMC__file__management_8h.html" target="_top" xlink:title=" ">
<polygon fill="white" stroke="#666666" points="620.92,-151 521.92,-151 521.92,-121 620.92,-121 620.92,-151"/>
<text text-anchor="start" x="529.92" y="-139" font-family="Helvetica,sans-Serif" font-size="10.00">src/files/FMC_file</text>
<text text-anchor="middle" x="571.42" y="-128" font-family="Helvetica,sans-Serif" font-size="10.00">_management.h</text>
</a>
</g>
</g>
<!-- Node2&#45;&gt;Node10 -->
<g id="edge12" class="edge">
<title>Node2&#45;&gt;Node10</title>
<path fill="none" stroke="#63b8ff" d="M279.17,-185.29C348.12,-173.9 458.34,-155.69 521.88,-145.19"/>
<polygon fill="#63b8ff" stroke="#63b8ff" points="278.19,-181.91 268.89,-186.99 279.33,-188.82 278.19,-181.91"/>
</g>
<!-- Node4&#45;&gt;Node3 -->
<g id="edge4" class="edge">
<title>Node4&#45;&gt;Node3</title>
<path fill="none" stroke="#63b8ff" d="M52.38,-112.23C41.98,-95.32 32.72,-72.29 44.42,-55 61.81,-29.29 96.74,-18.43 122.8,-13.85"/>
<polygon fill="#63b8ff" stroke="#63b8ff" points="49.71,-114.52 58.16,-120.92 55.54,-110.65 49.71,-114.52"/>
</g>
<!-- Node6 -->
<g id="node6" class="node">
<title>Node6</title>
<g id="a_node6"><a xlink:href="../../da/db0/FMC__data__analyze_8h.html" target="_top" xlink:title=" ">
<polygon fill="white" stroke="#666666" points="347.42,-85 223.42,-85 223.42,-55 347.42,-55 347.42,-85"/>
<text text-anchor="start" x="231.42" y="-73" font-family="Helvetica,sans-Serif" font-size="10.00">src/data_analyze/FMC</text>
<text text-anchor="middle" x="285.42" y="-62" font-family="Helvetica,sans-Serif" font-size="10.00">_data_analyze.h</text>
</a>
</g>
</g>
<!-- Node5&#45;&gt;Node6 -->
<g id="edge6" class="edge">
<title>Node5&#45;&gt;Node6</title>
<path fill="none" stroke="#63b8ff" d="M239.81,-113.92C249.84,-104.49 261.4,-93.61 270.37,-85.16"/>
<polygon fill="#63b8ff" stroke="#63b8ff" points="237.39,-111.39 232.51,-120.8 242.19,-116.49 237.39,-111.39"/>
</g>
<!-- Node7 -->
<g id="node7" class="node">
<title>Node7</title>
<g id="a_node7"><a xlink:href="../../db/dc4/FMC__encodings_8c.html" target="_top" xlink:title=" ">
<polygon fill="white" stroke="#666666" points="205.42,-85 53.42,-85 53.42,-55 205.42,-55 205.42,-85"/>
<text text-anchor="start" x="61.42" y="-73" font-family="Helvetica,sans-Serif" font-size="10.00">src/data_analyze/encodings</text>
<text text-anchor="middle" x="129.42" y="-62" font-family="Helvetica,sans-Serif" font-size="10.00">/FMC_encodings.c</text>
</a>
</g>
</g>
<!-- Node5&#45;&gt;Node7 -->
<g id="edge8" class="edge">
<title>Node5&#45;&gt;Node7</title>
<path fill="none" stroke="#63b8ff" d="M189.58,-114.75C176.34,-105.13 160.84,-93.86 148.89,-85.16"/>
<polygon fill="#63b8ff" stroke="#63b8ff" points="187.74,-117.75 197.89,-120.8 191.86,-112.08 187.74,-117.75"/>
</g>
<!-- Node6&#45;&gt;Node3 -->
<g id="edge7" class="edge">
<title>Node6&#45;&gt;Node3</title>
<path fill="none" stroke="#63b8ff" d="M244.91,-50.77C221.47,-40.22 193.05,-27.43 174.62,-19.14"/>
<polygon fill="#63b8ff" stroke="#63b8ff" points="243.72,-54.08 254.28,-54.99 246.6,-47.69 243.72,-54.08"/>
</g>
<!-- Node8&#45;&gt;Node6 -->
<g id="edge10" class="edge">
<title>Node8&#45;&gt;Node6</title>
<path fill="none" stroke="#63b8ff" d="M350.08,-115.03C335.86,-105.34 319.11,-93.94 306.22,-85.16"/>
<polygon fill="#63b8ff" stroke="#63b8ff" points="348.32,-118.06 358.56,-120.8 352.26,-112.28 348.32,-118.06"/>
</g>
<!-- Node9 -->
<g id="node9" class="node">
<title>Node9</title>
<g id="a_node9"><a xlink:href="../../d1/d8c/FMC__chars_8c.html" target="_top" xlink:title=" ">
<polygon fill="white" stroke="#666666" points="500.92,-85 365.92,-85 365.92,-55 500.92,-55 500.92,-85"/>
<text text-anchor="start" x="373.92" y="-73" font-family="Helvetica,sans-Serif" font-size="10.00">src/data_analyze/strings</text>
<text text-anchor="middle" x="433.42" y="-62" font-family="Helvetica,sans-Serif" font-size="10.00">/FMC_chars.c</text>
</a>
</g>
</g>
<!-- Node8&#45;&gt;Node9 -->
<g id="edge11" class="edge">
<title>Node8&#45;&gt;Node9</title>
<path fill="none" stroke="#63b8ff" d="M397.91,-113.09C405.7,-103.85 414.55,-93.36 421.47,-85.16"/>
<polygon fill="#63b8ff" stroke="#63b8ff" points="395.18,-110.9 391.4,-120.8 400.53,-115.41 395.18,-110.9"/>
</g>
<!-- Node10&#45;&gt;Node3 -->
<g id="edge13" class="edge">
<title>Node10&#45;&gt;Node3</title>
<path fill="none" stroke="#63b8ff" d="M560.08,-111.88C549.64,-93.24 532.29,-68.05 509.42,-55 454.94,-23.93 265.15,-14.17 188.2,-11.45"/>
<polygon fill="#63b8ff" stroke="#63b8ff" points="557.11,-113.76 564.91,-120.93 563.29,-110.46 557.11,-113.76"/>
</g>
<!-- Node11 -->
<g id="node11" class="node">
<title>Node11</title>
<g id="a_node11"><a xlink:href="../../d0/dc0/FMC__files_8c.html" target="_top" xlink:title=" ">
<polygon fill="white" stroke="#666666" points="670.92,-79.5 557.92,-79.5 557.92,-60.5 670.92,-60.5 670.92,-79.5"/>
<text text-anchor="middle" x="614.42" y="-67.5" font-family="Helvetica,sans-Serif" font-size="10.00">src/files/FMC_files.c</text>
</a>
</g>
</g>
<!-- Node10&#45;&gt;Node11 -->
<g id="edge14" class="edge">
<title>Node10&#45;&gt;Node11</title>
<path fill="none" stroke="#63b8ff" d="M586.68,-112.28C594.21,-101.07 602.87,-88.19 608.47,-79.84"/>
<polygon fill="#63b8ff" stroke="#63b8ff" points="583.63,-110.54 580.96,-120.8 589.44,-114.45 583.63,-110.54"/>
</g>
<!-- Node12 -->
<g id="node12" class="node">
<title>Node12</title>
<g id="a_node12"><a xlink:href="../../dc/d5e/FMC__paths_8c.html" target="_top" xlink:title=" ">
<polygon fill="white" stroke="#666666" points="807.92,-79.5 688.92,-79.5 688.92,-60.5 807.92,-60.5 807.92,-79.5"/>
<text text-anchor="middle" x="748.42" y="-67.5" font-family="Helvetica,sans-Serif" font-size="10.00">src/files/FMC_paths.c</text>
</a>
</g>
</g>
<!-- Node10&#45;&gt;Node12 -->
<g id="edge15" class="edge">
<title>Node10&#45;&gt;Node12</title>
<path fill="none" stroke="#63b8ff" d="M620.04,-117.42C654.14,-105.09 698.23,-89.15 724.86,-79.52"/>
<polygon fill="#63b8ff" stroke="#63b8ff" points="618.47,-114.26 610.26,-120.95 620.85,-120.85 618.47,-114.26"/>
</g>
</g>
</svg>
