<?xml version="1.0" encoding="UTF-8" standalone="no"?>
<!DOCTYPE svg PUBLIC "-//W3C//DTD SVG 1.1//EN"
 "http://www.w3.org/Graphics/SVG/1.1/DTD/svg11.dtd">
<!-- Generated by graphviz version 2.43.0 (0)
 -->
<!-- Title: src/cpp/FMC_wrapper.h Pages: 1 -->
<svg width="357pt" height="148pt"
 viewBox="0.00 0.00 356.50 148.00" xmlns="http://www.w3.org/2000/svg" xmlns:xlink="http://www.w3.org/1999/xlink">
<g id="graph0" class="graph" transform="scale(1 1) rotate(0) translate(4 144)">
<title>src/cpp/FMC_wrapper.h</title>
<!-- Node1 -->
<g id="node1" class="node">
<title>Node1</title>
<g id="a_node1"><a xlink:title=" ">
<polygon fill="#999999" stroke="#666666" points="330,-140 201,-140 201,-121 330,-121 330,-140"/>
<text text-anchor="middle" x="265.5" y="-128" font-family="Helvetica,sans-Serif" font-size="10.00">src/cpp/FMC_wrapper.h</text>
</a>
</g>
</g>
<!-- Node2 -->
<g id="node2" class="node">
<title>Node2</title>
<g id="a_node2"><a xlink:href="../../d0/d28/FMC__macros_8h.html" target="_top" xlink:title=" ">
<polygon fill="white" stroke="#666666" points="274.5,-85 146.5,-85 146.5,-55 274.5,-55 274.5,-85"/>
<text text-anchor="start" x="154.5" y="-73" font-family="Helvetica,sans-Serif" font-size="10.00">../general/preprocessor</text>
<text text-anchor="middle" x="210.5" y="-62" font-family="Helvetica,sans-Serif" font-size="10.00">/FMC_macros.h</text>
</a>
</g>
</g>
<!-- Node1&#45;&gt;Node2 -->
<g id="edge1" class="edge">
<title>Node1&#45;&gt;Node2</title>
<path fill="none" stroke="#63b8ff" d="M257.38,-120.87C250.41,-113.44 240.04,-102.42 230.82,-92.62"/>
<polygon fill="#63b8ff" stroke="#63b8ff" points="233.17,-90 223.77,-85.11 228.07,-94.8 233.17,-90"/>
</g>
<!-- Node6 -->
<g id="node6" class="node">
<title>Node6</title>
<g id="a_node6"><a xlink:title=" ">
<polygon fill="#e0e0e0" stroke="#999999" points="348.5,-79.5 292.5,-79.5 292.5,-60.5 348.5,-60.5 348.5,-79.5"/>
<text text-anchor="middle" x="320.5" y="-67.5" font-family="Helvetica,sans-Serif" font-size="10.00">stddef.h</text>
</a>
</g>
</g>
<!-- Node1&#45;&gt;Node6 -->
<g id="edge6" class="edge">
<title>Node1&#45;&gt;Node6</title>
<path fill="none" stroke="#63b8ff" d="M273.62,-120.87C281.9,-112.05 294.97,-98.16 305.2,-87.27"/>
<polygon fill="#63b8ff" stroke="#63b8ff" points="308.05,-89.35 312.35,-79.67 302.95,-84.56 308.05,-89.35"/>
</g>
<!-- Node3 -->
<g id="node3" class="node">
<title>Node3</title>
<g id="a_node3"><a xlink:href="../../d7/dff/FMC__platform_8h.html" target="_top" xlink:title=" ">
<polygon fill="white" stroke="#666666" points="95,-19 0,-19 0,0 95,0 95,-19"/>
<text text-anchor="middle" x="47.5" y="-7" font-family="Helvetica,sans-Serif" font-size="10.00">FMC_platform.h</text>
</a>
</g>
</g>
<!-- Node2&#45;&gt;Node3 -->
<g id="edge2" class="edge">
<title>Node2&#45;&gt;Node3</title>
<path fill="none" stroke="#63b8ff" d="M171.46,-54.99C143.9,-45.1 107.35,-31.98 81.09,-22.56"/>
<polygon fill="#63b8ff" stroke="#63b8ff" points="82.17,-19.22 71.57,-19.14 79.8,-25.81 82.17,-19.22"/>
</g>
<!-- Node4 -->
<g id="node4" class="node">
<title>Node4</title>
<g id="a_node4"><a xlink:title=" ">
<polygon fill="#e0e0e0" stroke="#999999" points="197.5,-19 113.5,-19 113.5,0 197.5,0 197.5,-19"/>
<text text-anchor="middle" x="155.5" y="-7" font-family="Helvetica,sans-Serif" font-size="10.00">metalang99.h</text>
</a>
</g>
</g>
<!-- Node2&#45;&gt;Node4 -->
<g id="edge3" class="edge">
<title>Node2&#45;&gt;Node4</title>
<path fill="none" stroke="#63b8ff" d="M197.19,-54.84C189.2,-46.35 179.02,-35.52 170.72,-26.69"/>
<polygon fill="#63b8ff" stroke="#63b8ff" points="173.14,-24.15 163.74,-19.27 168.04,-28.95 173.14,-24.15"/>
</g>
<!-- Node5 -->
<g id="node5" class="node">
<title>Node5</title>
<g id="a_node5"><a xlink:href="../../d1/d2e/FMC__attributes_8h.html" target="_top" xlink:title=" ">
<polygon fill="white" stroke="#666666" points="315.5,-19 215.5,-19 215.5,0 315.5,0 315.5,-19"/>
<text text-anchor="middle" x="265.5" y="-7" font-family="Helvetica,sans-Serif" font-size="10.00">FMC_attributes.h</text>
</a>
</g>
</g>
<!-- Node2&#45;&gt;Node5 -->
<g id="edge4" class="edge">
<title>Node2&#45;&gt;Node5</title>
<path fill="none" stroke="#63b8ff" d="M217.94,-54.84C224.98,-46.17 235.36,-35.08 244.73,-26.15"/>
<polygon fill="#63b8ff" stroke="#63b8ff" points="247.25,-28.59 252.27,-19.27 242.53,-23.42 247.25,-28.59"/>
</g>
<!-- Node5&#45;&gt;Node2 -->
<g id="edge5" class="edge">
<title>Node5&#45;&gt;Node2</title>
<path fill="none" stroke="#63b8ff" d="M262.24,-19.27C256.79,-26.76 246.88,-37.86 237.08,-47.67"/>
<polygon fill="#63b8ff" stroke="#63b8ff" points="234.43,-45.36 229.69,-54.84 239.31,-50.39 234.43,-45.36"/>
</g>
</g>
</svg>
