<?xml version="1.0" encoding="UTF-8" standalone="no"?>
<!DOCTYPE svg PUBLIC "-//W3C//DTD SVG 1.1//EN"
 "http://www.w3.org/Graphics/SVG/1.1/DTD/svg11.dtd">
<!-- Generated by graphviz version 2.43.0 (0)
 -->
<!-- Title: src/general/types/FMC_structs.h Pages: 1 -->
<svg width="446pt" height="280pt"
 viewBox="0.00 0.00 445.50 280.00" xmlns="http://www.w3.org/2000/svg" xmlns:xlink="http://www.w3.org/1999/xlink">
<g id="graph0" class="graph" transform="scale(1 1) rotate(0) translate(4 276)">
<title>src/general/types/FMC_structs.h</title>
<!-- Node1 -->
<g id="node1" class="node">
<title>Node1</title>
<g id="a_node1"><a xlink:title=" ">
<polygon fill="#999999" stroke="#666666" points="272.5,-272 147.5,-272 147.5,-242 272.5,-242 272.5,-272"/>
<text text-anchor="start" x="155.5" y="-260" font-family="Helvetica,sans-Serif" font-size="10.00">src/general/types/FMC</text>
<text text-anchor="middle" x="210" y="-249" font-family="Helvetica,sans-Serif" font-size="10.00">_structs.h</text>
</a>
</g>
</g>
<!-- Node2 -->
<g id="node2" class="node">
<title>Node2</title>
<g id="a_node2"><a xlink:title=" ">
<polygon fill="#e0e0e0" stroke="#999999" points="50,-200.5 0,-200.5 0,-181.5 50,-181.5 50,-200.5"/>
<text text-anchor="middle" x="25" y="-188.5" font-family="Helvetica,sans-Serif" font-size="10.00">stdio.h</text>
</a>
</g>
</g>
<!-- Node1&#45;&gt;Node2 -->
<g id="edge1" class="edge">
<title>Node1&#45;&gt;Node2</title>
<path fill="none" stroke="#63b8ff" d="M164.78,-241.95C134.63,-232.36 94.21,-219.06 59,-206 57.58,-205.47 56.13,-204.92 54.67,-204.36"/>
<polygon fill="#63b8ff" stroke="#63b8ff" points="55.63,-200.97 45.04,-200.53 53.04,-207.48 55.63,-200.97"/>
</g>
<!-- Node3 -->
<g id="node3" class="node">
<title>Node3</title>
<g id="a_node3"><a xlink:href="../../da/dd3/FMC__consts_8h.html" target="_top" xlink:title=" ">
<polygon fill="white" stroke="#666666" points="181.5,-206 68.5,-206 68.5,-176 181.5,-176 181.5,-206"/>
<text text-anchor="start" x="76.5" y="-194" font-family="Helvetica,sans-Serif" font-size="10.00">../preprocessor/FMC</text>
<text text-anchor="middle" x="125" y="-183" font-family="Helvetica,sans-Serif" font-size="10.00">_consts.h</text>
</a>
</g>
</g>
<!-- Node1&#45;&gt;Node3 -->
<g id="edge2" class="edge">
<title>Node1&#45;&gt;Node3</title>
<path fill="none" stroke="#63b8ff" d="M191.14,-241.8C179.58,-233.1 164.61,-221.82 151.83,-212.2"/>
<polygon fill="#63b8ff" stroke="#63b8ff" points="153.91,-209.38 143.81,-206.16 149.69,-214.98 153.91,-209.38"/>
</g>
<!-- Node4 -->
<g id="node4" class="node">
<title>Node4</title>
<g id="a_node4"><a xlink:href="../../d0/d28/FMC__macros_8h.html" target="_top" xlink:title=" ">
<polygon fill="white" stroke="#666666" points="337.5,-140 224.5,-140 224.5,-110 337.5,-110 337.5,-140"/>
<text text-anchor="start" x="232.5" y="-128" font-family="Helvetica,sans-Serif" font-size="10.00">../preprocessor/FMC</text>
<text text-anchor="middle" x="281" y="-117" font-family="Helvetica,sans-Serif" font-size="10.00">_macros.h</text>
</a>
</g>
</g>
<!-- Node1&#45;&gt;Node4 -->
<g id="edge3" class="edge">
<title>Node1&#45;&gt;Node4</title>
<path fill="none" stroke="#63b8ff" d="M210.94,-241.82C212.58,-225.1 217.03,-196.95 229,-176 235.25,-165.07 244.61,-155.01 253.67,-146.82"/>
<polygon fill="#63b8ff" stroke="#63b8ff" points="256.16,-149.3 261.48,-140.14 251.61,-143.99 256.16,-149.3"/>
</g>
<!-- Node7 -->
<g id="node7" class="node">
<title>Node7</title>
<g id="a_node7"><a xlink:href="../../d6/d25/FMC__enums_8h.html" target="_top" xlink:title=" ">
<polygon fill="white" stroke="#666666" points="324,-200.5 238,-200.5 238,-181.5 324,-181.5 324,-200.5"/>
<text text-anchor="middle" x="281" y="-188.5" font-family="Helvetica,sans-Serif" font-size="10.00">FMC_enums.h</text>
</a>
</g>
</g>
<!-- Node1&#45;&gt;Node7 -->
<g id="edge8" class="edge">
<title>Node1&#45;&gt;Node7</title>
<path fill="none" stroke="#63b8ff" d="M225.76,-241.8C236.93,-231.72 251.94,-218.19 263.49,-207.78"/>
<polygon fill="#63b8ff" stroke="#63b8ff" points="266.1,-210.14 271.19,-200.84 261.42,-204.94 266.1,-210.14"/>
</g>
<!-- Node8 -->
<g id="node8" class="node">
<title>Node8</title>
<g id="a_node8"><a xlink:href="../../df/df8/FMC__typedefs_8h.html" target="_top" xlink:title=" ">
<polygon fill="white" stroke="#666666" points="437.5,-200.5 342.5,-200.5 342.5,-181.5 437.5,-181.5 437.5,-200.5"/>
<text text-anchor="middle" x="390" y="-188.5" font-family="Helvetica,sans-Serif" font-size="10.00">FMC_typedefs.h</text>
</a>
</g>
</g>
<!-- Node1&#45;&gt;Node8 -->
<g id="edge10" class="edge">
<title>Node1&#45;&gt;Node8</title>
<path fill="none" stroke="#63b8ff" d="M249.5,-241.95C281.49,-230.58 326.05,-214.74 356.35,-203.96"/>
<polygon fill="#63b8ff" stroke="#63b8ff" points="357.8,-207.17 366.05,-200.52 355.45,-200.57 357.8,-207.17"/>
</g>
<!-- Node5 -->
<g id="node5" class="node">
<title>Node5</title>
<g id="a_node5"><a xlink:href="../../d7/dff/FMC__platform_8h.html" target="_top" xlink:title=" ">
<polygon fill="white" stroke="#666666" points="289.5,-19 194.5,-19 194.5,0 289.5,0 289.5,-19"/>
<text text-anchor="middle" x="242" y="-7" font-family="Helvetica,sans-Serif" font-size="10.00">FMC_platform.h</text>
</a>
</g>
</g>
<!-- Node4&#45;&gt;Node5 -->
<g id="edge4" class="edge">
<title>Node4&#45;&gt;Node5</title>
<path fill="none" stroke="#63b8ff" d="M255.7,-109.88C243.06,-101.31 229,-89.11 222,-74 215.04,-58.98 222.13,-40.89 229.73,-27.86"/>
<polygon fill="#63b8ff" stroke="#63b8ff" points="232.71,-29.7 235.15,-19.39 226.81,-25.93 232.71,-29.7"/>
</g>
<!-- Node6 -->
<g id="node6" class="node">
<title>Node6</title>
<g id="a_node6"><a xlink:href="../../d1/d2e/FMC__attributes_8h.html" target="_top" xlink:title=" ">
<polygon fill="white" stroke="#666666" points="331,-74 231,-74 231,-55 331,-55 331,-74"/>
<text text-anchor="middle" x="281" y="-62" font-family="Helvetica,sans-Serif" font-size="10.00">FMC_attributes.h</text>
</a>
</g>
</g>
<!-- Node4&#45;&gt;Node6 -->
<g id="edge5" class="edge">
<title>Node4&#45;&gt;Node6</title>
<path fill="none" stroke="#63b8ff" d="M275.12,-109.84C274.15,-102.21 273.99,-92.7 274.64,-84.45"/>
<polygon fill="#63b8ff" stroke="#63b8ff" points="278.14,-84.65 276.02,-74.27 271.21,-83.71 278.14,-84.65"/>
</g>
<!-- Node6&#45;&gt;Node4 -->
<g id="edge7" class="edge">
<title>Node6&#45;&gt;Node4</title>
<path fill="none" stroke="#63b8ff" d="M285.98,-74.27C287.42,-81.03 287.98,-90.72 287.66,-99.75"/>
<polygon fill="#63b8ff" stroke="#63b8ff" points="284.16,-99.6 286.88,-109.84 291.14,-100.14 284.16,-99.6"/>
</g>
<!-- Node6&#45;&gt;Node5 -->
<g id="edge6" class="edge">
<title>Node6&#45;&gt;Node5</title>
<path fill="none" stroke="#63b8ff" d="M274.56,-54.75C269.11,-47.34 261.14,-36.5 254.44,-27.41"/>
<polygon fill="#63b8ff" stroke="#63b8ff" points="257.07,-25.07 248.32,-19.09 251.43,-29.22 257.07,-25.07"/>
</g>
<!-- Node7&#45;&gt;Node4 -->
<g id="edge9" class="edge">
<title>Node7&#45;&gt;Node4</title>
<path fill="none" stroke="#63b8ff" d="M281,-181.37C281,-173.49 281,-161.45 281,-150.6"/>
<polygon fill="#63b8ff" stroke="#63b8ff" points="284.5,-150.36 281,-140.36 277.5,-150.36 284.5,-150.36"/>
</g>
<!-- Node8&#45;&gt;Node4 -->
<g id="edge11" class="edge">
<title>Node8&#45;&gt;Node4</title>
<path fill="none" stroke="#63b8ff" d="M375.3,-181.37C359.61,-172.16 334.24,-157.26 313.76,-145.24"/>
<polygon fill="#63b8ff" stroke="#63b8ff" points="315.44,-142.16 305.04,-140.12 311.89,-148.2 315.44,-142.16"/>
</g>
</g>
</svg>
