<?xml version="1.0" encoding="UTF-8" standalone="no"?>
<!DOCTYPE svg PUBLIC "-//W3C//DTD SVG 1.1//EN"
 "http://www.w3.org/Graphics/SVG/1.1/DTD/svg11.dtd">
<!-- Generated by graphviz version 2.43.0 (0)
 -->
<!-- Title: src/general/types/FMC_structs.h Pages: 1 -->
<svg width="446pt" height="225pt"
 viewBox="0.00 0.00 445.50 225.00" xmlns="http://www.w3.org/2000/svg" xmlns:xlink="http://www.w3.org/1999/xlink">
<g id="graph0" class="graph" transform="scale(1 1) rotate(0) translate(4 221)">
<title>src/general/types/FMC_structs.h</title>
<!-- Node1 -->
<g id="node1" class="node">
<title>Node1</title>
<g id="a_node1"><a xlink:title=" ">
<polygon fill="#999999" stroke="#666666" points="272.5,-217 147.5,-217 147.5,-187 272.5,-187 272.5,-217"/>
<text text-anchor="start" x="155.5" y="-205" font-family="Helvetica,sans-Serif" font-size="10.00">src/general/types/FMC</text>
<text text-anchor="middle" x="210" y="-194" font-family="Helvetica,sans-Serif" font-size="10.00">_structs.h</text>
</a>
</g>
</g>
<!-- Node2 -->
<g id="node2" class="node">
<title>Node2</title>
<g id="a_node2"><a xlink:title=" ">
<polygon fill="#e0e0e0" stroke="#999999" points="50,-145.5 0,-145.5 0,-126.5 50,-126.5 50,-145.5"/>
<text text-anchor="middle" x="25" y="-133.5" font-family="Helvetica,sans-Serif" font-size="10.00">stdio.h</text>
</a>
</g>
</g>
<!-- Node1&#45;&gt;Node2 -->
<g id="edge1" class="edge">
<title>Node1&#45;&gt;Node2</title>
<path fill="none" stroke="#63b8ff" d="M164.78,-186.95C134.63,-177.36 94.21,-164.06 59,-151 57.58,-150.47 56.13,-149.92 54.67,-149.36"/>
<polygon fill="#63b8ff" stroke="#63b8ff" points="55.63,-145.97 45.04,-145.53 53.04,-152.48 55.63,-145.97"/>
</g>
<!-- Node3 -->
<g id="node3" class="node">
<title>Node3</title>
<g id="a_node3"><a xlink:href="../../da/dd3/FMC__consts_8h.html" target="_top" xlink:title=" ">
<polygon fill="white" stroke="#666666" points="181.5,-151 68.5,-151 68.5,-121 181.5,-121 181.5,-151"/>
<text text-anchor="start" x="76.5" y="-139" font-family="Helvetica,sans-Serif" font-size="10.00">../preprocessor/FMC</text>
<text text-anchor="middle" x="125" y="-128" font-family="Helvetica,sans-Serif" font-size="10.00">_consts.h</text>
</a>
</g>
</g>
<!-- Node1&#45;&gt;Node3 -->
<g id="edge2" class="edge">
<title>Node1&#45;&gt;Node3</title>
<path fill="none" stroke="#63b8ff" d="M191.14,-186.8C179.58,-178.1 164.61,-166.82 151.83,-157.2"/>
<polygon fill="#63b8ff" stroke="#63b8ff" points="153.91,-154.38 143.81,-151.16 149.69,-159.98 153.91,-154.38"/>
</g>
<!-- Node4 -->
<g id="node4" class="node">
<title>Node4</title>
<g id="a_node4"><a xlink:href="../../d0/d28/FMC__macros_8h.html" target="_top" xlink:title=" ">
<polygon fill="white" stroke="#666666" points="337.5,-85 224.5,-85 224.5,-55 337.5,-55 337.5,-85"/>
<text text-anchor="start" x="232.5" y="-73" font-family="Helvetica,sans-Serif" font-size="10.00">../preprocessor/FMC</text>
<text text-anchor="middle" x="281" y="-62" font-family="Helvetica,sans-Serif" font-size="10.00">_macros.h</text>
</a>
</g>
</g>
<!-- Node1&#45;&gt;Node4 -->
<g id="edge3" class="edge">
<title>Node1&#45;&gt;Node4</title>
<path fill="none" stroke="#63b8ff" d="M210.94,-186.82C212.58,-170.1 217.03,-141.95 229,-121 235.25,-110.07 244.61,-100.01 253.67,-91.82"/>
<polygon fill="#63b8ff" stroke="#63b8ff" points="256.16,-94.3 261.48,-85.14 251.61,-88.99 256.16,-94.3"/>
</g>
<!-- Node7 -->
<g id="node7" class="node">
<title>Node7</title>
<g id="a_node7"><a xlink:href="../../d6/d25/FMC__enums_8h.html" target="_top" xlink:title=" ">
<polygon fill="white" stroke="#666666" points="324,-145.5 238,-145.5 238,-126.5 324,-126.5 324,-145.5"/>
<text text-anchor="middle" x="281" y="-133.5" font-family="Helvetica,sans-Serif" font-size="10.00">FMC_enums.h</text>
</a>
</g>
</g>
<!-- Node1&#45;&gt;Node7 -->
<g id="edge7" class="edge">
<title>Node1&#45;&gt;Node7</title>
<path fill="none" stroke="#63b8ff" d="M225.76,-186.8C236.93,-176.72 251.94,-163.19 263.49,-152.78"/>
<polygon fill="#63b8ff" stroke="#63b8ff" points="266.1,-155.14 271.19,-145.84 261.42,-149.94 266.1,-155.14"/>
</g>
<!-- Node8 -->
<g id="node8" class="node">
<title>Node8</title>
<g id="a_node8"><a xlink:href="../../df/df8/FMC__typedefs_8h.html" target="_top" xlink:title=" ">
<polygon fill="white" stroke="#666666" points="437.5,-145.5 342.5,-145.5 342.5,-126.5 437.5,-126.5 437.5,-145.5"/>
<text text-anchor="middle" x="390" y="-133.5" font-family="Helvetica,sans-Serif" font-size="10.00">FMC_typedefs.h</text>
</a>
</g>
</g>
<!-- Node1&#45;&gt;Node8 -->
<g id="edge9" class="edge">
<title>Node1&#45;&gt;Node8</title>
<path fill="none" stroke="#63b8ff" d="M249.5,-186.95C281.49,-175.58 326.05,-159.74 356.35,-148.96"/>
<polygon fill="#63b8ff" stroke="#63b8ff" points="357.8,-152.17 366.05,-145.52 355.45,-145.57 357.8,-152.17"/>
</g>
<!-- Node5 -->
<g id="node5" class="node">
<title>Node5</title>
<g id="a_node5"><a xlink:href="../../d7/dff/FMC__platform_8h.html" target="_top" xlink:title=" ">
<polygon fill="white" stroke="#666666" points="212.5,-19 117.5,-19 117.5,0 212.5,0 212.5,-19"/>
<text text-anchor="middle" x="165" y="-7" font-family="Helvetica,sans-Serif" font-size="10.00">FMC_platform.h</text>
</a>
</g>
</g>
<!-- Node4&#45;&gt;Node5 -->
<g id="edge4" class="edge">
<title>Node4&#45;&gt;Node5</title>
<path fill="none" stroke="#63b8ff" d="M253.22,-54.99C234.38,-45.49 209.65,-33.02 191.16,-23.69"/>
<polygon fill="#63b8ff" stroke="#63b8ff" points="192.64,-20.52 182.13,-19.14 189.48,-26.77 192.64,-20.52"/>
</g>
<!-- Node6 -->
<g id="node6" class="node">
<title>Node6</title>
<g id="a_node6"><a xlink:href="../../d1/d2e/FMC__attributes_8h.html" target="_top" xlink:title=" ">
<polygon fill="white" stroke="#666666" points="331,-19 231,-19 231,0 331,0 331,-19"/>
<text text-anchor="middle" x="281" y="-7" font-family="Helvetica,sans-Serif" font-size="10.00">FMC_attributes.h</text>
</a>
</g>
</g>
<!-- Node4&#45;&gt;Node6 -->
<g id="edge5" class="edge">
<title>Node4&#45;&gt;Node6</title>
<path fill="none" stroke="#63b8ff" d="M275.12,-54.84C274.15,-47.21 273.99,-37.7 274.64,-29.45"/>
<polygon fill="#63b8ff" stroke="#63b8ff" points="278.14,-29.65 276.02,-19.27 271.21,-28.71 278.14,-29.65"/>
</g>
<!-- Node6&#45;&gt;Node4 -->
<g id="edge6" class="edge">
<title>Node6&#45;&gt;Node4</title>
<path fill="none" stroke="#63b8ff" d="M285.98,-19.27C287.42,-26.03 287.98,-35.72 287.66,-44.75"/>
<polygon fill="#63b8ff" stroke="#63b8ff" points="284.16,-44.6 286.88,-54.84 291.14,-45.14 284.16,-44.6"/>
</g>
<!-- Node7&#45;&gt;Node4 -->
<g id="edge8" class="edge">
<title>Node7&#45;&gt;Node4</title>
<path fill="none" stroke="#63b8ff" d="M281,-126.37C281,-118.49 281,-106.45 281,-95.6"/>
<polygon fill="#63b8ff" stroke="#63b8ff" points="284.5,-95.36 281,-85.36 277.5,-95.36 284.5,-95.36"/>
</g>
<!-- Node8&#45;&gt;Node4 -->
<g id="edge10" class="edge">
<title>Node8&#45;&gt;Node4</title>
<path fill="none" stroke="#63b8ff" d="M375.3,-126.37C359.61,-117.16 334.24,-102.26 313.76,-90.24"/>
<polygon fill="#63b8ff" stroke="#63b8ff" points="315.44,-87.16 305.04,-85.12 311.89,-93.2 315.44,-87.16"/>
</g>
</g>
</svg>
