<?xml version="1.0" encoding="UTF-8" standalone="no"?>
<!DOCTYPE svg PUBLIC "-//W3C//DTD SVG 1.1//EN"
 "http://www.w3.org/Graphics/SVG/1.1/DTD/svg11.dtd">
<!-- Generated by graphviz version 2.43.0 (0)
 -->
<!-- Title: src/files/FMC_files.c Pages: 1 -->
<svg width="851pt" height="357pt"
 viewBox="0.00 0.00 850.50 357.00" xmlns="http://www.w3.org/2000/svg" xmlns:xlink="http://www.w3.org/1999/xlink">
<g id="graph0" class="graph" transform="scale(1 1) rotate(0) translate(4 353)">
<title>src/files/FMC_files.c</title>
<!-- Node1 -->
<g id="node1" class="node">
<title>Node1</title>
<g id="a_node1"><a xlink:title=" ">
<polygon fill="#999999" stroke="#666666" points="325,-349 212,-349 212,-330 325,-330 325,-349"/>
<text text-anchor="middle" x="268.5" y="-337" font-family="Helvetica,sans-Serif" font-size="10.00">src/files/FMC_files.c</text>
</a>
</g>
</g>
<!-- Node2 -->
<g id="node2" class="node">
<title>Node2</title>
<g id="a_node2"><a xlink:href="../../d2/deb/FMC__file__management_8h.html" target="_top" xlink:title=" ">
<polygon fill="white" stroke="#666666" points="337.5,-294 199.5,-294 199.5,-275 337.5,-275 337.5,-294"/>
<text text-anchor="middle" x="268.5" y="-282" font-family="Helvetica,sans-Serif" font-size="10.00">FMC_file_management.h</text>
</a>
</g>
</g>
<!-- Node1&#45;&gt;Node2 -->
<g id="edge1" class="edge">
<title>Node1&#45;&gt;Node2</title>
<path fill="none" stroke="#63b8ff" d="M268.5,-329.75C268.5,-322.8 268.5,-312.85 268.5,-304.13"/>
<polygon fill="#63b8ff" stroke="#63b8ff" points="272,-304.09 268.5,-294.09 265,-304.09 272,-304.09"/>
</g>
<!-- Node3 -->
<g id="node3" class="node">
<title>Node3</title>
<g id="a_node3"><a xlink:href="../../d9/de1/FMC__general_8h.html" target="_top" xlink:title=" ">
<polygon fill="white" stroke="#666666" points="337.5,-239 199.5,-239 199.5,-220 337.5,-220 337.5,-239"/>
<text text-anchor="middle" x="268.5" y="-227" font-family="Helvetica,sans-Serif" font-size="10.00">../general/FMC_general.h</text>
</a>
</g>
</g>
<!-- Node2&#45;&gt;Node3 -->
<g id="edge2" class="edge">
<title>Node2&#45;&gt;Node3</title>
<path fill="none" stroke="#63b8ff" d="M268.5,-274.75C268.5,-267.8 268.5,-257.85 268.5,-249.13"/>
<polygon fill="#63b8ff" stroke="#63b8ff" points="272,-249.09 268.5,-239.09 265,-249.09 272,-249.09"/>
</g>
<!-- Node4 -->
<g id="node4" class="node">
<title>Node4</title>
<g id="a_node4"><a xlink:href="../../d0/d28/FMC__macros_8h.html" target="_top" xlink:title=" ">
<polygon fill="white" stroke="#666666" points="259,-74 104,-74 104,-55 259,-55 259,-74"/>
<text text-anchor="middle" x="181.5" y="-62" font-family="Helvetica,sans-Serif" font-size="10.00">preprocessor/FMC_macros.h</text>
</a>
</g>
</g>
<!-- Node3&#45;&gt;Node4 -->
<g id="edge3" class="edge">
<title>Node3&#45;&gt;Node4</title>
<path fill="none" stroke="#63b8ff" d="M199.29,-224.59C139.16,-219.57 58.62,-208.39 38.5,-184 21.02,-162.82 44.75,-127.55 63.5,-110 80.62,-93.98 104.07,-83.57 125.55,-76.89"/>
<polygon fill="#63b8ff" stroke="#63b8ff" points="126.63,-80.22 135.25,-74.07 124.68,-73.5 126.63,-80.22"/>
</g>
<!-- Node5 -->
<g id="node5" class="node">
<title>Node5</title>
<g id="a_node5"><a xlink:href="../../d7/dff/FMC__platform_8h.html" target="_top" xlink:title=" ">
<polygon fill="white" stroke="#666666" points="95,-19 0,-19 0,0 95,0 95,-19"/>
<text text-anchor="middle" x="47.5" y="-7" font-family="Helvetica,sans-Serif" font-size="10.00">FMC_platform.h</text>
</a>
</g>
</g>
<!-- Node3&#45;&gt;Node5 -->
<g id="edge7" class="edge">
<title>Node3&#45;&gt;Node5</title>
<path fill="none" stroke="#63b8ff" d="M199.33,-225.25C136.31,-220.66 49.91,-209.74 28.5,-184 -8.9,-139.03 20.9,-63.23 37.83,-28.66"/>
<polygon fill="#63b8ff" stroke="#63b8ff" points="41.16,-29.84 42.58,-19.34 34.92,-26.66 41.16,-29.84"/>
</g>
<!-- Node7 -->
<g id="node7" class="node">
<title>Node7</title>
<g id="a_node7"><a xlink:href="../../da/dd3/FMC__consts_8h.html" target="_top" xlink:title=" ">
<polygon fill="white" stroke="#666666" points="553.5,-129 403.5,-129 403.5,-110 553.5,-110 553.5,-129"/>
<text text-anchor="middle" x="478.5" y="-117" font-family="Helvetica,sans-Serif" font-size="10.00">preprocessor/FMC_consts.h</text>
</a>
</g>
</g>
<!-- Node3&#45;&gt;Node7 -->
<g id="edge8" class="edge">
<title>Node3&#45;&gt;Node7</title>
<path fill="none" stroke="#63b8ff" d="M293.54,-219.85C316.21,-211.67 350.29,-198.51 378.5,-184 407.36,-169.15 438.65,-148.48 458.4,-134.8"/>
<polygon fill="#63b8ff" stroke="#63b8ff" points="460.42,-137.66 466.61,-129.06 456.41,-131.92 460.42,-137.66"/>
</g>
<!-- Node8 -->
<g id="node8" class="node">
<title>Node8</title>
<g id="a_node8"><a xlink:href="../../d5/de5/FMC__structs_8h.html" target="_top" xlink:title=" ">
<polygon fill="white" stroke="#666666" points="369.5,-184 253.5,-184 253.5,-165 369.5,-165 369.5,-184"/>
<text text-anchor="middle" x="311.5" y="-172" font-family="Helvetica,sans-Serif" font-size="10.00">types/FMC_structs.h</text>
</a>
</g>
</g>
<!-- Node3&#45;&gt;Node8 -->
<g id="edge9" class="edge">
<title>Node3&#45;&gt;Node8</title>
<path fill="none" stroke="#63b8ff" d="M275.6,-219.75C281.67,-212.26 290.59,-201.28 298.01,-192.13"/>
<polygon fill="#63b8ff" stroke="#63b8ff" points="300.95,-194.06 304.53,-184.09 295.51,-189.65 300.95,-194.06"/>
</g>
<!-- Node10 -->
<g id="node10" class="node">
<title>Node10</title>
<g id="a_node10"><a xlink:href="../../d6/d25/FMC__enums_8h.html" target="_top" xlink:title=" ">
<polygon fill="white" stroke="#666666" points="279.5,-129 193.5,-129 193.5,-110 279.5,-110 279.5,-129"/>
<text text-anchor="middle" x="236.5" y="-117" font-family="Helvetica,sans-Serif" font-size="10.00">FMC_enums.h</text>
</a>
</g>
</g>
<!-- Node3&#45;&gt;Node10 -->
<g id="edge19" class="edge">
<title>Node3&#45;&gt;Node10</title>
<path fill="none" stroke="#63b8ff" d="M262.5,-219.74C256.88,-211.06 248.73,-197.21 244.5,-184 239.88,-169.58 237.91,-152.52 237.08,-139.71"/>
<polygon fill="#63b8ff" stroke="#63b8ff" points="240.56,-139.17 236.6,-129.35 233.57,-139.5 240.56,-139.17"/>
</g>
<!-- Node11 -->
<g id="node11" class="node">
<title>Node11</title>
<g id="a_node11"><a xlink:href="../../df/df8/FMC__typedefs_8h.html" target="_top" xlink:title=" ">
<polygon fill="white" stroke="#666666" points="175,-129 80,-129 80,-110 175,-110 175,-129"/>
<text text-anchor="middle" x="127.5" y="-117" font-family="Helvetica,sans-Serif" font-size="10.00">FMC_typedefs.h</text>
</a>
</g>
</g>
<!-- Node3&#45;&gt;Node11 -->
<g id="edge18" class="edge">
<title>Node3&#45;&gt;Node11</title>
<path fill="none" stroke="#63b8ff" d="M256.96,-219.66C232.78,-201.14 176.56,-158.08 146.79,-135.28"/>
<polygon fill="#63b8ff" stroke="#63b8ff" points="148.87,-132.46 138.8,-129.16 144.61,-138.02 148.87,-132.46"/>
</g>
<!-- Node12 -->
<g id="node12" class="node">
<title>Node12</title>
<g id="a_node12"><a xlink:href="../../d2/d5e/FMC__flags_8h.html" target="_top" xlink:title=" ">
<polygon fill="white" stroke="#666666" points="842.5,-184 700.5,-184 700.5,-165 842.5,-165 842.5,-184"/>
<text text-anchor="middle" x="771.5" y="-172" font-family="Helvetica,sans-Serif" font-size="10.00">preprocessor/FMC_flags.h</text>
</a>
</g>
</g>
<!-- Node3&#45;&gt;Node12 -->
<g id="edge17" class="edge">
<title>Node3&#45;&gt;Node12</title>
<path fill="none" stroke="#63b8ff" d="M337.74,-221.24C419.39,-212.67 559.51,-197.95 690.21,-184.14"/>
<polygon fill="#63b8ff" stroke="#63b8ff" points="690.82,-187.59 700.4,-183.06 690.09,-180.63 690.82,-187.59"/>
</g>
<!-- Node13 -->
<g id="node13" class="node">
<title>Node13</title>
<g id="a_node13"><a xlink:href="../../dd/ddf/FMC__errors_8h.html" target="_top" xlink:title=" ">
<polygon fill="white" stroke="#666666" points="531,-184 426,-184 426,-165 531,-165 531,-184"/>
<text text-anchor="middle" x="478.5" y="-172" font-family="Helvetica,sans-Serif" font-size="10.00">utils/FMC_errors.h</text>
</a>
</g>
</g>
<!-- Node3&#45;&gt;Node13 -->
<g id="edge20" class="edge">
<title>Node3&#45;&gt;Node13</title>
<path fill="none" stroke="#63b8ff" d="M302.24,-219.98C338.18,-210.91 395.22,-196.52 434.63,-186.57"/>
<polygon fill="#63b8ff" stroke="#63b8ff" points="435.66,-189.92 444.5,-184.08 433.94,-183.14 435.66,-189.92"/>
</g>
<!-- Node14 -->
<g id="node14" class="node">
<title>Node14</title>
<g id="a_node14"><a xlink:href="../../de/d86/FMC__globals_8h.html" target="_top" xlink:title=" ">
<polygon fill="white" stroke="#666666" points="159.5,-184 47.5,-184 47.5,-165 159.5,-165 159.5,-184"/>
<text text-anchor="middle" x="103.5" y="-172" font-family="Helvetica,sans-Serif" font-size="10.00">utils/FMC_globals.h</text>
</a>
</g>
</g>
<!-- Node3&#45;&gt;Node14 -->
<g id="edge24" class="edge">
<title>Node3&#45;&gt;Node14</title>
<path fill="none" stroke="#63b8ff" d="M241.99,-219.98C214.29,-211.09 170.64,-197.07 139.76,-187.15"/>
<polygon fill="#63b8ff" stroke="#63b8ff" points="140.81,-183.81 130.22,-184.08 138.67,-190.47 140.81,-183.81"/>
</g>
<!-- Node15 -->
<g id="node15" class="node">
<title>Node15</title>
<g id="a_node15"><a xlink:href="../../d4/d06/FMC__deprecated_8h.html" target="_top" xlink:title=" ">
<polygon fill="white" stroke="#666666" points="682,-184 551,-184 551,-165 682,-165 682,-184"/>
<text text-anchor="middle" x="616.5" y="-172" font-family="Helvetica,sans-Serif" font-size="10.00">utils/FMC_deprecated.h</text>
</a>
</g>
</g>
<!-- Node3&#45;&gt;Node15 -->
<g id="edge27" class="edge">
<title>Node3&#45;&gt;Node15</title>
<path fill="none" stroke="#63b8ff" d="M324.41,-219.98C385.96,-210.61 484.84,-195.55 550.24,-185.59"/>
<polygon fill="#63b8ff" stroke="#63b8ff" points="551.08,-189 560.44,-184.04 550.03,-182.08 551.08,-189"/>
</g>
<!-- Node4&#45;&gt;Node5 -->
<g id="edge4" class="edge">
<title>Node4&#45;&gt;Node5</title>
<path fill="none" stroke="#63b8ff" d="M159.97,-54.98C138.03,-46.3 103.76,-32.75 78.81,-22.88"/>
<polygon fill="#63b8ff" stroke="#63b8ff" points="80.01,-19.59 69.42,-19.17 77.43,-26.1 80.01,-19.59"/>
</g>
<!-- Node6 -->
<g id="node6" class="node">
<title>Node6</title>
<g id="a_node6"><a xlink:href="../../d1/d2e/FMC__attributes_8h.html" target="_top" xlink:title=" ">
<polygon fill="white" stroke="#666666" points="231.5,-19 131.5,-19 131.5,0 231.5,0 231.5,-19"/>
<text text-anchor="middle" x="181.5" y="-7" font-family="Helvetica,sans-Serif" font-size="10.00">FMC_attributes.h</text>
</a>
</g>
</g>
<!-- Node4&#45;&gt;Node6 -->
<g id="edge5" class="edge">
<title>Node4&#45;&gt;Node6</title>
<path fill="none" stroke="#63b8ff" d="M176.33,-54.75C174.84,-47.8 174.4,-37.85 175.02,-29.13"/>
<polygon fill="#63b8ff" stroke="#63b8ff" points="178.51,-29.47 176.37,-19.09 171.57,-28.53 178.51,-29.47"/>
</g>
<!-- Node6&#45;&gt;Node4 -->
<g id="edge6" class="edge">
<title>Node6&#45;&gt;Node4</title>
<path fill="none" stroke="#63b8ff" d="M186.63,-19.09C188.14,-25.99 188.59,-35.93 187.99,-44.66"/>
<polygon fill="#63b8ff" stroke="#63b8ff" points="184.5,-44.38 186.67,-54.75 191.44,-45.29 184.5,-44.38"/>
</g>
<!-- Node8&#45;&gt;Node4 -->
<g id="edge12" class="edge">
<title>Node8&#45;&gt;Node4</title>
<path fill="none" stroke="#63b8ff" d="M310.6,-164.96C308.76,-151.58 303.4,-125.61 288.5,-110 273.4,-94.18 251.83,-83.77 232.01,-77.03"/>
<polygon fill="#63b8ff" stroke="#63b8ff" points="233.04,-73.69 222.45,-74.01 230.93,-80.36 233.04,-73.69"/>
</g>
<!-- Node8&#45;&gt;Node7 -->
<g id="edge11" class="edge">
<title>Node8&#45;&gt;Node7</title>
<path fill="none" stroke="#63b8ff" d="M338.33,-164.98C366.37,-156.09 410.55,-142.07 441.8,-132.15"/>
<polygon fill="#63b8ff" stroke="#63b8ff" points="442.99,-135.44 451.46,-129.08 440.87,-128.77 442.99,-135.44"/>
</g>
<!-- Node9 -->
<g id="node9" class="node">
<title>Node9</title>
<g id="a_node9"><a xlink:title=" ">
<polygon fill="#e0e0e0" stroke="#999999" points="385.5,-129 335.5,-129 335.5,-110 385.5,-110 385.5,-129"/>
<text text-anchor="middle" x="360.5" y="-117" font-family="Helvetica,sans-Serif" font-size="10.00">stdio.h</text>
</a>
</g>
</g>
<!-- Node8&#45;&gt;Node9 -->
<g id="edge10" class="edge">
<title>Node8&#45;&gt;Node9</title>
<path fill="none" stroke="#63b8ff" d="M319.59,-164.75C326.66,-157.11 337.09,-145.82 345.65,-136.56"/>
<polygon fill="#63b8ff" stroke="#63b8ff" points="348.34,-138.81 352.56,-129.09 343.2,-134.06 348.34,-138.81"/>
</g>
<!-- Node8&#45;&gt;Node10 -->
<g id="edge13" class="edge">
<title>Node8&#45;&gt;Node10</title>
<path fill="none" stroke="#63b8ff" d="M299.45,-164.98C288.04,-156.92 270.67,-144.65 257.07,-135.03"/>
<polygon fill="#63b8ff" stroke="#63b8ff" points="258.96,-132.08 248.77,-129.17 254.92,-137.8 258.96,-132.08"/>
</g>
<!-- Node8&#45;&gt;Node11 -->
<g id="edge15" class="edge">
<title>Node8&#45;&gt;Node11</title>
<path fill="none" stroke="#63b8ff" d="M281.94,-164.98C250.78,-156.01 201.53,-141.82 167.04,-131.89"/>
<polygon fill="#63b8ff" stroke="#63b8ff" points="167.87,-128.49 157.29,-129.08 165.93,-135.21 167.87,-128.49"/>
</g>
<!-- Node10&#45;&gt;Node4 -->
<g id="edge14" class="edge">
<title>Node10&#45;&gt;Node4</title>
<path fill="none" stroke="#63b8ff" d="M227.42,-109.75C219.41,-102.03 207.54,-90.6 197.88,-81.28"/>
<polygon fill="#63b8ff" stroke="#63b8ff" points="200.04,-78.51 190.41,-74.09 195.19,-83.55 200.04,-78.51"/>
</g>
<!-- Node11&#45;&gt;Node4 -->
<g id="edge16" class="edge">
<title>Node11&#45;&gt;Node4</title>
<path fill="none" stroke="#63b8ff" d="M136.42,-109.75C144.28,-102.03 155.93,-90.6 165.42,-81.28"/>
<polygon fill="#63b8ff" stroke="#63b8ff" points="168.06,-83.59 172.75,-74.09 163.16,-78.6 168.06,-83.59"/>
</g>
<!-- Node13&#45;&gt;Node4 -->
<g id="edge23" class="edge">
<title>Node13&#45;&gt;Node4</title>
<path fill="none" stroke="#63b8ff" d="M506.73,-164.97C538.56,-153.96 583.34,-133.42 562.5,-110 543.33,-88.46 375.77,-75.7 269.34,-69.7"/>
<polygon fill="#63b8ff" stroke="#63b8ff" points="269.41,-66.2 259.24,-69.14 269.03,-73.19 269.41,-66.2"/>
</g>
<!-- Node13&#45;&gt;Node7 -->
<g id="edge22" class="edge">
<title>Node13&#45;&gt;Node7</title>
<path fill="none" stroke="#63b8ff" d="M478.5,-164.75C478.5,-157.8 478.5,-147.85 478.5,-139.13"/>
<polygon fill="#63b8ff" stroke="#63b8ff" points="482,-139.09 478.5,-129.09 475,-139.09 482,-139.09"/>
</g>
<!-- Node13&#45;&gt;Node9 -->
<g id="edge21" class="edge">
<title>Node13&#45;&gt;Node9</title>
<path fill="none" stroke="#63b8ff" d="M459.54,-164.98C440.47,-156.42 410.84,-143.11 388.95,-133.28"/>
<polygon fill="#63b8ff" stroke="#63b8ff" points="390.36,-130.07 379.8,-129.17 387.49,-136.46 390.36,-130.07"/>
</g>
<!-- Node14&#45;&gt;Node4 -->
<g id="edge26" class="edge">
<title>Node14&#45;&gt;Node4</title>
<path fill="none" stroke="#63b8ff" d="M93.19,-164.93C79.37,-152.39 57.97,-128.52 70.5,-110 81.25,-94.11 98.7,-83.9 116.61,-77.33"/>
<polygon fill="#63b8ff" stroke="#63b8ff" points="118.17,-80.5 126.57,-74.04 115.97,-73.85 118.17,-80.5"/>
</g>
<!-- Node14&#45;&gt;Node11 -->
<g id="edge25" class="edge">
<title>Node14&#45;&gt;Node11</title>
<path fill="none" stroke="#63b8ff" d="M107.46,-164.75C110.71,-157.57 115.42,-147.18 119.45,-138.27"/>
<polygon fill="#63b8ff" stroke="#63b8ff" points="122.67,-139.64 123.61,-129.09 116.3,-136.75 122.67,-139.64"/>
</g>
<!-- Node15&#45;&gt;Node6 -->
<g id="edge28" class="edge">
<title>Node15&#45;&gt;Node6</title>
<path fill="none" stroke="#63b8ff" d="M613.68,-164.6C608.81,-150.73 597.48,-124.09 578.5,-110 477.18,-34.79 325.38,-16.04 241.9,-11.62"/>
<polygon fill="#63b8ff" stroke="#63b8ff" points="241.97,-8.12 231.82,-11.14 241.64,-15.11 241.97,-8.12"/>
</g>
<!-- Node16 -->
<g id="node16" class="node">
<title>Node16</title>
<g id="a_node16"><a xlink:title=" ">
<polygon fill="#e0e0e0" stroke="#999999" points="703.5,-129 647.5,-129 647.5,-110 703.5,-110 703.5,-129"/>
<text text-anchor="middle" x="675.5" y="-117" font-family="Helvetica,sans-Serif" font-size="10.00">stddef.h</text>
</a>
</g>
</g>
<!-- Node15&#45;&gt;Node16 -->
<g id="edge29" class="edge">
<title>Node15&#45;&gt;Node16</title>
<path fill="none" stroke="#63b8ff" d="M625.98,-164.98C634.7,-157.15 647.84,-145.34 658.4,-135.86"/>
<polygon fill="#63b8ff" stroke="#63b8ff" points="660.75,-138.46 665.85,-129.17 656.07,-133.25 660.75,-138.46"/>
</g>
</g>
</svg>
