<?xml version="1.0" encoding="UTF-8" standalone="no"?>
<!DOCTYPE svg PUBLIC "-//W3C//DTD SVG 1.1//EN"
 "http://www.w3.org/Graphics/SVG/1.1/DTD/svg11.dtd">
<!-- Generated by graphviz version 7.1.0 (20230121.1956)
 -->
<!-- Title: src/general/utils/FMC_errors.h Pages: 1 -->
<svg width="302pt" height="159pt"
 viewBox="0.00 0.00 302.00 159.00" xmlns="http://www.w3.org/2000/svg" xmlns:xlink="http://www.w3.org/1999/xlink">
<g id="graph0" class="graph" transform="scale(1 1) rotate(0) translate(4 155)">
<title>src/general/utils/FMC_errors.h</title>
<!-- Node1 -->
<g id="node1" class="node">
<title>Node1</title>
<g id="a_node1"><a xlink:title=" ">
<polygon fill="#999999" stroke="#666666" points="172,-151 62,-151 62,-121 172,-121 172,-151"/>
<text text-anchor="start" x="70" y="-139" font-family="Helvetica,sans-Serif" font-size="10.00">src/general/utils/FMC</text>
<text text-anchor="middle" x="117" y="-128" font-family="Helvetica,sans-Serif" font-size="10.00">_errors.h</text>
</a>
</g>
</g>
<!-- Node2 -->
<g id="node2" class="node">
<title>Node2</title>
<g id="a_node2"><a xlink:title=" ">
<polygon fill="#e0e0e0" stroke="#999999" points="46,-79.5 0,-79.5 0,-60.5 46,-60.5 46,-79.5"/>
<text text-anchor="middle" x="23" y="-67.5" font-family="Helvetica,sans-Serif" font-size="10.00">stdio.h</text>
</a>
</g>
</g>
<!-- Node1&#45;&gt;Node2 -->
<g id="edge1" class="edge">
<title>Node1&#45;&gt;Node2</title>
<path fill="none" stroke="#63b8ff" d="M96.14,-120.8C81.05,-110.53 60.7,-96.67 45.29,-86.18"/>
<polygon fill="#63b8ff" stroke="#63b8ff" points="47.48,-83.43 37.24,-80.7 43.54,-89.22 47.48,-83.43"/>
</g>
<!-- Node3 -->
<g id="node3" class="node">
<title>Node3</title>
<g id="a_node3"><a xlink:href="../../d8/d6d/_f_m_c__consts_8h.html" target="_top" xlink:title=" ">
<polygon fill="white" stroke="#666666" points="170,-85 64,-85 64,-55 170,-55 170,-85"/>
<text text-anchor="start" x="72" y="-73" font-family="Helvetica,sans-Serif" font-size="10.00">../preprocessor/FMC</text>
<text text-anchor="middle" x="117" y="-62" font-family="Helvetica,sans-Serif" font-size="10.00">_consts.h</text>
</a>
</g>
</g>
<!-- Node1&#45;&gt;Node3 -->
<g id="edge2" class="edge">
<title>Node1&#45;&gt;Node3</title>
<path fill="none" stroke="#63b8ff" d="M117,-120.8C117,-113.67 117,-104.82 117,-96.56"/>
<polygon fill="#63b8ff" stroke="#63b8ff" points="120.5,-96.68 117,-86.68 113.5,-96.68 120.5,-96.68"/>
</g>
<!-- Node4 -->
<g id="node4" class="node">
<title>Node4</title>
<g id="a_node4"><a xlink:href="../../d0/d07/_f_m_c__macros_8h.html" target="_top" xlink:title=" ">
<polygon fill="white" stroke="#666666" points="294,-85 188,-85 188,-55 294,-55 294,-85"/>
<text text-anchor="start" x="196" y="-73" font-family="Helvetica,sans-Serif" font-size="10.00">../preprocessor/FMC</text>
<text text-anchor="middle" x="241" y="-62" font-family="Helvetica,sans-Serif" font-size="10.00">_macros.h</text>
</a>
</g>
</g>
<!-- Node1&#45;&gt;Node4 -->
<g id="edge3" class="edge">
<title>Node1&#45;&gt;Node4</title>
<path fill="none" stroke="#63b8ff" d="M144.83,-120.64C162.06,-111.74 184.41,-100.21 203.23,-90.49"/>
<polygon fill="#63b8ff" stroke="#63b8ff" points="204.64,-93.71 211.92,-86.01 201.43,-87.49 204.64,-93.71"/>
</g>
<!-- Node5 -->
<g id="node5" class="node">
<title>Node5</title>
<g id="a_node5"><a xlink:href="../../d0/dc4/_f_m_c__platform_8h.html" target="_top" xlink:title=" ">
<polygon fill="white" stroke="#666666" points="177,-19 91,-19 91,0 177,0 177,-19"/>
<text text-anchor="middle" x="134" y="-7" font-family="Helvetica,sans-Serif" font-size="10.00">FMC_platform.h</text>
</a>
</g>
</g>
<!-- Node4&#45;&gt;Node5 -->
<g id="edge4" class="edge">
<title>Node4&#45;&gt;Node5</title>
<path fill="none" stroke="#63b8ff" d="M214.55,-54.54C198,-45.49 176.76,-33.88 160.25,-24.85"/>
<polygon fill="#63b8ff" stroke="#63b8ff" points="161.96,-21.8 151.51,-20.07 158.6,-27.94 161.96,-21.8"/>
</g>
<!-- Node6 -->
<g id="node6" class="node">
<title>Node6</title>
<g id="a_node6"><a xlink:href="../../d4/d62/_f_m_c__attributes_8h.html" target="_top" xlink:title=" ">
<polygon fill="white" stroke="#666666" points="287,-19 195,-19 195,0 287,0 287,-19"/>
<text text-anchor="middle" x="241" y="-7" font-family="Helvetica,sans-Serif" font-size="10.00">FMC_attributes.h</text>
</a>
</g>
</g>
<!-- Node4&#45;&gt;Node6 -->
<g id="edge5" class="edge">
<title>Node4&#45;&gt;Node6</title>
<path fill="none" stroke="#63b8ff" d="M235.08,-54.54C234.19,-47.26 234.01,-38.31 234.57,-30.39"/>
<polygon fill="#63b8ff" stroke="#63b8ff" points="238.01,-31.05 235.84,-20.68 231.07,-30.14 238.01,-31.05"/>
</g>
<!-- Node6&#45;&gt;Node4 -->
<g id="edge6" class="edge">
<title>Node6&#45;&gt;Node4</title>
<path fill="none" stroke="#63b8ff" d="M245.96,-19.18C247.34,-25.58 247.92,-34.65 247.71,-43.3"/>
<polygon fill="#63b8ff" stroke="#63b8ff" points="244.23,-42.81 247.02,-53.03 251.21,-43.3 244.23,-42.81"/>
</g>
</g>
</svg>
