<?xml version="1.0" encoding="UTF-8" standalone="no"?>
<!DOCTYPE svg PUBLIC "-//W3C//DTD SVG 1.1//EN"
 "http://www.w3.org/Graphics/SVG/1.1/DTD/svg11.dtd">
<!-- Generated by graphviz version 7.1.0 (20230121.1956)
 -->
<!-- Title: FManC_StrOcc Pages: 1 -->
<svg width="152pt" height="115pt"
 viewBox="0.00 0.00 151.50 115.00" xmlns="http://www.w3.org/2000/svg" xmlns:xlink="http://www.w3.org/1999/xlink">
<g id="graph0" class="graph" transform="scale(1 1) rotate(0) translate(4 111)">
<title>FManC_StrOcc</title>
<!-- Node1 -->
<g id="node1" class="node">
<title>Node1</title>
<g id="a_node1"><a xlink:title=" ">
<polygon fill="#999999" stroke="#666666" points="106.5,-30 19.5,-30 19.5,0 106.5,0 106.5,-30"/>
<text text-anchor="middle" x="63" y="-18" font-family="Helvetica,sans-Serif" font-size="10.00">{FManC_StrOcc</text>
<text text-anchor="middle" x="63" y="-7" font-family="Helvetica,sans-Serif" font-size="10.00">||}</text>
</a>
</g>
</g>
<!-- Node2 -->
<g id="node2" class="node">
<title>Node2</title>
<g id="a_node2"><a xlink:title=" ">
<polygon fill="white" stroke="#666666" points="46,-107 0,-107 0,-77 46,-77 46,-107"/>
<text text-anchor="middle" x="23" y="-95" font-family="Helvetica,sans-Serif" font-size="10.00">{size_t</text>
<text text-anchor="middle" x="23" y="-84" font-family="Helvetica,sans-Serif" font-size="10.00">||}</text>
</a>
</g>
</g>
<!-- Node2&#45;&gt;Node1 -->
<g id="edge1" class="edge">
<title>Node2&#45;&gt;Node1</title>
<path fill="none" stroke="#404040" d="M22.2,-76.72C22.29,-67.99 23.48,-56.83 28,-48 29.51,-45.05 31.41,-42.24 33.54,-39.59"/>
<polygon fill="none" stroke="#404040" points="33.59,-39.54 34.89,-32.45 41.93,-30.92 40.63,-38.01 33.59,-39.54"/>
<text text-anchor="middle" x="55" y="-51" font-family="Helvetica,sans-Serif" font-size="10.00"> +charCount</text>
</g>
<!-- Node3 -->
<g id="node3" class="node">
<title>Node3</title>
<g id="a_node3"><a xlink:title=" ">
<polygon fill="white" stroke="#666666" points="143.5,-107 64.5,-107 64.5,-77 143.5,-77 143.5,-107"/>
<text text-anchor="middle" x="104" y="-95" font-family="Helvetica,sans-Serif" font-size="10.00">{long long int *</text>
<text text-anchor="middle" x="104" y="-84" font-family="Helvetica,sans-Serif" font-size="10.00">||}</text>
</a>
</g>
</g>
<!-- Node3&#45;&gt;Node1 -->
<g id="edge2" class="edge">
<title>Node3&#45;&gt;Node1</title>
<path fill="none" stroke="#404040" d="M96.89,-76.55C92.69,-68.15 87.19,-57.4 82,-48 80.78,-45.79 79.49,-43.52 78.19,-41.24"/>
<polygon fill="none" stroke="#404040" points="78.25,-41.35 71.76,-38.2 72.16,-31 78.65,-34.15 78.25,-41.35"/>
<text text-anchor="middle" x="99.5" y="-51" font-family="Helvetica,sans-Serif" font-size="10.00"> +pos</text>
</g>
</g>
</svg>
