<?xml version="1.0" encoding="UTF-8" standalone="no"?>
<!DOCTYPE svg PUBLIC "-//W3C//DTD SVG 1.1//EN"
 "http://www.w3.org/Graphics/SVG/1.1/DTD/svg11.dtd">
<!-- Generated by graphviz version 2.43.0 (0)
 -->
<!-- Title: src/general/utils/FMC_errors.h Pages: 1 -->
<svg width="816pt" height="291pt"
 viewBox="0.00 0.00 815.71 291.00" xmlns="http://www.w3.org/2000/svg" xmlns:xlink="http://www.w3.org/1999/xlink">
<g id="graph0" class="graph" transform="scale(1 1) rotate(0) translate(4 287)">
<title>src/general/utils/FMC_errors.h</title>
<!-- Node1 -->
<g id="node1" class="node">
<title>Node1</title>
<g id="a_node1"><a xlink:title=" ">
<polygon fill="#999999" stroke="#666666" points="351.71,-283 232.71,-283 232.71,-253 351.71,-253 351.71,-283"/>
<text text-anchor="start" x="240.71" y="-271" font-family="Helvetica,sans-Serif" font-size="10.00">src/general/utils/FMC</text>
<text text-anchor="middle" x="292.21" y="-260" font-family="Helvetica,sans-Serif" font-size="10.00">_errors.h</text>
</a>
</g>
</g>
<!-- Node2 -->
<g id="node2" class="node">
<title>Node2</title>
<g id="a_node2"><a xlink:href="../../d9/de1/FMC__general_8h.html" target="_top" xlink:title=" ">
<polygon fill="white" stroke="#666666" points="290.21,-211.5 144.21,-211.5 144.21,-192.5 290.21,-192.5 290.21,-211.5"/>
<text text-anchor="middle" x="217.21" y="-199.5" font-family="Helvetica,sans-Serif" font-size="10.00">src/general/FMC_general.h</text>
</a>
</g>
</g>
<!-- Node1&#45;&gt;Node2 -->
<g id="edge1" class="edge">
<title>Node1&#45;&gt;Node2</title>
<path fill="none" stroke="#63b8ff" d="M267.91,-246.26C254.26,-234.61 237.94,-220.69 227.58,-211.84"/>
<polygon fill="#63b8ff" stroke="#63b8ff" points="265.69,-248.97 275.57,-252.8 270.23,-243.64 265.69,-248.97"/>
</g>
<!-- Node13 -->
<g id="node13" class="node">
<title>Node13</title>
<g id="a_node13"><a xlink:href="../../de/dab/FMC__errors_8c.html" target="_top" xlink:title=" ">
<polygon fill="white" stroke="#666666" points="427.71,-217 308.71,-217 308.71,-187 427.71,-187 427.71,-217"/>
<text text-anchor="start" x="316.71" y="-205" font-family="Helvetica,sans-Serif" font-size="10.00">src/general/utils/FMC</text>
<text text-anchor="middle" x="368.21" y="-194" font-family="Helvetica,sans-Serif" font-size="10.00">_errors.c</text>
</a>
</g>
</g>
<!-- Node1&#45;&gt;Node13 -->
<g id="edge16" class="edge">
<title>Node1&#45;&gt;Node13</title>
<path fill="none" stroke="#63b8ff" d="M316.91,-246.2C328.2,-236.7 341.27,-225.69 351.4,-217.16"/>
<polygon fill="#63b8ff" stroke="#63b8ff" points="314.48,-243.68 309.08,-252.8 318.99,-249.03 314.48,-243.68"/>
</g>
<!-- Node3 -->
<g id="node3" class="node">
<title>Node3</title>
<g id="a_node3"><a xlink:href="../../de/d47/FMC_8h.html" target="_top" xlink:title=" ">
<polygon fill="white" stroke="#666666" points="187.71,-19 122.71,-19 122.71,0 187.71,0 187.71,-19"/>
<text text-anchor="middle" x="155.21" y="-7" font-family="Helvetica,sans-Serif" font-size="10.00">src/FMC.h</text>
</a>
</g>
</g>
<!-- Node2&#45;&gt;Node3 -->
<g id="edge2" class="edge">
<title>Node2&#45;&gt;Node3</title>
<path fill="none" stroke="#63b8ff" d="M134.17,-191.89C82.26,-184.29 22.31,-171.36 6.21,-151 -15.36,-123.72 27.41,-62.36 35.21,-55 59.3,-32.29 96,-20.94 122.47,-15.42"/>
<polygon fill="#63b8ff" stroke="#63b8ff" points="133.7,-195.36 144.09,-193.29 134.68,-188.43 133.7,-195.36"/>
</g>
<!-- Node4 -->
<g id="node4" class="node">
<title>Node4</title>
<g id="a_node4"><a xlink:href="../../db/d26/FMC__code__utils_8h.html" target="_top" xlink:title=" ">
<polygon fill="white" stroke="#666666" points="123.21,-151 15.21,-151 15.21,-121 123.21,-121 123.21,-151"/>
<text text-anchor="start" x="23.21" y="-139" font-family="Helvetica,sans-Serif" font-size="10.00">src/code_utils/FMC</text>
<text text-anchor="middle" x="69.21" y="-128" font-family="Helvetica,sans-Serif" font-size="10.00">_code_utils.h</text>
</a>
</g>
</g>
<!-- Node2&#45;&gt;Node4 -->
<g id="edge3" class="edge">
<title>Node2&#45;&gt;Node4</title>
<path fill="none" stroke="#63b8ff" d="M187.99,-188.36C163.18,-177.63 127.6,-162.25 101.86,-151.12"/>
<polygon fill="#63b8ff" stroke="#63b8ff" points="186.69,-191.61 197.25,-192.37 189.47,-185.19 186.69,-191.61"/>
</g>
<!-- Node5 -->
<g id="node5" class="node">
<title>Node5</title>
<g id="a_node5"><a xlink:href="../../db/d30/FMC__encodings_8h.html" target="_top" xlink:title=" ">
<polygon fill="white" stroke="#666666" points="293.21,-151 141.21,-151 141.21,-121 293.21,-121 293.21,-151"/>
<text text-anchor="start" x="149.21" y="-139" font-family="Helvetica,sans-Serif" font-size="10.00">src/data_analyze/encodings</text>
<text text-anchor="middle" x="217.21" y="-128" font-family="Helvetica,sans-Serif" font-size="10.00">/FMC_encodings.h</text>
</a>
</g>
</g>
<!-- Node2&#45;&gt;Node5 -->
<g id="edge5" class="edge">
<title>Node2&#45;&gt;Node5</title>
<path fill="none" stroke="#63b8ff" d="M217.21,-182.35C217.21,-172.47 217.21,-160.51 217.21,-151.36"/>
<polygon fill="#63b8ff" stroke="#63b8ff" points="213.71,-182.37 217.21,-192.37 220.71,-182.37 213.71,-182.37"/>
</g>
<!-- Node8 -->
<g id="node8" class="node">
<title>Node8</title>
<g id="a_node8"><a xlink:href="../../d9/db5/FMC__strings_8h.html" target="_top" xlink:title=" ">
<polygon fill="white" stroke="#666666" points="446.71,-151 311.71,-151 311.71,-121 446.71,-121 446.71,-151"/>
<text text-anchor="start" x="319.71" y="-139" font-family="Helvetica,sans-Serif" font-size="10.00">src/data_analyze/strings</text>
<text text-anchor="middle" x="379.21" y="-128" font-family="Helvetica,sans-Serif" font-size="10.00">/FMC_strings.h</text>
</a>
</g>
</g>
<!-- Node2&#45;&gt;Node8 -->
<g id="edge9" class="edge">
<title>Node2&#45;&gt;Node8</title>
<path fill="none" stroke="#63b8ff" d="M248.49,-188.65C275.67,-177.9 315.06,-162.35 343.48,-151.12"/>
<polygon fill="#63b8ff" stroke="#63b8ff" points="247.08,-185.44 239.06,-192.37 249.65,-191.95 247.08,-185.44"/>
</g>
<!-- Node10 -->
<g id="node10" class="node">
<title>Node10</title>
<g id="a_node10"><a xlink:href="../../d2/deb/FMC__file__management_8h.html" target="_top" xlink:title=" ">
<polygon fill="white" stroke="#666666" points="620.71,-151 521.71,-151 521.71,-121 620.71,-121 620.71,-151"/>
<text text-anchor="start" x="529.71" y="-139" font-family="Helvetica,sans-Serif" font-size="10.00">src/files/FMC_file</text>
<text text-anchor="middle" x="571.21" y="-128" font-family="Helvetica,sans-Serif" font-size="10.00">_management.h</text>
</a>
</g>
</g>
<!-- Node2&#45;&gt;Node10 -->
<g id="edge12" class="edge">
<title>Node2&#45;&gt;Node10</title>
<path fill="none" stroke="#63b8ff" d="M274.78,-190.59C343.33,-178.2 456.69,-157.71 521.56,-145.98"/>
<polygon fill="#63b8ff" stroke="#63b8ff" points="273.81,-187.21 264.59,-192.44 275.05,-194.1 273.81,-187.21"/>
</g>
<!-- Node4&#45;&gt;Node3 -->
<g id="edge4" class="edge">
<title>Node4&#45;&gt;Node3</title>
<path fill="none" stroke="#63b8ff" d="M52.18,-112.23C41.78,-95.32 32.52,-72.29 44.21,-55 61.61,-29.29 96.54,-18.43 122.6,-13.85"/>
<polygon fill="#63b8ff" stroke="#63b8ff" points="49.51,-114.52 57.95,-120.92 55.34,-110.65 49.51,-114.52"/>
</g>
<!-- Node6 -->
<g id="node6" class="node">
<title>Node6</title>
<g id="a_node6"><a xlink:href="../../da/db0/FMC__data__analyze_8h.html" target="_top" xlink:title=" ">
<polygon fill="white" stroke="#666666" points="347.21,-85 223.21,-85 223.21,-55 347.21,-55 347.21,-85"/>
<text text-anchor="start" x="231.21" y="-73" font-family="Helvetica,sans-Serif" font-size="10.00">src/data_analyze/FMC</text>
<text text-anchor="middle" x="285.21" y="-62" font-family="Helvetica,sans-Serif" font-size="10.00">_data_analyze.h</text>
</a>
</g>
</g>
<!-- Node5&#45;&gt;Node6 -->
<g id="edge6" class="edge">
<title>Node5&#45;&gt;Node6</title>
<path fill="none" stroke="#63b8ff" d="M239.61,-113.92C249.64,-104.49 261.19,-93.61 270.17,-85.16"/>
<polygon fill="#63b8ff" stroke="#63b8ff" points="237.19,-111.39 232.31,-120.8 241.99,-116.49 237.19,-111.39"/>
</g>
<!-- Node7 -->
<g id="node7" class="node">
<title>Node7</title>
<g id="a_node7"><a xlink:href="../../db/dc4/FMC__encodings_8c.html" target="_top" xlink:title=" ">
<polygon fill="white" stroke="#666666" points="205.21,-85 53.21,-85 53.21,-55 205.21,-55 205.21,-85"/>
<text text-anchor="start" x="61.21" y="-73" font-family="Helvetica,sans-Serif" font-size="10.00">src/data_analyze/encodings</text>
<text text-anchor="middle" x="129.21" y="-62" font-family="Helvetica,sans-Serif" font-size="10.00">/FMC_encodings.c</text>
</a>
</g>
</g>
<!-- Node5&#45;&gt;Node7 -->
<g id="edge8" class="edge">
<title>Node5&#45;&gt;Node7</title>
<path fill="none" stroke="#63b8ff" d="M189.38,-114.75C176.14,-105.13 160.64,-93.86 148.69,-85.16"/>
<polygon fill="#63b8ff" stroke="#63b8ff" points="187.54,-117.75 197.68,-120.8 191.66,-112.08 187.54,-117.75"/>
</g>
<!-- Node6&#45;&gt;Node3 -->
<g id="edge7" class="edge">
<title>Node6&#45;&gt;Node3</title>
<path fill="none" stroke="#63b8ff" d="M244.71,-50.77C221.27,-40.22 192.84,-27.43 174.41,-19.14"/>
<polygon fill="#63b8ff" stroke="#63b8ff" points="243.52,-54.08 254.08,-54.99 246.39,-47.69 243.52,-54.08"/>
</g>
<!-- Node8&#45;&gt;Node6 -->
<g id="edge10" class="edge">
<title>Node8&#45;&gt;Node6</title>
<path fill="none" stroke="#63b8ff" d="M349.88,-115.03C335.66,-105.34 318.91,-93.94 306.02,-85.16"/>
<polygon fill="#63b8ff" stroke="#63b8ff" points="348.12,-118.06 358.35,-120.8 352.06,-112.28 348.12,-118.06"/>
</g>
<!-- Node9 -->
<g id="node9" class="node">
<title>Node9</title>
<g id="a_node9"><a xlink:href="../../d1/d8c/FMC__chars_8c.html" target="_top" xlink:title=" ">
<polygon fill="white" stroke="#666666" points="500.71,-85 365.71,-85 365.71,-55 500.71,-55 500.71,-85"/>
<text text-anchor="start" x="373.71" y="-73" font-family="Helvetica,sans-Serif" font-size="10.00">src/data_analyze/strings</text>
<text text-anchor="middle" x="433.21" y="-62" font-family="Helvetica,sans-Serif" font-size="10.00">/FMC_chars.c</text>
</a>
</g>
</g>
<!-- Node8&#45;&gt;Node9 -->
<g id="edge11" class="edge">
<title>Node8&#45;&gt;Node9</title>
<path fill="none" stroke="#63b8ff" d="M397.7,-113.09C405.5,-103.85 414.35,-93.36 421.26,-85.16"/>
<polygon fill="#63b8ff" stroke="#63b8ff" points="394.97,-110.9 391.2,-120.8 400.32,-115.41 394.97,-110.9"/>
</g>
<!-- Node10&#45;&gt;Node3 -->
<g id="edge13" class="edge">
<title>Node10&#45;&gt;Node3</title>
<path fill="none" stroke="#63b8ff" d="M559.88,-111.88C549.43,-93.24 532.09,-68.05 509.21,-55 454.73,-23.93 264.94,-14.17 188,-11.45"/>
<polygon fill="#63b8ff" stroke="#63b8ff" points="556.91,-113.76 564.71,-120.93 563.09,-110.46 556.91,-113.76"/>
</g>
<!-- Node11 -->
<g id="node11" class="node">
<title>Node11</title>
<g id="a_node11"><a xlink:href="../../d0/dc0/FMC__files_8c.html" target="_top" xlink:title=" ">
<polygon fill="white" stroke="#666666" points="670.71,-79.5 557.71,-79.5 557.71,-60.5 670.71,-60.5 670.71,-79.5"/>
<text text-anchor="middle" x="614.21" y="-67.5" font-family="Helvetica,sans-Serif" font-size="10.00">src/files/FMC_files.c</text>
</a>
</g>
</g>
<!-- Node10&#45;&gt;Node11 -->
<g id="edge14" class="edge">
<title>Node10&#45;&gt;Node11</title>
<path fill="none" stroke="#63b8ff" d="M586.48,-112.28C594.01,-101.07 602.66,-88.19 608.27,-79.84"/>
<polygon fill="#63b8ff" stroke="#63b8ff" points="583.43,-110.54 580.76,-120.8 589.24,-114.45 583.43,-110.54"/>
</g>
<!-- Node12 -->
<g id="node12" class="node">
<title>Node12</title>
<g id="a_node12"><a xlink:href="../../dc/d5e/FMC__paths_8c.html" target="_top" xlink:title=" ">
<polygon fill="white" stroke="#666666" points="807.71,-79.5 688.71,-79.5 688.71,-60.5 807.71,-60.5 807.71,-79.5"/>
<text text-anchor="middle" x="748.21" y="-67.5" font-family="Helvetica,sans-Serif" font-size="10.00">src/files/FMC_paths.c</text>
</a>
</g>
</g>
<!-- Node10&#45;&gt;Node12 -->
<g id="edge15" class="edge">
<title>Node10&#45;&gt;Node12</title>
<path fill="none" stroke="#63b8ff" d="M619.84,-117.42C653.94,-105.09 698.03,-89.15 724.66,-79.52"/>
<polygon fill="#63b8ff" stroke="#63b8ff" points="618.27,-114.26 610.06,-120.95 620.65,-120.85 618.27,-114.26"/>
</g>
</g>
</svg>
