<?xml version="1.0" encoding="UTF-8" standalone="no"?>
<!DOCTYPE svg PUBLIC "-//W3C//DTD SVG 1.1//EN"
 "http://www.w3.org/Graphics/SVG/1.1/DTD/svg11.dtd">
<!-- Generated by graphviz version 2.43.0 (0)
 -->
<!-- Title: free_stringOccurrences Pages: 1 -->
<svg width="420pt" height="46pt"
 viewBox="0.00 0.00 420.00 46.00" xmlns="http://www.w3.org/2000/svg" xmlns:xlink="http://www.w3.org/1999/xlink">
<g id="graph0" class="graph" transform="scale(1 1) rotate(0) translate(4 42)">
<title>free_stringOccurrences</title>
<!-- Node1 -->
<g id="node1" class="node">
<title>Node1</title>
<g id="a_node1"><a xlink:title=" ">
<polygon fill="#999999" stroke="#666666" points="412,-38 283,-38 283,-19 412,-19 412,-38"/>
<text text-anchor="middle" x="347.5" y="-26" font-family="Helvetica,sans-Serif" font-size="10.00">free_stringOccurrences</text>
</a>
</g>
</g>
<!-- Node2 -->
<g id="node2" class="node">
<title>Node2</title>
<g id="a_node2"><a xlink:href="../../d7/d93/analyze_8c.html#ae5a02aaad7ac0820d0b9c6c96c77abb9" target="_top" xlink:title=" ">
<polygon fill="white" stroke="#666666" points="107,-38 0,-38 0,-19 107,-19 107,-38"/>
<text text-anchor="middle" x="53.5" y="-26" font-family="Helvetica,sans-Serif" font-size="10.00">replaceStringInFile</text>
</a>
</g>
</g>
<!-- Node1&#45;&gt;Node2 -->
<g id="edge1" class="edge">
<title>Node1&#45;&gt;Node2</title>
<path fill="none" stroke="#63b8ff" d="M272.7,-28.5C221.15,-28.5 153.56,-28.5 107.35,-28.5"/>
<polygon fill="#63b8ff" stroke="#63b8ff" points="272.78,-32 282.78,-28.5 272.78,-25 272.78,-32"/>
</g>
<!-- Node3 -->
<g id="node3" class="node">
<title>Node3</title>
<g id="a_node3"><a xlink:href="../../d7/d93/analyze_8c.html#ab029b1afb2f8a964dd116b825baf8741" target="_top" xlink:title=" ">
<polygon fill="white" stroke="#666666" points="247,-19 143,-19 143,0 247,0 247,-19"/>
<text text-anchor="middle" x="195" y="-7" font-family="Helvetica,sans-Serif" font-size="10.00">searchStringInFile</text>
</a>
</g>
</g>
<!-- Node1&#45;&gt;Node3 -->
<g id="edge2" class="edge">
<title>Node1&#45;&gt;Node3</title>
<path fill="none" stroke="#63b8ff" d="M272.61,-19.17C264,-18.08 255.36,-16.99 247.16,-15.96"/>
<polygon fill="#63b8ff" stroke="#63b8ff" points="272.31,-22.66 282.67,-20.44 273.19,-15.72 272.31,-22.66"/>
</g>
<!-- Node3&#45;&gt;Node2 -->
<g id="edge3" class="edge">
<title>Node3&#45;&gt;Node2</title>
<path fill="none" stroke="#63b8ff" d="M132.86,-17.83C124.26,-19 115.47,-20.2 107.05,-21.34"/>
<polygon fill="#63b8ff" stroke="#63b8ff" points="133.41,-21.28 142.85,-16.47 132.47,-14.35 133.41,-21.28"/>
</g>
</g>
</svg>
