<?xml version="1.0" encoding="UTF-8" standalone="no"?>
<!DOCTYPE svg PUBLIC "-//W3C//DTD SVG 1.1//EN"
 "http://www.w3.org/Graphics/SVG/1.1/DTD/svg11.dtd">
<!-- Generated by graphviz version 2.43.0 (0)
 -->
<!-- Title: init_stringOccurences Pages: 1 -->
<svg width="413pt" height="27pt"
 viewBox="0.00 0.00 413.00 27.00" xmlns="http://www.w3.org/2000/svg" xmlns:xlink="http://www.w3.org/1999/xlink">
<g id="graph0" class="graph" transform="scale(1 1) rotate(0) translate(4 23)">
<title>init_stringOccurences</title>
<!-- Node1 -->
<g id="node1" class="node">
<title>Node1</title>
<g id="a_node1"><a xlink:title=" ">
<polygon fill="#999999" stroke="#666666" points="405,-19 283,-19 283,0 405,0 405,-19"/>
<text text-anchor="middle" x="344" y="-7" font-family="Helvetica,sans-Serif" font-size="10.00">init_stringOccurences</text>
</a>
</g>
</g>
<!-- Node2 -->
<g id="node2" class="node">
<title>Node2</title>
<g id="a_node2"><a xlink:href="../../d7/d93/analyze_8c.html#ab029b1afb2f8a964dd116b825baf8741" target="_top" xlink:title=" ">
<polygon fill="white" stroke="#666666" points="247,-19 143,-19 143,0 247,0 247,-19"/>
<text text-anchor="middle" x="195" y="-7" font-family="Helvetica,sans-Serif" font-size="10.00">searchStringInFile</text>
</a>
</g>
</g>
<!-- Node1&#45;&gt;Node2 -->
<g id="edge1" class="edge">
<title>Node1&#45;&gt;Node2</title>
<path fill="none" stroke="#63b8ff" d="M272.52,-9.5C264.06,-9.5 255.55,-9.5 247.43,-9.5"/>
<polygon fill="#63b8ff" stroke="#63b8ff" points="272.79,-13 282.79,-9.5 272.79,-6 272.79,-13"/>
</g>
<!-- Node3 -->
<g id="node3" class="node">
<title>Node3</title>
<g id="a_node3"><a xlink:href="../../d7/d93/analyze_8c.html#ae5a02aaad7ac0820d0b9c6c96c77abb9" target="_top" xlink:title=" ">
<polygon fill="white" stroke="#666666" points="107,-19 0,-19 0,0 107,0 107,-19"/>
<text text-anchor="middle" x="53.5" y="-7" font-family="Helvetica,sans-Serif" font-size="10.00">replaceStringInFile</text>
</a>
</g>
</g>
<!-- Node2&#45;&gt;Node3 -->
<g id="edge2" class="edge">
<title>Node2&#45;&gt;Node3</title>
<path fill="none" stroke="#63b8ff" d="M132.58,-9.5C124.07,-9.5 115.38,-9.5 107.05,-9.5"/>
<polygon fill="#63b8ff" stroke="#63b8ff" points="132.85,-13 142.85,-9.5 132.85,-6 132.85,-13"/>
</g>
</g>
</svg>
