<?xml version="1.0" encoding="UTF-8" standalone="no"?>
<!DOCTYPE svg PUBLIC "-//W3C//DTD SVG 1.1//EN"
 "http://www.w3.org/Graphics/SVG/1.1/DTD/svg11.dtd">
<!-- Generated by graphviz version 2.43.0 (0)
 -->
<!-- Title: searchStringInFile Pages: 1 -->
<svg width="277pt" height="101pt"
 viewBox="0.00 0.00 277.00 101.00" xmlns="http://www.w3.org/2000/svg" xmlns:xlink="http://www.w3.org/1999/xlink">
<g id="graph0" class="graph" transform="scale(1 1) rotate(0) translate(4 97)">
<title>searchStringInFile</title>
<!-- Node1 -->
<g id="node1" class="node">
<title>Node1</title>
<g id="a_node1"><a xlink:title=" ">
<polygon fill="#999999" stroke="#666666" points="104,-56 0,-56 0,-37 104,-37 104,-56"/>
<text text-anchor="middle" x="52" y="-44" font-family="Helvetica,sans-Serif" font-size="10.00">searchStringInFile</text>
</a>
</g>
</g>
<!-- Node2 -->
<g id="node2" class="node">
<title>Node2</title>
<g id="a_node2"><a xlink:href="../../d7/d93/analyze_8c.html#a2fae470a9f2ba64ed544ecb0efdf3113" target="_top" xlink:title=" ">
<polygon fill="white" stroke="#666666" points="250.5,-93 158.5,-93 158.5,-74 250.5,-74 250.5,-93"/>
<text text-anchor="middle" x="204.5" y="-81" font-family="Helvetica,sans-Serif" font-size="10.00">countCharInFile</text>
</a>
</g>
</g>
<!-- Node1&#45;&gt;Node2 -->
<g id="edge1" class="edge">
<title>Node1&#45;&gt;Node2</title>
<path fill="none" stroke="#63b8ff" d="M91.76,-56.03C110.99,-60.76 134.43,-66.52 154.86,-71.54"/>
<polygon fill="#63b8ff" stroke="#63b8ff" points="154.07,-74.95 164.61,-73.94 155.74,-68.15 154.07,-74.95"/>
</g>
<!-- Node3 -->
<g id="node3" class="node">
<title>Node3</title>
<g id="a_node3"><a xlink:href="../../d7/d93/analyze_8c.html#a04ae2138b1c3b361f9556bd30db30c23" target="_top" xlink:title=" ">
<polygon fill="white" stroke="#666666" points="269,-56 140,-56 140,-37 269,-37 269,-56"/>
<text text-anchor="middle" x="204.5" y="-44" font-family="Helvetica,sans-Serif" font-size="10.00">free_stringOccurrences</text>
</a>
</g>
</g>
<!-- Node1&#45;&gt;Node3 -->
<g id="edge2" class="edge">
<title>Node1&#45;&gt;Node3</title>
<path fill="none" stroke="#63b8ff" d="M104.37,-46.5C112.57,-46.5 121.2,-46.5 129.79,-46.5"/>
<polygon fill="#63b8ff" stroke="#63b8ff" points="129.85,-50 139.85,-46.5 129.85,-43 129.85,-50"/>
</g>
<!-- Node4 -->
<g id="node4" class="node">
<title>Node4</title>
<g id="a_node4"><a xlink:href="../../d7/d93/analyze_8c.html#a615c6ba607d2b90929bc2a8b1fe5e5f6" target="_top" xlink:title=" ">
<polygon fill="white" stroke="#666666" points="265.5,-19 143.5,-19 143.5,0 265.5,0 265.5,-19"/>
<text text-anchor="middle" x="204.5" y="-7" font-family="Helvetica,sans-Serif" font-size="10.00">init_StringOccurences</text>
</a>
</g>
</g>
<!-- Node1&#45;&gt;Node4 -->
<g id="edge3" class="edge">
<title>Node1&#45;&gt;Node4</title>
<path fill="none" stroke="#63b8ff" d="M91.76,-36.97C110.99,-32.24 134.43,-26.48 154.86,-21.46"/>
<polygon fill="#63b8ff" stroke="#63b8ff" points="155.74,-24.85 164.61,-19.06 154.07,-18.05 155.74,-24.85"/>
</g>
</g>
</svg>
