<?xml version="1.0" encoding="UTF-8" standalone="no"?>
<!DOCTYPE svg PUBLIC "-//W3C//DTD SVG 1.1//EN"
 "http://www.w3.org/Graphics/SVG/1.1/DTD/svg11.dtd">
<!-- Generated by graphviz version 2.43.0 (0)
 -->
<!-- Title: FManC_StrOcc Pages: 1 -->
<svg width="158pt" height="171pt"
 viewBox="0.00 0.00 157.50 171.00" xmlns="http://www.w3.org/2000/svg" xmlns:xlink="http://www.w3.org/1999/xlink">
<g id="graph0" class="graph" transform="scale(1 1) rotate(0) translate(4 167)">
<title>FManC_StrOcc</title>
<!-- Node1 -->
<g id="node1" class="node">
<title>Node1</title>
<g id="a_node1"><a xlink:title=" ">
<polygon fill="#999999" stroke="#666666" points="21,-0.5 21,-57.5 108,-57.5 108,-0.5 21,-0.5"/>
<text text-anchor="middle" x="64.5" y="-45.5" font-family="Helvetica,sans-Serif" font-size="10.00">FManC_StrOcc</text>
<polyline fill="none" stroke="#666666" points="21,-38.5 108,-38.5 "/>
<text text-anchor="middle" x="64.5" y="-26.5" font-family="Helvetica,sans-Serif" font-size="10.00"> </text>
<polyline fill="none" stroke="#666666" points="21,-19.5 108,-19.5 "/>
<text text-anchor="middle" x="64.5" y="-7.5" font-family="Helvetica,sans-Serif" font-size="10.00"> </text>
</a>
</g>
</g>
<!-- Node2 -->
<g id="node2" class="node">
<title>Node2</title>
<g id="a_node2"><a xlink:title=" ">
<polygon fill="white" stroke="#666666" points="0,-105.5 0,-162.5 45,-162.5 45,-105.5 0,-105.5"/>
<text text-anchor="middle" x="22.5" y="-150.5" font-family="Helvetica,sans-Serif" font-size="10.00">size_t</text>
<polyline fill="none" stroke="#666666" points="0,-143.5 45,-143.5 "/>
<text text-anchor="middle" x="22.5" y="-131.5" font-family="Helvetica,sans-Serif" font-size="10.00"> </text>
<polyline fill="none" stroke="#666666" points="0,-124.5 45,-124.5 "/>
<text text-anchor="middle" x="22.5" y="-112.5" font-family="Helvetica,sans-Serif" font-size="10.00"> </text>
</a>
</g>
</g>
<!-- Node2&#45;&gt;Node1 -->
<g id="edge1" class="edge">
<title>Node2&#45;&gt;Node1</title>
<path fill="none" stroke="#404040" d="M19.14,-105.28C18.97,-95.72 19.93,-85.13 23.5,-76 24.62,-73.12 26.02,-70.31 27.6,-67.58"/>
<polygon fill="none" stroke="#404040" points="27.71,-67.42 27.82,-60.21 34.52,-57.54 34.41,-64.75 27.71,-67.42"/>
<text text-anchor="middle" x="54" y="-79" font-family="Helvetica,sans-Serif" font-size="10.00"> +charCount</text>
</g>
<!-- Node3 -->
<g id="node3" class="node">
<title>Node3</title>
<g id="a_node3"><a xlink:title=" ">
<polygon fill="white" stroke="#666666" points="63.5,-105.5 63.5,-162.5 149.5,-162.5 149.5,-105.5 63.5,-105.5"/>
<text text-anchor="middle" x="106.5" y="-150.5" font-family="Helvetica,sans-Serif" font-size="10.00">long long int *</text>
<polyline fill="none" stroke="#666666" points="63.5,-143.5 149.5,-143.5 "/>
<text text-anchor="middle" x="106.5" y="-131.5" font-family="Helvetica,sans-Serif" font-size="10.00"> </text>
<polyline fill="none" stroke="#666666" points="63.5,-124.5 149.5,-124.5 "/>
<text text-anchor="middle" x="106.5" y="-112.5" font-family="Helvetica,sans-Serif" font-size="10.00"> </text>
</a>
</g>
</g>
<!-- Node3&#45;&gt;Node1 -->
<g id="edge2" class="edge">
<title>Node3&#45;&gt;Node1</title>
<path fill="none" stroke="#404040" d="M96.1,-105.37C92.51,-96.01 88.4,-85.52 84.5,-76 83.54,-73.67 82.55,-71.28 81.54,-68.87"/>
<polygon fill="none" stroke="#404040" points="81.46,-68.69 75.42,-64.74 76.74,-57.65 82.78,-61.6 81.46,-68.69"/>
<text text-anchor="middle" x="103" y="-79" font-family="Helvetica,sans-Serif" font-size="10.00"> +pos</text>
</g>
</g>
</svg>
