<?xml version="1.0" encoding="UTF-8" standalone="no"?>
<!DOCTYPE svg PUBLIC "-//W3C//DTD SVG 1.1//EN"
 "http://www.w3.org/Graphics/SVG/1.1/DTD/svg11.dtd">
<!-- Generated by graphviz version 7.1.0 (20230121.1956)
 -->
<!-- Title: src/cpp/FMC_wrapper.h Pages: 1 -->
<svg width="286pt" height="148pt"
 viewBox="0.00 0.00 285.50 148.00" xmlns="http://www.w3.org/2000/svg" xmlns:xlink="http://www.w3.org/1999/xlink">
<g id="graph0" class="graph" transform="scale(1 1) rotate(0) translate(4 144)">
<title>src/cpp/FMC_wrapper.h</title>
<!-- Node1 -->
<g id="node1" class="node">
<title>Node1</title>
<g id="a_node1"><a xlink:title=" ">
<polygon fill="#999999" stroke="#666666" points="261,-140 141,-140 141,-121 261,-121 261,-140"/>
<text text-anchor="middle" x="201" y="-128" font-family="Helvetica,sans-Serif" font-size="10.00">src/cpp/FMC_wrapper.h</text>
</a>
</g>
</g>
<!-- Node2 -->
<g id="node2" class="node">
<title>Node2</title>
<g id="a_node2"><a xlink:href="../../d0/d07/_f_m_c__macros_8h.html" target="_top" xlink:title=" ">
<polygon fill="white" stroke="#666666" points="208,-85 92,-85 92,-55 208,-55 208,-85"/>
<text text-anchor="start" x="100" y="-73" font-family="Helvetica,sans-Serif" font-size="10.00">../general/preprocessor</text>
<text text-anchor="middle" x="150" y="-62" font-family="Helvetica,sans-Serif" font-size="10.00">/FMC_macros.h</text>
</a>
</g>
</g>
<!-- Node1&#45;&gt;Node2 -->
<g id="edge1" class="edge">
<title>Node1&#45;&gt;Node2</title>
<path fill="none" stroke="#63b8ff" d="M193.47,-120.87C187.26,-113.74 178.15,-103.28 169.87,-93.79"/>
<polygon fill="#63b8ff" stroke="#63b8ff" points="172.51,-91.49 163.3,-86.26 167.23,-96.09 172.51,-91.49"/>
</g>
<!-- Node5 -->
<g id="node5" class="node">
<title>Node5</title>
<g id="a_node5"><a xlink:title=" ">
<polygon fill="#e0e0e0" stroke="#999999" points="277.5,-79.5 226.5,-79.5 226.5,-60.5 277.5,-60.5 277.5,-79.5"/>
<text text-anchor="middle" x="252" y="-67.5" font-family="Helvetica,sans-Serif" font-size="10.00">stddef.h</text>
</a>
</g>
</g>
<!-- Node1&#45;&gt;Node5 -->
<g id="edge5" class="edge">
<title>Node1&#45;&gt;Node5</title>
<path fill="none" stroke="#63b8ff" d="M208.53,-120.87C215.98,-112.31 227.61,-98.97 236.97,-88.24"/>
<polygon fill="#63b8ff" stroke="#63b8ff" points="239.52,-90.65 243.45,-80.81 234.24,-86.05 239.52,-90.65"/>
</g>
<!-- Node3 -->
<g id="node3" class="node">
<title>Node3</title>
<g id="a_node3"><a xlink:href="../../d0/dc4/_f_m_c__platform_8h.html" target="_top" xlink:title=" ">
<polygon fill="white" stroke="#666666" points="86,-19 0,-19 0,0 86,0 86,-19"/>
<text text-anchor="middle" x="43" y="-7" font-family="Helvetica,sans-Serif" font-size="10.00">FMC_platform.h</text>
</a>
</g>
</g>
<!-- Node2&#45;&gt;Node3 -->
<g id="edge2" class="edge">
<title>Node2&#45;&gt;Node3</title>
<path fill="none" stroke="#63b8ff" d="M123.55,-54.54C107,-45.49 85.76,-33.88 69.25,-24.85"/>
<polygon fill="#63b8ff" stroke="#63b8ff" points="70.96,-21.8 60.51,-20.07 67.6,-27.94 70.96,-21.8"/>
</g>
<!-- Node4 -->
<g id="node4" class="node">
<title>Node4</title>
<g id="a_node4"><a xlink:href="../../d4/d62/_f_m_c__attributes_8h.html" target="_top" xlink:title=" ">
<polygon fill="white" stroke="#666666" points="196,-19 104,-19 104,0 196,0 196,-19"/>
<text text-anchor="middle" x="150" y="-7" font-family="Helvetica,sans-Serif" font-size="10.00">FMC_attributes.h</text>
</a>
</g>
</g>
<!-- Node2&#45;&gt;Node4 -->
<g id="edge3" class="edge">
<title>Node2&#45;&gt;Node4</title>
<path fill="none" stroke="#63b8ff" d="M144.08,-54.54C143.19,-47.26 143.01,-38.31 143.57,-30.39"/>
<polygon fill="#63b8ff" stroke="#63b8ff" points="147.01,-31.05 144.84,-20.68 140.07,-30.14 147.01,-31.05"/>
</g>
<!-- Node4&#45;&gt;Node2 -->
<g id="edge4" class="edge">
<title>Node4&#45;&gt;Node2</title>
<path fill="none" stroke="#63b8ff" d="M154.96,-19.18C156.34,-25.58 156.92,-34.65 156.71,-43.3"/>
<polygon fill="#63b8ff" stroke="#63b8ff" points="153.23,-42.81 156.02,-53.03 160.21,-43.3 153.23,-42.81"/>
</g>
</g>
</svg>
