<?xml version="1.0" encoding="UTF-8" standalone="no"?>
<!DOCTYPE svg PUBLIC "-//W3C//DTD SVG 1.1//EN"
 "http://www.w3.org/Graphics/SVG/1.1/DTD/svg11.dtd">
<!-- Generated by graphviz version 2.43.0 (0)
 -->
<!-- Title: src/general/preprocessor/FMC_macros.h Pages: 1 -->
<!--zoomable 412 -->
<svg id="main" version="1.1" xmlns="http://www.w3.org/2000/svg" xmlns:xlink="http://www.w3.org/1999/xlink" xml:space="preserve" onload="init(evt)">
<style type="text/css"><![CDATA[
.edge:hover path { stroke: red; }
.edge:hover polygon { stroke: red; fill: red; }
]]></style>
<script type="text/javascript"><![CDATA[
var edges = document.getElementsByTagName('g');
if (edges && edges.length) {
  for (var i=0;i<edges.length;i++) {
    if (edges[i].id.substr(0,4)=='edge') {
      edges[i].setAttribute('class','edge');
    }
  }
}
]]></script>
        <defs>
                <circle id="rim" cx="0" cy="0" r="7"/>
                <circle id="rim2" cx="0" cy="0" r="3.5"/>
                <g id="zoomPlus">
                        <use xlink:href="#rim" fill="#404040">
                                <set attributeName="fill" to="#808080" begin="zoomplus.mouseover" end="zoomplus.mouseout"/>
                        </use>
                        <path d="M-4,0h8M0,-4v8" fill="none" stroke="white" stroke-width="1.5" pointer-events="none"/>
                </g>
                <g id="zoomMin">
                        <use xlink:href="#rim" fill="#404040">
                                <set attributeName="fill" to="#808080" begin="zoomminus.mouseover" end="zoomminus.mouseout"/>
                        </use>
                        <path d="M-4,0h8" fill="none" stroke="white" stroke-width="1.5" pointer-events="none"/>
                </g>
                <g id="dirArrow">
                        <path fill="none" stroke="white" stroke-width="1.5" d="M0,-3.0v7 M-2.5,-0.5L0,-3.0L2.5,-0.5"/>
                </g>
               <g id="resetDef">
                       <use xlink:href="#rim2" fill="#404040">
                               <set attributeName="fill" to="#808080" begin="reset.mouseover" end="reset.mouseout"/>
                       </use>
               </g>
        </defs>

<script type="text/javascript">
var viewWidth = 919;
var viewHeight = 412;
var sectionId = 'dynsection-1';
</script>
<script xlink:href="../../svgpan.js"/>
<svg id="graph" class="graph">
<g id="viewport">
<title>src/general/preprocessor/FMC_macros.h</title>
<!-- Node1 -->
<g id="node1" class="node">
<title>Node1</title>
<g id="a_node1"><a xlink:title=" ">
<polygon fill="#999999" stroke="#666666" points="490.5,-404 353.5,-404 353.5,-374 490.5,-374 490.5,-404"/>
<text text-anchor="start" x="361.5" y="-392" font-family="Helvetica,sans-Serif" font-size="10.00">src/general/preprocessor</text>
<text text-anchor="middle" x="422" y="-381" font-family="Helvetica,sans-Serif" font-size="10.00">/FMC_macros.h</text>
</a>
</g>
</g>
<!-- Node2 -->
<g id="node2" class="node">
<title>Node2</title>
<g id="a_node2"><a xlink:href="../../d4/db9/FMC__wrapper_8h.html" target="_top" xlink:title=" ">
<polygon fill="white" stroke="#666666" points="147.5,-332.5 18.5,-332.5 18.5,-313.5 147.5,-313.5 147.5,-332.5"/>
<text text-anchor="middle" x="83" y="-320.5" font-family="Helvetica,sans-Serif" font-size="10.00">src/cpp/FMC_wrapper.h</text>
</a>
</g>
</g>
<!-- Node1&#45;&gt;Node2 -->
<g id="edge1" class="edge">
<title>Node1&#45;&gt;Node2</title>
<path fill="none" stroke="#63b8ff" d="M343.34,-373.15C276.57,-360.54 183.11,-342.9 128.23,-332.54"/>
<polygon fill="#63b8ff" stroke="#63b8ff" points="342.92,-376.63 353.4,-375.05 344.22,-369.75 342.92,-376.63"/>
</g>
<!-- Node5 -->
<g id="node5" class="node">
<title>Node5</title>
<g id="a_node5"><a xlink:href="../../d9/de1/FMC__general_8h.html" target="_top" xlink:title=" ">
<polygon fill="white" stroke="#666666" points="498,-206 352,-206 352,-187 498,-187 498,-206"/>
<text text-anchor="middle" x="425" y="-194" font-family="Helvetica,sans-Serif" font-size="10.00">src/general/FMC_general.h</text>
</a>
</g>
</g>
<!-- Node1&#45;&gt;Node5 -->
<g id="edge4" class="edge">
<title>Node1&#45;&gt;Node5</title>
<path fill="none" stroke="#63b8ff" d="M343.05,-381.02C285.14,-374.08 213.51,-361.03 195,-338 138.43,-267.61 297.88,-223.5 379.79,-206.05"/>
<polygon fill="#63b8ff" stroke="#63b8ff" points="342.98,-384.54 353.32,-382.21 343.78,-377.58 342.98,-384.54"/>
</g>
<!-- Node15 -->
<g id="node15" class="node">
<title>Node15</title>
<g id="a_node15"><a xlink:href="../../d1/d2e/FMC__attributes_8h.html" target="_top" xlink:title=" ">
<polygon fill="white" stroke="#666666" points="341.5,-338 204.5,-338 204.5,-308 341.5,-308 341.5,-338"/>
<text text-anchor="start" x="212.5" y="-326" font-family="Helvetica,sans-Serif" font-size="10.00">src/general/preprocessor</text>
<text text-anchor="middle" x="273" y="-315" font-family="Helvetica,sans-Serif" font-size="10.00">/FMC_attributes.h</text>
</a>
</g>
</g>
<!-- Node1&#45;&gt;Node15 -->
<g id="edge19" class="edge">
<title>Node1&#45;&gt;Node15</title>
<path fill="none" stroke="#63b8ff" d="M374.08,-370.05C349.53,-359.91 320.6,-347.43 299.93,-338.01"/>
<polygon fill="#63b8ff" stroke="#63b8ff" points="373.02,-373.4 383.6,-373.95 375.68,-366.92 373.02,-373.4"/>
</g>
<!-- Node16 -->
<g id="node16" class="node">
<title>Node16</title>
<g id="a_node16"><a xlink:href="../../d6/d25/FMC__enums_8h.html" target="_top" xlink:title=" ">
<polygon fill="white" stroke="#666666" points="484.5,-338 359.5,-338 359.5,-308 484.5,-308 484.5,-338"/>
<text text-anchor="start" x="367.5" y="-326" font-family="Helvetica,sans-Serif" font-size="10.00">src/general/types/FMC</text>
<text text-anchor="middle" x="422" y="-315" font-family="Helvetica,sans-Serif" font-size="10.00">_enums.h</text>
</a>
</g>
</g>
<!-- Node1&#45;&gt;Node16 -->
<g id="edge21" class="edge">
<title>Node1&#45;&gt;Node16</title>
<path fill="none" stroke="#63b8ff" d="M422,-363.54C422,-354.96 422,-345.61 422,-338.16"/>
<polygon fill="#63b8ff" stroke="#63b8ff" points="418.5,-363.8 422,-373.8 425.5,-363.8 418.5,-363.8"/>
</g>
<!-- Node17 -->
<g id="node17" class="node">
<title>Node17</title>
<g id="a_node17"><a xlink:href="../../d5/de5/FMC__structs_8h.html" target="_top" xlink:title=" ">
<polygon fill="white" stroke="#666666" points="487.5,-272 362.5,-272 362.5,-242 487.5,-242 487.5,-272"/>
<text text-anchor="start" x="370.5" y="-260" font-family="Helvetica,sans-Serif" font-size="10.00">src/general/types/FMC</text>
<text text-anchor="middle" x="425" y="-249" font-family="Helvetica,sans-Serif" font-size="10.00">_structs.h</text>
</a>
</g>
</g>
<!-- Node1&#45;&gt;Node17 -->
<g id="edge25" class="edge">
<title>Node1&#45;&gt;Node17</title>
<path fill="none" stroke="#63b8ff" d="M463.11,-368.62C474.94,-360.87 486.41,-350.71 493,-338 499.14,-326.16 499.02,-319.9 493,-308 485.06,-292.31 469.62,-280.34 455.46,-272.06"/>
<polygon fill="#63b8ff" stroke="#63b8ff" points="461.24,-365.66 454.51,-373.84 464.87,-371.65 461.24,-365.66"/>
</g>
<!-- Node18 -->
<g id="node18" class="node">
<title>Node18</title>
<g id="a_node18"><a xlink:href="../../df/df8/FMC__typedefs_8h.html" target="_top" xlink:title=" ">
<polygon fill="white" stroke="#666666" points="666.5,-338 541.5,-338 541.5,-308 666.5,-308 666.5,-338"/>
<text text-anchor="start" x="549.5" y="-326" font-family="Helvetica,sans-Serif" font-size="10.00">src/general/types/FMC</text>
<text text-anchor="middle" x="604" y="-315" font-family="Helvetica,sans-Serif" font-size="10.00">_typedefs.h</text>
</a>
</g>
</g>
<!-- Node1&#45;&gt;Node18 -->
<g id="edge26" class="edge">
<title>Node1&#45;&gt;Node18</title>
<path fill="none" stroke="#63b8ff" d="M471.51,-370.59C500.61,-360.36 536.91,-347.59 564.15,-338.01"/>
<polygon fill="#63b8ff" stroke="#63b8ff" points="470.21,-367.34 461.94,-373.95 472.54,-373.94 470.21,-367.34"/>
</g>
<!-- Node20 -->
<g id="node20" class="node">
<title>Node20</title>
<g id="a_node20"><a xlink:href="../../de/dab/FMC__errors_8c.html" target="_top" xlink:title=" ">
<polygon fill="white" stroke="#666666" points="800.5,-272 681.5,-272 681.5,-242 800.5,-242 800.5,-272"/>
<text text-anchor="start" x="689.5" y="-260" font-family="Helvetica,sans-Serif" font-size="10.00">src/general/utils/FMC</text>
<text text-anchor="middle" x="741" y="-249" font-family="Helvetica,sans-Serif" font-size="10.00">_errors.c</text>
</a>
</g>
</g>
<!-- Node1&#45;&gt;Node20 -->
<g id="edge31" class="edge">
<title>Node1&#45;&gt;Node20</title>
<path fill="none" stroke="#63b8ff" d="M500.91,-386.02C553.46,-381.56 622.29,-369.46 675,-338 702.06,-321.85 722.96,-290.4 733.49,-272.11"/>
<polygon fill="#63b8ff" stroke="#63b8ff" points="500.33,-382.55 490.63,-386.81 500.87,-389.53 500.33,-382.55"/>
</g>
<!-- Node21 -->
<g id="node21" class="node">
<title>Node21</title>
<g id="a_node21"><a xlink:href="../../dd/ddf/FMC__errors_8h.html" target="_top" xlink:title=" ">
<polygon fill="white" stroke="#666666" points="842.5,-338 723.5,-338 723.5,-308 842.5,-308 842.5,-338"/>
<text text-anchor="start" x="731.5" y="-326" font-family="Helvetica,sans-Serif" font-size="10.00">src/general/utils/FMC</text>
<text text-anchor="middle" x="783" y="-315" font-family="Helvetica,sans-Serif" font-size="10.00">_errors.h</text>
</a>
</g>
</g>
<!-- Node1&#45;&gt;Node21 -->
<g id="edge32" class="edge">
<title>Node1&#45;&gt;Node21</title>
<path fill="none" stroke="#63b8ff" d="M500.91,-374.57C558.59,-364.67 638.7,-350.77 709,-338 713.63,-337.16 718.42,-336.28 723.24,-335.38"/>
<polygon fill="#63b8ff" stroke="#63b8ff" points="500.03,-371.17 490.77,-376.31 501.21,-378.07 500.03,-371.17"/>
</g>
<!-- Node3 -->
<g id="node3" class="node">
<title>Node3</title>
<g id="a_node3"><a xlink:href="../../de/d47/FMC_8h.html" target="_top" xlink:title=" ">
<polygon fill="white" stroke="#666666" points="160.5,-19 95.5,-19 95.5,0 160.5,0 160.5,-19"/>
<text text-anchor="middle" x="128" y="-7" font-family="Helvetica,sans-Serif" font-size="10.00">src/FMC.h</text>
</a>
</g>
</g>
<!-- Node2&#45;&gt;Node3 -->
<g id="edge2" class="edge">
<title>Node2&#45;&gt;Node3</title>
<path fill="none" stroke="#63b8ff" d="M57.75,-307.91C44.36,-299.21 28.71,-286.87 19,-272 0.31,-243.39 0,-231.67 0,-197.5 0,-197.5 0,-197.5 0,-135 0,-75.79 71.25,-35.63 107.43,-19.05"/>
<polygon fill="#63b8ff" stroke="#63b8ff" points="56.21,-311.07 66.56,-313.34 59.88,-305.11 56.21,-311.07"/>
</g>
<!-- Node4 -->
<g id="node4" class="node">
<title>Node4</title>
<g id="a_node4"><a xlink:href="../../dd/d0d/FMC__dir__wrapper_8cpp.html" target="_top" xlink:title=" ">
<polygon fill="white" stroke="#666666" points="147.5,-272 28.5,-272 28.5,-242 147.5,-242 147.5,-272"/>
<text text-anchor="start" x="36.5" y="-260" font-family="Helvetica,sans-Serif" font-size="10.00">src/cpp/FMC_dir/FMC</text>
<text text-anchor="middle" x="88" y="-249" font-family="Helvetica,sans-Serif" font-size="10.00">_dir_wrapper.cpp</text>
</a>
</g>
</g>
<!-- Node2&#45;&gt;Node4 -->
<g id="edge3" class="edge">
<title>Node2&#45;&gt;Node4</title>
<path fill="none" stroke="#63b8ff" d="M84.46,-303.35C85.23,-293.47 86.16,-281.51 86.88,-272.36"/>
<polygon fill="#63b8ff" stroke="#63b8ff" points="80.96,-303.13 83.67,-313.37 87.94,-303.67 80.96,-303.13"/>
</g>
<!-- Node5&#45;&gt;Node3 -->
<g id="edge5" class="edge">
<title>Node5&#45;&gt;Node3</title>
<path fill="none" stroke="#63b8ff" d="M341.78,-194.16C265.68,-190.99 160.98,-181.09 134,-151 99.94,-113.01 117.49,-43.4 125.09,-19.13"/>
<polygon fill="#63b8ff" stroke="#63b8ff" points="341.72,-197.66 351.85,-194.54 341.99,-190.66 341.72,-197.66"/>
</g>
<!-- Node6 -->
<g id="node6" class="node">
<title>Node6</title>
<g id="a_node6"><a xlink:href="../../db/d26/FMC__code__utils_8h.html" target="_top" xlink:title=" ">
<polygon fill="white" stroke="#666666" points="251,-151 143,-151 143,-121 251,-121 251,-151"/>
<text text-anchor="start" x="151" y="-139" font-family="Helvetica,sans-Serif" font-size="10.00">src/code_utils/FMC</text>
<text text-anchor="middle" x="197" y="-128" font-family="Helvetica,sans-Serif" font-size="10.00">_code_utils.h</text>
</a>
</g>
</g>
<!-- Node5&#45;&gt;Node6 -->
<g id="edge6" class="edge">
<title>Node5&#45;&gt;Node6</title>
<path fill="none" stroke="#63b8ff" d="M381.87,-184.43C344.86,-174.94 291.32,-161.2 251.37,-150.95"/>
<polygon fill="#63b8ff" stroke="#63b8ff" points="381.29,-187.9 391.85,-186.99 383.03,-181.12 381.29,-187.9"/>
</g>
<!-- Node7 -->
<g id="node7" class="node">
<title>Node7</title>
<g id="a_node7"><a xlink:href="../../db/d30/FMC__encodings_8h.html" target="_top" xlink:title=" ">
<polygon fill="white" stroke="#666666" points="428,-151 276,-151 276,-121 428,-121 428,-151"/>
<text text-anchor="start" x="284" y="-139" font-family="Helvetica,sans-Serif" font-size="10.00">src/data_analyze/encodings</text>
<text text-anchor="middle" x="352" y="-128" font-family="Helvetica,sans-Serif" font-size="10.00">/FMC_encodings.h</text>
</a>
</g>
</g>
<!-- Node5&#45;&gt;Node7 -->
<g id="edge8" class="edge">
<title>Node5&#45;&gt;Node7</title>
<path fill="none" stroke="#63b8ff" d="M406.28,-180.5C394.99,-171.45 380.7,-160 369.61,-151.11"/>
<polygon fill="#63b8ff" stroke="#63b8ff" points="404.24,-183.35 414.23,-186.87 408.61,-177.88 404.24,-183.35"/>
</g>
<!-- Node10 -->
<g id="node10" class="node">
<title>Node10</title>
<g id="a_node10"><a xlink:href="../../d9/db5/FMC__strings_8h.html" target="_top" xlink:title=" ">
<polygon fill="white" stroke="#666666" points="581.5,-151 446.5,-151 446.5,-121 581.5,-121 581.5,-151"/>
<text text-anchor="start" x="454.5" y="-139" font-family="Helvetica,sans-Serif" font-size="10.00">src/data_analyze/strings</text>
<text text-anchor="middle" x="514" y="-128" font-family="Helvetica,sans-Serif" font-size="10.00">/FMC_strings.h</text>
</a>
</g>
</g>
<!-- Node5&#45;&gt;Node10 -->
<g id="edge12" class="edge">
<title>Node5&#45;&gt;Node10</title>
<path fill="none" stroke="#63b8ff" d="M446.61,-181.29C460.55,-172.13 478.61,-160.26 492.53,-151.11"/>
<polygon fill="#63b8ff" stroke="#63b8ff" points="444.57,-178.45 438.13,-186.87 448.41,-184.3 444.57,-178.45"/>
</g>
<!-- Node12 -->
<g id="node12" class="node">
<title>Node12</title>
<g id="a_node12"><a xlink:href="../../d2/deb/FMC__file__management_8h.html" target="_top" xlink:title=" ">
<polygon fill="white" stroke="#666666" points="702.5,-151 603.5,-151 603.5,-121 702.5,-121 702.5,-151"/>
<text text-anchor="start" x="611.5" y="-139" font-family="Helvetica,sans-Serif" font-size="10.00">src/files/FMC_file</text>
<text text-anchor="middle" x="653" y="-128" font-family="Helvetica,sans-Serif" font-size="10.00">_management.h</text>
</a>
</g>
</g>
<!-- Node5&#45;&gt;Node12 -->
<g id="edge15" class="edge">
<title>Node5&#45;&gt;Node12</title>
<path fill="none" stroke="#63b8ff" d="M468.02,-184.46C506.54,-174.58 563,-160.09 603.4,-149.73"/>
<polygon fill="#63b8ff" stroke="#63b8ff" points="466.97,-181.12 458.15,-186.99 468.71,-187.9 466.97,-181.12"/>
</g>
<!-- Node6&#45;&gt;Node3 -->
<g id="edge7" class="edge">
<title>Node6&#45;&gt;Node3</title>
<path fill="none" stroke="#63b8ff" d="M170.84,-113.95C162.13,-105.74 153.11,-95.73 147,-85 134.72,-63.42 130.25,-33.87 128.73,-19.32"/>
<polygon fill="#63b8ff" stroke="#63b8ff" points="168.54,-116.59 178.32,-120.67 173.22,-111.38 168.54,-116.59"/>
</g>
<!-- Node8 -->
<g id="node8" class="node">
<title>Node8</title>
<g id="a_node8"><a xlink:href="../../da/db0/FMC__data__analyze_8h.html" target="_top" xlink:title=" ">
<polygon fill="white" stroke="#666666" points="450,-85 326,-85 326,-55 450,-55 450,-85"/>
<text text-anchor="start" x="334" y="-73" font-family="Helvetica,sans-Serif" font-size="10.00">src/data_analyze/FMC</text>
<text text-anchor="middle" x="388" y="-62" font-family="Helvetica,sans-Serif" font-size="10.00">_data_analyze.h</text>
</a>
</g>
</g>
<!-- Node7&#45;&gt;Node8 -->
<g id="edge9" class="edge">
<title>Node7&#45;&gt;Node8</title>
<path fill="none" stroke="#63b8ff" d="M364.96,-111.96C370,-103 375.61,-93.03 380.03,-85.16"/>
<polygon fill="#63b8ff" stroke="#63b8ff" points="361.84,-110.36 359.99,-120.8 367.94,-113.8 361.84,-110.36"/>
</g>
<!-- Node9 -->
<g id="node9" class="node">
<title>Node9</title>
<g id="a_node9"><a xlink:href="../../db/dc4/FMC__encodings_8c.html" target="_top" xlink:title=" ">
<polygon fill="white" stroke="#666666" points="308,-85 156,-85 156,-55 308,-55 308,-85"/>
<text text-anchor="start" x="164" y="-73" font-family="Helvetica,sans-Serif" font-size="10.00">src/data_analyze/encodings</text>
<text text-anchor="middle" x="232" y="-62" font-family="Helvetica,sans-Serif" font-size="10.00">/FMC_encodings.c</text>
</a>
</g>
</g>
<!-- Node7&#45;&gt;Node9 -->
<g id="edge11" class="edge">
<title>Node7&#45;&gt;Node9</title>
<path fill="none" stroke="#63b8ff" d="M316.83,-116.24C298.1,-106.25 275.45,-94.18 258.27,-85.01"/>
<polygon fill="#63b8ff" stroke="#63b8ff" points="315.19,-119.34 325.67,-120.95 318.49,-113.16 315.19,-119.34"/>
</g>
<!-- Node8&#45;&gt;Node3 -->
<g id="edge10" class="edge">
<title>Node8&#45;&gt;Node3</title>
<path fill="none" stroke="#63b8ff" d="M315.78,-52.75C265.04,-41.33 199.56,-26.6 160.84,-17.89"/>
<polygon fill="#63b8ff" stroke="#63b8ff" points="315.2,-56.21 325.72,-54.99 316.74,-49.38 315.2,-56.21"/>
</g>
<!-- Node10&#45;&gt;Node8 -->
<g id="edge13" class="edge">
<title>Node10&#45;&gt;Node8</title>
<path fill="none" stroke="#63b8ff" d="M477.34,-116.38C457.62,-106.36 433.71,-94.22 415.59,-85.01"/>
<polygon fill="#63b8ff" stroke="#63b8ff" points="475.85,-119.55 486.35,-120.95 479.02,-113.31 475.85,-119.55"/>
</g>
<!-- Node11 -->
<g id="node11" class="node">
<title>Node11</title>
<g id="a_node11"><a xlink:href="../../d1/d8c/FMC__chars_8c.html" target="_top" xlink:title=" ">
<polygon fill="white" stroke="#666666" points="603.5,-85 468.5,-85 468.5,-55 603.5,-55 603.5,-85"/>
<text text-anchor="start" x="476.5" y="-73" font-family="Helvetica,sans-Serif" font-size="10.00">src/data_analyze/strings</text>
<text text-anchor="middle" x="536" y="-62" font-family="Helvetica,sans-Serif" font-size="10.00">/FMC_chars.c</text>
</a>
</g>
</g>
<!-- Node10&#45;&gt;Node11 -->
<g id="edge14" class="edge">
<title>Node10&#45;&gt;Node11</title>
<path fill="none" stroke="#63b8ff" d="M522.21,-111.11C525.21,-102.38 528.51,-92.78 531.13,-85.16"/>
<polygon fill="#63b8ff" stroke="#63b8ff" points="518.82,-110.2 518.88,-120.8 525.44,-112.48 518.82,-110.2"/>
</g>
<!-- Node12&#45;&gt;Node3 -->
<g id="edge16" class="edge">
<title>Node12&#45;&gt;Node3</title>
<path fill="none" stroke="#63b8ff" d="M647.46,-111.14C641.82,-92.59 631.11,-67.92 612,-55 574.69,-29.78 262.97,-15.67 160.5,-11.69"/>
<polygon fill="#63b8ff" stroke="#63b8ff" points="644.13,-112.24 650.16,-120.95 650.88,-110.38 644.13,-112.24"/>
</g>
<!-- Node13 -->
<g id="node13" class="node">
<title>Node13</title>
<g id="a_node13"><a xlink:href="../../d0/dc0/FMC__files_8c.html" target="_top" xlink:title=" ">
<polygon fill="white" stroke="#666666" points="773.5,-79.5 660.5,-79.5 660.5,-60.5 773.5,-60.5 773.5,-79.5"/>
<text text-anchor="middle" x="717" y="-67.5" font-family="Helvetica,sans-Serif" font-size="10.00">src/files/FMC_files.c</text>
</a>
</g>
</g>
<!-- Node12&#45;&gt;Node13 -->
<g id="edge17" class="edge">
<title>Node12&#45;&gt;Node13</title>
<path fill="none" stroke="#63b8ff" d="M674.4,-113.6C685.9,-102.1 699.48,-88.52 708.16,-79.84"/>
<polygon fill="#63b8ff" stroke="#63b8ff" points="671.8,-111.25 667.2,-120.8 676.75,-116.2 671.8,-111.25"/>
</g>
<!-- Node14 -->
<g id="node14" class="node">
<title>Node14</title>
<g id="a_node14"><a xlink:href="../../dc/d5e/FMC__paths_8c.html" target="_top" xlink:title=" ">
<polygon fill="white" stroke="#666666" points="910.5,-79.5 791.5,-79.5 791.5,-60.5 910.5,-60.5 910.5,-79.5"/>
<text text-anchor="middle" x="851" y="-67.5" font-family="Helvetica,sans-Serif" font-size="10.00">src/files/FMC_paths.c</text>
</a>
</g>
</g>
<!-- Node12&#45;&gt;Node14 -->
<g id="edge18" class="edge">
<title>Node12&#45;&gt;Node14</title>
<path fill="none" stroke="#63b8ff" d="M706.41,-117.74C744.69,-105.36 794.6,-89.23 824.65,-79.52"/>
<polygon fill="#63b8ff" stroke="#63b8ff" points="704.89,-114.55 696.45,-120.95 707.04,-121.21 704.89,-114.55"/>
</g>
<!-- Node15&#45;&gt;Node1 -->
<g id="edge20" class="edge">
<title>Node15&#45;&gt;Node1</title>
<path fill="none" stroke="#63b8ff" d="M320.83,-341.91C345.37,-352.04 374.31,-364.53 395,-373.95"/>
<polygon fill="#63b8ff" stroke="#63b8ff" points="321.9,-338.57 311.32,-338.01 319.24,-345.04 321.9,-338.57"/>
</g>
<!-- Node16&#45;&gt;Node5 -->
<g id="edge22" class="edge">
<title>Node16&#45;&gt;Node5</title>
<path fill="none" stroke="#63b8ff" d="M381.97,-302.36C370.5,-294.59 359.38,-284.5 353,-272 346.94,-260.12 346.51,-253.65 353,-242 362.8,-224.42 382.73,-212.91 399.15,-206.01"/>
<polygon fill="#63b8ff" stroke="#63b8ff" points="380.41,-305.51 390.74,-307.84 384.12,-299.57 380.41,-305.51"/>
</g>
<!-- Node16&#45;&gt;Node17 -->
<g id="edge23" class="edge">
<title>Node16&#45;&gt;Node17</title>
<path fill="none" stroke="#63b8ff" d="M423.15,-297.54C423.55,-288.96 423.99,-279.61 424.34,-272.16"/>
<polygon fill="#63b8ff" stroke="#63b8ff" points="419.64,-297.64 422.67,-307.8 426.63,-297.97 419.64,-297.64"/>
</g>
<!-- Node17&#45;&gt;Node5 -->
<g id="edge24" class="edge">
<title>Node17&#45;&gt;Node5</title>
<path fill="none" stroke="#63b8ff" d="M425,-231.75C425,-222.72 425,-213.03 425,-206.27"/>
<polygon fill="#63b8ff" stroke="#63b8ff" points="421.5,-231.84 425,-241.84 428.5,-231.84 421.5,-231.84"/>
</g>
<!-- Node18&#45;&gt;Node5 -->
<g id="edge27" class="edge">
<title>Node18&#45;&gt;Node5</title>
<path fill="none" stroke="#63b8ff" d="M575.98,-301.97C563.39,-292.9 548.39,-282 535,-272 517.48,-258.92 513.95,-254.49 496,-242 477.01,-228.79 454.22,-214.82 439.68,-206.14"/>
<polygon fill="#63b8ff" stroke="#63b8ff" points="574.1,-304.93 584.26,-307.92 578.18,-299.25 574.1,-304.93"/>
</g>
<!-- Node18&#45;&gt;Node17 -->
<g id="edge28" class="edge">
<title>Node18&#45;&gt;Node17</title>
<path fill="none" stroke="#63b8ff" d="M554.93,-304.46C526.38,-294.25 490.87,-281.55 464.19,-272.01"/>
<polygon fill="#63b8ff" stroke="#63b8ff" points="554.12,-307.88 564.72,-307.95 556.48,-301.29 554.12,-307.88"/>
</g>
<!-- Node19 -->
<g id="node19" class="node">
<title>Node19</title>
<g id="a_node19"><a xlink:href="../../de/d86/FMC__globals_8h.html" target="_top" xlink:title=" ">
<polygon fill="white" stroke="#666666" points="663.5,-272 544.5,-272 544.5,-242 663.5,-242 663.5,-272"/>
<text text-anchor="start" x="552.5" y="-260" font-family="Helvetica,sans-Serif" font-size="10.00">src/general/utils/FMC</text>
<text text-anchor="middle" x="604" y="-249" font-family="Helvetica,sans-Serif" font-size="10.00">_globals.h</text>
</a>
</g>
</g>
<!-- Node18&#45;&gt;Node19 -->
<g id="edge29" class="edge">
<title>Node18&#45;&gt;Node19</title>
<path fill="none" stroke="#63b8ff" d="M604,-297.54C604,-288.96 604,-279.61 604,-272.16"/>
<polygon fill="#63b8ff" stroke="#63b8ff" points="600.5,-297.8 604,-307.8 607.5,-297.8 600.5,-297.8"/>
</g>
<!-- Node19&#45;&gt;Node5 -->
<g id="edge30" class="edge">
<title>Node19&#45;&gt;Node5</title>
<path fill="none" stroke="#63b8ff" d="M551.61,-238.88C518.61,-228.09 477.44,-214.64 451.17,-206.05"/>
<polygon fill="#63b8ff" stroke="#63b8ff" points="550.53,-242.21 561.13,-241.99 552.71,-235.55 550.53,-242.21"/>
</g>
<!-- Node21&#45;&gt;Node5 -->
<g id="edge33" class="edge">
<title>Node21&#45;&gt;Node5</title>
<path fill="none" stroke="#63b8ff" d="M801.44,-299.4C813.38,-281.9 824.28,-258.03 810,-242 789.66,-219.17 604.14,-206.33 498.24,-200.8"/>
<polygon fill="#63b8ff" stroke="#63b8ff" points="798.31,-297.76 795.23,-307.89 803.96,-301.89 798.31,-297.76"/>
</g>
<!-- Node21&#45;&gt;Node20 -->
<g id="edge34" class="edge">
<title>Node21&#45;&gt;Node20</title>
<path fill="none" stroke="#63b8ff" d="M768.07,-299.24C762.14,-290.21 755.51,-280.11 750.3,-272.16"/>
<polygon fill="#63b8ff" stroke="#63b8ff" points="765.27,-301.36 773.68,-307.8 771.12,-297.52 765.27,-301.36"/>
</g>
</g>
</svg>
        <g id="navigator" transform="translate(0 0)" fill="#404254">
                <rect fill="#f2f5e9" fill-opacity="0.5" stroke="#606060" stroke-width=".5" x="0" y="0" width="60" height="60"/>
                <use id="zoomplus" xlink:href="#zoomPlus" x="17" y="9" onmousedown="handleZoom(evt,'in')"/>
                <use id="zoomminus" xlink:href="#zoomMin" x="42" y="9" onmousedown="handleZoom(evt,'out')"/>
                <use id="reset" xlink:href="#resetDef" x="30" y="36" onmousedown="handleReset()"/>
                <g id="arrowUp" xlink:href="#dirArrow" transform="translate(30 24)" onmousedown="handlePan(0,-1)">
                  <use xlink:href="#rim" fill="#404040">
                        <set attributeName="fill" to="#808080" begin="arrowUp.mouseover" end="arrowUp.mouseout"/>
                  </use>
                  <path fill="none" stroke="white" stroke-width="1.5" d="M0,-3.0v7 M-2.5,-0.5L0,-3.0L2.5,-0.5"/>
                </g>
                <g id="arrowRight" xlink:href="#dirArrow" transform="rotate(90) translate(36 -43)" onmousedown="handlePan(1,0)">
                  <use xlink:href="#rim" fill="#404040">
                        <set attributeName="fill" to="#808080" begin="arrowRight.mouseover" end="arrowRight.mouseout"/>
                  </use>
                  <path fill="none" stroke="white" stroke-width="1.5" d="M0,-3.0v7 M-2.5,-0.5L0,-3.0L2.5,-0.5"/>
                </g>
                <g id="arrowDown" xlink:href="#dirArrow" transform="rotate(180) translate(-30 -48)" onmousedown="handlePan(0,1)">
                  <use xlink:href="#rim" fill="#404040">
                        <set attributeName="fill" to="#808080" begin="arrowDown.mouseover" end="arrowDown.mouseout"/>
                  </use>
                  <path fill="none" stroke="white" stroke-width="1.5" d="M0,-3.0v7 M-2.5,-0.5L0,-3.0L2.5,-0.5"/>
                </g>
                <g id="arrowLeft" xlink:href="#dirArrow" transform="rotate(270) translate(-36 17)" onmousedown="handlePan(-1,0)">
                  <use xlink:href="#rim" fill="#404040">
                        <set attributeName="fill" to="#808080" begin="arrowLeft.mouseover" end="arrowLeft.mouseout"/>
                  </use>
                  <path fill="none" stroke="white" stroke-width="1.5" d="M0,-3.0v7 M-2.5,-0.5L0,-3.0L2.5,-0.5"/>
                </g>
        </g>
        <svg viewBox="0 0 15 15" width="100%" height="30px" preserveAspectRatio="xMaxYMin meet">
         <g id="arrow_out" transform="scale(0.3 0.3)">
          <a xlink:href="FMC__macros_8h__dep__incl_org.svg" target="_base">
           <rect id="button" ry="5" rx="5" y="6" x="6" height="38" width="38"
                fill="#f2f5e9" fill-opacity="0.5" stroke="#606060" stroke-width="1.0"/>
           <path id="arrow"
             d="M 11.500037,31.436501 C 11.940474,20.09759 22.043105,11.32322 32.158766,21.979434 L 37.068811,17.246167 C 37.068811,17.246167 37.088388,32 37.088388,32 L 22.160133,31.978069 C 22.160133,31.978069 26.997745,27.140456 26.997745,27.140456 C 18.528582,18.264221 13.291696,25.230495 11.500037,31.436501 z"
             style="fill:#404040;"/>
          </a>
         </g>
        </svg>
</svg>
