<?xml version="1.0" encoding="UTF-8" standalone="no"?>
<!DOCTYPE svg PUBLIC "-//W3C//DTD SVG 1.1//EN"
 "http://www.w3.org/Graphics/SVG/1.1/DTD/svg11.dtd">
<!-- Generated by graphviz version 2.43.0 (0)
 -->
<!-- Title: src/general/preprocessor/FMC_macros.h Pages: 1 -->
<!--zoomable 412 -->
<svg id="main" version="1.1" xmlns="http://www.w3.org/2000/svg" xmlns:xlink="http://www.w3.org/1999/xlink" xml:space="preserve" onload="init(evt)">
<style type="text/css"><![CDATA[
.edge:hover path { stroke: red; }
.edge:hover polygon { stroke: red; fill: red; }
]]></style>
<script type="text/javascript"><![CDATA[
var edges = document.getElementsByTagName('g');
if (edges && edges.length) {
  for (var i=0;i<edges.length;i++) {
    if (edges[i].id.substr(0,4)=='edge') {
      edges[i].setAttribute('class','edge');
    }
  }
}
]]></script>
        <defs>
                <circle id="rim" cx="0" cy="0" r="7"/>
                <circle id="rim2" cx="0" cy="0" r="3.5"/>
                <g id="zoomPlus">
                        <use xlink:href="#rim" fill="#404040">
                                <set attributeName="fill" to="#808080" begin="zoomplus.mouseover" end="zoomplus.mouseout"/>
                        </use>
                        <path d="M-4,0h8M0,-4v8" fill="none" stroke="white" stroke-width="1.5" pointer-events="none"/>
                </g>
                <g id="zoomMin">
                        <use xlink:href="#rim" fill="#404040">
                                <set attributeName="fill" to="#808080" begin="zoomminus.mouseover" end="zoomminus.mouseout"/>
                        </use>
                        <path d="M-4,0h8" fill="none" stroke="white" stroke-width="1.5" pointer-events="none"/>
                </g>
                <g id="dirArrow">
                        <path fill="none" stroke="white" stroke-width="1.5" d="M0,-3.0v7 M-2.5,-0.5L0,-3.0L2.5,-0.5"/>
                </g>
               <g id="resetDef">
                       <use xlink:href="#rim2" fill="#404040">
                               <set attributeName="fill" to="#808080" begin="reset.mouseover" end="reset.mouseout"/>
                       </use>
               </g>
        </defs>

<script type="text/javascript">
var viewWidth = 929;
var viewHeight = 412;
var sectionId = 'dynsection-1';
</script>
<script xlink:href="../../svgpan.js"/>
<svg id="graph" class="graph">
<g id="viewport">
<title>src/general/preprocessor/FMC_macros.h</title>
<!-- Node1 -->
<g id="node1" class="node">
<title>Node1</title>
<g id="a_node1"><a xlink:title=" ">
<polygon fill="#999999" stroke="#666666" points="490.5,-404 353.5,-404 353.5,-374 490.5,-374 490.5,-404"/>
<text text-anchor="start" x="361.5" y="-392" font-family="Helvetica,sans-Serif" font-size="10.00">src/general/preprocessor</text>
<text text-anchor="middle" x="422" y="-381" font-family="Helvetica,sans-Serif" font-size="10.00">/FMC_macros.h</text>
</a>
</g>
</g>
<!-- Node2 -->
<g id="node2" class="node">
<title>Node2</title>
<g id="a_node2"><a xlink:href="../../d4/db9/FMC__wrapper_8h.html" target="_top" xlink:title=" ">
<polygon fill="white" stroke="#666666" points="147.5,-332.5 18.5,-332.5 18.5,-313.5 147.5,-313.5 147.5,-332.5"/>
<text text-anchor="middle" x="83" y="-320.5" font-family="Helvetica,sans-Serif" font-size="10.00">src/cpp/FMC_wrapper.h</text>
</a>
</g>
</g>
<!-- Node1&#45;&gt;Node2 -->
<g id="edge1" class="edge">
<title>Node1&#45;&gt;Node2</title>
<path fill="none" stroke="#63b8ff" d="M343.34,-373.15C276.57,-360.54 183.11,-342.9 128.23,-332.54"/>
<polygon fill="#63b8ff" stroke="#63b8ff" points="342.92,-376.63 353.4,-375.05 344.22,-369.75 342.92,-376.63"/>
</g>
<!-- Node5 -->
<g id="node5" class="node">
<title>Node5</title>
<g id="a_node5"><a xlink:href="../../d9/de1/FMC__general_8h.html" target="_top" xlink:title=" ">
<polygon fill="white" stroke="#666666" points="475,-206 329,-206 329,-187 475,-187 475,-206"/>
<text text-anchor="middle" x="402" y="-194" font-family="Helvetica,sans-Serif" font-size="10.00">src/general/FMC_general.h</text>
</a>
</g>
</g>
<!-- Node1&#45;&gt;Node5 -->
<g id="edge4" class="edge">
<title>Node1&#45;&gt;Node5</title>
<path fill="none" stroke="#63b8ff" d="M343.05,-381.02C285.14,-374.08 213.51,-361.03 195,-338 183.52,-323.72 182.34,-262.34 200,-242 216.86,-222.57 278.1,-210.96 328.78,-204.49"/>
<polygon fill="#63b8ff" stroke="#63b8ff" points="342.98,-384.54 353.32,-382.21 343.78,-377.58 342.98,-384.54"/>
</g>
<!-- Node15 -->
<g id="node15" class="node">
<title>Node15</title>
<g id="a_node15"><a xlink:href="../../d1/d2e/FMC__attributes_8h.html" target="_top" xlink:title=" ">
<polygon fill="white" stroke="#666666" points="341.5,-338 204.5,-338 204.5,-308 341.5,-308 341.5,-338"/>
<text text-anchor="start" x="212.5" y="-326" font-family="Helvetica,sans-Serif" font-size="10.00">src/general/preprocessor</text>
<text text-anchor="middle" x="273" y="-315" font-family="Helvetica,sans-Serif" font-size="10.00">/FMC_attributes.h</text>
</a>
</g>
</g>
<!-- Node1&#45;&gt;Node15 -->
<g id="edge19" class="edge">
<title>Node1&#45;&gt;Node15</title>
<path fill="none" stroke="#63b8ff" d="M374.08,-370.05C349.53,-359.91 320.6,-347.43 299.93,-338.01"/>
<polygon fill="#63b8ff" stroke="#63b8ff" points="373.02,-373.4 383.6,-373.95 375.68,-366.92 373.02,-373.4"/>
</g>
<!-- Node17 -->
<g id="node17" class="node">
<title>Node17</title>
<g id="a_node17"><a xlink:href="../../d6/d25/FMC__enums_8h.html" target="_top" xlink:title=" ">
<polygon fill="white" stroke="#666666" points="484.5,-338 359.5,-338 359.5,-308 484.5,-308 484.5,-338"/>
<text text-anchor="start" x="367.5" y="-326" font-family="Helvetica,sans-Serif" font-size="10.00">src/general/types/FMC</text>
<text text-anchor="middle" x="422" y="-315" font-family="Helvetica,sans-Serif" font-size="10.00">_enums.h</text>
</a>
</g>
</g>
<!-- Node1&#45;&gt;Node17 -->
<g id="edge23" class="edge">
<title>Node1&#45;&gt;Node17</title>
<path fill="none" stroke="#63b8ff" d="M422,-363.54C422,-354.96 422,-345.61 422,-338.16"/>
<polygon fill="#63b8ff" stroke="#63b8ff" points="418.5,-363.8 422,-373.8 425.5,-363.8 418.5,-363.8"/>
</g>
<!-- Node18 -->
<g id="node18" class="node">
<title>Node18</title>
<g id="a_node18"><a xlink:href="../../d5/de5/FMC__structs_8h.html" target="_top" xlink:title=" ">
<polygon fill="white" stroke="#666666" points="510.5,-272 385.5,-272 385.5,-242 510.5,-242 510.5,-272"/>
<text text-anchor="start" x="393.5" y="-260" font-family="Helvetica,sans-Serif" font-size="10.00">src/general/types/FMC</text>
<text text-anchor="middle" x="448" y="-249" font-family="Helvetica,sans-Serif" font-size="10.00">_structs.h</text>
</a>
</g>
</g>
<!-- Node1&#45;&gt;Node18 -->
<g id="edge27" class="edge">
<title>Node1&#45;&gt;Node18</title>
<path fill="none" stroke="#63b8ff" d="M463.11,-368.62C474.94,-360.87 486.41,-350.71 493,-338 505.18,-314.52 482.64,-287.85 465.29,-272"/>
<polygon fill="#63b8ff" stroke="#63b8ff" points="461.24,-365.66 454.51,-373.84 464.87,-371.65 461.24,-365.66"/>
</g>
<!-- Node19 -->
<g id="node19" class="node">
<title>Node19</title>
<g id="a_node19"><a xlink:href="../../df/df8/FMC__typedefs_8h.html" target="_top" xlink:title=" ">
<polygon fill="white" stroke="#666666" points="666.5,-338 541.5,-338 541.5,-308 666.5,-308 666.5,-338"/>
<text text-anchor="start" x="549.5" y="-326" font-family="Helvetica,sans-Serif" font-size="10.00">src/general/types/FMC</text>
<text text-anchor="middle" x="604" y="-315" font-family="Helvetica,sans-Serif" font-size="10.00">_typedefs.h</text>
</a>
</g>
</g>
<!-- Node1&#45;&gt;Node19 -->
<g id="edge28" class="edge">
<title>Node1&#45;&gt;Node19</title>
<path fill="none" stroke="#63b8ff" d="M471.51,-370.59C500.61,-360.36 536.91,-347.59 564.15,-338.01"/>
<polygon fill="#63b8ff" stroke="#63b8ff" points="470.21,-367.34 461.94,-373.95 472.54,-373.94 470.21,-367.34"/>
</g>
<!-- Node21 -->
<g id="node21" class="node">
<title>Node21</title>
<g id="a_node21"><a xlink:href="../../de/dab/FMC__errors_8c.html" target="_top" xlink:title=" ">
<polygon fill="white" stroke="#666666" points="823.5,-272 704.5,-272 704.5,-242 823.5,-242 823.5,-272"/>
<text text-anchor="start" x="712.5" y="-260" font-family="Helvetica,sans-Serif" font-size="10.00">src/general/utils/FMC</text>
<text text-anchor="middle" x="764" y="-249" font-family="Helvetica,sans-Serif" font-size="10.00">_errors.c</text>
</a>
</g>
</g>
<!-- Node1&#45;&gt;Node21 -->
<g id="edge33" class="edge">
<title>Node1&#45;&gt;Node21</title>
<path fill="none" stroke="#63b8ff" d="M500.83,-383.28C552.6,-377.63 620.56,-365.22 675,-338 691.91,-329.54 729.76,-292.68 750.23,-272.07"/>
<polygon fill="#63b8ff" stroke="#63b8ff" points="500.29,-379.82 490.7,-384.33 501,-386.78 500.29,-379.82"/>
</g>
<!-- Node22 -->
<g id="node22" class="node">
<title>Node22</title>
<g id="a_node22"><a xlink:href="../../dd/ddf/FMC__errors_8h.html" target="_top" xlink:title=" ">
<polygon fill="white" stroke="#666666" points="842.5,-338 723.5,-338 723.5,-308 842.5,-308 842.5,-338"/>
<text text-anchor="start" x="731.5" y="-326" font-family="Helvetica,sans-Serif" font-size="10.00">src/general/utils/FMC</text>
<text text-anchor="middle" x="783" y="-315" font-family="Helvetica,sans-Serif" font-size="10.00">_errors.h</text>
</a>
</g>
</g>
<!-- Node1&#45;&gt;Node22 -->
<g id="edge34" class="edge">
<title>Node1&#45;&gt;Node22</title>
<path fill="none" stroke="#63b8ff" d="M500.91,-374.57C558.59,-364.67 638.7,-350.77 709,-338 713.63,-337.16 718.42,-336.28 723.24,-335.38"/>
<polygon fill="#63b8ff" stroke="#63b8ff" points="500.03,-371.17 490.77,-376.31 501.21,-378.07 500.03,-371.17"/>
</g>
<!-- Node3 -->
<g id="node3" class="node">
<title>Node3</title>
<g id="a_node3"><a xlink:href="../../de/d47/FMC_8h.html" target="_top" xlink:title=" ">
<polygon fill="white" stroke="#666666" points="170.5,-19 105.5,-19 105.5,0 170.5,0 170.5,-19"/>
<text text-anchor="middle" x="138" y="-7" font-family="Helvetica,sans-Serif" font-size="10.00">src/FMC.h</text>
</a>
</g>
</g>
<!-- Node2&#45;&gt;Node3 -->
<g id="edge2" class="edge">
<title>Node2&#45;&gt;Node3</title>
<path fill="none" stroke="#63b8ff" d="M57.75,-307.91C44.36,-299.21 28.71,-286.87 19,-272 0.31,-243.39 0,-231.67 0,-197.5 0,-197.5 0,-197.5 0,-135 0,-74.01 75.22,-35.22 114.59,-19.09"/>
<polygon fill="#63b8ff" stroke="#63b8ff" points="56.21,-311.07 66.56,-313.34 59.88,-305.11 56.21,-311.07"/>
</g>
<!-- Node4 -->
<g id="node4" class="node">
<title>Node4</title>
<g id="a_node4"><a xlink:href="../../dd/d0d/FMC__dir__wrapper_8cpp.html" target="_top" xlink:title=" ">
<polygon fill="white" stroke="#666666" points="147.5,-272 28.5,-272 28.5,-242 147.5,-242 147.5,-272"/>
<text text-anchor="start" x="36.5" y="-260" font-family="Helvetica,sans-Serif" font-size="10.00">src/cpp/FMC_dir/FMC</text>
<text text-anchor="middle" x="88" y="-249" font-family="Helvetica,sans-Serif" font-size="10.00">_dir_wrapper.cpp</text>
</a>
</g>
</g>
<!-- Node2&#45;&gt;Node4 -->
<g id="edge3" class="edge">
<title>Node2&#45;&gt;Node4</title>
<path fill="none" stroke="#63b8ff" d="M84.46,-303.35C85.23,-293.47 86.16,-281.51 86.88,-272.36"/>
<polygon fill="#63b8ff" stroke="#63b8ff" points="80.96,-303.13 83.67,-313.37 87.94,-303.67 80.96,-303.13"/>
</g>
<!-- Node5&#45;&gt;Node3 -->
<g id="edge5" class="edge">
<title>Node5&#45;&gt;Node3</title>
<path fill="none" stroke="#63b8ff" d="M318.78,-192.3C251.97,-187.79 165.7,-176.98 143,-151 109.44,-112.59 127.34,-43.25 135.05,-19.08"/>
<polygon fill="#63b8ff" stroke="#63b8ff" points="318.7,-195.8 328.9,-192.94 319.15,-188.81 318.7,-195.8"/>
</g>
<!-- Node6 -->
<g id="node6" class="node">
<title>Node6</title>
<g id="a_node6"><a xlink:href="../../db/d26/FMC__code__utils_8h.html" target="_top" xlink:title=" ">
<polygon fill="white" stroke="#666666" points="260,-151 152,-151 152,-121 260,-121 260,-151"/>
<text text-anchor="start" x="160" y="-139" font-family="Helvetica,sans-Serif" font-size="10.00">src/code_utils/FMC</text>
<text text-anchor="middle" x="206" y="-128" font-family="Helvetica,sans-Serif" font-size="10.00">_code_utils.h</text>
</a>
</g>
</g>
<!-- Node5&#45;&gt;Node6 -->
<g id="edge6" class="edge">
<title>Node5&#45;&gt;Node6</title>
<path fill="none" stroke="#63b8ff" d="M363.73,-184.08C332.08,-174.63 286.99,-161.17 253.12,-151.06"/>
<polygon fill="#63b8ff" stroke="#63b8ff" points="362.92,-187.49 373.5,-186.99 364.92,-180.78 362.92,-187.49"/>
</g>
<!-- Node7 -->
<g id="node7" class="node">
<title>Node7</title>
<g id="a_node7"><a xlink:href="../../db/d30/FMC__encodings_8h.html" target="_top" xlink:title=" ">
<polygon fill="white" stroke="#666666" points="437,-151 285,-151 285,-121 437,-121 437,-151"/>
<text text-anchor="start" x="293" y="-139" font-family="Helvetica,sans-Serif" font-size="10.00">src/data_analyze/encodings</text>
<text text-anchor="middle" x="361" y="-128" font-family="Helvetica,sans-Serif" font-size="10.00">/FMC_encodings.h</text>
</a>
</g>
</g>
<!-- Node5&#45;&gt;Node7 -->
<g id="edge8" class="edge">
<title>Node5&#45;&gt;Node7</title>
<path fill="none" stroke="#63b8ff" d="M390.16,-178.61C384.05,-169.89 376.69,-159.39 370.89,-151.11"/>
<polygon fill="#63b8ff" stroke="#63b8ff" points="387.34,-180.69 395.95,-186.87 393.08,-176.67 387.34,-180.69"/>
</g>
<!-- Node10 -->
<g id="node10" class="node">
<title>Node10</title>
<g id="a_node10"><a xlink:href="../../d9/db5/FMC__strings_8h.html" target="_top" xlink:title=" ">
<polygon fill="white" stroke="#666666" points="590.5,-151 455.5,-151 455.5,-121 590.5,-121 590.5,-151"/>
<text text-anchor="start" x="463.5" y="-139" font-family="Helvetica,sans-Serif" font-size="10.00">src/data_analyze/strings</text>
<text text-anchor="middle" x="523" y="-128" font-family="Helvetica,sans-Serif" font-size="10.00">/FMC_strings.h</text>
</a>
</g>
</g>
<!-- Node5&#45;&gt;Node10 -->
<g id="edge12" class="edge">
<title>Node5&#45;&gt;Node10</title>
<path fill="none" stroke="#63b8ff" d="M428.7,-182.59C447.93,-173.29 473.87,-160.75 493.68,-151.18"/>
<polygon fill="#63b8ff" stroke="#63b8ff" points="427.07,-179.49 419.59,-186.99 430.12,-185.79 427.07,-179.49"/>
</g>
<!-- Node12 -->
<g id="node12" class="node">
<title>Node12</title>
<g id="a_node12"><a xlink:href="../../d2/deb/FMC__file__management_8h.html" target="_top" xlink:title=" ">
<polygon fill="white" stroke="#666666" points="711.5,-151 612.5,-151 612.5,-121 711.5,-121 711.5,-151"/>
<text text-anchor="start" x="620.5" y="-139" font-family="Helvetica,sans-Serif" font-size="10.00">src/files/FMC_file</text>
<text text-anchor="middle" x="662" y="-128" font-family="Helvetica,sans-Serif" font-size="10.00">_management.h</text>
</a>
</g>
</g>
<!-- Node5&#45;&gt;Node12 -->
<g id="edge15" class="edge">
<title>Node5&#45;&gt;Node12</title>
<path fill="none" stroke="#63b8ff" d="M449.84,-184.74C495.93,-174.37 565.36,-158.74 612.12,-148.22"/>
<polygon fill="#63b8ff" stroke="#63b8ff" points="448.79,-181.38 439.81,-186.99 450.33,-188.21 448.79,-181.38"/>
</g>
<!-- Node6&#45;&gt;Node3 -->
<g id="edge7" class="edge">
<title>Node6&#45;&gt;Node3</title>
<path fill="none" stroke="#63b8ff" d="M180.11,-113.61C171.66,-105.45 162.93,-95.54 157,-85 144.83,-63.36 140.31,-33.84 138.75,-19.31"/>
<polygon fill="#63b8ff" stroke="#63b8ff" points="177.97,-116.4 187.7,-120.59 182.71,-111.25 177.97,-116.4"/>
</g>
<!-- Node8 -->
<g id="node8" class="node">
<title>Node8</title>
<g id="a_node8"><a xlink:href="../../da/db0/FMC__data__analyze_8h.html" target="_top" xlink:title=" ">
<polygon fill="white" stroke="#666666" points="460,-85 336,-85 336,-55 460,-55 460,-85"/>
<text text-anchor="start" x="344" y="-73" font-family="Helvetica,sans-Serif" font-size="10.00">src/data_analyze/FMC</text>
<text text-anchor="middle" x="398" y="-62" font-family="Helvetica,sans-Serif" font-size="10.00">_data_analyze.h</text>
</a>
</g>
</g>
<!-- Node7&#45;&gt;Node8 -->
<g id="edge9" class="edge">
<title>Node7&#45;&gt;Node8</title>
<path fill="none" stroke="#63b8ff" d="M374.32,-111.96C379.5,-103 385.26,-93.03 389.81,-85.16"/>
<polygon fill="#63b8ff" stroke="#63b8ff" points="371.19,-110.39 369.21,-120.8 377.25,-113.89 371.19,-110.39"/>
</g>
<!-- Node9 -->
<g id="node9" class="node">
<title>Node9</title>
<g id="a_node9"><a xlink:href="../../db/dc4/FMC__encodings_8c.html" target="_top" xlink:title=" ">
<polygon fill="white" stroke="#666666" points="318,-85 166,-85 166,-55 318,-55 318,-85"/>
<text text-anchor="start" x="174" y="-73" font-family="Helvetica,sans-Serif" font-size="10.00">src/data_analyze/encodings</text>
<text text-anchor="middle" x="242" y="-62" font-family="Helvetica,sans-Serif" font-size="10.00">/FMC_encodings.c</text>
</a>
</g>
</g>
<!-- Node7&#45;&gt;Node9 -->
<g id="edge11" class="edge">
<title>Node7&#45;&gt;Node9</title>
<path fill="none" stroke="#63b8ff" d="M325.87,-116.11C307.35,-106.14 285.01,-94.13 268.05,-85.01"/>
<polygon fill="#63b8ff" stroke="#63b8ff" points="324.42,-119.3 334.88,-120.95 327.74,-113.14 324.42,-119.3"/>
</g>
<!-- Node8&#45;&gt;Node3 -->
<g id="edge10" class="edge">
<title>Node8&#45;&gt;Node3</title>
<path fill="none" stroke="#63b8ff" d="M325.78,-52.75C275.04,-41.33 209.56,-26.6 170.84,-17.89"/>
<polygon fill="#63b8ff" stroke="#63b8ff" points="325.2,-56.21 335.72,-54.99 326.74,-49.38 325.2,-56.21"/>
</g>
<!-- Node10&#45;&gt;Node8 -->
<g id="edge13" class="edge">
<title>Node10&#45;&gt;Node8</title>
<path fill="none" stroke="#63b8ff" d="M486.63,-116.38C467.07,-106.36 443.35,-94.22 425.37,-85.01"/>
<polygon fill="#63b8ff" stroke="#63b8ff" points="485.07,-119.51 495.57,-120.95 488.26,-113.28 485.07,-119.51"/>
</g>
<!-- Node11 -->
<g id="node11" class="node">
<title>Node11</title>
<g id="a_node11"><a xlink:href="../../d1/d8c/FMC__chars_8c.html" target="_top" xlink:title=" ">
<polygon fill="white" stroke="#666666" points="613.5,-85 478.5,-85 478.5,-55 613.5,-55 613.5,-85"/>
<text text-anchor="start" x="486.5" y="-73" font-family="Helvetica,sans-Serif" font-size="10.00">src/data_analyze/strings</text>
<text text-anchor="middle" x="546" y="-62" font-family="Helvetica,sans-Serif" font-size="10.00">/FMC_chars.c</text>
</a>
</g>
</g>
<!-- Node10&#45;&gt;Node11 -->
<g id="edge14" class="edge">
<title>Node10&#45;&gt;Node11</title>
<path fill="none" stroke="#63b8ff" d="M531.59,-111.11C534.72,-102.38 538.17,-92.78 540.91,-85.16"/>
<polygon fill="#63b8ff" stroke="#63b8ff" points="528.19,-110.2 528.1,-120.8 534.78,-112.57 528.19,-110.2"/>
</g>
<!-- Node12&#45;&gt;Node3 -->
<g id="edge16" class="edge">
<title>Node12&#45;&gt;Node3</title>
<path fill="none" stroke="#63b8ff" d="M656.76,-111.15C651.35,-92.62 640.95,-67.95 622,-55 584.81,-29.59 273.02,-15.61 170.51,-11.67"/>
<polygon fill="#63b8ff" stroke="#63b8ff" points="653.41,-112.18 659.33,-120.96 660.18,-110.4 653.41,-112.18"/>
</g>
<!-- Node13 -->
<g id="node13" class="node">
<title>Node13</title>
<g id="a_node13"><a xlink:href="../../d0/dc0/FMC__files_8c.html" target="_top" xlink:title=" ">
<polygon fill="white" stroke="#666666" points="783.5,-79.5 670.5,-79.5 670.5,-60.5 783.5,-60.5 783.5,-79.5"/>
<text text-anchor="middle" x="727" y="-67.5" font-family="Helvetica,sans-Serif" font-size="10.00">src/files/FMC_files.c</text>
</a>
</g>
</g>
<!-- Node12&#45;&gt;Node13 -->
<g id="edge17" class="edge">
<title>Node12&#45;&gt;Node13</title>
<path fill="none" stroke="#63b8ff" d="M683.73,-113.6C695.42,-102.1 709.2,-88.52 718.02,-79.84"/>
<polygon fill="#63b8ff" stroke="#63b8ff" points="681.1,-111.29 676.43,-120.8 686.01,-116.27 681.1,-111.29"/>
</g>
<!-- Node14 -->
<g id="node14" class="node">
<title>Node14</title>
<g id="a_node14"><a xlink:href="../../dc/d5e/FMC__paths_8c.html" target="_top" xlink:title=" ">
<polygon fill="white" stroke="#666666" points="920.5,-79.5 801.5,-79.5 801.5,-60.5 920.5,-60.5 920.5,-79.5"/>
<text text-anchor="middle" x="861" y="-67.5" font-family="Helvetica,sans-Serif" font-size="10.00">src/files/FMC_paths.c</text>
</a>
</g>
</g>
<!-- Node12&#45;&gt;Node14 -->
<g id="edge18" class="edge">
<title>Node12&#45;&gt;Node14</title>
<path fill="none" stroke="#63b8ff" d="M715.19,-117.89C753.73,-105.5 804.19,-89.27 834.52,-79.52"/>
<polygon fill="#63b8ff" stroke="#63b8ff" points="714.12,-114.56 705.67,-120.95 716.26,-121.23 714.12,-114.56"/>
</g>
<!-- Node15&#45;&gt;Node1 -->
<g id="edge20" class="edge">
<title>Node15&#45;&gt;Node1</title>
<path fill="none" stroke="#63b8ff" d="M320.83,-341.91C345.37,-352.04 374.31,-364.53 395,-373.95"/>
<polygon fill="#63b8ff" stroke="#63b8ff" points="321.9,-338.57 311.32,-338.01 319.24,-345.04 321.9,-338.57"/>
</g>
<!-- Node16 -->
<g id="node16" class="node">
<title>Node16</title>
<g id="a_node16"><a xlink:href="../../d4/d06/FMC__deprecated_8h.html" target="_top" xlink:title=" ">
<polygon fill="white" stroke="#666666" points="328.5,-272 209.5,-272 209.5,-242 328.5,-242 328.5,-272"/>
<text text-anchor="start" x="217.5" y="-260" font-family="Helvetica,sans-Serif" font-size="10.00">src/general/utils/FMC</text>
<text text-anchor="middle" x="269" y="-249" font-family="Helvetica,sans-Serif" font-size="10.00">_deprecated.h</text>
</a>
</g>
</g>
<!-- Node15&#45;&gt;Node16 -->
<g id="edge21" class="edge">
<title>Node15&#45;&gt;Node16</title>
<path fill="none" stroke="#63b8ff" d="M271.47,-297.54C270.94,-288.96 270.35,-279.61 269.89,-272.16"/>
<polygon fill="#63b8ff" stroke="#63b8ff" points="268,-298.03 272.11,-307.8 274.98,-297.6 268,-298.03"/>
</g>
<!-- Node16&#45;&gt;Node5 -->
<g id="edge22" class="edge">
<title>Node16&#45;&gt;Node5</title>
<path fill="none" stroke="#63b8ff" d="M310.12,-237.91C334.16,-227.34 363.42,-214.47 382.36,-206.14"/>
<polygon fill="#63b8ff" stroke="#63b8ff" points="308.6,-234.76 300.86,-241.99 311.42,-241.17 308.6,-234.76"/>
</g>
<!-- Node17&#45;&gt;Node5 -->
<g id="edge24" class="edge">
<title>Node17&#45;&gt;Node5</title>
<path fill="none" stroke="#63b8ff" d="M396.23,-301.06C388.17,-292.93 380.27,-282.94 376,-272 366.84,-248.52 384.28,-220.3 394.81,-206.29"/>
<polygon fill="#63b8ff" stroke="#63b8ff" points="393.9,-303.67 403.59,-307.97 398.7,-298.57 393.9,-303.67"/>
</g>
<!-- Node17&#45;&gt;Node18 -->
<g id="edge25" class="edge">
<title>Node17&#45;&gt;Node18</title>
<path fill="none" stroke="#63b8ff" d="M431.59,-298.39C435.17,-289.59 439.12,-279.86 442.25,-272.16"/>
<polygon fill="#63b8ff" stroke="#63b8ff" points="428.29,-297.21 427.77,-307.8 434.78,-299.85 428.29,-297.21"/>
</g>
<!-- Node18&#45;&gt;Node5 -->
<g id="edge26" class="edge">
<title>Node18&#45;&gt;Node5</title>
<path fill="none" stroke="#63b8ff" d="M430.54,-233.8C423,-224.21 414.61,-213.54 408.89,-206.27"/>
<polygon fill="#63b8ff" stroke="#63b8ff" points="427.93,-236.14 436.86,-241.84 433.43,-231.81 427.93,-236.14"/>
</g>
<!-- Node19&#45;&gt;Node5 -->
<g id="edge29" class="edge">
<title>Node19&#45;&gt;Node5</title>
<path fill="none" stroke="#63b8ff" d="M585.33,-300.21C569.24,-282.54 544.62,-258.04 519,-242 492.47,-225.4 458.77,-213.39 434.36,-206.07"/>
<polygon fill="#63b8ff" stroke="#63b8ff" points="582.82,-302.66 592.09,-307.79 588.05,-297.99 582.82,-302.66"/>
</g>
<!-- Node19&#45;&gt;Node18 -->
<g id="edge30" class="edge">
<title>Node19&#45;&gt;Node18</title>
<path fill="none" stroke="#63b8ff" d="M560.26,-304.05C535.54,-293.91 505.1,-281.43 482.16,-272.01"/>
<polygon fill="#63b8ff" stroke="#63b8ff" points="559.18,-307.4 569.77,-307.95 561.84,-300.92 559.18,-307.4"/>
</g>
<!-- Node20 -->
<g id="node20" class="node">
<title>Node20</title>
<g id="a_node20"><a xlink:href="../../de/d86/FMC__globals_8h.html" target="_top" xlink:title=" ">
<polygon fill="white" stroke="#666666" points="686.5,-272 567.5,-272 567.5,-242 686.5,-242 686.5,-272"/>
<text text-anchor="start" x="575.5" y="-260" font-family="Helvetica,sans-Serif" font-size="10.00">src/general/utils/FMC</text>
<text text-anchor="middle" x="627" y="-249" font-family="Helvetica,sans-Serif" font-size="10.00">_globals.h</text>
</a>
</g>
</g>
<!-- Node19&#45;&gt;Node20 -->
<g id="edge31" class="edge">
<title>Node19&#45;&gt;Node20</title>
<path fill="none" stroke="#63b8ff" d="M612.59,-298.11C615.72,-289.38 619.17,-279.78 621.91,-272.16"/>
<polygon fill="#63b8ff" stroke="#63b8ff" points="609.19,-297.2 609.1,-307.8 615.78,-299.57 609.19,-297.2"/>
</g>
<!-- Node20&#45;&gt;Node5 -->
<g id="edge32" class="edge">
<title>Node20&#45;&gt;Node5</title>
<path fill="none" stroke="#63b8ff" d="M563.28,-239.43C521.46,-228.56 468.48,-214.78 434.9,-206.05"/>
<polygon fill="#63b8ff" stroke="#63b8ff" points="562.55,-242.86 573.11,-241.99 564.31,-236.08 562.55,-242.86"/>
</g>
<!-- Node22&#45;&gt;Node5 -->
<g id="edge35" class="edge">
<title>Node22&#45;&gt;Node5</title>
<path fill="none" stroke="#63b8ff" d="M810.31,-301.39C829.62,-284.38 849.39,-260.17 833,-242 809.54,-215.99 592.08,-204.27 475.33,-199.82"/>
<polygon fill="#63b8ff" stroke="#63b8ff" points="807.87,-298.87 802.45,-307.98 812.36,-304.24 807.87,-298.87"/>
</g>
<!-- Node22&#45;&gt;Node21 -->
<g id="edge36" class="edge">
<title>Node22&#45;&gt;Node21</title>
<path fill="none" stroke="#63b8ff" d="M775.91,-298.11C773.31,-289.38 770.47,-279.78 768.2,-272.16"/>
<polygon fill="#63b8ff" stroke="#63b8ff" points="772.58,-299.21 778.78,-307.8 779.29,-297.21 772.58,-299.21"/>
</g>
</g>
</svg>
        <g id="navigator" transform="translate(0 0)" fill="#404254">
                <rect fill="#f2f5e9" fill-opacity="0.5" stroke="#606060" stroke-width=".5" x="0" y="0" width="60" height="60"/>
                <use id="zoomplus" xlink:href="#zoomPlus" x="17" y="9" onmousedown="handleZoom(evt,'in')"/>
                <use id="zoomminus" xlink:href="#zoomMin" x="42" y="9" onmousedown="handleZoom(evt,'out')"/>
                <use id="reset" xlink:href="#resetDef" x="30" y="36" onmousedown="handleReset()"/>
                <g id="arrowUp" xlink:href="#dirArrow" transform="translate(30 24)" onmousedown="handlePan(0,-1)">
                  <use xlink:href="#rim" fill="#404040">
                        <set attributeName="fill" to="#808080" begin="arrowUp.mouseover" end="arrowUp.mouseout"/>
                  </use>
                  <path fill="none" stroke="white" stroke-width="1.5" d="M0,-3.0v7 M-2.5,-0.5L0,-3.0L2.5,-0.5"/>
                </g>
                <g id="arrowRight" xlink:href="#dirArrow" transform="rotate(90) translate(36 -43)" onmousedown="handlePan(1,0)">
                  <use xlink:href="#rim" fill="#404040">
                        <set attributeName="fill" to="#808080" begin="arrowRight.mouseover" end="arrowRight.mouseout"/>
                  </use>
                  <path fill="none" stroke="white" stroke-width="1.5" d="M0,-3.0v7 M-2.5,-0.5L0,-3.0L2.5,-0.5"/>
                </g>
                <g id="arrowDown" xlink:href="#dirArrow" transform="rotate(180) translate(-30 -48)" onmousedown="handlePan(0,1)">
                  <use xlink:href="#rim" fill="#404040">
                        <set attributeName="fill" to="#808080" begin="arrowDown.mouseover" end="arrowDown.mouseout"/>
                  </use>
                  <path fill="none" stroke="white" stroke-width="1.5" d="M0,-3.0v7 M-2.5,-0.5L0,-3.0L2.5,-0.5"/>
                </g>
                <g id="arrowLeft" xlink:href="#dirArrow" transform="rotate(270) translate(-36 17)" onmousedown="handlePan(-1,0)">
                  <use xlink:href="#rim" fill="#404040">
                        <set attributeName="fill" to="#808080" begin="arrowLeft.mouseover" end="arrowLeft.mouseout"/>
                  </use>
                  <path fill="none" stroke="white" stroke-width="1.5" d="M0,-3.0v7 M-2.5,-0.5L0,-3.0L2.5,-0.5"/>
                </g>
        </g>
        <svg viewBox="0 0 15 15" width="100%" height="30px" preserveAspectRatio="xMaxYMin meet">
         <g id="arrow_out" transform="scale(0.3 0.3)">
          <a xlink:href="FMC__macros_8h__dep__incl_org.svg" target="_base">
           <rect id="button" ry="5" rx="5" y="6" x="6" height="38" width="38"
                fill="#f2f5e9" fill-opacity="0.5" stroke="#606060" stroke-width="1.0"/>
           <path id="arrow"
             d="M 11.500037,31.436501 C 11.940474,20.09759 22.043105,11.32322 32.158766,21.979434 L 37.068811,17.246167 C 37.068811,17.246167 37.088388,32 37.088388,32 L 22.160133,31.978069 C 22.160133,31.978069 26.997745,27.140456 26.997745,27.140456 C 18.528582,18.264221 13.291696,25.230495 11.500037,31.436501 z"
             style="fill:#404040;"/>
          </a>
         </g>
        </svg>
</svg>
