<?xml version="1.0" encoding="UTF-8" standalone="no"?>
<!DOCTYPE svg PUBLIC "-//W3C//DTD SVG 1.1//EN"
 "http://www.w3.org/Graphics/SVG/1.1/DTD/svg11.dtd">
<!-- Generated by graphviz version 2.43.0 (0)
 -->
<!-- Title: src/general/preprocessor/FMC_macros.h Pages: 1 -->
<!--zoomable 412 -->
<svg id="main" version="1.1" xmlns="http://www.w3.org/2000/svg" xmlns:xlink="http://www.w3.org/1999/xlink" xml:space="preserve" onload="init(evt)">
<style type="text/css"><![CDATA[
.edge:hover path { stroke: red; }
.edge:hover polygon { stroke: red; fill: red; }
]]></style>
<script type="text/javascript"><![CDATA[
var edges = document.getElementsByTagName('g');
if (edges && edges.length) {
  for (var i=0;i<edges.length;i++) {
    if (edges[i].id.substr(0,4)=='edge') {
      edges[i].setAttribute('class','edge');
    }
  }
}
]]></script>
        <defs>
                <circle id="rim" cx="0" cy="0" r="7"/>
                <circle id="rim2" cx="0" cy="0" r="3.5"/>
                <g id="zoomPlus">
                        <use xlink:href="#rim" fill="#404040">
                                <set attributeName="fill" to="#808080" begin="zoomplus.mouseover" end="zoomplus.mouseout"/>
                        </use>
                        <path d="M-4,0h8M0,-4v8" fill="none" stroke="white" stroke-width="1.5" pointer-events="none"/>
                </g>
                <g id="zoomMin">
                        <use xlink:href="#rim" fill="#404040">
                                <set attributeName="fill" to="#808080" begin="zoomminus.mouseover" end="zoomminus.mouseout"/>
                        </use>
                        <path d="M-4,0h8" fill="none" stroke="white" stroke-width="1.5" pointer-events="none"/>
                </g>
                <g id="dirArrow">
                        <path fill="none" stroke="white" stroke-width="1.5" d="M0,-3.0v7 M-2.5,-0.5L0,-3.0L2.5,-0.5"/>
                </g>
               <g id="resetDef">
                       <use xlink:href="#rim2" fill="#404040">
                               <set attributeName="fill" to="#808080" begin="reset.mouseover" end="reset.mouseout"/>
                       </use>
               </g>
        </defs>

<script type="text/javascript">
var viewWidth = 933;
var viewHeight = 412;
var sectionId = 'dynsection-1';
</script>
<script xlink:href="../../svgpan.js"/>
<svg id="graph" class="graph">
<g id="viewport">
<title>src/general/preprocessor/FMC_macros.h</title>
<!-- Node1 -->
<g id="node1" class="node">
<title>Node1</title>
<g id="a_node1"><a xlink:title=" ">
<polygon fill="#999999" stroke="#666666" points="535.5,-404 398.5,-404 398.5,-374 535.5,-374 535.5,-404"/>
<text text-anchor="start" x="406.5" y="-392" font-family="Helvetica,sans-Serif" font-size="10.00">src/general/preprocessor</text>
<text text-anchor="middle" x="467" y="-381" font-family="Helvetica,sans-Serif" font-size="10.00">/FMC_macros.h</text>
</a>
</g>
</g>
<!-- Node2 -->
<g id="node2" class="node">
<title>Node2</title>
<g id="a_node2"><a xlink:href="../../d4/db9/FMC__wrapper_8h.html" target="_top" xlink:title=" ">
<polygon fill="white" stroke="#666666" points="147.5,-332.5 18.5,-332.5 18.5,-313.5 147.5,-313.5 147.5,-332.5"/>
<text text-anchor="middle" x="83" y="-320.5" font-family="Helvetica,sans-Serif" font-size="10.00">src/cpp/FMC_wrapper.h</text>
</a>
</g>
</g>
<!-- Node1&#45;&gt;Node2 -->
<g id="edge1" class="edge">
<title>Node1&#45;&gt;Node2</title>
<path fill="none" stroke="#63b8ff" d="M388.17,-375.36C326.56,-365.42 238.79,-351.1 162,-338 151.84,-336.27 140.95,-334.37 130.61,-332.54"/>
<polygon fill="#63b8ff" stroke="#63b8ff" points="387.78,-378.85 398.21,-376.98 388.9,-371.94 387.78,-378.85"/>
</g>
<!-- Node5 -->
<g id="node5" class="node">
<title>Node5</title>
<g id="a_node5"><a xlink:href="../../d9/de1/FMC__general_8h.html" target="_top" xlink:title=" ">
<polygon fill="white" stroke="#666666" points="479,-206 333,-206 333,-187 479,-187 479,-206"/>
<text text-anchor="middle" x="406" y="-194" font-family="Helvetica,sans-Serif" font-size="10.00">src/general/FMC_general.h</text>
</a>
</g>
</g>
<!-- Node1&#45;&gt;Node5 -->
<g id="edge4" class="edge">
<title>Node1&#45;&gt;Node5</title>
<path fill="none" stroke="#63b8ff" d="M387.94,-384.39C316.58,-379.28 219.2,-367.05 195,-338 181.54,-321.84 187.91,-259.45 204,-242 221.4,-223.12 282.39,-211.45 332.84,-204.82"/>
<polygon fill="#63b8ff" stroke="#63b8ff" points="388.05,-387.91 398.26,-385.1 388.52,-380.93 388.05,-387.91"/>
</g>
<!-- Node15 -->
<g id="node15" class="node">
<title>Node15</title>
<g id="a_node15"><a xlink:href="../../d1/d2e/FMC__attributes_8h.html" target="_top" xlink:title=" ">
<polygon fill="white" stroke="#666666" points="341.5,-338 204.5,-338 204.5,-308 341.5,-308 341.5,-338"/>
<text text-anchor="start" x="212.5" y="-326" font-family="Helvetica,sans-Serif" font-size="10.00">src/general/preprocessor</text>
<text text-anchor="middle" x="273" y="-315" font-family="Helvetica,sans-Serif" font-size="10.00">/FMC_attributes.h</text>
</a>
</g>
</g>
<!-- Node1&#45;&gt;Node15 -->
<g id="edge19" class="edge">
<title>Node1&#45;&gt;Node15</title>
<path fill="none" stroke="#63b8ff" d="M408.98,-370.86C376.79,-360.58 337.8,-347.68 309.78,-338.01"/>
<polygon fill="#63b8ff" stroke="#63b8ff" points="408.14,-374.26 418.73,-373.95 410.26,-367.59 408.14,-374.26"/>
</g>
<!-- Node17 -->
<g id="node17" class="node">
<title>Node17</title>
<g id="a_node17"><a xlink:href="../../d6/d25/FMC__enums_8h.html" target="_top" xlink:title=" ">
<polygon fill="white" stroke="#666666" points="484.5,-338 359.5,-338 359.5,-308 484.5,-308 484.5,-338"/>
<text text-anchor="start" x="367.5" y="-326" font-family="Helvetica,sans-Serif" font-size="10.00">src/general/types/FMC</text>
<text text-anchor="middle" x="422" y="-315" font-family="Helvetica,sans-Serif" font-size="10.00">_enums.h</text>
</a>
</g>
</g>
<!-- Node1&#45;&gt;Node17 -->
<g id="edge23" class="edge">
<title>Node1&#45;&gt;Node17</title>
<path fill="none" stroke="#63b8ff" d="M451.2,-365.53C444.8,-356.43 437.61,-346.19 431.96,-338.16"/>
<polygon fill="#63b8ff" stroke="#63b8ff" points="448.4,-367.63 457.01,-373.8 454.12,-363.6 448.4,-367.63"/>
</g>
<!-- Node18 -->
<g id="node18" class="node">
<title>Node18</title>
<g id="a_node18"><a xlink:href="../../d5/de5/FMC__structs_8h.html" target="_top" xlink:title=" ">
<polygon fill="white" stroke="#666666" points="514.5,-272 389.5,-272 389.5,-242 514.5,-242 514.5,-272"/>
<text text-anchor="start" x="397.5" y="-260" font-family="Helvetica,sans-Serif" font-size="10.00">src/general/types/FMC</text>
<text text-anchor="middle" x="452" y="-249" font-family="Helvetica,sans-Serif" font-size="10.00">_structs.h</text>
</a>
</g>
</g>
<!-- Node1&#45;&gt;Node18 -->
<g id="edge27" class="edge">
<title>Node1&#45;&gt;Node18</title>
<path fill="none" stroke="#63b8ff" d="M482.66,-365.04C491.61,-348.98 499.82,-327.08 493,-308 488.01,-294.05 477.27,-281.19 468.03,-272.01"/>
<polygon fill="#63b8ff" stroke="#63b8ff" points="479.57,-363.38 477.41,-373.75 485.57,-366.99 479.57,-363.38"/>
</g>
<!-- Node19 -->
<g id="node19" class="node">
<title>Node19</title>
<g id="a_node19"><a xlink:href="../../df/df8/FMC__typedefs_8h.html" target="_top" xlink:title=" ">
<polygon fill="white" stroke="#666666" points="666.5,-338 541.5,-338 541.5,-308 666.5,-308 666.5,-338"/>
<text text-anchor="start" x="549.5" y="-326" font-family="Helvetica,sans-Serif" font-size="10.00">src/general/types/FMC</text>
<text text-anchor="middle" x="604" y="-315" font-family="Helvetica,sans-Serif" font-size="10.00">_typedefs.h</text>
</a>
</g>
</g>
<!-- Node1&#45;&gt;Node19 -->
<g id="edge28" class="edge">
<title>Node1&#45;&gt;Node19</title>
<path fill="none" stroke="#63b8ff" d="M506.28,-369.65C527.83,-359.58 554.12,-347.3 574,-338.01"/>
<polygon fill="#63b8ff" stroke="#63b8ff" points="504.64,-366.55 497.07,-373.95 507.61,-372.89 504.64,-366.55"/>
</g>
<!-- Node20 -->
<g id="node20" class="node">
<title>Node20</title>
<g id="a_node20"><a xlink:href="../../de/d86/FMC__globals_8h.html" target="_top" xlink:title=" ">
<polygon fill="white" stroke="#666666" points="690.5,-272 571.5,-272 571.5,-242 690.5,-242 690.5,-272"/>
<text text-anchor="start" x="579.5" y="-260" font-family="Helvetica,sans-Serif" font-size="10.00">src/general/utils/FMC</text>
<text text-anchor="middle" x="631" y="-249" font-family="Helvetica,sans-Serif" font-size="10.00">_globals.h</text>
</a>
</g>
</g>
<!-- Node1&#45;&gt;Node20 -->
<g id="edge37" class="edge">
<title>Node1&#45;&gt;Node20</title>
<path fill="none" stroke="#63b8ff" d="M545.49,-379.23C597.41,-371.63 658.8,-358.55 675,-338 691.58,-316.96 667.09,-288.84 648.54,-272.15"/>
<polygon fill="#63b8ff" stroke="#63b8ff" points="544.99,-375.77 535.58,-380.63 545.98,-382.7 544.99,-375.77"/>
</g>
<!-- Node21 -->
<g id="node21" class="node">
<title>Node21</title>
<g id="a_node21"><a xlink:href="../../de/dab/FMC__errors_8c.html" target="_top" xlink:title=" ">
<polygon fill="white" stroke="#666666" points="827.5,-272 708.5,-272 708.5,-242 827.5,-242 827.5,-272"/>
<text text-anchor="start" x="716.5" y="-260" font-family="Helvetica,sans-Serif" font-size="10.00">src/general/utils/FMC</text>
<text text-anchor="middle" x="768" y="-249" font-family="Helvetica,sans-Serif" font-size="10.00">_errors.c</text>
</a>
</g>
</g>
<!-- Node1&#45;&gt;Node21 -->
<g id="edge33" class="edge">
<title>Node1&#45;&gt;Node21</title>
<path fill="none" stroke="#63b8ff" d="M545.75,-381.96C590.91,-375.78 647.32,-363.28 692,-338 721.18,-321.49 745.98,-290.17 758.75,-272"/>
<polygon fill="#63b8ff" stroke="#63b8ff" points="545.18,-378.5 535.71,-383.26 546.07,-385.45 545.18,-378.5"/>
</g>
<!-- Node22 -->
<g id="node22" class="node">
<title>Node22</title>
<g id="a_node22"><a xlink:href="../../dd/ddf/FMC__errors_8h.html" target="_top" xlink:title=" ">
<polygon fill="white" stroke="#666666" points="880.5,-338 761.5,-338 761.5,-308 880.5,-308 880.5,-338"/>
<text text-anchor="start" x="769.5" y="-326" font-family="Helvetica,sans-Serif" font-size="10.00">src/general/utils/FMC</text>
<text text-anchor="middle" x="821" y="-315" font-family="Helvetica,sans-Serif" font-size="10.00">_errors.h</text>
</a>
</g>
</g>
<!-- Node1&#45;&gt;Node22 -->
<g id="edge34" class="edge">
<title>Node1&#45;&gt;Node22</title>
<path fill="none" stroke="#63b8ff" d="M545.38,-374.23C601.54,-364.3 678.96,-350.51 747,-338 751.63,-337.15 756.42,-336.26 761.24,-335.36"/>
<polygon fill="#63b8ff" stroke="#63b8ff" points="544.74,-370.78 535.5,-375.97 545.96,-377.68 544.74,-370.78"/>
</g>
<!-- Node3 -->
<g id="node3" class="node">
<title>Node3</title>
<g id="a_node3"><a xlink:href="../../de/d47/FMC_8h.html" target="_top" xlink:title=" ">
<polygon fill="white" stroke="#666666" points="174.5,-19 109.5,-19 109.5,0 174.5,0 174.5,-19"/>
<text text-anchor="middle" x="142" y="-7" font-family="Helvetica,sans-Serif" font-size="10.00">src/FMC.h</text>
</a>
</g>
</g>
<!-- Node2&#45;&gt;Node3 -->
<g id="edge2" class="edge">
<title>Node2&#45;&gt;Node3</title>
<path fill="none" stroke="#63b8ff" d="M57.75,-307.91C44.36,-299.21 28.71,-286.87 19,-272 0.31,-243.39 0,-231.67 0,-197.5 0,-197.5 0,-197.5 0,-135 0,-73.2 76.99,-34.91 117.59,-19.01"/>
<polygon fill="#63b8ff" stroke="#63b8ff" points="56.21,-311.07 66.56,-313.34 59.88,-305.11 56.21,-311.07"/>
</g>
<!-- Node4 -->
<g id="node4" class="node">
<title>Node4</title>
<g id="a_node4"><a xlink:href="../../dd/d0d/FMC__dir__wrapper_8cpp.html" target="_top" xlink:title=" ">
<polygon fill="white" stroke="#666666" points="147.5,-272 28.5,-272 28.5,-242 147.5,-242 147.5,-272"/>
<text text-anchor="start" x="36.5" y="-260" font-family="Helvetica,sans-Serif" font-size="10.00">src/cpp/FMC_dir/FMC</text>
<text text-anchor="middle" x="88" y="-249" font-family="Helvetica,sans-Serif" font-size="10.00">_dir_wrapper.cpp</text>
</a>
</g>
</g>
<!-- Node2&#45;&gt;Node4 -->
<g id="edge3" class="edge">
<title>Node2&#45;&gt;Node4</title>
<path fill="none" stroke="#63b8ff" d="M84.46,-303.35C85.23,-293.47 86.16,-281.51 86.88,-272.36"/>
<polygon fill="#63b8ff" stroke="#63b8ff" points="80.96,-303.13 83.67,-313.37 87.94,-303.67 80.96,-303.13"/>
</g>
<!-- Node5&#45;&gt;Node3 -->
<g id="edge5" class="edge">
<title>Node5&#45;&gt;Node3</title>
<path fill="none" stroke="#63b8ff" d="M322.78,-192.3C255.97,-187.79 169.7,-176.98 147,-151 113.44,-112.59 131.34,-43.25 139.05,-19.08"/>
<polygon fill="#63b8ff" stroke="#63b8ff" points="322.7,-195.8 332.9,-192.94 323.15,-188.81 322.7,-195.8"/>
</g>
<!-- Node6 -->
<g id="node6" class="node">
<title>Node6</title>
<g id="a_node6"><a xlink:href="../../db/d26/FMC__code__utils_8h.html" target="_top" xlink:title=" ">
<polygon fill="white" stroke="#666666" points="264,-151 156,-151 156,-121 264,-121 264,-151"/>
<text text-anchor="start" x="164" y="-139" font-family="Helvetica,sans-Serif" font-size="10.00">src/code_utils/FMC</text>
<text text-anchor="middle" x="210" y="-128" font-family="Helvetica,sans-Serif" font-size="10.00">_code_utils.h</text>
</a>
</g>
</g>
<!-- Node5&#45;&gt;Node6 -->
<g id="edge6" class="edge">
<title>Node5&#45;&gt;Node6</title>
<path fill="none" stroke="#63b8ff" d="M367.73,-184.08C336.08,-174.63 290.99,-161.17 257.12,-151.06"/>
<polygon fill="#63b8ff" stroke="#63b8ff" points="366.92,-187.49 377.5,-186.99 368.92,-180.78 366.92,-187.49"/>
</g>
<!-- Node7 -->
<g id="node7" class="node">
<title>Node7</title>
<g id="a_node7"><a xlink:href="../../db/d30/FMC__encodings_8h.html" target="_top" xlink:title=" ">
<polygon fill="white" stroke="#666666" points="441,-151 289,-151 289,-121 441,-121 441,-151"/>
<text text-anchor="start" x="297" y="-139" font-family="Helvetica,sans-Serif" font-size="10.00">src/data_analyze/encodings</text>
<text text-anchor="middle" x="365" y="-128" font-family="Helvetica,sans-Serif" font-size="10.00">/FMC_encodings.h</text>
</a>
</g>
</g>
<!-- Node5&#45;&gt;Node7 -->
<g id="edge8" class="edge">
<title>Node5&#45;&gt;Node7</title>
<path fill="none" stroke="#63b8ff" d="M394.16,-178.61C388.05,-169.89 380.69,-159.39 374.89,-151.11"/>
<polygon fill="#63b8ff" stroke="#63b8ff" points="391.34,-180.69 399.95,-186.87 397.08,-176.67 391.34,-180.69"/>
</g>
<!-- Node10 -->
<g id="node10" class="node">
<title>Node10</title>
<g id="a_node10"><a xlink:href="../../d9/db5/FMC__strings_8h.html" target="_top" xlink:title=" ">
<polygon fill="white" stroke="#666666" points="594.5,-151 459.5,-151 459.5,-121 594.5,-121 594.5,-151"/>
<text text-anchor="start" x="467.5" y="-139" font-family="Helvetica,sans-Serif" font-size="10.00">src/data_analyze/strings</text>
<text text-anchor="middle" x="527" y="-128" font-family="Helvetica,sans-Serif" font-size="10.00">/FMC_strings.h</text>
</a>
</g>
</g>
<!-- Node5&#45;&gt;Node10 -->
<g id="edge12" class="edge">
<title>Node5&#45;&gt;Node10</title>
<path fill="none" stroke="#63b8ff" d="M432.7,-182.59C451.93,-173.29 477.87,-160.75 497.68,-151.18"/>
<polygon fill="#63b8ff" stroke="#63b8ff" points="431.07,-179.49 423.59,-186.99 434.12,-185.79 431.07,-179.49"/>
</g>
<!-- Node12 -->
<g id="node12" class="node">
<title>Node12</title>
<g id="a_node12"><a xlink:href="../../d2/deb/FMC__file__management_8h.html" target="_top" xlink:title=" ">
<polygon fill="white" stroke="#666666" points="715.5,-151 616.5,-151 616.5,-121 715.5,-121 715.5,-151"/>
<text text-anchor="start" x="624.5" y="-139" font-family="Helvetica,sans-Serif" font-size="10.00">src/files/FMC_file</text>
<text text-anchor="middle" x="666" y="-128" font-family="Helvetica,sans-Serif" font-size="10.00">_management.h</text>
</a>
</g>
</g>
<!-- Node5&#45;&gt;Node12 -->
<g id="edge15" class="edge">
<title>Node5&#45;&gt;Node12</title>
<path fill="none" stroke="#63b8ff" d="M453.84,-184.74C499.93,-174.37 569.36,-158.74 616.12,-148.22"/>
<polygon fill="#63b8ff" stroke="#63b8ff" points="452.79,-181.38 443.81,-186.99 454.33,-188.21 452.79,-181.38"/>
</g>
<!-- Node6&#45;&gt;Node3 -->
<g id="edge7" class="edge">
<title>Node6&#45;&gt;Node3</title>
<path fill="none" stroke="#63b8ff" d="M184.11,-113.61C175.66,-105.45 166.93,-95.54 161,-85 148.83,-63.36 144.31,-33.84 142.75,-19.31"/>
<polygon fill="#63b8ff" stroke="#63b8ff" points="181.97,-116.4 191.7,-120.59 186.71,-111.25 181.97,-116.4"/>
</g>
<!-- Node8 -->
<g id="node8" class="node">
<title>Node8</title>
<g id="a_node8"><a xlink:href="../../da/db0/FMC__data__analyze_8h.html" target="_top" xlink:title=" ">
<polygon fill="white" stroke="#666666" points="464,-85 340,-85 340,-55 464,-55 464,-85"/>
<text text-anchor="start" x="348" y="-73" font-family="Helvetica,sans-Serif" font-size="10.00">src/data_analyze/FMC</text>
<text text-anchor="middle" x="402" y="-62" font-family="Helvetica,sans-Serif" font-size="10.00">_data_analyze.h</text>
</a>
</g>
</g>
<!-- Node7&#45;&gt;Node8 -->
<g id="edge9" class="edge">
<title>Node7&#45;&gt;Node8</title>
<path fill="none" stroke="#63b8ff" d="M378.32,-111.96C383.5,-103 389.26,-93.03 393.81,-85.16"/>
<polygon fill="#63b8ff" stroke="#63b8ff" points="375.19,-110.39 373.21,-120.8 381.25,-113.89 375.19,-110.39"/>
</g>
<!-- Node9 -->
<g id="node9" class="node">
<title>Node9</title>
<g id="a_node9"><a xlink:href="../../db/dc4/FMC__encodings_8c.html" target="_top" xlink:title=" ">
<polygon fill="white" stroke="#666666" points="322,-85 170,-85 170,-55 322,-55 322,-85"/>
<text text-anchor="start" x="178" y="-73" font-family="Helvetica,sans-Serif" font-size="10.00">src/data_analyze/encodings</text>
<text text-anchor="middle" x="246" y="-62" font-family="Helvetica,sans-Serif" font-size="10.00">/FMC_encodings.c</text>
</a>
</g>
</g>
<!-- Node7&#45;&gt;Node9 -->
<g id="edge11" class="edge">
<title>Node7&#45;&gt;Node9</title>
<path fill="none" stroke="#63b8ff" d="M329.87,-116.11C311.35,-106.14 289.01,-94.13 272.05,-85.01"/>
<polygon fill="#63b8ff" stroke="#63b8ff" points="328.42,-119.3 338.88,-120.95 331.74,-113.14 328.42,-119.3"/>
</g>
<!-- Node8&#45;&gt;Node3 -->
<g id="edge10" class="edge">
<title>Node8&#45;&gt;Node3</title>
<path fill="none" stroke="#63b8ff" d="M329.78,-52.75C279.04,-41.33 213.56,-26.6 174.84,-17.89"/>
<polygon fill="#63b8ff" stroke="#63b8ff" points="329.2,-56.21 339.72,-54.99 330.74,-49.38 329.2,-56.21"/>
</g>
<!-- Node10&#45;&gt;Node8 -->
<g id="edge13" class="edge">
<title>Node10&#45;&gt;Node8</title>
<path fill="none" stroke="#63b8ff" d="M490.63,-116.38C471.07,-106.36 447.35,-94.22 429.37,-85.01"/>
<polygon fill="#63b8ff" stroke="#63b8ff" points="489.07,-119.51 499.57,-120.95 492.26,-113.28 489.07,-119.51"/>
</g>
<!-- Node11 -->
<g id="node11" class="node">
<title>Node11</title>
<g id="a_node11"><a xlink:href="../../d1/d8c/FMC__chars_8c.html" target="_top" xlink:title=" ">
<polygon fill="white" stroke="#666666" points="617.5,-85 482.5,-85 482.5,-55 617.5,-55 617.5,-85"/>
<text text-anchor="start" x="490.5" y="-73" font-family="Helvetica,sans-Serif" font-size="10.00">src/data_analyze/strings</text>
<text text-anchor="middle" x="550" y="-62" font-family="Helvetica,sans-Serif" font-size="10.00">/FMC_chars.c</text>
</a>
</g>
</g>
<!-- Node10&#45;&gt;Node11 -->
<g id="edge14" class="edge">
<title>Node10&#45;&gt;Node11</title>
<path fill="none" stroke="#63b8ff" d="M535.59,-111.11C538.72,-102.38 542.17,-92.78 544.91,-85.16"/>
<polygon fill="#63b8ff" stroke="#63b8ff" points="532.19,-110.2 532.1,-120.8 538.78,-112.57 532.19,-110.2"/>
</g>
<!-- Node12&#45;&gt;Node3 -->
<g id="edge16" class="edge">
<title>Node12&#45;&gt;Node3</title>
<path fill="none" stroke="#63b8ff" d="M660.76,-111.15C655.35,-92.62 644.95,-67.95 626,-55 588.81,-29.59 277.02,-15.61 174.51,-11.67"/>
<polygon fill="#63b8ff" stroke="#63b8ff" points="657.41,-112.18 663.33,-120.96 664.18,-110.4 657.41,-112.18"/>
</g>
<!-- Node13 -->
<g id="node13" class="node">
<title>Node13</title>
<g id="a_node13"><a xlink:href="../../d0/dc0/FMC__files_8c.html" target="_top" xlink:title=" ">
<polygon fill="white" stroke="#666666" points="787.5,-79.5 674.5,-79.5 674.5,-60.5 787.5,-60.5 787.5,-79.5"/>
<text text-anchor="middle" x="731" y="-67.5" font-family="Helvetica,sans-Serif" font-size="10.00">src/files/FMC_files.c</text>
</a>
</g>
</g>
<!-- Node12&#45;&gt;Node13 -->
<g id="edge17" class="edge">
<title>Node12&#45;&gt;Node13</title>
<path fill="none" stroke="#63b8ff" d="M687.73,-113.6C699.42,-102.1 713.2,-88.52 722.02,-79.84"/>
<polygon fill="#63b8ff" stroke="#63b8ff" points="685.1,-111.29 680.43,-120.8 690.01,-116.27 685.1,-111.29"/>
</g>
<!-- Node14 -->
<g id="node14" class="node">
<title>Node14</title>
<g id="a_node14"><a xlink:href="../../dc/d5e/FMC__paths_8c.html" target="_top" xlink:title=" ">
<polygon fill="white" stroke="#666666" points="924.5,-79.5 805.5,-79.5 805.5,-60.5 924.5,-60.5 924.5,-79.5"/>
<text text-anchor="middle" x="865" y="-67.5" font-family="Helvetica,sans-Serif" font-size="10.00">src/files/FMC_paths.c</text>
</a>
</g>
</g>
<!-- Node12&#45;&gt;Node14 -->
<g id="edge18" class="edge">
<title>Node12&#45;&gt;Node14</title>
<path fill="none" stroke="#63b8ff" d="M719.19,-117.89C757.73,-105.5 808.19,-89.27 838.52,-79.52"/>
<polygon fill="#63b8ff" stroke="#63b8ff" points="718.12,-114.56 709.67,-120.95 720.26,-121.23 718.12,-114.56"/>
</g>
<!-- Node15&#45;&gt;Node1 -->
<g id="edge20" class="edge">
<title>Node15&#45;&gt;Node1</title>
<path fill="none" stroke="#63b8ff" d="M330.91,-341.11C363.08,-351.38 402.08,-364.28 430.13,-373.95"/>
<polygon fill="#63b8ff" stroke="#63b8ff" points="331.76,-337.71 321.17,-338.01 329.64,-344.38 331.76,-337.71"/>
</g>
<!-- Node16 -->
<g id="node16" class="node">
<title>Node16</title>
<g id="a_node16"><a xlink:href="../../d4/d06/FMC__deprecated_8h.html" target="_top" xlink:title=" ">
<polygon fill="white" stroke="#666666" points="332.5,-272 213.5,-272 213.5,-242 332.5,-242 332.5,-272"/>
<text text-anchor="start" x="221.5" y="-260" font-family="Helvetica,sans-Serif" font-size="10.00">src/general/utils/FMC</text>
<text text-anchor="middle" x="273" y="-249" font-family="Helvetica,sans-Serif" font-size="10.00">_deprecated.h</text>
</a>
</g>
</g>
<!-- Node15&#45;&gt;Node16 -->
<g id="edge21" class="edge">
<title>Node15&#45;&gt;Node16</title>
<path fill="none" stroke="#63b8ff" d="M273,-297.54C273,-288.96 273,-279.61 273,-272.16"/>
<polygon fill="#63b8ff" stroke="#63b8ff" points="269.5,-297.8 273,-307.8 276.5,-297.8 269.5,-297.8"/>
</g>
<!-- Node16&#45;&gt;Node5 -->
<g id="edge22" class="edge">
<title>Node16&#45;&gt;Node5</title>
<path fill="none" stroke="#63b8ff" d="M314.12,-237.91C338.16,-227.34 367.42,-214.47 386.36,-206.14"/>
<polygon fill="#63b8ff" stroke="#63b8ff" points="312.6,-234.76 304.86,-241.99 315.42,-241.17 312.6,-234.76"/>
</g>
<!-- Node17&#45;&gt;Node5 -->
<g id="edge24" class="edge">
<title>Node17&#45;&gt;Node5</title>
<path fill="none" stroke="#63b8ff" d="M397.99,-300.18C390.78,-292.11 383.78,-282.39 380,-272 375.44,-259.47 376.52,-254.87 380,-242 383.69,-228.35 392.73,-214.6 399.11,-206.07"/>
<polygon fill="#63b8ff" stroke="#63b8ff" points="395.71,-302.86 405.16,-307.65 400.76,-298.01 395.71,-302.86"/>
</g>
<!-- Node17&#45;&gt;Node18 -->
<g id="edge25" class="edge">
<title>Node17&#45;&gt;Node18</title>
<path fill="none" stroke="#63b8ff" d="M432.93,-298.68C437.1,-289.79 441.71,-279.95 445.36,-272.16"/>
<polygon fill="#63b8ff" stroke="#63b8ff" points="429.73,-297.26 428.66,-307.8 436.07,-300.23 429.73,-297.26"/>
</g>
<!-- Node18&#45;&gt;Node5 -->
<g id="edge26" class="edge">
<title>Node18&#45;&gt;Node5</title>
<path fill="none" stroke="#63b8ff" d="M434.54,-233.8C427,-224.21 418.61,-213.54 412.89,-206.27"/>
<polygon fill="#63b8ff" stroke="#63b8ff" points="431.93,-236.14 440.86,-241.84 437.43,-231.81 431.93,-236.14"/>
</g>
<!-- Node19&#45;&gt;Node5 -->
<g id="edge29" class="edge">
<title>Node19&#45;&gt;Node5</title>
<path fill="none" stroke="#63b8ff" d="M586,-299.68C570.78,-282.02 547.58,-257.8 523,-242 496.86,-225.2 463.41,-213.28 438.98,-206.03"/>
<polygon fill="#63b8ff" stroke="#63b8ff" points="583.68,-302.36 592.8,-307.75 589.03,-297.85 583.68,-302.36"/>
</g>
<!-- Node19&#45;&gt;Node18 -->
<g id="edge30" class="edge">
<title>Node19&#45;&gt;Node18</title>
<path fill="none" stroke="#63b8ff" d="M561.38,-304.05C537.3,-293.91 507.64,-281.43 485.28,-272.01"/>
<polygon fill="#63b8ff" stroke="#63b8ff" points="560.07,-307.3 570.64,-307.95 562.78,-300.85 560.07,-307.3"/>
</g>
<!-- Node19&#45;&gt;Node20 -->
<g id="edge31" class="edge">
<title>Node19&#45;&gt;Node20</title>
<path fill="none" stroke="#63b8ff" d="M613.96,-298.39C617.67,-289.59 621.78,-279.86 625.02,-272.16"/>
<polygon fill="#63b8ff" stroke="#63b8ff" points="610.65,-297.22 609.99,-307.8 617.1,-299.94 610.65,-297.22"/>
</g>
<!-- Node20&#45;&gt;Node5 -->
<g id="edge32" class="edge">
<title>Node20&#45;&gt;Node5</title>
<path fill="none" stroke="#63b8ff" d="M567.28,-239.43C525.46,-228.56 472.48,-214.78 438.9,-206.05"/>
<polygon fill="#63b8ff" stroke="#63b8ff" points="566.55,-242.86 577.11,-241.99 568.31,-236.08 566.55,-242.86"/>
</g>
<!-- Node22&#45;&gt;Node5 -->
<g id="edge35" class="edge">
<title>Node22&#45;&gt;Node5</title>
<path fill="none" stroke="#63b8ff" d="M835,-298.88C843.7,-281.21 850.85,-257.35 837,-242 813.54,-215.99 596.08,-204.27 479.33,-199.82"/>
<polygon fill="#63b8ff" stroke="#63b8ff" points="831.77,-297.5 830.13,-307.96 837.94,-300.8 831.77,-297.5"/>
</g>
<!-- Node22&#45;&gt;Node21 -->
<g id="edge36" class="edge">
<title>Node22&#45;&gt;Node21</title>
<path fill="none" stroke="#63b8ff" d="M802.85,-300.09C795.2,-290.85 786.52,-280.36 779.73,-272.16"/>
<polygon fill="#63b8ff" stroke="#63b8ff" points="800.16,-302.33 809.24,-307.8 805.56,-297.86 800.16,-302.33"/>
</g>
</g>
</svg>
        <g id="navigator" transform="translate(0 0)" fill="#404254">
                <rect fill="#f2f5e9" fill-opacity="0.5" stroke="#606060" stroke-width=".5" x="0" y="0" width="60" height="60"/>
                <use id="zoomplus" xlink:href="#zoomPlus" x="17" y="9" onmousedown="handleZoom(evt,'in')"/>
                <use id="zoomminus" xlink:href="#zoomMin" x="42" y="9" onmousedown="handleZoom(evt,'out')"/>
                <use id="reset" xlink:href="#resetDef" x="30" y="36" onmousedown="handleReset()"/>
                <g id="arrowUp" xlink:href="#dirArrow" transform="translate(30 24)" onmousedown="handlePan(0,-1)">
                  <use xlink:href="#rim" fill="#404040">
                        <set attributeName="fill" to="#808080" begin="arrowUp.mouseover" end="arrowUp.mouseout"/>
                  </use>
                  <path fill="none" stroke="white" stroke-width="1.5" d="M0,-3.0v7 M-2.5,-0.5L0,-3.0L2.5,-0.5"/>
                </g>
                <g id="arrowRight" xlink:href="#dirArrow" transform="rotate(90) translate(36 -43)" onmousedown="handlePan(1,0)">
                  <use xlink:href="#rim" fill="#404040">
                        <set attributeName="fill" to="#808080" begin="arrowRight.mouseover" end="arrowRight.mouseout"/>
                  </use>
                  <path fill="none" stroke="white" stroke-width="1.5" d="M0,-3.0v7 M-2.5,-0.5L0,-3.0L2.5,-0.5"/>
                </g>
                <g id="arrowDown" xlink:href="#dirArrow" transform="rotate(180) translate(-30 -48)" onmousedown="handlePan(0,1)">
                  <use xlink:href="#rim" fill="#404040">
                        <set attributeName="fill" to="#808080" begin="arrowDown.mouseover" end="arrowDown.mouseout"/>
                  </use>
                  <path fill="none" stroke="white" stroke-width="1.5" d="M0,-3.0v7 M-2.5,-0.5L0,-3.0L2.5,-0.5"/>
                </g>
                <g id="arrowLeft" xlink:href="#dirArrow" transform="rotate(270) translate(-36 17)" onmousedown="handlePan(-1,0)">
                  <use xlink:href="#rim" fill="#404040">
                        <set attributeName="fill" to="#808080" begin="arrowLeft.mouseover" end="arrowLeft.mouseout"/>
                  </use>
                  <path fill="none" stroke="white" stroke-width="1.5" d="M0,-3.0v7 M-2.5,-0.5L0,-3.0L2.5,-0.5"/>
                </g>
        </g>
        <svg viewBox="0 0 15 15" width="100%" height="30px" preserveAspectRatio="xMaxYMin meet">
         <g id="arrow_out" transform="scale(0.3 0.3)">
          <a xlink:href="FMC__macros_8h__dep__incl_org.svg" target="_base">
           <rect id="button" ry="5" rx="5" y="6" x="6" height="38" width="38"
                fill="#f2f5e9" fill-opacity="0.5" stroke="#606060" stroke-width="1.0"/>
           <path id="arrow"
             d="M 11.500037,31.436501 C 11.940474,20.09759 22.043105,11.32322 32.158766,21.979434 L 37.068811,17.246167 C 37.068811,17.246167 37.088388,32 37.088388,32 L 22.160133,31.978069 C 22.160133,31.978069 26.997745,27.140456 26.997745,27.140456 C 18.528582,18.264221 13.291696,25.230495 11.500037,31.436501 z"
             style="fill:#404040;"/>
          </a>
         </g>
        </svg>
</svg>
