<?xml version="1.0" encoding="UTF-8" standalone="no"?>
<!DOCTYPE svg PUBLIC "-//W3C//DTD SVG 1.1//EN"
 "http://www.w3.org/Graphics/SVG/1.1/DTD/svg11.dtd">
<!-- Generated by graphviz version 2.43.0 (0)
 -->
<!-- Title: src/general/preprocessor/FMC_macros.h Pages: 1 -->
<!--zoomable 423 -->
<svg id="main" version="1.1" xmlns="http://www.w3.org/2000/svg" xmlns:xlink="http://www.w3.org/1999/xlink" xml:space="preserve" onload="init(evt)">
<style type="text/css"><![CDATA[
.edge:hover path { stroke: red; }
.edge:hover polygon { stroke: red; fill: red; }
]]></style>
<script type="text/javascript"><![CDATA[
var edges = document.getElementsByTagName('g');
if (edges && edges.length) {
  for (var i=0;i<edges.length;i++) {
    if (edges[i].id.substr(0,4)=='edge') {
      edges[i].setAttribute('class','edge');
    }
  }
}
]]></script>
        <defs>
                <circle id="rim" cx="0" cy="0" r="7"/>
                <circle id="rim2" cx="0" cy="0" r="3.5"/>
                <g id="zoomPlus">
                        <use xlink:href="#rim" fill="#404040">
                                <set attributeName="fill" to="#808080" begin="zoomplus.mouseover" end="zoomplus.mouseout"/>
                        </use>
                        <path d="M-4,0h8M0,-4v8" fill="none" stroke="white" stroke-width="1.5" pointer-events="none"/>
                </g>
                <g id="zoomMin">
                        <use xlink:href="#rim" fill="#404040">
                                <set attributeName="fill" to="#808080" begin="zoomminus.mouseover" end="zoomminus.mouseout"/>
                        </use>
                        <path d="M-4,0h8" fill="none" stroke="white" stroke-width="1.5" pointer-events="none"/>
                </g>
                <g id="dirArrow">
                        <path fill="none" stroke="white" stroke-width="1.5" d="M0,-3.0v7 M-2.5,-0.5L0,-3.0L2.5,-0.5"/>
                </g>
               <g id="resetDef">
                       <use xlink:href="#rim2" fill="#404040">
                               <set attributeName="fill" to="#808080" begin="reset.mouseover" end="reset.mouseout"/>
                       </use>
               </g>
        </defs>

<script type="text/javascript">
var viewWidth = 1094;
var viewHeight = 423;
var sectionId = 'dynsection-1';
</script>
<script xlink:href="../../svgpan.js"/>
<svg id="graph" class="graph">
<g id="viewport">
<title>src/general/preprocessor/FMC_macros.h</title>
<!-- Node1 -->
<g id="node1" class="node">
<title>Node1</title>
<g id="a_node1"><a xlink:title=" ">
<polygon fill="#999999" stroke="#666666" points="662.65,-415 525.65,-415 525.65,-385 662.65,-385 662.65,-415"/>
<text text-anchor="start" x="533.65" y="-403" font-family="Helvetica,sans-Serif" font-size="10.00">src/general/preprocessor</text>
<text text-anchor="middle" x="594.15" y="-392" font-family="Helvetica,sans-Serif" font-size="10.00">/FMC_macros.h</text>
</a>
</g>
</g>
<!-- Node2 -->
<g id="node2" class="node">
<title>Node2</title>
<g id="a_node2"><a xlink:href="../../d4/db9/FMC__wrapper_8h.html" target="_top" xlink:title=" ">
<polygon fill="white" stroke="#666666" points="175.65,-343.5 46.65,-343.5 46.65,-324.5 175.65,-324.5 175.65,-343.5"/>
<text text-anchor="middle" x="111.15" y="-331.5" font-family="Helvetica,sans-Serif" font-size="10.00">src/cpp/FMC_wrapper.h</text>
</a>
</g>
</g>
<!-- Node1&#45;&gt;Node2 -->
<g id="edge1" class="edge">
<title>Node1&#45;&gt;Node2</title>
<path fill="none" stroke="#63b8ff" d="M515.35,-388.56C420.53,-375.99 263.15,-355.14 175.36,-343.51"/>
<polygon fill="#63b8ff" stroke="#63b8ff" points="515.09,-392.05 525.46,-389.9 516.01,-385.11 515.09,-392.05"/>
</g>
<!-- Node5 -->
<g id="node5" class="node">
<title>Node5</title>
<g id="a_node5"><a xlink:href="../../d9/de1/FMC__general_8h.html" target="_top" xlink:title=" ">
<polygon fill="white" stroke="#666666" points="727.15,-211.5 581.15,-211.5 581.15,-192.5 727.15,-192.5 727.15,-211.5"/>
<text text-anchor="middle" x="654.15" y="-199.5" font-family="Helvetica,sans-Serif" font-size="10.00">src/general/FMC_general.h</text>
</a>
</g>
</g>
<!-- Node1&#45;&gt;Node5 -->
<g id="edge4" class="edge">
<title>Node1&#45;&gt;Node5</title>
<path fill="none" stroke="#63b8ff" d="M515.09,-395.39C443.73,-390.28 346.35,-378.05 322.15,-349 313.62,-338.76 318.56,-331.84 322.15,-319 331.38,-285.96 333.8,-272.3 362.15,-253 396.91,-229.34 506.37,-215.5 580.94,-208.6"/>
<polygon fill="#63b8ff" stroke="#63b8ff" points="515.2,-398.91 525.41,-396.1 515.68,-391.93 515.2,-398.91"/>
</g>
<!-- Node17 -->
<g id="node17" class="node">
<title>Node17</title>
<g id="a_node17"><a xlink:href="../../d1/d2e/FMC__attributes_8h.html" target="_top" xlink:title=" ">
<polygon fill="white" stroke="#666666" points="468.65,-349 331.65,-349 331.65,-319 468.65,-319 468.65,-349"/>
<text text-anchor="start" x="339.65" y="-337" font-family="Helvetica,sans-Serif" font-size="10.00">src/general/preprocessor</text>
<text text-anchor="middle" x="400.15" y="-326" font-family="Helvetica,sans-Serif" font-size="10.00">/FMC_attributes.h</text>
</a>
</g>
</g>
<!-- Node1&#45;&gt;Node17 -->
<g id="edge22" class="edge">
<title>Node1&#45;&gt;Node17</title>
<path fill="none" stroke="#63b8ff" d="M536.13,-381.86C503.94,-371.58 464.95,-358.68 436.93,-349.01"/>
<polygon fill="#63b8ff" stroke="#63b8ff" points="535.29,-385.26 545.88,-384.95 537.41,-378.59 535.29,-385.26"/>
</g>
<!-- Node19 -->
<g id="node19" class="node">
<title>Node19</title>
<g id="a_node19"><a xlink:href="../../d6/d25/FMC__enums_8h.html" target="_top" xlink:title=" ">
<polygon fill="white" stroke="#666666" points="611.65,-349 486.65,-349 486.65,-319 611.65,-319 611.65,-349"/>
<text text-anchor="start" x="494.65" y="-337" font-family="Helvetica,sans-Serif" font-size="10.00">src/general/types/FMC</text>
<text text-anchor="middle" x="549.15" y="-326" font-family="Helvetica,sans-Serif" font-size="10.00">_enums.h</text>
</a>
</g>
</g>
<!-- Node1&#45;&gt;Node19 -->
<g id="edge26" class="edge">
<title>Node1&#45;&gt;Node19</title>
<path fill="none" stroke="#63b8ff" d="M578.35,-376.53C571.95,-367.43 564.76,-357.19 559.11,-349.16"/>
<polygon fill="#63b8ff" stroke="#63b8ff" points="575.55,-378.63 584.16,-384.8 581.28,-374.6 575.55,-378.63"/>
</g>
<!-- Node20 -->
<g id="node20" class="node">
<title>Node20</title>
<g id="a_node20"><a xlink:href="../../d5/de5/FMC__structs_8h.html" target="_top" xlink:title=" ">
<polygon fill="white" stroke="#666666" points="702.65,-283 577.65,-283 577.65,-253 702.65,-253 702.65,-283"/>
<text text-anchor="start" x="585.65" y="-271" font-family="Helvetica,sans-Serif" font-size="10.00">src/general/types/FMC</text>
<text text-anchor="middle" x="640.15" y="-260" font-family="Helvetica,sans-Serif" font-size="10.00">_structs.h</text>
</a>
</g>
</g>
<!-- Node1&#45;&gt;Node20 -->
<g id="edge30" class="edge">
<title>Node1&#45;&gt;Node20</title>
<path fill="none" stroke="#63b8ff" d="M607.45,-376.19C611.93,-367.83 616.67,-358.17 620.15,-349 628.62,-326.64 634.55,-299.41 637.65,-283.18"/>
<polygon fill="#63b8ff" stroke="#63b8ff" points="604.37,-374.53 602.58,-384.97 610.49,-377.92 604.37,-374.53"/>
</g>
<!-- Node21 -->
<g id="node21" class="node">
<title>Node21</title>
<g id="a_node21"><a xlink:href="../../df/df8/FMC__typedefs_8h.html" target="_top" xlink:title=" ">
<polygon fill="white" stroke="#666666" points="793.65,-349 668.65,-349 668.65,-319 793.65,-319 793.65,-349"/>
<text text-anchor="start" x="676.65" y="-337" font-family="Helvetica,sans-Serif" font-size="10.00">src/general/types/FMC</text>
<text text-anchor="middle" x="731.15" y="-326" font-family="Helvetica,sans-Serif" font-size="10.00">_typedefs.h</text>
</a>
</g>
</g>
<!-- Node1&#45;&gt;Node21 -->
<g id="edge31" class="edge">
<title>Node1&#45;&gt;Node21</title>
<path fill="none" stroke="#63b8ff" d="M633.43,-380.65C654.98,-370.58 681.27,-358.3 701.16,-349.01"/>
<polygon fill="#63b8ff" stroke="#63b8ff" points="631.8,-377.55 624.22,-384.95 634.76,-383.89 631.8,-377.55"/>
</g>
<!-- Node22 -->
<g id="node22" class="node">
<title>Node22</title>
<g id="a_node22"><a xlink:href="../../de/d86/FMC__globals_8h.html" target="_top" xlink:title=" ">
<polygon fill="white" stroke="#666666" points="878.65,-283 759.65,-283 759.65,-253 878.65,-253 878.65,-283"/>
<text text-anchor="start" x="767.65" y="-271" font-family="Helvetica,sans-Serif" font-size="10.00">src/general/utils/FMC</text>
<text text-anchor="middle" x="819.15" y="-260" font-family="Helvetica,sans-Serif" font-size="10.00">_globals.h</text>
</a>
</g>
</g>
<!-- Node1&#45;&gt;Node22 -->
<g id="edge41" class="edge">
<title>Node1&#45;&gt;Node22</title>
<path fill="none" stroke="#63b8ff" d="M672.74,-388.92C723.78,-380.77 784.05,-367.58 802.15,-349 819.29,-331.4 821.03,-301.05 820.35,-283.23"/>
<polygon fill="#63b8ff" stroke="#63b8ff" points="672.02,-385.49 662.67,-390.49 673.09,-392.41 672.02,-385.49"/>
</g>
<!-- Node24 -->
<g id="node24" class="node">
<title>Node24</title>
<g id="a_node24"><a xlink:href="../../de/dab/FMC__errors_8c.html" target="_top" xlink:title=" ">
<polygon fill="white" stroke="#666666" points="1056.65,-283 937.65,-283 937.65,-253 1056.65,-253 1056.65,-283"/>
<text text-anchor="start" x="945.65" y="-271" font-family="Helvetica,sans-Serif" font-size="10.00">src/general/utils/FMC</text>
<text text-anchor="middle" x="997.15" y="-260" font-family="Helvetica,sans-Serif" font-size="10.00">_errors.c</text>
</a>
</g>
</g>
<!-- Node1&#45;&gt;Node24 -->
<g id="edge37" class="edge">
<title>Node1&#45;&gt;Node24</title>
<path fill="none" stroke="#63b8ff" d="M672.73,-399.08C772.13,-397.49 935.63,-388.68 979.15,-349 997.46,-332.31 999.19,-301.35 998.43,-283.23"/>
<polygon fill="#63b8ff" stroke="#63b8ff" points="672.67,-395.58 662.72,-399.22 672.77,-402.58 672.67,-395.58"/>
</g>
<!-- Node25 -->
<g id="node25" class="node">
<title>Node25</title>
<g id="a_node25"><a xlink:href="../../dd/ddf/FMC__errors_8h.html" target="_top" xlink:title=" ">
<polygon fill="white" stroke="#666666" points="969.65,-349 850.65,-349 850.65,-319 969.65,-319 969.65,-349"/>
<text text-anchor="start" x="858.65" y="-337" font-family="Helvetica,sans-Serif" font-size="10.00">src/general/utils/FMC</text>
<text text-anchor="middle" x="910.15" y="-326" font-family="Helvetica,sans-Serif" font-size="10.00">_errors.h</text>
</a>
</g>
</g>
<!-- Node1&#45;&gt;Node25 -->
<g id="edge38" class="edge">
<title>Node1&#45;&gt;Node25</title>
<path fill="none" stroke="#63b8ff" d="M672.78,-383.07C727.81,-371.93 800.2,-357.27 850.5,-347.08"/>
<polygon fill="#63b8ff" stroke="#63b8ff" points="671.82,-379.7 662.72,-385.11 673.21,-386.56 671.82,-379.7"/>
</g>
<!-- Node3 -->
<g id="node3" class="node">
<title>Node3</title>
<g id="a_node3"><a xlink:href="../../de/d47/FMC_8h.html" target="_top" xlink:title=" ">
<polygon fill="white" stroke="#666666" points="538.65,-19 473.65,-19 473.65,0 538.65,0 538.65,-19"/>
<text text-anchor="middle" x="506.15" y="-7" font-family="Helvetica,sans-Serif" font-size="10.00">src/FMC.h</text>
</a>
</g>
</g>
<!-- Node2&#45;&gt;Node3 -->
<g id="edge2" class="edge">
<title>Node2&#45;&gt;Node3</title>
<path fill="none" stroke="#63b8ff" d="M87.17,-318.89C55.08,-297.98 2.15,-255.54 2.15,-203 2.15,-203 2.15,-203 2.15,-135 2.15,-98.46 -6.45,-78.95 21.15,-55 55.24,-25.43 369.8,-14.23 473.31,-11.33"/>
<polygon fill="#63b8ff" stroke="#63b8ff" points="85.67,-322.08 96,-324.44 89.39,-316.15 85.67,-322.08"/>
</g>
<!-- Node4 -->
<g id="node4" class="node">
<title>Node4</title>
<g id="a_node4"><a xlink:href="../../dd/d0d/FMC__dir__wrapper_8cpp.html" target="_top" xlink:title=" ">
<polygon fill="white" stroke="#666666" points="170.65,-283 51.65,-283 51.65,-253 170.65,-253 170.65,-283"/>
<text text-anchor="start" x="59.65" y="-271" font-family="Helvetica,sans-Serif" font-size="10.00">src/cpp/FMC_dir/FMC</text>
<text text-anchor="middle" x="111.15" y="-260" font-family="Helvetica,sans-Serif" font-size="10.00">_dir_wrapper.cpp</text>
</a>
</g>
</g>
<!-- Node2&#45;&gt;Node4 -->
<g id="edge3" class="edge">
<title>Node2&#45;&gt;Node4</title>
<path fill="none" stroke="#63b8ff" d="M111.15,-314.35C111.15,-304.47 111.15,-292.51 111.15,-283.36"/>
<polygon fill="#63b8ff" stroke="#63b8ff" points="107.65,-314.37 111.15,-324.37 114.65,-314.37 107.65,-314.37"/>
</g>
<!-- Node5&#45;&gt;Node3 -->
<g id="edge5" class="edge">
<title>Node5&#45;&gt;Node3</title>
<path fill="none" stroke="#63b8ff" d="M722.04,-190.74C824.12,-172.62 998.4,-129.66 931.15,-55 904.99,-25.96 633.87,-14.57 538.84,-11.46"/>
<polygon fill="#63b8ff" stroke="#63b8ff" points="721.35,-187.3 712.1,-192.46 722.55,-194.2 721.35,-187.3"/>
</g>
<!-- Node6 -->
<g id="node6" class="node">
<title>Node6</title>
<g id="a_node6"><a xlink:href="../../db/d26/FMC__code__utils_8h.html" target="_top" xlink:title=" ">
<polygon fill="white" stroke="#666666" points="1086.15,-151 978.15,-151 978.15,-121 1086.15,-121 1086.15,-151"/>
<text text-anchor="start" x="986.15" y="-139" font-family="Helvetica,sans-Serif" font-size="10.00">src/code_utils/FMC</text>
<text text-anchor="middle" x="1032.15" y="-128" font-family="Helvetica,sans-Serif" font-size="10.00">_code_utils.h</text>
</a>
</g>
</g>
<!-- Node5&#45;&gt;Node6 -->
<g id="edge6" class="edge">
<title>Node5&#45;&gt;Node6</title>
<path fill="none" stroke="#63b8ff" d="M721.89,-190.94C784.79,-181.39 880.98,-166.26 964.15,-151 968.66,-150.17 973.32,-149.28 978,-148.37"/>
<polygon fill="#63b8ff" stroke="#63b8ff" points="721.06,-187.52 711.7,-192.48 722.11,-194.44 721.06,-187.52"/>
</g>
<!-- Node7 -->
<g id="node7" class="node">
<title>Node7</title>
<g id="a_node7"><a xlink:href="../../db/d30/FMC__encodings_8h.html" target="_top" xlink:title=" ">
<polygon fill="white" stroke="#666666" points="481.15,-151 329.15,-151 329.15,-121 481.15,-121 481.15,-151"/>
<text text-anchor="start" x="337.15" y="-139" font-family="Helvetica,sans-Serif" font-size="10.00">src/data_analyze/encodings</text>
<text text-anchor="middle" x="405.15" y="-128" font-family="Helvetica,sans-Serif" font-size="10.00">/FMC_encodings.h</text>
</a>
</g>
</g>
<!-- Node5&#45;&gt;Node7 -->
<g id="edge8" class="edge">
<title>Node5&#45;&gt;Node7</title>
<path fill="none" stroke="#63b8ff" d="M610.92,-189.89C568.97,-179.1 505.15,-162.7 459.72,-151.02"/>
<polygon fill="#63b8ff" stroke="#63b8ff" points="610.27,-193.34 620.83,-192.44 612.01,-186.56 610.27,-193.34"/>
</g>
<!-- Node10 -->
<g id="node10" class="node">
<title>Node10</title>
<g id="a_node10"><a xlink:href="../../d9/db5/FMC__strings_8h.html" target="_top" xlink:title=" ">
<polygon fill="white" stroke="#666666" points="310.65,-151 175.65,-151 175.65,-121 310.65,-121 310.65,-151"/>
<text text-anchor="start" x="183.65" y="-139" font-family="Helvetica,sans-Serif" font-size="10.00">src/data_analyze/strings</text>
<text text-anchor="middle" x="243.15" y="-128" font-family="Helvetica,sans-Serif" font-size="10.00">/FMC_strings.h</text>
</a>
</g>
</g>
<!-- Node5&#45;&gt;Node10 -->
<g id="edge12" class="edge">
<title>Node5&#45;&gt;Node10</title>
<path fill="none" stroke="#63b8ff" d="M583.3,-191.05C515.62,-181.39 410.8,-166.02 320.15,-151 317.07,-150.49 313.92,-149.96 310.74,-149.41"/>
<polygon fill="#63b8ff" stroke="#63b8ff" points="583.03,-194.54 593.42,-192.49 584.01,-187.61 583.03,-194.54"/>
</g>
<!-- Node12 -->
<g id="node12" class="node">
<title>Node12</title>
<g id="a_node12"><a xlink:href="../../d2/deb/FMC__file__management_8h.html" target="_top" xlink:title=" ">
<polygon fill="white" stroke="#666666" points="640.65,-151 541.65,-151 541.65,-121 640.65,-121 640.65,-151"/>
<text text-anchor="start" x="549.65" y="-139" font-family="Helvetica,sans-Serif" font-size="10.00">src/files/FMC_file</text>
<text text-anchor="middle" x="591.15" y="-128" font-family="Helvetica,sans-Serif" font-size="10.00">_management.h</text>
</a>
</g>
</g>
<!-- Node5&#45;&gt;Node12 -->
<g id="edge15" class="edge">
<title>Node5&#45;&gt;Node12</title>
<path fill="none" stroke="#63b8ff" d="M638.55,-185.16C628.37,-174.81 615.17,-161.4 605.29,-151.36"/>
<polygon fill="#63b8ff" stroke="#63b8ff" points="636.15,-187.7 645.65,-192.37 641.13,-182.79 636.15,-187.7"/>
</g>
<!-- Node15 -->
<g id="node15" class="node">
<title>Node15</title>
<g id="a_node15"><a xlink:href="../../da/d45/FMC__str__view_8h.html" target="_top" xlink:title=" ">
<polygon fill="white" stroke="#666666" points="777.65,-151 658.65,-151 658.65,-121 777.65,-121 777.65,-151"/>
<text text-anchor="start" x="666.65" y="-139" font-family="Helvetica,sans-Serif" font-size="10.00">src/general/utils/FMC</text>
<text text-anchor="middle" x="718.15" y="-128" font-family="Helvetica,sans-Serif" font-size="10.00">_str_view.h</text>
</a>
</g>
</g>
<!-- Node5&#45;&gt;Node15 -->
<g id="edge19" class="edge">
<title>Node5&#45;&gt;Node15</title>
<path fill="none" stroke="#63b8ff" d="M664.67,-184.49C673.91,-174.15 687.19,-160.97 698.33,-151.12"/>
<polygon fill="#63b8ff" stroke="#63b8ff" points="661.79,-182.48 657.99,-192.37 667.13,-187 661.79,-182.48"/>
</g>
<!-- Node6&#45;&gt;Node3 -->
<g id="edge7" class="edge">
<title>Node6&#45;&gt;Node3</title>
<path fill="none" stroke="#63b8ff" d="M1019.59,-112.19C1007.88,-93.38 988.59,-67.77 964.15,-55 889.99,-16.24 630.48,-11.12 538.65,-10.53"/>
<polygon fill="#63b8ff" stroke="#63b8ff" points="1016.59,-114 1024.71,-120.8 1022.6,-110.42 1016.59,-114"/>
</g>
<!-- Node8 -->
<g id="node8" class="node">
<title>Node8</title>
<g id="a_node8"><a xlink:href="../../da/db0/FMC__data__analyze_8h.html" target="_top" xlink:title=" ">
<polygon fill="white" stroke="#666666" points="308.15,-85 184.15,-85 184.15,-55 308.15,-55 308.15,-85"/>
<text text-anchor="start" x="192.15" y="-73" font-family="Helvetica,sans-Serif" font-size="10.00">src/data_analyze/FMC</text>
<text text-anchor="middle" x="246.15" y="-62" font-family="Helvetica,sans-Serif" font-size="10.00">_data_analyze.h</text>
</a>
</g>
</g>
<!-- Node7&#45;&gt;Node8 -->
<g id="edge9" class="edge">
<title>Node7&#45;&gt;Node8</title>
<path fill="none" stroke="#63b8ff" d="M360.9,-117.19C335.65,-107.02 304.45,-94.47 280.96,-85.01"/>
<polygon fill="#63b8ff" stroke="#63b8ff" points="359.67,-120.47 370.26,-120.95 362.29,-113.97 359.67,-120.47"/>
</g>
<!-- Node9 -->
<g id="node9" class="node">
<title>Node9</title>
<g id="a_node9"><a xlink:href="../../db/dc4/FMC__encodings_8c.html" target="_top" xlink:title=" ">
<polygon fill="white" stroke="#666666" points="478.15,-85 326.15,-85 326.15,-55 478.15,-55 478.15,-85"/>
<text text-anchor="start" x="334.15" y="-73" font-family="Helvetica,sans-Serif" font-size="10.00">src/data_analyze/encodings</text>
<text text-anchor="middle" x="402.15" y="-62" font-family="Helvetica,sans-Serif" font-size="10.00">/FMC_encodings.c</text>
</a>
</g>
</g>
<!-- Node7&#45;&gt;Node9 -->
<g id="edge11" class="edge">
<title>Node7&#45;&gt;Node9</title>
<path fill="none" stroke="#63b8ff" d="M404,-110.54C403.6,-101.96 403.16,-92.61 402.82,-85.16"/>
<polygon fill="#63b8ff" stroke="#63b8ff" points="400.52,-110.97 404.49,-120.8 407.51,-110.64 400.52,-110.97"/>
</g>
<!-- Node8&#45;&gt;Node3 -->
<g id="edge10" class="edge">
<title>Node8&#45;&gt;Node3</title>
<path fill="none" stroke="#63b8ff" d="M318.37,-52.75C369.11,-41.33 434.59,-26.6 473.31,-17.89"/>
<polygon fill="#63b8ff" stroke="#63b8ff" points="317.42,-49.38 308.43,-54.99 318.95,-56.21 317.42,-49.38"/>
</g>
<!-- Node10&#45;&gt;Node8 -->
<g id="edge13" class="edge">
<title>Node10&#45;&gt;Node8</title>
<path fill="none" stroke="#63b8ff" d="M244.3,-110.54C244.7,-101.96 245.14,-92.61 245.49,-85.16"/>
<polygon fill="#63b8ff" stroke="#63b8ff" points="240.79,-110.64 243.82,-120.8 247.78,-110.97 240.79,-110.64"/>
</g>
<!-- Node11 -->
<g id="node11" class="node">
<title>Node11</title>
<g id="a_node11"><a xlink:href="../../d1/d8c/FMC__chars_8c.html" target="_top" xlink:title=" ">
<polygon fill="white" stroke="#666666" points="165.65,-85 30.65,-85 30.65,-55 165.65,-55 165.65,-85"/>
<text text-anchor="start" x="38.65" y="-73" font-family="Helvetica,sans-Serif" font-size="10.00">src/data_analyze/strings</text>
<text text-anchor="middle" x="98.15" y="-62" font-family="Helvetica,sans-Serif" font-size="10.00">/FMC_chars.c</text>
</a>
</g>
</g>
<!-- Node10&#45;&gt;Node11 -->
<g id="edge14" class="edge">
<title>Node10&#45;&gt;Node11</title>
<path fill="none" stroke="#63b8ff" d="M201.88,-116.78C179.02,-106.69 151.04,-94.34 129.9,-85.01"/>
<polygon fill="#63b8ff" stroke="#63b8ff" points="200.77,-120.12 211.33,-120.95 203.6,-113.71 200.77,-120.12"/>
</g>
<!-- Node12&#45;&gt;Node3 -->
<g id="edge16" class="edge">
<title>Node12&#45;&gt;Node3</title>
<path fill="none" stroke="#63b8ff" d="M556.22,-115.17C544.82,-107.15 533.07,-96.93 525.15,-85 511.27,-64.09 507.53,-33.72 506.52,-19.05"/>
<polygon fill="#63b8ff" stroke="#63b8ff" points="554.53,-118.26 564.8,-120.88 558.41,-112.43 554.53,-118.26"/>
</g>
<!-- Node13 -->
<g id="node13" class="node">
<title>Node13</title>
<g id="a_node13"><a xlink:href="../../d0/dc0/FMC__files_8c.html" target="_top" xlink:title=" ">
<polygon fill="white" stroke="#666666" points="647.65,-79.5 534.65,-79.5 534.65,-60.5 647.65,-60.5 647.65,-79.5"/>
<text text-anchor="middle" x="591.15" y="-67.5" font-family="Helvetica,sans-Serif" font-size="10.00">src/files/FMC_files.c</text>
</a>
</g>
</g>
<!-- Node12&#45;&gt;Node13 -->
<g id="edge17" class="edge">
<title>Node12&#45;&gt;Node13</title>
<path fill="none" stroke="#63b8ff" d="M591.15,-110.6C591.15,-99.8 591.15,-87.78 591.15,-79.84"/>
<polygon fill="#63b8ff" stroke="#63b8ff" points="587.65,-110.8 591.15,-120.8 594.65,-110.8 587.65,-110.8"/>
</g>
<!-- Node14 -->
<g id="node14" class="node">
<title>Node14</title>
<g id="a_node14"><a xlink:href="../../dc/d5e/FMC__paths_8c.html" target="_top" xlink:title=" ">
<polygon fill="white" stroke="#666666" points="784.65,-79.5 665.65,-79.5 665.65,-60.5 784.65,-60.5 784.65,-79.5"/>
<text text-anchor="middle" x="725.15" y="-67.5" font-family="Helvetica,sans-Serif" font-size="10.00">src/files/FMC_paths.c</text>
</a>
</g>
</g>
<!-- Node12&#45;&gt;Node14 -->
<g id="edge18" class="edge">
<title>Node12&#45;&gt;Node14</title>
<path fill="none" stroke="#63b8ff" d="M629.63,-116.62C655.2,-104.41 687.59,-88.94 707.32,-79.52"/>
<polygon fill="#63b8ff" stroke="#63b8ff" points="628.07,-113.49 620.56,-120.95 631.09,-119.8 628.07,-113.49"/>
</g>
<!-- Node15&#45;&gt;Node5 -->
<g id="edge20" class="edge">
<title>Node15&#45;&gt;Node5</title>
<path fill="none" stroke="#63b8ff" d="M702.67,-158.92C691.91,-170.41 677.93,-183.83 667.57,-192.37"/>
<polygon fill="#63b8ff" stroke="#63b8ff" points="705.41,-161.12 709.53,-151.36 700.22,-156.42 705.41,-161.12"/>
</g>
<!-- Node16 -->
<g id="node16" class="node">
<title>Node16</title>
<g id="a_node16"><a xlink:href="../../d2/daf/FMC__str__view_8c.html" target="_top" xlink:title=" ">
<polygon fill="white" stroke="#666666" points="921.65,-85 802.65,-85 802.65,-55 921.65,-55 921.65,-85"/>
<text text-anchor="start" x="810.65" y="-73" font-family="Helvetica,sans-Serif" font-size="10.00">src/general/utils/FMC</text>
<text text-anchor="middle" x="862.15" y="-62" font-family="Helvetica,sans-Serif" font-size="10.00">_str_view.c</text>
</a>
</g>
</g>
<!-- Node15&#45;&gt;Node16 -->
<g id="edge21" class="edge">
<title>Node15&#45;&gt;Node16</title>
<path fill="none" stroke="#63b8ff" d="M759.14,-116.78C781.84,-106.69 809.63,-94.34 830.62,-85.01"/>
<polygon fill="#63b8ff" stroke="#63b8ff" points="757.47,-113.7 749.75,-120.95 760.31,-120.09 757.47,-113.7"/>
</g>
<!-- Node17&#45;&gt;Node1 -->
<g id="edge23" class="edge">
<title>Node17&#45;&gt;Node1</title>
<path fill="none" stroke="#63b8ff" d="M458.07,-352.11C490.23,-362.38 529.23,-375.28 557.28,-384.95"/>
<polygon fill="#63b8ff" stroke="#63b8ff" points="458.91,-348.71 448.32,-349.01 456.79,-355.38 458.91,-348.71"/>
</g>
<!-- Node18 -->
<g id="node18" class="node">
<title>Node18</title>
<g id="a_node18"><a xlink:href="../../d4/d06/FMC__deprecated_8h.html" target="_top" xlink:title=" ">
<polygon fill="white" stroke="#666666" points="490.65,-283 371.65,-283 371.65,-253 490.65,-253 490.65,-283"/>
<text text-anchor="start" x="379.65" y="-271" font-family="Helvetica,sans-Serif" font-size="10.00">src/general/utils/FMC</text>
<text text-anchor="middle" x="431.15" y="-260" font-family="Helvetica,sans-Serif" font-size="10.00">_deprecated.h</text>
</a>
</g>
</g>
<!-- Node17&#45;&gt;Node18 -->
<g id="edge24" class="edge">
<title>Node17&#45;&gt;Node18</title>
<path fill="none" stroke="#63b8ff" d="M411.45,-309.68C415.75,-300.79 420.52,-290.95 424.29,-283.16"/>
<polygon fill="#63b8ff" stroke="#63b8ff" points="408.24,-308.27 407.03,-318.8 414.54,-311.32 408.24,-308.27"/>
</g>
<!-- Node18&#45;&gt;Node5 -->
<g id="edge25" class="edge">
<title>Node18&#45;&gt;Node5</title>
<path fill="none" stroke="#63b8ff" d="M489.94,-250.13C533.22,-237.71 590.27,-221.33 624.47,-211.52"/>
<polygon fill="#63b8ff" stroke="#63b8ff" points="488.74,-246.83 480.09,-252.95 490.67,-253.56 488.74,-246.83"/>
</g>
<!-- Node19&#45;&gt;Node5 -->
<g id="edge27" class="edge">
<title>Node19&#45;&gt;Node5</title>
<path fill="none" stroke="#63b8ff" d="M549.97,-308.59C551.65,-291.56 556.21,-269.08 568.15,-253 583.18,-232.76 609.04,-219.34 628.49,-211.55"/>
<polygon fill="#63b8ff" stroke="#63b8ff" points="546.46,-308.65 549.23,-318.88 553.44,-309.16 546.46,-308.65"/>
</g>
<!-- Node19&#45;&gt;Node20 -->
<g id="edge28" class="edge">
<title>Node19&#45;&gt;Node20</title>
<path fill="none" stroke="#63b8ff" d="M577.55,-313.03C591.32,-303.34 607.53,-291.94 620.01,-283.16"/>
<polygon fill="#63b8ff" stroke="#63b8ff" points="575.51,-310.18 569.35,-318.8 579.54,-315.91 575.51,-310.18"/>
</g>
<!-- Node20&#45;&gt;Node5 -->
<g id="edge29" class="edge">
<title>Node20&#45;&gt;Node5</title>
<path fill="none" stroke="#63b8ff" d="M645.41,-242.94C647.8,-232.06 650.46,-219.86 652.22,-211.84"/>
<polygon fill="#63b8ff" stroke="#63b8ff" points="641.98,-242.28 643.26,-252.8 648.81,-243.78 641.98,-242.28"/>
</g>
<!-- Node21&#45;&gt;Node5 -->
<g id="edge32" class="edge">
<title>Node21&#45;&gt;Node5</title>
<path fill="none" stroke="#63b8ff" d="M728.91,-308.66C726.5,-292 721.49,-269.94 711.15,-253 700.32,-235.25 681.14,-220.36 668.05,-211.57"/>
<polygon fill="#63b8ff" stroke="#63b8ff" points="725.46,-309.22 730.16,-318.72 732.4,-308.36 725.46,-309.22"/>
</g>
<!-- Node21&#45;&gt;Node20 -->
<g id="edge33" class="edge">
<title>Node21&#45;&gt;Node20</title>
<path fill="none" stroke="#63b8ff" d="M702.75,-313.03C688.98,-303.34 672.77,-291.94 660.29,-283.16"/>
<polygon fill="#63b8ff" stroke="#63b8ff" points="700.76,-315.91 710.96,-318.8 704.79,-310.18 700.76,-315.91"/>
</g>
<!-- Node21&#45;&gt;Node22 -->
<g id="edge34" class="edge">
<title>Node21&#45;&gt;Node22</title>
<path fill="none" stroke="#63b8ff" d="M758.99,-312.75C772.22,-303.13 787.72,-291.86 799.68,-283.16"/>
<polygon fill="#63b8ff" stroke="#63b8ff" points="756.71,-310.08 750.68,-318.8 760.83,-315.75 756.71,-310.08"/>
</g>
<!-- Node22&#45;&gt;Node5 -->
<g id="edge35" class="edge">
<title>Node22&#45;&gt;Node5</title>
<path fill="none" stroke="#63b8ff" d="M773.41,-249.26C741.68,-236.95 700.83,-221.11 676.11,-211.52"/>
<polygon fill="#63b8ff" stroke="#63b8ff" points="772.35,-252.6 782.94,-252.95 774.88,-246.08 772.35,-252.6"/>
</g>
<!-- Node23 -->
<g id="node23" class="node">
<title>Node23</title>
<g id="a_node23"><a xlink:href="../../d0/ddd/FMC__globals_8c.html" target="_top" xlink:title=" ">
<polygon fill="white" stroke="#666666" points="878.65,-217 759.65,-217 759.65,-187 878.65,-187 878.65,-217"/>
<text text-anchor="start" x="767.65" y="-205" font-family="Helvetica,sans-Serif" font-size="10.00">src/general/utils/FMC</text>
<text text-anchor="middle" x="819.15" y="-194" font-family="Helvetica,sans-Serif" font-size="10.00">_globals.c</text>
</a>
</g>
</g>
<!-- Node22&#45;&gt;Node23 -->
<g id="edge36" class="edge">
<title>Node22&#45;&gt;Node23</title>
<path fill="none" stroke="#63b8ff" d="M819.15,-242.54C819.15,-233.96 819.15,-224.61 819.15,-217.16"/>
<polygon fill="#63b8ff" stroke="#63b8ff" points="815.65,-242.8 819.15,-252.8 822.65,-242.8 815.65,-242.8"/>
</g>
<!-- Node25&#45;&gt;Node5 -->
<g id="edge39" class="edge">
<title>Node25&#45;&gt;Node5</title>
<path fill="none" stroke="#63b8ff" d="M909.56,-308.9C907.8,-290.99 902.44,-267.28 887.15,-253 874.07,-240.79 772.26,-222.25 707.62,-211.51"/>
<polygon fill="#63b8ff" stroke="#63b8ff" points="906.07,-309.18 910.24,-318.92 913.05,-308.7 906.07,-309.18"/>
</g>
<!-- Node25&#45;&gt;Node24 -->
<g id="edge40" class="edge">
<title>Node25&#45;&gt;Node24</title>
<path fill="none" stroke="#63b8ff" d="M937.67,-312.75C950.76,-303.13 966.08,-291.86 977.9,-283.16"/>
<polygon fill="#63b8ff" stroke="#63b8ff" points="935.44,-310.05 929.46,-318.8 939.59,-315.69 935.44,-310.05"/>
</g>
</g>
</svg>
        <g id="navigator" transform="translate(0 0)" fill="#404254">
                <rect fill="#f2f5e9" fill-opacity="0.5" stroke="#606060" stroke-width=".5" x="0" y="0" width="60" height="60"/>
                <use id="zoomplus" xlink:href="#zoomPlus" x="17" y="9" onmousedown="handleZoom(evt,'in')"/>
                <use id="zoomminus" xlink:href="#zoomMin" x="42" y="9" onmousedown="handleZoom(evt,'out')"/>
                <use id="reset" xlink:href="#resetDef" x="30" y="36" onmousedown="handleReset()"/>
                <g id="arrowUp" xlink:href="#dirArrow" transform="translate(30 24)" onmousedown="handlePan(0,-1)">
                  <use xlink:href="#rim" fill="#404040">
                        <set attributeName="fill" to="#808080" begin="arrowUp.mouseover" end="arrowUp.mouseout"/>
                  </use>
                  <path fill="none" stroke="white" stroke-width="1.5" d="M0,-3.0v7 M-2.5,-0.5L0,-3.0L2.5,-0.5"/>
                </g>
                <g id="arrowRight" xlink:href="#dirArrow" transform="rotate(90) translate(36 -43)" onmousedown="handlePan(1,0)">
                  <use xlink:href="#rim" fill="#404040">
                        <set attributeName="fill" to="#808080" begin="arrowRight.mouseover" end="arrowRight.mouseout"/>
                  </use>
                  <path fill="none" stroke="white" stroke-width="1.5" d="M0,-3.0v7 M-2.5,-0.5L0,-3.0L2.5,-0.5"/>
                </g>
                <g id="arrowDown" xlink:href="#dirArrow" transform="rotate(180) translate(-30 -48)" onmousedown="handlePan(0,1)">
                  <use xlink:href="#rim" fill="#404040">
                        <set attributeName="fill" to="#808080" begin="arrowDown.mouseover" end="arrowDown.mouseout"/>
                  </use>
                  <path fill="none" stroke="white" stroke-width="1.5" d="M0,-3.0v7 M-2.5,-0.5L0,-3.0L2.5,-0.5"/>
                </g>
                <g id="arrowLeft" xlink:href="#dirArrow" transform="rotate(270) translate(-36 17)" onmousedown="handlePan(-1,0)">
                  <use xlink:href="#rim" fill="#404040">
                        <set attributeName="fill" to="#808080" begin="arrowLeft.mouseover" end="arrowLeft.mouseout"/>
                  </use>
                  <path fill="none" stroke="white" stroke-width="1.5" d="M0,-3.0v7 M-2.5,-0.5L0,-3.0L2.5,-0.5"/>
                </g>
        </g>
        <svg viewBox="0 0 15 15" width="100%" height="30px" preserveAspectRatio="xMaxYMin meet">
         <g id="arrow_out" transform="scale(0.3 0.3)">
          <a xlink:href="FMC__macros_8h__dep__incl_org.svg" target="_base">
           <rect id="button" ry="5" rx="5" y="6" x="6" height="38" width="38"
                fill="#f2f5e9" fill-opacity="0.5" stroke="#606060" stroke-width="1.0"/>
           <path id="arrow"
             d="M 11.500037,31.436501 C 11.940474,20.09759 22.043105,11.32322 32.158766,21.979434 L 37.068811,17.246167 C 37.068811,17.246167 37.088388,32 37.088388,32 L 22.160133,31.978069 C 22.160133,31.978069 26.997745,27.140456 26.997745,27.140456 C 18.528582,18.264221 13.291696,25.230495 11.500037,31.436501 z"
             style="fill:#404040;"/>
          </a>
         </g>
        </svg>
</svg>
