<?xml version="1.0" encoding="UTF-8" standalone="no"?>
<!DOCTYPE svg PUBLIC "-//W3C//DTD SVG 1.1//EN"
 "http://www.w3.org/Graphics/SVG/1.1/DTD/svg11.dtd">
<!-- Generated by graphviz version 7.1.0 (20230121.1956)
 -->
<!-- Title: FMC_getEncoding Pages: 1 -->
<svg width="462pt" height="161pt"
 viewBox="0.00 0.00 462.00 161.00" xmlns="http://www.w3.org/2000/svg" xmlns:xlink="http://www.w3.org/1999/xlink">
<g id="graph0" class="graph" transform="scale(1 1) rotate(0) translate(4 157)">
<title>FMC_getEncoding</title>
<!-- Node1 -->
<g id="node1" class="node">
<title>Node1</title>
<g id="a_node1"><a xlink:title=" ">
<polygon fill="#999999" stroke="#666666" points="97,-85.5 0,-85.5 0,-66.5 97,-66.5 97,-85.5"/>
<text text-anchor="middle" x="48.5" y="-73.5" font-family="Helvetica,sans-Serif" font-size="10.00">FMC_getEncoding</text>
</a>
</g>
</g>
<!-- Node2 -->
<g id="node2" class="node">
<title>Node2</title>
<g id="a_node2"><a xlink:href="../../dc/de1/_f_m_c__errors_8h.html#aa53062880249a772fa5af75cbb637d14" target="_top" xlink:title=" ">
<polygon fill="white" stroke="#666666" points="264,-104.5 139,-104.5 139,-85.5 264,-85.5 264,-104.5"/>
<text text-anchor="middle" x="201.5" y="-92.5" font-family="Helvetica,sans-Serif" font-size="10.00">FMC_printBrightRedError</text>
</a>
</g>
</g>
<!-- Node1&#45;&gt;Node2 -->
<g id="edge1" class="edge">
<title>Node1&#45;&gt;Node2</title>
<path fill="none" stroke="#63b8ff" d="M97.28,-82.01C106.92,-83.23 117.27,-84.53 127.55,-85.82"/>
<polygon fill="#63b8ff" stroke="#63b8ff" points="126.79,-89.25 137.15,-87.03 127.66,-82.31 126.79,-89.25"/>
</g>
<!-- Node6 -->
<g id="node6" class="node">
<title>Node6</title>
<g id="a_node6"><a xlink:href="../../dc/de1/_f_m_c__errors_8h.html#a8a9d04ab3b4e6f06e7eead7abd20581c" target="_top" xlink:title=" ">
<polygon fill="white" stroke="#666666" points="270,-67.5 133,-67.5 133,-48.5 270,-48.5 270,-67.5"/>
<text text-anchor="middle" x="201.5" y="-55.5" font-family="Helvetica,sans-Serif" font-size="10.00">FMC_printBrightYellowError</text>
</a>
</g>
</g>
<!-- Node1&#45;&gt;Node6 -->
<g id="edge5" class="edge">
<title>Node1&#45;&gt;Node6</title>
<path fill="none" stroke="#63b8ff" d="M97.28,-70.3C105,-69.38 113.17,-68.41 121.4,-67.43"/>
<polygon fill="#63b8ff" stroke="#63b8ff" points="121.6,-70.93 131.12,-66.27 120.77,-63.98 121.6,-70.93"/>
</g>
<!-- Node3 -->
<g id="node3" class="node">
<title>Node3</title>
<g id="a_node3"><a xlink:href="../../dc/de1/_f_m_c__errors_8h.html#abfd332c091d02782f186ebfa172b6acd" target="_top" xlink:title=" ">
<polygon fill="white" stroke="#666666" points="453.5,-153 306.5,-153 306.5,-123 453.5,-123 453.5,-153"/>
<text text-anchor="start" x="314.5" y="-141" font-family="Helvetica,sans-Serif" font-size="10.00">FMC_changeStreamTextColor</text>
<text text-anchor="middle" x="380" y="-130" font-family="Helvetica,sans-Serif" font-size="10.00">ToBrightRed</text>
</a>
</g>
</g>
<!-- Node2&#45;&gt;Node3 -->
<g id="edge2" class="edge">
<title>Node2&#45;&gt;Node3</title>
<path fill="none" stroke="#63b8ff" d="M243.44,-104.97C261.56,-109.39 283.47,-114.73 304.34,-119.81"/>
<polygon fill="#63b8ff" stroke="#63b8ff" points="303.45,-123.2 314,-122.16 305.11,-116.4 303.45,-123.2"/>
</g>
<!-- Node4 -->
<g id="node4" class="node">
<title>Node4</title>
<g id="a_node4"><a xlink:href="../../dc/de1/_f_m_c__errors_8h.html#a5dac1ddff314ba7b3bed3d87eb3f19f5" target="_top" xlink:title=" ">
<polygon fill="white" stroke="#666666" points="454,-104.5 306,-104.5 306,-85.5 454,-85.5 454,-104.5"/>
<text text-anchor="middle" x="380" y="-92.5" font-family="Helvetica,sans-Serif" font-size="10.00">FMC_resetStreamOutputStyle</text>
</a>
</g>
</g>
<!-- Node2&#45;&gt;Node4 -->
<g id="edge3" class="edge">
<title>Node2&#45;&gt;Node4</title>
<path fill="none" stroke="#63b8ff" d="M264.23,-95C273.98,-95 284.21,-95 294.37,-95"/>
<polygon fill="#63b8ff" stroke="#63b8ff" points="294.28,-98.5 304.28,-95 294.28,-91.5 294.28,-98.5"/>
</g>
<!-- Node5 -->
<g id="node5" class="node">
<title>Node5</title>
<g id="a_node5"><a xlink:href="../../dc/de1/_f_m_c__errors_8h.html#ad65d0a387448c0139270e9c628cf4126" target="_top" xlink:title=" ">
<polygon fill="white" stroke="#666666" points="444,-67.5 316,-67.5 316,-48.5 444,-48.5 444,-67.5"/>
<text text-anchor="middle" x="380" y="-55.5" font-family="Helvetica,sans-Serif" font-size="10.00">FMC_setTextStyleToBold</text>
</a>
</g>
</g>
<!-- Node2&#45;&gt;Node5 -->
<g id="edge4" class="edge">
<title>Node2&#45;&gt;Node5</title>
<path fill="none" stroke="#63b8ff" d="M249.8,-85.08C271.56,-80.52 297.59,-75.07 320.57,-70.25"/>
<polygon fill="#63b8ff" stroke="#63b8ff" points="321.02,-73.73 330.09,-68.25 319.58,-66.88 321.02,-73.73"/>
</g>
<!-- Node6&#45;&gt;Node4 -->
<g id="edge7" class="edge">
<title>Node6&#45;&gt;Node4</title>
<path fill="none" stroke="#63b8ff" d="M249.8,-67.92C271.56,-72.48 297.59,-77.93 320.57,-82.75"/>
<polygon fill="#63b8ff" stroke="#63b8ff" points="319.58,-86.12 330.09,-84.75 321.02,-79.27 319.58,-86.12"/>
</g>
<!-- Node6&#45;&gt;Node5 -->
<g id="edge8" class="edge">
<title>Node6&#45;&gt;Node5</title>
<path fill="none" stroke="#63b8ff" d="M270.49,-58C281.51,-58 292.99,-58 304.17,-58"/>
<polygon fill="#63b8ff" stroke="#63b8ff" points="304.17,-61.5 314.17,-58 304.17,-54.5 304.17,-61.5"/>
</g>
<!-- Node7 -->
<g id="node7" class="node">
<title>Node7</title>
<g id="a_node7"><a xlink:href="../../dc/de1/_f_m_c__errors_8h.html#ae7a53e0773baed28896abfe5743a3a68" target="_top" xlink:title=" ">
<polygon fill="white" stroke="#666666" points="453.5,-30 306.5,-30 306.5,0 453.5,0 453.5,-30"/>
<text text-anchor="start" x="314.5" y="-18" font-family="Helvetica,sans-Serif" font-size="10.00">FMC_changeStreamTextColor</text>
<text text-anchor="middle" x="380" y="-7" font-family="Helvetica,sans-Serif" font-size="10.00">ToBrightYellow</text>
</a>
</g>
</g>
<!-- Node6&#45;&gt;Node7 -->
<g id="edge6" class="edge">
<title>Node6&#45;&gt;Node7</title>
<path fill="none" stroke="#63b8ff" d="M243.44,-48.03C261.56,-43.61 283.47,-38.27 304.34,-33.19"/>
<polygon fill="#63b8ff" stroke="#63b8ff" points="305.11,-36.6 314,-30.84 303.45,-29.8 305.11,-36.6"/>
</g>
</g>
</svg>
