<?xml version="1.0" encoding="UTF-8" standalone="no"?>
<!DOCTYPE svg PUBLIC "-//W3C//DTD SVG 1.1//EN"
 "http://www.w3.org/Graphics/SVG/1.1/DTD/svg11.dtd">
<!-- Generated by graphviz version 2.43.0 (0)
 -->
<!-- Title: FMC_printWhiteText Pages: 1 -->
<svg width="320pt" height="76pt"
 viewBox="0.00 0.00 320.00 75.50" xmlns="http://www.w3.org/2000/svg" xmlns:xlink="http://www.w3.org/1999/xlink">
<g id="graph0" class="graph" transform="scale(1 1) rotate(0) translate(4 71.5)">
<title>FMC_printWhiteText</title>
<!-- Node1 -->
<g id="node1" class="node">
<title>Node1</title>
<g id="a_node1"><a xlink:title=" ">
<polygon fill="#999999" stroke="#666666" points="115,-40 0,-40 0,-21 115,-21 115,-40"/>
<text text-anchor="middle" x="57.5" y="-28" font-family="Helvetica,sans-Serif" font-size="10.00">FMC_printWhiteText</text>
</a>
</g>
</g>
<!-- Node2 -->
<g id="node2" class="node">
<title>Node2</title>
<g id="a_node2"><a xlink:href="../../dd/ddf/FMC__errors_8h.html#a8341db3979a9fb2f84cfdc1a700a901a" target="_top" xlink:title=" ">
<polygon fill="white" stroke="#666666" points="311.5,-67.5 151.5,-67.5 151.5,-37.5 311.5,-37.5 311.5,-67.5"/>
<text text-anchor="start" x="159.5" y="-55.5" font-family="Helvetica,sans-Serif" font-size="10.00">FMC_changeStreamTextColor</text>
<text text-anchor="middle" x="231.5" y="-44.5" font-family="Helvetica,sans-Serif" font-size="10.00">ToWhite</text>
</a>
</g>
</g>
<!-- Node1&#45;&gt;Node2 -->
<g id="edge1" class="edge">
<title>Node1&#45;&gt;Node2</title>
<path fill="none" stroke="#63b8ff" d="M115.3,-37.76C123.69,-38.84 132.5,-39.96 141.35,-41.1"/>
<polygon fill="#63b8ff" stroke="#63b8ff" points="140.98,-44.58 151.35,-42.38 141.87,-37.64 140.98,-44.58"/>
</g>
<!-- Node3 -->
<g id="node3" class="node">
<title>Node3</title>
<g id="a_node3"><a xlink:href="../../dd/ddf/FMC__errors_8h.html#a5dac1ddff314ba7b3bed3d87eb3f19f5" target="_top" xlink:title=" ">
<polygon fill="white" stroke="#666666" points="312,-19 151,-19 151,0 312,0 312,-19"/>
<text text-anchor="middle" x="231.5" y="-7" font-family="Helvetica,sans-Serif" font-size="10.00">FMC_resetStreamOutputStyle</text>
</a>
</g>
</g>
<!-- Node1&#45;&gt;Node3 -->
<g id="edge2" class="edge">
<title>Node1&#45;&gt;Node3</title>
<path fill="none" stroke="#63b8ff" d="M115.3,-23.57C124.06,-22.5 133.29,-21.37 142.55,-20.24"/>
<polygon fill="#63b8ff" stroke="#63b8ff" points="143.08,-23.7 152.58,-19.01 142.23,-16.75 143.08,-23.7"/>
</g>
</g>
</svg>
