<?xml version="1.0" encoding="UTF-8" standalone="no"?>
<!DOCTYPE svg PUBLIC "-//W3C//DTD SVG 1.1//EN"
 "http://www.w3.org/Graphics/SVG/1.1/DTD/svg11.dtd">
<!-- Generated by graphviz version 2.43.0 (0)
 -->
<!-- Title: FMC_changeStreamTextColorToBrightYellow Pages: 1 -->
<svg width="493pt" height="64pt"
 viewBox="0.00 0.00 493.00 64.00" xmlns="http://www.w3.org/2000/svg" xmlns:xlink="http://www.w3.org/1999/xlink">
<g id="graph0" class="graph" transform="scale(1 1) rotate(0) translate(4 60)">
<title>FMC_changeStreamTextColorToBrightYellow</title>
<!-- Node1 -->
<g id="node1" class="node">
<title>Node1</title>
<g id="a_node1"><a xlink:title=" ">
<polygon fill="#999999" stroke="#666666" points="485,-42.5 325,-42.5 325,-12.5 485,-12.5 485,-42.5"/>
<text text-anchor="start" x="333" y="-30.5" font-family="Helvetica,sans-Serif" font-size="10.00">FMC_changeStreamTextColor</text>
<text text-anchor="middle" x="405" y="-19.5" font-family="Helvetica,sans-Serif" font-size="10.00">ToBrightYellow</text>
</a>
</g>
</g>
<!-- Node2 -->
<g id="node2" class="node">
<title>Node2</title>
<g id="a_node2"><a xlink:href="../../dd/ddf/FMC__errors_8h.html#ad88b59522d44764cbf3aaaac2674af14" target="_top" xlink:title=" ">
<polygon fill="white" stroke="#666666" points="289,-56 140,-56 140,-37 289,-37 289,-56"/>
<text text-anchor="middle" x="214.5" y="-44" font-family="Helvetica,sans-Serif" font-size="10.00">FMC_printBrightYellowError</text>
</a>
</g>
</g>
<!-- Node1&#45;&gt;Node2 -->
<g id="edge1" class="edge">
<title>Node1&#45;&gt;Node2</title>
<path fill="none" stroke="#63b8ff" d="M314.79,-36.49C306.15,-37.36 297.46,-38.24 289.01,-39.09"/>
<polygon fill="#63b8ff" stroke="#63b8ff" points="315.28,-39.96 324.88,-35.48 314.58,-33 315.28,-39.96"/>
</g>
<!-- Node4 -->
<g id="node4" class="node">
<title>Node4</title>
<g id="a_node4"><a xlink:href="../../dd/ddf/FMC__errors_8h.html#ae7dc5079936ba774fc7567b10bd8c35d" target="_top" xlink:title=" ">
<polygon fill="white" stroke="#666666" points="287.5,-19 141.5,-19 141.5,0 287.5,0 287.5,-19"/>
<text text-anchor="middle" x="214.5" y="-7" font-family="Helvetica,sans-Serif" font-size="10.00">FMC_printBrightYellowText</text>
</a>
</g>
</g>
<!-- Node1&#45;&gt;Node4 -->
<g id="edge3" class="edge">
<title>Node1&#45;&gt;Node4</title>
<path fill="none" stroke="#63b8ff" d="M314.65,-18.97C305.55,-18.1 296.39,-17.22 287.51,-16.38"/>
<polygon fill="#63b8ff" stroke="#63b8ff" points="314.59,-22.48 324.88,-19.94 315.26,-15.51 314.59,-22.48"/>
</g>
<!-- Node3 -->
<g id="node3" class="node">
<title>Node3</title>
<g id="a_node3"><a xlink:href="../../db/dc4/FMC__encodings_8c.html#ac43872885563da059b7870132977db9d" target="_top" xlink:title=" ">
<polygon fill="white" stroke="#666666" points="104,-56 0,-56 0,-37 104,-37 104,-56"/>
<text text-anchor="middle" x="52" y="-44" font-family="Helvetica,sans-Serif" font-size="10.00">FMC_getEncoding</text>
</a>
</g>
</g>
<!-- Node2&#45;&gt;Node3 -->
<g id="edge2" class="edge">
<title>Node2&#45;&gt;Node3</title>
<path fill="none" stroke="#63b8ff" d="M129.65,-46.5C120.99,-46.5 112.38,-46.5 104.23,-46.5"/>
<polygon fill="#63b8ff" stroke="#63b8ff" points="129.83,-50 139.83,-46.5 129.83,-43 129.83,-50"/>
</g>
</g>
</svg>
