<?xml version="1.0" encoding="UTF-8" standalone="no"?>
<!DOCTYPE svg PUBLIC "-//W3C//DTD SVG 1.1//EN"
 "http://www.w3.org/Graphics/SVG/1.1/DTD/svg11.dtd">
<!-- Generated by graphviz version 2.43.0 (0)
 -->
<!-- Title: FMC_changeStreamTextColorToBrightBlue Pages: 1 -->
<svg width="344pt" height="64pt"
 viewBox="0.00 0.00 344.00 64.00" xmlns="http://www.w3.org/2000/svg" xmlns:xlink="http://www.w3.org/1999/xlink">
<g id="graph0" class="graph" transform="scale(1 1) rotate(0) translate(4 60)">
<title>FMC_changeStreamTextColorToBrightBlue</title>
<!-- Node1 -->
<g id="node1" class="node">
<title>Node1</title>
<g id="a_node1"><a xlink:title=" ">
<polygon fill="#999999" stroke="#666666" points="336,-42.5 176,-42.5 176,-12.5 336,-12.5 336,-42.5"/>
<text text-anchor="start" x="184" y="-30.5" font-family="Helvetica,sans-Serif" font-size="10.00">FMC_changeStreamTextColor</text>
<text text-anchor="middle" x="256" y="-19.5" font-family="Helvetica,sans-Serif" font-size="10.00">ToBrightBlue</text>
</a>
</g>
</g>
<!-- Node2 -->
<g id="node2" class="node">
<title>Node2</title>
<g id="a_node2"><a xlink:href="../../dd/ddf/FMC__errors_8h.html#a9472ef4935e71c850fa7aa1232ad96cb" target="_top" xlink:title=" ">
<polygon fill="white" stroke="#666666" points="140,-56 0,-56 0,-37 140,-37 140,-56"/>
<text text-anchor="middle" x="70" y="-44" font-family="Helvetica,sans-Serif" font-size="10.00">FMC_printBrightBlueError</text>
</a>
</g>
</g>
<!-- Node1&#45;&gt;Node2 -->
<g id="edge1" class="edge">
<title>Node1&#45;&gt;Node2</title>
<path fill="none" stroke="#63b8ff" d="M165.82,-36.71C157.21,-37.6 148.56,-38.49 140.19,-39.36"/>
<polygon fill="#63b8ff" stroke="#63b8ff" points="166.31,-40.18 175.9,-35.67 165.59,-33.21 166.31,-40.18"/>
</g>
<!-- Node3 -->
<g id="node3" class="node">
<title>Node3</title>
<g id="a_node3"><a xlink:href="../../dd/ddf/FMC__errors_8h.html#a3a8ecc947d53a7dbad1fc8c8cf0b75b5" target="_top" xlink:title=" ">
<polygon fill="white" stroke="#666666" points="138.5,-19 1.5,-19 1.5,0 138.5,0 138.5,-19"/>
<text text-anchor="middle" x="70" y="-7" font-family="Helvetica,sans-Serif" font-size="10.00">FMC_printBrightBlueText</text>
</a>
</g>
</g>
<!-- Node1&#45;&gt;Node3 -->
<g id="edge2" class="edge">
<title>Node1&#45;&gt;Node3</title>
<path fill="none" stroke="#63b8ff" d="M165.7,-18.76C156.64,-17.88 147.54,-16.99 138.76,-16.13"/>
<polygon fill="#63b8ff" stroke="#63b8ff" points="165.61,-22.27 175.9,-19.76 166.29,-15.3 165.61,-22.27"/>
</g>
</g>
</svg>
