<?xml version="1.0" encoding="UTF-8" standalone="no"?>
<!DOCTYPE svg PUBLIC "-//W3C//DTD SVG 1.1//EN"
 "http://www.w3.org/Graphics/SVG/1.1/DTD/svg11.dtd">
<!-- Generated by graphviz version 2.43.0 (0)
 -->
<!-- Title: FMC_changeStreamTextColorToBrightYellow Pages: 1 -->
<svg width="514pt" height="64pt"
 viewBox="0.00 0.00 514.00 64.00" xmlns="http://www.w3.org/2000/svg" xmlns:xlink="http://www.w3.org/1999/xlink">
<g id="graph0" class="graph" transform="scale(1 1) rotate(0) translate(4 60)">
<title>FMC_changeStreamTextColorToBrightYellow</title>
<!-- Node1 -->
<g id="node1" class="node">
<title>Node1</title>
<g id="a_node1"><a xlink:title=" ">
<polygon fill="#999999" stroke="#666666" points="506,-42.5 346,-42.5 346,-12.5 506,-12.5 506,-42.5"/>
<text text-anchor="start" x="354" y="-30.5" font-family="Helvetica,sans-Serif" font-size="10.00">FMC_changeStreamTextColor</text>
<text text-anchor="middle" x="426" y="-19.5" font-family="Helvetica,sans-Serif" font-size="10.00">ToBrightYellow</text>
</a>
</g>
</g>
<!-- Node2 -->
<g id="node2" class="node">
<title>Node2</title>
<g id="a_node2"><a xlink:href="../../dd/ddf/FMC__errors_8h.html#a2cca9e193cad8105bb9196ffdbcb45a7" target="_top" xlink:title=" ">
<polygon fill="white" stroke="#666666" points="310,-56 161,-56 161,-37 310,-37 310,-56"/>
<text text-anchor="middle" x="235.5" y="-44" font-family="Helvetica,sans-Serif" font-size="10.00">FMC_printBrightYellowError</text>
</a>
</g>
</g>
<!-- Node1&#45;&gt;Node2 -->
<g id="edge1" class="edge">
<title>Node1&#45;&gt;Node2</title>
<path fill="none" stroke="#63b8ff" d="M335.79,-36.49C327.15,-37.36 318.46,-38.24 310.01,-39.09"/>
<polygon fill="#63b8ff" stroke="#63b8ff" points="336.28,-39.96 345.88,-35.48 335.58,-33 336.28,-39.96"/>
</g>
<!-- Node4 -->
<g id="node4" class="node">
<title>Node4</title>
<g id="a_node4"><a xlink:href="../../dd/ddf/FMC__errors_8h.html#a117c22486bebe2027d000ba3b49692c2" target="_top" xlink:title=" ">
<polygon fill="white" stroke="#666666" points="308.5,-19 162.5,-19 162.5,0 308.5,0 308.5,-19"/>
<text text-anchor="middle" x="235.5" y="-7" font-family="Helvetica,sans-Serif" font-size="10.00">FMC_printBrightYellowText</text>
</a>
</g>
</g>
<!-- Node1&#45;&gt;Node4 -->
<g id="edge3" class="edge">
<title>Node1&#45;&gt;Node4</title>
<path fill="none" stroke="#63b8ff" d="M335.65,-18.97C326.55,-18.1 317.39,-17.22 308.51,-16.38"/>
<polygon fill="#63b8ff" stroke="#63b8ff" points="335.59,-22.48 345.88,-19.94 336.26,-15.51 335.59,-22.48"/>
</g>
<!-- Node3 -->
<g id="node3" class="node">
<title>Node3</title>
<g id="a_node3"><a xlink:href="../../db/dc4/FMC__encodings_8c.html#a4766bf9887ba1fc50aae7d71f16a0128" target="_top" xlink:title=" ">
<polygon fill="white" stroke="#666666" points="125,-56 0,-56 0,-37 125,-37 125,-56"/>
<text text-anchor="middle" x="62.5" y="-44" font-family="Helvetica,sans-Serif" font-size="10.00">FMC_FUNC_NONNULL</text>
</a>
</g>
</g>
<!-- Node2&#45;&gt;Node3 -->
<g id="edge2" class="edge">
<title>Node2&#45;&gt;Node3</title>
<path fill="none" stroke="#63b8ff" d="M150.85,-46.5C142.19,-46.5 133.5,-46.5 125.14,-46.5"/>
<polygon fill="#63b8ff" stroke="#63b8ff" points="150.99,-50 160.99,-46.5 150.99,-43 150.99,-50"/>
</g>
</g>
</svg>
