<?xml version="1.0" encoding="UTF-8" standalone="no"?>
<!DOCTYPE svg PUBLIC "-//W3C//DTD SVG 1.1//EN"
 "http://www.w3.org/Graphics/SVG/1.1/DTD/svg11.dtd">
<!-- Generated by graphviz version 2.43.0 (0)
 -->
<!-- Title: FMC_changeStreamTextColorToBlue Pages: 1 -->
<svg width="315pt" height="64pt"
 viewBox="0.00 0.00 315.00 64.00" xmlns="http://www.w3.org/2000/svg" xmlns:xlink="http://www.w3.org/1999/xlink">
<g id="graph0" class="graph" transform="scale(1 1) rotate(0) translate(4 60)">
<title>FMC_changeStreamTextColorToBlue</title>
<!-- Node1 -->
<g id="node1" class="node">
<title>Node1</title>
<g id="a_node1"><a xlink:title=" ">
<polygon fill="#999999" stroke="#666666" points="307,-42.5 147,-42.5 147,-12.5 307,-12.5 307,-42.5"/>
<text text-anchor="start" x="155" y="-30.5" font-family="Helvetica,sans-Serif" font-size="10.00">FMC_changeStreamTextColor</text>
<text text-anchor="middle" x="227" y="-19.5" font-family="Helvetica,sans-Serif" font-size="10.00">ToBlue</text>
</a>
</g>
</g>
<!-- Node2 -->
<g id="node2" class="node">
<title>Node2</title>
<g id="a_node2"><a xlink:href="../../dd/ddf/FMC__errors_8h.html#a5820ba295df9ea6e2dd3df119a90396f" target="_top" xlink:title=" ">
<polygon fill="white" stroke="#666666" points="111,-56 0,-56 0,-37 111,-37 111,-56"/>
<text text-anchor="middle" x="55.5" y="-44" font-family="Helvetica,sans-Serif" font-size="10.00">FMC_printBlueError</text>
</a>
</g>
</g>
<!-- Node1&#45;&gt;Node2 -->
<g id="edge1" class="edge">
<title>Node1&#45;&gt;Node2</title>
<path fill="none" stroke="#63b8ff" d="M136.52,-37.53C127.84,-38.5 119.24,-39.47 111.06,-40.38"/>
<polygon fill="#63b8ff" stroke="#63b8ff" points="137.16,-40.98 146.71,-36.39 136.38,-34.02 137.16,-40.98"/>
</g>
<!-- Node3 -->
<g id="node3" class="node">
<title>Node3</title>
<g id="a_node3"><a xlink:href="../../dd/ddf/FMC__errors_8h.html#a11ce969a03ee03a50ddcf342e73e8b2b" target="_top" xlink:title=" ">
<polygon fill="white" stroke="#666666" points="109.5,-19 1.5,-19 1.5,0 109.5,0 109.5,-19"/>
<text text-anchor="middle" x="55.5" y="-7" font-family="Helvetica,sans-Serif" font-size="10.00">FMC_printBlueText</text>
</a>
</g>
</g>
<!-- Node1&#45;&gt;Node3 -->
<g id="edge2" class="edge">
<title>Node1&#45;&gt;Node3</title>
<path fill="none" stroke="#63b8ff" d="M136.67,-18.01C127.43,-17.03 118.26,-16.06 109.6,-15.14"/>
<polygon fill="#63b8ff" stroke="#63b8ff" points="136.4,-21.5 146.71,-19.08 137.13,-14.54 136.4,-21.5"/>
</g>
</g>
</svg>
