<?xml version="1.0" encoding="UTF-8" standalone="no"?>
<!DOCTYPE svg PUBLIC "-//W3C//DTD SVG 1.1//EN"
 "http://www.w3.org/Graphics/SVG/1.1/DTD/svg11.dtd">
<!-- Generated by graphviz version 2.43.0 (0)
 -->
<!-- Title: FMC_changeStreamTextColorToBrightYellow Pages: 1 -->
<svg width="543pt" height="70pt"
 viewBox="0.00 0.00 543.00 69.50" xmlns="http://www.w3.org/2000/svg" xmlns:xlink="http://www.w3.org/1999/xlink">
<g id="graph0" class="graph" transform="scale(1 1) rotate(0) translate(4 65.5)">
<title>FMC_changeStreamTextColorToBrightYellow</title>
<!-- Node1 -->
<g id="node1" class="node">
<title>Node1</title>
<g id="a_node1"><a xlink:title=" ">
<polygon fill="#999999" stroke="#666666" points="535,-42.5 375,-42.5 375,-12.5 535,-12.5 535,-42.5"/>
<text text-anchor="start" x="383" y="-30.5" font-family="Helvetica,sans-Serif" font-size="10.00">FMC_changeStreamTextColor</text>
<text text-anchor="middle" x="455" y="-19.5" font-family="Helvetica,sans-Serif" font-size="10.00">ToBrightYellow</text>
</a>
</g>
</g>
<!-- Node2 -->
<g id="node2" class="node">
<title>Node2</title>
<g id="a_node2"><a xlink:href="../../dd/ddf/FMC__errors_8h.html#a2cca9e193cad8105bb9196ffdbcb45a7" target="_top" xlink:title=" ">
<polygon fill="white" stroke="#666666" points="339,-56 190,-56 190,-37 339,-37 339,-56"/>
<text text-anchor="middle" x="264.5" y="-44" font-family="Helvetica,sans-Serif" font-size="10.00">FMC_printBrightYellowError</text>
</a>
</g>
</g>
<!-- Node1&#45;&gt;Node2 -->
<g id="edge1" class="edge">
<title>Node1&#45;&gt;Node2</title>
<path fill="none" stroke="#63b8ff" d="M364.79,-36.49C356.15,-37.36 347.46,-38.24 339.01,-39.09"/>
<polygon fill="#63b8ff" stroke="#63b8ff" points="365.28,-39.96 374.88,-35.48 364.58,-33 365.28,-39.96"/>
</g>
<!-- Node4 -->
<g id="node4" class="node">
<title>Node4</title>
<g id="a_node4"><a xlink:href="../../dd/ddf/FMC__errors_8h.html#a117c22486bebe2027d000ba3b49692c2" target="_top" xlink:title=" ">
<polygon fill="white" stroke="#666666" points="337.5,-19 191.5,-19 191.5,0 337.5,0 337.5,-19"/>
<text text-anchor="middle" x="264.5" y="-7" font-family="Helvetica,sans-Serif" font-size="10.00">FMC_printBrightYellowText</text>
</a>
</g>
</g>
<!-- Node1&#45;&gt;Node4 -->
<g id="edge3" class="edge">
<title>Node1&#45;&gt;Node4</title>
<path fill="none" stroke="#63b8ff" d="M364.65,-18.97C355.55,-18.1 346.39,-17.22 337.51,-16.38"/>
<polygon fill="#63b8ff" stroke="#63b8ff" points="364.59,-22.48 374.88,-19.94 365.26,-15.51 364.59,-22.48"/>
</g>
<!-- Node3 -->
<g id="node3" class="node">
<title>Node3</title>
<g id="a_node3"><a xlink:href="../../db/dc4/FMC__encodings_8c.html#a46407199052acbaeb14eb4e3b57ba0a6" target="_top" xlink:title=" ">
<polygon fill="white" stroke="#666666" points="154,-61.5 0,-61.5 0,-31.5 154,-31.5 154,-61.5"/>
<text text-anchor="start" x="8" y="-49.5" font-family="Helvetica,sans-Serif" font-size="10.00">FMC_FUNC_WARN_UNUSED</text>
<text text-anchor="middle" x="77" y="-38.5" font-family="Helvetica,sans-Serif" font-size="10.00">_RESULT</text>
</a>
</g>
</g>
<!-- Node2&#45;&gt;Node3 -->
<g id="edge2" class="edge">
<title>Node2&#45;&gt;Node3</title>
<path fill="none" stroke="#63b8ff" d="M179.66,-46.5C171.19,-46.5 162.61,-46.5 154.23,-46.5"/>
<polygon fill="#63b8ff" stroke="#63b8ff" points="179.92,-50 189.92,-46.5 179.92,-43 179.92,-50"/>
</g>
</g>
</svg>
