<?xml version="1.0" encoding="UTF-8" standalone="no"?>
<!DOCTYPE svg PUBLIC "-//W3C//DTD SVG 1.1//EN"
 "http://www.w3.org/Graphics/SVG/1.1/DTD/svg11.dtd">
<!-- Generated by graphviz version 2.43.0 (0)
 -->
<!-- Title: FMC_setTextStyleToBold Pages: 1 -->
<!--zoomable 508 -->
<svg id="main" version="1.1" xmlns="http://www.w3.org/2000/svg" xmlns:xlink="http://www.w3.org/1999/xlink" xml:space="preserve" onload="init(evt)">
<style type="text/css"><![CDATA[
.edge:hover path { stroke: red; }
.edge:hover polygon { stroke: red; fill: red; }
]]></style>
<script type="text/javascript"><![CDATA[
var edges = document.getElementsByTagName('g');
if (edges && edges.length) {
  for (var i=0;i<edges.length;i++) {
    if (edges[i].id.substr(0,4)=='edge') {
      edges[i].setAttribute('class','edge');
    }
  }
}
]]></script>
        <defs>
                <circle id="rim" cx="0" cy="0" r="7"/>
                <circle id="rim2" cx="0" cy="0" r="3.5"/>
                <g id="zoomPlus">
                        <use xlink:href="#rim" fill="#404040">
                                <set attributeName="fill" to="#808080" begin="zoomplus.mouseover" end="zoomplus.mouseout"/>
                        </use>
                        <path d="M-4,0h8M0,-4v8" fill="none" stroke="white" stroke-width="1.5" pointer-events="none"/>
                </g>
                <g id="zoomMin">
                        <use xlink:href="#rim" fill="#404040">
                                <set attributeName="fill" to="#808080" begin="zoomminus.mouseover" end="zoomminus.mouseout"/>
                        </use>
                        <path d="M-4,0h8" fill="none" stroke="white" stroke-width="1.5" pointer-events="none"/>
                </g>
                <g id="dirArrow">
                        <path fill="none" stroke="white" stroke-width="1.5" d="M0,-3.0v7 M-2.5,-0.5L0,-3.0L2.5,-0.5"/>
                </g>
               <g id="resetDef">
                       <use xlink:href="#rim2" fill="#404040">
                               <set attributeName="fill" to="#808080" begin="reset.mouseover" end="reset.mouseout"/>
                       </use>
               </g>
        </defs>

<script type="text/javascript">
var viewWidth = 502;
var viewHeight = 508;
var sectionId = 'dynsection-47';
</script>
<script xlink:href="../../svgpan.js"/>
<svg id="graph" class="graph">
<g id="viewport">
<title>FMC_setTextStyleToBold</title>
<!-- Node1 -->
<g id="node1" class="node">
<title>Node1</title>
<g id="a_node1"><a xlink:title=" ">
<polygon fill="#999999" stroke="#666666" points="494,-259 358,-259 358,-240 494,-240 494,-259"/>
<text text-anchor="middle" x="426" y="-247" font-family="Helvetica,sans-Serif" font-size="10.00">FMC_setTextStyleToBold</text>
</a>
</g>
</g>
<!-- Node2 -->
<g id="node2" class="node">
<title>Node2</title>
<g id="a_node2"><a xlink:href="../../dd/ddf/FMC__errors_8h.html#a0808577b5749121dd64680e8e9d8a469" target="_top" xlink:title=" ">
<polygon fill="white" stroke="#666666" points="297,-500 186,-500 186,-481 297,-481 297,-500"/>
<text text-anchor="middle" x="241.5" y="-488" font-family="Helvetica,sans-Serif" font-size="10.00">FMC_printBlueError</text>
</a>
</g>
</g>
<!-- Node1&#45;&gt;Node2 -->
<g id="edge1" class="edge">
<title>Node1&#45;&gt;Node2</title>
<path fill="none" stroke="#63b8ff" d="M421.84,-269.39C413.78,-313.32 388.17,-418.95 322,-472.5 314.85,-478.29 306.21,-482.3 297.29,-485.06"/>
<polygon fill="#63b8ff" stroke="#63b8ff" points="425.32,-269.85 423.57,-259.4 418.42,-268.66 425.32,-269.85"/>
</g>
<!-- Node3 -->
<g id="node3" class="node">
<title>Node3</title>
<g id="a_node3"><a xlink:href="../../dd/ddf/FMC__errors_8h.html#a9472ef4935e71c850fa7aa1232ad96cb" target="_top" xlink:title=" ">
<polygon fill="white" stroke="#666666" points="311.5,-463 171.5,-463 171.5,-444 311.5,-444 311.5,-463"/>
<text text-anchor="middle" x="241.5" y="-451" font-family="Helvetica,sans-Serif" font-size="10.00">FMC_printBrightBlueError</text>
</a>
</g>
</g>
<!-- Node1&#45;&gt;Node3 -->
<g id="edge2" class="edge">
<title>Node1&#45;&gt;Node3</title>
<path fill="none" stroke="#63b8ff" d="M420.01,-268.92C409.13,-307.19 379.5,-392.34 322,-435.5 317.47,-438.9 312.42,-441.67 307.11,-443.94"/>
<polygon fill="#63b8ff" stroke="#63b8ff" points="423.45,-269.62 422.69,-259.05 416.69,-267.78 423.45,-269.62"/>
</g>
<!-- Node4 -->
<g id="node4" class="node">
<title>Node4</title>
<g id="a_node4"><a xlink:href="../../dd/ddf/FMC__errors_8h.html#abd74ae9c22c8749cc98773af5af375d2" target="_top" xlink:title=" ">
<polygon fill="white" stroke="#666666" points="313,-426 170,-426 170,-407 313,-407 313,-426"/>
<text text-anchor="middle" x="241.5" y="-414" font-family="Helvetica,sans-Serif" font-size="10.00">FMC_printBrightCyanError</text>
</a>
</g>
</g>
<!-- Node1&#45;&gt;Node4 -->
<g id="edge3" class="edge">
<title>Node1&#45;&gt;Node4</title>
<path fill="none" stroke="#63b8ff" d="M417.38,-268.56C403.49,-300.71 370.92,-365.44 322,-398.5 316.96,-401.91 311.37,-404.68 305.55,-406.93"/>
<polygon fill="#63b8ff" stroke="#63b8ff" points="420.75,-269.58 421.37,-259 414.29,-266.88 420.75,-269.58"/>
</g>
<!-- Node5 -->
<g id="node5" class="node">
<title>Node5</title>
<g id="a_node5"><a xlink:href="../../dd/ddf/FMC__errors_8h.html#a41d194ac486683f81afac62911e1bcb9" target="_top" xlink:title=" ">
<polygon fill="white" stroke="#666666" points="315.5,-389 167.5,-389 167.5,-370 315.5,-370 315.5,-389"/>
<text text-anchor="middle" x="241.5" y="-377" font-family="Helvetica,sans-Serif" font-size="10.00">FMC_printBrightGreenError</text>
</a>
</g>
</g>
<!-- Node1&#45;&gt;Node5 -->
<g id="edge4" class="edge">
<title>Node1&#45;&gt;Node5</title>
<path fill="none" stroke="#63b8ff" d="M413.54,-267.7C396.68,-292.88 362.74,-337.9 322,-361.5 316.12,-364.9 309.65,-367.66 303.02,-369.9"/>
<polygon fill="#63b8ff" stroke="#63b8ff" points="416.61,-269.39 419.14,-259.1 410.75,-265.57 416.61,-269.39"/>
</g>
<!-- Node6 -->
<g id="node6" class="node">
<title>Node6</title>
<g id="a_node6"><a xlink:href="../../dd/ddf/FMC__errors_8h.html#a49e3c737301f567d3bb7e6930b82cc04" target="_top" xlink:title=" ">
<polygon fill="white" stroke="#666666" points="322,-352 161,-352 161,-333 322,-333 322,-352"/>
<text text-anchor="middle" x="241.5" y="-340" font-family="Helvetica,sans-Serif" font-size="10.00">FMC_printBrightMagentaError</text>
</a>
</g>
</g>
<!-- Node1&#45;&gt;Node6 -->
<g id="edge5" class="edge">
<title>Node1&#45;&gt;Node6</title>
<path fill="none" stroke="#63b8ff" d="M407.32,-265.91C387.86,-283.07 354.96,-309.54 322,-324.5 314.53,-327.89 306.36,-330.67 298.19,-332.94"/>
<polygon fill="#63b8ff" stroke="#63b8ff" points="409.7,-268.47 414.8,-259.18 405.02,-263.27 409.7,-268.47"/>
</g>
<!-- Node7 -->
<g id="node7" class="node">
<title>Node7</title>
<g id="a_node7"><a xlink:href="../../dd/ddf/FMC__errors_8h.html#a6f3db48b5173e8c1c93b0080aa95fa61" target="_top" xlink:title=" ">
<polygon fill="white" stroke="#666666" points="310,-315 173,-315 173,-296 310,-296 310,-315"/>
<text text-anchor="middle" x="241.5" y="-303" font-family="Helvetica,sans-Serif" font-size="10.00">FMC_printBrightRedError</text>
</a>
</g>
</g>
<!-- Node1&#45;&gt;Node7 -->
<g id="edge6" class="edge">
<title>Node1&#45;&gt;Node7</title>
<path fill="none" stroke="#63b8ff" d="M392.26,-262.83C372.2,-270.68 345.87,-280.43 322,-287.5 311.55,-290.6 300.2,-293.46 289.43,-295.95"/>
<polygon fill="#63b8ff" stroke="#63b8ff" points="393.56,-266.08 401.57,-259.14 390.98,-259.57 393.56,-266.08"/>
</g>
<!-- Node9 -->
<g id="node9" class="node">
<title>Node9</title>
<g id="a_node9"><a xlink:href="../../dd/ddf/FMC__errors_8h.html#a2a2e2d4c7def1ce486a64b3b9fb05c73" target="_top" xlink:title=" ">
<polygon fill="white" stroke="#666666" points="315,-278 168,-278 168,-259 315,-259 315,-278"/>
<text text-anchor="middle" x="241.5" y="-266" font-family="Helvetica,sans-Serif" font-size="10.00">FMC_printBrightWhiteError</text>
</a>
</g>
</g>
<!-- Node1&#45;&gt;Node9 -->
<g id="edge8" class="edge">
<title>Node1&#45;&gt;Node9</title>
<path fill="none" stroke="#63b8ff" d="M347.58,-257.56C336.8,-258.68 325.75,-259.83 315.06,-260.95"/>
<polygon fill="#63b8ff" stroke="#63b8ff" points="348.24,-261.01 357.82,-256.49 347.51,-254.05 348.24,-261.01"/>
</g>
<!-- Node10 -->
<g id="node10" class="node">
<title>Node10</title>
<g id="a_node10"><a xlink:href="../../dd/ddf/FMC__errors_8h.html#a2cca9e193cad8105bb9196ffdbcb45a7" target="_top" xlink:title=" ">
<polygon fill="white" stroke="#666666" points="316,-241 167,-241 167,-222 316,-222 316,-241"/>
<text text-anchor="middle" x="241.5" y="-229" font-family="Helvetica,sans-Serif" font-size="10.00">FMC_printBrightYellowError</text>
</a>
</g>
</g>
<!-- Node1&#45;&gt;Node10 -->
<g id="edge9" class="edge">
<title>Node1&#45;&gt;Node10</title>
<path fill="none" stroke="#63b8ff" d="M347.56,-241.86C337.2,-240.84 326.6,-239.79 316.3,-238.78"/>
<polygon fill="#63b8ff" stroke="#63b8ff" points="347.53,-245.38 357.82,-242.87 348.21,-238.41 347.53,-245.38"/>
</g>
<!-- Node11 -->
<g id="node11" class="node">
<title>Node11</title>
<g id="a_node11"><a xlink:href="../../dd/ddf/FMC__errors_8h.html#ad8095a80f3428830f8cb3e7eab85f7c1" target="_top" xlink:title=" ">
<polygon fill="white" stroke="#666666" points="298.5,-204 184.5,-204 184.5,-185 298.5,-185 298.5,-204"/>
<text text-anchor="middle" x="241.5" y="-192" font-family="Helvetica,sans-Serif" font-size="10.00">FMC_printCyanError</text>
</a>
</g>
</g>
<!-- Node1&#45;&gt;Node11 -->
<g id="edge11" class="edge">
<title>Node1&#45;&gt;Node11</title>
<path fill="none" stroke="#63b8ff" d="M390.3,-236.38C370.46,-229.13 345.01,-220.25 322,-213.5 310.43,-210.1 297.77,-206.87 286.03,-204.06"/>
<polygon fill="#63b8ff" stroke="#63b8ff" points="389.24,-239.72 399.84,-239.9 391.66,-233.16 389.24,-239.72"/>
</g>
<!-- Node12 -->
<g id="node12" class="node">
<title>Node12</title>
<g id="a_node12"><a xlink:href="../../dd/ddf/FMC__errors_8h.html#a5f5479a4e25d254b474ed99b9b788e84" target="_top" xlink:title=" ">
<polygon fill="white" stroke="#666666" points="301,-167 182,-167 182,-148 301,-148 301,-167"/>
<text text-anchor="middle" x="241.5" y="-155" font-family="Helvetica,sans-Serif" font-size="10.00">FMC_printGreenError</text>
</a>
</g>
</g>
<!-- Node1&#45;&gt;Node12 -->
<g id="edge12" class="edge">
<title>Node1&#45;&gt;Node12</title>
<path fill="none" stroke="#63b8ff" d="M406.63,-233.14C387.01,-216.51 354.34,-191.16 322,-176.5 313.6,-172.69 304.34,-169.59 295.2,-167.09"/>
<polygon fill="#63b8ff" stroke="#63b8ff" points="404.58,-236 414.44,-239.89 409.16,-230.7 404.58,-236"/>
</g>
<!-- Node13 -->
<g id="node13" class="node">
<title>Node13</title>
<g id="a_node13"><a xlink:href="../../dd/ddf/FMC__errors_8h.html#a07f890b84d7a505659d601c456cfab4b" target="_top" xlink:title=" ">
<polygon fill="white" stroke="#666666" points="307.5,-130 175.5,-130 175.5,-111 307.5,-111 307.5,-130"/>
<text text-anchor="middle" x="241.5" y="-118" font-family="Helvetica,sans-Serif" font-size="10.00">FMC_printMagentaError</text>
</a>
</g>
</g>
<!-- Node1&#45;&gt;Node13 -->
<g id="edge13" class="edge">
<title>Node1&#45;&gt;Node13</title>
<path fill="none" stroke="#63b8ff" d="M413.17,-231.33C396.08,-206.61 362.12,-162.81 322,-139.5 315.37,-135.65 308.01,-132.58 300.5,-130.13"/>
<polygon fill="#63b8ff" stroke="#63b8ff" points="410.37,-233.45 418.86,-239.79 416.18,-229.54 410.37,-233.45"/>
</g>
<!-- Node14 -->
<g id="node14" class="node">
<title>Node14</title>
<g id="a_node14"><a xlink:href="../../dd/ddf/FMC__errors_8h.html#a9b572ef292afb0e57567b8d5857708a5" target="_top" xlink:title=" ">
<polygon fill="white" stroke="#666666" points="295.5,-93 187.5,-93 187.5,-74 295.5,-74 295.5,-93"/>
<text text-anchor="middle" x="241.5" y="-81" font-family="Helvetica,sans-Serif" font-size="10.00">FMC_printRedError</text>
</a>
</g>
</g>
<!-- Node1&#45;&gt;Node14 -->
<g id="edge14" class="edge">
<title>Node1&#45;&gt;Node14</title>
<path fill="none" stroke="#63b8ff" d="M417.06,-230.3C402.89,-198.51 370.16,-135.24 322,-102.5 314.14,-97.15 304.94,-93.31 295.66,-90.54"/>
<polygon fill="#63b8ff" stroke="#63b8ff" points="413.97,-231.98 421.15,-239.78 420.4,-229.21 413.97,-231.98"/>
</g>
<!-- Node15 -->
<g id="node15" class="node">
<title>Node15</title>
<g id="a_node15"><a xlink:href="../../dd/ddf/FMC__errors_8h.html#a545e3c3405b11f19c15d0fb4e126ed05" target="_top" xlink:title=" ">
<polygon fill="white" stroke="#666666" points="300.5,-56 182.5,-56 182.5,-37 300.5,-37 300.5,-56"/>
<text text-anchor="middle" x="241.5" y="-44" font-family="Helvetica,sans-Serif" font-size="10.00">FMC_printWhiteError</text>
</a>
</g>
</g>
<!-- Node1&#45;&gt;Node15 -->
<g id="edge15" class="edge">
<title>Node1&#45;&gt;Node15</title>
<path fill="none" stroke="#63b8ff" d="M419.75,-229.81C408.55,-191.8 378.6,-108.31 322,-65.5 315.66,-60.71 308.29,-57.1 300.65,-54.39"/>
<polygon fill="#63b8ff" stroke="#63b8ff" points="416.44,-230.98 422.52,-239.65 423.18,-229.08 416.44,-230.98"/>
</g>
<!-- Node16 -->
<g id="node16" class="node">
<title>Node16</title>
<g id="a_node16"><a xlink:href="../../dd/ddf/FMC__errors_8h.html#a1e52e30b24624e791f4815cd6bacb0a5" target="_top" xlink:title=" ">
<polygon fill="white" stroke="#666666" points="301.5,-19 181.5,-19 181.5,0 301.5,0 301.5,-19"/>
<text text-anchor="middle" x="241.5" y="-7" font-family="Helvetica,sans-Serif" font-size="10.00">FMC_printYellowError</text>
</a>
</g>
</g>
<!-- Node1&#45;&gt;Node16 -->
<g id="edge16" class="edge">
<title>Node1&#45;&gt;Node16</title>
<path fill="none" stroke="#63b8ff" d="M421.74,-229.84C413.46,-186.42 387.46,-81.94 322,-28.5 316.06,-23.65 309.09,-20.01 301.79,-17.27"/>
<polygon fill="#63b8ff" stroke="#63b8ff" points="418.3,-230.5 423.51,-239.72 425.19,-229.26 418.3,-230.5"/>
</g>
<!-- Node8 -->
<g id="node8" class="node">
<title>Node8</title>
<g id="a_node8"><a xlink:href="../../db/dc4/FMC__encodings_8c.html#a4766bf9887ba1fc50aae7d71f16a0128" target="_top" xlink:title=" ">
<polygon fill="white" stroke="#666666" points="125,-278 0,-278 0,-259 125,-259 125,-278"/>
<text text-anchor="middle" x="62.5" y="-266" font-family="Helvetica,sans-Serif" font-size="10.00">FMC_FUNC_NONNULL</text>
</a>
</g>
</g>
<!-- Node7&#45;&gt;Node8 -->
<g id="edge7" class="edge">
<title>Node7&#45;&gt;Node8</title>
<path fill="none" stroke="#63b8ff" d="M185.08,-293.92C160.7,-288.82 132.39,-282.9 109.23,-278.06"/>
<polygon fill="#63b8ff" stroke="#63b8ff" points="184.41,-297.35 194.92,-295.97 185.85,-290.5 184.41,-297.35"/>
</g>
<!-- Node10&#45;&gt;Node8 -->
<g id="edge10" class="edge">
<title>Node10&#45;&gt;Node8</title>
<path fill="none" stroke="#63b8ff" d="M185.08,-243.08C160.7,-248.18 132.39,-254.1 109.23,-258.94"/>
<polygon fill="#63b8ff" stroke="#63b8ff" points="185.85,-246.5 194.92,-241.03 184.41,-239.65 185.85,-246.5"/>
</g>
</g>
</svg>
        <g id="navigator" transform="translate(0 0)" fill="#404254">
                <rect fill="#f2f5e9" fill-opacity="0.5" stroke="#606060" stroke-width=".5" x="0" y="0" width="60" height="60"/>
                <use id="zoomplus" xlink:href="#zoomPlus" x="17" y="9" onmousedown="handleZoom(evt,'in')"/>
                <use id="zoomminus" xlink:href="#zoomMin" x="42" y="9" onmousedown="handleZoom(evt,'out')"/>
                <use id="reset" xlink:href="#resetDef" x="30" y="36" onmousedown="handleReset()"/>
                <g id="arrowUp" xlink:href="#dirArrow" transform="translate(30 24)" onmousedown="handlePan(0,-1)">
                  <use xlink:href="#rim" fill="#404040">
                        <set attributeName="fill" to="#808080" begin="arrowUp.mouseover" end="arrowUp.mouseout"/>
                  </use>
                  <path fill="none" stroke="white" stroke-width="1.5" d="M0,-3.0v7 M-2.5,-0.5L0,-3.0L2.5,-0.5"/>
                </g>
                <g id="arrowRight" xlink:href="#dirArrow" transform="rotate(90) translate(36 -43)" onmousedown="handlePan(1,0)">
                  <use xlink:href="#rim" fill="#404040">
                        <set attributeName="fill" to="#808080" begin="arrowRight.mouseover" end="arrowRight.mouseout"/>
                  </use>
                  <path fill="none" stroke="white" stroke-width="1.5" d="M0,-3.0v7 M-2.5,-0.5L0,-3.0L2.5,-0.5"/>
                </g>
                <g id="arrowDown" xlink:href="#dirArrow" transform="rotate(180) translate(-30 -48)" onmousedown="handlePan(0,1)">
                  <use xlink:href="#rim" fill="#404040">
                        <set attributeName="fill" to="#808080" begin="arrowDown.mouseover" end="arrowDown.mouseout"/>
                  </use>
                  <path fill="none" stroke="white" stroke-width="1.5" d="M0,-3.0v7 M-2.5,-0.5L0,-3.0L2.5,-0.5"/>
                </g>
                <g id="arrowLeft" xlink:href="#dirArrow" transform="rotate(270) translate(-36 17)" onmousedown="handlePan(-1,0)">
                  <use xlink:href="#rim" fill="#404040">
                        <set attributeName="fill" to="#808080" begin="arrowLeft.mouseover" end="arrowLeft.mouseout"/>
                  </use>
                  <path fill="none" stroke="white" stroke-width="1.5" d="M0,-3.0v7 M-2.5,-0.5L0,-3.0L2.5,-0.5"/>
                </g>
        </g>
        <svg viewBox="0 0 15 15" width="100%" height="30px" preserveAspectRatio="xMaxYMin meet">
         <g id="arrow_out" transform="scale(0.3 0.3)">
          <a xlink:href="FMC__errors_8h_a33a1a2c6f6a143bc6a836ef37778a07f_icgraph_org.svg" target="_base">
           <rect id="button" ry="5" rx="5" y="6" x="6" height="38" width="38"
                fill="#f2f5e9" fill-opacity="0.5" stroke="#606060" stroke-width="1.0"/>
           <path id="arrow"
             d="M 11.500037,31.436501 C 11.940474,20.09759 22.043105,11.32322 32.158766,21.979434 L 37.068811,17.246167 C 37.068811,17.246167 37.088388,32 37.088388,32 L 22.160133,31.978069 C 22.160133,31.978069 26.997745,27.140456 26.997745,27.140456 C 18.528582,18.264221 13.291696,25.230495 11.500037,31.436501 z"
             style="fill:#404040;"/>
          </a>
         </g>
        </svg>
</svg>
