<?xml version="1.0" encoding="UTF-8" standalone="no"?>
<!DOCTYPE svg PUBLIC "-//W3C//DTD SVG 1.1//EN"
 "http://www.w3.org/Graphics/SVG/1.1/DTD/svg11.dtd">
<!-- Generated by graphviz version 2.43.0 (0)
 -->
<!-- Title: FMC_changeStreamTextColorToYellow Pages: 1 -->
<svg width="324pt" height="64pt"
 viewBox="0.00 0.00 324.00 64.00" xmlns="http://www.w3.org/2000/svg" xmlns:xlink="http://www.w3.org/1999/xlink">
<g id="graph0" class="graph" transform="scale(1 1) rotate(0) translate(4 60)">
<title>FMC_changeStreamTextColorToYellow</title>
<!-- Node1 -->
<g id="node1" class="node">
<title>Node1</title>
<g id="a_node1"><a xlink:title=" ">
<polygon fill="#999999" stroke="#666666" points="316,-42.5 156,-42.5 156,-12.5 316,-12.5 316,-42.5"/>
<text text-anchor="start" x="164" y="-30.5" font-family="Helvetica,sans-Serif" font-size="10.00">FMC_changeStreamTextColor</text>
<text text-anchor="middle" x="236" y="-19.5" font-family="Helvetica,sans-Serif" font-size="10.00">ToYellow</text>
</a>
</g>
</g>
<!-- Node2 -->
<g id="node2" class="node">
<title>Node2</title>
<g id="a_node2"><a xlink:href="../../dd/ddf/FMC__errors_8h.html#a44368b2a61e244b3d4260be1acd248d3" target="_top" xlink:title=" ">
<polygon fill="white" stroke="#666666" points="120,-56 0,-56 0,-37 120,-37 120,-56"/>
<text text-anchor="middle" x="60" y="-44" font-family="Helvetica,sans-Serif" font-size="10.00">FMC_printYellowError</text>
</a>
</g>
</g>
<!-- Node1&#45;&gt;Node2 -->
<g id="edge1" class="edge">
<title>Node1&#45;&gt;Node2</title>
<path fill="none" stroke="#63b8ff" d="M145.71,-37.25C137.04,-38.2 128.39,-39.14 120.12,-40.04"/>
<polygon fill="#63b8ff" stroke="#63b8ff" points="146.33,-40.7 155.89,-36.14 145.57,-33.74 146.33,-40.7"/>
</g>
<!-- Node3 -->
<g id="node3" class="node">
<title>Node3</title>
<g id="a_node3"><a xlink:href="../../dd/ddf/FMC__errors_8h.html#a4f9e0c541589c29135862a9f35f2dc9e" target="_top" xlink:title=" ">
<polygon fill="white" stroke="#666666" points="118.5,-19 1.5,-19 1.5,0 118.5,0 118.5,-19"/>
<text text-anchor="middle" x="60" y="-7" font-family="Helvetica,sans-Serif" font-size="10.00">FMC_printYellowText</text>
</a>
</g>
</g>
<!-- Node1&#45;&gt;Node3 -->
<g id="edge2" class="edge">
<title>Node1&#45;&gt;Node3</title>
<path fill="none" stroke="#63b8ff" d="M145.85,-18.28C136.59,-17.32 127.36,-16.36 118.58,-15.46"/>
<polygon fill="#63b8ff" stroke="#63b8ff" points="145.58,-21.77 155.89,-19.32 146.3,-14.81 145.58,-21.77"/>
</g>
</g>
</svg>
