<?xml version="1.0" encoding="UTF-8" standalone="no"?>
<!DOCTYPE svg PUBLIC "-//W3C//DTD SVG 1.1//EN"
 "http://www.w3.org/Graphics/SVG/1.1/DTD/svg11.dtd">
<!-- Generated by graphviz version 2.43.0 (0)
 -->
<!-- Title: FMC_printBlueText Pages: 1 -->
<svg width="313pt" height="76pt"
 viewBox="0.00 0.00 313.00 75.50" xmlns="http://www.w3.org/2000/svg" xmlns:xlink="http://www.w3.org/1999/xlink">
<g id="graph0" class="graph" transform="scale(1 1) rotate(0) translate(4 71.5)">
<title>FMC_printBlueText</title>
<!-- Node1 -->
<g id="node1" class="node">
<title>Node1</title>
<g id="a_node1"><a xlink:title=" ">
<polygon fill="#999999" stroke="#666666" points="108,-40 0,-40 0,-21 108,-21 108,-40"/>
<text text-anchor="middle" x="54" y="-28" font-family="Helvetica,sans-Serif" font-size="10.00">FMC_printBlueText</text>
</a>
</g>
</g>
<!-- Node2 -->
<g id="node2" class="node">
<title>Node2</title>
<g id="a_node2"><a xlink:href="../../dd/ddf/FMC__errors_8h.html#a2f277c20b9b007eefd048b8491cae6cf" target="_top" xlink:title=" ">
<polygon fill="white" stroke="#666666" points="304.5,-67.5 144.5,-67.5 144.5,-37.5 304.5,-37.5 304.5,-67.5"/>
<text text-anchor="start" x="152.5" y="-55.5" font-family="Helvetica,sans-Serif" font-size="10.00">FMC_changeStreamTextColor</text>
<text text-anchor="middle" x="224.5" y="-44.5" font-family="Helvetica,sans-Serif" font-size="10.00">ToBlue</text>
</a>
</g>
</g>
<!-- Node1&#45;&gt;Node2 -->
<g id="edge1" class="edge">
<title>Node1&#45;&gt;Node2</title>
<path fill="none" stroke="#63b8ff" d="M108.31,-37.46C116.65,-38.55 125.46,-39.7 134.33,-40.86"/>
<polygon fill="#63b8ff" stroke="#63b8ff" points="134,-44.34 144.37,-42.17 134.91,-37.4 134,-44.34"/>
</g>
<!-- Node3 -->
<g id="node3" class="node">
<title>Node3</title>
<g id="a_node3"><a xlink:href="../../dd/ddf/FMC__errors_8h.html#a5dac1ddff314ba7b3bed3d87eb3f19f5" target="_top" xlink:title=" ">
<polygon fill="white" stroke="#666666" points="305,-19 144,-19 144,0 305,0 305,-19"/>
<text text-anchor="middle" x="224.5" y="-7" font-family="Helvetica,sans-Serif" font-size="10.00">FMC_resetStreamOutputStyle</text>
</a>
</g>
</g>
<!-- Node1&#45;&gt;Node3 -->
<g id="edge2" class="edge">
<title>Node1&#45;&gt;Node3</title>
<path fill="none" stroke="#63b8ff" d="M108.31,-23.86C117.47,-22.71 127.2,-21.5 136.97,-20.28"/>
<polygon fill="#63b8ff" stroke="#63b8ff" points="137.65,-23.73 147.14,-19.02 136.78,-16.78 137.65,-23.73"/>
</g>
</g>
</svg>
