<?xml version="1.0" encoding="UTF-8" standalone="no"?>
<!DOCTYPE svg PUBLIC "-//W3C//DTD SVG 1.1//EN"
 "http://www.w3.org/Graphics/SVG/1.1/DTD/svg11.dtd">
<!-- Generated by graphviz version 2.43.0 (0)
 -->
<!-- Title: FMC_changeStreamTextColorToCyan Pages: 1 -->
<svg width="318pt" height="64pt"
 viewBox="0.00 0.00 318.00 64.00" xmlns="http://www.w3.org/2000/svg" xmlns:xlink="http://www.w3.org/1999/xlink">
<g id="graph0" class="graph" transform="scale(1 1) rotate(0) translate(4 60)">
<title>FMC_changeStreamTextColorToCyan</title>
<!-- Node1 -->
<g id="node1" class="node">
<title>Node1</title>
<g id="a_node1"><a xlink:title=" ">
<polygon fill="#999999" stroke="#666666" points="310,-42.5 150,-42.5 150,-12.5 310,-12.5 310,-42.5"/>
<text text-anchor="start" x="158" y="-30.5" font-family="Helvetica,sans-Serif" font-size="10.00">FMC_changeStreamTextColor</text>
<text text-anchor="middle" x="230" y="-19.5" font-family="Helvetica,sans-Serif" font-size="10.00">ToCyan</text>
</a>
</g>
</g>
<!-- Node2 -->
<g id="node2" class="node">
<title>Node2</title>
<g id="a_node2"><a xlink:href="../../dd/ddf/FMC__errors_8h.html#adde48fd1fee52588fc8c415ffee6cbf4" target="_top" xlink:title=" ">
<polygon fill="white" stroke="#666666" points="114,-56 0,-56 0,-37 114,-37 114,-56"/>
<text text-anchor="middle" x="57" y="-44" font-family="Helvetica,sans-Serif" font-size="10.00">FMC_printCyanError</text>
</a>
</g>
</g>
<!-- Node1&#45;&gt;Node2 -->
<g id="edge1" class="edge">
<title>Node1&#45;&gt;Node2</title>
<path fill="none" stroke="#63b8ff" d="M139.48,-37.45C130.95,-38.39 122.46,-39.34 114.38,-40.24"/>
<polygon fill="#63b8ff" stroke="#63b8ff" points="139.96,-40.92 149.51,-36.33 139.18,-33.96 139.96,-40.92"/>
</g>
<!-- Node3 -->
<g id="node3" class="node">
<title>Node3</title>
<g id="a_node3"><a xlink:href="../../dd/ddf/FMC__errors_8h.html#aae9c62a751ad01c4a6a08b33a70e4ad9" target="_top" xlink:title=" ">
<polygon fill="white" stroke="#666666" points="112.5,-19 1.5,-19 1.5,0 112.5,0 112.5,-19"/>
<text text-anchor="middle" x="57" y="-7" font-family="Helvetica,sans-Serif" font-size="10.00">FMC_printCyanText</text>
</a>
</g>
</g>
<!-- Node1&#45;&gt;Node3 -->
<g id="edge2" class="edge">
<title>Node1&#45;&gt;Node3</title>
<path fill="none" stroke="#63b8ff" d="M139.33,-18.06C130.32,-17.11 121.38,-16.17 112.89,-15.28"/>
<polygon fill="#63b8ff" stroke="#63b8ff" points="139.2,-21.57 149.51,-19.13 139.93,-14.6 139.2,-21.57"/>
</g>
</g>
</svg>
