<?xml version="1.0" encoding="UTF-8" standalone="no"?>
<!DOCTYPE svg PUBLIC "-//W3C//DTD SVG 1.1//EN"
 "http://www.w3.org/Graphics/SVG/1.1/DTD/svg11.dtd">
<!-- Generated by graphviz version 2.43.0 (0)
 -->
<!-- Title: FMC_changeStreamTextColorToRed Pages: 1 -->
<svg width="312pt" height="64pt"
 viewBox="0.00 0.00 312.00 64.00" xmlns="http://www.w3.org/2000/svg" xmlns:xlink="http://www.w3.org/1999/xlink">
<g id="graph0" class="graph" transform="scale(1 1) rotate(0) translate(4 60)">
<title>FMC_changeStreamTextColorToRed</title>
<!-- Node1 -->
<g id="node1" class="node">
<title>Node1</title>
<g id="a_node1"><a xlink:title=" ">
<polygon fill="#999999" stroke="#666666" points="304,-42.5 144,-42.5 144,-12.5 304,-12.5 304,-42.5"/>
<text text-anchor="start" x="152" y="-30.5" font-family="Helvetica,sans-Serif" font-size="10.00">FMC_changeStreamTextColor</text>
<text text-anchor="middle" x="224" y="-19.5" font-family="Helvetica,sans-Serif" font-size="10.00">ToRed</text>
</a>
</g>
</g>
<!-- Node2 -->
<g id="node2" class="node">
<title>Node2</title>
<g id="a_node2"><a xlink:href="../../dd/ddf/FMC__errors_8h.html#a9b572ef292afb0e57567b8d5857708a5" target="_top" xlink:title=" ">
<polygon fill="white" stroke="#666666" points="108,-56 0,-56 0,-37 108,-37 108,-56"/>
<text text-anchor="middle" x="54" y="-44" font-family="Helvetica,sans-Serif" font-size="10.00">FMC_printRedError</text>
</a>
</g>
</g>
<!-- Node1&#45;&gt;Node2 -->
<g id="edge1" class="edge">
<title>Node1&#45;&gt;Node2</title>
<path fill="none" stroke="#63b8ff" d="M133.71,-37.6C125.03,-38.58 116.42,-39.55 108.26,-40.48"/>
<polygon fill="#63b8ff" stroke="#63b8ff" points="134.38,-41.05 143.92,-36.44 133.59,-34.09 134.38,-41.05"/>
</g>
<!-- Node3 -->
<g id="node3" class="node">
<title>Node3</title>
<g id="a_node3"><a xlink:href="../../dd/ddf/FMC__errors_8h.html#a593f2fd6aee14f792cacc4c167b9fd61" target="_top" xlink:title=" ">
<polygon fill="white" stroke="#666666" points="106.5,-19 1.5,-19 1.5,0 106.5,0 106.5,-19"/>
<text text-anchor="middle" x="54" y="-7" font-family="Helvetica,sans-Serif" font-size="10.00">FMC_printRedText</text>
</a>
</g>
</g>
<!-- Node1&#45;&gt;Node3 -->
<g id="edge2" class="edge">
<title>Node1&#45;&gt;Node3</title>
<path fill="none" stroke="#63b8ff" d="M133.87,-17.95C124.62,-16.96 115.46,-15.98 106.83,-15.05"/>
<polygon fill="#63b8ff" stroke="#63b8ff" points="133.6,-21.44 143.92,-19.03 134.35,-14.48 133.6,-21.44"/>
</g>
</g>
</svg>
