<?xml version="1.0" encoding="UTF-8" standalone="no"?>
<!DOCTYPE svg PUBLIC "-//W3C//DTD SVG 1.1//EN"
 "http://www.w3.org/Graphics/SVG/1.1/DTD/svg11.dtd">
<!-- Generated by graphviz version 2.43.0 (0)
 -->
<!-- Title: FMC_printCyanText Pages: 1 -->
<svg width="316pt" height="76pt"
 viewBox="0.00 0.00 316.00 75.50" xmlns="http://www.w3.org/2000/svg" xmlns:xlink="http://www.w3.org/1999/xlink">
<g id="graph0" class="graph" transform="scale(1 1) rotate(0) translate(4 71.5)">
<title>FMC_printCyanText</title>
<!-- Node1 -->
<g id="node1" class="node">
<title>Node1</title>
<g id="a_node1"><a xlink:title=" ">
<polygon fill="#999999" stroke="#666666" points="111,-40 0,-40 0,-21 111,-21 111,-40"/>
<text text-anchor="middle" x="55.5" y="-28" font-family="Helvetica,sans-Serif" font-size="10.00">FMC_printCyanText</text>
</a>
</g>
</g>
<!-- Node2 -->
<g id="node2" class="node">
<title>Node2</title>
<g id="a_node2"><a xlink:href="../../dd/ddf/FMC__errors_8h.html#a8ec32716c1d79070debf0303489117a9" target="_top" xlink:title=" ">
<polygon fill="white" stroke="#666666" points="307.5,-67.5 147.5,-67.5 147.5,-37.5 307.5,-37.5 307.5,-67.5"/>
<text text-anchor="start" x="155.5" y="-55.5" font-family="Helvetica,sans-Serif" font-size="10.00">FMC_changeStreamTextColor</text>
<text text-anchor="middle" x="227.5" y="-44.5" font-family="Helvetica,sans-Serif" font-size="10.00">ToCyan</text>
</a>
</g>
</g>
<!-- Node1&#45;&gt;Node2 -->
<g id="edge1" class="edge">
<title>Node1&#45;&gt;Node2</title>
<path fill="none" stroke="#63b8ff" d="M111.22,-37.58C119.62,-38.67 128.46,-39.81 137.37,-40.97"/>
<polygon fill="#63b8ff" stroke="#63b8ff" points="137.06,-44.45 147.43,-42.27 137.96,-37.51 137.06,-44.45"/>
</g>
<!-- Node3 -->
<g id="node3" class="node">
<title>Node3</title>
<g id="a_node3"><a xlink:href="../../dd/ddf/FMC__errors_8h.html#af11b1f617ef7bc80184285957c3aeee0" target="_top" xlink:title=" ">
<polygon fill="white" stroke="#666666" points="308,-19 147,-19 147,0 308,0 308,-19"/>
<text text-anchor="middle" x="227.5" y="-7" font-family="Helvetica,sans-Serif" font-size="10.00">FMC_resetStreamOutputStyle</text>
</a>
</g>
</g>
<!-- Node1&#45;&gt;Node3 -->
<g id="edge2" class="edge">
<title>Node1&#45;&gt;Node3</title>
<path fill="none" stroke="#63b8ff" d="M111.22,-23.74C120.3,-22.62 129.91,-21.43 139.55,-20.24"/>
<polygon fill="#63b8ff" stroke="#63b8ff" points="140.09,-23.7 149.59,-19 139.23,-16.75 140.09,-23.7"/>
</g>
</g>
</svg>
