<?xml version="1.0" encoding="UTF-8" standalone="no"?>
<!DOCTYPE svg PUBLIC "-//W3C//DTD SVG 1.1//EN"
 "http://www.w3.org/Graphics/SVG/1.1/DTD/svg11.dtd">
<!-- Generated by graphviz version 2.43.0 (0)
 -->
<!-- Title: FMC_setTextStyleToBold Pages: 1 -->
<!--zoomable 508 -->
<svg id="main" version="1.1" xmlns="http://www.w3.org/2000/svg" xmlns:xlink="http://www.w3.org/1999/xlink" xml:space="preserve" onload="init(evt)">
<style type="text/css"><![CDATA[
.edge:hover path { stroke: red; }
.edge:hover polygon { stroke: red; fill: red; }
]]></style>
<script type="text/javascript"><![CDATA[
var edges = document.getElementsByTagName('g');
if (edges && edges.length) {
  for (var i=0;i<edges.length;i++) {
    if (edges[i].id.substr(0,4)=='edge') {
      edges[i].setAttribute('class','edge');
    }
  }
}
]]></script>
        <defs>
                <circle id="rim" cx="0" cy="0" r="7"/>
                <circle id="rim2" cx="0" cy="0" r="3.5"/>
                <g id="zoomPlus">
                        <use xlink:href="#rim" fill="#404040">
                                <set attributeName="fill" to="#808080" begin="zoomplus.mouseover" end="zoomplus.mouseout"/>
                        </use>
                        <path d="M-4,0h8M0,-4v8" fill="none" stroke="white" stroke-width="1.5" pointer-events="none"/>
                </g>
                <g id="zoomMin">
                        <use xlink:href="#rim" fill="#404040">
                                <set attributeName="fill" to="#808080" begin="zoomminus.mouseover" end="zoomminus.mouseout"/>
                        </use>
                        <path d="M-4,0h8" fill="none" stroke="white" stroke-width="1.5" pointer-events="none"/>
                </g>
                <g id="dirArrow">
                        <path fill="none" stroke="white" stroke-width="1.5" d="M0,-3.0v7 M-2.5,-0.5L0,-3.0L2.5,-0.5"/>
                </g>
               <g id="resetDef">
                       <use xlink:href="#rim2" fill="#404040">
                               <set attributeName="fill" to="#808080" begin="reset.mouseover" end="reset.mouseout"/>
                       </use>
               </g>
        </defs>

<script type="text/javascript">
var viewWidth = 643;
var viewHeight = 508;
var sectionId = 'dynsection-47';
</script>
<script xlink:href="../../svgpan.js"/>
<svg id="graph" class="graph">
<g id="viewport">
<title>FMC_setTextStyleToBold</title>
<!-- Node1 -->
<g id="node1" class="node">
<title>Node1</title>
<g id="a_node1"><a xlink:title=" ">
<polygon fill="#999999" stroke="#666666" points="635,-259 499,-259 499,-240 635,-240 635,-259"/>
<text text-anchor="middle" x="567" y="-247" font-family="Helvetica,sans-Serif" font-size="10.00">FMC_setTextStyleToBold</text>
</a>
</g>
</g>
<!-- Node2 -->
<g id="node2" class="node">
<title>Node2</title>
<g id="a_node2"><a xlink:href="../../dd/ddf/FMC__errors_8h.html#a5820ba295df9ea6e2dd3df119a90396f" target="_top" xlink:title=" ">
<polygon fill="white" stroke="#666666" points="438,-500 327,-500 327,-481 438,-481 438,-500"/>
<text text-anchor="middle" x="382.5" y="-488" font-family="Helvetica,sans-Serif" font-size="10.00">FMC_printBlueError</text>
</a>
</g>
</g>
<!-- Node1&#45;&gt;Node2 -->
<g id="edge1" class="edge">
<title>Node1&#45;&gt;Node2</title>
<path fill="none" stroke="#63b8ff" d="M562.84,-269.39C554.78,-313.32 529.17,-418.95 463,-472.5 455.85,-478.29 447.21,-482.3 438.29,-485.06"/>
<polygon fill="#63b8ff" stroke="#63b8ff" points="566.32,-269.85 564.57,-259.4 559.42,-268.66 566.32,-269.85"/>
</g>
<!-- Node3 -->
<g id="node3" class="node">
<title>Node3</title>
<g id="a_node3"><a xlink:href="../../dd/ddf/FMC__errors_8h.html#a69d43ae7c72935565e2f6d5848c7b371" target="_top" xlink:title=" ">
<polygon fill="white" stroke="#666666" points="452.5,-463 312.5,-463 312.5,-444 452.5,-444 452.5,-463"/>
<text text-anchor="middle" x="382.5" y="-451" font-family="Helvetica,sans-Serif" font-size="10.00">FMC_printBrightBlueError</text>
</a>
</g>
</g>
<!-- Node1&#45;&gt;Node3 -->
<g id="edge2" class="edge">
<title>Node1&#45;&gt;Node3</title>
<path fill="none" stroke="#63b8ff" d="M561.01,-268.92C550.13,-307.19 520.5,-392.34 463,-435.5 458.47,-438.9 453.42,-441.67 448.11,-443.94"/>
<polygon fill="#63b8ff" stroke="#63b8ff" points="564.45,-269.62 563.69,-259.05 557.69,-267.78 564.45,-269.62"/>
</g>
<!-- Node4 -->
<g id="node4" class="node">
<title>Node4</title>
<g id="a_node4"><a xlink:href="../../dd/ddf/FMC__errors_8h.html#af08f34aa818a9a290a6b5efc5949cc0a" target="_top" xlink:title=" ">
<polygon fill="white" stroke="#666666" points="454,-426 311,-426 311,-407 454,-407 454,-426"/>
<text text-anchor="middle" x="382.5" y="-414" font-family="Helvetica,sans-Serif" font-size="10.00">FMC_printBrightCyanError</text>
</a>
</g>
</g>
<!-- Node1&#45;&gt;Node4 -->
<g id="edge3" class="edge">
<title>Node1&#45;&gt;Node4</title>
<path fill="none" stroke="#63b8ff" d="M558.38,-268.56C544.49,-300.71 511.92,-365.44 463,-398.5 457.96,-401.91 452.37,-404.68 446.55,-406.93"/>
<polygon fill="#63b8ff" stroke="#63b8ff" points="561.75,-269.58 562.37,-259 555.29,-266.88 561.75,-269.58"/>
</g>
<!-- Node5 -->
<g id="node5" class="node">
<title>Node5</title>
<g id="a_node5"><a xlink:href="../../dd/ddf/FMC__errors_8h.html#a133abc0a18c0f9f52d027fa9dad3f21f" target="_top" xlink:title=" ">
<polygon fill="white" stroke="#666666" points="456.5,-389 308.5,-389 308.5,-370 456.5,-370 456.5,-389"/>
<text text-anchor="middle" x="382.5" y="-377" font-family="Helvetica,sans-Serif" font-size="10.00">FMC_printBrightGreenError</text>
</a>
</g>
</g>
<!-- Node1&#45;&gt;Node5 -->
<g id="edge4" class="edge">
<title>Node1&#45;&gt;Node5</title>
<path fill="none" stroke="#63b8ff" d="M554.54,-267.7C537.68,-292.88 503.74,-337.9 463,-361.5 457.12,-364.9 450.65,-367.66 444.02,-369.9"/>
<polygon fill="#63b8ff" stroke="#63b8ff" points="557.61,-269.39 560.14,-259.1 551.75,-265.57 557.61,-269.39"/>
</g>
<!-- Node6 -->
<g id="node6" class="node">
<title>Node6</title>
<g id="a_node6"><a xlink:href="../../dd/ddf/FMC__errors_8h.html#a8b30c700dfc669e1bd513a249cf10870" target="_top" xlink:title=" ">
<polygon fill="white" stroke="#666666" points="463,-352 302,-352 302,-333 463,-333 463,-352"/>
<text text-anchor="middle" x="382.5" y="-340" font-family="Helvetica,sans-Serif" font-size="10.00">FMC_printBrightMagentaError</text>
</a>
</g>
</g>
<!-- Node1&#45;&gt;Node6 -->
<g id="edge5" class="edge">
<title>Node1&#45;&gt;Node6</title>
<path fill="none" stroke="#63b8ff" d="M548.32,-265.91C528.86,-283.07 495.96,-309.54 463,-324.5 455.53,-327.89 447.36,-330.67 439.19,-332.94"/>
<polygon fill="#63b8ff" stroke="#63b8ff" points="550.7,-268.47 555.8,-259.18 546.02,-263.27 550.7,-268.47"/>
</g>
<!-- Node7 -->
<g id="node7" class="node">
<title>Node7</title>
<g id="a_node7"><a xlink:href="../../dd/ddf/FMC__errors_8h.html#aa53062880249a772fa5af75cbb637d14" target="_top" xlink:title=" ">
<polygon fill="white" stroke="#666666" points="451,-315 314,-315 314,-296 451,-296 451,-315"/>
<text text-anchor="middle" x="382.5" y="-303" font-family="Helvetica,sans-Serif" font-size="10.00">FMC_printBrightRedError</text>
</a>
</g>
</g>
<!-- Node1&#45;&gt;Node7 -->
<g id="edge6" class="edge">
<title>Node1&#45;&gt;Node7</title>
<path fill="none" stroke="#63b8ff" d="M533.26,-262.83C513.2,-270.68 486.87,-280.43 463,-287.5 452.55,-290.6 441.2,-293.46 430.43,-295.95"/>
<polygon fill="#63b8ff" stroke="#63b8ff" points="534.56,-266.08 542.57,-259.14 531.98,-259.57 534.56,-266.08"/>
</g>
<!-- Node12 -->
<g id="node12" class="node">
<title>Node12</title>
<g id="a_node12"><a xlink:href="../../dd/ddf/FMC__errors_8h.html#affdab952330911966f092113573bc8f7" target="_top" xlink:title=" ">
<polygon fill="white" stroke="#666666" points="456,-278 309,-278 309,-259 456,-259 456,-278"/>
<text text-anchor="middle" x="382.5" y="-266" font-family="Helvetica,sans-Serif" font-size="10.00">FMC_printBrightWhiteError</text>
</a>
</g>
</g>
<!-- Node1&#45;&gt;Node12 -->
<g id="edge12" class="edge">
<title>Node1&#45;&gt;Node12</title>
<path fill="none" stroke="#63b8ff" d="M488.58,-257.56C477.8,-258.68 466.75,-259.83 456.06,-260.95"/>
<polygon fill="#63b8ff" stroke="#63b8ff" points="489.24,-261.01 498.82,-256.49 488.51,-254.05 489.24,-261.01"/>
</g>
<!-- Node13 -->
<g id="node13" class="node">
<title>Node13</title>
<g id="a_node13"><a xlink:href="../../dd/ddf/FMC__errors_8h.html#a8a9d04ab3b4e6f06e7eead7abd20581c" target="_top" xlink:title=" ">
<polygon fill="white" stroke="#666666" points="457,-241 308,-241 308,-222 457,-222 457,-241"/>
<text text-anchor="middle" x="382.5" y="-229" font-family="Helvetica,sans-Serif" font-size="10.00">FMC_printBrightYellowError</text>
</a>
</g>
</g>
<!-- Node1&#45;&gt;Node13 -->
<g id="edge13" class="edge">
<title>Node1&#45;&gt;Node13</title>
<path fill="none" stroke="#63b8ff" d="M488.56,-241.86C478.2,-240.84 467.6,-239.79 457.3,-238.78"/>
<polygon fill="#63b8ff" stroke="#63b8ff" points="488.53,-245.38 498.82,-242.87 489.21,-238.41 488.53,-245.38"/>
</g>
<!-- Node14 -->
<g id="node14" class="node">
<title>Node14</title>
<g id="a_node14"><a xlink:href="../../dd/ddf/FMC__errors_8h.html#adde48fd1fee52588fc8c415ffee6cbf4" target="_top" xlink:title=" ">
<polygon fill="white" stroke="#666666" points="439.5,-204 325.5,-204 325.5,-185 439.5,-185 439.5,-204"/>
<text text-anchor="middle" x="382.5" y="-192" font-family="Helvetica,sans-Serif" font-size="10.00">FMC_printCyanError</text>
</a>
</g>
</g>
<!-- Node1&#45;&gt;Node14 -->
<g id="edge15" class="edge">
<title>Node1&#45;&gt;Node14</title>
<path fill="none" stroke="#63b8ff" d="M532.56,-236.31C512.57,-228.73 486.56,-219.37 463,-212.5 452.4,-209.41 440.88,-206.53 429.99,-204.02"/>
<polygon fill="#63b8ff" stroke="#63b8ff" points="531.54,-239.67 542.13,-239.99 534.05,-233.14 531.54,-239.67"/>
</g>
<!-- Node15 -->
<g id="node15" class="node">
<title>Node15</title>
<g id="a_node15"><a xlink:href="../../dd/ddf/FMC__errors_8h.html#a3c06d7ced3399b1c6908f9d7fb1a3001" target="_top" xlink:title=" ">
<polygon fill="white" stroke="#666666" points="442,-167 323,-167 323,-148 442,-148 442,-167"/>
<text text-anchor="middle" x="382.5" y="-155" font-family="Helvetica,sans-Serif" font-size="10.00">FMC_printGreenError</text>
</a>
</g>
</g>
<!-- Node1&#45;&gt;Node15 -->
<g id="edge16" class="edge">
<title>Node1&#45;&gt;Node15</title>
<path fill="none" stroke="#63b8ff" d="M548.28,-233.32C528.79,-216.4 495.85,-190.28 463,-175.5 455.52,-172.13 447.34,-169.37 439.17,-167.1"/>
<polygon fill="#63b8ff" stroke="#63b8ff" points="545.96,-235.95 555.77,-239.95 550.6,-230.7 545.96,-235.95"/>
</g>
<!-- Node16 -->
<g id="node16" class="node">
<title>Node16</title>
<g id="a_node16"><a xlink:href="../../dd/ddf/FMC__errors_8h.html#a5baf70d47076d8a69e144a29f96aaa83" target="_top" xlink:title=" ">
<polygon fill="white" stroke="#666666" points="448.5,-130 316.5,-130 316.5,-111 448.5,-111 448.5,-130"/>
<text text-anchor="middle" x="382.5" y="-118" font-family="Helvetica,sans-Serif" font-size="10.00">FMC_printMagentaError</text>
</a>
</g>
</g>
<!-- Node1&#45;&gt;Node16 -->
<g id="edge17" class="edge">
<title>Node1&#45;&gt;Node16</title>
<path fill="none" stroke="#63b8ff" d="M554.5,-231.47C537.59,-206.52 503.6,-161.89 463,-138.5 457.11,-135.11 450.64,-132.36 444.01,-130.12"/>
<polygon fill="#63b8ff" stroke="#63b8ff" points="551.69,-233.57 560.12,-239.98 557.53,-229.71 551.69,-233.57"/>
</g>
<!-- Node17 -->
<g id="node17" class="node">
<title>Node17</title>
<g id="a_node17"><a xlink:href="../../dd/ddf/FMC__errors_8h.html#a7e1dc9f65cdc87f4553b3df4e8a886d6" target="_top" xlink:title=" ">
<polygon fill="white" stroke="#666666" points="436.5,-93 328.5,-93 328.5,-74 436.5,-74 436.5,-93"/>
<text text-anchor="middle" x="382.5" y="-81" font-family="Helvetica,sans-Serif" font-size="10.00">FMC_printRedError</text>
</a>
</g>
</g>
<!-- Node1&#45;&gt;Node17 -->
<g id="edge18" class="edge">
<title>Node1&#45;&gt;Node17</title>
<path fill="none" stroke="#63b8ff" d="M558.14,-230.1C544.09,-198.01 511.52,-134.18 463,-101.5 455.14,-96.2 445.94,-92.45 436.65,-89.79"/>
<polygon fill="#63b8ff" stroke="#63b8ff" points="555.07,-231.83 562.19,-239.68 561.52,-229.1 555.07,-231.83"/>
</g>
<!-- Node18 -->
<g id="node18" class="node">
<title>Node18</title>
<g id="a_node18"><a xlink:href="../../dd/ddf/FMC__errors_8h.html#a1e2616f3954e78e99866f2d3c12303c6" target="_top" xlink:title=" ">
<polygon fill="white" stroke="#666666" points="441.5,-56 323.5,-56 323.5,-37 441.5,-37 441.5,-56"/>
<text text-anchor="middle" x="382.5" y="-44" font-family="Helvetica,sans-Serif" font-size="10.00">FMC_printWhiteError</text>
</a>
</g>
</g>
<!-- Node1&#45;&gt;Node18 -->
<g id="edge19" class="edge">
<title>Node1&#45;&gt;Node18</title>
<path fill="none" stroke="#63b8ff" d="M560.82,-229.64C549.76,-191.33 520.05,-107.21 463,-64.5 456.66,-59.75 449.28,-56.22 441.64,-53.6"/>
<polygon fill="#63b8ff" stroke="#63b8ff" points="557.53,-230.86 563.56,-239.57 564.28,-229 557.53,-230.86"/>
</g>
<!-- Node19 -->
<g id="node19" class="node">
<title>Node19</title>
<g id="a_node19"><a xlink:href="../../dd/ddf/FMC__errors_8h.html#a44368b2a61e244b3d4260be1acd248d3" target="_top" xlink:title=" ">
<polygon fill="white" stroke="#666666" points="442.5,-19 322.5,-19 322.5,0 442.5,0 442.5,-19"/>
<text text-anchor="middle" x="382.5" y="-7" font-family="Helvetica,sans-Serif" font-size="10.00">FMC_printYellowError</text>
</a>
</g>
</g>
<!-- Node1&#45;&gt;Node19 -->
<g id="edge20" class="edge">
<title>Node1&#45;&gt;Node19</title>
<path fill="none" stroke="#63b8ff" d="M562.81,-229.7C554.69,-185.96 528.98,-80.8 463,-27.5 457.06,-22.7 450.08,-19.12 442.78,-16.47"/>
<polygon fill="#63b8ff" stroke="#63b8ff" points="559.38,-230.4 564.55,-239.65 566.28,-229.19 559.38,-230.4"/>
</g>
<!-- Node8 -->
<g id="node8" class="node">
<title>Node8</title>
<g id="a_node8"><a xlink:href="../../dc/d5e/FMC__paths_8c.html#a93ee980e87b59d6a3af6e5d4f1ec7ac0" target="_top" xlink:title=" ">
<polygon fill="white" stroke="#666666" points="256.5,-354 152.5,-354 152.5,-335 256.5,-335 256.5,-354"/>
<text text-anchor="middle" x="204.5" y="-342" font-family="Helvetica,sans-Serif" font-size="10.00">FMC_cutFilename</text>
</a>
</g>
</g>
<!-- Node7&#45;&gt;Node8 -->
<g id="edge7" class="edge">
<title>Node7&#45;&gt;Node8</title>
<path fill="none" stroke="#63b8ff" d="M328.52,-317.24C302.9,-322.92 272.56,-329.64 248.41,-334.99"/>
<polygon fill="#63b8ff" stroke="#63b8ff" points="329.44,-320.62 338.45,-315.04 327.93,-313.79 329.44,-320.62"/>
</g>
<!-- Node9 -->
<g id="node9" class="node">
<title>Node9</title>
<g id="a_node9"><a xlink:href="../../dc/d5e/FMC__paths_8c.html#a1fa62fd52b6e1fa12794f480d51ba683" target="_top" xlink:title="Gets the filename from a complete path.">
<polygon fill="white" stroke="#666666" points="266,-317 143,-317 143,-298 266,-298 266,-317"/>
<text text-anchor="middle" x="204.5" y="-305" font-family="Helvetica,sans-Serif" font-size="10.00">FMC_extractFilename</text>
</a>
</g>
</g>
<!-- Node7&#45;&gt;Node9 -->
<g id="edge8" class="edge">
<title>Node7&#45;&gt;Node9</title>
<path fill="none" stroke="#63b8ff" d="M303.92,-306.38C291.29,-306.53 278.38,-306.67 266.24,-306.81"/>
<polygon fill="#63b8ff" stroke="#63b8ff" points="304,-309.88 313.96,-306.27 303.92,-302.88 304,-309.88"/>
</g>
<!-- Node10 -->
<g id="node10" class="node">
<title>Node10</title>
<g id="a_node10"><a xlink:href="../../dc/d5e/FMC__paths_8c.html#ab8632eb234af95cea6075bc166278cff" target="_top" xlink:title=" ">
<polygon fill="white" stroke="#666666" points="107,-298 0,-298 0,-279 107,-279 107,-298"/>
<text text-anchor="middle" x="53.5" y="-286" font-family="Helvetica,sans-Serif" font-size="10.00">FMC_getExtension</text>
</a>
</g>
</g>
<!-- Node7&#45;&gt;Node10 -->
<g id="edge11" class="edge">
<title>Node7&#45;&gt;Node10</title>
<path fill="none" stroke="#63b8ff" d="M313.68,-294.57C298.06,-292.48 281.49,-290.6 266,-289.5 211.98,-285.65 149.99,-285.9 107.16,-286.81"/>
<polygon fill="#63b8ff" stroke="#63b8ff" points="313.4,-298.07 323.79,-295.97 314.36,-291.13 313.4,-298.07"/>
</g>
<!-- Node11 -->
<g id="node11" class="node">
<title>Node11</title>
<g id="a_node11"><a xlink:href="../../db/dc4/FMC__encodings_8c.html#ac43872885563da059b7870132977db9d" target="_top" xlink:title=" ">
<polygon fill="white" stroke="#666666" points="256.5,-241 152.5,-241 152.5,-222 256.5,-222 256.5,-241"/>
<text text-anchor="middle" x="204.5" y="-229" font-family="Helvetica,sans-Serif" font-size="10.00">FMC_getEncoding</text>
</a>
</g>
</g>
<!-- Node7&#45;&gt;Node11 -->
<g id="edge10" class="edge">
<title>Node7&#45;&gt;Node11</title>
<path fill="none" stroke="#63b8ff" d="M313.77,-292.69C309.71,-291.15 305.75,-289.43 302,-287.5 282.96,-277.72 284.23,-266.73 266,-255.5 256.57,-249.69 245.5,-244.81 235.42,-241"/>
<polygon fill="#63b8ff" stroke="#63b8ff" points="312.8,-296.06 323.4,-295.96 315.05,-289.43 312.8,-296.06"/>
</g>
<!-- Node9&#45;&gt;Node10 -->
<g id="edge9" class="edge">
<title>Node9&#45;&gt;Node10</title>
<path fill="none" stroke="#63b8ff" d="M132.88,-298.5C124.31,-297.4 115.66,-296.3 107.4,-295.25"/>
<polygon fill="#63b8ff" stroke="#63b8ff" points="132.53,-301.98 142.9,-299.77 133.42,-295.04 132.53,-301.98"/>
</g>
<!-- Node13&#45;&gt;Node11 -->
<g id="edge14" class="edge">
<title>Node13&#45;&gt;Node11</title>
<path fill="none" stroke="#63b8ff" d="M297.71,-231.5C283.69,-231.5 269.52,-231.5 256.64,-231.5"/>
<polygon fill="#63b8ff" stroke="#63b8ff" points="297.88,-235 307.88,-231.5 297.88,-228 297.88,-235"/>
</g>
</g>
</svg>
        <g id="navigator" transform="translate(0 0)" fill="#404254">
                <rect fill="#f2f5e9" fill-opacity="0.5" stroke="#606060" stroke-width=".5" x="0" y="0" width="60" height="60"/>
                <use id="zoomplus" xlink:href="#zoomPlus" x="17" y="9" onmousedown="handleZoom(evt,'in')"/>
                <use id="zoomminus" xlink:href="#zoomMin" x="42" y="9" onmousedown="handleZoom(evt,'out')"/>
                <use id="reset" xlink:href="#resetDef" x="30" y="36" onmousedown="handleReset()"/>
                <g id="arrowUp" xlink:href="#dirArrow" transform="translate(30 24)" onmousedown="handlePan(0,-1)">
                  <use xlink:href="#rim" fill="#404040">
                        <set attributeName="fill" to="#808080" begin="arrowUp.mouseover" end="arrowUp.mouseout"/>
                  </use>
                  <path fill="none" stroke="white" stroke-width="1.5" d="M0,-3.0v7 M-2.5,-0.5L0,-3.0L2.5,-0.5"/>
                </g>
                <g id="arrowRight" xlink:href="#dirArrow" transform="rotate(90) translate(36 -43)" onmousedown="handlePan(1,0)">
                  <use xlink:href="#rim" fill="#404040">
                        <set attributeName="fill" to="#808080" begin="arrowRight.mouseover" end="arrowRight.mouseout"/>
                  </use>
                  <path fill="none" stroke="white" stroke-width="1.5" d="M0,-3.0v7 M-2.5,-0.5L0,-3.0L2.5,-0.5"/>
                </g>
                <g id="arrowDown" xlink:href="#dirArrow" transform="rotate(180) translate(-30 -48)" onmousedown="handlePan(0,1)">
                  <use xlink:href="#rim" fill="#404040">
                        <set attributeName="fill" to="#808080" begin="arrowDown.mouseover" end="arrowDown.mouseout"/>
                  </use>
                  <path fill="none" stroke="white" stroke-width="1.5" d="M0,-3.0v7 M-2.5,-0.5L0,-3.0L2.5,-0.5"/>
                </g>
                <g id="arrowLeft" xlink:href="#dirArrow" transform="rotate(270) translate(-36 17)" onmousedown="handlePan(-1,0)">
                  <use xlink:href="#rim" fill="#404040">
                        <set attributeName="fill" to="#808080" begin="arrowLeft.mouseover" end="arrowLeft.mouseout"/>
                  </use>
                  <path fill="none" stroke="white" stroke-width="1.5" d="M0,-3.0v7 M-2.5,-0.5L0,-3.0L2.5,-0.5"/>
                </g>
        </g>
        <svg viewBox="0 0 15 15" width="100%" height="30px" preserveAspectRatio="xMaxYMin meet">
         <g id="arrow_out" transform="scale(0.3 0.3)">
          <a xlink:href="FMC__errors_8h_ad65d0a387448c0139270e9c628cf4126_icgraph_org.svg" target="_base">
           <rect id="button" ry="5" rx="5" y="6" x="6" height="38" width="38"
                fill="#f2f5e9" fill-opacity="0.5" stroke="#606060" stroke-width="1.0"/>
           <path id="arrow"
             d="M 11.500037,31.436501 C 11.940474,20.09759 22.043105,11.32322 32.158766,21.979434 L 37.068811,17.246167 C 37.068811,17.246167 37.088388,32 37.088388,32 L 22.160133,31.978069 C 22.160133,31.978069 26.997745,27.140456 26.997745,27.140456 C 18.528582,18.264221 13.291696,25.230495 11.500037,31.436501 z"
             style="fill:#404040;"/>
          </a>
         </g>
        </svg>
</svg>
