<?xml version="1.0" encoding="UTF-8" standalone="no"?>
<!DOCTYPE svg PUBLIC "-//W3C//DTD SVG 1.1//EN"
 "http://www.w3.org/Graphics/SVG/1.1/DTD/svg11.dtd">
<!-- Generated by graphviz version 2.43.0 (0)
 -->
<!-- Title: FMC_printGreenError Pages: 1 -->
<svg width="324pt" height="113pt"
 viewBox="0.00 0.00 324.00 112.50" xmlns="http://www.w3.org/2000/svg" xmlns:xlink="http://www.w3.org/1999/xlink">
<g id="graph0" class="graph" transform="scale(1 1) rotate(0) translate(4 108.5)">
<title>FMC_printGreenError</title>
<!-- Node1 -->
<g id="node1" class="node">
<title>Node1</title>
<g id="a_node1"><a xlink:title=" ">
<polygon fill="#999999" stroke="#666666" points="119,-56 0,-56 0,-37 119,-37 119,-56"/>
<text text-anchor="middle" x="59.5" y="-44" font-family="Helvetica,sans-Serif" font-size="10.00">FMC_printGreenError</text>
</a>
</g>
</g>
<!-- Node2 -->
<g id="node2" class="node">
<title>Node2</title>
<g id="a_node2"><a xlink:href="../../dd/ddf/FMC__errors_8h.html#ab8572eccf1615a1c6694e200d3ce3665" target="_top" xlink:title=" ">
<polygon fill="white" stroke="#666666" points="315.5,-104.5 155.5,-104.5 155.5,-74.5 315.5,-74.5 315.5,-104.5"/>
<text text-anchor="start" x="163.5" y="-92.5" font-family="Helvetica,sans-Serif" font-size="10.00">FMC_changeStreamTextColor</text>
<text text-anchor="middle" x="235.5" y="-81.5" font-family="Helvetica,sans-Serif" font-size="10.00">ToGreen</text>
</a>
</g>
</g>
<!-- Node1&#45;&gt;Node2 -->
<g id="edge1" class="edge">
<title>Node1&#45;&gt;Node2</title>
<path fill="none" stroke="#63b8ff" d="M99.12,-56.04C118.22,-60.76 141.88,-66.61 164.05,-72.09"/>
<polygon fill="#63b8ff" stroke="#63b8ff" points="163.23,-75.49 173.78,-74.49 164.91,-68.7 163.23,-75.49"/>
</g>
<!-- Node3 -->
<g id="node3" class="node">
<title>Node3</title>
<g id="a_node3"><a xlink:href="../../dd/ddf/FMC__errors_8h.html#a5dac1ddff314ba7b3bed3d87eb3f19f5" target="_top" xlink:title=" ">
<polygon fill="white" stroke="#666666" points="316,-56 155,-56 155,-37 316,-37 316,-56"/>
<text text-anchor="middle" x="235.5" y="-44" font-family="Helvetica,sans-Serif" font-size="10.00">FMC_resetStreamOutputStyle</text>
</a>
</g>
</g>
<!-- Node1&#45;&gt;Node3 -->
<g id="edge2" class="edge">
<title>Node1&#45;&gt;Node3</title>
<path fill="none" stroke="#63b8ff" d="M119.41,-46.5C127.63,-46.5 136.22,-46.5 144.85,-46.5"/>
<polygon fill="#63b8ff" stroke="#63b8ff" points="144.98,-50 154.98,-46.5 144.98,-43 144.98,-50"/>
</g>
<!-- Node4 -->
<g id="node4" class="node">
<title>Node4</title>
<g id="a_node4"><a xlink:href="../../dd/ddf/FMC__errors_8h.html#ad65d0a387448c0139270e9c628cf4126" target="_top" xlink:title=" ">
<polygon fill="white" stroke="#666666" points="303.5,-19 167.5,-19 167.5,0 303.5,0 303.5,-19"/>
<text text-anchor="middle" x="235.5" y="-7" font-family="Helvetica,sans-Serif" font-size="10.00">FMC_setTextStyleToBold</text>
</a>
</g>
</g>
<!-- Node1&#45;&gt;Node4 -->
<g id="edge3" class="edge">
<title>Node1&#45;&gt;Node4</title>
<path fill="none" stroke="#63b8ff" d="M105.31,-36.97C127.95,-32.16 155.63,-26.27 179.55,-21.19"/>
<polygon fill="#63b8ff" stroke="#63b8ff" points="180.49,-24.56 189.54,-19.06 179.03,-17.72 180.49,-24.56"/>
</g>
</g>
</svg>
