<?xml version="1.0" encoding="UTF-8" standalone="no"?>
<!DOCTYPE svg PUBLIC "-//W3C//DTD SVG 1.1//EN"
 "http://www.w3.org/Graphics/SVG/1.1/DTD/svg11.dtd">
<!-- Generated by graphviz version 2.43.0 (0)
 -->
<!-- Title: FMC_printYellowError Pages: 1 -->
<svg width="325pt" height="113pt"
 viewBox="0.00 0.00 325.00 112.50" xmlns="http://www.w3.org/2000/svg" xmlns:xlink="http://www.w3.org/1999/xlink">
<g id="graph0" class="graph" transform="scale(1 1) rotate(0) translate(4 108.5)">
<title>FMC_printYellowError</title>
<!-- Node1 -->
<g id="node1" class="node">
<title>Node1</title>
<g id="a_node1"><a xlink:title=" ">
<polygon fill="#999999" stroke="#666666" points="120,-56 0,-56 0,-37 120,-37 120,-56"/>
<text text-anchor="middle" x="60" y="-44" font-family="Helvetica,sans-Serif" font-size="10.00">FMC_printYellowError</text>
</a>
</g>
</g>
<!-- Node2 -->
<g id="node2" class="node">
<title>Node2</title>
<g id="a_node2"><a xlink:href="../../dd/ddf/FMC__errors_8h.html#a3431d465d8b2f51b97c972c23218e7dd" target="_top" xlink:title=" ">
<polygon fill="white" stroke="#666666" points="316.5,-104.5 156.5,-104.5 156.5,-74.5 316.5,-74.5 316.5,-104.5"/>
<text text-anchor="start" x="164.5" y="-92.5" font-family="Helvetica,sans-Serif" font-size="10.00">FMC_changeStreamTextColor</text>
<text text-anchor="middle" x="236.5" y="-81.5" font-family="Helvetica,sans-Serif" font-size="10.00">ToYellow</text>
</a>
</g>
</g>
<!-- Node1&#45;&gt;Node2 -->
<g id="edge1" class="edge">
<title>Node1&#45;&gt;Node2</title>
<path fill="none" stroke="#63b8ff" d="M99.73,-56.04C118.88,-60.76 142.61,-66.61 164.85,-72.09"/>
<polygon fill="#63b8ff" stroke="#63b8ff" points="164.06,-75.5 174.6,-74.49 165.73,-68.7 164.06,-75.5"/>
</g>
<!-- Node3 -->
<g id="node3" class="node">
<title>Node3</title>
<g id="a_node3"><a xlink:href="../../dd/ddf/FMC__errors_8h.html#a5dac1ddff314ba7b3bed3d87eb3f19f5" target="_top" xlink:title=" ">
<polygon fill="white" stroke="#666666" points="317,-56 156,-56 156,-37 317,-37 317,-56"/>
<text text-anchor="middle" x="236.5" y="-44" font-family="Helvetica,sans-Serif" font-size="10.00">FMC_resetStreamOutputStyle</text>
</a>
</g>
</g>
<!-- Node1&#45;&gt;Node3 -->
<g id="edge2" class="edge">
<title>Node1&#45;&gt;Node3</title>
<path fill="none" stroke="#63b8ff" d="M120.08,-46.5C128.32,-46.5 136.94,-46.5 145.6,-46.5"/>
<polygon fill="#63b8ff" stroke="#63b8ff" points="145.75,-50 155.75,-46.5 145.75,-43 145.75,-50"/>
</g>
<!-- Node4 -->
<g id="node4" class="node">
<title>Node4</title>
<g id="a_node4"><a xlink:href="../../dd/ddf/FMC__errors_8h.html#ad65d0a387448c0139270e9c628cf4126" target="_top" xlink:title=" ">
<polygon fill="white" stroke="#666666" points="304.5,-19 168.5,-19 168.5,0 304.5,0 304.5,-19"/>
<text text-anchor="middle" x="236.5" y="-7" font-family="Helvetica,sans-Serif" font-size="10.00">FMC_setTextStyleToBold</text>
</a>
</g>
</g>
<!-- Node1&#45;&gt;Node4 -->
<g id="edge3" class="edge">
<title>Node1&#45;&gt;Node4</title>
<path fill="none" stroke="#63b8ff" d="M105.94,-36.97C128.65,-32.16 156.4,-26.27 180.39,-21.19"/>
<polygon fill="#63b8ff" stroke="#63b8ff" points="181.35,-24.56 190.41,-19.06 179.9,-17.71 181.35,-24.56"/>
</g>
</g>
</svg>
