<?xml version="1.0" encoding="UTF-8" standalone="no"?>
<!DOCTYPE svg PUBLIC "-//W3C//DTD SVG 1.1//EN"
 "http://www.w3.org/Graphics/SVG/1.1/DTD/svg11.dtd">
<!-- Generated by graphviz version 2.43.0 (0)
 -->
<!-- Title: src/general/utils/FMC_str_view.h Pages: 1 -->
<svg width="770pt" height="313pt"
 viewBox="0.00 0.00 770.41 313.00" xmlns="http://www.w3.org/2000/svg" xmlns:xlink="http://www.w3.org/1999/xlink">
<g id="graph0" class="graph" transform="scale(1 1) rotate(0) translate(4 309)">
<title>src/general/utils/FMC_str_view.h</title>
<!-- Node1 -->
<g id="node1" class="node">
<title>Node1</title>
<g id="a_node1"><a xlink:title=" ">
<polygon fill="#999999" stroke="#666666" points="448.39,-305 329.39,-305 329.39,-275 448.39,-275 448.39,-305"/>
<text text-anchor="start" x="337.39" y="-293" font-family="Helvetica,sans-Serif" font-size="10.00">src/general/utils/FMC</text>
<text text-anchor="middle" x="388.89" y="-282" font-family="Helvetica,sans-Serif" font-size="10.00">_str_view.h</text>
</a>
</g>
</g>
<!-- Node2 -->
<g id="node2" class="node">
<title>Node2</title>
<g id="a_node2"><a xlink:href="../../d9/de1/FMC__general_8h.html" target="_top" xlink:title=" ">
<polygon fill="white" stroke="#666666" points="437.89,-239 339.89,-239 339.89,-220 437.89,-220 437.89,-239"/>
<text text-anchor="middle" x="388.89" y="-227" font-family="Helvetica,sans-Serif" font-size="10.00">../FMC_general.h</text>
</a>
</g>
</g>
<!-- Node1&#45;&gt;Node2 -->
<g id="edge1" class="edge">
<title>Node1&#45;&gt;Node2</title>
<path fill="none" stroke="#63b8ff" d="M383.01,-274.84C382.04,-267.21 381.88,-257.7 382.52,-249.45"/>
<polygon fill="#63b8ff" stroke="#63b8ff" points="386.03,-249.65 383.9,-239.27 379.09,-248.71 386.03,-249.65"/>
</g>
<!-- Node2&#45;&gt;Node1 -->
<g id="edge32" class="edge">
<title>Node2&#45;&gt;Node1</title>
<path fill="none" stroke="#63b8ff" d="M393.87,-239.27C395.31,-246.03 395.87,-255.72 395.55,-264.75"/>
<polygon fill="#63b8ff" stroke="#63b8ff" points="392.05,-264.6 394.77,-274.84 399.03,-265.14 392.05,-264.6"/>
</g>
<!-- Node3 -->
<g id="node3" class="node">
<title>Node3</title>
<g id="a_node3"><a xlink:href="../../d0/d28/FMC__macros_8h.html" target="_top" xlink:title=" ">
<polygon fill="white" stroke="#666666" points="337.39,-74 182.39,-74 182.39,-55 337.39,-55 337.39,-74"/>
<text text-anchor="middle" x="259.89" y="-62" font-family="Helvetica,sans-Serif" font-size="10.00">preprocessor/FMC_macros.h</text>
</a>
</g>
</g>
<!-- Node2&#45;&gt;Node3 -->
<g id="edge2" class="edge">
<title>Node2&#45;&gt;Node3</title>
<path fill="none" stroke="#63b8ff" d="M339.64,-225.26C262.73,-219.58 118.13,-206.29 71.89,-184 39.89,-168.57 27.92,-161.64 13.89,-129 10.55,-121.24 8.47,-116.48 13.89,-110 33.99,-85.94 109.73,-74.86 171.93,-69.78"/>
<polygon fill="#63b8ff" stroke="#63b8ff" points="172.48,-73.25 182.18,-68.99 171.93,-66.27 172.48,-73.25"/>
</g>
<!-- Node4 -->
<g id="node4" class="node">
<title>Node4</title>
<g id="a_node4"><a xlink:href="../../d7/dff/FMC__platform_8h.html" target="_top" xlink:title=" ">
<polygon fill="white" stroke="#666666" points="202.39,-19 107.39,-19 107.39,0 202.39,0 202.39,-19"/>
<text text-anchor="middle" x="154.89" y="-7" font-family="Helvetica,sans-Serif" font-size="10.00">FMC_platform.h</text>
</a>
</g>
</g>
<!-- Node2&#45;&gt;Node4 -->
<g id="edge7" class="edge">
<title>Node2&#45;&gt;Node4</title>
<path fill="none" stroke="#63b8ff" d="M339.88,-227.8C254.76,-225.71 84.07,-217.36 35.89,-184 6.84,-163.89 -9.72,-141.18 6.89,-110 30.57,-65.54 83.93,-37.4 119.68,-22.8"/>
<polygon fill="#63b8ff" stroke="#63b8ff" points="121.23,-25.95 129.26,-19.04 118.67,-19.43 121.23,-25.95"/>
</g>
<!-- Node7 -->
<g id="node7" class="node">
<title>Node7</title>
<g id="a_node7"><a xlink:href="../../da/dd3/FMC__consts_8h.html" target="_top" xlink:title=" ">
<polygon fill="white" stroke="#666666" points="612.89,-129 462.89,-129 462.89,-110 612.89,-110 612.89,-129"/>
<text text-anchor="middle" x="537.89" y="-117" font-family="Helvetica,sans-Serif" font-size="10.00">preprocessor/FMC_consts.h</text>
</a>
</g>
</g>
<!-- Node2&#45;&gt;Node7 -->
<g id="edge8" class="edge">
<title>Node2&#45;&gt;Node7</title>
<path fill="none" stroke="#63b8ff" d="M438.03,-223.37C465.93,-217.96 499.46,-206.84 520.89,-184 532.23,-171.92 536.17,-153.12 537.46,-139.1"/>
<polygon fill="#63b8ff" stroke="#63b8ff" points="540.96,-139.29 538.02,-129.11 533.97,-138.9 540.96,-139.29"/>
</g>
<!-- Node8 -->
<g id="node8" class="node">
<title>Node8</title>
<g id="a_node8"><a xlink:href="../../d5/de5/FMC__structs_8h.html" target="_top" xlink:title=" ">
<polygon fill="white" stroke="#666666" points="511.89,-184 395.89,-184 395.89,-165 511.89,-165 511.89,-184"/>
<text text-anchor="middle" x="453.89" y="-172" font-family="Helvetica,sans-Serif" font-size="10.00">types/FMC_structs.h</text>
</a>
</g>
</g>
<!-- Node2&#45;&gt;Node8 -->
<g id="edge9" class="edge">
<title>Node2&#45;&gt;Node8</title>
<path fill="none" stroke="#63b8ff" d="M399.33,-219.98C409.03,-212.07 423.7,-200.11 435.39,-190.58"/>
<polygon fill="#63b8ff" stroke="#63b8ff" points="437.72,-193.2 443.25,-184.17 433.29,-187.78 437.72,-193.2"/>
</g>
<!-- Node10 -->
<g id="node10" class="node">
<title>Node10</title>
<g id="a_node10"><a xlink:href="../../d6/d25/FMC__enums_8h.html" target="_top" xlink:title=" ">
<polygon fill="white" stroke="#666666" points="338.89,-129 252.89,-129 252.89,-110 338.89,-110 338.89,-129"/>
<text text-anchor="middle" x="295.89" y="-117" font-family="Helvetica,sans-Serif" font-size="10.00">FMC_enums.h</text>
</a>
</g>
</g>
<!-- Node2&#45;&gt;Node10 -->
<g id="edge20" class="edge">
<title>Node2&#45;&gt;Node10</title>
<path fill="none" stroke="#63b8ff" d="M339.77,-224.44C312.62,-219.39 281.02,-208.28 263.89,-184 253.18,-168.82 266.11,-149.55 278.6,-136.24"/>
<polygon fill="#63b8ff" stroke="#63b8ff" points="281.09,-138.7 285.71,-129.17 276.15,-133.73 281.09,-138.7"/>
</g>
<!-- Node11 -->
<g id="node11" class="node">
<title>Node11</title>
<g id="a_node11"><a xlink:href="../../df/df8/FMC__typedefs_8h.html" target="_top" xlink:title=" ">
<polygon fill="white" stroke="#666666" points="726.39,-129 631.39,-129 631.39,-110 726.39,-110 726.39,-129"/>
<text text-anchor="middle" x="678.89" y="-117" font-family="Helvetica,sans-Serif" font-size="10.00">FMC_typedefs.h</text>
</a>
</g>
</g>
<!-- Node2&#45;&gt;Node11 -->
<g id="edge19" class="edge">
<title>Node2&#45;&gt;Node11</title>
<path fill="none" stroke="#63b8ff" d="M422.92,-219.95C453.83,-211.84 500.46,-198.73 539.89,-184 580.35,-168.88 625.57,-147.31 653.12,-133.61"/>
<polygon fill="#63b8ff" stroke="#63b8ff" points="654.72,-136.72 662.1,-129.11 651.59,-130.46 654.72,-136.72"/>
</g>
<!-- Node12 -->
<g id="node12" class="node">
<title>Node12</title>
<g id="a_node12"><a xlink:href="../../d2/d5e/FMC__flags_8h.html" target="_top" xlink:title=" ">
<polygon fill="white" stroke="#666666" points="697.89,-74 555.89,-74 555.89,-55 697.89,-55 697.89,-74"/>
<text text-anchor="middle" x="626.89" y="-62" font-family="Helvetica,sans-Serif" font-size="10.00">preprocessor/FMC_flags.h</text>
</a>
</g>
</g>
<!-- Node2&#45;&gt;Node12 -->
<g id="edge17" class="edge">
<title>Node2&#45;&gt;Node12</title>
<path fill="none" stroke="#63b8ff" d="M437.91,-228.53C522.49,-227.58 690.98,-220.94 734.89,-184 760.71,-162.27 771.34,-137.57 751.89,-110 740.64,-94.05 723.14,-83.79 704.76,-77.19"/>
<polygon fill="#63b8ff" stroke="#63b8ff" points="705.7,-73.81 695.1,-74.06 703.54,-80.47 705.7,-73.81"/>
</g>
<!-- Node13 -->
<g id="node13" class="node">
<title>Node13</title>
<g id="a_node13"><a xlink:href="../../dd/ddf/FMC__errors_8h.html" target="_top" xlink:title=" ">
<polygon fill="white" stroke="#666666" points="377.39,-184 272.39,-184 272.39,-165 377.39,-165 377.39,-184"/>
<text text-anchor="middle" x="324.89" y="-172" font-family="Helvetica,sans-Serif" font-size="10.00">utils/FMC_errors.h</text>
</a>
</g>
</g>
<!-- Node2&#45;&gt;Node13 -->
<g id="edge21" class="edge">
<title>Node2&#45;&gt;Node13</title>
<path fill="none" stroke="#63b8ff" d="M378.61,-219.98C369.05,-212.07 354.61,-200.11 343.1,-190.58"/>
<polygon fill="#63b8ff" stroke="#63b8ff" points="345.29,-187.85 335.36,-184.17 340.83,-193.24 345.29,-187.85"/>
</g>
<!-- Node14 -->
<g id="node14" class="node">
<title>Node14</title>
<g id="a_node14"><a xlink:href="../../de/d86/FMC__globals_8h.html" target="_top" xlink:title=" ">
<polygon fill="white" stroke="#666666" points="725.89,-184 613.89,-184 613.89,-165 725.89,-165 725.89,-184"/>
<text text-anchor="middle" x="669.89" y="-172" font-family="Helvetica,sans-Serif" font-size="10.00">utils/FMC_globals.h</text>
</a>
</g>
</g>
<!-- Node2&#45;&gt;Node14 -->
<g id="edge25" class="edge">
<title>Node2&#45;&gt;Node14</title>
<path fill="none" stroke="#63b8ff" d="M434.04,-219.98C483.15,-210.72 561.71,-195.9 614.51,-185.94"/>
<polygon fill="#63b8ff" stroke="#63b8ff" points="615.21,-189.37 624.39,-184.08 613.91,-182.5 615.21,-189.37"/>
</g>
<!-- Node15 -->
<g id="node15" class="node">
<title>Node15</title>
<g id="a_node15"><a xlink:href="../../d4/d06/FMC__deprecated_8h.html" target="_top" xlink:title=" ">
<polygon fill="white" stroke="#666666" points="212.39,-184 81.39,-184 81.39,-165 212.39,-165 212.39,-184"/>
<text text-anchor="middle" x="146.89" y="-172" font-family="Helvetica,sans-Serif" font-size="10.00">utils/FMC_deprecated.h</text>
</a>
</g>
</g>
<!-- Node2&#45;&gt;Node15 -->
<g id="edge29" class="edge">
<title>Node2&#45;&gt;Node15</title>
<path fill="none" stroke="#63b8ff" d="M350.01,-219.98C308.15,-210.82 241.46,-196.21 196,-186.26"/>
<polygon fill="#63b8ff" stroke="#63b8ff" points="196.59,-182.8 186.07,-184.08 195.09,-189.64 196.59,-182.8"/>
</g>
<!-- Node3&#45;&gt;Node4 -->
<g id="edge3" class="edge">
<title>Node3&#45;&gt;Node4</title>
<path fill="none" stroke="#63b8ff" d="M243.02,-54.98C226.28,-46.54 200.39,-33.47 181,-23.68"/>
<polygon fill="#63b8ff" stroke="#63b8ff" points="182.57,-20.55 172.07,-19.17 179.42,-26.8 182.57,-20.55"/>
</g>
<!-- Node5 -->
<g id="node5" class="node">
<title>Node5</title>
<g id="a_node5"><a xlink:title=" ">
<polygon fill="#e0e0e0" stroke="#999999" points="384.89,-19 300.89,-19 300.89,0 384.89,0 384.89,-19"/>
<text text-anchor="middle" x="342.89" y="-7" font-family="Helvetica,sans-Serif" font-size="10.00">metalang99.h</text>
</a>
</g>
</g>
<!-- Node3&#45;&gt;Node5 -->
<g id="edge4" class="edge">
<title>Node3&#45;&gt;Node5</title>
<path fill="none" stroke="#63b8ff" d="M273.22,-54.98C285.97,-46.84 305.44,-34.41 320.56,-24.76"/>
<polygon fill="#63b8ff" stroke="#63b8ff" points="322.77,-27.5 329.31,-19.17 319,-21.6 322.77,-27.5"/>
</g>
<!-- Node6 -->
<g id="node6" class="node">
<title>Node6</title>
<g id="a_node6"><a xlink:href="../../d1/d2e/FMC__attributes_8h.html" target="_top" xlink:title=" ">
<polygon fill="white" stroke="#666666" points="196.89,-129 96.89,-129 96.89,-110 196.89,-110 196.89,-129"/>
<text text-anchor="middle" x="146.89" y="-117" font-family="Helvetica,sans-Serif" font-size="10.00">FMC_attributes.h</text>
</a>
</g>
</g>
<!-- Node3&#45;&gt;Node6 -->
<g id="edge5" class="edge">
<title>Node3&#45;&gt;Node6</title>
<path fill="none" stroke="#63b8ff" d="M246.55,-74.17C230.04,-82.79 201.88,-96.11 179.6,-105.9"/>
<polygon fill="#63b8ff" stroke="#63b8ff" points="177.95,-102.8 170.16,-109.98 180.73,-109.23 177.95,-102.8"/>
</g>
<!-- Node6&#45;&gt;Node3 -->
<g id="edge6" class="edge">
<title>Node6&#45;&gt;Node3</title>
<path fill="none" stroke="#63b8ff" d="M159.93,-109.98C176.37,-101.38 204.68,-87.99 227.07,-78.15"/>
<polygon fill="#63b8ff" stroke="#63b8ff" points="228.47,-81.36 236.25,-74.17 225.69,-74.93 228.47,-81.36"/>
</g>
<!-- Node8&#45;&gt;Node3 -->
<g id="edge12" class="edge">
<title>Node8&#45;&gt;Node3</title>
<path fill="none" stroke="#63b8ff" d="M451.01,-164.67C446.07,-150.9 434.64,-124.39 415.89,-110 394.1,-93.27 366.27,-82.83 340.16,-76.32"/>
<polygon fill="#63b8ff" stroke="#63b8ff" points="340.79,-72.87 330.25,-74 339.2,-79.69 340.79,-72.87"/>
</g>
<!-- Node8&#45;&gt;Node7 -->
<g id="edge11" class="edge">
<title>Node8&#45;&gt;Node7</title>
<path fill="none" stroke="#63b8ff" d="M467.38,-164.98C480.29,-156.84 499.99,-144.41 515.29,-134.76"/>
<polygon fill="#63b8ff" stroke="#63b8ff" points="517.56,-137.47 524.15,-129.17 513.82,-131.55 517.56,-137.47"/>
</g>
<!-- Node9 -->
<g id="node9" class="node">
<title>Node9</title>
<g id="a_node9"><a xlink:title=" ">
<polygon fill="#e0e0e0" stroke="#999999" points="406.89,-129 356.89,-129 356.89,-110 406.89,-110 406.89,-129"/>
<text text-anchor="middle" x="381.89" y="-117" font-family="Helvetica,sans-Serif" font-size="10.00">stdio.h</text>
</a>
</g>
</g>
<!-- Node8&#45;&gt;Node9 -->
<g id="edge10" class="edge">
<title>Node8&#45;&gt;Node9</title>
<path fill="none" stroke="#63b8ff" d="M442.32,-164.98C431.47,-157 415.01,-144.88 402,-135.31"/>
<polygon fill="#63b8ff" stroke="#63b8ff" points="403.8,-132.28 393.67,-129.17 399.65,-137.92 403.8,-132.28"/>
</g>
<!-- Node8&#45;&gt;Node10 -->
<g id="edge13" class="edge">
<title>Node8&#45;&gt;Node10</title>
<path fill="none" stroke="#63b8ff" d="M428.5,-164.98C402.09,-156.13 360.54,-142.19 330.99,-132.28"/>
<polygon fill="#63b8ff" stroke="#63b8ff" points="332.07,-128.94 321.47,-129.08 329.84,-135.58 332.07,-128.94"/>
</g>
<!-- Node8&#45;&gt;Node11 -->
<g id="edge15" class="edge">
<title>Node8&#45;&gt;Node11</title>
<path fill="none" stroke="#63b8ff" d="M490.04,-164.98C528.79,-155.86 590.44,-141.33 632.69,-131.38"/>
<polygon fill="#63b8ff" stroke="#63b8ff" points="633.52,-134.78 642.45,-129.08 631.92,-127.97 633.52,-134.78"/>
</g>
<!-- Node10&#45;&gt;Node3 -->
<g id="edge14" class="edge">
<title>Node10&#45;&gt;Node3</title>
<path fill="none" stroke="#63b8ff" d="M289.94,-109.75C284.91,-102.34 277.55,-91.5 271.37,-82.41"/>
<polygon fill="#63b8ff" stroke="#63b8ff" points="274.24,-80.39 265.72,-74.09 268.45,-84.33 274.24,-80.39"/>
</g>
<!-- Node11&#45;&gt;Node3 -->
<g id="edge16" class="edge">
<title>Node11&#45;&gt;Node3</title>
<path fill="none" stroke="#63b8ff" d="M631.32,-111.31C628.13,-110.86 624.96,-110.42 621.89,-110 526.76,-97.06 417.33,-83.84 343.91,-75.21"/>
<polygon fill="#63b8ff" stroke="#63b8ff" points="344.14,-71.71 333.8,-74.02 343.32,-78.66 344.14,-71.71"/>
</g>
<!-- Node12&#45;&gt;Node5 -->
<g id="edge18" class="edge">
<title>Node12&#45;&gt;Node5</title>
<path fill="none" stroke="#63b8ff" d="M581.26,-54.98C530.44,-45.5 448.44,-30.2 395.1,-20.24"/>
<polygon fill="#63b8ff" stroke="#63b8ff" points="395.63,-16.78 385.16,-18.39 394.35,-23.66 395.63,-16.78"/>
</g>
<!-- Node13&#45;&gt;Node3 -->
<g id="edge24" class="edge">
<title>Node13&#45;&gt;Node3</title>
<path fill="none" stroke="#63b8ff" d="M293.47,-164.97C275.55,-158.32 254.59,-147.09 243.89,-129 235.5,-114.83 241.73,-96.36 248.72,-83"/>
<polygon fill="#63b8ff" stroke="#63b8ff" points="251.77,-84.72 253.74,-74.31 245.71,-81.22 251.77,-84.72"/>
</g>
<!-- Node13&#45;&gt;Node7 -->
<g id="edge23" class="edge">
<title>Node13&#45;&gt;Node7</title>
<path fill="none" stroke="#63b8ff" d="M359.11,-164.98C395.64,-155.89 453.67,-141.46 493.65,-131.51"/>
<polygon fill="#63b8ff" stroke="#63b8ff" points="494.54,-134.89 503.4,-129.08 492.85,-128.1 494.54,-134.89"/>
</g>
<!-- Node13&#45;&gt;Node9 -->
<g id="edge22" class="edge">
<title>Node13&#45;&gt;Node9</title>
<path fill="none" stroke="#63b8ff" d="M334.05,-164.98C342.39,-157.23 354.92,-145.58 365.07,-136.14"/>
<polygon fill="#63b8ff" stroke="#63b8ff" points="367.62,-138.54 372.56,-129.17 362.86,-133.42 367.62,-138.54"/>
</g>
<!-- Node14&#45;&gt;Node3 -->
<g id="edge27" class="edge">
<title>Node14&#45;&gt;Node3</title>
<path fill="none" stroke="#63b8ff" d="M690.72,-164.83C716.47,-152.94 754.73,-130.69 735.89,-110 710.33,-81.94 478.27,-71.26 347.86,-67.45"/>
<polygon fill="#63b8ff" stroke="#63b8ff" points="347.59,-63.94 337.5,-67.15 347.39,-70.94 347.59,-63.94"/>
</g>
<!-- Node14&#45;&gt;Node7 -->
<g id="edge28" class="edge">
<title>Node14&#45;&gt;Node7</title>
<path fill="none" stroke="#63b8ff" d="M648.68,-164.98C627.16,-156.34 593.61,-142.87 569.06,-133.02"/>
<polygon fill="#63b8ff" stroke="#63b8ff" points="570.07,-129.65 559.48,-129.17 567.46,-136.14 570.07,-129.65"/>
</g>
<!-- Node14&#45;&gt;Node11 -->
<g id="edge26" class="edge">
<title>Node14&#45;&gt;Node11</title>
<path fill="none" stroke="#63b8ff" d="M671.37,-164.75C672.55,-157.8 674.24,-147.85 675.72,-139.13"/>
<polygon fill="#63b8ff" stroke="#63b8ff" points="679.21,-139.53 677.43,-129.09 672.3,-138.36 679.21,-139.53"/>
</g>
<!-- Node15&#45;&gt;Node6 -->
<g id="edge30" class="edge">
<title>Node15&#45;&gt;Node6</title>
<path fill="none" stroke="#63b8ff" d="M146.89,-164.75C146.89,-157.8 146.89,-147.85 146.89,-139.13"/>
<polygon fill="#63b8ff" stroke="#63b8ff" points="150.39,-139.09 146.89,-129.09 143.39,-139.09 150.39,-139.09"/>
</g>
<!-- Node16 -->
<g id="node16" class="node">
<title>Node16</title>
<g id="a_node16"><a xlink:title=" ">
<polygon fill="#e0e0e0" stroke="#999999" points="78.89,-129 22.89,-129 22.89,-110 78.89,-110 78.89,-129"/>
<text text-anchor="middle" x="50.89" y="-117" font-family="Helvetica,sans-Serif" font-size="10.00">stddef.h</text>
</a>
</g>
</g>
<!-- Node15&#45;&gt;Node16 -->
<g id="edge31" class="edge">
<title>Node15&#45;&gt;Node16</title>
<path fill="none" stroke="#63b8ff" d="M131.46,-164.98C116.44,-156.69 93.35,-143.94 75.73,-134.22"/>
<polygon fill="#63b8ff" stroke="#63b8ff" points="77.04,-130.94 66.59,-129.17 73.66,-137.07 77.04,-130.94"/>
</g>
</g>
</svg>
