<?xml version="1.0" encoding="UTF-8" standalone="no"?>
<!DOCTYPE svg PUBLIC "-//W3C//DTD SVG 1.1//EN"
 "http://www.w3.org/Graphics/SVG/1.1/DTD/svg11.dtd">
<!-- Generated by graphviz version 2.43.0 (0)
 -->
<!-- Title: src/general/utils/FMC_str_view.h Pages: 1 -->
<!--zoomable 313 -->
<svg id="main" version="1.1" xmlns="http://www.w3.org/2000/svg" xmlns:xlink="http://www.w3.org/1999/xlink" xml:space="preserve" onload="init(evt)">
<style type="text/css"><![CDATA[
.edge:hover path { stroke: red; }
.edge:hover polygon { stroke: red; fill: red; }
]]></style>
<script type="text/javascript"><![CDATA[
var edges = document.getElementsByTagName('g');
if (edges && edges.length) {
  for (var i=0;i<edges.length;i++) {
    if (edges[i].id.substr(0,4)=='edge') {
      edges[i].setAttribute('class','edge');
    }
  }
}
]]></script>
        <defs>
                <circle id="rim" cx="0" cy="0" r="7"/>
                <circle id="rim2" cx="0" cy="0" r="3.5"/>
                <g id="zoomPlus">
                        <use xlink:href="#rim" fill="#404040">
                                <set attributeName="fill" to="#808080" begin="zoomplus.mouseover" end="zoomplus.mouseout"/>
                        </use>
                        <path d="M-4,0h8M0,-4v8" fill="none" stroke="white" stroke-width="1.5" pointer-events="none"/>
                </g>
                <g id="zoomMin">
                        <use xlink:href="#rim" fill="#404040">
                                <set attributeName="fill" to="#808080" begin="zoomminus.mouseover" end="zoomminus.mouseout"/>
                        </use>
                        <path d="M-4,0h8" fill="none" stroke="white" stroke-width="1.5" pointer-events="none"/>
                </g>
                <g id="dirArrow">
                        <path fill="none" stroke="white" stroke-width="1.5" d="M0,-3.0v7 M-2.5,-0.5L0,-3.0L2.5,-0.5"/>
                </g>
               <g id="resetDef">
                       <use xlink:href="#rim2" fill="#404040">
                               <set attributeName="fill" to="#808080" begin="reset.mouseover" end="reset.mouseout"/>
                       </use>
               </g>
        </defs>

<script type="text/javascript">
var viewWidth = 963;
var viewHeight = 313;
var sectionId = 'dynsection-0';
</script>
<script xlink:href="../../svgpan.js"/>
<svg id="graph" class="graph">
<g id="viewport">
<title>src/general/utils/FMC_str_view.h</title>
<!-- Node1 -->
<g id="node1" class="node">
<title>Node1</title>
<g id="a_node1"><a xlink:title=" ">
<polygon fill="#999999" stroke="#666666" points="471.35,-305 352.35,-305 352.35,-275 471.35,-275 471.35,-305"/>
<text text-anchor="start" x="360.35" y="-293" font-family="Helvetica,sans-Serif" font-size="10.00">src/general/utils/FMC</text>
<text text-anchor="middle" x="411.85" y="-282" font-family="Helvetica,sans-Serif" font-size="10.00">_str_view.h</text>
</a>
</g>
</g>
<!-- Node2 -->
<g id="node2" class="node">
<title>Node2</title>
<g id="a_node2"><a xlink:href="../../d9/de1/FMC__general_8h.html" target="_top" xlink:title=" ">
<polygon fill="white" stroke="#666666" points="460.85,-239 362.85,-239 362.85,-220 460.85,-220 460.85,-239"/>
<text text-anchor="middle" x="411.85" y="-227" font-family="Helvetica,sans-Serif" font-size="10.00">../FMC_general.h</text>
</a>
</g>
</g>
<!-- Node1&#45;&gt;Node2 -->
<g id="edge1" class="edge">
<title>Node1&#45;&gt;Node2</title>
<path fill="none" stroke="#63b8ff" d="M405.97,-274.84C405,-267.21 404.84,-257.7 405.48,-249.45"/>
<polygon fill="#63b8ff" stroke="#63b8ff" points="408.99,-249.65 406.86,-239.27 402.05,-248.71 408.99,-249.65"/>
</g>
<!-- Node2&#45;&gt;Node1 -->
<g id="edge30" class="edge">
<title>Node2&#45;&gt;Node1</title>
<path fill="none" stroke="#63b8ff" d="M416.83,-239.27C418.27,-246.03 418.83,-255.72 418.51,-264.75"/>
<polygon fill="#63b8ff" stroke="#63b8ff" points="415.01,-264.6 417.73,-274.84 421.99,-265.14 415.01,-264.6"/>
</g>
<!-- Node3 -->
<g id="node3" class="node">
<title>Node3</title>
<g id="a_node3"><a xlink:href="../../d0/d28/FMC__macros_8h.html" target="_top" xlink:title=" ">
<polygon fill="white" stroke="#666666" points="426.35,-74 271.35,-74 271.35,-55 426.35,-55 426.35,-74"/>
<text text-anchor="middle" x="348.85" y="-62" font-family="Helvetica,sans-Serif" font-size="10.00">preprocessor/FMC_macros.h</text>
</a>
</g>
</g>
<!-- Node2&#45;&gt;Node3 -->
<g id="edge2" class="edge">
<title>Node2&#45;&gt;Node3</title>
<path fill="none" stroke="#63b8ff" d="M461.1,-227.98C577.64,-225.15 854.13,-208.2 765.85,-110 744.29,-86.02 552.88,-73.92 437.02,-68.74"/>
<polygon fill="#63b8ff" stroke="#63b8ff" points="436.88,-65.23 426.74,-68.29 436.58,-72.22 436.88,-65.23"/>
</g>
<!-- Node4 -->
<g id="node4" class="node">
<title>Node4</title>
<g id="a_node4"><a xlink:href="../../d7/dff/FMC__platform_8h.html" target="_top" xlink:title=" ">
<polygon fill="white" stroke="#666666" points="215.35,-19 120.35,-19 120.35,0 215.35,0 215.35,-19"/>
<text text-anchor="middle" x="167.85" y="-7" font-family="Helvetica,sans-Serif" font-size="10.00">FMC_platform.h</text>
</a>
</g>
</g>
<!-- Node2&#45;&gt;Node4 -->
<g id="edge6" class="edge">
<title>Node2&#45;&gt;Node4</title>
<path fill="none" stroke="#63b8ff" d="M362.77,-228.67C297.6,-227.38 179.9,-219.69 86.85,-184 46.22,-168.42 26.22,-167.45 5.85,-129 -23,-74.53 65.35,-38.76 122.72,-21.85"/>
<polygon fill="#63b8ff" stroke="#63b8ff" points="124.03,-25.12 132.69,-19.01 122.11,-18.39 124.03,-25.12"/>
</g>
<!-- Node6 -->
<g id="node6" class="node">
<title>Node6</title>
<g id="a_node6"><a xlink:href="../../da/dd3/FMC__consts_8h.html" target="_top" xlink:title=" ">
<polygon fill="white" stroke="#666666" points="526.85,-129 376.85,-129 376.85,-110 526.85,-110 526.85,-129"/>
<text text-anchor="middle" x="451.85" y="-117" font-family="Helvetica,sans-Serif" font-size="10.00">preprocessor/FMC_consts.h</text>
</a>
</g>
</g>
<!-- Node2&#45;&gt;Node6 -->
<g id="edge7" class="edge">
<title>Node2&#45;&gt;Node6</title>
<path fill="none" stroke="#63b8ff" d="M460.87,-225.16C489.22,-220.42 522.76,-209.37 540.85,-184 557.35,-160.85 524.07,-143.05 493.62,-132.27"/>
<polygon fill="#63b8ff" stroke="#63b8ff" points="494.49,-128.87 483.9,-129.01 492.27,-135.51 494.49,-128.87"/>
</g>
<!-- Node7 -->
<g id="node7" class="node">
<title>Node7</title>
<g id="a_node7"><a xlink:href="../../d5/de5/FMC__structs_8h.html" target="_top" xlink:title=" ">
<polygon fill="white" stroke="#666666" points="239.85,-184 123.85,-184 123.85,-165 239.85,-165 239.85,-184"/>
<text text-anchor="middle" x="181.85" y="-172" font-family="Helvetica,sans-Serif" font-size="10.00">types/FMC_structs.h</text>
</a>
</g>
</g>
<!-- Node2&#45;&gt;Node7 -->
<g id="edge8" class="edge">
<title>Node2&#45;&gt;Node7</title>
<path fill="none" stroke="#63b8ff" d="M374.89,-219.98C335.28,-210.86 272.26,-196.33 229.07,-186.38"/>
<polygon fill="#63b8ff" stroke="#63b8ff" points="229.62,-182.92 219.09,-184.08 228.05,-189.74 229.62,-182.92"/>
</g>
<!-- Node9 -->
<g id="node9" class="node">
<title>Node9</title>
<g id="a_node9"><a xlink:href="../../d6/d25/FMC__enums_8h.html" target="_top" xlink:title=" ">
<polygon fill="white" stroke="#666666" points="100.85,-129 14.85,-129 14.85,-110 100.85,-110 100.85,-129"/>
<text text-anchor="middle" x="57.85" y="-117" font-family="Helvetica,sans-Serif" font-size="10.00">FMC_enums.h</text>
</a>
</g>
</g>
<!-- Node2&#45;&gt;Node9 -->
<g id="edge18" class="edge">
<title>Node2&#45;&gt;Node9</title>
<path fill="none" stroke="#63b8ff" d="M362.82,-225.18C289.84,-219.57 156.74,-206.56 114.85,-184 94.95,-173.28 78.52,-152.78 68.5,-137.97"/>
<polygon fill="#63b8ff" stroke="#63b8ff" points="71.22,-135.73 62.86,-129.22 65.33,-139.52 71.22,-135.73"/>
</g>
<!-- Node10 -->
<g id="node10" class="node">
<title>Node10</title>
<g id="a_node10"><a xlink:href="../../df/df8/FMC__typedefs_8h.html" target="_top" xlink:title=" ">
<polygon fill="white" stroke="#666666" points="320.35,-129 225.35,-129 225.35,-110 320.35,-110 320.35,-129"/>
<text text-anchor="middle" x="272.85" y="-117" font-family="Helvetica,sans-Serif" font-size="10.00">FMC_typedefs.h</text>
</a>
</g>
</g>
<!-- Node2&#45;&gt;Node10 -->
<g id="edge17" class="edge">
<title>Node2&#45;&gt;Node10</title>
<path fill="none" stroke="#63b8ff" d="M362.63,-222.22C336.91,-216.43 306.89,-205.32 287.85,-184 277,-171.86 273.61,-153.33 272.71,-139.42"/>
<polygon fill="#63b8ff" stroke="#63b8ff" points="276.2,-138.96 272.45,-129.05 269.21,-139.14 276.2,-138.96"/>
</g>
<!-- Node11 -->
<g id="node11" class="node">
<title>Node11</title>
<g id="a_node11"><a xlink:href="../../d2/d5e/FMC__flags_8h.html" target="_top" xlink:title=" ">
<polygon fill="white" stroke="#666666" points="954.85,-184 812.85,-184 812.85,-165 954.85,-165 954.85,-184"/>
<text text-anchor="middle" x="883.85" y="-172" font-family="Helvetica,sans-Serif" font-size="10.00">preprocessor/FMC_flags.h</text>
</a>
</g>
</g>
<!-- Node2&#45;&gt;Node11 -->
<g id="edge16" class="edge">
<title>Node2&#45;&gt;Node11</title>
<path fill="none" stroke="#63b8ff" d="M461.02,-222.98C541.98,-213.89 704.12,-195.68 802.41,-184.64"/>
<polygon fill="#63b8ff" stroke="#63b8ff" points="803.06,-188.09 812.6,-183.5 802.27,-181.14 803.06,-188.09"/>
</g>
<!-- Node12 -->
<g id="node12" class="node">
<title>Node12</title>
<g id="a_node12"><a xlink:href="../../dd/ddf/FMC__errors_8h.html" target="_top" xlink:title=" ">
<polygon fill="white" stroke="#666666" points="401.35,-184 296.35,-184 296.35,-165 401.35,-165 401.35,-184"/>
<text text-anchor="middle" x="348.85" y="-172" font-family="Helvetica,sans-Serif" font-size="10.00">utils/FMC_errors.h</text>
</a>
</g>
</g>
<!-- Node2&#45;&gt;Node12 -->
<g id="edge19" class="edge">
<title>Node2&#45;&gt;Node12</title>
<path fill="none" stroke="#63b8ff" d="M401.73,-219.98C392.41,-212.15 378.38,-200.34 367.11,-190.86"/>
<polygon fill="#63b8ff" stroke="#63b8ff" points="369.06,-187.93 359.15,-184.17 364.55,-193.29 369.06,-187.93"/>
</g>
<!-- Node13 -->
<g id="node13" class="node">
<title>Node13</title>
<g id="a_node13"><a xlink:href="../../de/d86/FMC__globals_8h.html" target="_top" xlink:title=" ">
<polygon fill="white" stroke="#666666" points="531.85,-184 419.85,-184 419.85,-165 531.85,-165 531.85,-184"/>
<text text-anchor="middle" x="475.85" y="-172" font-family="Helvetica,sans-Serif" font-size="10.00">utils/FMC_globals.h</text>
</a>
</g>
</g>
<!-- Node2&#45;&gt;Node13 -->
<g id="edge23" class="edge">
<title>Node2&#45;&gt;Node13</title>
<path fill="none" stroke="#63b8ff" d="M422.13,-219.98C431.68,-212.07 446.13,-200.11 457.63,-190.58"/>
<polygon fill="#63b8ff" stroke="#63b8ff" points="459.91,-193.24 465.38,-184.17 455.44,-187.85 459.91,-193.24"/>
</g>
<!-- Node14 -->
<g id="node14" class="node">
<title>Node14</title>
<g id="a_node14"><a xlink:href="../../d4/d06/FMC__deprecated_8h.html" target="_top" xlink:title=" ">
<polygon fill="white" stroke="#666666" points="719.35,-184 588.35,-184 588.35,-165 719.35,-165 719.35,-184"/>
<text text-anchor="middle" x="653.85" y="-172" font-family="Helvetica,sans-Serif" font-size="10.00">utils/FMC_deprecated.h</text>
</a>
</g>
</g>
<!-- Node2&#45;&gt;Node14 -->
<g id="edge27" class="edge">
<title>Node2&#45;&gt;Node14</title>
<path fill="none" stroke="#63b8ff" d="M450.73,-219.98C492.59,-210.82 559.28,-196.21 604.73,-186.26"/>
<polygon fill="#63b8ff" stroke="#63b8ff" points="605.64,-189.64 614.66,-184.08 604.14,-182.8 605.64,-189.64"/>
</g>
<!-- Node3&#45;&gt;Node4 -->
<g id="edge3" class="edge">
<title>Node3&#45;&gt;Node4</title>
<path fill="none" stroke="#63b8ff" d="M319.77,-54.98C289.25,-46.05 241.08,-31.94 207.18,-22.02"/>
<polygon fill="#63b8ff" stroke="#63b8ff" points="207.74,-18.53 197.16,-19.08 205.77,-25.25 207.74,-18.53"/>
</g>
<!-- Node5 -->
<g id="node5" class="node">
<title>Node5</title>
<g id="a_node5"><a xlink:href="../../d1/d2e/FMC__attributes_8h.html" target="_top" xlink:title=" ">
<polygon fill="white" stroke="#666666" points="756.85,-129 656.85,-129 656.85,-110 756.85,-110 756.85,-129"/>
<text text-anchor="middle" x="706.85" y="-117" font-family="Helvetica,sans-Serif" font-size="10.00">FMC_attributes.h</text>
</a>
</g>
</g>
<!-- Node3&#45;&gt;Node5 -->
<g id="edge4" class="edge">
<title>Node3&#45;&gt;Node5</title>
<path fill="none" stroke="#63b8ff" d="M411.55,-74.03C477.78,-83.52 581.31,-98.84 646.59,-108.79"/>
<polygon fill="#63b8ff" stroke="#63b8ff" points="646.32,-112.28 656.73,-110.33 647.37,-105.36 646.32,-112.28"/>
</g>
<!-- Node5&#45;&gt;Node3 -->
<g id="edge5" class="edge">
<title>Node5&#45;&gt;Node3</title>
<path fill="none" stroke="#63b8ff" d="M656.83,-111.79C592.57,-102.64 481.18,-86.19 411.39,-75.56"/>
<polygon fill="#63b8ff" stroke="#63b8ff" points="411.82,-72.09 401.41,-74.04 410.77,-79.01 411.82,-72.09"/>
</g>
<!-- Node7&#45;&gt;Node3 -->
<g id="edge11" class="edge">
<title>Node7&#45;&gt;Node3</title>
<path fill="none" stroke="#63b8ff" d="M170.91,-164.67C156.29,-151.82 133.76,-127.55 147.85,-110 162.39,-91.88 214,-80.69 261.28,-74.06"/>
<polygon fill="#63b8ff" stroke="#63b8ff" points="261.84,-77.52 271.28,-72.72 260.91,-70.58 261.84,-77.52"/>
</g>
<!-- Node7&#45;&gt;Node6 -->
<g id="edge10" class="edge">
<title>Node7&#45;&gt;Node6</title>
<path fill="none" stroke="#63b8ff" d="M225.23,-164.98C272.23,-155.76 347.27,-141.03 398.01,-131.07"/>
<polygon fill="#63b8ff" stroke="#63b8ff" points="398.99,-134.44 408.13,-129.08 397.64,-127.57 398.99,-134.44"/>
</g>
<!-- Node8 -->
<g id="node8" class="node">
<title>Node8</title>
<g id="a_node8"><a xlink:title=" ">
<polygon fill="#e0e0e0" stroke="#999999" points="206.85,-129 156.85,-129 156.85,-110 206.85,-110 206.85,-129"/>
<text text-anchor="middle" x="181.85" y="-117" font-family="Helvetica,sans-Serif" font-size="10.00">stdio.h</text>
</a>
</g>
</g>
<!-- Node7&#45;&gt;Node8 -->
<g id="edge9" class="edge">
<title>Node7&#45;&gt;Node8</title>
<path fill="none" stroke="#63b8ff" d="M181.85,-164.75C181.85,-157.8 181.85,-147.85 181.85,-139.13"/>
<polygon fill="#63b8ff" stroke="#63b8ff" points="185.35,-139.09 181.85,-129.09 178.35,-139.09 185.35,-139.09"/>
</g>
<!-- Node7&#45;&gt;Node9 -->
<g id="edge12" class="edge">
<title>Node7&#45;&gt;Node9</title>
<path fill="none" stroke="#63b8ff" d="M161.93,-164.98C141.8,-156.38 110.47,-142.99 87.44,-133.15"/>
<polygon fill="#63b8ff" stroke="#63b8ff" points="88.7,-129.88 78.13,-129.17 85.95,-136.32 88.7,-129.88"/>
</g>
<!-- Node7&#45;&gt;Node10 -->
<g id="edge14" class="edge">
<title>Node7&#45;&gt;Node10</title>
<path fill="none" stroke="#63b8ff" d="M196.47,-164.98C210.71,-156.69 232.6,-143.94 249.3,-134.22"/>
<polygon fill="#63b8ff" stroke="#63b8ff" points="251.08,-137.23 257.96,-129.17 247.56,-131.18 251.08,-137.23"/>
</g>
<!-- Node9&#45;&gt;Node3 -->
<g id="edge13" class="edge">
<title>Node9&#45;&gt;Node3</title>
<path fill="none" stroke="#63b8ff" d="M101.1,-110.62C151.78,-101.39 235.92,-86.07 291.87,-75.88"/>
<polygon fill="#63b8ff" stroke="#63b8ff" points="292.77,-79.27 301.98,-74.04 291.52,-72.38 292.77,-79.27"/>
</g>
<!-- Node10&#45;&gt;Node3 -->
<g id="edge15" class="edge">
<title>Node10&#45;&gt;Node3</title>
<path fill="none" stroke="#63b8ff" d="M285.06,-109.98C296.62,-101.92 314.22,-89.65 328.01,-80.03"/>
<polygon fill="#63b8ff" stroke="#63b8ff" points="330.21,-82.76 336.42,-74.17 326.21,-77.02 330.21,-82.76"/>
</g>
<!-- Node12&#45;&gt;Node3 -->
<g id="edge22" class="edge">
<title>Node12&#45;&gt;Node3</title>
<path fill="none" stroke="#63b8ff" d="M348.85,-164.66C348.85,-147.17 348.85,-107.8 348.85,-84.27"/>
<polygon fill="#63b8ff" stroke="#63b8ff" points="352.35,-84.16 348.85,-74.16 345.35,-84.16 352.35,-84.16"/>
</g>
<!-- Node12&#45;&gt;Node6 -->
<g id="edge21" class="edge">
<title>Node12&#45;&gt;Node6</title>
<path fill="none" stroke="#63b8ff" d="M365.4,-164.98C381.74,-156.57 406.98,-143.59 425.98,-133.81"/>
<polygon fill="#63b8ff" stroke="#63b8ff" points="427.71,-136.86 435,-129.17 424.5,-130.63 427.71,-136.86"/>
</g>
<!-- Node12&#45;&gt;Node8 -->
<g id="edge20" class="edge">
<title>Node12&#45;&gt;Node8</title>
<path fill="none" stroke="#63b8ff" d="M322.02,-164.98C293.4,-155.9 247.96,-141.48 216.62,-131.53"/>
<polygon fill="#63b8ff" stroke="#63b8ff" points="217.56,-128.16 206.97,-128.47 215.45,-134.84 217.56,-128.16"/>
</g>
<!-- Node13&#45;&gt;Node3 -->
<g id="edge25" class="edge">
<title>Node13&#45;&gt;Node3</title>
<path fill="none" stroke="#63b8ff" d="M494.61,-164.91C517.83,-153.11 552.4,-130.95 535.85,-110 522.85,-93.54 477.52,-82.52 434.76,-75.56"/>
<polygon fill="#63b8ff" stroke="#63b8ff" points="435.24,-72.09 424.82,-74 434.16,-79.01 435.24,-72.09"/>
</g>
<!-- Node13&#45;&gt;Node6 -->
<g id="edge26" class="edge">
<title>Node13&#45;&gt;Node6</title>
<path fill="none" stroke="#63b8ff" d="M471.89,-164.75C468.63,-157.57 463.93,-147.18 459.89,-138.27"/>
<polygon fill="#63b8ff" stroke="#63b8ff" points="463.05,-136.75 455.74,-129.09 456.67,-139.64 463.05,-136.75"/>
</g>
<!-- Node13&#45;&gt;Node10 -->
<g id="edge24" class="edge">
<title>Node13&#45;&gt;Node10</title>
<path fill="none" stroke="#63b8ff" d="M443.23,-164.98C408.56,-155.93 353.59,-141.58 315.5,-131.64"/>
<polygon fill="#63b8ff" stroke="#63b8ff" points="316.28,-128.22 305.72,-129.08 314.51,-134.99 316.28,-128.22"/>
</g>
<!-- Node14&#45;&gt;Node5 -->
<g id="edge28" class="edge">
<title>Node14&#45;&gt;Node5</title>
<path fill="none" stroke="#63b8ff" d="M662.6,-164.75C670.32,-157.03 681.75,-145.6 691.06,-136.28"/>
<polygon fill="#63b8ff" stroke="#63b8ff" points="693.66,-138.64 698.26,-129.09 688.71,-133.69 693.66,-138.64"/>
</g>
<!-- Node15 -->
<g id="node15" class="node">
<title>Node15</title>
<g id="a_node15"><a xlink:title=" ">
<polygon fill="#e0e0e0" stroke="#999999" points="638.85,-129 582.85,-129 582.85,-110 638.85,-110 638.85,-129"/>
<text text-anchor="middle" x="610.85" y="-117" font-family="Helvetica,sans-Serif" font-size="10.00">stddef.h</text>
</a>
</g>
</g>
<!-- Node14&#45;&gt;Node15 -->
<g id="edge29" class="edge">
<title>Node14&#45;&gt;Node15</title>
<path fill="none" stroke="#63b8ff" d="M646.75,-164.75C640.67,-157.26 631.76,-146.28 624.34,-137.13"/>
<polygon fill="#63b8ff" stroke="#63b8ff" points="626.83,-134.65 617.82,-129.09 621.4,-139.06 626.83,-134.65"/>
</g>
</g>
</svg>
        <g id="navigator" transform="translate(0 0)" fill="#404254">
                <rect fill="#f2f5e9" fill-opacity="0.5" stroke="#606060" stroke-width=".5" x="0" y="0" width="60" height="60"/>
                <use id="zoomplus" xlink:href="#zoomPlus" x="17" y="9" onmousedown="handleZoom(evt,'in')"/>
                <use id="zoomminus" xlink:href="#zoomMin" x="42" y="9" onmousedown="handleZoom(evt,'out')"/>
                <use id="reset" xlink:href="#resetDef" x="30" y="36" onmousedown="handleReset()"/>
                <g id="arrowUp" xlink:href="#dirArrow" transform="translate(30 24)" onmousedown="handlePan(0,-1)">
                  <use xlink:href="#rim" fill="#404040">
                        <set attributeName="fill" to="#808080" begin="arrowUp.mouseover" end="arrowUp.mouseout"/>
                  </use>
                  <path fill="none" stroke="white" stroke-width="1.5" d="M0,-3.0v7 M-2.5,-0.5L0,-3.0L2.5,-0.5"/>
                </g>
                <g id="arrowRight" xlink:href="#dirArrow" transform="rotate(90) translate(36 -43)" onmousedown="handlePan(1,0)">
                  <use xlink:href="#rim" fill="#404040">
                        <set attributeName="fill" to="#808080" begin="arrowRight.mouseover" end="arrowRight.mouseout"/>
                  </use>
                  <path fill="none" stroke="white" stroke-width="1.5" d="M0,-3.0v7 M-2.5,-0.5L0,-3.0L2.5,-0.5"/>
                </g>
                <g id="arrowDown" xlink:href="#dirArrow" transform="rotate(180) translate(-30 -48)" onmousedown="handlePan(0,1)">
                  <use xlink:href="#rim" fill="#404040">
                        <set attributeName="fill" to="#808080" begin="arrowDown.mouseover" end="arrowDown.mouseout"/>
                  </use>
                  <path fill="none" stroke="white" stroke-width="1.5" d="M0,-3.0v7 M-2.5,-0.5L0,-3.0L2.5,-0.5"/>
                </g>
                <g id="arrowLeft" xlink:href="#dirArrow" transform="rotate(270) translate(-36 17)" onmousedown="handlePan(-1,0)">
                  <use xlink:href="#rim" fill="#404040">
                        <set attributeName="fill" to="#808080" begin="arrowLeft.mouseover" end="arrowLeft.mouseout"/>
                  </use>
                  <path fill="none" stroke="white" stroke-width="1.5" d="M0,-3.0v7 M-2.5,-0.5L0,-3.0L2.5,-0.5"/>
                </g>
        </g>
        <svg viewBox="0 0 15 15" width="100%" height="30px" preserveAspectRatio="xMaxYMin meet">
         <g id="arrow_out" transform="scale(0.3 0.3)">
          <a xlink:href="FMC__str__view_8h__incl_org.svg" target="_base">
           <rect id="button" ry="5" rx="5" y="6" x="6" height="38" width="38"
                fill="#f2f5e9" fill-opacity="0.5" stroke="#606060" stroke-width="1.0"/>
           <path id="arrow"
             d="M 11.500037,31.436501 C 11.940474,20.09759 22.043105,11.32322 32.158766,21.979434 L 37.068811,17.246167 C 37.068811,17.246167 37.088388,32 37.088388,32 L 22.160133,31.978069 C 22.160133,31.978069 26.997745,27.140456 26.997745,27.140456 C 18.528582,18.264221 13.291696,25.230495 11.500037,31.436501 z"
             style="fill:#404040;"/>
          </a>
         </g>
        </svg>
</svg>
