<?xml version="1.0" encoding="UTF-8" standalone="no"?>
<!DOCTYPE svg PUBLIC "-//W3C//DTD SVG 1.1//EN"
 "http://www.w3.org/Graphics/SVG/1.1/DTD/svg11.dtd">
<!-- Generated by graphviz version 2.43.0 (0)
 -->
<!-- Title: src/general/preprocessor/FMC_attributes.h Pages: 1 -->
<svg width="919pt" height="478pt"
 viewBox="0.00 0.00 918.50 478.00" xmlns="http://www.w3.org/2000/svg" xmlns:xlink="http://www.w3.org/1999/xlink">
<g id="graph0" class="graph" transform="scale(1 1) rotate(0) translate(4 474)">
<title>src/general/preprocessor/FMC_attributes.h</title>
<!-- Node1 -->
<g id="node1" class="node">
<title>Node1</title>
<g id="a_node1"><a xlink:title=" ">
<polygon fill="#999999" stroke="#666666" points="471.5,-470 334.5,-470 334.5,-440 471.5,-440 471.5,-470"/>
<text text-anchor="start" x="342.5" y="-458" font-family="Helvetica,sans-Serif" font-size="10.00">src/general/preprocessor</text>
<text text-anchor="middle" x="403" y="-447" font-family="Helvetica,sans-Serif" font-size="10.00">/FMC_attributes.h</text>
</a>
</g>
</g>
<!-- Node2 -->
<g id="node2" class="node">
<title>Node2</title>
<g id="a_node2"><a xlink:href="../../d0/d28/FMC__macros_8h.html" target="_top" xlink:title=" ">
<polygon fill="white" stroke="#666666" points="471.5,-404 334.5,-404 334.5,-374 471.5,-374 471.5,-404"/>
<text text-anchor="start" x="342.5" y="-392" font-family="Helvetica,sans-Serif" font-size="10.00">src/general/preprocessor</text>
<text text-anchor="middle" x="403" y="-381" font-family="Helvetica,sans-Serif" font-size="10.00">/FMC_macros.h</text>
</a>
</g>
</g>
<!-- Node1&#45;&gt;Node2 -->
<g id="edge1" class="edge">
<title>Node1&#45;&gt;Node2</title>
<path fill="none" stroke="#63b8ff" d="M396.43,-429.83C396.02,-421.17 396.31,-411.7 397.29,-404.16"/>
<polygon fill="#63b8ff" stroke="#63b8ff" points="392.95,-430.13 397.28,-439.8 399.92,-429.54 392.95,-430.13"/>
</g>
<!-- Node22 -->
<g id="node22" class="node">
<title>Node22</title>
<g id="a_node22"><a xlink:href="../../d4/d06/FMC__deprecated_8h.html" target="_top" xlink:title=" ">
<polygon fill="white" stroke="#666666" points="707.5,-404 588.5,-404 588.5,-374 707.5,-374 707.5,-404"/>
<text text-anchor="start" x="596.5" y="-392" font-family="Helvetica,sans-Serif" font-size="10.00">src/general/utils/FMC</text>
<text text-anchor="middle" x="648" y="-381" font-family="Helvetica,sans-Serif" font-size="10.00">_deprecated.h</text>
</a>
</g>
</g>
<!-- Node1&#45;&gt;Node22 -->
<g id="edge35" class="edge">
<title>Node1&#45;&gt;Node22</title>
<path fill="none" stroke="#63b8ff" d="M466.6,-437.39C506.26,-427.03 556.73,-413.84 594.36,-404.01"/>
<polygon fill="#63b8ff" stroke="#63b8ff" points="465.56,-434.04 456.77,-439.95 467.33,-440.81 465.56,-434.04"/>
</g>
<!-- Node2&#45;&gt;Node1 -->
<g id="edge20" class="edge">
<title>Node2&#45;&gt;Node1</title>
<path fill="none" stroke="#63b8ff" d="M409.57,-414.13C409.98,-422.78 409.7,-432.26 408.72,-439.8"/>
<polygon fill="#63b8ff" stroke="#63b8ff" points="413.05,-413.83 408.71,-404.16 406.08,-414.43 413.05,-413.83"/>
</g>
<!-- Node3 -->
<g id="node3" class="node">
<title>Node3</title>
<g id="a_node3"><a xlink:href="../../d4/db9/FMC__wrapper_8h.html" target="_top" xlink:title=" ">
<polygon fill="white" stroke="#666666" points="147.5,-332.5 18.5,-332.5 18.5,-313.5 147.5,-313.5 147.5,-332.5"/>
<text text-anchor="middle" x="83" y="-320.5" font-family="Helvetica,sans-Serif" font-size="10.00">src/cpp/FMC_wrapper.h</text>
</a>
</g>
</g>
<!-- Node2&#45;&gt;Node3 -->
<g id="edge2" class="edge">
<title>Node2&#45;&gt;Node3</title>
<path fill="none" stroke="#63b8ff" d="M324.49,-372.3C261.74,-359.75 176.19,-342.64 125.56,-332.51"/>
<polygon fill="#63b8ff" stroke="#63b8ff" points="323.86,-375.74 334.35,-374.27 325.23,-368.88 323.86,-375.74"/>
</g>
<!-- Node6 -->
<g id="node6" class="node">
<title>Node6</title>
<g id="a_node6"><a xlink:href="../../d9/de1/FMC__general_8h.html" target="_top" xlink:title=" ">
<polygon fill="white" stroke="#666666" points="423,-206 277,-206 277,-187 423,-187 423,-206"/>
<text text-anchor="middle" x="350" y="-194" font-family="Helvetica,sans-Serif" font-size="10.00">src/general/FMC_general.h</text>
</a>
</g>
</g>
<!-- Node2&#45;&gt;Node6 -->
<g id="edge5" class="edge">
<title>Node2&#45;&gt;Node6</title>
<path fill="none" stroke="#63b8ff" d="M324.51,-379.23C272.59,-371.63 211.2,-358.55 195,-338 173.45,-310.66 216.25,-249.2 224,-242 244.15,-223.3 272.64,-212.38 297.44,-206.04"/>
<polygon fill="#63b8ff" stroke="#63b8ff" points="324.02,-382.7 334.42,-380.63 325.01,-375.77 324.02,-382.7"/>
</g>
<!-- Node16 -->
<g id="node16" class="node">
<title>Node16</title>
<g id="a_node16"><a xlink:href="../../d6/d25/FMC__enums_8h.html" target="_top" xlink:title=" ">
<polygon fill="white" stroke="#666666" points="329.5,-338 204.5,-338 204.5,-308 329.5,-308 329.5,-338"/>
<text text-anchor="start" x="212.5" y="-326" font-family="Helvetica,sans-Serif" font-size="10.00">src/general/types/FMC</text>
<text text-anchor="middle" x="267" y="-315" font-family="Helvetica,sans-Serif" font-size="10.00">_enums.h</text>
</a>
</g>
</g>
<!-- Node2&#45;&gt;Node16 -->
<g id="edge21" class="edge">
<title>Node2&#45;&gt;Node16</title>
<path fill="none" stroke="#63b8ff" d="M364,-369.65C342.61,-359.58 316.51,-347.3 296.78,-338.01"/>
<polygon fill="#63b8ff" stroke="#63b8ff" points="362.62,-372.86 373.15,-373.95 365.6,-366.53 362.62,-372.86"/>
</g>
<!-- Node17 -->
<g id="node17" class="node">
<title>Node17</title>
<g id="a_node17"><a xlink:href="../../d5/de5/FMC__structs_8h.html" target="_top" xlink:title=" ">
<polygon fill="white" stroke="#666666" points="367.5,-272 242.5,-272 242.5,-242 367.5,-242 367.5,-272"/>
<text text-anchor="start" x="250.5" y="-260" font-family="Helvetica,sans-Serif" font-size="10.00">src/general/types/FMC</text>
<text text-anchor="middle" x="305" y="-249" font-family="Helvetica,sans-Serif" font-size="10.00">_structs.h</text>
</a>
</g>
</g>
<!-- Node2&#45;&gt;Node17 -->
<g id="edge25" class="edge">
<title>Node2&#45;&gt;Node17</title>
<path fill="none" stroke="#63b8ff" d="M386.26,-365.8C366.05,-338.99 332.66,-294.7 315.66,-272.14"/>
<polygon fill="#63b8ff" stroke="#63b8ff" points="383.51,-367.96 392.33,-373.84 389.1,-363.75 383.51,-367.96"/>
</g>
<!-- Node18 -->
<g id="node18" class="node">
<title>Node18</title>
<g id="a_node18"><a xlink:href="../../df/df8/FMC__typedefs_8h.html" target="_top" xlink:title=" ">
<polygon fill="white" stroke="#666666" points="511.5,-338 386.5,-338 386.5,-308 511.5,-308 511.5,-338"/>
<text text-anchor="start" x="394.5" y="-326" font-family="Helvetica,sans-Serif" font-size="10.00">src/general/types/FMC</text>
<text text-anchor="middle" x="449" y="-315" font-family="Helvetica,sans-Serif" font-size="10.00">_typedefs.h</text>
</a>
</g>
</g>
<!-- Node2&#45;&gt;Node18 -->
<g id="edge26" class="edge">
<title>Node2&#45;&gt;Node18</title>
<path fill="none" stroke="#63b8ff" d="M419.15,-365.53C425.69,-356.43 433.05,-346.19 438.82,-338.16"/>
<polygon fill="#63b8ff" stroke="#63b8ff" points="416.2,-363.63 413.21,-373.8 421.89,-367.72 416.2,-363.63"/>
</g>
<!-- Node20 -->
<g id="node20" class="node">
<title>Node20</title>
<g id="a_node20"><a xlink:href="../../de/dab/FMC__errors_8c.html" target="_top" xlink:title=" ">
<polygon fill="white" stroke="#666666" points="680.5,-272 561.5,-272 561.5,-242 680.5,-242 680.5,-272"/>
<text text-anchor="start" x="569.5" y="-260" font-family="Helvetica,sans-Serif" font-size="10.00">src/general/utils/FMC</text>
<text text-anchor="middle" x="621" y="-249" font-family="Helvetica,sans-Serif" font-size="10.00">_errors.c</text>
</a>
</g>
</g>
<!-- Node2&#45;&gt;Node20 -->
<g id="edge31" class="edge">
<title>Node2&#45;&gt;Node20</title>
<path fill="none" stroke="#63b8ff" d="M452.56,-370.22C473.94,-361.69 498.85,-350.59 520,-338 524.47,-335.34 575.76,-294.31 603.48,-272.08"/>
<polygon fill="#63b8ff" stroke="#63b8ff" points="451.05,-367.05 443.01,-373.95 453.59,-373.57 451.05,-367.05"/>
</g>
<!-- Node21 -->
<g id="node21" class="node">
<title>Node21</title>
<g id="a_node21"><a xlink:href="../../dd/ddf/FMC__errors_8h.html" target="_top" xlink:title=" ">
<polygon fill="white" stroke="#666666" points="687.5,-338 568.5,-338 568.5,-308 687.5,-308 687.5,-338"/>
<text text-anchor="start" x="576.5" y="-326" font-family="Helvetica,sans-Serif" font-size="10.00">src/general/utils/FMC</text>
<text text-anchor="middle" x="628" y="-315" font-family="Helvetica,sans-Serif" font-size="10.00">_errors.h</text>
</a>
</g>
</g>
<!-- Node2&#45;&gt;Node21 -->
<g id="edge32" class="edge">
<title>Node2&#45;&gt;Node21</title>
<path fill="none" stroke="#63b8ff" d="M462.34,-371.12C498.62,-360.8 544.47,-347.76 578.74,-338.01"/>
<polygon fill="#63b8ff" stroke="#63b8ff" points="461.04,-367.85 452.38,-373.95 462.95,-374.59 461.04,-367.85"/>
</g>
<!-- Node4 -->
<g id="node4" class="node">
<title>Node4</title>
<g id="a_node4"><a xlink:href="../../de/d47/FMC_8h.html" target="_top" xlink:title=" ">
<polygon fill="white" stroke="#666666" points="160.5,-19 95.5,-19 95.5,0 160.5,0 160.5,-19"/>
<text text-anchor="middle" x="128" y="-7" font-family="Helvetica,sans-Serif" font-size="10.00">src/FMC.h</text>
</a>
</g>
</g>
<!-- Node3&#45;&gt;Node4 -->
<g id="edge3" class="edge">
<title>Node3&#45;&gt;Node4</title>
<path fill="none" stroke="#63b8ff" d="M57.75,-307.91C44.36,-299.21 28.71,-286.87 19,-272 0.31,-243.39 0,-231.67 0,-197.5 0,-197.5 0,-197.5 0,-135 0,-75.79 71.25,-35.63 107.43,-19.05"/>
<polygon fill="#63b8ff" stroke="#63b8ff" points="56.21,-311.07 66.56,-313.34 59.88,-305.11 56.21,-311.07"/>
</g>
<!-- Node5 -->
<g id="node5" class="node">
<title>Node5</title>
<g id="a_node5"><a xlink:href="../../dd/d0d/FMC__dir__wrapper_8cpp.html" target="_top" xlink:title=" ">
<polygon fill="white" stroke="#666666" points="147.5,-272 28.5,-272 28.5,-242 147.5,-242 147.5,-272"/>
<text text-anchor="start" x="36.5" y="-260" font-family="Helvetica,sans-Serif" font-size="10.00">src/cpp/FMC_dir/FMC</text>
<text text-anchor="middle" x="88" y="-249" font-family="Helvetica,sans-Serif" font-size="10.00">_dir_wrapper.cpp</text>
</a>
</g>
</g>
<!-- Node3&#45;&gt;Node5 -->
<g id="edge4" class="edge">
<title>Node3&#45;&gt;Node5</title>
<path fill="none" stroke="#63b8ff" d="M84.46,-303.35C85.23,-293.47 86.16,-281.51 86.88,-272.36"/>
<polygon fill="#63b8ff" stroke="#63b8ff" points="80.96,-303.13 83.67,-313.37 87.94,-303.67 80.96,-303.13"/>
</g>
<!-- Node6&#45;&gt;Node4 -->
<g id="edge6" class="edge">
<title>Node6&#45;&gt;Node4</title>
<path fill="none" stroke="#63b8ff" d="M266.99,-190.44C208.63,-184.95 137.74,-173.7 119,-151 86.63,-111.8 112.8,-43.55 123.76,-19.33"/>
<polygon fill="#63b8ff" stroke="#63b8ff" points="266.71,-193.93 276.98,-191.34 267.33,-186.96 266.71,-193.93"/>
</g>
<!-- Node7 -->
<g id="node7" class="node">
<title>Node7</title>
<g id="a_node7"><a xlink:href="../../db/d26/FMC__code__utils_8h.html" target="_top" xlink:title=" ">
<polygon fill="white" stroke="#666666" points="236,-151 128,-151 128,-121 236,-121 236,-151"/>
<text text-anchor="start" x="136" y="-139" font-family="Helvetica,sans-Serif" font-size="10.00">src/code_utils/FMC</text>
<text text-anchor="middle" x="182" y="-128" font-family="Helvetica,sans-Serif" font-size="10.00">_code_utils.h</text>
</a>
</g>
</g>
<!-- Node6&#45;&gt;Node7 -->
<g id="edge7" class="edge">
<title>Node6&#45;&gt;Node7</title>
<path fill="none" stroke="#63b8ff" d="M315.78,-183.58C288.73,-174.16 250.92,-161 222.39,-151.06"/>
<polygon fill="#63b8ff" stroke="#63b8ff" points="314.98,-187.01 325.57,-186.99 317.28,-180.4 314.98,-187.01"/>
</g>
<!-- Node8 -->
<g id="node8" class="node">
<title>Node8</title>
<g id="a_node8"><a xlink:href="../../db/d30/FMC__encodings_8h.html" target="_top" xlink:title=" ">
<polygon fill="white" stroke="#666666" points="413,-151 261,-151 261,-121 413,-121 413,-151"/>
<text text-anchor="start" x="269" y="-139" font-family="Helvetica,sans-Serif" font-size="10.00">src/data_analyze/encodings</text>
<text text-anchor="middle" x="337" y="-128" font-family="Helvetica,sans-Serif" font-size="10.00">/FMC_encodings.h</text>
</a>
</g>
</g>
<!-- Node6&#45;&gt;Node8 -->
<g id="edge9" class="edge">
<title>Node6&#45;&gt;Node8</title>
<path fill="none" stroke="#63b8ff" d="M345.87,-176.93C344.02,-168.58 341.86,-158.87 340.14,-151.11"/>
<polygon fill="#63b8ff" stroke="#63b8ff" points="342.5,-177.87 348.08,-186.87 349.33,-176.35 342.5,-177.87"/>
</g>
<!-- Node11 -->
<g id="node11" class="node">
<title>Node11</title>
<g id="a_node11"><a xlink:href="../../d9/db5/FMC__strings_8h.html" target="_top" xlink:title=" ">
<polygon fill="white" stroke="#666666" points="566.5,-151 431.5,-151 431.5,-121 566.5,-121 566.5,-151"/>
<text text-anchor="start" x="439.5" y="-139" font-family="Helvetica,sans-Serif" font-size="10.00">src/data_analyze/strings</text>
<text text-anchor="middle" x="499" y="-128" font-family="Helvetica,sans-Serif" font-size="10.00">/FMC_strings.h</text>
</a>
</g>
</g>
<!-- Node6&#45;&gt;Node11 -->
<g id="edge13" class="edge">
<title>Node6&#45;&gt;Node11</title>
<path fill="none" stroke="#63b8ff" d="M380.99,-183.33C404.93,-173.93 438.1,-160.91 463.18,-151.06"/>
<polygon fill="#63b8ff" stroke="#63b8ff" points="379.7,-180.08 371.67,-186.99 382.25,-186.6 379.7,-180.08"/>
</g>
<!-- Node13 -->
<g id="node13" class="node">
<title>Node13</title>
<g id="a_node13"><a xlink:href="../../d2/deb/FMC__file__management_8h.html" target="_top" xlink:title=" ">
<polygon fill="white" stroke="#666666" points="687.5,-151 588.5,-151 588.5,-121 687.5,-121 687.5,-151"/>
<text text-anchor="start" x="596.5" y="-139" font-family="Helvetica,sans-Serif" font-size="10.00">src/files/FMC_file</text>
<text text-anchor="middle" x="638" y="-128" font-family="Helvetica,sans-Serif" font-size="10.00">_management.h</text>
</a>
</g>
</g>
<!-- Node6&#45;&gt;Node13 -->
<g id="edge16" class="edge">
<title>Node6&#45;&gt;Node13</title>
<path fill="none" stroke="#63b8ff" d="M404.86,-185.02C450.46,-176.22 517.03,-163.17 575,-151 579.28,-150.1 583.71,-149.15 588.16,-148.19"/>
<polygon fill="#63b8ff" stroke="#63b8ff" points="404.04,-181.61 394.89,-186.94 405.37,-188.49 404.04,-181.61"/>
</g>
<!-- Node7&#45;&gt;Node4 -->
<g id="edge8" class="edge">
<title>Node7&#45;&gt;Node4</title>
<path fill="none" stroke="#63b8ff" d="M163.94,-112.89C157.84,-104.55 151.46,-94.72 147,-85 136.65,-62.44 131.31,-33.33 129.16,-19.1"/>
<polygon fill="#63b8ff" stroke="#63b8ff" points="161.26,-115.14 170.1,-120.97 166.83,-110.9 161.26,-115.14"/>
</g>
<!-- Node9 -->
<g id="node9" class="node">
<title>Node9</title>
<g id="a_node9"><a xlink:href="../../da/db0/FMC__data__analyze_8h.html" target="_top" xlink:title=" ">
<polygon fill="white" stroke="#666666" points="450,-85 326,-85 326,-55 450,-55 450,-85"/>
<text text-anchor="start" x="334" y="-73" font-family="Helvetica,sans-Serif" font-size="10.00">src/data_analyze/FMC</text>
<text text-anchor="middle" x="388" y="-62" font-family="Helvetica,sans-Serif" font-size="10.00">_data_analyze.h</text>
</a>
</g>
</g>
<!-- Node8&#45;&gt;Node9 -->
<g id="edge10" class="edge">
<title>Node8&#45;&gt;Node9</title>
<path fill="none" stroke="#63b8ff" d="M354.68,-112.81C361.99,-103.64 370.25,-93.28 376.71,-85.16"/>
<polygon fill="#63b8ff" stroke="#63b8ff" points="351.81,-110.79 348.32,-120.8 357.29,-115.16 351.81,-110.79"/>
</g>
<!-- Node10 -->
<g id="node10" class="node">
<title>Node10</title>
<g id="a_node10"><a xlink:href="../../db/dc4/FMC__encodings_8c.html" target="_top" xlink:title=" ">
<polygon fill="white" stroke="#666666" points="308,-85 156,-85 156,-55 308,-55 308,-85"/>
<text text-anchor="start" x="164" y="-73" font-family="Helvetica,sans-Serif" font-size="10.00">src/data_analyze/encodings</text>
<text text-anchor="middle" x="232" y="-62" font-family="Helvetica,sans-Serif" font-size="10.00">/FMC_encodings.c</text>
</a>
</g>
</g>
<!-- Node8&#45;&gt;Node10 -->
<g id="edge12" class="edge">
<title>Node8&#45;&gt;Node10</title>
<path fill="none" stroke="#63b8ff" d="M305.33,-115.69C289.12,-105.82 269.75,-94.01 254.99,-85.01"/>
<polygon fill="#63b8ff" stroke="#63b8ff" points="303.6,-118.74 313.96,-120.95 307.24,-112.76 303.6,-118.74"/>
</g>
<!-- Node9&#45;&gt;Node4 -->
<g id="edge11" class="edge">
<title>Node9&#45;&gt;Node4</title>
<path fill="none" stroke="#63b8ff" d="M315.78,-52.75C265.04,-41.33 199.56,-26.6 160.84,-17.89"/>
<polygon fill="#63b8ff" stroke="#63b8ff" points="315.2,-56.21 325.72,-54.99 316.74,-49.38 315.2,-56.21"/>
</g>
<!-- Node11&#45;&gt;Node9 -->
<g id="edge14" class="edge">
<title>Node11&#45;&gt;Node9</title>
<path fill="none" stroke="#63b8ff" d="M465.52,-115.69C448.38,-105.82 427.91,-94.01 412.3,-85.01"/>
<polygon fill="#63b8ff" stroke="#63b8ff" points="464.23,-118.99 474.64,-120.95 467.73,-112.93 464.23,-118.99"/>
</g>
<!-- Node12 -->
<g id="node12" class="node">
<title>Node12</title>
<g id="a_node12"><a xlink:href="../../d1/d8c/FMC__chars_8c.html" target="_top" xlink:title=" ">
<polygon fill="white" stroke="#666666" points="603.5,-85 468.5,-85 468.5,-55 603.5,-55 603.5,-85"/>
<text text-anchor="start" x="476.5" y="-73" font-family="Helvetica,sans-Serif" font-size="10.00">src/data_analyze/strings</text>
<text text-anchor="middle" x="536" y="-62" font-family="Helvetica,sans-Serif" font-size="10.00">/FMC_chars.c</text>
</a>
</g>
</g>
<!-- Node11&#45;&gt;Node12 -->
<g id="edge15" class="edge">
<title>Node11&#45;&gt;Node12</title>
<path fill="none" stroke="#63b8ff" d="M512.32,-111.96C517.5,-103 523.26,-93.03 527.81,-85.16"/>
<polygon fill="#63b8ff" stroke="#63b8ff" points="509.19,-110.39 507.21,-120.8 515.25,-113.89 509.19,-110.39"/>
</g>
<!-- Node13&#45;&gt;Node4 -->
<g id="edge17" class="edge">
<title>Node13&#45;&gt;Node4</title>
<path fill="none" stroke="#63b8ff" d="M636.96,-110.86C634.8,-92.55 628.69,-68.34 612,-55 576.81,-26.89 263.68,-14.71 160.68,-11.45"/>
<polygon fill="#63b8ff" stroke="#63b8ff" points="633.48,-111.18 637.84,-120.83 640.45,-110.57 633.48,-111.18"/>
</g>
<!-- Node14 -->
<g id="node14" class="node">
<title>Node14</title>
<g id="a_node14"><a xlink:href="../../d0/dc0/FMC__files_8c.html" target="_top" xlink:title=" ">
<polygon fill="white" stroke="#666666" points="773.5,-79.5 660.5,-79.5 660.5,-60.5 773.5,-60.5 773.5,-79.5"/>
<text text-anchor="middle" x="717" y="-67.5" font-family="Helvetica,sans-Serif" font-size="10.00">src/files/FMC_files.c</text>
</a>
</g>
</g>
<!-- Node13&#45;&gt;Node14 -->
<g id="edge18" class="edge">
<title>Node13&#45;&gt;Node14</title>
<path fill="none" stroke="#63b8ff" d="M663.6,-114.26C677.98,-102.61 695.17,-88.69 706.08,-79.84"/>
<polygon fill="#63b8ff" stroke="#63b8ff" points="661.1,-111.78 655.53,-120.8 665.51,-117.22 661.1,-111.78"/>
</g>
<!-- Node15 -->
<g id="node15" class="node">
<title>Node15</title>
<g id="a_node15"><a xlink:href="../../dc/d5e/FMC__paths_8c.html" target="_top" xlink:title=" ">
<polygon fill="white" stroke="#666666" points="910.5,-79.5 791.5,-79.5 791.5,-60.5 910.5,-60.5 910.5,-79.5"/>
<text text-anchor="middle" x="851" y="-67.5" font-family="Helvetica,sans-Serif" font-size="10.00">src/files/FMC_paths.c</text>
</a>
</g>
</g>
<!-- Node13&#45;&gt;Node15 -->
<g id="edge19" class="edge">
<title>Node13&#45;&gt;Node15</title>
<path fill="none" stroke="#63b8ff" d="M694.41,-118.05C735.72,-105.64 790.05,-89.31 822.65,-79.52"/>
<polygon fill="#63b8ff" stroke="#63b8ff" points="693.31,-114.73 684.74,-120.95 695.33,-121.43 693.31,-114.73"/>
</g>
<!-- Node16&#45;&gt;Node6 -->
<g id="edge22" class="edge">
<title>Node16&#45;&gt;Node6</title>
<path fill="none" stroke="#63b8ff" d="M246.42,-300.16C233.18,-283.36 220.56,-260.04 233,-242 245.95,-223.21 267.96,-212.35 289.42,-206.08"/>
<polygon fill="#63b8ff" stroke="#63b8ff" points="243.76,-302.43 252.87,-307.84 249.12,-297.93 243.76,-302.43"/>
</g>
<!-- Node16&#45;&gt;Node17 -->
<g id="edge23" class="edge">
<title>Node16&#45;&gt;Node17</title>
<path fill="none" stroke="#63b8ff" d="M280.68,-298.96C286,-290 291.92,-280.03 296.59,-272.16"/>
<polygon fill="#63b8ff" stroke="#63b8ff" points="277.53,-297.41 275.43,-307.8 283.55,-300.98 277.53,-297.41"/>
</g>
<!-- Node17&#45;&gt;Node6 -->
<g id="edge24" class="edge">
<title>Node17&#45;&gt;Node6</title>
<path fill="none" stroke="#63b8ff" d="M322.08,-233.8C329.46,-224.21 337.66,-213.54 343.26,-206.27"/>
<polygon fill="#63b8ff" stroke="#63b8ff" points="319.22,-231.78 315.89,-241.84 324.76,-236.05 319.22,-231.78"/>
</g>
<!-- Node18&#45;&gt;Node6 -->
<g id="edge27" class="edge">
<title>Node18&#45;&gt;Node6</title>
<path fill="none" stroke="#63b8ff" d="M431.26,-299.69C409.03,-271.73 372,-225.17 356.81,-206.07"/>
<polygon fill="#63b8ff" stroke="#63b8ff" points="428.68,-302.07 437.64,-307.72 434.16,-297.71 428.68,-302.07"/>
</g>
<!-- Node18&#45;&gt;Node17 -->
<g id="edge28" class="edge">
<title>Node18&#45;&gt;Node17</title>
<path fill="none" stroke="#63b8ff" d="M408.01,-303.78C385.31,-293.69 357.52,-281.34 336.53,-272.01"/>
<polygon fill="#63b8ff" stroke="#63b8ff" points="406.84,-307.09 417.4,-307.95 409.68,-300.7 406.84,-307.09"/>
</g>
<!-- Node19 -->
<g id="node19" class="node">
<title>Node19</title>
<g id="a_node19"><a xlink:href="../../de/d86/FMC__globals_8h.html" target="_top" xlink:title=" ">
<polygon fill="white" stroke="#666666" points="543.5,-272 424.5,-272 424.5,-242 543.5,-242 543.5,-272"/>
<text text-anchor="start" x="432.5" y="-260" font-family="Helvetica,sans-Serif" font-size="10.00">src/general/utils/FMC</text>
<text text-anchor="middle" x="484" y="-249" font-family="Helvetica,sans-Serif" font-size="10.00">_globals.h</text>
</a>
</g>
</g>
<!-- Node18&#45;&gt;Node19 -->
<g id="edge29" class="edge">
<title>Node18&#45;&gt;Node19</title>
<path fill="none" stroke="#63b8ff" d="M461.6,-298.96C466.5,-290 471.95,-280.03 476.25,-272.16"/>
<polygon fill="#63b8ff" stroke="#63b8ff" points="458.5,-297.34 456.77,-307.8 464.64,-300.7 458.5,-297.34"/>
</g>
<!-- Node19&#45;&gt;Node6 -->
<g id="edge30" class="edge">
<title>Node19&#45;&gt;Node6</title>
<path fill="none" stroke="#63b8ff" d="M442.57,-237.91C418.35,-227.34 388.87,-214.47 369.79,-206.14"/>
<polygon fill="#63b8ff" stroke="#63b8ff" points="441.34,-241.19 451.9,-241.99 444.14,-234.78 441.34,-241.19"/>
</g>
<!-- Node21&#45;&gt;Node6 -->
<g id="edge33" class="edge">
<title>Node21&#45;&gt;Node6</title>
<path fill="none" stroke="#63b8ff" d="M659.77,-302.22C682.48,-285.65 706.23,-261.64 689,-242 671.75,-222.34 517.57,-208.66 423.18,-202.04"/>
<polygon fill="#63b8ff" stroke="#63b8ff" points="657.73,-299.37 651.53,-307.96 661.73,-305.11 657.73,-299.37"/>
</g>
<!-- Node21&#45;&gt;Node20 -->
<g id="edge34" class="edge">
<title>Node21&#45;&gt;Node20</title>
<path fill="none" stroke="#63b8ff" d="M625.36,-297.83C624.41,-289.17 623.37,-279.7 622.55,-272.16"/>
<polygon fill="#63b8ff" stroke="#63b8ff" points="621.88,-298.24 626.45,-307.8 628.84,-297.48 621.88,-298.24"/>
</g>
<!-- Node22&#45;&gt;Node6 -->
<g id="edge36" class="edge">
<title>Node22&#45;&gt;Node6</title>
<path fill="none" stroke="#63b8ff" d="M673.94,-366.84C682.28,-358.69 690.71,-348.74 696,-338 714.96,-299.52 734.39,-274.16 706,-242 687.6,-221.16 521.78,-207.75 423.07,-201.54"/>
<polygon fill="#63b8ff" stroke="#63b8ff" points="671.39,-364.43 666.41,-373.78 676.14,-369.58 671.39,-364.43"/>
</g>
</g>
</svg>
