<?xml version="1.0" encoding="UTF-8" standalone="no"?>
<!DOCTYPE svg PUBLIC "-//W3C//DTD SVG 1.1//EN"
 "http://www.w3.org/Graphics/SVG/1.1/DTD/svg11.dtd">
<!-- Generated by graphviz version 2.43.0 (0)
 -->
<!-- Title: src/general/preprocessor/FMC_attributes.h Pages: 1 -->
<!--zoomable 478 -->
<svg id="main" version="1.1" xmlns="http://www.w3.org/2000/svg" xmlns:xlink="http://www.w3.org/1999/xlink" xml:space="preserve" onload="init(evt)">
<style type="text/css"><![CDATA[
.edge:hover path { stroke: red; }
.edge:hover polygon { stroke: red; fill: red; }
]]></style>
<script type="text/javascript"><![CDATA[
var edges = document.getElementsByTagName('g');
if (edges && edges.length) {
  for (var i=0;i<edges.length;i++) {
    if (edges[i].id.substr(0,4)=='edge') {
      edges[i].setAttribute('class','edge');
    }
  }
}
]]></script>
        <defs>
                <circle id="rim" cx="0" cy="0" r="7"/>
                <circle id="rim2" cx="0" cy="0" r="3.5"/>
                <g id="zoomPlus">
                        <use xlink:href="#rim" fill="#404040">
                                <set attributeName="fill" to="#808080" begin="zoomplus.mouseover" end="zoomplus.mouseout"/>
                        </use>
                        <path d="M-4,0h8M0,-4v8" fill="none" stroke="white" stroke-width="1.5" pointer-events="none"/>
                </g>
                <g id="zoomMin">
                        <use xlink:href="#rim" fill="#404040">
                                <set attributeName="fill" to="#808080" begin="zoomminus.mouseover" end="zoomminus.mouseout"/>
                        </use>
                        <path d="M-4,0h8" fill="none" stroke="white" stroke-width="1.5" pointer-events="none"/>
                </g>
                <g id="dirArrow">
                        <path fill="none" stroke="white" stroke-width="1.5" d="M0,-3.0v7 M-2.5,-0.5L0,-3.0L2.5,-0.5"/>
                </g>
               <g id="resetDef">
                       <use xlink:href="#rim2" fill="#404040">
                               <set attributeName="fill" to="#808080" begin="reset.mouseover" end="reset.mouseout"/>
                       </use>
               </g>
        </defs>

<script type="text/javascript">
var viewWidth = 874;
var viewHeight = 478;
var sectionId = 'dynsection-1';
</script>
<script xlink:href="../../svgpan.js"/>
<svg id="graph" class="graph">
<g id="viewport">
<title>src/general/preprocessor/FMC_attributes.h</title>
<!-- Node1 -->
<g id="node1" class="node">
<title>Node1</title>
<g id="a_node1"><a xlink:title=" ">
<polygon fill="#999999" stroke="#666666" points="426.5,-470 289.5,-470 289.5,-440 426.5,-440 426.5,-470"/>
<text text-anchor="start" x="297.5" y="-458" font-family="Helvetica,sans-Serif" font-size="10.00">src/general/preprocessor</text>
<text text-anchor="middle" x="358" y="-447" font-family="Helvetica,sans-Serif" font-size="10.00">/FMC_attributes.h</text>
</a>
</g>
</g>
<!-- Node2 -->
<g id="node2" class="node">
<title>Node2</title>
<g id="a_node2"><a xlink:href="../../d0/d28/FMC__macros_8h.html" target="_top" xlink:title=" ">
<polygon fill="white" stroke="#666666" points="426.5,-404 289.5,-404 289.5,-374 426.5,-374 426.5,-404"/>
<text text-anchor="start" x="297.5" y="-392" font-family="Helvetica,sans-Serif" font-size="10.00">src/general/preprocessor</text>
<text text-anchor="middle" x="358" y="-381" font-family="Helvetica,sans-Serif" font-size="10.00">/FMC_macros.h</text>
</a>
</g>
</g>
<!-- Node1&#45;&gt;Node2 -->
<g id="edge1" class="edge">
<title>Node1&#45;&gt;Node2</title>
<path fill="none" stroke="#63b8ff" d="M351.43,-429.83C351.02,-421.17 351.31,-411.7 352.29,-404.16"/>
<polygon fill="#63b8ff" stroke="#63b8ff" points="347.95,-430.13 352.28,-439.8 354.92,-429.54 347.95,-430.13"/>
</g>
<!-- Node2&#45;&gt;Node1 -->
<g id="edge20" class="edge">
<title>Node2&#45;&gt;Node1</title>
<path fill="none" stroke="#63b8ff" d="M364.57,-414.13C364.98,-422.78 364.7,-432.26 363.72,-439.8"/>
<polygon fill="#63b8ff" stroke="#63b8ff" points="368.05,-413.83 363.71,-404.16 361.08,-414.43 368.05,-413.83"/>
</g>
<!-- Node3 -->
<g id="node3" class="node">
<title>Node3</title>
<g id="a_node3"><a xlink:href="../../d4/db9/FMC__wrapper_8h.html" target="_top" xlink:title=" ">
<polygon fill="white" stroke="#666666" points="147.5,-332.5 18.5,-332.5 18.5,-313.5 147.5,-313.5 147.5,-332.5"/>
<text text-anchor="middle" x="83" y="-320.5" font-family="Helvetica,sans-Serif" font-size="10.00">src/cpp/FMC_wrapper.h</text>
</a>
</g>
</g>
<!-- Node2&#45;&gt;Node3 -->
<g id="edge2" class="edge">
<title>Node2&#45;&gt;Node3</title>
<path fill="none" stroke="#63b8ff" d="M287.86,-371.68C234.21,-359.19 162.4,-342.48 119.6,-332.52"/>
<polygon fill="#63b8ff" stroke="#63b8ff" points="287.12,-375.1 297.65,-373.95 288.7,-368.28 287.12,-375.1"/>
</g>
<!-- Node6 -->
<g id="node6" class="node">
<title>Node6</title>
<g id="a_node6"><a xlink:href="../../d9/de1/FMC__general_8h.html" target="_top" xlink:title=" ">
<polygon fill="white" stroke="#666666" points="378,-206 232,-206 232,-187 378,-187 378,-206"/>
<text text-anchor="middle" x="305" y="-194" font-family="Helvetica,sans-Serif" font-size="10.00">src/general/FMC_general.h</text>
</a>
</g>
</g>
<!-- Node2&#45;&gt;Node6 -->
<g id="edge5" class="edge">
<title>Node2&#45;&gt;Node6</title>
<path fill="none" stroke="#63b8ff" d="M279.15,-383.48C247.76,-377.33 214.53,-364.42 195,-338 173.99,-309.58 219.74,-247.7 225,-242 240.41,-225.29 263.56,-213.36 281,-206.09"/>
<polygon fill="#63b8ff" stroke="#63b8ff" points="278.8,-386.97 289.25,-385.24 280,-380.07 278.8,-386.97"/>
</g>
<!-- Node16 -->
<g id="node16" class="node">
<title>Node16</title>
<g id="a_node16"><a xlink:href="../../d6/d25/FMC__enums_8h.html" target="_top" xlink:title=" ">
<polygon fill="white" stroke="#666666" points="329.5,-338 204.5,-338 204.5,-308 329.5,-308 329.5,-338"/>
<text text-anchor="start" x="212.5" y="-326" font-family="Helvetica,sans-Serif" font-size="10.00">src/general/types/FMC</text>
<text text-anchor="middle" x="267" y="-315" font-family="Helvetica,sans-Serif" font-size="10.00">_enums.h</text>
</a>
</g>
</g>
<!-- Node2&#45;&gt;Node16 -->
<g id="edge21" class="edge">
<title>Node2&#45;&gt;Node16</title>
<path fill="none" stroke="#63b8ff" d="M329.6,-368.03C315.83,-358.34 299.62,-346.94 287.14,-338.16"/>
<polygon fill="#63b8ff" stroke="#63b8ff" points="327.61,-370.91 337.8,-373.8 331.64,-365.18 327.61,-370.91"/>
</g>
<!-- Node17 -->
<g id="node17" class="node">
<title>Node17</title>
<g id="a_node17"><a xlink:href="../../d5/de5/FMC__structs_8h.html" target="_top" xlink:title=" ">
<polygon fill="white" stroke="#666666" points="367.5,-272 242.5,-272 242.5,-242 367.5,-242 367.5,-272"/>
<text text-anchor="start" x="250.5" y="-260" font-family="Helvetica,sans-Serif" font-size="10.00">src/general/types/FMC</text>
<text text-anchor="middle" x="305" y="-249" font-family="Helvetica,sans-Serif" font-size="10.00">_structs.h</text>
</a>
</g>
</g>
<!-- Node2&#45;&gt;Node17 -->
<g id="edge25" class="edge">
<title>Node2&#45;&gt;Node17</title>
<path fill="none" stroke="#63b8ff" d="M354.14,-363.67C351.03,-347.45 345.86,-325.89 338,-308 332.31,-295.05 323.35,-281.75 316.2,-272.12"/>
<polygon fill="#63b8ff" stroke="#63b8ff" points="350.77,-364.71 355.97,-373.94 357.66,-363.49 350.77,-364.71"/>
</g>
<!-- Node18 -->
<g id="node18" class="node">
<title>Node18</title>
<g id="a_node18"><a xlink:href="../../df/df8/FMC__typedefs_8h.html" target="_top" xlink:title=" ">
<polygon fill="white" stroke="#666666" points="511.5,-338 386.5,-338 386.5,-308 511.5,-308 511.5,-338"/>
<text text-anchor="start" x="394.5" y="-326" font-family="Helvetica,sans-Serif" font-size="10.00">src/general/types/FMC</text>
<text text-anchor="middle" x="449" y="-315" font-family="Helvetica,sans-Serif" font-size="10.00">_typedefs.h</text>
</a>
</g>
</g>
<!-- Node2&#45;&gt;Node18 -->
<g id="edge26" class="edge">
<title>Node2&#45;&gt;Node18</title>
<path fill="none" stroke="#63b8ff" d="M386.4,-368.03C400.17,-358.34 416.38,-346.94 428.86,-338.16"/>
<polygon fill="#63b8ff" stroke="#63b8ff" points="384.36,-365.18 378.2,-373.8 388.39,-370.91 384.36,-365.18"/>
</g>
<!-- Node20 -->
<g id="node20" class="node">
<title>Node20</title>
<g id="a_node20"><a xlink:href="../../de/dab/FMC__errors_8c.html" target="_top" xlink:title=" ">
<polygon fill="white" stroke="#666666" points="680.5,-272 561.5,-272 561.5,-242 680.5,-242 680.5,-272"/>
<text text-anchor="start" x="569.5" y="-260" font-family="Helvetica,sans-Serif" font-size="10.00">src/general/utils/FMC</text>
<text text-anchor="middle" x="621" y="-249" font-family="Helvetica,sans-Serif" font-size="10.00">_errors.c</text>
</a>
</g>
</g>
<!-- Node2&#45;&gt;Node20 -->
<g id="edge31" class="edge">
<title>Node2&#45;&gt;Node20</title>
<path fill="none" stroke="#63b8ff" d="M432.33,-371.29C460.69,-363.33 492.74,-352.35 520,-338 524.6,-335.58 575.83,-294.44 603.51,-272.13"/>
<polygon fill="#63b8ff" stroke="#63b8ff" points="431.19,-367.97 422.46,-373.98 433.03,-374.72 431.19,-367.97"/>
</g>
<!-- Node21 -->
<g id="node21" class="node">
<title>Node21</title>
<g id="a_node21"><a xlink:href="../../dd/ddf/FMC__errors_8h.html" target="_top" xlink:title=" ">
<polygon fill="white" stroke="#666666" points="687.5,-338 568.5,-338 568.5,-308 687.5,-308 687.5,-338"/>
<text text-anchor="start" x="576.5" y="-326" font-family="Helvetica,sans-Serif" font-size="10.00">src/general/utils/FMC</text>
<text text-anchor="middle" x="628" y="-315" font-family="Helvetica,sans-Serif" font-size="10.00">_errors.h</text>
</a>
</g>
</g>
<!-- Node2&#45;&gt;Node21 -->
<g id="edge32" class="edge">
<title>Node2&#45;&gt;Node21</title>
<path fill="none" stroke="#63b8ff" d="M426.98,-371.65C470.85,-361.25 527.07,-347.93 568.89,-338.01"/>
<polygon fill="#63b8ff" stroke="#63b8ff" points="426.18,-368.24 417.25,-373.95 427.79,-375.05 426.18,-368.24"/>
</g>
<!-- Node4 -->
<g id="node4" class="node">
<title>Node4</title>
<g id="a_node4"><a xlink:href="../../de/d47/FMC_8h.html" target="_top" xlink:title=" ">
<polygon fill="white" stroke="#666666" points="115.5,-19 50.5,-19 50.5,0 115.5,0 115.5,-19"/>
<text text-anchor="middle" x="83" y="-7" font-family="Helvetica,sans-Serif" font-size="10.00">src/FMC.h</text>
</a>
</g>
</g>
<!-- Node3&#45;&gt;Node4 -->
<g id="edge3" class="edge">
<title>Node3&#45;&gt;Node4</title>
<path fill="none" stroke="#63b8ff" d="M57.75,-307.91C44.36,-299.21 28.71,-286.87 19,-272 0.31,-243.39 0,-231.67 0,-197.5 0,-197.5 0,-197.5 0,-135 0,-83.82 49.15,-37.69 71.81,-19.14"/>
<polygon fill="#63b8ff" stroke="#63b8ff" points="56.21,-311.07 66.56,-313.34 59.88,-305.11 56.21,-311.07"/>
</g>
<!-- Node5 -->
<g id="node5" class="node">
<title>Node5</title>
<g id="a_node5"><a xlink:href="../../dd/d0d/FMC__dir__wrapper_8cpp.html" target="_top" xlink:title=" ">
<polygon fill="white" stroke="#666666" points="147.5,-272 28.5,-272 28.5,-242 147.5,-242 147.5,-272"/>
<text text-anchor="start" x="36.5" y="-260" font-family="Helvetica,sans-Serif" font-size="10.00">src/cpp/FMC_dir/FMC</text>
<text text-anchor="middle" x="88" y="-249" font-family="Helvetica,sans-Serif" font-size="10.00">_dir_wrapper.cpp</text>
</a>
</g>
</g>
<!-- Node3&#45;&gt;Node5 -->
<g id="edge4" class="edge">
<title>Node3&#45;&gt;Node5</title>
<path fill="none" stroke="#63b8ff" d="M84.46,-303.35C85.23,-293.47 86.16,-281.51 86.88,-272.36"/>
<polygon fill="#63b8ff" stroke="#63b8ff" points="80.96,-303.13 83.67,-313.37 87.94,-303.67 80.96,-303.13"/>
</g>
<!-- Node6&#45;&gt;Node4 -->
<g id="edge6" class="edge">
<title>Node6&#45;&gt;Node4</title>
<path fill="none" stroke="#63b8ff" d="M221.99,-190.44C163.63,-184.95 92.74,-173.7 74,-151 41.63,-111.8 67.8,-43.55 78.76,-19.33"/>
<polygon fill="#63b8ff" stroke="#63b8ff" points="221.71,-193.93 231.98,-191.34 222.33,-186.96 221.71,-193.93"/>
</g>
<!-- Node7 -->
<g id="node7" class="node">
<title>Node7</title>
<g id="a_node7"><a xlink:href="../../db/d26/FMC__code__utils_8h.html" target="_top" xlink:title=" ">
<polygon fill="white" stroke="#666666" points="191,-151 83,-151 83,-121 191,-121 191,-151"/>
<text text-anchor="start" x="91" y="-139" font-family="Helvetica,sans-Serif" font-size="10.00">src/code_utils/FMC</text>
<text text-anchor="middle" x="137" y="-128" font-family="Helvetica,sans-Serif" font-size="10.00">_code_utils.h</text>
</a>
</g>
</g>
<!-- Node6&#45;&gt;Node7 -->
<g id="edge7" class="edge">
<title>Node6&#45;&gt;Node7</title>
<path fill="none" stroke="#63b8ff" d="M270.78,-183.58C243.73,-174.16 205.92,-161 177.39,-151.06"/>
<polygon fill="#63b8ff" stroke="#63b8ff" points="269.98,-187.01 280.57,-186.99 272.28,-180.4 269.98,-187.01"/>
</g>
<!-- Node8 -->
<g id="node8" class="node">
<title>Node8</title>
<g id="a_node8"><a xlink:href="../../db/d30/FMC__encodings_8h.html" target="_top" xlink:title=" ">
<polygon fill="white" stroke="#666666" points="368,-151 216,-151 216,-121 368,-121 368,-151"/>
<text text-anchor="start" x="224" y="-139" font-family="Helvetica,sans-Serif" font-size="10.00">src/data_analyze/encodings</text>
<text text-anchor="middle" x="292" y="-128" font-family="Helvetica,sans-Serif" font-size="10.00">/FMC_encodings.h</text>
</a>
</g>
</g>
<!-- Node6&#45;&gt;Node8 -->
<g id="edge9" class="edge">
<title>Node6&#45;&gt;Node8</title>
<path fill="none" stroke="#63b8ff" d="M300.87,-176.93C299.02,-168.58 296.86,-158.87 295.14,-151.11"/>
<polygon fill="#63b8ff" stroke="#63b8ff" points="297.5,-177.87 303.08,-186.87 304.33,-176.35 297.5,-177.87"/>
</g>
<!-- Node11 -->
<g id="node11" class="node">
<title>Node11</title>
<g id="a_node11"><a xlink:href="../../d9/db5/FMC__strings_8h.html" target="_top" xlink:title=" ">
<polygon fill="white" stroke="#666666" points="521.5,-151 386.5,-151 386.5,-121 521.5,-121 521.5,-151"/>
<text text-anchor="start" x="394.5" y="-139" font-family="Helvetica,sans-Serif" font-size="10.00">src/data_analyze/strings</text>
<text text-anchor="middle" x="454" y="-128" font-family="Helvetica,sans-Serif" font-size="10.00">/FMC_strings.h</text>
</a>
</g>
</g>
<!-- Node6&#45;&gt;Node11 -->
<g id="edge13" class="edge">
<title>Node6&#45;&gt;Node11</title>
<path fill="none" stroke="#63b8ff" d="M335.99,-183.33C359.93,-173.93 393.1,-160.91 418.18,-151.06"/>
<polygon fill="#63b8ff" stroke="#63b8ff" points="334.7,-180.08 326.67,-186.99 337.25,-186.6 334.7,-180.08"/>
</g>
<!-- Node13 -->
<g id="node13" class="node">
<title>Node13</title>
<g id="a_node13"><a xlink:href="../../d2/deb/FMC__file__management_8h.html" target="_top" xlink:title=" ">
<polygon fill="white" stroke="#666666" points="642.5,-151 543.5,-151 543.5,-121 642.5,-121 642.5,-151"/>
<text text-anchor="start" x="551.5" y="-139" font-family="Helvetica,sans-Serif" font-size="10.00">src/files/FMC_file</text>
<text text-anchor="middle" x="593" y="-128" font-family="Helvetica,sans-Serif" font-size="10.00">_management.h</text>
</a>
</g>
</g>
<!-- Node6&#45;&gt;Node13 -->
<g id="edge16" class="edge">
<title>Node6&#45;&gt;Node13</title>
<path fill="none" stroke="#63b8ff" d="M359.86,-185.02C405.46,-176.22 472.03,-163.17 530,-151 534.28,-150.1 538.71,-149.15 543.16,-148.19"/>
<polygon fill="#63b8ff" stroke="#63b8ff" points="359.04,-181.61 349.89,-186.94 360.37,-188.49 359.04,-181.61"/>
</g>
<!-- Node7&#45;&gt;Node4 -->
<g id="edge8" class="edge">
<title>Node7&#45;&gt;Node4</title>
<path fill="none" stroke="#63b8ff" d="M118.94,-112.89C112.84,-104.55 106.46,-94.72 102,-85 91.65,-62.44 86.31,-33.33 84.16,-19.1"/>
<polygon fill="#63b8ff" stroke="#63b8ff" points="116.26,-115.14 125.1,-120.97 121.83,-110.9 116.26,-115.14"/>
</g>
<!-- Node9 -->
<g id="node9" class="node">
<title>Node9</title>
<g id="a_node9"><a xlink:href="../../da/db0/FMC__data__analyze_8h.html" target="_top" xlink:title=" ">
<polygon fill="white" stroke="#666666" points="405,-85 281,-85 281,-55 405,-55 405,-85"/>
<text text-anchor="start" x="289" y="-73" font-family="Helvetica,sans-Serif" font-size="10.00">src/data_analyze/FMC</text>
<text text-anchor="middle" x="343" y="-62" font-family="Helvetica,sans-Serif" font-size="10.00">_data_analyze.h</text>
</a>
</g>
</g>
<!-- Node8&#45;&gt;Node9 -->
<g id="edge10" class="edge">
<title>Node8&#45;&gt;Node9</title>
<path fill="none" stroke="#63b8ff" d="M309.68,-112.81C316.99,-103.64 325.25,-93.28 331.71,-85.16"/>
<polygon fill="#63b8ff" stroke="#63b8ff" points="306.81,-110.79 303.32,-120.8 312.29,-115.16 306.81,-110.79"/>
</g>
<!-- Node10 -->
<g id="node10" class="node">
<title>Node10</title>
<g id="a_node10"><a xlink:href="../../db/dc4/FMC__encodings_8c.html" target="_top" xlink:title=" ">
<polygon fill="white" stroke="#666666" points="263,-85 111,-85 111,-55 263,-55 263,-85"/>
<text text-anchor="start" x="119" y="-73" font-family="Helvetica,sans-Serif" font-size="10.00">src/data_analyze/encodings</text>
<text text-anchor="middle" x="187" y="-62" font-family="Helvetica,sans-Serif" font-size="10.00">/FMC_encodings.c</text>
</a>
</g>
</g>
<!-- Node8&#45;&gt;Node10 -->
<g id="edge12" class="edge">
<title>Node8&#45;&gt;Node10</title>
<path fill="none" stroke="#63b8ff" d="M260.33,-115.69C244.12,-105.82 224.75,-94.01 209.99,-85.01"/>
<polygon fill="#63b8ff" stroke="#63b8ff" points="258.6,-118.74 268.96,-120.95 262.24,-112.76 258.6,-118.74"/>
</g>
<!-- Node9&#45;&gt;Node4 -->
<g id="edge11" class="edge">
<title>Node9&#45;&gt;Node4</title>
<path fill="none" stroke="#63b8ff" d="M270.78,-52.75C220.04,-41.33 154.56,-26.6 115.84,-17.89"/>
<polygon fill="#63b8ff" stroke="#63b8ff" points="270.2,-56.21 280.72,-54.99 271.74,-49.38 270.2,-56.21"/>
</g>
<!-- Node11&#45;&gt;Node9 -->
<g id="edge14" class="edge">
<title>Node11&#45;&gt;Node9</title>
<path fill="none" stroke="#63b8ff" d="M420.52,-115.69C403.38,-105.82 382.91,-94.01 367.3,-85.01"/>
<polygon fill="#63b8ff" stroke="#63b8ff" points="419.23,-118.99 429.64,-120.95 422.73,-112.93 419.23,-118.99"/>
</g>
<!-- Node12 -->
<g id="node12" class="node">
<title>Node12</title>
<g id="a_node12"><a xlink:href="../../d1/d8c/FMC__chars_8c.html" target="_top" xlink:title=" ">
<polygon fill="white" stroke="#666666" points="558.5,-85 423.5,-85 423.5,-55 558.5,-55 558.5,-85"/>
<text text-anchor="start" x="431.5" y="-73" font-family="Helvetica,sans-Serif" font-size="10.00">src/data_analyze/strings</text>
<text text-anchor="middle" x="491" y="-62" font-family="Helvetica,sans-Serif" font-size="10.00">/FMC_chars.c</text>
</a>
</g>
</g>
<!-- Node11&#45;&gt;Node12 -->
<g id="edge15" class="edge">
<title>Node11&#45;&gt;Node12</title>
<path fill="none" stroke="#63b8ff" d="M467.32,-111.96C472.5,-103 478.26,-93.03 482.81,-85.16"/>
<polygon fill="#63b8ff" stroke="#63b8ff" points="464.19,-110.39 462.21,-120.8 470.25,-113.89 464.19,-110.39"/>
</g>
<!-- Node13&#45;&gt;Node4 -->
<g id="edge17" class="edge">
<title>Node13&#45;&gt;Node4</title>
<path fill="none" stroke="#63b8ff" d="M591.96,-110.86C589.8,-92.55 583.69,-68.34 567,-55 531.81,-26.89 218.68,-14.71 115.68,-11.45"/>
<polygon fill="#63b8ff" stroke="#63b8ff" points="588.48,-111.18 592.84,-120.83 595.45,-110.57 588.48,-111.18"/>
</g>
<!-- Node14 -->
<g id="node14" class="node">
<title>Node14</title>
<g id="a_node14"><a xlink:href="../../d0/dc0/FMC__files_8c.html" target="_top" xlink:title=" ">
<polygon fill="white" stroke="#666666" points="728.5,-79.5 615.5,-79.5 615.5,-60.5 728.5,-60.5 728.5,-79.5"/>
<text text-anchor="middle" x="672" y="-67.5" font-family="Helvetica,sans-Serif" font-size="10.00">src/files/FMC_files.c</text>
</a>
</g>
</g>
<!-- Node13&#45;&gt;Node14 -->
<g id="edge18" class="edge">
<title>Node13&#45;&gt;Node14</title>
<path fill="none" stroke="#63b8ff" d="M618.6,-114.26C632.98,-102.61 650.17,-88.69 661.08,-79.84"/>
<polygon fill="#63b8ff" stroke="#63b8ff" points="616.1,-111.78 610.53,-120.8 620.51,-117.22 616.1,-111.78"/>
</g>
<!-- Node15 -->
<g id="node15" class="node">
<title>Node15</title>
<g id="a_node15"><a xlink:href="../../dc/d5e/FMC__paths_8c.html" target="_top" xlink:title=" ">
<polygon fill="white" stroke="#666666" points="865.5,-79.5 746.5,-79.5 746.5,-60.5 865.5,-60.5 865.5,-79.5"/>
<text text-anchor="middle" x="806" y="-67.5" font-family="Helvetica,sans-Serif" font-size="10.00">src/files/FMC_paths.c</text>
</a>
</g>
</g>
<!-- Node13&#45;&gt;Node15 -->
<g id="edge19" class="edge">
<title>Node13&#45;&gt;Node15</title>
<path fill="none" stroke="#63b8ff" d="M649.41,-118.05C690.72,-105.64 745.05,-89.31 777.65,-79.52"/>
<polygon fill="#63b8ff" stroke="#63b8ff" points="648.31,-114.73 639.74,-120.95 650.33,-121.43 648.31,-114.73"/>
</g>
<!-- Node16&#45;&gt;Node6 -->
<g id="edge22" class="edge">
<title>Node16&#45;&gt;Node6</title>
<path fill="none" stroke="#63b8ff" d="M246.85,-300.04C234.34,-283.62 222.49,-260.86 233,-242 242.8,-224.42 262.73,-212.91 279.15,-206.01"/>
<polygon fill="#63b8ff" stroke="#63b8ff" points="244.3,-302.45 253.33,-307.99 249.73,-298.03 244.3,-302.45"/>
</g>
<!-- Node16&#45;&gt;Node17 -->
<g id="edge23" class="edge">
<title>Node16&#45;&gt;Node17</title>
<path fill="none" stroke="#63b8ff" d="M280.68,-298.96C286,-290 291.92,-280.03 296.59,-272.16"/>
<polygon fill="#63b8ff" stroke="#63b8ff" points="277.53,-297.41 275.43,-307.8 283.55,-300.98 277.53,-297.41"/>
</g>
<!-- Node17&#45;&gt;Node6 -->
<g id="edge24" class="edge">
<title>Node17&#45;&gt;Node6</title>
<path fill="none" stroke="#63b8ff" d="M305,-231.75C305,-222.72 305,-213.03 305,-206.27"/>
<polygon fill="#63b8ff" stroke="#63b8ff" points="301.5,-231.84 305,-241.84 308.5,-231.84 301.5,-231.84"/>
</g>
<!-- Node18&#45;&gt;Node6 -->
<g id="edge27" class="edge">
<title>Node18&#45;&gt;Node6</title>
<path fill="none" stroke="#63b8ff" d="M431.47,-299.69C417.5,-282.74 396.9,-259.44 376,-242 358.69,-227.55 336.31,-214.29 321.35,-206.07"/>
<polygon fill="#63b8ff" stroke="#63b8ff" points="429.11,-302.35 438.13,-307.92 434.55,-297.94 429.11,-302.35"/>
</g>
<!-- Node18&#45;&gt;Node17 -->
<g id="edge28" class="edge">
<title>Node18&#45;&gt;Node17</title>
<path fill="none" stroke="#63b8ff" d="M408.01,-303.78C385.31,-293.69 357.52,-281.34 336.53,-272.01"/>
<polygon fill="#63b8ff" stroke="#63b8ff" points="406.84,-307.09 417.4,-307.95 409.68,-300.7 406.84,-307.09"/>
</g>
<!-- Node19 -->
<g id="node19" class="node">
<title>Node19</title>
<g id="a_node19"><a xlink:href="../../de/d86/FMC__globals_8h.html" target="_top" xlink:title=" ">
<polygon fill="white" stroke="#666666" points="543.5,-272 424.5,-272 424.5,-242 543.5,-242 543.5,-272"/>
<text text-anchor="start" x="432.5" y="-260" font-family="Helvetica,sans-Serif" font-size="10.00">src/general/utils/FMC</text>
<text text-anchor="middle" x="484" y="-249" font-family="Helvetica,sans-Serif" font-size="10.00">_globals.h</text>
</a>
</g>
</g>
<!-- Node18&#45;&gt;Node19 -->
<g id="edge29" class="edge">
<title>Node18&#45;&gt;Node19</title>
<path fill="none" stroke="#63b8ff" d="M461.6,-298.96C466.5,-290 471.95,-280.03 476.25,-272.16"/>
<polygon fill="#63b8ff" stroke="#63b8ff" points="458.5,-297.34 456.77,-307.8 464.64,-300.7 458.5,-297.34"/>
</g>
<!-- Node19&#45;&gt;Node6 -->
<g id="edge30" class="edge">
<title>Node19&#45;&gt;Node6</title>
<path fill="none" stroke="#63b8ff" d="M431.61,-238.88C398.61,-228.09 357.44,-214.64 331.17,-206.05"/>
<polygon fill="#63b8ff" stroke="#63b8ff" points="430.53,-242.21 441.13,-241.99 432.71,-235.55 430.53,-242.21"/>
</g>
<!-- Node21&#45;&gt;Node6 -->
<g id="edge33" class="edge">
<title>Node21&#45;&gt;Node6</title>
<path fill="none" stroke="#63b8ff" d="M660.28,-302.21C683.36,-285.64 707.49,-261.63 690,-242 669.66,-219.17 484.14,-206.33 378.24,-200.8"/>
<polygon fill="#63b8ff" stroke="#63b8ff" points="658.17,-299.41 651.9,-307.95 662.13,-305.18 658.17,-299.41"/>
</g>
<!-- Node21&#45;&gt;Node20 -->
<g id="edge34" class="edge">
<title>Node21&#45;&gt;Node20</title>
<path fill="none" stroke="#63b8ff" d="M625.36,-297.83C624.41,-289.17 623.37,-279.7 622.55,-272.16"/>
<polygon fill="#63b8ff" stroke="#63b8ff" points="621.88,-298.24 626.45,-307.8 628.84,-297.48 621.88,-298.24"/>
</g>
</g>
</svg>
        <g id="navigator" transform="translate(0 0)" fill="#404254">
                <rect fill="#f2f5e9" fill-opacity="0.5" stroke="#606060" stroke-width=".5" x="0" y="0" width="60" height="60"/>
                <use id="zoomplus" xlink:href="#zoomPlus" x="17" y="9" onmousedown="handleZoom(evt,'in')"/>
                <use id="zoomminus" xlink:href="#zoomMin" x="42" y="9" onmousedown="handleZoom(evt,'out')"/>
                <use id="reset" xlink:href="#resetDef" x="30" y="36" onmousedown="handleReset()"/>
                <g id="arrowUp" xlink:href="#dirArrow" transform="translate(30 24)" onmousedown="handlePan(0,-1)">
                  <use xlink:href="#rim" fill="#404040">
                        <set attributeName="fill" to="#808080" begin="arrowUp.mouseover" end="arrowUp.mouseout"/>
                  </use>
                  <path fill="none" stroke="white" stroke-width="1.5" d="M0,-3.0v7 M-2.5,-0.5L0,-3.0L2.5,-0.5"/>
                </g>
                <g id="arrowRight" xlink:href="#dirArrow" transform="rotate(90) translate(36 -43)" onmousedown="handlePan(1,0)">
                  <use xlink:href="#rim" fill="#404040">
                        <set attributeName="fill" to="#808080" begin="arrowRight.mouseover" end="arrowRight.mouseout"/>
                  </use>
                  <path fill="none" stroke="white" stroke-width="1.5" d="M0,-3.0v7 M-2.5,-0.5L0,-3.0L2.5,-0.5"/>
                </g>
                <g id="arrowDown" xlink:href="#dirArrow" transform="rotate(180) translate(-30 -48)" onmousedown="handlePan(0,1)">
                  <use xlink:href="#rim" fill="#404040">
                        <set attributeName="fill" to="#808080" begin="arrowDown.mouseover" end="arrowDown.mouseout"/>
                  </use>
                  <path fill="none" stroke="white" stroke-width="1.5" d="M0,-3.0v7 M-2.5,-0.5L0,-3.0L2.5,-0.5"/>
                </g>
                <g id="arrowLeft" xlink:href="#dirArrow" transform="rotate(270) translate(-36 17)" onmousedown="handlePan(-1,0)">
                  <use xlink:href="#rim" fill="#404040">
                        <set attributeName="fill" to="#808080" begin="arrowLeft.mouseover" end="arrowLeft.mouseout"/>
                  </use>
                  <path fill="none" stroke="white" stroke-width="1.5" d="M0,-3.0v7 M-2.5,-0.5L0,-3.0L2.5,-0.5"/>
                </g>
        </g>
        <svg viewBox="0 0 15 15" width="100%" height="30px" preserveAspectRatio="xMaxYMin meet">
         <g id="arrow_out" transform="scale(0.3 0.3)">
          <a xlink:href="FMC__attributes_8h__dep__incl_org.svg" target="_base">
           <rect id="button" ry="5" rx="5" y="6" x="6" height="38" width="38"
                fill="#f2f5e9" fill-opacity="0.5" stroke="#606060" stroke-width="1.0"/>
           <path id="arrow"
             d="M 11.500037,31.436501 C 11.940474,20.09759 22.043105,11.32322 32.158766,21.979434 L 37.068811,17.246167 C 37.068811,17.246167 37.088388,32 37.088388,32 L 22.160133,31.978069 C 22.160133,31.978069 26.997745,27.140456 26.997745,27.140456 C 18.528582,18.264221 13.291696,25.230495 11.500037,31.436501 z"
             style="fill:#404040;"/>
          </a>
         </g>
        </svg>
</svg>
