<?xml version="1.0" encoding="UTF-8" standalone="no"?>
<!DOCTYPE svg PUBLIC "-//W3C//DTD SVG 1.1//EN"
 "http://www.w3.org/Graphics/SVG/1.1/DTD/svg11.dtd">
<!-- Generated by graphviz version 2.43.0 (0)
 -->
<!-- Title: src/general/preprocessor/FMC_attributes.h Pages: 1 -->
<svg width="1141pt" height="489pt"
 viewBox="0.00 0.00 1140.77 489.00" xmlns="http://www.w3.org/2000/svg" xmlns:xlink="http://www.w3.org/1999/xlink">
<g id="graph0" class="graph" transform="scale(1 1) rotate(0) translate(4 485)">
<title>src/general/preprocessor/FMC_attributes.h</title>
<!-- Node1 -->
<g id="node1" class="node">
<title>Node1</title>
<g id="a_node1"><a xlink:title=" ">
<polygon fill="#999999" stroke="#666666" points="749,-481 612,-481 612,-451 749,-451 749,-481"/>
<text text-anchor="start" x="620" y="-469" font-family="Helvetica,sans-Serif" font-size="10.00">src/general/preprocessor</text>
<text text-anchor="middle" x="680.5" y="-458" font-family="Helvetica,sans-Serif" font-size="10.00">/FMC_attributes.h</text>
</a>
</g>
</g>
<!-- Node2 -->
<g id="node2" class="node">
<title>Node2</title>
<g id="a_node2"><a xlink:href="../../d0/d28/FMC__macros_8h.html" target="_top" xlink:title=" ">
<polygon fill="white" stroke="#666666" points="749,-415 612,-415 612,-385 749,-385 749,-415"/>
<text text-anchor="start" x="620" y="-403" font-family="Helvetica,sans-Serif" font-size="10.00">src/general/preprocessor</text>
<text text-anchor="middle" x="680.5" y="-392" font-family="Helvetica,sans-Serif" font-size="10.00">/FMC_macros.h</text>
</a>
</g>
</g>
<!-- Node1&#45;&gt;Node2 -->
<g id="edge1" class="edge">
<title>Node1&#45;&gt;Node2</title>
<path fill="none" stroke="#63b8ff" d="M673.93,-440.83C673.52,-432.17 673.81,-422.7 674.79,-415.16"/>
<polygon fill="#63b8ff" stroke="#63b8ff" points="670.45,-441.13 674.78,-450.8 677.42,-440.54 670.45,-441.13"/>
</g>
<!-- Node25 -->
<g id="node25" class="node">
<title>Node25</title>
<g id="a_node25"><a xlink:href="../../d4/d06/FMC__deprecated_8h.html" target="_top" xlink:title=" ">
<polygon fill="white" stroke="#666666" points="515,-415 396,-415 396,-385 515,-385 515,-415"/>
<text text-anchor="start" x="404" y="-403" font-family="Helvetica,sans-Serif" font-size="10.00">src/general/utils/FMC</text>
<text text-anchor="middle" x="455.5" y="-392" font-family="Helvetica,sans-Serif" font-size="10.00">_deprecated.h</text>
</a>
</g>
</g>
<!-- Node1&#45;&gt;Node25 -->
<g id="edge40" class="edge">
<title>Node1&#45;&gt;Node25</title>
<path fill="none" stroke="#63b8ff" d="M621.16,-448.12C584.88,-437.8 539.03,-424.76 504.76,-415.01"/>
<polygon fill="#63b8ff" stroke="#63b8ff" points="620.55,-451.59 631.12,-450.95 622.46,-444.85 620.55,-451.59"/>
</g>
<!-- Node2&#45;&gt;Node1 -->
<g id="edge23" class="edge">
<title>Node2&#45;&gt;Node1</title>
<path fill="none" stroke="#63b8ff" d="M687.07,-425.13C687.48,-433.78 687.2,-443.26 686.22,-450.8"/>
<polygon fill="#63b8ff" stroke="#63b8ff" points="690.55,-424.83 686.21,-415.16 683.58,-425.43 690.55,-424.83"/>
</g>
<!-- Node3 -->
<g id="node3" class="node">
<title>Node3</title>
<g id="a_node3"><a xlink:href="../../d4/db9/FMC__wrapper_8h.html" target="_top" xlink:title=" ">
<polygon fill="white" stroke="#666666" points="1111,-343.5 982,-343.5 982,-324.5 1111,-324.5 1111,-343.5"/>
<text text-anchor="middle" x="1046.5" y="-331.5" font-family="Helvetica,sans-Serif" font-size="10.00">src/cpp/FMC_wrapper.h</text>
</a>
</g>
</g>
<!-- Node2&#45;&gt;Node3 -->
<g id="edge2" class="edge">
<title>Node2&#45;&gt;Node3</title>
<path fill="none" stroke="#63b8ff" d="M759.36,-385.32C817.03,-375.31 897.13,-361.37 967.5,-349 977.51,-347.24 988.24,-345.35 998.46,-343.54"/>
<polygon fill="#63b8ff" stroke="#63b8ff" points="758.48,-381.93 749.23,-387.08 759.68,-388.82 758.48,-381.93"/>
</g>
<!-- Node6 -->
<g id="node6" class="node">
<title>Node6</title>
<g id="a_node6"><a xlink:href="../../d9/de1/FMC__general_8h.html" target="_top" xlink:title=" ">
<polygon fill="white" stroke="#666666" points="735.5,-211.5 589.5,-211.5 589.5,-192.5 735.5,-192.5 735.5,-211.5"/>
<text text-anchor="middle" x="662.5" y="-199.5" font-family="Helvetica,sans-Serif" font-size="10.00">src/general/FMC_general.h</text>
</a>
</g>
</g>
<!-- Node2&#45;&gt;Node6 -->
<g id="edge5" class="edge">
<title>Node2&#45;&gt;Node6</title>
<path fill="none" stroke="#63b8ff" d="M601.71,-388.96C548.06,-380.66 483.17,-367.27 462.5,-349 439.11,-328.33 443.92,-313.74 438.5,-283 436.19,-269.87 430.16,-263.4 438.5,-253 457.25,-229.6 531.37,-216.43 589.28,-209.55"/>
<polygon fill="#63b8ff" stroke="#63b8ff" points="601.51,-392.47 611.92,-390.5 602.56,-385.55 601.51,-392.47"/>
</g>
<!-- Node18 -->
<g id="node18" class="node">
<title>Node18</title>
<g id="a_node18"><a xlink:href="../../d6/d25/FMC__enums_8h.html" target="_top" xlink:title=" ">
<polygon fill="white" stroke="#666666" points="743,-349 618,-349 618,-319 743,-319 743,-349"/>
<text text-anchor="start" x="626" y="-337" font-family="Helvetica,sans-Serif" font-size="10.00">src/general/types/FMC</text>
<text text-anchor="middle" x="680.5" y="-326" font-family="Helvetica,sans-Serif" font-size="10.00">_enums.h</text>
</a>
</g>
</g>
<!-- Node2&#45;&gt;Node18 -->
<g id="edge24" class="edge">
<title>Node2&#45;&gt;Node18</title>
<path fill="none" stroke="#63b8ff" d="M680.5,-374.54C680.5,-365.96 680.5,-356.61 680.5,-349.16"/>
<polygon fill="#63b8ff" stroke="#63b8ff" points="677,-374.8 680.5,-384.8 684,-374.8 677,-374.8"/>
</g>
<!-- Node19 -->
<g id="node19" class="node">
<title>Node19</title>
<g id="a_node19"><a xlink:href="../../d5/de5/FMC__structs_8h.html" target="_top" xlink:title=" ">
<polygon fill="white" stroke="#666666" points="791,-283 666,-283 666,-253 791,-253 791,-283"/>
<text text-anchor="start" x="674" y="-271" font-family="Helvetica,sans-Serif" font-size="10.00">src/general/types/FMC</text>
<text text-anchor="middle" x="728.5" y="-260" font-family="Helvetica,sans-Serif" font-size="10.00">_structs.h</text>
</a>
</g>
</g>
<!-- Node2&#45;&gt;Node19 -->
<g id="edge28" class="edge">
<title>Node2&#45;&gt;Node19</title>
<path fill="none" stroke="#63b8ff" d="M722.18,-379.74C734.17,-371.99 745.8,-361.8 752.5,-349 763.79,-327.41 749.93,-299.71 739.06,-283.21"/>
<polygon fill="#63b8ff" stroke="#63b8ff" points="720.24,-376.82 713.45,-384.95 723.83,-382.82 720.24,-376.82"/>
</g>
<!-- Node20 -->
<g id="node20" class="node">
<title>Node20</title>
<g id="a_node20"><a xlink:href="../../df/df8/FMC__typedefs_8h.html" target="_top" xlink:title=" ">
<polygon fill="white" stroke="#666666" points="925,-349 800,-349 800,-319 925,-319 925,-349"/>
<text text-anchor="start" x="808" y="-337" font-family="Helvetica,sans-Serif" font-size="10.00">src/general/types/FMC</text>
<text text-anchor="middle" x="862.5" y="-326" font-family="Helvetica,sans-Serif" font-size="10.00">_typedefs.h</text>
</a>
</g>
</g>
<!-- Node2&#45;&gt;Node20 -->
<g id="edge29" class="edge">
<title>Node2&#45;&gt;Node20</title>
<path fill="none" stroke="#63b8ff" d="M730.01,-381.59C759.11,-371.36 795.41,-358.59 822.65,-349.01"/>
<polygon fill="#63b8ff" stroke="#63b8ff" points="728.71,-378.34 720.44,-384.95 731.04,-384.94 728.71,-378.34"/>
</g>
<!-- Node21 -->
<g id="node21" class="node">
<title>Node21</title>
<g id="a_node21"><a xlink:href="../../de/d86/FMC__globals_8h.html" target="_top" xlink:title=" ">
<polygon fill="white" stroke="#666666" points="967,-283 848,-283 848,-253 967,-253 967,-283"/>
<text text-anchor="start" x="856" y="-271" font-family="Helvetica,sans-Serif" font-size="10.00">src/general/utils/FMC</text>
<text text-anchor="middle" x="907.5" y="-260" font-family="Helvetica,sans-Serif" font-size="10.00">_globals.h</text>
</a>
</g>
</g>
<!-- Node2&#45;&gt;Node21 -->
<g id="edge39" class="edge">
<title>Node2&#45;&gt;Node21</title>
<path fill="none" stroke="#63b8ff" d="M759.06,-394.23C825.24,-388.37 912.54,-375.7 934.5,-349 950.42,-329.64 933.03,-300.45 919.72,-283.2"/>
<polygon fill="#63b8ff" stroke="#63b8ff" points="758.72,-390.74 749.05,-395.07 759.31,-397.72 758.72,-390.74"/>
</g>
<!-- Node23 -->
<g id="node23" class="node">
<title>Node23</title>
<g id="a_node23"><a xlink:href="../../de/dab/FMC__errors_8c.html" target="_top" xlink:title=" ">
<polygon fill="white" stroke="#666666" points="567,-283 448,-283 448,-253 567,-253 567,-283"/>
<text text-anchor="start" x="456" y="-271" font-family="Helvetica,sans-Serif" font-size="10.00">src/general/utils/FMC</text>
<text text-anchor="middle" x="507.5" y="-260" font-family="Helvetica,sans-Serif" font-size="10.00">_errors.c</text>
</a>
</g>
</g>
<!-- Node2&#45;&gt;Node23 -->
<g id="edge35" class="edge">
<title>Node2&#45;&gt;Node23</title>
<path fill="none" stroke="#63b8ff" d="M602.01,-390.23C550.09,-382.63 488.7,-369.55 472.5,-349 456.55,-328.76 477.22,-300.12 492.9,-283.17"/>
<polygon fill="#63b8ff" stroke="#63b8ff" points="601.52,-393.7 611.92,-391.63 602.51,-386.77 601.52,-393.7"/>
</g>
<!-- Node24 -->
<g id="node24" class="node">
<title>Node24</title>
<g id="a_node24"><a xlink:href="../../dd/ddf/FMC__errors_8h.html" target="_top" xlink:title=" ">
<polygon fill="white" stroke="#666666" points="600,-349 481,-349 481,-319 600,-319 600,-349"/>
<text text-anchor="start" x="489" y="-337" font-family="Helvetica,sans-Serif" font-size="10.00">src/general/utils/FMC</text>
<text text-anchor="middle" x="540.5" y="-326" font-family="Helvetica,sans-Serif" font-size="10.00">_errors.h</text>
</a>
</g>
</g>
<!-- Node2&#45;&gt;Node24 -->
<g id="edge36" class="edge">
<title>Node2&#45;&gt;Node24</title>
<path fill="none" stroke="#63b8ff" d="M640.65,-380.78C618.58,-370.69 591.56,-358.34 571.15,-349.01"/>
<polygon fill="#63b8ff" stroke="#63b8ff" points="639.23,-383.98 649.78,-384.95 642.14,-377.61 639.23,-383.98"/>
</g>
<!-- Node4 -->
<g id="node4" class="node">
<title>Node4</title>
<g id="a_node4"><a xlink:href="../../de/d47/FMC_8h.html" target="_top" xlink:title=" ">
<polygon fill="white" stroke="#666666" points="952,-19 887,-19 887,0 952,0 952,-19"/>
<text text-anchor="middle" x="919.5" y="-7" font-family="Helvetica,sans-Serif" font-size="10.00">src/FMC.h</text>
</a>
</g>
</g>
<!-- Node3&#45;&gt;Node4 -->
<g id="edge3" class="edge">
<title>Node3&#45;&gt;Node4</title>
<path fill="none" stroke="#63b8ff" d="M1072.91,-319.3C1086.98,-310.7 1103.43,-298.32 1113.5,-283 1133.57,-252.46 1132.5,-239.54 1132.5,-203 1132.5,-203 1132.5,-203 1132.5,-135 1132.5,-52.55 1012.06,-23.7 952.31,-14.46"/>
<polygon fill="#63b8ff" stroke="#63b8ff" points="1070.99,-316.37 1064.09,-324.41 1074.49,-322.43 1070.99,-316.37"/>
</g>
<!-- Node5 -->
<g id="node5" class="node">
<title>Node5</title>
<g id="a_node5"><a xlink:href="../../dd/d0d/FMC__dir__wrapper_8cpp.html" target="_top" xlink:title=" ">
<polygon fill="white" stroke="#666666" points="1104,-283 985,-283 985,-253 1104,-253 1104,-283"/>
<text text-anchor="start" x="993" y="-271" font-family="Helvetica,sans-Serif" font-size="10.00">src/cpp/FMC_dir/FMC</text>
<text text-anchor="middle" x="1044.5" y="-260" font-family="Helvetica,sans-Serif" font-size="10.00">_dir_wrapper.cpp</text>
</a>
</g>
</g>
<!-- Node3&#45;&gt;Node5 -->
<g id="edge4" class="edge">
<title>Node3&#45;&gt;Node5</title>
<path fill="none" stroke="#63b8ff" d="M1045.92,-314.35C1045.61,-304.47 1045.23,-292.51 1044.95,-283.36"/>
<polygon fill="#63b8ff" stroke="#63b8ff" points="1042.42,-314.48 1046.23,-324.37 1049.42,-314.26 1042.42,-314.48"/>
</g>
<!-- Node6&#45;&gt;Node4 -->
<g id="edge6" class="edge">
<title>Node6&#45;&gt;Node4</title>
<path fill="none" stroke="#63b8ff" d="M712.5,-189.92C766.87,-175.26 852.4,-144.05 900.5,-85 916.35,-65.54 919.17,-34.48 919.54,-19.36"/>
<polygon fill="#63b8ff" stroke="#63b8ff" points="711.53,-186.56 702.73,-192.47 713.29,-193.34 711.53,-186.56"/>
</g>
<!-- Node7 -->
<g id="node7" class="node">
<title>Node7</title>
<g id="a_node7"><a xlink:href="../../db/d26/FMC__code__utils_8h.html" target="_top" xlink:title=" ">
<polygon fill="white" stroke="#666666" points="1055.5,-151 947.5,-151 947.5,-121 1055.5,-121 1055.5,-151"/>
<text text-anchor="start" x="955.5" y="-139" font-family="Helvetica,sans-Serif" font-size="10.00">src/code_utils/FMC</text>
<text text-anchor="middle" x="1001.5" y="-128" font-family="Helvetica,sans-Serif" font-size="10.00">_code_utils.h</text>
</a>
</g>
</g>
<!-- Node6&#45;&gt;Node7 -->
<g id="edge7" class="edge">
<title>Node6&#45;&gt;Node7</title>
<path fill="none" stroke="#63b8ff" d="M720.43,-190.67C775.34,-180.79 860.12,-165.32 933.5,-151 938,-150.12 942.65,-149.2 947.33,-148.26"/>
<polygon fill="#63b8ff" stroke="#63b8ff" points="719.75,-187.23 710.53,-192.45 720.99,-194.12 719.75,-187.23"/>
</g>
<!-- Node8 -->
<g id="node8" class="node">
<title>Node8</title>
<g id="a_node8"><a xlink:href="../../db/d30/FMC__encodings_8h.html" target="_top" xlink:title=" ">
<polygon fill="white" stroke="#666666" points="450.5,-151 298.5,-151 298.5,-121 450.5,-121 450.5,-151"/>
<text text-anchor="start" x="306.5" y="-139" font-family="Helvetica,sans-Serif" font-size="10.00">src/data_analyze/encodings</text>
<text text-anchor="middle" x="374.5" y="-128" font-family="Helvetica,sans-Serif" font-size="10.00">/FMC_encodings.h</text>
</a>
</g>
</g>
<!-- Node6&#45;&gt;Node8 -->
<g id="edge9" class="edge">
<title>Node6&#45;&gt;Node8</title>
<path fill="none" stroke="#63b8ff" d="M614.03,-190.23C565.53,-179.45 490.71,-162.83 437.61,-151.02"/>
<polygon fill="#63b8ff" stroke="#63b8ff" points="613.44,-193.68 623.96,-192.44 614.96,-186.85 613.44,-193.68"/>
</g>
<!-- Node11 -->
<g id="node11" class="node">
<title>Node11</title>
<g id="a_node11"><a xlink:href="../../d9/db5/FMC__strings_8h.html" target="_top" xlink:title=" ">
<polygon fill="white" stroke="#666666" points="280,-151 145,-151 145,-121 280,-121 280,-151"/>
<text text-anchor="start" x="153" y="-139" font-family="Helvetica,sans-Serif" font-size="10.00">src/data_analyze/strings</text>
<text text-anchor="middle" x="212.5" y="-128" font-family="Helvetica,sans-Serif" font-size="10.00">/FMC_strings.h</text>
</a>
</g>
</g>
<!-- Node6&#45;&gt;Node11 -->
<g id="edge13" class="edge">
<title>Node6&#45;&gt;Node11</title>
<path fill="none" stroke="#63b8ff" d="M581.6,-191.26C505.94,-181.89 389.87,-166.84 289.5,-151 286.41,-150.51 283.26,-150 280.08,-149.47"/>
<polygon fill="#63b8ff" stroke="#63b8ff" points="581.19,-194.74 591.54,-192.49 582.05,-187.79 581.19,-194.74"/>
</g>
<!-- Node13 -->
<g id="node13" class="node">
<title>Node13</title>
<g id="a_node13"><a xlink:href="../../d2/deb/FMC__file__management_8h.html" target="_top" xlink:title=" ">
<polygon fill="white" stroke="#666666" points="610,-151 511,-151 511,-121 610,-121 610,-151"/>
<text text-anchor="start" x="519" y="-139" font-family="Helvetica,sans-Serif" font-size="10.00">src/files/FMC_file</text>
<text text-anchor="middle" x="560.5" y="-128" font-family="Helvetica,sans-Serif" font-size="10.00">_management.h</text>
</a>
</g>
</g>
<!-- Node6&#45;&gt;Node13 -->
<g id="edge16" class="edge">
<title>Node6&#45;&gt;Node13</title>
<path fill="none" stroke="#63b8ff" d="M640.05,-186.91C623.1,-176.28 599.95,-161.75 583,-151.12"/>
<polygon fill="#63b8ff" stroke="#63b8ff" points="638.41,-190.02 648.74,-192.37 642.13,-184.09 638.41,-190.02"/>
</g>
<!-- Node16 -->
<g id="node16" class="node">
<title>Node16</title>
<g id="a_node16"><a xlink:href="../../da/d45/FMC__str__view_8h.html" target="_top" xlink:title=" ">
<polygon fill="white" stroke="#666666" points="747,-151 628,-151 628,-121 747,-121 747,-151"/>
<text text-anchor="start" x="636" y="-139" font-family="Helvetica,sans-Serif" font-size="10.00">src/general/utils/FMC</text>
<text text-anchor="middle" x="687.5" y="-128" font-family="Helvetica,sans-Serif" font-size="10.00">_str_view.h</text>
</a>
</g>
</g>
<!-- Node6&#45;&gt;Node16 -->
<g id="edge20" class="edge">
<title>Node6&#45;&gt;Node16</title>
<path fill="none" stroke="#63b8ff" d="M663.59,-182.35C666.58,-172.47 671.4,-160.51 676.15,-151.36"/>
<polygon fill="#63b8ff" stroke="#63b8ff" points="660.11,-181.82 661.08,-192.37 666.9,-183.52 660.11,-181.82"/>
</g>
<!-- Node7&#45;&gt;Node4 -->
<g id="edge8" class="edge">
<title>Node7&#45;&gt;Node4</title>
<path fill="none" stroke="#63b8ff" d="M986.57,-112.33C968.13,-84.33 937.67,-38.08 925.14,-19.07"/>
<polygon fill="#63b8ff" stroke="#63b8ff" points="983.67,-114.29 992.09,-120.72 989.52,-110.44 983.67,-114.29"/>
</g>
<!-- Node9 -->
<g id="node9" class="node">
<title>Node9</title>
<g id="a_node9"><a xlink:href="../../da/db0/FMC__data__analyze_8h.html" target="_top" xlink:title=" ">
<polygon fill="white" stroke="#666666" points="277.5,-85 153.5,-85 153.5,-55 277.5,-55 277.5,-85"/>
<text text-anchor="start" x="161.5" y="-73" font-family="Helvetica,sans-Serif" font-size="10.00">src/data_analyze/FMC</text>
<text text-anchor="middle" x="215.5" y="-62" font-family="Helvetica,sans-Serif" font-size="10.00">_data_analyze.h</text>
</a>
</g>
</g>
<!-- Node8&#45;&gt;Node9 -->
<g id="edge10" class="edge">
<title>Node8&#45;&gt;Node9</title>
<path fill="none" stroke="#63b8ff" d="M330.25,-117.19C305,-107.02 273.8,-94.47 250.31,-85.01"/>
<polygon fill="#63b8ff" stroke="#63b8ff" points="329.02,-120.47 339.61,-120.95 331.64,-113.97 329.02,-120.47"/>
</g>
<!-- Node10 -->
<g id="node10" class="node">
<title>Node10</title>
<g id="a_node10"><a xlink:href="../../db/dc4/FMC__encodings_8c.html" target="_top" xlink:title=" ">
<polygon fill="white" stroke="#666666" points="447.5,-85 295.5,-85 295.5,-55 447.5,-55 447.5,-85"/>
<text text-anchor="start" x="303.5" y="-73" font-family="Helvetica,sans-Serif" font-size="10.00">src/data_analyze/encodings</text>
<text text-anchor="middle" x="371.5" y="-62" font-family="Helvetica,sans-Serif" font-size="10.00">/FMC_encodings.c</text>
</a>
</g>
</g>
<!-- Node8&#45;&gt;Node10 -->
<g id="edge12" class="edge">
<title>Node8&#45;&gt;Node10</title>
<path fill="none" stroke="#63b8ff" d="M373.35,-110.54C372.95,-101.96 372.51,-92.61 372.16,-85.16"/>
<polygon fill="#63b8ff" stroke="#63b8ff" points="369.87,-110.97 373.83,-120.8 376.86,-110.64 369.87,-110.97"/>
</g>
<!-- Node9&#45;&gt;Node4 -->
<g id="edge11" class="edge">
<title>Node9&#45;&gt;Node4</title>
<path fill="none" stroke="#63b8ff" d="M287.87,-54.93C522.84,-24.27 794.2,-14.11 886.74,-11.36"/>
<polygon fill="#63b8ff" stroke="#63b8ff" points="287.22,-51.49 277.77,-56.27 288.14,-58.43 287.22,-51.49"/>
</g>
<!-- Node11&#45;&gt;Node9 -->
<g id="edge14" class="edge">
<title>Node11&#45;&gt;Node9</title>
<path fill="none" stroke="#63b8ff" d="M213.65,-110.54C214.05,-101.96 214.49,-92.61 214.84,-85.16"/>
<polygon fill="#63b8ff" stroke="#63b8ff" points="210.14,-110.64 213.17,-120.8 217.13,-110.97 210.14,-110.64"/>
</g>
<!-- Node12 -->
<g id="node12" class="node">
<title>Node12</title>
<g id="a_node12"><a xlink:href="../../d1/d8c/FMC__chars_8c.html" target="_top" xlink:title=" ">
<polygon fill="white" stroke="#666666" points="135,-85 0,-85 0,-55 135,-55 135,-85"/>
<text text-anchor="start" x="8" y="-73" font-family="Helvetica,sans-Serif" font-size="10.00">src/data_analyze/strings</text>
<text text-anchor="middle" x="67.5" y="-62" font-family="Helvetica,sans-Serif" font-size="10.00">/FMC_chars.c</text>
</a>
</g>
</g>
<!-- Node11&#45;&gt;Node12 -->
<g id="edge15" class="edge">
<title>Node11&#45;&gt;Node12</title>
<path fill="none" stroke="#63b8ff" d="M171.23,-116.78C148.37,-106.69 120.38,-94.34 99.25,-85.01"/>
<polygon fill="#63b8ff" stroke="#63b8ff" points="170.12,-120.12 180.68,-120.95 172.94,-113.71 170.12,-120.12"/>
</g>
<!-- Node13&#45;&gt;Node4 -->
<g id="edge17" class="edge">
<title>Node13&#45;&gt;Node4</title>
<path fill="none" stroke="#63b8ff" d="M526.76,-115.27C502.73,-98.79 477.61,-74.87 495.5,-55 521.6,-26.02 792.08,-14.6 886.89,-11.46"/>
<polygon fill="#63b8ff" stroke="#63b8ff" points="524.86,-118.21 535.14,-120.77 528.7,-112.36 524.86,-118.21"/>
</g>
<!-- Node14 -->
<g id="node14" class="node">
<title>Node14</title>
<g id="a_node14"><a xlink:href="../../d0/dc0/FMC__files_8c.html" target="_top" xlink:title=" ">
<polygon fill="white" stroke="#666666" points="617,-79.5 504,-79.5 504,-60.5 617,-60.5 617,-79.5"/>
<text text-anchor="middle" x="560.5" y="-67.5" font-family="Helvetica,sans-Serif" font-size="10.00">src/files/FMC_files.c</text>
</a>
</g>
</g>
<!-- Node13&#45;&gt;Node14 -->
<g id="edge18" class="edge">
<title>Node13&#45;&gt;Node14</title>
<path fill="none" stroke="#63b8ff" d="M560.5,-110.6C560.5,-99.8 560.5,-87.78 560.5,-79.84"/>
<polygon fill="#63b8ff" stroke="#63b8ff" points="557,-110.8 560.5,-120.8 564,-110.8 557,-110.8"/>
</g>
<!-- Node15 -->
<g id="node15" class="node">
<title>Node15</title>
<g id="a_node15"><a xlink:href="../../dc/d5e/FMC__paths_8c.html" target="_top" xlink:title=" ">
<polygon fill="white" stroke="#666666" points="754,-79.5 635,-79.5 635,-60.5 754,-60.5 754,-79.5"/>
<text text-anchor="middle" x="694.5" y="-67.5" font-family="Helvetica,sans-Serif" font-size="10.00">src/files/FMC_paths.c</text>
</a>
</g>
</g>
<!-- Node13&#45;&gt;Node15 -->
<g id="edge19" class="edge">
<title>Node13&#45;&gt;Node15</title>
<path fill="none" stroke="#63b8ff" d="M598.98,-116.62C624.55,-104.41 656.94,-88.94 676.67,-79.52"/>
<polygon fill="#63b8ff" stroke="#63b8ff" points="597.42,-113.49 589.91,-120.95 600.44,-119.8 597.42,-113.49"/>
</g>
<!-- Node16&#45;&gt;Node6 -->
<g id="edge21" class="edge">
<title>Node16&#45;&gt;Node6</title>
<path fill="none" stroke="#63b8ff" d="M684.71,-160.93C680.95,-171.94 675.52,-184.32 670.66,-192.37"/>
<polygon fill="#63b8ff" stroke="#63b8ff" points="688.06,-161.95 687.63,-151.36 681.36,-159.9 688.06,-161.95"/>
</g>
<!-- Node17 -->
<g id="node17" class="node">
<title>Node17</title>
<g id="a_node17"><a xlink:href="../../d2/daf/FMC__str__view_8c.html" target="_top" xlink:title=" ">
<polygon fill="white" stroke="#666666" points="891,-85 772,-85 772,-55 891,-55 891,-85"/>
<text text-anchor="start" x="780" y="-73" font-family="Helvetica,sans-Serif" font-size="10.00">src/general/utils/FMC</text>
<text text-anchor="middle" x="831.5" y="-62" font-family="Helvetica,sans-Serif" font-size="10.00">_str_view.c</text>
</a>
</g>
</g>
<!-- Node16&#45;&gt;Node17 -->
<g id="edge22" class="edge">
<title>Node16&#45;&gt;Node17</title>
<path fill="none" stroke="#63b8ff" d="M728.49,-116.78C751.19,-106.69 778.98,-94.34 799.97,-85.01"/>
<polygon fill="#63b8ff" stroke="#63b8ff" points="726.82,-113.7 719.1,-120.95 729.66,-120.09 726.82,-113.7"/>
</g>
<!-- Node18&#45;&gt;Node6 -->
<g id="edge25" class="edge">
<title>Node18&#45;&gt;Node6</title>
<path fill="none" stroke="#63b8ff" d="M667.29,-309.76C663.32,-301.57 659.5,-292.12 657.5,-283 651.9,-257.44 657.22,-226.28 660.44,-211.53"/>
<polygon fill="#63b8ff" stroke="#63b8ff" points="664.21,-311.43 671.91,-318.71 670.43,-308.22 664.21,-311.43"/>
</g>
<!-- Node18&#45;&gt;Node19 -->
<g id="edge26" class="edge">
<title>Node18&#45;&gt;Node19</title>
<path fill="none" stroke="#63b8ff" d="M697.36,-310.53C704.18,-301.43 711.85,-291.19 717.88,-283.16"/>
<polygon fill="#63b8ff" stroke="#63b8ff" points="694.35,-308.7 691.15,-318.8 699.95,-312.9 694.35,-308.7"/>
</g>
<!-- Node19&#45;&gt;Node6 -->
<g id="edge27" class="edge">
<title>Node19&#45;&gt;Node6</title>
<path fill="none" stroke="#63b8ff" d="M706.44,-245.6C694.57,-234.1 680.57,-220.52 671.62,-211.84"/>
<polygon fill="#63b8ff" stroke="#63b8ff" points="704.24,-248.35 713.85,-252.8 709.11,-243.32 704.24,-248.35"/>
</g>
<!-- Node20&#45;&gt;Node6 -->
<g id="edge30" class="edge">
<title>Node20&#45;&gt;Node6</title>
<path fill="none" stroke="#63b8ff" d="M849.78,-310.23C838.8,-292.43 821.42,-268.24 800.5,-253 771.66,-232 733.1,-219.01 704.06,-211.56"/>
<polygon fill="#63b8ff" stroke="#63b8ff" points="846.8,-312.07 854.92,-318.87 852.81,-308.49 846.8,-312.07"/>
</g>
<!-- Node20&#45;&gt;Node19 -->
<g id="edge31" class="edge">
<title>Node20&#45;&gt;Node19</title>
<path fill="none" stroke="#63b8ff" d="M823.79,-314.51C802.77,-304.47 777.2,-292.26 757.84,-283.01"/>
<polygon fill="#63b8ff" stroke="#63b8ff" points="822.56,-317.8 833.09,-318.95 825.58,-311.49 822.56,-317.8"/>
</g>
<!-- Node20&#45;&gt;Node21 -->
<g id="edge32" class="edge">
<title>Node20&#45;&gt;Node21</title>
<path fill="none" stroke="#63b8ff" d="M878.3,-310.53C884.7,-301.43 891.89,-291.19 897.54,-283.16"/>
<polygon fill="#63b8ff" stroke="#63b8ff" points="875.38,-308.6 872.49,-318.8 881.1,-312.63 875.38,-308.6"/>
</g>
<!-- Node21&#45;&gt;Node6 -->
<g id="edge33" class="edge">
<title>Node21&#45;&gt;Node6</title>
<path fill="none" stroke="#63b8ff" d="M843.81,-250.36C796.15,-237.91 732.92,-221.4 695.11,-211.52"/>
<polygon fill="#63b8ff" stroke="#63b8ff" points="843.17,-253.81 853.73,-252.95 844.94,-247.04 843.17,-253.81"/>
</g>
<!-- Node22 -->
<g id="node22" class="node">
<title>Node22</title>
<g id="a_node22"><a xlink:href="../../d0/ddd/FMC__globals_8c.html" target="_top" xlink:title=" ">
<polygon fill="white" stroke="#666666" points="967,-217 848,-217 848,-187 967,-187 967,-217"/>
<text text-anchor="start" x="856" y="-205" font-family="Helvetica,sans-Serif" font-size="10.00">src/general/utils/FMC</text>
<text text-anchor="middle" x="907.5" y="-194" font-family="Helvetica,sans-Serif" font-size="10.00">_globals.c</text>
</a>
</g>
</g>
<!-- Node21&#45;&gt;Node22 -->
<g id="edge34" class="edge">
<title>Node21&#45;&gt;Node22</title>
<path fill="none" stroke="#63b8ff" d="M907.5,-242.54C907.5,-233.96 907.5,-224.61 907.5,-217.16"/>
<polygon fill="#63b8ff" stroke="#63b8ff" points="904,-242.8 907.5,-252.8 911,-242.8 904,-242.8"/>
</g>
<!-- Node24&#45;&gt;Node6 -->
<g id="edge37" class="edge">
<title>Node24&#45;&gt;Node6</title>
<path fill="none" stroke="#63b8ff" d="M560.92,-311.24C588.22,-282.15 635.37,-231.91 654.29,-211.75"/>
<polygon fill="#63b8ff" stroke="#63b8ff" points="558.08,-309.15 553.79,-318.84 563.18,-313.94 558.08,-309.15"/>
</g>
<!-- Node24&#45;&gt;Node23 -->
<g id="edge38" class="edge">
<title>Node24&#45;&gt;Node23</title>
<path fill="none" stroke="#63b8ff" d="M528.48,-309.68C523.89,-300.79 518.82,-290.95 514.8,-283.16"/>
<polygon fill="#63b8ff" stroke="#63b8ff" points="525.48,-311.51 533.18,-318.8 531.7,-308.3 525.48,-311.51"/>
</g>
<!-- Node25&#45;&gt;Node6 -->
<g id="edge41" class="edge">
<title>Node25&#45;&gt;Node6</title>
<path fill="none" stroke="#63b8ff" d="M441.58,-375.84C424.73,-344.47 401.95,-288.36 430.5,-253 450.27,-228.52 529.04,-215.45 589.37,-208.89"/>
<polygon fill="#63b8ff" stroke="#63b8ff" points="438.61,-377.71 446.55,-384.73 444.72,-374.29 438.61,-377.71"/>
</g>
</g>
</svg>
