<?xml version="1.0" encoding="UTF-8" standalone="no"?>
<!DOCTYPE svg PUBLIC "-//W3C//DTD SVG 1.1//EN"
 "http://www.w3.org/Graphics/SVG/1.1/DTD/svg11.dtd">
<!-- Generated by graphviz version 2.43.0 (0)
 -->
<!-- Title: src/general/preprocessor/FMC_attributes.h Pages: 1 -->
<!--zoomable 478 -->
<svg id="main" version="1.1" xmlns="http://www.w3.org/2000/svg" xmlns:xlink="http://www.w3.org/1999/xlink" xml:space="preserve" onload="init(evt)">
<style type="text/css"><![CDATA[
.edge:hover path { stroke: red; }
.edge:hover polygon { stroke: red; fill: red; }
]]></style>
<script type="text/javascript"><![CDATA[
var edges = document.getElementsByTagName('g');
if (edges && edges.length) {
  for (var i=0;i<edges.length;i++) {
    if (edges[i].id.substr(0,4)=='edge') {
      edges[i].setAttribute('class','edge');
    }
  }
}
]]></script>
        <defs>
                <circle id="rim" cx="0" cy="0" r="7"/>
                <circle id="rim2" cx="0" cy="0" r="3.5"/>
                <g id="zoomPlus">
                        <use xlink:href="#rim" fill="#404040">
                                <set attributeName="fill" to="#808080" begin="zoomplus.mouseover" end="zoomplus.mouseout"/>
                        </use>
                        <path d="M-4,0h8M0,-4v8" fill="none" stroke="white" stroke-width="1.5" pointer-events="none"/>
                </g>
                <g id="zoomMin">
                        <use xlink:href="#rim" fill="#404040">
                                <set attributeName="fill" to="#808080" begin="zoomminus.mouseover" end="zoomminus.mouseout"/>
                        </use>
                        <path d="M-4,0h8" fill="none" stroke="white" stroke-width="1.5" pointer-events="none"/>
                </g>
                <g id="dirArrow">
                        <path fill="none" stroke="white" stroke-width="1.5" d="M0,-3.0v7 M-2.5,-0.5L0,-3.0L2.5,-0.5"/>
                </g>
               <g id="resetDef">
                       <use xlink:href="#rim2" fill="#404040">
                               <set attributeName="fill" to="#808080" begin="reset.mouseover" end="reset.mouseout"/>
                       </use>
               </g>
        </defs>

<script type="text/javascript">
var viewWidth = 921;
var viewHeight = 478;
var sectionId = 'dynsection-1';
</script>
<script xlink:href="../../svgpan.js"/>
<svg id="graph" class="graph">
<g id="viewport">
<title>src/general/preprocessor/FMC_attributes.h</title>
<!-- Node1 -->
<g id="node1" class="node">
<title>Node1</title>
<g id="a_node1"><a xlink:title=" ">
<polygon fill="#999999" stroke="#666666" points="517.5,-470 380.5,-470 380.5,-440 517.5,-440 517.5,-470"/>
<text text-anchor="start" x="388.5" y="-458" font-family="Helvetica,sans-Serif" font-size="10.00">src/general/preprocessor</text>
<text text-anchor="middle" x="449" y="-447" font-family="Helvetica,sans-Serif" font-size="10.00">/FMC_attributes.h</text>
</a>
</g>
</g>
<!-- Node2 -->
<g id="node2" class="node">
<title>Node2</title>
<g id="a_node2"><a xlink:href="../../d0/d28/FMC__macros_8h.html" target="_top" xlink:title=" ">
<polygon fill="white" stroke="#666666" points="517.5,-404 380.5,-404 380.5,-374 517.5,-374 517.5,-404"/>
<text text-anchor="start" x="388.5" y="-392" font-family="Helvetica,sans-Serif" font-size="10.00">src/general/preprocessor</text>
<text text-anchor="middle" x="449" y="-381" font-family="Helvetica,sans-Serif" font-size="10.00">/FMC_macros.h</text>
</a>
</g>
</g>
<!-- Node1&#45;&gt;Node2 -->
<g id="edge1" class="edge">
<title>Node1&#45;&gt;Node2</title>
<path fill="none" stroke="#63b8ff" d="M442.43,-429.83C442.02,-421.17 442.31,-411.7 443.29,-404.16"/>
<polygon fill="#63b8ff" stroke="#63b8ff" points="438.95,-430.13 443.28,-439.8 445.92,-429.54 438.95,-430.13"/>
</g>
<!-- Node22 -->
<g id="node22" class="node">
<title>Node22</title>
<g id="a_node22"><a xlink:href="../../d4/d06/FMC__deprecated_8h.html" target="_top" xlink:title=" ">
<polygon fill="white" stroke="#666666" points="733.5,-404 614.5,-404 614.5,-374 733.5,-374 733.5,-404"/>
<text text-anchor="start" x="622.5" y="-392" font-family="Helvetica,sans-Serif" font-size="10.00">src/general/utils/FMC</text>
<text text-anchor="middle" x="674" y="-381" font-family="Helvetica,sans-Serif" font-size="10.00">_deprecated.h</text>
</a>
</g>
</g>
<!-- Node1&#45;&gt;Node22 -->
<g id="edge36" class="edge">
<title>Node1&#45;&gt;Node22</title>
<path fill="none" stroke="#63b8ff" d="M508.34,-437.12C544.62,-426.8 590.47,-413.76 624.74,-404.01"/>
<polygon fill="#63b8ff" stroke="#63b8ff" points="507.04,-433.85 498.38,-439.95 508.95,-440.59 507.04,-433.85"/>
</g>
<!-- Node2&#45;&gt;Node1 -->
<g id="edge20" class="edge">
<title>Node2&#45;&gt;Node1</title>
<path fill="none" stroke="#63b8ff" d="M455.57,-414.13C455.98,-422.78 455.7,-432.26 454.72,-439.8"/>
<polygon fill="#63b8ff" stroke="#63b8ff" points="459.05,-413.83 454.71,-404.16 452.08,-414.43 459.05,-413.83"/>
</g>
<!-- Node3 -->
<g id="node3" class="node">
<title>Node3</title>
<g id="a_node3"><a xlink:href="../../d4/db9/FMC__wrapper_8h.html" target="_top" xlink:title=" ">
<polygon fill="white" stroke="#666666" points="147.5,-332.5 18.5,-332.5 18.5,-313.5 147.5,-313.5 147.5,-332.5"/>
<text text-anchor="middle" x="83" y="-320.5" font-family="Helvetica,sans-Serif" font-size="10.00">src/cpp/FMC_wrapper.h</text>
</a>
</g>
</g>
<!-- Node2&#45;&gt;Node3 -->
<g id="edge2" class="edge">
<title>Node2&#45;&gt;Node3</title>
<path fill="none" stroke="#63b8ff" d="M370.14,-374.32C312.47,-364.31 232.37,-350.37 162,-338 151.99,-336.24 141.26,-334.35 131.04,-332.54"/>
<polygon fill="#63b8ff" stroke="#63b8ff" points="369.82,-377.82 380.27,-376.08 371.02,-370.93 369.82,-377.82"/>
</g>
<!-- Node6 -->
<g id="node6" class="node">
<title>Node6</title>
<g id="a_node6"><a xlink:href="../../d9/de1/FMC__general_8h.html" target="_top" xlink:title=" ">
<polygon fill="white" stroke="#666666" points="430,-206 284,-206 284,-187 430,-187 430,-206"/>
<text text-anchor="middle" x="357" y="-194" font-family="Helvetica,sans-Serif" font-size="10.00">src/general/FMC_general.h</text>
</a>
</g>
</g>
<!-- Node2&#45;&gt;Node6 -->
<g id="edge5" class="edge">
<title>Node2&#45;&gt;Node6</title>
<path fill="none" stroke="#63b8ff" d="M370.44,-383.23C304.26,-377.37 216.96,-364.7 195,-338 169.8,-307.35 222.23,-249.47 231,-242 252.72,-223.5 282.66,-212.5 307.9,-206.07"/>
<polygon fill="#63b8ff" stroke="#63b8ff" points="370.19,-386.72 380.45,-384.07 370.78,-379.74 370.19,-386.72"/>
</g>
<!-- Node16 -->
<g id="node16" class="node">
<title>Node16</title>
<g id="a_node16"><a xlink:href="../../d6/d25/FMC__enums_8h.html" target="_top" xlink:title=" ">
<polygon fill="white" stroke="#666666" points="329.5,-338 204.5,-338 204.5,-308 329.5,-308 329.5,-338"/>
<text text-anchor="start" x="212.5" y="-326" font-family="Helvetica,sans-Serif" font-size="10.00">src/general/types/FMC</text>
<text text-anchor="middle" x="267" y="-315" font-family="Helvetica,sans-Serif" font-size="10.00">_enums.h</text>
</a>
</g>
</g>
<!-- Node2&#45;&gt;Node16 -->
<g id="edge21" class="edge">
<title>Node2&#45;&gt;Node16</title>
<path fill="none" stroke="#63b8ff" d="M399.49,-370.59C370.39,-360.36 334.09,-347.59 306.85,-338.01"/>
<polygon fill="#63b8ff" stroke="#63b8ff" points="398.46,-373.94 409.06,-373.95 400.79,-367.34 398.46,-373.94"/>
</g>
<!-- Node17 -->
<g id="node17" class="node">
<title>Node17</title>
<g id="a_node17"><a xlink:href="../../d5/de5/FMC__structs_8h.html" target="_top" xlink:title=" ">
<polygon fill="white" stroke="#666666" points="374.5,-272 249.5,-272 249.5,-242 374.5,-242 374.5,-272"/>
<text text-anchor="start" x="257.5" y="-260" font-family="Helvetica,sans-Serif" font-size="10.00">src/general/types/FMC</text>
<text text-anchor="middle" x="312" y="-249" font-family="Helvetica,sans-Serif" font-size="10.00">_structs.h</text>
</a>
</g>
</g>
<!-- Node2&#45;&gt;Node17 -->
<g id="edge25" class="edge">
<title>Node2&#45;&gt;Node17</title>
<path fill="none" stroke="#63b8ff" d="M416.74,-368.41C403.77,-359.83 389.06,-349.18 377,-338 354.69,-317.31 333.35,-288.82 321.53,-272.02"/>
<polygon fill="#63b8ff" stroke="#63b8ff" points="415.09,-371.51 425.39,-374 418.89,-365.63 415.09,-371.51"/>
</g>
<!-- Node18 -->
<g id="node18" class="node">
<title>Node18</title>
<g id="a_node18"><a xlink:href="../../df/df8/FMC__typedefs_8h.html" target="_top" xlink:title=" ">
<polygon fill="white" stroke="#666666" points="511.5,-338 386.5,-338 386.5,-308 511.5,-308 511.5,-338"/>
<text text-anchor="start" x="394.5" y="-326" font-family="Helvetica,sans-Serif" font-size="10.00">src/general/types/FMC</text>
<text text-anchor="middle" x="449" y="-315" font-family="Helvetica,sans-Serif" font-size="10.00">_typedefs.h</text>
</a>
</g>
</g>
<!-- Node2&#45;&gt;Node18 -->
<g id="edge26" class="edge">
<title>Node2&#45;&gt;Node18</title>
<path fill="none" stroke="#63b8ff" d="M449,-363.54C449,-354.96 449,-345.61 449,-338.16"/>
<polygon fill="#63b8ff" stroke="#63b8ff" points="445.5,-363.8 449,-373.8 452.5,-363.8 445.5,-363.8"/>
</g>
<!-- Node19 -->
<g id="node19" class="node">
<title>Node19</title>
<g id="a_node19"><a xlink:href="../../de/d86/FMC__globals_8h.html" target="_top" xlink:title=" ">
<polygon fill="white" stroke="#666666" points="550.5,-272 431.5,-272 431.5,-242 550.5,-242 550.5,-272"/>
<text text-anchor="start" x="439.5" y="-260" font-family="Helvetica,sans-Serif" font-size="10.00">src/general/utils/FMC</text>
<text text-anchor="middle" x="491" y="-249" font-family="Helvetica,sans-Serif" font-size="10.00">_globals.h</text>
</a>
</g>
</g>
<!-- Node2&#45;&gt;Node19 -->
<g id="edge35" class="edge">
<title>Node2&#45;&gt;Node19</title>
<path fill="none" stroke="#63b8ff" d="M490.11,-368.62C501.94,-360.87 513.41,-350.71 520,-338 531.43,-315.97 515.37,-288.4 502.98,-272.05"/>
<polygon fill="#63b8ff" stroke="#63b8ff" points="488.24,-365.66 481.51,-373.84 491.87,-371.65 488.24,-365.66"/>
</g>
<!-- Node20 -->
<g id="node20" class="node">
<title>Node20</title>
<g id="a_node20"><a xlink:href="../../de/dab/FMC__errors_8c.html" target="_top" xlink:title=" ">
<polygon fill="white" stroke="#666666" points="687.5,-272 568.5,-272 568.5,-242 687.5,-242 687.5,-272"/>
<text text-anchor="start" x="576.5" y="-260" font-family="Helvetica,sans-Serif" font-size="10.00">src/general/utils/FMC</text>
<text text-anchor="middle" x="628" y="-249" font-family="Helvetica,sans-Serif" font-size="10.00">_errors.c</text>
</a>
</g>
</g>
<!-- Node2&#45;&gt;Node20 -->
<g id="edge31" class="edge">
<title>Node2&#45;&gt;Node20</title>
<path fill="none" stroke="#63b8ff" d="M485.52,-369.08C501.46,-360.3 520.1,-349.32 536,-338 565.14,-317.25 595.9,-289.03 613.44,-272.25"/>
<polygon fill="#63b8ff" stroke="#63b8ff" points="483.61,-366.14 476.49,-373.98 486.95,-372.29 483.61,-366.14"/>
</g>
<!-- Node21 -->
<g id="node21" class="node">
<title>Node21</title>
<g id="a_node21"><a xlink:href="../../dd/ddf/FMC__errors_8h.html" target="_top" xlink:title=" ">
<polygon fill="white" stroke="#666666" points="725.5,-338 606.5,-338 606.5,-308 725.5,-308 725.5,-338"/>
<text text-anchor="start" x="614.5" y="-326" font-family="Helvetica,sans-Serif" font-size="10.00">src/general/utils/FMC</text>
<text text-anchor="middle" x="666" y="-315" font-family="Helvetica,sans-Serif" font-size="10.00">_errors.h</text>
</a>
</g>
</g>
<!-- Node2&#45;&gt;Node21 -->
<g id="edge32" class="edge">
<title>Node2&#45;&gt;Node21</title>
<path fill="none" stroke="#63b8ff" d="M506.23,-371.12C541.22,-360.8 585.44,-347.76 618.49,-338.01"/>
<polygon fill="#63b8ff" stroke="#63b8ff" points="505.22,-367.77 496.62,-373.95 507.2,-374.48 505.22,-367.77"/>
</g>
<!-- Node4 -->
<g id="node4" class="node">
<title>Node4</title>
<g id="a_node4"><a xlink:href="../../de/d47/FMC_8h.html" target="_top" xlink:title=" ">
<polygon fill="white" stroke="#666666" points="162.5,-19 97.5,-19 97.5,0 162.5,0 162.5,-19"/>
<text text-anchor="middle" x="130" y="-7" font-family="Helvetica,sans-Serif" font-size="10.00">src/FMC.h</text>
</a>
</g>
</g>
<!-- Node3&#45;&gt;Node4 -->
<g id="edge3" class="edge">
<title>Node3&#45;&gt;Node4</title>
<path fill="none" stroke="#63b8ff" d="M57.75,-307.91C44.36,-299.21 28.71,-286.87 19,-272 0.31,-243.39 0,-231.67 0,-197.5 0,-197.5 0,-197.5 0,-135 0,-75.47 71.99,-35.6 108.82,-19.09"/>
<polygon fill="#63b8ff" stroke="#63b8ff" points="56.21,-311.07 66.56,-313.34 59.88,-305.11 56.21,-311.07"/>
</g>
<!-- Node5 -->
<g id="node5" class="node">
<title>Node5</title>
<g id="a_node5"><a xlink:href="../../dd/d0d/FMC__dir__wrapper_8cpp.html" target="_top" xlink:title=" ">
<polygon fill="white" stroke="#666666" points="147.5,-272 28.5,-272 28.5,-242 147.5,-242 147.5,-272"/>
<text text-anchor="start" x="36.5" y="-260" font-family="Helvetica,sans-Serif" font-size="10.00">src/cpp/FMC_dir/FMC</text>
<text text-anchor="middle" x="88" y="-249" font-family="Helvetica,sans-Serif" font-size="10.00">_dir_wrapper.cpp</text>
</a>
</g>
</g>
<!-- Node3&#45;&gt;Node5 -->
<g id="edge4" class="edge">
<title>Node3&#45;&gt;Node5</title>
<path fill="none" stroke="#63b8ff" d="M84.46,-303.35C85.23,-293.47 86.16,-281.51 86.88,-272.36"/>
<polygon fill="#63b8ff" stroke="#63b8ff" points="80.96,-303.13 83.67,-313.37 87.94,-303.67 80.96,-303.13"/>
</g>
<!-- Node6&#45;&gt;Node4 -->
<g id="edge6" class="edge">
<title>Node6&#45;&gt;Node4</title>
<path fill="none" stroke="#63b8ff" d="M273.79,-190.67C214.52,-185.28 142.1,-174.07 123,-151 90.61,-111.87 115.47,-43.57 125.94,-19.34"/>
<polygon fill="#63b8ff" stroke="#63b8ff" points="273.67,-194.17 283.94,-191.55 274.27,-187.2 273.67,-194.17"/>
</g>
<!-- Node7 -->
<g id="node7" class="node">
<title>Node7</title>
<g id="a_node7"><a xlink:href="../../db/d26/FMC__code__utils_8h.html" target="_top" xlink:title=" ">
<polygon fill="white" stroke="#666666" points="240,-151 132,-151 132,-121 240,-121 240,-151"/>
<text text-anchor="start" x="140" y="-139" font-family="Helvetica,sans-Serif" font-size="10.00">src/code_utils/FMC</text>
<text text-anchor="middle" x="186" y="-128" font-family="Helvetica,sans-Serif" font-size="10.00">_code_utils.h</text>
</a>
</g>
</g>
<!-- Node6&#45;&gt;Node7 -->
<g id="edge7" class="edge">
<title>Node6&#45;&gt;Node7</title>
<path fill="none" stroke="#63b8ff" d="M322.53,-183.71C294.98,-174.28 256.28,-161.04 227.11,-151.06"/>
<polygon fill="#63b8ff" stroke="#63b8ff" points="321.54,-187.07 332.14,-186.99 323.81,-180.45 321.54,-187.07"/>
</g>
<!-- Node8 -->
<g id="node8" class="node">
<title>Node8</title>
<g id="a_node8"><a xlink:href="../../db/d30/FMC__encodings_8h.html" target="_top" xlink:title=" ">
<polygon fill="white" stroke="#666666" points="417,-151 265,-151 265,-121 417,-121 417,-151"/>
<text text-anchor="start" x="273" y="-139" font-family="Helvetica,sans-Serif" font-size="10.00">src/data_analyze/encodings</text>
<text text-anchor="middle" x="341" y="-128" font-family="Helvetica,sans-Serif" font-size="10.00">/FMC_encodings.h</text>
</a>
</g>
</g>
<!-- Node6&#45;&gt;Node8 -->
<g id="edge9" class="edge">
<title>Node6&#45;&gt;Node8</title>
<path fill="none" stroke="#63b8ff" d="M352,-177.22C349.7,-168.79 347,-158.95 344.86,-151.11"/>
<polygon fill="#63b8ff" stroke="#63b8ff" points="348.62,-178.15 354.64,-186.87 355.38,-176.3 348.62,-178.15"/>
</g>
<!-- Node11 -->
<g id="node11" class="node">
<title>Node11</title>
<g id="a_node11"><a xlink:href="../../d9/db5/FMC__strings_8h.html" target="_top" xlink:title=" ">
<polygon fill="white" stroke="#666666" points="570.5,-151 435.5,-151 435.5,-121 570.5,-121 570.5,-151"/>
<text text-anchor="start" x="443.5" y="-139" font-family="Helvetica,sans-Serif" font-size="10.00">src/data_analyze/strings</text>
<text text-anchor="middle" x="503" y="-128" font-family="Helvetica,sans-Serif" font-size="10.00">/FMC_strings.h</text>
</a>
</g>
</g>
<!-- Node6&#45;&gt;Node11 -->
<g id="edge13" class="edge">
<title>Node6&#45;&gt;Node11</title>
<path fill="none" stroke="#63b8ff" d="M387.68,-183.21C411.11,-173.82 443.44,-160.87 467.9,-151.06"/>
<polygon fill="#63b8ff" stroke="#63b8ff" points="386.21,-180.03 378.23,-186.99 388.81,-186.52 386.21,-180.03"/>
</g>
<!-- Node13 -->
<g id="node13" class="node">
<title>Node13</title>
<g id="a_node13"><a xlink:href="../../d2/deb/FMC__file__management_8h.html" target="_top" xlink:title=" ">
<polygon fill="white" stroke="#666666" points="691.5,-151 592.5,-151 592.5,-121 691.5,-121 691.5,-151"/>
<text text-anchor="start" x="600.5" y="-139" font-family="Helvetica,sans-Serif" font-size="10.00">src/files/FMC_file</text>
<text text-anchor="middle" x="642" y="-128" font-family="Helvetica,sans-Serif" font-size="10.00">_management.h</text>
</a>
</g>
</g>
<!-- Node6&#45;&gt;Node13 -->
<g id="edge16" class="edge">
<title>Node6&#45;&gt;Node13</title>
<path fill="none" stroke="#63b8ff" d="M410.7,-185.06C455.7,-176.23 521.61,-163.13 579,-151 583.38,-150.07 587.94,-149.09 592.5,-148.1"/>
<polygon fill="#63b8ff" stroke="#63b8ff" points="410,-181.63 400.86,-186.99 411.35,-188.5 410,-181.63"/>
</g>
<!-- Node7&#45;&gt;Node4 -->
<g id="edge8" class="edge">
<title>Node7&#45;&gt;Node4</title>
<path fill="none" stroke="#63b8ff" d="M166.58,-112.66C160.22,-104.41 153.61,-94.7 149,-85 138.35,-62.57 133.15,-33.41 131.1,-19.13"/>
<polygon fill="#63b8ff" stroke="#63b8ff" points="164.03,-115.07 173.03,-120.66 169.48,-110.68 164.03,-115.07"/>
</g>
<!-- Node9 -->
<g id="node9" class="node">
<title>Node9</title>
<g id="a_node9"><a xlink:href="../../da/db0/FMC__data__analyze_8h.html" target="_top" xlink:title=" ">
<polygon fill="white" stroke="#666666" points="452,-85 328,-85 328,-55 452,-55 452,-85"/>
<text text-anchor="start" x="336" y="-73" font-family="Helvetica,sans-Serif" font-size="10.00">src/data_analyze/FMC</text>
<text text-anchor="middle" x="390" y="-62" font-family="Helvetica,sans-Serif" font-size="10.00">_data_analyze.h</text>
</a>
</g>
</g>
<!-- Node8&#45;&gt;Node9 -->
<g id="edge10" class="edge">
<title>Node8&#45;&gt;Node9</title>
<path fill="none" stroke="#63b8ff" d="M357.99,-112.81C365.01,-103.64 372.94,-93.28 379.16,-85.16"/>
<polygon fill="#63b8ff" stroke="#63b8ff" points="355.17,-110.73 351.87,-120.8 360.73,-114.98 355.17,-110.73"/>
</g>
<!-- Node10 -->
<g id="node10" class="node">
<title>Node10</title>
<g id="a_node10"><a xlink:href="../../db/dc4/FMC__encodings_8c.html" target="_top" xlink:title=" ">
<polygon fill="white" stroke="#666666" points="310,-85 158,-85 158,-55 310,-55 310,-85"/>
<text text-anchor="start" x="166" y="-73" font-family="Helvetica,sans-Serif" font-size="10.00">src/data_analyze/encodings</text>
<text text-anchor="middle" x="234" y="-62" font-family="Helvetica,sans-Serif" font-size="10.00">/FMC_encodings.c</text>
</a>
</g>
</g>
<!-- Node8&#45;&gt;Node10 -->
<g id="edge12" class="edge">
<title>Node8&#45;&gt;Node10</title>
<path fill="none" stroke="#63b8ff" d="M308.72,-115.69C292.21,-105.82 272.47,-94.01 257.43,-85.01"/>
<polygon fill="#63b8ff" stroke="#63b8ff" points="307.14,-118.83 317.52,-120.95 310.73,-112.82 307.14,-118.83"/>
</g>
<!-- Node9&#45;&gt;Node4 -->
<g id="edge11" class="edge">
<title>Node9&#45;&gt;Node4</title>
<path fill="none" stroke="#63b8ff" d="M317.78,-52.75C267.04,-41.33 201.56,-26.6 162.84,-17.89"/>
<polygon fill="#63b8ff" stroke="#63b8ff" points="317.2,-56.21 327.72,-54.99 318.74,-49.38 317.2,-56.21"/>
</g>
<!-- Node11&#45;&gt;Node9 -->
<g id="edge14" class="edge">
<title>Node11&#45;&gt;Node9</title>
<path fill="none" stroke="#63b8ff" d="M469.4,-115.97C451.86,-106.03 430.77,-94.09 414.74,-85.01"/>
<polygon fill="#63b8ff" stroke="#63b8ff" points="467.78,-119.07 478.2,-120.95 471.23,-112.98 467.78,-119.07"/>
</g>
<!-- Node12 -->
<g id="node12" class="node">
<title>Node12</title>
<g id="a_node12"><a xlink:href="../../d1/d8c/FMC__chars_8c.html" target="_top" xlink:title=" ">
<polygon fill="white" stroke="#666666" points="605.5,-85 470.5,-85 470.5,-55 605.5,-55 605.5,-85"/>
<text text-anchor="start" x="478.5" y="-73" font-family="Helvetica,sans-Serif" font-size="10.00">src/data_analyze/strings</text>
<text text-anchor="middle" x="538" y="-62" font-family="Helvetica,sans-Serif" font-size="10.00">/FMC_chars.c</text>
</a>
</g>
</g>
<!-- Node11&#45;&gt;Node12 -->
<g id="edge15" class="edge">
<title>Node11&#45;&gt;Node12</title>
<path fill="none" stroke="#63b8ff" d="M515.6,-111.96C520.5,-103 525.95,-93.03 530.25,-85.16"/>
<polygon fill="#63b8ff" stroke="#63b8ff" points="512.5,-110.34 510.77,-120.8 518.64,-113.7 512.5,-110.34"/>
</g>
<!-- Node13&#45;&gt;Node4 -->
<g id="edge17" class="edge">
<title>Node13&#45;&gt;Node4</title>
<path fill="none" stroke="#63b8ff" d="M640.33,-110.81C637.69,-92.48 630.97,-68.25 614,-55 578.5,-27.28 265.58,-14.85 162.65,-11.48"/>
<polygon fill="#63b8ff" stroke="#63b8ff" points="636.86,-111.26 641.46,-120.8 643.81,-110.47 636.86,-111.26"/>
</g>
<!-- Node14 -->
<g id="node14" class="node">
<title>Node14</title>
<g id="a_node14"><a xlink:href="../../d0/dc0/FMC__files_8c.html" target="_top" xlink:title=" ">
<polygon fill="white" stroke="#666666" points="775.5,-79.5 662.5,-79.5 662.5,-60.5 775.5,-60.5 775.5,-79.5"/>
<text text-anchor="middle" x="719" y="-67.5" font-family="Helvetica,sans-Serif" font-size="10.00">src/files/FMC_files.c</text>
</a>
</g>
</g>
<!-- Node13&#45;&gt;Node14 -->
<g id="edge18" class="edge">
<title>Node13&#45;&gt;Node14</title>
<path fill="none" stroke="#63b8ff" d="M666.95,-114.26C680.96,-102.61 697.72,-88.69 708.36,-79.84"/>
<polygon fill="#63b8ff" stroke="#63b8ff" points="664.54,-111.71 659.09,-120.8 669.02,-117.1 664.54,-111.71"/>
</g>
<!-- Node15 -->
<g id="node15" class="node">
<title>Node15</title>
<g id="a_node15"><a xlink:href="../../dc/d5e/FMC__paths_8c.html" target="_top" xlink:title=" ">
<polygon fill="white" stroke="#666666" points="912.5,-79.5 793.5,-79.5 793.5,-60.5 912.5,-60.5 912.5,-79.5"/>
<text text-anchor="middle" x="853" y="-67.5" font-family="Helvetica,sans-Serif" font-size="10.00">src/files/FMC_paths.c</text>
</a>
</g>
</g>
<!-- Node13&#45;&gt;Node15 -->
<g id="edge19" class="edge">
<title>Node13&#45;&gt;Node15</title>
<path fill="none" stroke="#63b8ff" d="M697.88,-118.05C738.8,-105.64 792.63,-89.31 824.92,-79.52"/>
<polygon fill="#63b8ff" stroke="#63b8ff" points="696.86,-114.7 688.3,-120.95 698.89,-121.4 696.86,-114.7"/>
</g>
<!-- Node16&#45;&gt;Node6 -->
<g id="edge22" class="edge">
<title>Node16&#45;&gt;Node6</title>
<path fill="none" stroke="#63b8ff" d="M249.31,-299.71C238.17,-282.76 227.95,-259.47 240,-242 252.95,-223.21 274.96,-212.35 296.42,-206.08"/>
<polygon fill="#63b8ff" stroke="#63b8ff" points="246.49,-301.78 255.12,-307.93 252.21,-297.74 246.49,-301.78"/>
</g>
<!-- Node16&#45;&gt;Node17 -->
<g id="edge23" class="edge">
<title>Node16&#45;&gt;Node17</title>
<path fill="none" stroke="#63b8ff" d="M282.8,-299.53C289.2,-290.43 296.39,-280.19 302.04,-272.16"/>
<polygon fill="#63b8ff" stroke="#63b8ff" points="279.88,-297.6 276.99,-307.8 285.6,-301.63 279.88,-297.6"/>
</g>
<!-- Node17&#45;&gt;Node6 -->
<g id="edge24" class="edge">
<title>Node17&#45;&gt;Node6</title>
<path fill="none" stroke="#63b8ff" d="M329.08,-233.8C336.46,-224.21 344.66,-213.54 350.26,-206.27"/>
<polygon fill="#63b8ff" stroke="#63b8ff" points="326.22,-231.78 322.89,-241.84 331.76,-236.05 326.22,-231.78"/>
</g>
<!-- Node18&#45;&gt;Node6 -->
<g id="edge27" class="edge">
<title>Node18&#45;&gt;Node6</title>
<path fill="none" stroke="#63b8ff" d="M432.25,-299.33C411.56,-271.33 377.38,-225.08 363.33,-206.07"/>
<polygon fill="#63b8ff" stroke="#63b8ff" points="429.69,-301.76 438.45,-307.72 435.32,-297.6 429.69,-301.76"/>
</g>
<!-- Node18&#45;&gt;Node17 -->
<g id="edge28" class="edge">
<title>Node18&#45;&gt;Node17</title>
<path fill="none" stroke="#63b8ff" d="M409.72,-303.65C388.17,-293.58 361.88,-281.3 342,-272.01"/>
<polygon fill="#63b8ff" stroke="#63b8ff" points="408.39,-306.89 418.93,-307.95 411.36,-300.55 408.39,-306.89"/>
</g>
<!-- Node18&#45;&gt;Node19 -->
<g id="edge29" class="edge">
<title>Node18&#45;&gt;Node19</title>
<path fill="none" stroke="#63b8ff" d="M463.93,-299.24C469.86,-290.21 476.49,-280.11 481.7,-272.16"/>
<polygon fill="#63b8ff" stroke="#63b8ff" points="460.88,-297.52 458.32,-307.8 466.73,-301.36 460.88,-297.52"/>
</g>
<!-- Node19&#45;&gt;Node6 -->
<g id="edge30" class="edge">
<title>Node19&#45;&gt;Node6</title>
<path fill="none" stroke="#63b8ff" d="M449.57,-237.91C425.35,-227.34 395.87,-214.47 376.79,-206.14"/>
<polygon fill="#63b8ff" stroke="#63b8ff" points="448.34,-241.19 458.9,-241.99 451.14,-234.78 448.34,-241.19"/>
</g>
<!-- Node21&#45;&gt;Node6 -->
<g id="edge33" class="edge">
<title>Node21&#45;&gt;Node6</title>
<path fill="none" stroke="#63b8ff" d="M685.52,-299.74C698.36,-282.32 710.38,-258.39 696,-242 678.75,-222.34 524.57,-208.66 430.18,-202.04"/>
<polygon fill="#63b8ff" stroke="#63b8ff" points="682.69,-297.68 679.26,-307.7 688.19,-302 682.69,-297.68"/>
</g>
<!-- Node21&#45;&gt;Node20 -->
<g id="edge34" class="edge">
<title>Node21&#45;&gt;Node20</title>
<path fill="none" stroke="#63b8ff" d="M652.32,-298.96C647,-290 641.08,-280.03 636.41,-272.16"/>
<polygon fill="#63b8ff" stroke="#63b8ff" points="649.45,-300.98 657.57,-307.8 655.47,-297.41 649.45,-300.98"/>
</g>
<!-- Node22&#45;&gt;Node6 -->
<g id="edge37" class="edge">
<title>Node22&#45;&gt;Node6</title>
<path fill="none" stroke="#63b8ff" d="M707.96,-368.09C718.28,-360.15 728.37,-350.01 734,-338 752.49,-298.53 747.33,-270.09 714,-242 672.39,-206.93 522.03,-198.99 430.23,-197.49"/>
<polygon fill="#63b8ff" stroke="#63b8ff" points="705.82,-365.31 699.72,-373.97 709.89,-371.01 705.82,-365.31"/>
</g>
</g>
</svg>
        <g id="navigator" transform="translate(0 0)" fill="#404254">
                <rect fill="#f2f5e9" fill-opacity="0.5" stroke="#606060" stroke-width=".5" x="0" y="0" width="60" height="60"/>
                <use id="zoomplus" xlink:href="#zoomPlus" x="17" y="9" onmousedown="handleZoom(evt,'in')"/>
                <use id="zoomminus" xlink:href="#zoomMin" x="42" y="9" onmousedown="handleZoom(evt,'out')"/>
                <use id="reset" xlink:href="#resetDef" x="30" y="36" onmousedown="handleReset()"/>
                <g id="arrowUp" xlink:href="#dirArrow" transform="translate(30 24)" onmousedown="handlePan(0,-1)">
                  <use xlink:href="#rim" fill="#404040">
                        <set attributeName="fill" to="#808080" begin="arrowUp.mouseover" end="arrowUp.mouseout"/>
                  </use>
                  <path fill="none" stroke="white" stroke-width="1.5" d="M0,-3.0v7 M-2.5,-0.5L0,-3.0L2.5,-0.5"/>
                </g>
                <g id="arrowRight" xlink:href="#dirArrow" transform="rotate(90) translate(36 -43)" onmousedown="handlePan(1,0)">
                  <use xlink:href="#rim" fill="#404040">
                        <set attributeName="fill" to="#808080" begin="arrowRight.mouseover" end="arrowRight.mouseout"/>
                  </use>
                  <path fill="none" stroke="white" stroke-width="1.5" d="M0,-3.0v7 M-2.5,-0.5L0,-3.0L2.5,-0.5"/>
                </g>
                <g id="arrowDown" xlink:href="#dirArrow" transform="rotate(180) translate(-30 -48)" onmousedown="handlePan(0,1)">
                  <use xlink:href="#rim" fill="#404040">
                        <set attributeName="fill" to="#808080" begin="arrowDown.mouseover" end="arrowDown.mouseout"/>
                  </use>
                  <path fill="none" stroke="white" stroke-width="1.5" d="M0,-3.0v7 M-2.5,-0.5L0,-3.0L2.5,-0.5"/>
                </g>
                <g id="arrowLeft" xlink:href="#dirArrow" transform="rotate(270) translate(-36 17)" onmousedown="handlePan(-1,0)">
                  <use xlink:href="#rim" fill="#404040">
                        <set attributeName="fill" to="#808080" begin="arrowLeft.mouseover" end="arrowLeft.mouseout"/>
                  </use>
                  <path fill="none" stroke="white" stroke-width="1.5" d="M0,-3.0v7 M-2.5,-0.5L0,-3.0L2.5,-0.5"/>
                </g>
        </g>
        <svg viewBox="0 0 15 15" width="100%" height="30px" preserveAspectRatio="xMaxYMin meet">
         <g id="arrow_out" transform="scale(0.3 0.3)">
          <a xlink:href="FMC__attributes_8h__dep__incl_org.svg" target="_base">
           <rect id="button" ry="5" rx="5" y="6" x="6" height="38" width="38"
                fill="#f2f5e9" fill-opacity="0.5" stroke="#606060" stroke-width="1.0"/>
           <path id="arrow"
             d="M 11.500037,31.436501 C 11.940474,20.09759 22.043105,11.32322 32.158766,21.979434 L 37.068811,17.246167 C 37.068811,17.246167 37.088388,32 37.088388,32 L 22.160133,31.978069 C 22.160133,31.978069 26.997745,27.140456 26.997745,27.140456 C 18.528582,18.264221 13.291696,25.230495 11.500037,31.436501 z"
             style="fill:#404040;"/>
          </a>
         </g>
        </svg>
</svg>
