<?xml version="1.0" encoding="UTF-8" standalone="no"?>
<!DOCTYPE svg PUBLIC "-//W3C//DTD SVG 1.1//EN"
 "http://www.w3.org/Graphics/SVG/1.1/DTD/svg11.dtd">
<!-- Generated by graphviz version 2.43.0 (0)
 -->
<!-- Title: src/general/preprocessor/FMC_consts.h Pages: 1 -->
<!--zoomable 357 -->
<svg id="main" version="1.1" xmlns="http://www.w3.org/2000/svg" xmlns:xlink="http://www.w3.org/1999/xlink" xml:space="preserve" onload="init(evt)">
<style type="text/css"><![CDATA[
.edge:hover path { stroke: red; }
.edge:hover polygon { stroke: red; fill: red; }
]]></style>
<script type="text/javascript"><![CDATA[
var edges = document.getElementsByTagName('g');
if (edges && edges.length) {
  for (var i=0;i<edges.length;i++) {
    if (edges[i].id.substr(0,4)=='edge') {
      edges[i].setAttribute('class','edge');
    }
  }
}
]]></script>
        <defs>
                <circle id="rim" cx="0" cy="0" r="7"/>
                <circle id="rim2" cx="0" cy="0" r="3.5"/>
                <g id="zoomPlus">
                        <use xlink:href="#rim" fill="#404040">
                                <set attributeName="fill" to="#808080" begin="zoomplus.mouseover" end="zoomplus.mouseout"/>
                        </use>
                        <path d="M-4,0h8M0,-4v8" fill="none" stroke="white" stroke-width="1.5" pointer-events="none"/>
                </g>
                <g id="zoomMin">
                        <use xlink:href="#rim" fill="#404040">
                                <set attributeName="fill" to="#808080" begin="zoomminus.mouseover" end="zoomminus.mouseout"/>
                        </use>
                        <path d="M-4,0h8" fill="none" stroke="white" stroke-width="1.5" pointer-events="none"/>
                </g>
                <g id="dirArrow">
                        <path fill="none" stroke="white" stroke-width="1.5" d="M0,-3.0v7 M-2.5,-0.5L0,-3.0L2.5,-0.5"/>
                </g>
               <g id="resetDef">
                       <use xlink:href="#rim2" fill="#404040">
                               <set attributeName="fill" to="#808080" begin="reset.mouseover" end="reset.mouseout"/>
                       </use>
               </g>
        </defs>

<script type="text/javascript">
var viewWidth = 929;
var viewHeight = 357;
var sectionId = 'dynsection-0';
</script>
<script xlink:href="../../svgpan.js"/>
<svg id="graph" class="graph">
<g id="viewport">
<title>src/general/preprocessor/FMC_consts.h</title>
<!-- Node1 -->
<g id="node1" class="node">
<title>Node1</title>
<g id="a_node1"><a xlink:title=" ">
<polygon fill="#999999" stroke="#666666" points="533.92,-349 396.92,-349 396.92,-319 533.92,-319 533.92,-349"/>
<text text-anchor="start" x="404.92" y="-337" font-family="Helvetica,sans-Serif" font-size="10.00">src/general/preprocessor</text>
<text text-anchor="middle" x="465.42" y="-326" font-family="Helvetica,sans-Serif" font-size="10.00">/FMC_consts.h</text>
</a>
</g>
</g>
<!-- Node2 -->
<g id="node2" class="node">
<title>Node2</title>
<g id="a_node2"><a xlink:href="../../d9/de1/FMC__general_8h.html" target="_top" xlink:title=" ">
<polygon fill="white" stroke="#666666" points="462.42,-211.5 316.42,-211.5 316.42,-192.5 462.42,-192.5 462.42,-211.5"/>
<text text-anchor="middle" x="389.42" y="-199.5" font-family="Helvetica,sans-Serif" font-size="10.00">src/general/FMC_general.h</text>
</a>
</g>
</g>
<!-- Node1&#45;&gt;Node2 -->
<g id="edge1" class="edge">
<title>Node1&#45;&gt;Node2</title>
<path fill="none" stroke="#63b8ff" d="M386.72,-322.94C362.78,-315.77 338.98,-303.6 324.42,-283 305.22,-255.81 348.23,-225.9 373.19,-211.58"/>
<polygon fill="#63b8ff" stroke="#63b8ff" points="386.03,-326.38 396.6,-325.62 387.87,-319.62 386.03,-326.38"/>
</g>
<!-- Node15 -->
<g id="node15" class="node">
<title>Node15</title>
<g id="a_node15"><a xlink:href="../../d5/de5/FMC__structs_8h.html" target="_top" xlink:title=" ">
<polygon fill="white" stroke="#666666" points="457.92,-283 332.92,-283 332.92,-253 457.92,-253 457.92,-283"/>
<text text-anchor="start" x="340.92" y="-271" font-family="Helvetica,sans-Serif" font-size="10.00">src/general/types/FMC</text>
<text text-anchor="middle" x="395.42" y="-260" font-family="Helvetica,sans-Serif" font-size="10.00">_structs.h</text>
</a>
</g>
</g>
<!-- Node1&#45;&gt;Node15 -->
<g id="edge19" class="edge">
<title>Node1&#45;&gt;Node15</title>
<path fill="none" stroke="#63b8ff" d="M442.37,-311.92C432.05,-302.49 420.15,-291.61 410.91,-283.16"/>
<polygon fill="#63b8ff" stroke="#63b8ff" points="440.15,-314.63 449.89,-318.8 444.87,-309.47 440.15,-314.63"/>
</g>
<!-- Node16 -->
<g id="node16" class="node">
<title>Node16</title>
<g id="a_node16"><a xlink:href="../../dd/ddf/FMC__errors_8h.html" target="_top" xlink:title=" ">
<polygon fill="white" stroke="#666666" points="594.92,-283 475.92,-283 475.92,-253 594.92,-253 594.92,-283"/>
<text text-anchor="start" x="483.92" y="-271" font-family="Helvetica,sans-Serif" font-size="10.00">src/general/utils/FMC</text>
<text text-anchor="middle" x="535.42" y="-260" font-family="Helvetica,sans-Serif" font-size="10.00">_errors.h</text>
</a>
</g>
</g>
<!-- Node1&#45;&gt;Node16 -->
<g id="edge21" class="edge">
<title>Node1&#45;&gt;Node16</title>
<path fill="none" stroke="#63b8ff" d="M488.47,-311.92C498.8,-302.49 510.7,-291.61 519.93,-283.16"/>
<polygon fill="#63b8ff" stroke="#63b8ff" points="485.98,-309.47 480.96,-318.8 490.7,-314.63 485.98,-309.47"/>
</g>
<!-- Node18 -->
<g id="node18" class="node">
<title>Node18</title>
<g id="a_node18"><a xlink:href="../../de/d86/FMC__globals_8h.html" target="_top" xlink:title=" ">
<polygon fill="white" stroke="#666666" points="731.92,-283 612.92,-283 612.92,-253 731.92,-253 731.92,-283"/>
<text text-anchor="start" x="620.92" y="-271" font-family="Helvetica,sans-Serif" font-size="10.00">src/general/utils/FMC</text>
<text text-anchor="middle" x="672.42" y="-260" font-family="Helvetica,sans-Serif" font-size="10.00">_globals.h</text>
</a>
</g>
</g>
<!-- Node1&#45;&gt;Node18 -->
<g id="edge24" class="edge">
<title>Node1&#45;&gt;Node18</title>
<path fill="none" stroke="#63b8ff" d="M520.44,-315.99C553.75,-305.69 595.71,-292.72 627.1,-283.01"/>
<polygon fill="#63b8ff" stroke="#63b8ff" points="519.37,-312.66 510.85,-318.95 521.44,-319.34 519.37,-312.66"/>
</g>
<!-- Node3 -->
<g id="node3" class="node">
<title>Node3</title>
<g id="a_node3"><a xlink:href="../../de/d47/FMC_8h.html" target="_top" xlink:title=" ">
<polygon fill="white" stroke="#666666" points="163.92,-19 98.92,-19 98.92,0 163.92,0 163.92,-19"/>
<text text-anchor="middle" x="131.42" y="-7" font-family="Helvetica,sans-Serif" font-size="10.00">src/FMC.h</text>
</a>
</g>
</g>
<!-- Node2&#45;&gt;Node3 -->
<g id="edge2" class="edge">
<title>Node2&#45;&gt;Node3</title>
<path fill="none" stroke="#63b8ff" d="M306.2,-195.8C200.29,-188.32 28.68,-172.96 9.42,-151 -1.01,-139.1 -5.95,-80.24 12.42,-55 32.28,-27.72 70.91,-17.15 98.78,-13.06"/>
<polygon fill="#63b8ff" stroke="#63b8ff" points="306.01,-199.29 316.23,-196.5 306.5,-192.31 306.01,-199.29"/>
</g>
<!-- Node4 -->
<g id="node4" class="node">
<title>Node4</title>
<g id="a_node4"><a xlink:href="../../db/d26/FMC__code__utils_8h.html" target="_top" xlink:title=" ">
<polygon fill="white" stroke="#666666" points="126.42,-151 18.42,-151 18.42,-121 126.42,-121 126.42,-151"/>
<text text-anchor="start" x="26.42" y="-139" font-family="Helvetica,sans-Serif" font-size="10.00">src/code_utils/FMC</text>
<text text-anchor="middle" x="72.42" y="-128" font-family="Helvetica,sans-Serif" font-size="10.00">_code_utils.h</text>
</a>
</g>
</g>
<!-- Node2&#45;&gt;Node4 -->
<g id="edge3" class="edge">
<title>Node2&#45;&gt;Node4</title>
<path fill="none" stroke="#63b8ff" d="M336.91,-190.4C278.72,-178.65 185.35,-159.8 126.52,-147.92"/>
<polygon fill="#63b8ff" stroke="#63b8ff" points="336.5,-193.89 347,-192.44 337.89,-187.03 336.5,-193.89"/>
</g>
<!-- Node5 -->
<g id="node5" class="node">
<title>Node5</title>
<g id="a_node5"><a xlink:href="../../db/d30/FMC__encodings_8h.html" target="_top" xlink:title=" ">
<polygon fill="white" stroke="#666666" points="303.42,-151 151.42,-151 151.42,-121 303.42,-121 303.42,-151"/>
<text text-anchor="start" x="159.42" y="-139" font-family="Helvetica,sans-Serif" font-size="10.00">src/data_analyze/encodings</text>
<text text-anchor="middle" x="227.42" y="-128" font-family="Helvetica,sans-Serif" font-size="10.00">/FMC_encodings.h</text>
</a>
</g>
</g>
<!-- Node2&#45;&gt;Node5 -->
<g id="edge5" class="edge">
<title>Node2&#45;&gt;Node5</title>
<path fill="none" stroke="#63b8ff" d="M358.15,-188.65C330.96,-177.9 291.58,-162.35 263.15,-151.12"/>
<polygon fill="#63b8ff" stroke="#63b8ff" points="356.99,-191.95 367.57,-192.37 359.56,-185.44 356.99,-191.95"/>
</g>
<!-- Node8 -->
<g id="node8" class="node">
<title>Node8</title>
<g id="a_node8"><a xlink:href="../../d9/db5/FMC__strings_8h.html" target="_top" xlink:title=" ">
<polygon fill="white" stroke="#666666" points="456.92,-151 321.92,-151 321.92,-121 456.92,-121 456.92,-151"/>
<text text-anchor="start" x="329.92" y="-139" font-family="Helvetica,sans-Serif" font-size="10.00">src/data_analyze/strings</text>
<text text-anchor="middle" x="389.42" y="-128" font-family="Helvetica,sans-Serif" font-size="10.00">/FMC_strings.h</text>
</a>
</g>
</g>
<!-- Node2&#45;&gt;Node8 -->
<g id="edge9" class="edge">
<title>Node2&#45;&gt;Node8</title>
<path fill="none" stroke="#63b8ff" d="M389.42,-182.35C389.42,-172.47 389.42,-160.51 389.42,-151.36"/>
<polygon fill="#63b8ff" stroke="#63b8ff" points="385.92,-182.37 389.42,-192.37 392.92,-182.37 385.92,-182.37"/>
</g>
<!-- Node10 -->
<g id="node10" class="node">
<title>Node10</title>
<g id="a_node10"><a xlink:href="../../d2/deb/FMC__file__management_8h.html" target="_top" xlink:title=" ">
<polygon fill="white" stroke="#666666" points="573.92,-151 474.92,-151 474.92,-121 573.92,-121 573.92,-151"/>
<text text-anchor="start" x="482.92" y="-139" font-family="Helvetica,sans-Serif" font-size="10.00">src/files/FMC_file</text>
<text text-anchor="middle" x="524.42" y="-128" font-family="Helvetica,sans-Serif" font-size="10.00">_management.h</text>
</a>
</g>
</g>
<!-- Node2&#45;&gt;Node10 -->
<g id="edge12" class="edge">
<title>Node2&#45;&gt;Node10</title>
<path fill="none" stroke="#63b8ff" d="M416.68,-188.08C439.29,-177.36 471.37,-162.15 494.65,-151.12"/>
<polygon fill="#63b8ff" stroke="#63b8ff" points="415.17,-184.92 407.63,-192.37 418.16,-191.25 415.17,-184.92"/>
</g>
<!-- Node13 -->
<g id="node13" class="node">
<title>Node13</title>
<g id="a_node13"><a xlink:href="../../da/d45/FMC__str__view_8h.html" target="_top" xlink:title=" ">
<polygon fill="white" stroke="#666666" points="710.92,-151 591.92,-151 591.92,-121 710.92,-121 710.92,-151"/>
<text text-anchor="start" x="599.92" y="-139" font-family="Helvetica,sans-Serif" font-size="10.00">src/general/utils/FMC</text>
<text text-anchor="middle" x="651.42" y="-128" font-family="Helvetica,sans-Serif" font-size="10.00">_str_view.h</text>
</a>
</g>
</g>
<!-- Node2&#45;&gt;Node13 -->
<g id="edge16" class="edge">
<title>Node2&#45;&gt;Node13</title>
<path fill="none" stroke="#63b8ff" d="M429.61,-189.9C472.96,-178.85 542.24,-161.9 591.89,-150.18"/>
<polygon fill="#63b8ff" stroke="#63b8ff" points="428.53,-186.56 419.71,-192.44 430.27,-193.34 428.53,-186.56"/>
</g>
<!-- Node4&#45;&gt;Node3 -->
<g id="edge4" class="edge">
<title>Node4&#45;&gt;Node3</title>
<path fill="none" stroke="#63b8ff" d="M44.08,-114.23C25.5,-98 6.94,-74.93 20.42,-55 37.81,-29.29 72.75,-18.43 98.8,-13.85"/>
<polygon fill="#63b8ff" stroke="#63b8ff" points="42.01,-117.06 51.95,-120.73 46.47,-111.66 42.01,-117.06"/>
</g>
<!-- Node6 -->
<g id="node6" class="node">
<title>Node6</title>
<g id="a_node6"><a xlink:href="../../da/db0/FMC__data__analyze_8h.html" target="_top" xlink:title=" ">
<polygon fill="white" stroke="#666666" points="323.42,-85 199.42,-85 199.42,-55 323.42,-55 323.42,-85"/>
<text text-anchor="start" x="207.42" y="-73" font-family="Helvetica,sans-Serif" font-size="10.00">src/data_analyze/FMC</text>
<text text-anchor="middle" x="261.42" y="-62" font-family="Helvetica,sans-Serif" font-size="10.00">_data_analyze.h</text>
</a>
</g>
</g>
<!-- Node5&#45;&gt;Node6 -->
<g id="edge6" class="edge">
<title>Node5&#45;&gt;Node6</title>
<path fill="none" stroke="#63b8ff" d="M239.66,-111.96C244.42,-103 249.72,-93.03 253.9,-85.16"/>
<polygon fill="#63b8ff" stroke="#63b8ff" points="236.57,-110.32 234.97,-120.8 242.75,-113.61 236.57,-110.32"/>
</g>
<!-- Node7 -->
<g id="node7" class="node">
<title>Node7</title>
<g id="a_node7"><a xlink:href="../../db/dc4/FMC__encodings_8c.html" target="_top" xlink:title=" ">
<polygon fill="white" stroke="#666666" points="181.42,-85 29.42,-85 29.42,-55 181.42,-55 181.42,-85"/>
<text text-anchor="start" x="37.42" y="-73" font-family="Helvetica,sans-Serif" font-size="10.00">src/data_analyze/encodings</text>
<text text-anchor="middle" x="105.42" y="-62" font-family="Helvetica,sans-Serif" font-size="10.00">/FMC_encodings.c</text>
</a>
</g>
</g>
<!-- Node5&#45;&gt;Node7 -->
<g id="edge8" class="edge">
<title>Node5&#45;&gt;Node7</title>
<path fill="none" stroke="#63b8ff" d="M191.66,-116.24C172.62,-106.25 149.6,-94.18 132.13,-85.01"/>
<polygon fill="#63b8ff" stroke="#63b8ff" points="190.17,-119.41 200.65,-120.95 193.42,-113.21 190.17,-119.41"/>
</g>
<!-- Node6&#45;&gt;Node3 -->
<g id="edge7" class="edge">
<title>Node6&#45;&gt;Node3</title>
<path fill="none" stroke="#63b8ff" d="M220.92,-50.77C197.47,-40.22 169.05,-27.43 150.62,-19.14"/>
<polygon fill="#63b8ff" stroke="#63b8ff" points="219.73,-54.08 230.28,-54.99 222.6,-47.69 219.73,-54.08"/>
</g>
<!-- Node8&#45;&gt;Node6 -->
<g id="edge10" class="edge">
<title>Node8&#45;&gt;Node6</title>
<path fill="none" stroke="#63b8ff" d="M352.18,-116.38C332.15,-106.36 307.86,-94.22 289.45,-85.01"/>
<polygon fill="#63b8ff" stroke="#63b8ff" points="350.82,-119.61 361.33,-120.95 353.95,-113.35 350.82,-119.61"/>
</g>
<!-- Node9 -->
<g id="node9" class="node">
<title>Node9</title>
<g id="a_node9"><a xlink:href="../../d1/d8c/FMC__chars_8c.html" target="_top" xlink:title=" ">
<polygon fill="white" stroke="#666666" points="476.92,-85 341.92,-85 341.92,-55 476.92,-55 476.92,-85"/>
<text text-anchor="start" x="349.92" y="-73" font-family="Helvetica,sans-Serif" font-size="10.00">src/data_analyze/strings</text>
<text text-anchor="middle" x="409.42" y="-62" font-family="Helvetica,sans-Serif" font-size="10.00">/FMC_chars.c</text>
</a>
</g>
</g>
<!-- Node8&#45;&gt;Node9 -->
<g id="edge11" class="edge">
<title>Node8&#45;&gt;Node9</title>
<path fill="none" stroke="#63b8ff" d="M396.89,-111.11C399.62,-102.38 402.62,-92.78 405,-85.16"/>
<polygon fill="#63b8ff" stroke="#63b8ff" points="393.5,-110.21 393.86,-120.8 400.18,-112.3 393.5,-110.21"/>
</g>
<!-- Node10&#45;&gt;Node3 -->
<g id="edge13" class="edge">
<title>Node10&#45;&gt;Node3</title>
<path fill="none" stroke="#63b8ff" d="M519.58,-111.03C514.55,-92.65 504.74,-68.24 486.42,-55 435.33,-18.06 242.04,-11.72 164.2,-10.68"/>
<polygon fill="#63b8ff" stroke="#63b8ff" points="516.19,-111.9 521.97,-120.78 522.99,-110.23 516.19,-111.9"/>
</g>
<!-- Node11 -->
<g id="node11" class="node">
<title>Node11</title>
<g id="a_node11"><a xlink:href="../../d0/dc0/FMC__files_8c.html" target="_top" xlink:title=" ">
<polygon fill="white" stroke="#666666" points="646.92,-79.5 533.92,-79.5 533.92,-60.5 646.92,-60.5 646.92,-79.5"/>
<text text-anchor="middle" x="590.42" y="-67.5" font-family="Helvetica,sans-Serif" font-size="10.00">src/files/FMC_files.c</text>
</a>
</g>
</g>
<!-- Node10&#45;&gt;Node11 -->
<g id="edge14" class="edge">
<title>Node10&#45;&gt;Node11</title>
<path fill="none" stroke="#63b8ff" d="M546.49,-113.6C558.36,-102.1 572.35,-88.52 581.3,-79.84"/>
<polygon fill="#63b8ff" stroke="#63b8ff" points="543.81,-111.32 539.07,-120.8 548.69,-116.35 543.81,-111.32"/>
</g>
<!-- Node12 -->
<g id="node12" class="node">
<title>Node12</title>
<g id="a_node12"><a xlink:href="../../dc/d5e/FMC__paths_8c.html" target="_top" xlink:title=" ">
<polygon fill="white" stroke="#666666" points="783.92,-79.5 664.92,-79.5 664.92,-60.5 783.92,-60.5 783.92,-79.5"/>
<text text-anchor="middle" x="724.42" y="-67.5" font-family="Helvetica,sans-Serif" font-size="10.00">src/files/FMC_paths.c</text>
</a>
</g>
</g>
<!-- Node10&#45;&gt;Node12 -->
<g id="edge15" class="edge">
<title>Node10&#45;&gt;Node12</title>
<path fill="none" stroke="#63b8ff" d="M577.88,-117.89C616.61,-105.5 667.33,-89.27 697.81,-79.52"/>
<polygon fill="#63b8ff" stroke="#63b8ff" points="576.77,-114.57 568.31,-120.95 578.9,-121.24 576.77,-114.57"/>
</g>
<!-- Node13&#45;&gt;Node2 -->
<g id="edge17" class="edge">
<title>Node13&#45;&gt;Node2</title>
<path fill="none" stroke="#63b8ff" d="M589.73,-153.53C540.11,-165.98 471.96,-182.52 429.26,-192.44"/>
<polygon fill="#63b8ff" stroke="#63b8ff" points="590.86,-156.86 599.71,-151.02 589.15,-150.07 590.86,-156.86"/>
</g>
<!-- Node14 -->
<g id="node14" class="node">
<title>Node14</title>
<g id="a_node14"><a xlink:href="../../d2/daf/FMC__str__view_8c.html" target="_top" xlink:title=" ">
<polygon fill="white" stroke="#666666" points="920.92,-85 801.92,-85 801.92,-55 920.92,-55 920.92,-85"/>
<text text-anchor="start" x="809.92" y="-73" font-family="Helvetica,sans-Serif" font-size="10.00">src/general/utils/FMC</text>
<text text-anchor="middle" x="861.42" y="-62" font-family="Helvetica,sans-Serif" font-size="10.00">_str_view.c</text>
</a>
</g>
</g>
<!-- Node13&#45;&gt;Node14 -->
<g id="edge18" class="edge">
<title>Node13&#45;&gt;Node14</title>
<path fill="none" stroke="#63b8ff" d="M707.24,-117.99C741.03,-107.69 783.6,-94.72 815.44,-85.01"/>
<polygon fill="#63b8ff" stroke="#63b8ff" points="706.05,-114.69 697.51,-120.95 708.09,-121.39 706.05,-114.69"/>
</g>
<!-- Node15&#45;&gt;Node2 -->
<g id="edge20" class="edge">
<title>Node15&#45;&gt;Node2</title>
<path fill="none" stroke="#63b8ff" d="M393.14,-242.6C392.12,-231.8 391,-219.78 390.25,-211.84"/>
<polygon fill="#63b8ff" stroke="#63b8ff" points="389.67,-243.17 394.09,-252.8 396.64,-242.51 389.67,-243.17"/>
</g>
<!-- Node16&#45;&gt;Node2 -->
<g id="edge22" class="edge">
<title>Node16&#45;&gt;Node2</title>
<path fill="none" stroke="#63b8ff" d="M493.86,-248.78C465.94,-236.54 430.44,-220.98 408.85,-211.52"/>
<polygon fill="#63b8ff" stroke="#63b8ff" points="492.82,-252.15 503.38,-252.95 495.63,-245.73 492.82,-252.15"/>
</g>
<!-- Node17 -->
<g id="node17" class="node">
<title>Node17</title>
<g id="a_node17"><a xlink:href="../../de/dab/FMC__errors_8c.html" target="_top" xlink:title=" ">
<polygon fill="white" stroke="#666666" points="599.92,-217 480.92,-217 480.92,-187 599.92,-187 599.92,-217"/>
<text text-anchor="start" x="488.92" y="-205" font-family="Helvetica,sans-Serif" font-size="10.00">src/general/utils/FMC</text>
<text text-anchor="middle" x="540.42" y="-194" font-family="Helvetica,sans-Serif" font-size="10.00">_errors.c</text>
</a>
</g>
</g>
<!-- Node16&#45;&gt;Node17 -->
<g id="edge23" class="edge">
<title>Node16&#45;&gt;Node17</title>
<path fill="none" stroke="#63b8ff" d="M537.31,-242.83C537.99,-234.17 538.73,-224.7 539.32,-217.16"/>
<polygon fill="#63b8ff" stroke="#63b8ff" points="533.82,-242.55 536.53,-252.8 540.8,-243.1 533.82,-242.55"/>
</g>
<!-- Node18&#45;&gt;Node2 -->
<g id="edge25" class="edge">
<title>Node18&#45;&gt;Node2</title>
<path fill="none" stroke="#63b8ff" d="M602.66,-251.22C547.32,-238.71 472.07,-221.69 427.35,-211.58"/>
<polygon fill="#63b8ff" stroke="#63b8ff" points="602.23,-254.71 612.75,-253.51 603.77,-247.89 602.23,-254.71"/>
</g>
<!-- Node19 -->
<g id="node19" class="node">
<title>Node19</title>
<g id="a_node19"><a xlink:href="../../d0/ddd/FMC__globals_8c.html" target="_top" xlink:title=" ">
<polygon fill="white" stroke="#666666" points="736.92,-217 617.92,-217 617.92,-187 736.92,-187 736.92,-217"/>
<text text-anchor="start" x="625.92" y="-205" font-family="Helvetica,sans-Serif" font-size="10.00">src/general/utils/FMC</text>
<text text-anchor="middle" x="677.42" y="-194" font-family="Helvetica,sans-Serif" font-size="10.00">_globals.c</text>
</a>
</g>
</g>
<!-- Node18&#45;&gt;Node19 -->
<g id="edge26" class="edge">
<title>Node18&#45;&gt;Node19</title>
<path fill="none" stroke="#63b8ff" d="M674.31,-242.83C674.99,-234.17 675.73,-224.7 676.32,-217.16"/>
<polygon fill="#63b8ff" stroke="#63b8ff" points="670.82,-242.55 673.53,-252.8 677.8,-243.1 670.82,-242.55"/>
</g>
</g>
</svg>
        <g id="navigator" transform="translate(0 0)" fill="#404254">
                <rect fill="#f2f5e9" fill-opacity="0.5" stroke="#606060" stroke-width=".5" x="0" y="0" width="60" height="60"/>
                <use id="zoomplus" xlink:href="#zoomPlus" x="17" y="9" onmousedown="handleZoom(evt,'in')"/>
                <use id="zoomminus" xlink:href="#zoomMin" x="42" y="9" onmousedown="handleZoom(evt,'out')"/>
                <use id="reset" xlink:href="#resetDef" x="30" y="36" onmousedown="handleReset()"/>
                <g id="arrowUp" xlink:href="#dirArrow" transform="translate(30 24)" onmousedown="handlePan(0,-1)">
                  <use xlink:href="#rim" fill="#404040">
                        <set attributeName="fill" to="#808080" begin="arrowUp.mouseover" end="arrowUp.mouseout"/>
                  </use>
                  <path fill="none" stroke="white" stroke-width="1.5" d="M0,-3.0v7 M-2.5,-0.5L0,-3.0L2.5,-0.5"/>
                </g>
                <g id="arrowRight" xlink:href="#dirArrow" transform="rotate(90) translate(36 -43)" onmousedown="handlePan(1,0)">
                  <use xlink:href="#rim" fill="#404040">
                        <set attributeName="fill" to="#808080" begin="arrowRight.mouseover" end="arrowRight.mouseout"/>
                  </use>
                  <path fill="none" stroke="white" stroke-width="1.5" d="M0,-3.0v7 M-2.5,-0.5L0,-3.0L2.5,-0.5"/>
                </g>
                <g id="arrowDown" xlink:href="#dirArrow" transform="rotate(180) translate(-30 -48)" onmousedown="handlePan(0,1)">
                  <use xlink:href="#rim" fill="#404040">
                        <set attributeName="fill" to="#808080" begin="arrowDown.mouseover" end="arrowDown.mouseout"/>
                  </use>
                  <path fill="none" stroke="white" stroke-width="1.5" d="M0,-3.0v7 M-2.5,-0.5L0,-3.0L2.5,-0.5"/>
                </g>
                <g id="arrowLeft" xlink:href="#dirArrow" transform="rotate(270) translate(-36 17)" onmousedown="handlePan(-1,0)">
                  <use xlink:href="#rim" fill="#404040">
                        <set attributeName="fill" to="#808080" begin="arrowLeft.mouseover" end="arrowLeft.mouseout"/>
                  </use>
                  <path fill="none" stroke="white" stroke-width="1.5" d="M0,-3.0v7 M-2.5,-0.5L0,-3.0L2.5,-0.5"/>
                </g>
        </g>
        <svg viewBox="0 0 15 15" width="100%" height="30px" preserveAspectRatio="xMaxYMin meet">
         <g id="arrow_out" transform="scale(0.3 0.3)">
          <a xlink:href="FMC__consts_8h__dep__incl_org.svg" target="_base">
           <rect id="button" ry="5" rx="5" y="6" x="6" height="38" width="38"
                fill="#f2f5e9" fill-opacity="0.5" stroke="#606060" stroke-width="1.0"/>
           <path id="arrow"
             d="M 11.500037,31.436501 C 11.940474,20.09759 22.043105,11.32322 32.158766,21.979434 L 37.068811,17.246167 C 37.068811,17.246167 37.088388,32 37.088388,32 L 22.160133,31.978069 C 22.160133,31.978069 26.997745,27.140456 26.997745,27.140456 C 18.528582,18.264221 13.291696,25.230495 11.500037,31.436501 z"
             style="fill:#404040;"/>
          </a>
         </g>
        </svg>
</svg>
