<?xml version="1.0" encoding="UTF-8" standalone="no"?>
<!DOCTYPE svg PUBLIC "-//W3C//DTD SVG 1.1//EN"
 "http://www.w3.org/Graphics/SVG/1.1/DTD/svg11.dtd">
<!-- Generated by graphviz version 7.1.0 (20230121.1956)
 -->
<!-- Title: src/cpp/FMC_dir/FMC_dir_wrapper.cpp Pages: 1 -->
<svg width="363pt" height="214pt"
 viewBox="0.00 0.00 363.00 214.00" xmlns="http://www.w3.org/2000/svg" xmlns:xlink="http://www.w3.org/1999/xlink">
<g id="graph0" class="graph" transform="scale(1 1) rotate(0) translate(4 210)">
<title>src/cpp/FMC_dir/FMC_dir_wrapper.cpp</title>
<!-- Node1 -->
<g id="node1" class="node">
<title>Node1</title>
<g id="a_node1"><a xlink:title=" ">
<polygon fill="#999999" stroke="#666666" points="309.5,-206 196.5,-206 196.5,-176 309.5,-176 309.5,-206"/>
<text text-anchor="start" x="204.5" y="-194" font-family="Helvetica,sans-Serif" font-size="10.00">src/cpp/FMC_dir/FMC</text>
<text text-anchor="middle" x="253" y="-183" font-family="Helvetica,sans-Serif" font-size="10.00">_dir_wrapper.cpp</text>
</a>
</g>
</g>
<!-- Node2 -->
<g id="node2" class="node">
<title>Node2</title>
<g id="a_node2"><a xlink:href="../../de/d04/_f_m_c__wrapper_8h.html" target="_top" xlink:title=" ">
<polygon fill="white" stroke="#666666" points="225,-140 131,-140 131,-121 225,-121 225,-140"/>
<text text-anchor="middle" x="178" y="-128" font-family="Helvetica,sans-Serif" font-size="10.00">../FMC_wrapper.h</text>
</a>
</g>
</g>
<!-- Node1&#45;&gt;Node2 -->
<g id="edge1" class="edge">
<title>Node1&#45;&gt;Node2</title>
<path fill="none" stroke="#63b8ff" d="M234.46,-175.54C223.35,-166.87 209.21,-155.85 197.87,-147"/>
<polygon fill="#63b8ff" stroke="#63b8ff" points="200.35,-144.5 190.32,-141.11 196.05,-150.02 200.35,-144.5"/>
</g>
<!-- Node6 -->
<g id="node6" class="node">
<title>Node6</title>
<g id="a_node6"><a xlink:title=" ">
<polygon fill="#e0e0e0" stroke="#999999" points="277.5,-79.5 226.5,-79.5 226.5,-60.5 277.5,-60.5 277.5,-79.5"/>
<text text-anchor="middle" x="252" y="-67.5" font-family="Helvetica,sans-Serif" font-size="10.00">stddef.h</text>
</a>
</g>
</g>
<!-- Node1&#45;&gt;Node6 -->
<g id="edge9" class="edge">
<title>Node1&#45;&gt;Node6</title>
<path fill="none" stroke="#63b8ff" d="M252.88,-175.88C252.7,-154.8 252.37,-115 252.17,-90.95"/>
<polygon fill="#63b8ff" stroke="#63b8ff" points="255.67,-91.19 252.09,-81.22 248.67,-91.25 255.67,-91.19"/>
</g>
<!-- Node7 -->
<g id="node7" class="node">
<title>Node7</title>
<g id="a_node7"><a xlink:href="../../d0/d22/_f_m_c__dir_8hpp.html" target="_top" xlink:title=" ">
<polygon fill="white" stroke="#666666" points="355,-140 283,-140 283,-121 355,-121 355,-140"/>
<text text-anchor="middle" x="319" y="-128" font-family="Helvetica,sans-Serif" font-size="10.00">FMC_dir.hpp</text>
</a>
</g>
</g>
<!-- Node1&#45;&gt;Node7 -->
<g id="edge7" class="edge">
<title>Node1&#45;&gt;Node7</title>
<path fill="none" stroke="#63b8ff" d="M269.31,-175.54C278.8,-167.13 290.79,-156.51 300.61,-147.8"/>
<polygon fill="#63b8ff" stroke="#63b8ff" points="302.92,-150.43 308.08,-141.18 298.27,-145.19 302.92,-150.43"/>
</g>
<!-- Node3 -->
<g id="node3" class="node">
<title>Node3</title>
<g id="a_node3"><a xlink:href="../../d0/d07/_f_m_c__macros_8h.html" target="_top" xlink:title=" ">
<polygon fill="white" stroke="#666666" points="208,-85 92,-85 92,-55 208,-55 208,-85"/>
<text text-anchor="start" x="100" y="-73" font-family="Helvetica,sans-Serif" font-size="10.00">../general/preprocessor</text>
<text text-anchor="middle" x="150" y="-62" font-family="Helvetica,sans-Serif" font-size="10.00">/FMC_macros.h</text>
</a>
</g>
</g>
<!-- Node2&#45;&gt;Node3 -->
<g id="edge2" class="edge">
<title>Node2&#45;&gt;Node3</title>
<path fill="none" stroke="#63b8ff" d="M173.87,-120.87C170.63,-114.11 165.96,-104.35 161.61,-95.26"/>
<polygon fill="#63b8ff" stroke="#63b8ff" points="164.88,-93.99 157.41,-86.48 158.57,-97.01 164.88,-93.99"/>
</g>
<!-- Node2&#45;&gt;Node6 -->
<g id="edge6" class="edge">
<title>Node2&#45;&gt;Node6</title>
<path fill="none" stroke="#63b8ff" d="M189.24,-120.62C200.54,-111.68 218.21,-97.72 231.92,-86.87"/>
<polygon fill="#63b8ff" stroke="#63b8ff" points="233.79,-89.85 239.47,-80.91 229.45,-84.36 233.79,-89.85"/>
</g>
<!-- Node4 -->
<g id="node4" class="node">
<title>Node4</title>
<g id="a_node4"><a xlink:href="../../d0/dc4/_f_m_c__platform_8h.html" target="_top" xlink:title=" ">
<polygon fill="white" stroke="#666666" points="86,-19 0,-19 0,0 86,0 86,-19"/>
<text text-anchor="middle" x="43" y="-7" font-family="Helvetica,sans-Serif" font-size="10.00">FMC_platform.h</text>
</a>
</g>
</g>
<!-- Node3&#45;&gt;Node4 -->
<g id="edge3" class="edge">
<title>Node3&#45;&gt;Node4</title>
<path fill="none" stroke="#63b8ff" d="M123.55,-54.54C107,-45.49 85.76,-33.88 69.25,-24.85"/>
<polygon fill="#63b8ff" stroke="#63b8ff" points="70.96,-21.8 60.51,-20.07 67.6,-27.94 70.96,-21.8"/>
</g>
<!-- Node5 -->
<g id="node5" class="node">
<title>Node5</title>
<g id="a_node5"><a xlink:href="../../d4/d62/_f_m_c__attributes_8h.html" target="_top" xlink:title=" ">
<polygon fill="white" stroke="#666666" points="196,-19 104,-19 104,0 196,0 196,-19"/>
<text text-anchor="middle" x="150" y="-7" font-family="Helvetica,sans-Serif" font-size="10.00">FMC_attributes.h</text>
</a>
</g>
</g>
<!-- Node3&#45;&gt;Node5 -->
<g id="edge4" class="edge">
<title>Node3&#45;&gt;Node5</title>
<path fill="none" stroke="#63b8ff" d="M144.08,-54.54C143.19,-47.26 143.01,-38.31 143.57,-30.39"/>
<polygon fill="#63b8ff" stroke="#63b8ff" points="147.01,-31.05 144.84,-20.68 140.07,-30.14 147.01,-31.05"/>
</g>
<!-- Node5&#45;&gt;Node3 -->
<g id="edge5" class="edge">
<title>Node5&#45;&gt;Node3</title>
<path fill="none" stroke="#63b8ff" d="M154.96,-19.18C156.34,-25.58 156.92,-34.65 156.71,-43.3"/>
<polygon fill="#63b8ff" stroke="#63b8ff" points="153.23,-42.81 156.02,-53.03 160.21,-43.3 153.23,-42.81"/>
</g>
<!-- Node8 -->
<g id="node8" class="node">
<title>Node8</title>
<g id="a_node8"><a xlink:title=" ">
<polygon fill="#e0e0e0" stroke="#999999" points="344,-79.5 296,-79.5 296,-60.5 344,-60.5 344,-79.5"/>
<text text-anchor="middle" x="320" y="-67.5" font-family="Helvetica,sans-Serif" font-size="10.00">cstddef</text>
</a>
</g>
</g>
<!-- Node7&#45;&gt;Node8 -->
<g id="edge8" class="edge">
<title>Node7&#45;&gt;Node8</title>
<path fill="none" stroke="#63b8ff" d="M319.15,-120.87C319.28,-113 319.49,-101.1 319.66,-90.89"/>
<polygon fill="#63b8ff" stroke="#63b8ff" points="323.15,-91.24 319.83,-81.18 316.16,-91.12 323.15,-91.24"/>
</g>
</g>
</svg>
