<?xml version="1.0" encoding="UTF-8" standalone="no"?>
<!DOCTYPE svg PUBLIC "-//W3C//DTD SVG 1.1//EN"
 "http://www.w3.org/Graphics/SVG/1.1/DTD/svg11.dtd">
<!-- Generated by graphviz version 2.43.0 (0)
 -->
<!-- Title: FMC_FUNC_WARN_UNUSED_RESULT Pages: 1 -->
<svg width="532pt" height="113pt"
 viewBox="0.00 0.00 532.00 112.50" xmlns="http://www.w3.org/2000/svg" xmlns:xlink="http://www.w3.org/1999/xlink">
<g id="graph0" class="graph" transform="scale(1 1) rotate(0) translate(4 108.5)">
<title>FMC_FUNC_WARN_UNUSED_RESULT</title>
<!-- Node1 -->
<g id="node1" class="node">
<title>Node1</title>
<g id="a_node1"><a xlink:title=" ">
<polygon fill="#999999" stroke="#666666" points="154,-61.5 0,-61.5 0,-31.5 154,-31.5 154,-61.5"/>
<text text-anchor="start" x="8" y="-49.5" font-family="Helvetica,sans-Serif" font-size="10.00">FMC_FUNC_WARN_UNUSED</text>
<text text-anchor="middle" x="77" y="-38.5" font-family="Helvetica,sans-Serif" font-size="10.00">_RESULT</text>
</a>
</g>
</g>
<!-- Node2 -->
<g id="node2" class="node">
<title>Node2</title>
<g id="a_node2"><a xlink:href="../../dd/ddf/FMC__errors_8h.html#a6f3db48b5173e8c1c93b0080aa95fa61" target="_top" xlink:title=" ">
<polygon fill="white" stroke="#666666" points="327,-56 190,-56 190,-37 327,-37 327,-56"/>
<text text-anchor="middle" x="258.5" y="-44" font-family="Helvetica,sans-Serif" font-size="10.00">FMC_printBrightRedError</text>
</a>
</g>
</g>
<!-- Node1&#45;&gt;Node2 -->
<g id="edge1" class="edge">
<title>Node1&#45;&gt;Node2</title>
<path fill="none" stroke="#63b8ff" d="M154.12,-46.5C162.55,-46.5 171.14,-46.5 179.58,-46.5"/>
<polygon fill="#63b8ff" stroke="#63b8ff" points="179.79,-50 189.79,-46.5 179.79,-43 179.79,-50"/>
</g>
<!-- Node3 -->
<g id="node3" class="node">
<title>Node3</title>
<g id="a_node3"><a xlink:href="../../dd/ddf/FMC__errors_8h.html#ac23433edede3d30268228d5718862b2f" target="_top" xlink:title=" ">
<polygon fill="white" stroke="#666666" points="523.5,-104.5 363.5,-104.5 363.5,-74.5 523.5,-74.5 523.5,-104.5"/>
<text text-anchor="start" x="371.5" y="-92.5" font-family="Helvetica,sans-Serif" font-size="10.00">FMC_changeStreamTextColor</text>
<text text-anchor="middle" x="443.5" y="-81.5" font-family="Helvetica,sans-Serif" font-size="10.00">ToBrightRed</text>
</a>
</g>
</g>
<!-- Node2&#45;&gt;Node3 -->
<g id="edge2" class="edge">
<title>Node2&#45;&gt;Node3</title>
<path fill="none" stroke="#63b8ff" d="M300.11,-56.04C320.29,-60.78 345.31,-66.66 368.72,-72.16"/>
<polygon fill="#63b8ff" stroke="#63b8ff" points="368.1,-75.61 378.64,-74.49 369.7,-68.8 368.1,-75.61"/>
</g>
<!-- Node4 -->
<g id="node4" class="node">
<title>Node4</title>
<g id="a_node4"><a xlink:href="../../dd/ddf/FMC__errors_8h.html#af11b1f617ef7bc80184285957c3aeee0" target="_top" xlink:title=" ">
<polygon fill="white" stroke="#666666" points="524,-56 363,-56 363,-37 524,-37 524,-56"/>
<text text-anchor="middle" x="443.5" y="-44" font-family="Helvetica,sans-Serif" font-size="10.00">FMC_resetStreamOutputStyle</text>
</a>
</g>
</g>
<!-- Node2&#45;&gt;Node4 -->
<g id="edge3" class="edge">
<title>Node2&#45;&gt;Node4</title>
<path fill="none" stroke="#63b8ff" d="M327.12,-46.5C335.47,-46.5 344.09,-46.5 352.7,-46.5"/>
<polygon fill="#63b8ff" stroke="#63b8ff" points="352.78,-50 362.78,-46.5 352.78,-43 352.78,-50"/>
</g>
<!-- Node5 -->
<g id="node5" class="node">
<title>Node5</title>
<g id="a_node5"><a xlink:href="../../dd/ddf/FMC__errors_8h.html#a33a1a2c6f6a143bc6a836ef37778a07f" target="_top" xlink:title=" ">
<polygon fill="white" stroke="#666666" points="511.5,-19 375.5,-19 375.5,0 511.5,0 511.5,-19"/>
<text text-anchor="middle" x="443.5" y="-7" font-family="Helvetica,sans-Serif" font-size="10.00">FMC_setTextStyleToBold</text>
</a>
</g>
</g>
<!-- Node2&#45;&gt;Node5 -->
<g id="edge4" class="edge">
<title>Node2&#45;&gt;Node5</title>
<path fill="none" stroke="#63b8ff" d="M306.63,-36.97C330.65,-32.11 360.07,-26.17 385.38,-21.05"/>
<polygon fill="#63b8ff" stroke="#63b8ff" points="386.11,-24.47 395.21,-19.06 384.72,-17.61 386.11,-24.47"/>
</g>
</g>
</svg>
