<?xml version="1.0" encoding="UTF-8" standalone="no"?>
<!DOCTYPE svg PUBLIC "-//W3C//DTD SVG 1.1//EN"
 "http://www.w3.org/Graphics/SVG/1.1/DTD/svg11.dtd">
<!-- Generated by graphviz version 2.43.0 (0)
 -->
<!-- Title: FMC_FUNC_NONNULL Pages: 1 -->
<svg width="503pt" height="113pt"
 viewBox="0.00 0.00 503.00 112.50" xmlns="http://www.w3.org/2000/svg" xmlns:xlink="http://www.w3.org/1999/xlink">
<g id="graph0" class="graph" transform="scale(1 1) rotate(0) translate(4 108.5)">
<title>FMC_FUNC_NONNULL</title>
<!-- Node1 -->
<g id="node1" class="node">
<title>Node1</title>
<g id="a_node1"><a xlink:title=" ">
<polygon fill="#999999" stroke="#666666" points="125,-56 0,-56 0,-37 125,-37 125,-56"/>
<text text-anchor="middle" x="62.5" y="-44" font-family="Helvetica,sans-Serif" font-size="10.00">FMC_FUNC_NONNULL</text>
</a>
</g>
</g>
<!-- Node2 -->
<g id="node2" class="node">
<title>Node2</title>
<g id="a_node2"><a xlink:href="../../dd/ddf/FMC__errors_8h.html#a6f3db48b5173e8c1c93b0080aa95fa61" target="_top" xlink:title=" ">
<polygon fill="white" stroke="#666666" points="298,-56 161,-56 161,-37 298,-37 298,-56"/>
<text text-anchor="middle" x="229.5" y="-44" font-family="Helvetica,sans-Serif" font-size="10.00">FMC_printBrightRedError</text>
</a>
</g>
</g>
<!-- Node1&#45;&gt;Node2 -->
<g id="edge1" class="edge">
<title>Node1&#45;&gt;Node2</title>
<path fill="none" stroke="#63b8ff" d="M125.41,-46.5C133.76,-46.5 142.4,-46.5 150.98,-46.5"/>
<polygon fill="#63b8ff" stroke="#63b8ff" points="150.99,-50 160.99,-46.5 150.99,-43 150.99,-50"/>
</g>
<!-- Node3 -->
<g id="node3" class="node">
<title>Node3</title>
<g id="a_node3"><a xlink:href="../../dd/ddf/FMC__errors_8h.html#ac23433edede3d30268228d5718862b2f" target="_top" xlink:title=" ">
<polygon fill="white" stroke="#666666" points="494.5,-104.5 334.5,-104.5 334.5,-74.5 494.5,-74.5 494.5,-104.5"/>
<text text-anchor="start" x="342.5" y="-92.5" font-family="Helvetica,sans-Serif" font-size="10.00">FMC_changeStreamTextColor</text>
<text text-anchor="middle" x="414.5" y="-81.5" font-family="Helvetica,sans-Serif" font-size="10.00">ToBrightRed</text>
</a>
</g>
</g>
<!-- Node2&#45;&gt;Node3 -->
<g id="edge2" class="edge">
<title>Node2&#45;&gt;Node3</title>
<path fill="none" stroke="#63b8ff" d="M271.11,-56.04C291.29,-60.78 316.31,-66.66 339.72,-72.16"/>
<polygon fill="#63b8ff" stroke="#63b8ff" points="339.1,-75.61 349.64,-74.49 340.7,-68.8 339.1,-75.61"/>
</g>
<!-- Node4 -->
<g id="node4" class="node">
<title>Node4</title>
<g id="a_node4"><a xlink:href="../../dd/ddf/FMC__errors_8h.html#af11b1f617ef7bc80184285957c3aeee0" target="_top" xlink:title=" ">
<polygon fill="white" stroke="#666666" points="495,-56 334,-56 334,-37 495,-37 495,-56"/>
<text text-anchor="middle" x="414.5" y="-44" font-family="Helvetica,sans-Serif" font-size="10.00">FMC_resetStreamOutputStyle</text>
</a>
</g>
</g>
<!-- Node2&#45;&gt;Node4 -->
<g id="edge3" class="edge">
<title>Node2&#45;&gt;Node4</title>
<path fill="none" stroke="#63b8ff" d="M298.12,-46.5C306.47,-46.5 315.09,-46.5 323.7,-46.5"/>
<polygon fill="#63b8ff" stroke="#63b8ff" points="323.78,-50 333.78,-46.5 323.78,-43 323.78,-50"/>
</g>
<!-- Node5 -->
<g id="node5" class="node">
<title>Node5</title>
<g id="a_node5"><a xlink:href="../../dd/ddf/FMC__errors_8h.html#a33a1a2c6f6a143bc6a836ef37778a07f" target="_top" xlink:title=" ">
<polygon fill="white" stroke="#666666" points="482.5,-19 346.5,-19 346.5,0 482.5,0 482.5,-19"/>
<text text-anchor="middle" x="414.5" y="-7" font-family="Helvetica,sans-Serif" font-size="10.00">FMC_setTextStyleToBold</text>
</a>
</g>
</g>
<!-- Node2&#45;&gt;Node5 -->
<g id="edge4" class="edge">
<title>Node2&#45;&gt;Node5</title>
<path fill="none" stroke="#63b8ff" d="M277.63,-36.97C301.65,-32.11 331.07,-26.17 356.38,-21.05"/>
<polygon fill="#63b8ff" stroke="#63b8ff" points="357.11,-24.47 366.21,-19.06 355.72,-17.61 357.11,-24.47"/>
</g>
</g>
</svg>
