<?xml version="1.0" encoding="UTF-8" standalone="no"?>
<!DOCTYPE svg PUBLIC "-//W3C//DTD SVG 1.1//EN"
 "http://www.w3.org/Graphics/SVG/1.1/DTD/svg11.dtd">
<!-- Generated by graphviz version 2.43.0 (0)
 -->
<!-- Title: FMC_cutFilename Pages: 1 -->
<svg width="482pt" height="113pt"
 viewBox="0.00 0.00 482.00 112.50" xmlns="http://www.w3.org/2000/svg" xmlns:xlink="http://www.w3.org/1999/xlink">
<g id="graph0" class="graph" transform="scale(1 1) rotate(0) translate(4 108.5)">
<title>FMC_cutFilename</title>
<!-- Node1 -->
<g id="node1" class="node">
<title>Node1</title>
<g id="a_node1"><a xlink:title=" ">
<polygon fill="#999999" stroke="#666666" points="104,-56 0,-56 0,-37 104,-37 104,-56"/>
<text text-anchor="middle" x="52" y="-44" font-family="Helvetica,sans-Serif" font-size="10.00">FMC_cutFilename</text>
</a>
</g>
</g>
<!-- Node2 -->
<g id="node2" class="node">
<title>Node2</title>
<g id="a_node2"><a xlink:href="../../dd/ddf/FMC__errors_8h.html#ae3486f9bf81a6979471cdbab89635aa3" target="_top" xlink:title=" ">
<polygon fill="white" stroke="#666666" points="277,-56 140,-56 140,-37 277,-37 277,-56"/>
<text text-anchor="middle" x="208.5" y="-44" font-family="Helvetica,sans-Serif" font-size="10.00">FMC_printBrightRedError</text>
</a>
</g>
</g>
<!-- Node1&#45;&gt;Node2 -->
<g id="edge1" class="edge">
<title>Node1&#45;&gt;Node2</title>
<path fill="none" stroke="#63b8ff" d="M104.02,-46.5C112.23,-46.5 120.89,-46.5 129.56,-46.5"/>
<polygon fill="#63b8ff" stroke="#63b8ff" points="129.73,-50 139.73,-46.5 129.73,-43 129.73,-50"/>
</g>
<!-- Node3 -->
<g id="node3" class="node">
<title>Node3</title>
<g id="a_node3"><a xlink:href="../../dd/ddf/FMC__errors_8h.html#abfd332c091d02782f186ebfa172b6acd" target="_top" xlink:title=" ">
<polygon fill="white" stroke="#666666" points="473.5,-104.5 313.5,-104.5 313.5,-74.5 473.5,-74.5 473.5,-104.5"/>
<text text-anchor="start" x="321.5" y="-92.5" font-family="Helvetica,sans-Serif" font-size="10.00">FMC_changeStreamTextColor</text>
<text text-anchor="middle" x="393.5" y="-81.5" font-family="Helvetica,sans-Serif" font-size="10.00">ToBrightRed</text>
</a>
</g>
</g>
<!-- Node2&#45;&gt;Node3 -->
<g id="edge2" class="edge">
<title>Node2&#45;&gt;Node3</title>
<path fill="none" stroke="#63b8ff" d="M250.11,-56.04C270.29,-60.78 295.31,-66.66 318.72,-72.16"/>
<polygon fill="#63b8ff" stroke="#63b8ff" points="318.1,-75.61 328.64,-74.49 319.7,-68.8 318.1,-75.61"/>
</g>
<!-- Node4 -->
<g id="node4" class="node">
<title>Node4</title>
<g id="a_node4"><a xlink:href="../../dd/ddf/FMC__errors_8h.html#a5dac1ddff314ba7b3bed3d87eb3f19f5" target="_top" xlink:title=" ">
<polygon fill="white" stroke="#666666" points="474,-56 313,-56 313,-37 474,-37 474,-56"/>
<text text-anchor="middle" x="393.5" y="-44" font-family="Helvetica,sans-Serif" font-size="10.00">FMC_resetStreamOutputStyle</text>
</a>
</g>
</g>
<!-- Node2&#45;&gt;Node4 -->
<g id="edge3" class="edge">
<title>Node2&#45;&gt;Node4</title>
<path fill="none" stroke="#63b8ff" d="M277.12,-46.5C285.47,-46.5 294.09,-46.5 302.7,-46.5"/>
<polygon fill="#63b8ff" stroke="#63b8ff" points="302.78,-50 312.78,-46.5 302.78,-43 302.78,-50"/>
</g>
<!-- Node5 -->
<g id="node5" class="node">
<title>Node5</title>
<g id="a_node5"><a xlink:href="../../dd/ddf/FMC__errors_8h.html#ad65d0a387448c0139270e9c628cf4126" target="_top" xlink:title=" ">
<polygon fill="white" stroke="#666666" points="461.5,-19 325.5,-19 325.5,0 461.5,0 461.5,-19"/>
<text text-anchor="middle" x="393.5" y="-7" font-family="Helvetica,sans-Serif" font-size="10.00">FMC_setTextStyleToBold</text>
</a>
</g>
</g>
<!-- Node2&#45;&gt;Node5 -->
<g id="edge4" class="edge">
<title>Node2&#45;&gt;Node5</title>
<path fill="none" stroke="#63b8ff" d="M256.63,-36.97C280.65,-32.11 310.07,-26.17 335.38,-21.05"/>
<polygon fill="#63b8ff" stroke="#63b8ff" points="336.11,-24.47 345.21,-19.06 334.72,-17.61 336.11,-24.47"/>
</g>
</g>
</svg>
