<?xml version="1.0" encoding="UTF-8" standalone="no"?>
<!DOCTYPE svg PUBLIC "-//W3C//DTD SVG 1.1//EN"
 "http://www.w3.org/Graphics/SVG/1.1/DTD/svg11.dtd">
<!-- Generated by graphviz version 7.1.0 (20230121.1956)
 -->
<!-- Title: FManC_String Pages: 1 -->
<svg width="320pt" height="302pt"
 viewBox="0.00 0.00 319.50 302.00" xmlns="http://www.w3.org/2000/svg" xmlns:xlink="http://www.w3.org/1999/xlink">
<g id="graph0" class="graph" transform="scale(1 1) rotate(0) translate(4 298)">
<title>FManC_String</title>
<!-- Node1 -->
<g id="node1" class="node">
<title>Node1</title>
<g id="a_node1"><a xlink:title=" ">
<polygon fill="#999999" stroke="#666666" points="279.5,-30 197.5,-30 197.5,0 279.5,0 279.5,-30"/>
<text text-anchor="middle" x="238.5" y="-18" font-family="Helvetica,sans-Serif" font-size="10.00">{FManC_String</text>
<text text-anchor="middle" x="238.5" y="-7" font-family="Helvetica,sans-Serif" font-size="10.00">||}</text>
</a>
</g>
</g>
<!-- Node2 -->
<g id="node2" class="node">
<title>Node2</title>
<g id="a_node2"><a xlink:href="../../d5/d7a/_f_m_c__structs_8h.html#df/d09/struct_f_man_c___char" target="_top" xlink:title=" ">
<polygon fill="white" stroke="#666666" points="237,-107 160,-107 160,-77 237,-77 237,-107"/>
<text text-anchor="middle" x="198.5" y="-95" font-family="Helvetica,sans-Serif" font-size="10.00">{FManC_Char</text>
<text text-anchor="middle" x="198.5" y="-84" font-family="Helvetica,sans-Serif" font-size="10.00">||}</text>
</a>
</g>
</g>
<!-- Node2&#45;&gt;Node1 -->
<g id="edge1" class="edge">
<title>Node2&#45;&gt;Node1</title>
<path fill="none" stroke="#404040" d="M206.21,-76.54C211.47,-66.68 218.58,-53.36 224.78,-41.72"/>
<polygon fill="none" stroke="#404040" points="224.74,-41.8 224.03,-34.62 230.39,-31.21 231.09,-38.39 224.74,-41.8"/>
<text text-anchor="middle" x="238.5" y="-51" font-family="Helvetica,sans-Serif" font-size="10.00"> +chars</text>
</g>
<!-- Node3 -->
<g id="node3" class="node">
<title>Node3</title>
<g id="a_node3"><a xlink:title=" ">
<polygon fill="white" stroke="#666666" points="129,-184 0,-184 0,-154 129,-154 129,-184"/>
<text text-anchor="middle" x="64.5" y="-172" font-family="Helvetica,sans-Serif" font-size="10.00">{enum FManC_Encodings</text>
<text text-anchor="middle" x="64.5" y="-161" font-family="Helvetica,sans-Serif" font-size="10.00">||}</text>
</a>
</g>
</g>
<!-- Node3&#45;&gt;Node2 -->
<g id="edge2" class="edge">
<title>Node3&#45;&gt;Node2</title>
<path fill="none" stroke="#404040" d="M90.34,-153.54C110.54,-142.23 138.9,-126.36 161.52,-113.7"/>
<polygon fill="none" stroke="#404040" points="161.48,-113.72 164.77,-107.3 171.96,-107.86 168.67,-114.28 161.48,-113.72"/>
<text text-anchor="middle" x="165" y="-128" font-family="Helvetica,sans-Serif" font-size="10.00"> +encoding</text>
</g>
<!-- Node4 -->
<g id="node4" class="node">
<title>Node4</title>
<g id="a_node4"><a xlink:href="../../d5/d7a/_f_m_c__structs_8h.html#dc/daa/struct_f_man_c___char_comp" target="_top" xlink:title=" ">
<polygon fill="white" stroke="#666666" points="249.5,-184 147.5,-184 147.5,-154 249.5,-154 249.5,-184"/>
<text text-anchor="middle" x="198.5" y="-172" font-family="Helvetica,sans-Serif" font-size="10.00">{FManC_CharComp</text>
<text text-anchor="middle" x="198.5" y="-161" font-family="Helvetica,sans-Serif" font-size="10.00">||}</text>
</a>
</g>
</g>
<!-- Node4&#45;&gt;Node2 -->
<g id="edge3" class="edge">
<title>Node4&#45;&gt;Node2</title>
<path fill="none" stroke="#404040" d="M198.5,-153.54C198.5,-144.1 198.5,-131.47 198.5,-120.2"/>
<polygon fill="none" stroke="#404040" points="198.5,-120.32 194.5,-114.32 198.5,-108.32 202.5,-114.32 198.5,-120.32"/>
<text text-anchor="middle" x="215.5" y="-128" font-family="Helvetica,sans-Serif" font-size="10.00"> +comp</text>
</g>
<!-- Node5 -->
<g id="node5" class="node">
<title>Node5</title>
<g id="a_node5"><a xlink:title=" ">
<polygon fill="white" stroke="#666666" points="234.5,-294 162.5,-294 162.5,-264 234.5,-264 234.5,-294"/>
<text text-anchor="middle" x="198.5" y="-282" font-family="Helvetica,sans-Serif" font-size="10.00">{unsigned int</text>
<text text-anchor="middle" x="198.5" y="-271" font-family="Helvetica,sans-Serif" font-size="10.00">||}</text>
</a>
</g>
</g>
<!-- Node5&#45;&gt;Node4 -->
<g id="edge4" class="edge">
<title>Node5&#45;&gt;Node4</title>
<path fill="none" stroke="#404040" d="M198.5,-263.88C198.5,-247.08 198.5,-218.63 198.5,-197.44"/>
<polygon fill="none" stroke="#404040" points="198.5,-197.37 194.5,-191.37 198.5,-185.37 202.5,-191.37 198.5,-197.37"/>
<text text-anchor="middle" x="227.5" y="-238" font-family="Helvetica,sans-Serif" font-size="10.00"> +middleLeft</text>
<text text-anchor="middle" x="227.5" y="-227" font-family="Helvetica,sans-Serif" font-size="10.00">+middleRight</text>
<text text-anchor="middle" x="227.5" y="-216" font-family="Helvetica,sans-Serif" font-size="10.00">+mostLeft</text>
<text text-anchor="middle" x="227.5" y="-205" font-family="Helvetica,sans-Serif" font-size="10.00">+mostRight</text>
</g>
<!-- Node6 -->
<g id="node6" class="node">
<title>Node6</title>
<g id="a_node6"><a xlink:title=" ">
<polygon fill="white" stroke="#666666" points="311.5,-184 267.5,-184 267.5,-154 311.5,-154 311.5,-184"/>
<text text-anchor="middle" x="289.5" y="-172" font-family="Helvetica,sans-Serif" font-size="10.00">{_Bool</text>
<text text-anchor="middle" x="289.5" y="-161" font-family="Helvetica,sans-Serif" font-size="10.00">||}</text>
</a>
</g>
</g>
<!-- Node6&#45;&gt;Node2 -->
<g id="edge5" class="edge">
<title>Node6&#45;&gt;Node2</title>
<path fill="none" stroke="#404040" d="M271.95,-153.54C258.86,-142.75 240.73,-127.8 225.75,-115.46"/>
<polygon fill="none" stroke="#404040" points="225.95,-115.62 218.77,-114.89 216.69,-107.99 223.86,-108.72 225.95,-115.62"/>
<text text-anchor="middle" x="266.5" y="-128" font-family="Helvetica,sans-Serif" font-size="10.00"> +isNull</text>
</g>
<!-- Node7 -->
<g id="node7" class="node">
<title>Node7</title>
<g id="a_node7"><a xlink:title=" ">
<polygon fill="white" stroke="#666666" points="301.5,-107 255.5,-107 255.5,-77 301.5,-77 301.5,-107"/>
<text text-anchor="middle" x="278.5" y="-95" font-family="Helvetica,sans-Serif" font-size="10.00">{size_t</text>
<text text-anchor="middle" x="278.5" y="-84" font-family="Helvetica,sans-Serif" font-size="10.00">||}</text>
</a>
</g>
</g>
<!-- Node7&#45;&gt;Node1 -->
<g id="edge6" class="edge">
<title>Node7&#45;&gt;Node1</title>
<path fill="none" stroke="#404040" d="M271.31,-76.59C267.08,-68.21 261.58,-57.46 256.5,-48 255.37,-45.9 254.19,-43.73 253,-41.56"/>
<polygon fill="none" stroke="#404040" points="252.98,-41.53 246.56,-38.25 247.13,-31.06 253.54,-34.34 252.98,-41.53"/>
<text text-anchor="middle" x="276.5" y="-51" font-family="Helvetica,sans-Serif" font-size="10.00"> +size</text>
</g>
</g>
</svg>
