<?xml version="1.0" encoding="UTF-8" standalone="no"?>
<!DOCTYPE svg PUBLIC "-//W3C//DTD SVG 1.1//EN"
 "http://www.w3.org/Graphics/SVG/1.1/DTD/svg11.dtd">
<!-- Generated by graphviz version 7.1.0 (20230121.1956)
 -->
<!-- Title: src/general/utils/FMC_globals.h Pages: 1 -->
<svg width="213pt" height="214pt"
 viewBox="0.00 0.00 213.00 214.00" xmlns="http://www.w3.org/2000/svg" xmlns:xlink="http://www.w3.org/1999/xlink">
<g id="graph0" class="graph" transform="scale(1 1) rotate(0) translate(4 210)">
<title>src/general/utils/FMC_globals.h</title>
<!-- Node1 -->
<g id="node1" class="node">
<title>Node1</title>
<g id="a_node1"><a xlink:title=" ">
<polygon fill="#999999" stroke="#666666" points="205,-206 95,-206 95,-176 205,-176 205,-206"/>
<text text-anchor="start" x="103" y="-194" font-family="Helvetica,sans-Serif" font-size="10.00">src/general/utils/FMC</text>
<text text-anchor="middle" x="150" y="-183" font-family="Helvetica,sans-Serif" font-size="10.00">_globals.h</text>
</a>
</g>
</g>
<!-- Node2 -->
<g id="node2" class="node">
<title>Node2</title>
<g id="a_node2"><a xlink:href="../../df/dc3/_f_m_c__typedefs_8h.html" target="_top" xlink:title=" ">
<polygon fill="white" stroke="#666666" points="167,-140 43,-140 43,-121 167,-121 167,-140"/>
<text text-anchor="middle" x="105" y="-128" font-family="Helvetica,sans-Serif" font-size="10.00">../types/FMC_typedefs.h</text>
</a>
</g>
</g>
<!-- Node1&#45;&gt;Node2 -->
<g id="edge1" class="edge">
<title>Node1&#45;&gt;Node2</title>
<path fill="none" stroke="#63b8ff" d="M138.88,-175.54C132.74,-167.56 125.07,-157.59 118.59,-149.16"/>
<polygon fill="#63b8ff" stroke="#63b8ff" points="121.47,-147.17 112.6,-141.37 115.92,-151.44 121.47,-147.17"/>
</g>
<!-- Node3 -->
<g id="node3" class="node">
<title>Node3</title>
<g id="a_node3"><a xlink:href="../../d0/d07/_f_m_c__macros_8h.html" target="_top" xlink:title=" ">
<polygon fill="white" stroke="#666666" points="203,-85 97,-85 97,-55 203,-55 203,-85"/>
<text text-anchor="start" x="105" y="-73" font-family="Helvetica,sans-Serif" font-size="10.00">../preprocessor/FMC</text>
<text text-anchor="middle" x="150" y="-62" font-family="Helvetica,sans-Serif" font-size="10.00">_macros.h</text>
</a>
</g>
</g>
<!-- Node1&#45;&gt;Node3 -->
<g id="edge6" class="edge">
<title>Node1&#45;&gt;Node3</title>
<path fill="none" stroke="#63b8ff" d="M159.7,-175.86C165.7,-166.23 172.84,-152.93 176,-140 179.74,-124.69 173.87,-108.15 166.77,-95.11"/>
<polygon fill="#63b8ff" stroke="#63b8ff" points="169.91,-93.54 161.75,-86.78 163.92,-97.15 169.91,-93.54"/>
</g>
<!-- Node2&#45;&gt;Node3 -->
<g id="edge2" class="edge">
<title>Node2&#45;&gt;Node3</title>
<path fill="none" stroke="#63b8ff" d="M111.64,-120.87C117.07,-113.81 125,-103.5 132.25,-94.08"/>
<polygon fill="#63b8ff" stroke="#63b8ff" points="134.9,-96.37 138.22,-86.31 129.35,-92.11 134.9,-96.37"/>
</g>
<!-- Node4 -->
<g id="node4" class="node">
<title>Node4</title>
<g id="a_node4"><a xlink:href="../../d0/dc4/_f_m_c__platform_8h.html" target="_top" xlink:title=" ">
<polygon fill="white" stroke="#666666" points="86,-19 0,-19 0,0 86,0 86,-19"/>
<text text-anchor="middle" x="43" y="-7" font-family="Helvetica,sans-Serif" font-size="10.00">FMC_platform.h</text>
</a>
</g>
</g>
<!-- Node3&#45;&gt;Node4 -->
<g id="edge3" class="edge">
<title>Node3&#45;&gt;Node4</title>
<path fill="none" stroke="#63b8ff" d="M123.55,-54.54C107,-45.49 85.76,-33.88 69.25,-24.85"/>
<polygon fill="#63b8ff" stroke="#63b8ff" points="70.96,-21.8 60.51,-20.07 67.6,-27.94 70.96,-21.8"/>
</g>
<!-- Node5 -->
<g id="node5" class="node">
<title>Node5</title>
<g id="a_node5"><a xlink:href="../../d4/d62/_f_m_c__attributes_8h.html" target="_top" xlink:title=" ">
<polygon fill="white" stroke="#666666" points="196,-19 104,-19 104,0 196,0 196,-19"/>
<text text-anchor="middle" x="150" y="-7" font-family="Helvetica,sans-Serif" font-size="10.00">FMC_attributes.h</text>
</a>
</g>
</g>
<!-- Node3&#45;&gt;Node5 -->
<g id="edge4" class="edge">
<title>Node3&#45;&gt;Node5</title>
<path fill="none" stroke="#63b8ff" d="M144.08,-54.54C143.19,-47.26 143.01,-38.31 143.57,-30.39"/>
<polygon fill="#63b8ff" stroke="#63b8ff" points="147.01,-31.05 144.84,-20.68 140.07,-30.14 147.01,-31.05"/>
</g>
<!-- Node5&#45;&gt;Node3 -->
<g id="edge5" class="edge">
<title>Node5&#45;&gt;Node3</title>
<path fill="none" stroke="#63b8ff" d="M154.96,-19.18C156.34,-25.58 156.92,-34.65 156.71,-43.3"/>
<polygon fill="#63b8ff" stroke="#63b8ff" points="153.23,-42.81 156.02,-53.03 160.21,-43.3 153.23,-42.81"/>
</g>
</g>
</svg>
