<?xml version="1.0" encoding="UTF-8" standalone="no"?>
<!DOCTYPE svg PUBLIC "-//W3C//DTD SVG 1.1//EN"
 "http://www.w3.org/Graphics/SVG/1.1/DTD/svg11.dtd">
<!-- Generated by graphviz version 7.1.0 (20230121.1956)
 -->
<!-- Title: FMC_extractFilename Pages: 1 -->
<svg width="466pt" height="113pt"
 viewBox="0.00 0.00 466.00 112.50" xmlns="http://www.w3.org/2000/svg" xmlns:xlink="http://www.w3.org/1999/xlink">
<g id="graph0" class="graph" transform="scale(1 1) rotate(0) translate(4 108.5)">
<title>FMC_extractFilename</title>
<!-- Node1 -->
<g id="node1" class="node">
<title>Node1</title>
<g id="a_node1"><a xlink:title="Gets the filename from a complete path.">
<polygon fill="#999999" stroke="#666666" points="113,-56 0,-56 0,-37 113,-37 113,-56"/>
<text text-anchor="middle" x="56.5" y="-44" font-family="Helvetica,sans-Serif" font-size="10.00">FMC_extractFilename</text>
</a>
</g>
</g>
<!-- Node2 -->
<g id="node2" class="node">
<title>Node2</title>
<g id="a_node2"><a xlink:href="../../dc/de1/_f_m_c__errors_8h.html#aa53062880249a772fa5af75cbb637d14" target="_top" xlink:title=" ">
<polygon fill="white" stroke="#666666" points="274,-56 149,-56 149,-37 274,-37 274,-56"/>
<text text-anchor="middle" x="211.5" y="-44" font-family="Helvetica,sans-Serif" font-size="10.00">FMC_printBrightRedError</text>
</a>
</g>
</g>
<!-- Node1&#45;&gt;Node2 -->
<g id="edge1" class="edge">
<title>Node1&#45;&gt;Node2</title>
<path fill="none" stroke="#63b8ff" d="M113.17,-46.5C121.01,-46.5 129.17,-46.5 137.27,-46.5"/>
<polygon fill="#63b8ff" stroke="#63b8ff" points="137.15,-50 147.15,-46.5 137.15,-43 137.15,-50"/>
</g>
<!-- Node3 -->
<g id="node3" class="node">
<title>Node3</title>
<g id="a_node3"><a xlink:href="../../dc/de1/_f_m_c__errors_8h.html#abfd332c091d02782f186ebfa172b6acd" target="_top" xlink:title=" ">
<polygon fill="white" stroke="#666666" points="457.5,-104.5 310.5,-104.5 310.5,-74.5 457.5,-74.5 457.5,-104.5"/>
<text text-anchor="start" x="318.5" y="-92.5" font-family="Helvetica,sans-Serif" font-size="10.00">FMC_changeStreamTextColor</text>
<text text-anchor="middle" x="384" y="-81.5" font-family="Helvetica,sans-Serif" font-size="10.00">ToBrightRed</text>
</a>
</g>
</g>
<!-- Node2&#45;&gt;Node3 -->
<g id="edge2" class="edge">
<title>Node2&#45;&gt;Node3</title>
<path fill="none" stroke="#63b8ff" d="M252.04,-56.47C269.48,-60.87 290.53,-66.18 310.6,-71.24"/>
<polygon fill="#63b8ff" stroke="#63b8ff" points="309.61,-74.6 320.16,-73.65 311.32,-67.81 309.61,-74.6"/>
</g>
<!-- Node4 -->
<g id="node4" class="node">
<title>Node4</title>
<g id="a_node4"><a xlink:href="../../dc/de1/_f_m_c__errors_8h.html#a5dac1ddff314ba7b3bed3d87eb3f19f5" target="_top" xlink:title=" ">
<polygon fill="white" stroke="#666666" points="458,-56 310,-56 310,-37 458,-37 458,-56"/>
<text text-anchor="middle" x="384" y="-44" font-family="Helvetica,sans-Serif" font-size="10.00">FMC_resetStreamOutputStyle</text>
</a>
</g>
</g>
<!-- Node2&#45;&gt;Node4 -->
<g id="edge3" class="edge">
<title>Node2&#45;&gt;Node4</title>
<path fill="none" stroke="#63b8ff" d="M274.05,-46.5C281.9,-46.5 290.03,-46.5 298.17,-46.5"/>
<polygon fill="#63b8ff" stroke="#63b8ff" points="298.11,-50 308.11,-46.5 298.11,-43 298.11,-50"/>
</g>
<!-- Node5 -->
<g id="node5" class="node">
<title>Node5</title>
<g id="a_node5"><a xlink:href="../../dc/de1/_f_m_c__errors_8h.html#ad65d0a387448c0139270e9c628cf4126" target="_top" xlink:title=" ">
<polygon fill="white" stroke="#666666" points="448,-19 320,-19 320,0 448,0 448,-19"/>
<text text-anchor="middle" x="384" y="-7" font-family="Helvetica,sans-Serif" font-size="10.00">FMC_setTextStyleToBold</text>
</a>
</g>
</g>
<!-- Node2&#45;&gt;Node5 -->
<g id="edge4" class="edge">
<title>Node2&#45;&gt;Node5</title>
<path fill="none" stroke="#63b8ff" d="M258.19,-36.58C279.02,-32.06 303.9,-26.66 325.95,-21.88"/>
<polygon fill="#63b8ff" stroke="#63b8ff" points="326.67,-25.3 335.7,-19.76 325.19,-18.46 326.67,-25.3"/>
</g>
</g>
</svg>
