<?xml version="1.0" encoding="UTF-8" standalone="no"?>
<!DOCTYPE svg PUBLIC "-//W3C//DTD SVG 1.1//EN"
 "http://www.w3.org/Graphics/SVG/1.1/DTD/svg11.dtd">
<!-- Generated by graphviz version 7.1.0 (20230121.1956)
 -->
<!-- Title: src/general/types/FMC_structs.h Pages: 1 -->
<svg width="420pt" height="225pt"
 viewBox="0.00 0.00 420.00 225.00" xmlns="http://www.w3.org/2000/svg" xmlns:xlink="http://www.w3.org/1999/xlink">
<g id="graph0" class="graph" transform="scale(1 1) rotate(0) translate(4 221)">
<title>src/general/types/FMC_structs.h</title>
<!-- Node1 -->
<g id="node1" class="node">
<title>Node1</title>
<g id="a_node1"><a xlink:title=" ">
<polygon fill="#999999" stroke="#666666" points="256,-217 140,-217 140,-187 256,-187 256,-217"/>
<text text-anchor="start" x="148" y="-205" font-family="Helvetica,sans-Serif" font-size="10.00">src/general/types/FMC</text>
<text text-anchor="middle" x="198" y="-194" font-family="Helvetica,sans-Serif" font-size="10.00">_structs.h</text>
</a>
</g>
</g>
<!-- Node2 -->
<g id="node2" class="node">
<title>Node2</title>
<g id="a_node2"><a xlink:title=" ">
<polygon fill="#e0e0e0" stroke="#999999" points="46,-145.5 0,-145.5 0,-126.5 46,-126.5 46,-145.5"/>
<text text-anchor="middle" x="23" y="-133.5" font-family="Helvetica,sans-Serif" font-size="10.00">stdio.h</text>
</a>
</g>
</g>
<!-- Node1&#45;&gt;Node2 -->
<g id="edge1" class="edge">
<title>Node1&#45;&gt;Node2</title>
<path fill="none" stroke="#63b8ff" d="M153.87,-186.54C125.44,-176.98 87.8,-163.89 55,-151 54.38,-150.76 53.76,-150.51 53.13,-150.26"/>
<polygon fill="#63b8ff" stroke="#63b8ff" points="54.85,-147.18 44.27,-146.56 52.15,-153.64 54.85,-147.18"/>
</g>
<!-- Node3 -->
<g id="node3" class="node">
<title>Node3</title>
<g id="a_node3"><a xlink:href="../../d8/d6d/_f_m_c__consts_8h.html" target="_top" xlink:title=" ">
<polygon fill="white" stroke="#666666" points="170,-151 64,-151 64,-121 170,-121 170,-151"/>
<text text-anchor="start" x="72" y="-139" font-family="Helvetica,sans-Serif" font-size="10.00">../preprocessor/FMC</text>
<text text-anchor="middle" x="117" y="-128" font-family="Helvetica,sans-Serif" font-size="10.00">_consts.h</text>
</a>
</g>
</g>
<!-- Node1&#45;&gt;Node3 -->
<g id="edge2" class="edge">
<title>Node1&#45;&gt;Node3</title>
<path fill="none" stroke="#63b8ff" d="M180.02,-186.8C169.51,-178.49 156.02,-167.83 144.22,-158.5"/>
<polygon fill="#63b8ff" stroke="#63b8ff" points="146.41,-155.78 136.39,-152.32 142.07,-161.27 146.41,-155.78"/>
</g>
<!-- Node4 -->
<g id="node4" class="node">
<title>Node4</title>
<g id="a_node4"><a xlink:href="../../d0/d07/_f_m_c__macros_8h.html" target="_top" xlink:title=" ">
<polygon fill="white" stroke="#666666" points="319,-85 213,-85 213,-55 319,-55 319,-85"/>
<text text-anchor="start" x="221" y="-73" font-family="Helvetica,sans-Serif" font-size="10.00">../preprocessor/FMC</text>
<text text-anchor="middle" x="266" y="-62" font-family="Helvetica,sans-Serif" font-size="10.00">_macros.h</text>
</a>
</g>
</g>
<!-- Node1&#45;&gt;Node4 -->
<g id="edge3" class="edge">
<title>Node1&#45;&gt;Node4</title>
<path fill="none" stroke="#63b8ff" d="M199.08,-186.58C200.85,-169.89 205.41,-142 217,-121 222.67,-110.73 231.02,-101.1 239.23,-93.09"/>
<polygon fill="#63b8ff" stroke="#63b8ff" points="241.52,-95.74 246.51,-86.39 236.78,-90.59 241.52,-95.74"/>
</g>
<!-- Node7 -->
<g id="node7" class="node">
<title>Node7</title>
<g id="a_node7"><a xlink:href="../../d9/dab/_f_m_c__enums_8h.html" target="_top" xlink:title=" ">
<polygon fill="white" stroke="#666666" points="306,-145.5 226,-145.5 226,-126.5 306,-126.5 306,-145.5"/>
<text text-anchor="middle" x="266" y="-133.5" font-family="Helvetica,sans-Serif" font-size="10.00">FMC_enums.h</text>
</a>
</g>
</g>
<!-- Node1&#45;&gt;Node7 -->
<g id="edge7" class="edge">
<title>Node1&#45;&gt;Node7</title>
<path fill="none" stroke="#63b8ff" d="M213.09,-186.8C223.48,-177.01 237.33,-163.98 248.26,-153.7"/>
<polygon fill="#63b8ff" stroke="#63b8ff" points="250.62,-156.28 255.5,-146.88 245.82,-151.19 250.62,-156.28"/>
</g>
<!-- Node8 -->
<g id="node8" class="node">
<title>Node8</title>
<g id="a_node8"><a xlink:href="../../df/dc3/_f_m_c__typedefs_8h.html" target="_top" xlink:title=" ">
<polygon fill="white" stroke="#666666" points="412,-145.5 324,-145.5 324,-126.5 412,-126.5 412,-145.5"/>
<text text-anchor="middle" x="368" y="-133.5" font-family="Helvetica,sans-Serif" font-size="10.00">FMC_typedefs.h</text>
</a>
</g>
</g>
<!-- Node1&#45;&gt;Node8 -->
<g id="edge9" class="edge">
<title>Node1&#45;&gt;Node8</title>
<path fill="none" stroke="#63b8ff" d="M236.15,-186.64C265.36,-175.64 305.31,-160.6 333.55,-149.97"/>
<polygon fill="#63b8ff" stroke="#63b8ff" points="334.59,-153.32 342.71,-146.52 332.12,-146.77 334.59,-153.32"/>
</g>
<!-- Node5 -->
<g id="node5" class="node">
<title>Node5</title>
<g id="a_node5"><a xlink:href="../../d0/dc4/_f_m_c__platform_8h.html" target="_top" xlink:title=" ">
<polygon fill="white" stroke="#666666" points="202,-19 116,-19 116,0 202,0 202,-19"/>
<text text-anchor="middle" x="159" y="-7" font-family="Helvetica,sans-Serif" font-size="10.00">FMC_platform.h</text>
</a>
</g>
</g>
<!-- Node4&#45;&gt;Node5 -->
<g id="edge4" class="edge">
<title>Node4&#45;&gt;Node5</title>
<path fill="none" stroke="#63b8ff" d="M239.55,-54.54C223,-45.49 201.76,-33.88 185.25,-24.85"/>
<polygon fill="#63b8ff" stroke="#63b8ff" points="186.96,-21.8 176.51,-20.07 183.6,-27.94 186.96,-21.8"/>
</g>
<!-- Node6 -->
<g id="node6" class="node">
<title>Node6</title>
<g id="a_node6"><a xlink:href="../../d4/d62/_f_m_c__attributes_8h.html" target="_top" xlink:title=" ">
<polygon fill="white" stroke="#666666" points="312,-19 220,-19 220,0 312,0 312,-19"/>
<text text-anchor="middle" x="266" y="-7" font-family="Helvetica,sans-Serif" font-size="10.00">FMC_attributes.h</text>
</a>
</g>
</g>
<!-- Node4&#45;&gt;Node6 -->
<g id="edge5" class="edge">
<title>Node4&#45;&gt;Node6</title>
<path fill="none" stroke="#63b8ff" d="M260.08,-54.54C259.19,-47.26 259.01,-38.31 259.57,-30.39"/>
<polygon fill="#63b8ff" stroke="#63b8ff" points="263.01,-31.05 260.84,-20.68 256.07,-30.14 263.01,-31.05"/>
</g>
<!-- Node6&#45;&gt;Node4 -->
<g id="edge6" class="edge">
<title>Node6&#45;&gt;Node4</title>
<path fill="none" stroke="#63b8ff" d="M270.96,-19.18C272.34,-25.58 272.92,-34.65 272.71,-43.3"/>
<polygon fill="#63b8ff" stroke="#63b8ff" points="269.23,-42.81 272.02,-53.03 276.21,-43.3 269.23,-42.81"/>
</g>
<!-- Node7&#45;&gt;Node4 -->
<g id="edge8" class="edge">
<title>Node7&#45;&gt;Node4</title>
<path fill="none" stroke="#63b8ff" d="M266,-126.1C266,-118.41 266,-106.92 266,-96.42"/>
<polygon fill="#63b8ff" stroke="#63b8ff" points="269.5,-96.75 266,-86.75 262.5,-96.75 269.5,-96.75"/>
</g>
<!-- Node8&#45;&gt;Node4 -->
<g id="edge10" class="edge">
<title>Node8&#45;&gt;Node4</title>
<path fill="none" stroke="#63b8ff" d="M353.82,-126.1C339.62,-117.19 317.27,-103.17 298.67,-91.5"/>
<polygon fill="#63b8ff" stroke="#63b8ff" points="300.69,-88.63 290.36,-86.28 296.97,-94.56 300.69,-88.63"/>
</g>
</g>
</svg>
