<?xml version="1.0" encoding="UTF-8" standalone="no"?>
<!DOCTYPE svg PUBLIC "-//W3C//DTD SVG 1.1//EN"
 "http://www.w3.org/Graphics/SVG/1.1/DTD/svg11.dtd">
<!-- Generated by graphviz version 2.43.0 (0)
 -->
<!-- Title: src/fileMan.h Pages: 1 -->
<svg width="386pt" height="82pt"
 viewBox="0.00 0.00 386.00 82.00" xmlns="http://www.w3.org/2000/svg" xmlns:xlink="http://www.w3.org/1999/xlink">
<g id="graph0" class="graph" transform="scale(1 1) rotate(0) translate(4 78)">
<title>src/fileMan.h</title>
<!-- Node1 -->
<g id="node1" class="node">
<title>Node1</title>
<g id="a_node1"><a xlink:title="This header contains macro definitions and function declarations that are written in this file.">
<polygon fill="#999999" stroke="#666666" points="234.5,-74 155.5,-74 155.5,-55 234.5,-55 234.5,-74"/>
<text text-anchor="middle" x="195" y="-62" font-family="Helvetica,sans-Serif" font-size="10.00">src/fileMan.h</text>
</a>
</g>
</g>
<!-- Node2 -->
<g id="node2" class="node">
<title>Node2</title>
<g id="a_node2"><a xlink:href="../../d7/d93/analyze_8c.html" target="_top" xlink:title=" ">
<polygon fill="white" stroke="#666666" points="80,-19 0,-19 0,0 80,0 80,-19"/>
<text text-anchor="middle" x="40" y="-7" font-family="Helvetica,sans-Serif" font-size="10.00">src/analyze.c</text>
</a>
</g>
</g>
<!-- Node1&#45;&gt;Node2 -->
<g id="edge1" class="edge">
<title>Node1&#45;&gt;Node2</title>
<path fill="none" stroke="#63b8ff" d="M160.4,-51.67C131.5,-41.79 90.97,-27.93 65.1,-19.08"/>
<polygon fill="#63b8ff" stroke="#63b8ff" points="159.5,-55.06 170.1,-54.98 161.77,-48.44 159.5,-55.06"/>
</g>
<!-- Node3 -->
<g id="node3" class="node">
<title>Node3</title>
<g id="a_node3"><a xlink:href="../../d2/dfa/code__utils_8c.html" target="_top" xlink:title=" ">
<polygon fill="white" stroke="#666666" points="190,-19 98,-19 98,0 190,0 190,-19"/>
<text text-anchor="middle" x="144" y="-7" font-family="Helvetica,sans-Serif" font-size="10.00">src/code_utils.c</text>
</a>
</g>
</g>
<!-- Node1&#45;&gt;Node3 -->
<g id="edge2" class="edge">
<title>Node1&#45;&gt;Node3</title>
<path fill="none" stroke="#63b8ff" d="M179.62,-47.52C170.63,-38.18 159.64,-26.75 152.26,-19.09"/>
<polygon fill="#63b8ff" stroke="#63b8ff" points="177.12,-49.97 186.58,-54.75 182.17,-45.12 177.12,-49.97"/>
</g>
<!-- Node4 -->
<g id="node4" class="node">
<title>Node4</title>
<g id="a_node4"><a xlink:href="../../d2/d77/fileMan_8c.html" target="_top" xlink:title=" ">
<polygon fill="white" stroke="#666666" points="286,-19 208,-19 208,0 286,0 286,-19"/>
<text text-anchor="middle" x="247" y="-7" font-family="Helvetica,sans-Serif" font-size="10.00">src/fileMan.c</text>
</a>
</g>
</g>
<!-- Node1&#45;&gt;Node4 -->
<g id="edge3" class="edge">
<title>Node1&#45;&gt;Node4</title>
<path fill="none" stroke="#63b8ff" d="M210.68,-47.52C219.84,-38.18 231.05,-26.75 238.57,-19.09"/>
<polygon fill="#63b8ff" stroke="#63b8ff" points="208.09,-45.16 203.59,-54.75 213.09,-50.06 208.09,-45.16"/>
</g>
<!-- Node5 -->
<g id="node5" class="node">
<title>Node5</title>
<g id="a_node5"><a xlink:href="../../d5/dc4/fmanc_8h.html" target="_top" xlink:title="This is the main header of the lib, where all of the headers are included.">
<polygon fill="white" stroke="#666666" points="378,-19 304,-19 304,0 378,0 378,-19"/>
<text text-anchor="middle" x="341" y="-7" font-family="Helvetica,sans-Serif" font-size="10.00">src/fmanc.h</text>
</a>
</g>
</g>
<!-- Node1&#45;&gt;Node5 -->
<g id="edge4" class="edge">
<title>Node1&#45;&gt;Node5</title>
<path fill="none" stroke="#63b8ff" d="M227.92,-51.55C255.03,-41.71 292.83,-27.98 317.12,-19.17"/>
<polygon fill="#63b8ff" stroke="#63b8ff" points="226.66,-48.28 218.46,-54.98 229.05,-54.86 226.66,-48.28"/>
</g>
</g>
</svg>
