<?xml version="1.0" encoding="UTF-8" standalone="no"?>
<!DOCTYPE svg PUBLIC "-//W3C//DTD SVG 1.1//EN"
 "http://www.w3.org/Graphics/SVG/1.1/DTD/svg11.dtd">
<!-- Generated by graphviz version 7.1.0 (20230121.1956)
 -->
<!-- Title: src/general/preprocessor/FMC_platform.h Pages: 1 -->
<svg width="848pt" height="478pt"
 viewBox="0.00 0.00 847.64 478.00" xmlns="http://www.w3.org/2000/svg" xmlns:xlink="http://www.w3.org/1999/xlink">
<g id="graph0" class="graph" transform="scale(1 1) rotate(0) translate(4 474)">
<title>src/general/preprocessor/FMC_platform.h</title>
<!-- Node1 -->
<g id="node1" class="node">
<title>Node1</title>
<g id="a_node1"><a xlink:title=" ">
<polygon fill="#999999" stroke="#666666" points="743,-470 619,-470 619,-440 743,-440 743,-470"/>
<text text-anchor="start" x="627" y="-458" font-family="Helvetica,sans-Serif" font-size="10.00">src/general/preprocessor</text>
<text text-anchor="middle" x="681" y="-447" font-family="Helvetica,sans-Serif" font-size="10.00">/FMC_platform.h</text>
</a>
</g>
</g>
<!-- Node2 -->
<g id="node2" class="node">
<title>Node2</title>
<g id="a_node2"><a xlink:href="../../d2/db5/_f_m_c__general_8h.html" target="_top" xlink:title=" ">
<polygon fill="white" stroke="#666666" points="537,-206 403,-206 403,-187 537,-187 537,-206"/>
<text text-anchor="middle" x="470" y="-194" font-family="Helvetica,sans-Serif" font-size="10.00">src/general/FMC_general.h</text>
</a>
</g>
</g>
<!-- Node1&#45;&gt;Node2 -->
<g id="edge1" class="edge">
<title>Node1&#45;&gt;Node2</title>
<path fill="none" stroke="#63b8ff" d="M725.55,-434.57C762.44,-415.77 812.33,-383.45 835,-338 844.78,-318.39 836.4,-251.43 827,-242 806.94,-221.87 634.96,-207.87 537.22,-201.46"/>
<polygon fill="#63b8ff" stroke="#63b8ff" points="724.3,-431.28 716.88,-438.84 727.4,-437.56 724.3,-431.28"/>
</g>
<!-- Node13 -->
<g id="node13" class="node">
<title>Node13</title>
<g id="a_node13"><a xlink:href="../../d0/d07/_f_m_c__macros_8h.html" target="_top" xlink:title=" ">
<polygon fill="white" stroke="#666666" points="570,-404 446,-404 446,-374 570,-374 570,-404"/>
<text text-anchor="start" x="454" y="-392" font-family="Helvetica,sans-Serif" font-size="10.00">src/general/preprocessor</text>
<text text-anchor="middle" x="508" y="-381" font-family="Helvetica,sans-Serif" font-size="10.00">/FMC_macros.h</text>
</a>
</g>
</g>
<!-- Node1&#45;&gt;Node13 -->
<g id="edge16" class="edge">
<title>Node1&#45;&gt;Node13</title>
<path fill="none" stroke="#63b8ff" d="M631.46,-435.67C604.64,-425.75 571.98,-413.67 546.99,-404.43"/>
<polygon fill="#63b8ff" stroke="#63b8ff" points="630.16,-438.92 640.76,-439.11 632.59,-432.36 630.16,-438.92"/>
</g>
<!-- Node3 -->
<g id="node3" class="node">
<title>Node3</title>
<g id="a_node3"><a xlink:href="../../d9/d0f/_f_m_c_8h.html" target="_top" xlink:title=" ">
<polygon fill="white" stroke="#666666" points="338,-19 276,-19 276,0 338,0 338,-19"/>
<text text-anchor="middle" x="307" y="-7" font-family="Helvetica,sans-Serif" font-size="10.00">src/FMC.h</text>
</a>
</g>
</g>
<!-- Node2&#45;&gt;Node3 -->
<g id="edge2" class="edge">
<title>Node2&#45;&gt;Node3</title>
<path fill="none" stroke="#63b8ff" d="M548.36,-187.81C664.36,-173.56 860.46,-136.7 786,-55 755.83,-21.9 439.93,-13.03 338.3,-11.02"/>
<polygon fill="#63b8ff" stroke="#63b8ff" points="548.07,-184.32 538.56,-188.98 548.9,-191.27 548.07,-184.32"/>
</g>
<!-- Node4 -->
<g id="node4" class="node">
<title>Node4</title>
<g id="a_node4"><a xlink:href="../../d7/de5/_f_m_c__code__utils_8h.html" target="_top" xlink:title=" ">
<polygon fill="white" stroke="#666666" points="161.5,-151 60.5,-151 60.5,-121 161.5,-121 161.5,-151"/>
<text text-anchor="start" x="68.5" y="-139" font-family="Helvetica,sans-Serif" font-size="10.00">src/code_utils/FMC</text>
<text text-anchor="middle" x="111" y="-128" font-family="Helvetica,sans-Serif" font-size="10.00">_code_utils.h</text>
</a>
</g>
</g>
<!-- Node2&#45;&gt;Node4 -->
<g id="edge3" class="edge">
<title>Node2&#45;&gt;Node4</title>
<path fill="none" stroke="#63b8ff" d="M403.79,-184.71C333.91,-173.32 225.28,-155.62 161.84,-145.28"/>
<polygon fill="#63b8ff" stroke="#63b8ff" points="403.16,-188.15 413.59,-186.31 404.28,-181.25 403.16,-188.15"/>
</g>
<!-- Node5 -->
<g id="node5" class="node">
<title>Node5</title>
<g id="a_node5"><a xlink:href="../../d9/d1f/_f_m_c__encodings_8h.html" target="_top" xlink:title=" ">
<polygon fill="white" stroke="#666666" points="370,-151 232,-151 232,-121 370,-121 370,-151"/>
<text text-anchor="start" x="240" y="-139" font-family="Helvetica,sans-Serif" font-size="10.00">src/data_analyze/encodings</text>
<text text-anchor="middle" x="301" y="-128" font-family="Helvetica,sans-Serif" font-size="10.00">/FMC_encodings.h</text>
</a>
</g>
</g>
<!-- Node2&#45;&gt;Node5 -->
<g id="edge5" class="edge">
<title>Node2&#45;&gt;Node5</title>
<path fill="none" stroke="#63b8ff" d="M433.53,-182.88C406.83,-173.64 370.56,-161.08 342.71,-151.44"/>
<polygon fill="#63b8ff" stroke="#63b8ff" points="432.31,-186.16 442.9,-186.12 434.6,-179.54 432.31,-186.16"/>
</g>
<!-- Node8 -->
<g id="node8" class="node">
<title>Node8</title>
<g id="a_node8"><a xlink:href="../../d2/d1d/_f_m_c__strings_8h.html" target="_top" xlink:title=" ">
<polygon fill="white" stroke="#666666" points="511.5,-151 388.5,-151 388.5,-121 511.5,-121 511.5,-151"/>
<text text-anchor="start" x="396.5" y="-139" font-family="Helvetica,sans-Serif" font-size="10.00">src/data_analyze/strings</text>
<text text-anchor="middle" x="450" y="-128" font-family="Helvetica,sans-Serif" font-size="10.00">/FMC_strings.h</text>
</a>
</g>
</g>
<!-- Node2&#45;&gt;Node8 -->
<g id="edge9" class="edge">
<title>Node2&#45;&gt;Node8</title>
<path fill="none" stroke="#63b8ff" d="M463.36,-176.08C460.57,-167.92 457.39,-158.6 454.83,-151.11"/>
<polygon fill="#63b8ff" stroke="#63b8ff" points="460.01,-177.11 466.56,-185.44 466.64,-174.84 460.01,-177.11"/>
</g>
<!-- Node10 -->
<g id="node10" class="node">
<title>Node10</title>
<g id="a_node10"><a xlink:href="../../d8/d29/_f_m_c__file__management_8h.html" target="_top" xlink:title=" ">
<polygon fill="white" stroke="#666666" points="691,-151 599,-151 599,-121 691,-121 691,-151"/>
<text text-anchor="start" x="607" y="-139" font-family="Helvetica,sans-Serif" font-size="10.00">src/files/FMC_file</text>
<text text-anchor="middle" x="645" y="-128" font-family="Helvetica,sans-Serif" font-size="10.00">_management.h</text>
</a>
</g>
</g>
<!-- Node2&#45;&gt;Node10 -->
<g id="edge12" class="edge">
<title>Node2&#45;&gt;Node10</title>
<path fill="none" stroke="#63b8ff" d="M507.39,-183C535.07,-173.75 572.84,-161.12 601.8,-151.44"/>
<polygon fill="#63b8ff" stroke="#63b8ff" points="506.39,-179.65 498.01,-186.14 508.61,-186.28 506.39,-179.65"/>
</g>
<!-- Node4&#45;&gt;Node3 -->
<g id="edge4" class="edge">
<title>Node4&#45;&gt;Node3</title>
<path fill="none" stroke="#63b8ff" d="M91.88,-111.15C80.57,-93.98 70.79,-71.11 84,-55 107.91,-25.85 220.28,-15.43 275.8,-12.01"/>
<polygon fill="#63b8ff" stroke="#63b8ff" points="89.02,-113.17 97.68,-119.27 94.72,-109.1 89.02,-113.17"/>
</g>
<!-- Node6 -->
<g id="node6" class="node">
<title>Node6</title>
<g id="a_node6"><a xlink:href="../../d7/d3a/_f_m_c__data__analyze_8h.html" target="_top" xlink:title=" ">
<polygon fill="white" stroke="#666666" points="364.5,-85 249.5,-85 249.5,-55 364.5,-55 364.5,-85"/>
<text text-anchor="start" x="257.5" y="-73" font-family="Helvetica,sans-Serif" font-size="10.00">src/data_analyze/FMC</text>
<text text-anchor="middle" x="307" y="-62" font-family="Helvetica,sans-Serif" font-size="10.00">_data_analyze.h</text>
</a>
</g>
</g>
<!-- Node5&#45;&gt;Node6 -->
<g id="edge6" class="edge">
<title>Node5&#45;&gt;Node6</title>
<path fill="none" stroke="#63b8ff" d="M303.4,-109.39C304.17,-101.13 305,-92.28 305.67,-85.16"/>
<polygon fill="#63b8ff" stroke="#63b8ff" points="299.92,-109.01 302.47,-119.29 306.89,-109.66 299.92,-109.01"/>
</g>
<!-- Node7 -->
<g id="node7" class="node">
<title>Node7</title>
<g id="a_node7"><a xlink:href="../../da/da9/_f_m_c__encodings_8c.html" target="_top" xlink:title=" ">
<polygon fill="white" stroke="#666666" points="231,-85 93,-85 93,-55 231,-55 231,-85"/>
<text text-anchor="start" x="101" y="-73" font-family="Helvetica,sans-Serif" font-size="10.00">src/data_analyze/encodings</text>
<text text-anchor="middle" x="162" y="-62" font-family="Helvetica,sans-Serif" font-size="10.00">/FMC_encodings.c</text>
</a>
</g>
</g>
<!-- Node5&#45;&gt;Node7 -->
<g id="edge8" class="edge">
<title>Node5&#45;&gt;Node7</title>
<path fill="none" stroke="#63b8ff" d="M259.42,-115.86C238.13,-106.05 212.65,-94.32 193.09,-85.31"/>
<polygon fill="#63b8ff" stroke="#63b8ff" points="257.88,-119 268.43,-120 260.81,-112.64 257.88,-119"/>
</g>
<!-- Node6&#45;&gt;Node3 -->
<g id="edge7" class="edge">
<title>Node6&#45;&gt;Node3</title>
<path fill="none" stroke="#63b8ff" d="M307,-43.3C307,-34.65 307,-25.58 307,-19.18"/>
<polygon fill="#63b8ff" stroke="#63b8ff" points="303.5,-43.03 307,-53.03 310.5,-43.03 303.5,-43.03"/>
</g>
<!-- Node8&#45;&gt;Node6 -->
<g id="edge10" class="edge">
<title>Node8&#45;&gt;Node6</title>
<path fill="none" stroke="#63b8ff" d="M407.53,-115.99C385.56,-106.16 359.2,-94.36 338.98,-85.31"/>
<polygon fill="#63b8ff" stroke="#63b8ff" points="405.97,-119.13 416.53,-120.02 408.83,-112.74 405.97,-119.13"/>
</g>
<!-- Node9 -->
<g id="node9" class="node">
<title>Node9</title>
<g id="a_node9"><a xlink:href="../../d5/dd0/_f_m_c__chars_8c.html" target="_top" xlink:title=" ">
<polygon fill="white" stroke="#666666" points="505.5,-85 382.5,-85 382.5,-55 505.5,-55 505.5,-85"/>
<text text-anchor="start" x="390.5" y="-73" font-family="Helvetica,sans-Serif" font-size="10.00">src/data_analyze/strings</text>
<text text-anchor="middle" x="444" y="-62" font-family="Helvetica,sans-Serif" font-size="10.00">/FMC_chars.c</text>
</a>
</g>
</g>
<!-- Node8&#45;&gt;Node9 -->
<g id="edge11" class="edge">
<title>Node8&#45;&gt;Node9</title>
<path fill="none" stroke="#63b8ff" d="M447.6,-109.39C446.83,-101.13 446,-92.28 445.33,-85.16"/>
<polygon fill="#63b8ff" stroke="#63b8ff" points="444.11,-109.66 448.53,-119.29 451.08,-109.01 444.11,-109.66"/>
</g>
<!-- Node10&#45;&gt;Node3 -->
<g id="edge13" class="edge">
<title>Node10&#45;&gt;Node3</title>
<path fill="none" stroke="#63b8ff" d="M702.2,-120.34C745.72,-106.53 794.05,-83.68 768,-55 739.11,-23.19 437.07,-13.48 338.16,-11.14"/>
<polygon fill="#63b8ff" stroke="#63b8ff" points="701.29,-116.96 692.74,-123.22 703.32,-123.66 701.29,-116.96"/>
</g>
<!-- Node11 -->
<g id="node11" class="node">
<title>Node11</title>
<g id="a_node11"><a xlink:href="../../d6/dc6/_f_m_c__files_8c.html" target="_top" xlink:title=" ">
<polygon fill="white" stroke="#666666" points="759.5,-79.5 654.5,-79.5 654.5,-60.5 759.5,-60.5 759.5,-79.5"/>
<text text-anchor="middle" x="707" y="-67.5" font-family="Helvetica,sans-Serif" font-size="10.00">src/files/FMC_files.c</text>
</a>
</g>
</g>
<!-- Node10&#45;&gt;Node11 -->
<g id="edge14" class="edge">
<title>Node10&#45;&gt;Node11</title>
<path fill="none" stroke="#63b8ff" d="M666.69,-112.61C677.62,-101.32 690.26,-88.28 698.43,-79.84"/>
<polygon fill="#63b8ff" stroke="#63b8ff" points="664.26,-110.09 659.81,-119.71 669.28,-114.96 664.26,-110.09"/>
</g>
<!-- Node12 -->
<g id="node12" class="node">
<title>Node12</title>
<g id="a_node12"><a xlink:href="../../da/d92/_f_m_c__paths_8c.html" target="_top" xlink:title=" ">
<polygon fill="white" stroke="#666666" points="636,-79.5 524,-79.5 524,-60.5 636,-60.5 636,-79.5"/>
<text text-anchor="middle" x="580" y="-67.5" font-family="Helvetica,sans-Serif" font-size="10.00">src/files/FMC_paths.c</text>
</a>
</g>
</g>
<!-- Node10&#45;&gt;Node12 -->
<g id="edge15" class="edge">
<title>Node10&#45;&gt;Node12</title>
<path fill="none" stroke="#63b8ff" d="M622.6,-112.94C611.06,-101.58 597.63,-88.36 588.98,-79.84"/>
<polygon fill="#63b8ff" stroke="#63b8ff" points="619.91,-115.21 629.5,-119.73 624.83,-110.22 619.91,-115.21"/>
</g>
<!-- Node13&#45;&gt;Node2 -->
<g id="edge20" class="edge">
<title>Node13&#45;&gt;Node2</title>
<path fill="none" stroke="#63b8ff" d="M502.91,-362.47C494.3,-319.31 477.26,-233.92 471.76,-206.32"/>
<polygon fill="#63b8ff" stroke="#63b8ff" points="499.46,-363.08 504.85,-372.2 506.32,-361.71 499.46,-363.08"/>
</g>
<!-- Node14 -->
<g id="node14" class="node">
<title>Node14</title>
<g id="a_node14"><a xlink:href="../../de/d04/_f_m_c__wrapper_8h.html" target="_top" xlink:title=" ">
<polygon fill="white" stroke="#666666" points="136,-332.5 16,-332.5 16,-313.5 136,-313.5 136,-332.5"/>
<text text-anchor="middle" x="76" y="-320.5" font-family="Helvetica,sans-Serif" font-size="10.00">src/cpp/FMC_wrapper.h</text>
</a>
</g>
</g>
<!-- Node13&#45;&gt;Node14 -->
<g id="edge17" class="edge">
<title>Node13&#45;&gt;Node14</title>
<path fill="none" stroke="#63b8ff" d="M434.51,-378.79C362.03,-369.46 248.16,-354.13 150,-338 140.71,-336.47 130.79,-334.7 121.34,-332.93"/>
<polygon fill="#63b8ff" stroke="#63b8ff" points="433.91,-382.24 444.27,-380.04 434.8,-375.3 433.91,-382.24"/>
</g>
<!-- Node16 -->
<g id="node16" class="node">
<title>Node16</title>
<g id="a_node16"><a xlink:href="../../d4/d62/_f_m_c__attributes_8h.html" target="_top" xlink:title=" ">
<polygon fill="white" stroke="#666666" points="826,-338 702,-338 702,-308 826,-308 826,-338"/>
<text text-anchor="start" x="710" y="-326" font-family="Helvetica,sans-Serif" font-size="10.00">src/general/preprocessor</text>
<text text-anchor="middle" x="764" y="-315" font-family="Helvetica,sans-Serif" font-size="10.00">/FMC_attributes.h</text>
</a>
</g>
</g>
<!-- Node13&#45;&gt;Node16 -->
<g id="edge21" class="edge">
<title>Node13&#45;&gt;Node16</title>
<path fill="none" stroke="#63b8ff" d="M570.92,-370.75C610.72,-360.55 661.91,-347.78 701.61,-338.17"/>
<polygon fill="#63b8ff" stroke="#63b8ff" points="570.3,-367.3 561.49,-373.18 572.04,-374.08 570.3,-367.3"/>
</g>
<!-- Node18 -->
<g id="node18" class="node">
<title>Node18</title>
<g id="a_node18"><a xlink:href="../../d9/dab/_f_m_c__enums_8h.html" target="_top" xlink:title=" ">
<polygon fill="white" stroke="#666666" points="480,-338 364,-338 364,-308 480,-308 480,-338"/>
<text text-anchor="start" x="372" y="-326" font-family="Helvetica,sans-Serif" font-size="10.00">src/general/types/FMC</text>
<text text-anchor="middle" x="422" y="-315" font-family="Helvetica,sans-Serif" font-size="10.00">_enums.h</text>
</a>
</g>
</g>
<!-- Node13&#45;&gt;Node18 -->
<g id="edge25" class="edge">
<title>Node13&#45;&gt;Node18</title>
<path fill="none" stroke="#63b8ff" d="M479.75,-366.97C467.16,-357.61 452.65,-346.81 441.33,-338.39"/>
<polygon fill="#63b8ff" stroke="#63b8ff" points="477.59,-369.73 487.7,-372.89 481.77,-364.11 477.59,-369.73"/>
</g>
<!-- Node19 -->
<g id="node19" class="node">
<title>Node19</title>
<g id="a_node19"><a xlink:href="../../d5/d7a/_f_m_c__structs_8h.html" target="_top" xlink:title=" ">
<polygon fill="white" stroke="#666666" points="442,-272 326,-272 326,-242 442,-242 442,-272"/>
<text text-anchor="start" x="334" y="-260" font-family="Helvetica,sans-Serif" font-size="10.00">src/general/types/FMC</text>
<text text-anchor="middle" x="384" y="-249" font-family="Helvetica,sans-Serif" font-size="10.00">_structs.h</text>
</a>
</g>
</g>
<!-- Node13&#45;&gt;Node19 -->
<g id="edge29" class="edge">
<title>Node13&#45;&gt;Node19</title>
<path fill="none" stroke="#63b8ff" d="M434.46,-382.34C404.8,-376.01 373.33,-363.27 355,-338 340.34,-317.79 357.68,-289.4 371.15,-272.44"/>
<polygon fill="#63b8ff" stroke="#63b8ff" points="433.74,-385.77 444.21,-384.18 435.04,-378.89 433.74,-385.77"/>
</g>
<!-- Node20 -->
<g id="node20" class="node">
<title>Node20</title>
<g id="a_node20"><a xlink:href="../../df/dc3/_f_m_c__typedefs_8h.html" target="_top" xlink:title=" ">
<polygon fill="white" stroke="#666666" points="308,-338 192,-338 192,-308 308,-308 308,-338"/>
<text text-anchor="start" x="200" y="-326" font-family="Helvetica,sans-Serif" font-size="10.00">src/general/types/FMC</text>
<text text-anchor="middle" x="250" y="-315" font-family="Helvetica,sans-Serif" font-size="10.00">_typedefs.h</text>
</a>
</g>
</g>
<!-- Node13&#45;&gt;Node20 -->
<g id="edge30" class="edge">
<title>Node13&#45;&gt;Node20</title>
<path fill="none" stroke="#63b8ff" d="M438.81,-370.84C397.93,-360.7 346.76,-348 308.01,-338.39"/>
<polygon fill="#63b8ff" stroke="#63b8ff" points="437.76,-374.18 448.31,-373.19 439.45,-367.39 437.76,-374.18"/>
</g>
<!-- Node21 -->
<g id="node21" class="node">
<title>Node21</title>
<g id="a_node21"><a xlink:href="../../de/d83/_f_m_c__globals_8h.html" target="_top" xlink:title=" ">
<polygon fill="white" stroke="#666666" points="270,-272 160,-272 160,-242 270,-242 270,-272"/>
<text text-anchor="start" x="168" y="-260" font-family="Helvetica,sans-Serif" font-size="10.00">src/general/utils/FMC</text>
<text text-anchor="middle" x="215" y="-249" font-family="Helvetica,sans-Serif" font-size="10.00">_globals.h</text>
</a>
</g>
</g>
<!-- Node13&#45;&gt;Node21 -->
<g id="edge39" class="edge">
<title>Node13&#45;&gt;Node21</title>
<path fill="none" stroke="#63b8ff" d="M434.3,-387.36C348.57,-384.87 214.72,-374.97 183,-338 166.44,-318.7 185.99,-289.75 200.99,-272.48"/>
<polygon fill="#63b8ff" stroke="#63b8ff" points="434.2,-390.86 444.29,-387.62 434.38,-383.86 434.2,-390.86"/>
</g>
<!-- Node22 -->
<g id="node22" class="node">
<title>Node22</title>
<g id="a_node22"><a xlink:href="../../d3/d3a/_f_m_c__errors_8c.html" target="_top" xlink:title=" ">
<polygon fill="white" stroke="#666666" points="688,-272 578,-272 578,-242 688,-242 688,-272"/>
<text text-anchor="start" x="586" y="-260" font-family="Helvetica,sans-Serif" font-size="10.00">src/general/utils/FMC</text>
<text text-anchor="middle" x="633" y="-249" font-family="Helvetica,sans-Serif" font-size="10.00">_errors.c</text>
</a>
</g>
</g>
<!-- Node13&#45;&gt;Node22 -->
<g id="edge35" class="edge">
<title>Node13&#45;&gt;Node22</title>
<path fill="none" stroke="#63b8ff" d="M581.14,-381.03C608.93,-374.4 637.96,-361.8 655,-338 669.26,-318.09 654.88,-289.35 643.61,-272.28"/>
<polygon fill="#63b8ff" stroke="#63b8ff" points="580.71,-377.54 571.65,-383.05 582.16,-384.39 580.71,-377.54"/>
</g>
<!-- Node23 -->
<g id="node23" class="node">
<title>Node23</title>
<g id="a_node23"><a xlink:href="../../dc/de1/_f_m_c__errors_8h.html" target="_top" xlink:title=" ">
<polygon fill="white" stroke="#666666" points="646,-338 536,-338 536,-308 646,-308 646,-338"/>
<text text-anchor="start" x="544" y="-326" font-family="Helvetica,sans-Serif" font-size="10.00">src/general/utils/FMC</text>
<text text-anchor="middle" x="591" y="-315" font-family="Helvetica,sans-Serif" font-size="10.00">_errors.h</text>
</a>
</g>
</g>
<!-- Node13&#45;&gt;Node23 -->
<g id="edge36" class="edge">
<title>Node13&#45;&gt;Node23</title>
<path fill="none" stroke="#63b8ff" d="M535.27,-366.97C547.42,-357.61 561.42,-346.81 572.34,-338.39"/>
<polygon fill="#63b8ff" stroke="#63b8ff" points="533.4,-363.99 527.62,-372.87 537.68,-369.54 533.4,-363.99"/>
</g>
<!-- Node14&#45;&gt;Node3 -->
<g id="edge18" class="edge">
<title>Node14&#45;&gt;Node3</title>
<path fill="none" stroke="#63b8ff" d="M52.36,-306.47C40.71,-297.66 27.39,-285.68 19,-272 1.13,-242.87 0,-231.67 0,-197.5 0,-197.5 0,-197.5 0,-135 0,-86.57 31.65,-78.5 74,-55 139.18,-18.84 228.67,-11.57 275.51,-10.41"/>
<polygon fill="#63b8ff" stroke="#63b8ff" points="50.22,-309.24 60.39,-312.2 54.29,-303.54 50.22,-309.24"/>
</g>
<!-- Node15 -->
<g id="node15" class="node">
<title>Node15</title>
<g id="a_node15"><a xlink:href="../../d8/ddf/_f_m_c__dir__wrapper_8cpp.html" target="_top" xlink:title=" ">
<polygon fill="white" stroke="#666666" points="141.5,-272 28.5,-272 28.5,-242 141.5,-242 141.5,-272"/>
<text text-anchor="start" x="36.5" y="-260" font-family="Helvetica,sans-Serif" font-size="10.00">src/cpp/FMC_dir/FMC</text>
<text text-anchor="middle" x="85" y="-249" font-family="Helvetica,sans-Serif" font-size="10.00">_dir_wrapper.cpp</text>
</a>
</g>
</g>
<!-- Node14&#45;&gt;Node15 -->
<g id="edge19" class="edge">
<title>Node14&#45;&gt;Node15</title>
<path fill="none" stroke="#63b8ff" d="M78.84,-301.78C80.19,-292.17 81.78,-280.92 83,-272.23"/>
<polygon fill="#63b8ff" stroke="#63b8ff" points="75.39,-301.21 77.46,-311.6 82.32,-302.19 75.39,-301.21"/>
</g>
<!-- Node16&#45;&gt;Node13 -->
<g id="edge22" class="edge">
<title>Node16&#45;&gt;Node13</title>
<path fill="none" stroke="#63b8ff" d="M701.14,-341.23C661.27,-351.45 609.96,-364.25 570.21,-373.88"/>
<polygon fill="#63b8ff" stroke="#63b8ff" points="701.79,-344.68 710.6,-338.8 700.04,-337.9 701.79,-344.68"/>
</g>
<!-- Node17 -->
<g id="node17" class="node">
<title>Node17</title>
<g id="a_node17"><a xlink:href="../../d8/d32/_f_m_c__deprecated_8h.html" target="_top" xlink:title=" ">
<polygon fill="white" stroke="#666666" points="818,-272 708,-272 708,-242 818,-242 818,-272"/>
<text text-anchor="start" x="716" y="-260" font-family="Helvetica,sans-Serif" font-size="10.00">src/general/utils/FMC</text>
<text text-anchor="middle" x="763" y="-249" font-family="Helvetica,sans-Serif" font-size="10.00">_deprecated.h</text>
</a>
</g>
</g>
<!-- Node16&#45;&gt;Node17 -->
<g id="edge23" class="edge">
<title>Node16&#45;&gt;Node17</title>
<path fill="none" stroke="#63b8ff" d="M763.6,-296.39C763.47,-288.13 763.33,-279.28 763.22,-272.16"/>
<polygon fill="#63b8ff" stroke="#63b8ff" points="760.1,-296.34 763.75,-306.28 767.1,-296.23 760.1,-296.34"/>
</g>
<!-- Node17&#45;&gt;Node2 -->
<g id="edge24" class="edge">
<title>Node17&#45;&gt;Node2</title>
<path fill="none" stroke="#63b8ff" d="M696.49,-241.92C627.59,-227.91 560.6,-214.89 517,-206.49"/>
<polygon fill="#63b8ff" stroke="#63b8ff" points="695.58,-245.3 706.07,-243.87 696.97,-238.45 695.58,-245.3"/>
</g>
<!-- Node18&#45;&gt;Node2 -->
<g id="edge26" class="edge">
<title>Node18&#45;&gt;Node2</title>
<path fill="none" stroke="#63b8ff" d="M437.77,-297.91C442.52,-289.9 447.41,-280.79 451,-272 460.28,-249.26 466.04,-220.72 468.54,-206.47"/>
<polygon fill="#63b8ff" stroke="#63b8ff" points="434.82,-296.03 432.54,-306.38 440.77,-299.71 434.82,-296.03"/>
</g>
<!-- Node18&#45;&gt;Node19 -->
<g id="edge27" class="edge">
<title>Node18&#45;&gt;Node19</title>
<path fill="none" stroke="#63b8ff" d="M407.82,-298.11C402.63,-289.38 396.93,-279.78 392.41,-272.16"/>
<polygon fill="#63b8ff" stroke="#63b8ff" points="404.68,-299.68 412.79,-306.49 410.7,-296.11 404.68,-299.68"/>
</g>
<!-- Node19&#45;&gt;Node2 -->
<g id="edge28" class="edge">
<title>Node19&#45;&gt;Node2</title>
<path fill="none" stroke="#63b8ff" d="M414.46,-235.28C429.05,-225.35 445.75,-214 457,-206.35"/>
<polygon fill="#63b8ff" stroke="#63b8ff" points="412.81,-232.17 406.51,-240.69 416.75,-237.96 412.81,-232.17"/>
</g>
<!-- Node20&#45;&gt;Node2 -->
<g id="edge31" class="edge">
<title>Node20&#45;&gt;Node2</title>
<path fill="none" stroke="#63b8ff" d="M264.39,-298.13C276.35,-280.21 294.96,-256.39 317,-242 344.8,-223.85 380.15,-212.94 409.87,-206.47"/>
<polygon fill="#63b8ff" stroke="#63b8ff" points="261.56,-296.05 259.1,-306.35 267.45,-299.83 261.56,-296.05"/>
</g>
<!-- Node20&#45;&gt;Node19 -->
<g id="edge32" class="edge">
<title>Node20&#45;&gt;Node19</title>
<path fill="none" stroke="#63b8ff" d="M290.36,-302.72C310.83,-292.95 335.26,-281.28 354.03,-272.31"/>
<polygon fill="#63b8ff" stroke="#63b8ff" points="288.95,-299.52 281.44,-306.98 291.97,-305.83 288.95,-299.52"/>
</g>
<!-- Node20&#45;&gt;Node21 -->
<g id="edge33" class="edge">
<title>Node20&#45;&gt;Node21</title>
<path fill="none" stroke="#63b8ff" d="M236.78,-297.83C232.05,-289.17 226.87,-279.7 222.75,-272.16"/>
<polygon fill="#63b8ff" stroke="#63b8ff" points="233.64,-299.37 241.51,-306.47 239.78,-296.02 233.64,-299.37"/>
</g>
<!-- Node21&#45;&gt;Node2 -->
<g id="edge34" class="edge">
<title>Node21&#45;&gt;Node2</title>
<path fill="none" stroke="#63b8ff" d="M281.45,-240.76C328.95,-229.86 391.25,-215.57 430.96,-206.46"/>
<polygon fill="#63b8ff" stroke="#63b8ff" points="280.77,-237.32 271.81,-242.97 282.34,-244.14 280.77,-237.32"/>
</g>
<!-- Node23&#45;&gt;Node2 -->
<g id="edge37" class="edge">
<title>Node23&#45;&gt;Node2</title>
<path fill="none" stroke="#63b8ff" d="M572.43,-298.63C559.01,-282.22 540.14,-260.07 522,-242 508.7,-228.75 492.01,-214.9 481.18,-206.25"/>
<polygon fill="#63b8ff" stroke="#63b8ff" points="569.69,-300.8 578.7,-306.38 575.13,-296.4 569.69,-300.8"/>
</g>
<!-- Node23&#45;&gt;Node22 -->
<g id="edge38" class="edge">
<title>Node23&#45;&gt;Node22</title>
<path fill="none" stroke="#63b8ff" d="M606.49,-298.39C612.27,-289.59 618.65,-279.86 623.7,-272.16"/>
<polygon fill="#63b8ff" stroke="#63b8ff" points="603.71,-296.25 601.15,-306.53 609.56,-300.09 603.71,-296.25"/>
</g>
</g>
</svg>
