<?xml version="1.0" encoding="UTF-8" standalone="no"?>
<!DOCTYPE svg PUBLIC "-//W3C//DTD SVG 1.1//EN"
 "http://www.w3.org/Graphics/SVG/1.1/DTD/svg11.dtd">
<!-- Generated by graphviz version 2.43.0 (0)
 -->
<!-- Title: src/data_analyze/encodings/FMC_encodings.c Pages: 1 -->
<!--zoomable 368 -->
<svg id="main" version="1.1" xmlns="http://www.w3.org/2000/svg" xmlns:xlink="http://www.w3.org/1999/xlink" xml:space="preserve" onload="init(evt)">
<style type="text/css"><![CDATA[
.edge:hover path { stroke: red; }
.edge:hover polygon { stroke: red; fill: red; }
]]></style>
<script type="text/javascript"><![CDATA[
var edges = document.getElementsByTagName('g');
if (edges && edges.length) {
  for (var i=0;i<edges.length;i++) {
    if (edges[i].id.substr(0,4)=='edge') {
      edges[i].setAttribute('class','edge');
    }
  }
}
]]></script>
        <defs>
                <circle id="rim" cx="0" cy="0" r="7"/>
                <circle id="rim2" cx="0" cy="0" r="3.5"/>
                <g id="zoomPlus">
                        <use xlink:href="#rim" fill="#404040">
                                <set attributeName="fill" to="#808080" begin="zoomplus.mouseover" end="zoomplus.mouseout"/>
                        </use>
                        <path d="M-4,0h8M0,-4v8" fill="none" stroke="white" stroke-width="1.5" pointer-events="none"/>
                </g>
                <g id="zoomMin">
                        <use xlink:href="#rim" fill="#404040">
                                <set attributeName="fill" to="#808080" begin="zoomminus.mouseover" end="zoomminus.mouseout"/>
                        </use>
                        <path d="M-4,0h8" fill="none" stroke="white" stroke-width="1.5" pointer-events="none"/>
                </g>
                <g id="dirArrow">
                        <path fill="none" stroke="white" stroke-width="1.5" d="M0,-3.0v7 M-2.5,-0.5L0,-3.0L2.5,-0.5"/>
                </g>
               <g id="resetDef">
                       <use xlink:href="#rim2" fill="#404040">
                               <set attributeName="fill" to="#808080" begin="reset.mouseover" end="reset.mouseout"/>
                       </use>
               </g>
        </defs>

<script type="text/javascript">
var viewWidth = 902;
var viewHeight = 368;
var sectionId = 'dynsection-0';
</script>
<script xlink:href="../../svgpan.js"/>
<svg id="graph" class="graph">
<g id="viewport">
<title>src/data_analyze/encodings/FMC_encodings.c</title>
<!-- Node1 -->
<g id="node1" class="node">
<title>Node1</title>
<g id="a_node1"><a xlink:title=" ">
<polygon fill="#999999" stroke="#666666" points="430.5,-360 278.5,-360 278.5,-330 430.5,-330 430.5,-360"/>
<text text-anchor="start" x="286.5" y="-348" font-family="Helvetica,sans-Serif" font-size="10.00">src/data_analyze/encodings</text>
<text text-anchor="middle" x="354.5" y="-337" font-family="Helvetica,sans-Serif" font-size="10.00">/FMC_encodings.c</text>
</a>
</g>
</g>
<!-- Node2 -->
<g id="node2" class="node">
<title>Node2</title>
<g id="a_node2"><a xlink:title=" ">
<polygon fill="#e0e0e0" stroke="#999999" points="345.5,-129 295.5,-129 295.5,-110 345.5,-110 345.5,-129"/>
<text text-anchor="middle" x="320.5" y="-117" font-family="Helvetica,sans-Serif" font-size="10.00">stdio.h</text>
</a>
</g>
</g>
<!-- Node1&#45;&gt;Node2 -->
<g id="edge1" class="edge">
<title>Node1&#45;&gt;Node2</title>
<path fill="none" stroke="#63b8ff" d="M278.09,-331.66C236.49,-323.21 190.99,-310.54 178.5,-294 132.23,-232.75 241.53,-162.9 294.16,-134.05"/>
<polygon fill="#63b8ff" stroke="#63b8ff" points="296.13,-136.97 303.28,-129.15 292.82,-130.8 296.13,-136.97"/>
</g>
<!-- Node3 -->
<g id="node3" class="node">
<title>Node3</title>
<g id="a_node3"><a xlink:title=" ">
<polygon fill="#e0e0e0" stroke="#999999" points="241,-294 188,-294 188,-275 241,-275 241,-294"/>
<text text-anchor="middle" x="214.5" y="-282" font-family="Helvetica,sans-Serif" font-size="10.00">stdlib.h</text>
</a>
</g>
</g>
<!-- Node1&#45;&gt;Node3 -->
<g id="edge2" class="edge">
<title>Node1&#45;&gt;Node3</title>
<path fill="none" stroke="#63b8ff" d="M320.97,-329.99C297.71,-320.27 267.01,-307.44 244.55,-298.06"/>
<polygon fill="#63b8ff" stroke="#63b8ff" points="245.75,-294.77 235.18,-294.14 243.05,-301.22 245.75,-294.77"/>
</g>
<!-- Node4 -->
<g id="node4" class="node">
<title>Node4</title>
<g id="a_node4"><a xlink:title=" ">
<polygon fill="#e0e0e0" stroke="#999999" points="310,-294 259,-294 259,-275 310,-275 310,-294"/>
<text text-anchor="middle" x="284.5" y="-282" font-family="Helvetica,sans-Serif" font-size="10.00">errno.h</text>
</a>
</g>
</g>
<!-- Node1&#45;&gt;Node4 -->
<g id="edge3" class="edge">
<title>Node1&#45;&gt;Node4</title>
<path fill="none" stroke="#63b8ff" d="M337.55,-329.84C327.08,-321.09 313.64,-309.85 302.91,-300.88"/>
<polygon fill="#63b8ff" stroke="#63b8ff" points="304.91,-297.99 294.99,-294.27 300.42,-303.36 304.91,-297.99"/>
</g>
<!-- Node5 -->
<g id="node5" class="node">
<title>Node5</title>
<g id="a_node5"><a xlink:title=" ">
<polygon fill="#e0e0e0" stroke="#999999" points="381,-294 328,-294 328,-275 381,-275 381,-294"/>
<text text-anchor="middle" x="354.5" y="-282" font-family="Helvetica,sans-Serif" font-size="10.00">string.h</text>
</a>
</g>
</g>
<!-- Node1&#45;&gt;Node5 -->
<g id="edge4" class="edge">
<title>Node1&#45;&gt;Node5</title>
<path fill="none" stroke="#63b8ff" d="M354.5,-329.84C354.5,-322.21 354.5,-312.7 354.5,-304.45"/>
<polygon fill="#63b8ff" stroke="#63b8ff" points="358,-304.27 354.5,-294.27 351,-304.27 358,-304.27"/>
</g>
<!-- Node6 -->
<g id="node6" class="node">
<title>Node6</title>
<g id="a_node6"><a xlink:title=" ">
<polygon fill="#e0e0e0" stroke="#999999" points="453.5,-294 399.5,-294 399.5,-275 453.5,-275 453.5,-294"/>
<text text-anchor="middle" x="426.5" y="-282" font-family="Helvetica,sans-Serif" font-size="10.00">wchar.h</text>
</a>
</g>
</g>
<!-- Node1&#45;&gt;Node6 -->
<g id="edge5" class="edge">
<title>Node1&#45;&gt;Node6</title>
<path fill="none" stroke="#63b8ff" d="M371.93,-329.84C382.81,-321 396.8,-309.63 407.89,-300.62"/>
<polygon fill="#63b8ff" stroke="#63b8ff" points="410.16,-303.29 415.71,-294.27 405.74,-297.86 410.16,-303.29"/>
</g>
<!-- Node7 -->
<g id="node7" class="node">
<title>Node7</title>
<g id="a_node7"><a xlink:title=" ">
<polygon fill="#e0e0e0" stroke="#999999" points="525,-294 472,-294 472,-275 525,-275 525,-294"/>
<text text-anchor="middle" x="498.5" y="-282" font-family="Helvetica,sans-Serif" font-size="10.00">stdint.h</text>
</a>
</g>
</g>
<!-- Node1&#45;&gt;Node7 -->
<g id="edge6" class="edge">
<title>Node1&#45;&gt;Node7</title>
<path fill="none" stroke="#63b8ff" d="M388.99,-329.99C413.02,-320.23 444.77,-307.33 467.9,-297.93"/>
<polygon fill="#63b8ff" stroke="#63b8ff" points="469.29,-301.15 477.23,-294.14 466.65,-294.66 469.29,-301.15"/>
</g>
<!-- Node8 -->
<g id="node8" class="node">
<title>Node8</title>
<g id="a_node8"><a xlink:href="../../db/d30/FMC__encodings_8h.html" target="_top" xlink:title=" ">
<polygon fill="white" stroke="#666666" points="645.5,-294 543.5,-294 543.5,-275 645.5,-275 645.5,-294"/>
<text text-anchor="middle" x="594.5" y="-282" font-family="Helvetica,sans-Serif" font-size="10.00">FMC_encodings.h</text>
</a>
</g>
</g>
<!-- Node1&#45;&gt;Node8 -->
<g id="edge7" class="edge">
<title>Node1&#45;&gt;Node8</title>
<path fill="none" stroke="#63b8ff" d="M411.99,-329.99C454.12,-319.72 510.53,-305.97 549.42,-296.49"/>
<polygon fill="#63b8ff" stroke="#63b8ff" points="550.52,-299.82 559.41,-294.05 548.86,-293.02 550.52,-299.82"/>
</g>
<!-- Node9 -->
<g id="node9" class="node">
<title>Node9</title>
<g id="a_node9"><a xlink:href="../../d9/de1/FMC__general_8h.html" target="_top" xlink:title=" ">
<polygon fill="white" stroke="#666666" points="668,-239 521,-239 521,-220 668,-220 668,-239"/>
<text text-anchor="middle" x="594.5" y="-227" font-family="Helvetica,sans-Serif" font-size="10.00">../../general/FMC_general.h</text>
</a>
</g>
</g>
<!-- Node8&#45;&gt;Node9 -->
<g id="edge8" class="edge">
<title>Node8&#45;&gt;Node9</title>
<path fill="none" stroke="#63b8ff" d="M594.5,-274.75C594.5,-267.8 594.5,-257.85 594.5,-249.13"/>
<polygon fill="#63b8ff" stroke="#63b8ff" points="598,-249.09 594.5,-239.09 591,-249.09 598,-249.09"/>
</g>
<!-- Node10 -->
<g id="node10" class="node">
<title>Node10</title>
<g id="a_node10"><a xlink:href="../../d0/d28/FMC__macros_8h.html" target="_top" xlink:title=" ">
<polygon fill="white" stroke="#666666" points="692,-74 537,-74 537,-55 692,-55 692,-74"/>
<text text-anchor="middle" x="614.5" y="-62" font-family="Helvetica,sans-Serif" font-size="10.00">preprocessor/FMC_macros.h</text>
</a>
</g>
</g>
<!-- Node9&#45;&gt;Node10 -->
<g id="edge9" class="edge">
<title>Node9&#45;&gt;Node10</title>
<path fill="none" stroke="#63b8ff" d="M520.62,-224.18C423.85,-217.76 264.31,-204.23 246.5,-184 240.92,-177.66 243.89,-173.03 246.5,-165 255.85,-136.26 260.55,-125.5 286.5,-110 325.87,-86.49 443.63,-75 526.74,-69.68"/>
<polygon fill="#63b8ff" stroke="#63b8ff" points="527.18,-73.15 536.95,-69.04 526.75,-66.17 527.18,-73.15"/>
</g>
<!-- Node11 -->
<g id="node11" class="node">
<title>Node11</title>
<g id="a_node11"><a xlink:href="../../d7/dff/FMC__platform_8h.html" target="_top" xlink:title=" ">
<polygon fill="white" stroke="#666666" points="879,-19 784,-19 784,0 879,0 879,-19"/>
<text text-anchor="middle" x="831.5" y="-7" font-family="Helvetica,sans-Serif" font-size="10.00">FMC_platform.h</text>
</a>
</g>
</g>
<!-- Node9&#45;&gt;Node11 -->
<g id="edge13" class="edge">
<title>Node9&#45;&gt;Node11</title>
<path fill="none" stroke="#63b8ff" d="M668.21,-227.42C743.16,-224.58 851.94,-215.05 878.5,-184 918.17,-137.63 869.82,-60.88 844.77,-27.21"/>
<polygon fill="#63b8ff" stroke="#63b8ff" points="847.55,-25.08 838.69,-19.27 841.99,-29.33 847.55,-25.08"/>
</g>
<!-- Node13 -->
<g id="node13" class="node">
<title>Node13</title>
<g id="a_node13"><a xlink:href="../../da/dd3/FMC__consts_8h.html" target="_top" xlink:title=" ">
<polygon fill="white" stroke="#666666" points="551.5,-129 401.5,-129 401.5,-110 551.5,-110 551.5,-129"/>
<text text-anchor="middle" x="476.5" y="-117" font-family="Helvetica,sans-Serif" font-size="10.00">preprocessor/FMC_consts.h</text>
</a>
</g>
</g>
<!-- Node9&#45;&gt;Node13 -->
<g id="edge14" class="edge">
<title>Node9&#45;&gt;Node13</title>
<path fill="none" stroke="#63b8ff" d="M520.7,-223.95C426,-217.34 271.78,-203.69 254.5,-184 248.93,-177.65 249.15,-171.53 254.5,-165 271.89,-143.78 336.3,-132.47 391.29,-126.58"/>
<polygon fill="#63b8ff" stroke="#63b8ff" points="391.84,-130.04 401.44,-125.54 391.13,-123.07 391.84,-130.04"/>
</g>
<!-- Node14 -->
<g id="node14" class="node">
<title>Node14</title>
<g id="a_node14"><a xlink:href="../../d5/de5/FMC__structs_8h.html" target="_top" xlink:title=" ">
<polygon fill="white" stroke="#666666" points="663.5,-184 547.5,-184 547.5,-165 663.5,-165 663.5,-184"/>
<text text-anchor="middle" x="605.5" y="-172" font-family="Helvetica,sans-Serif" font-size="10.00">types/FMC_structs.h</text>
</a>
</g>
</g>
<!-- Node9&#45;&gt;Node14 -->
<g id="edge15" class="edge">
<title>Node9&#45;&gt;Node14</title>
<path fill="none" stroke="#63b8ff" d="M596.32,-219.75C597.76,-212.8 599.82,-202.85 601.63,-194.13"/>
<polygon fill="#63b8ff" stroke="#63b8ff" points="605.11,-194.59 603.72,-184.09 598.26,-193.17 605.11,-194.59"/>
</g>
<!-- Node15 -->
<g id="node15" class="node">
<title>Node15</title>
<g id="a_node15"><a xlink:href="../../d6/d25/FMC__enums_8h.html" target="_top" xlink:title=" ">
<polygon fill="white" stroke="#666666" points="693.5,-129 607.5,-129 607.5,-110 693.5,-110 693.5,-129"/>
<text text-anchor="middle" x="650.5" y="-117" font-family="Helvetica,sans-Serif" font-size="10.00">FMC_enums.h</text>
</a>
</g>
</g>
<!-- Node9&#45;&gt;Node15 -->
<g id="edge25" class="edge">
<title>Node9&#45;&gt;Node15</title>
<path fill="none" stroke="#63b8ff" d="M624,-219.97C641.44,-213.24 662.09,-201.93 672.5,-184 681.07,-169.24 672.67,-150.62 663.89,-137.37"/>
<polygon fill="#63b8ff" stroke="#63b8ff" points="666.65,-135.22 657.95,-129.17 660.98,-139.32 666.65,-135.22"/>
</g>
<!-- Node16 -->
<g id="node16" class="node">
<title>Node16</title>
<g id="a_node16"><a xlink:href="../../df/df8/FMC__typedefs_8h.html" target="_top" xlink:title=" ">
<polygon fill="white" stroke="#666666" points="807,-129 712,-129 712,-110 807,-110 807,-129"/>
<text text-anchor="middle" x="759.5" y="-117" font-family="Helvetica,sans-Serif" font-size="10.00">FMC_typedefs.h</text>
</a>
</g>
</g>
<!-- Node9&#45;&gt;Node16 -->
<g id="edge24" class="edge">
<title>Node9&#45;&gt;Node16</title>
<path fill="none" stroke="#63b8ff" d="M616.84,-219.87C636.28,-211.89 664.81,-199.01 687.5,-184 708.65,-170.01 730.09,-150.22 744.01,-136.47"/>
<polygon fill="#63b8ff" stroke="#63b8ff" points="746.7,-138.71 751.27,-129.15 741.74,-133.78 746.7,-138.71"/>
</g>
<!-- Node17 -->
<g id="node17" class="node">
<title>Node17</title>
<g id="a_node17"><a xlink:href="../../d2/d5e/FMC__flags_8h.html" target="_top" xlink:title=" ">
<polygon fill="white" stroke="#666666" points="405.5,-184 263.5,-184 263.5,-165 405.5,-165 405.5,-184"/>
<text text-anchor="middle" x="334.5" y="-172" font-family="Helvetica,sans-Serif" font-size="10.00">preprocessor/FMC_flags.h</text>
</a>
</g>
</g>
<!-- Node9&#45;&gt;Node17 -->
<g id="edge23" class="edge">
<title>Node9&#45;&gt;Node17</title>
<path fill="none" stroke="#63b8ff" d="M552.73,-219.98C507.56,-210.78 435.5,-196.09 386.65,-186.13"/>
<polygon fill="#63b8ff" stroke="#63b8ff" points="387.1,-182.65 376.6,-184.08 385.7,-189.51 387.1,-182.65"/>
</g>
<!-- Node18 -->
<g id="node18" class="node">
<title>Node18</title>
<g id="a_node18"><a xlink:href="../../dd/ddf/FMC__errors_8h.html" target="_top" xlink:title=" ">
<polygon fill="white" stroke="#666666" points="529,-184 424,-184 424,-165 529,-165 529,-184"/>
<text text-anchor="middle" x="476.5" y="-172" font-family="Helvetica,sans-Serif" font-size="10.00">utils/FMC_errors.h</text>
</a>
</g>
</g>
<!-- Node9&#45;&gt;Node18 -->
<g id="edge26" class="edge">
<title>Node9&#45;&gt;Node18</title>
<path fill="none" stroke="#63b8ff" d="M575.54,-219.98C556.47,-211.42 526.84,-198.11 504.95,-188.28"/>
<polygon fill="#63b8ff" stroke="#63b8ff" points="506.36,-185.07 495.8,-184.17 503.49,-191.46 506.36,-185.07"/>
</g>
<!-- Node19 -->
<g id="node19" class="node">
<title>Node19</title>
<g id="a_node19"><a xlink:href="../../de/d86/FMC__globals_8h.html" target="_top" xlink:title=" ">
<polygon fill="white" stroke="#666666" points="869.5,-184 757.5,-184 757.5,-165 869.5,-165 869.5,-184"/>
<text text-anchor="middle" x="813.5" y="-172" font-family="Helvetica,sans-Serif" font-size="10.00">utils/FMC_globals.h</text>
</a>
</g>
</g>
<!-- Node9&#45;&gt;Node19 -->
<g id="edge30" class="edge">
<title>Node9&#45;&gt;Node19</title>
<path fill="none" stroke="#63b8ff" d="M629.69,-219.98C667.33,-210.87 727.16,-196.4 768.27,-186.45"/>
<polygon fill="#63b8ff" stroke="#63b8ff" points="769.14,-189.84 778.04,-184.08 767.5,-183.03 769.14,-189.84"/>
</g>
<!-- Node20 -->
<g id="node20" class="node">
<title>Node20</title>
<g id="a_node20"><a xlink:href="../../d4/d06/FMC__deprecated_8h.html" target="_top" xlink:title=" ">
<polygon fill="white" stroke="#666666" points="131,-184 0,-184 0,-165 131,-165 131,-184"/>
<text text-anchor="middle" x="65.5" y="-172" font-family="Helvetica,sans-Serif" font-size="10.00">utils/FMC_deprecated.h</text>
</a>
</g>
</g>
<!-- Node9&#45;&gt;Node20 -->
<g id="edge33" class="edge">
<title>Node9&#45;&gt;Node20</title>
<path fill="none" stroke="#63b8ff" d="M520.94,-221.13C420.9,-211.11 242.82,-193.27 141.51,-183.12"/>
<polygon fill="#63b8ff" stroke="#63b8ff" points="141.65,-179.61 131.35,-182.1 140.95,-186.58 141.65,-179.61"/>
</g>
<!-- Node10&#45;&gt;Node11 -->
<g id="edge10" class="edge">
<title>Node10&#45;&gt;Node11</title>
<path fill="none" stroke="#63b8ff" d="M649.36,-54.98C686.59,-45.89 745.7,-31.46 786.43,-21.51"/>
<polygon fill="#63b8ff" stroke="#63b8ff" points="787.48,-24.85 796.36,-19.08 785.82,-18.05 787.48,-24.85"/>
</g>
<!-- Node12 -->
<g id="node12" class="node">
<title>Node12</title>
<g id="a_node12"><a xlink:href="../../d1/d2e/FMC__attributes_8h.html" target="_top" xlink:title=" ">
<polygon fill="white" stroke="#666666" points="664.5,-19 564.5,-19 564.5,0 664.5,0 664.5,-19"/>
<text text-anchor="middle" x="614.5" y="-7" font-family="Helvetica,sans-Serif" font-size="10.00">FMC_attributes.h</text>
</a>
</g>
</g>
<!-- Node10&#45;&gt;Node12 -->
<g id="edge11" class="edge">
<title>Node10&#45;&gt;Node12</title>
<path fill="none" stroke="#63b8ff" d="M609.33,-54.75C607.84,-47.8 607.4,-37.85 608.02,-29.13"/>
<polygon fill="#63b8ff" stroke="#63b8ff" points="611.51,-29.47 609.37,-19.09 604.57,-28.53 611.51,-29.47"/>
</g>
<!-- Node12&#45;&gt;Node10 -->
<g id="edge12" class="edge">
<title>Node12&#45;&gt;Node10</title>
<path fill="none" stroke="#63b8ff" d="M619.63,-19.09C621.14,-25.99 621.59,-35.93 620.99,-44.66"/>
<polygon fill="#63b8ff" stroke="#63b8ff" points="617.5,-44.38 619.67,-54.75 624.44,-45.29 617.5,-44.38"/>
</g>
<!-- Node14&#45;&gt;Node2 -->
<g id="edge16" class="edge">
<title>Node14&#45;&gt;Node2</title>
<path fill="none" stroke="#63b8ff" d="M559.71,-164.98C502.89,-154.42 407.22,-136.63 355.77,-127.06"/>
<polygon fill="#63b8ff" stroke="#63b8ff" points="356.27,-123.59 345.8,-125.2 354.99,-130.47 356.27,-123.59"/>
</g>
<!-- Node14&#45;&gt;Node10 -->
<g id="edge18" class="edge">
<title>Node14&#45;&gt;Node10</title>
<path fill="none" stroke="#63b8ff" d="M603,-164.82C599.82,-152.55 595.11,-129.45 598.5,-110 600.07,-101 603.3,-91.42 606.44,-83.46"/>
<polygon fill="#63b8ff" stroke="#63b8ff" points="609.72,-84.69 610.39,-74.12 603.27,-81.97 609.72,-84.69"/>
</g>
<!-- Node14&#45;&gt;Node13 -->
<g id="edge17" class="edge">
<title>Node14&#45;&gt;Node13</title>
<path fill="none" stroke="#63b8ff" d="M584.77,-164.98C563.74,-156.34 530.95,-142.87 506.96,-133.02"/>
<polygon fill="#63b8ff" stroke="#63b8ff" points="508.18,-129.73 497.6,-129.17 505.52,-136.21 508.18,-129.73"/>
</g>
<!-- Node14&#45;&gt;Node15 -->
<g id="edge19" class="edge">
<title>Node14&#45;&gt;Node15</title>
<path fill="none" stroke="#63b8ff" d="M612.93,-164.75C619.35,-157.18 628.81,-146.05 636.62,-136.84"/>
<polygon fill="#63b8ff" stroke="#63b8ff" points="639.4,-138.98 643.21,-129.09 634.07,-134.45 639.4,-138.98"/>
</g>
<!-- Node14&#45;&gt;Node16 -->
<g id="edge21" class="edge">
<title>Node14&#45;&gt;Node16</title>
<path fill="none" stroke="#63b8ff" d="M630.24,-164.98C655.87,-156.16 696.13,-142.31 724.91,-132.41"/>
<polygon fill="#63b8ff" stroke="#63b8ff" points="726.25,-135.65 734.56,-129.08 723.97,-129.03 726.25,-135.65"/>
</g>
<!-- Node15&#45;&gt;Node10 -->
<g id="edge20" class="edge">
<title>Node15&#45;&gt;Node10</title>
<path fill="none" stroke="#63b8ff" d="M644.56,-109.75C639.52,-102.34 632.16,-91.5 625.99,-82.41"/>
<polygon fill="#63b8ff" stroke="#63b8ff" points="628.85,-80.39 620.33,-74.09 623.06,-84.33 628.85,-80.39"/>
</g>
<!-- Node16&#45;&gt;Node10 -->
<g id="edge22" class="edge">
<title>Node16&#45;&gt;Node10</title>
<path fill="none" stroke="#63b8ff" d="M736.2,-109.98C712.25,-101.23 674.72,-87.51 647.67,-77.62"/>
<polygon fill="#63b8ff" stroke="#63b8ff" points="648.81,-74.32 638.22,-74.17 646.41,-80.89 648.81,-74.32"/>
</g>
<!-- Node18&#45;&gt;Node2 -->
<g id="edge27" class="edge">
<title>Node18&#45;&gt;Node2</title>
<path fill="none" stroke="#63b8ff" d="M451.44,-164.98C425.39,-156.14 384.45,-142.23 355.28,-132.32"/>
<polygon fill="#63b8ff" stroke="#63b8ff" points="356.1,-128.9 345.5,-128.99 353.84,-135.53 356.1,-128.9"/>
</g>
<!-- Node18&#45;&gt;Node10 -->
<g id="edge29" class="edge">
<title>Node18&#45;&gt;Node10</title>
<path fill="none" stroke="#63b8ff" d="M447.76,-164.95C416.31,-154.15 372.8,-134.04 392.5,-110 409.62,-89.11 472.35,-77.82 526.78,-71.85"/>
<polygon fill="#63b8ff" stroke="#63b8ff" points="527.25,-75.32 536.83,-70.79 526.52,-68.36 527.25,-75.32"/>
</g>
<!-- Node18&#45;&gt;Node13 -->
<g id="edge28" class="edge">
<title>Node18&#45;&gt;Node13</title>
<path fill="none" stroke="#63b8ff" d="M476.5,-164.75C476.5,-157.8 476.5,-147.85 476.5,-139.13"/>
<polygon fill="#63b8ff" stroke="#63b8ff" points="480,-139.09 476.5,-129.09 473,-139.09 480,-139.09"/>
</g>
<!-- Node19&#45;&gt;Node10 -->
<g id="edge32" class="edge">
<title>Node19&#45;&gt;Node10</title>
<path fill="none" stroke="#63b8ff" d="M817.26,-164.57C822.26,-151.15 829.08,-125.66 816.5,-110 801.85,-91.77 749.83,-80.57 702.25,-73.97"/>
<polygon fill="#63b8ff" stroke="#63b8ff" points="702.55,-70.48 692.18,-72.63 701.63,-77.42 702.55,-70.48"/>
</g>
<!-- Node19&#45;&gt;Node16 -->
<g id="edge31" class="edge">
<title>Node19&#45;&gt;Node16</title>
<path fill="none" stroke="#63b8ff" d="M804.58,-164.75C796.72,-157.03 785.07,-145.6 775.58,-136.28"/>
<polygon fill="#63b8ff" stroke="#63b8ff" points="777.84,-133.6 768.25,-129.09 772.94,-138.59 777.84,-133.6"/>
</g>
<!-- Node20&#45;&gt;Node12 -->
<g id="edge34" class="edge">
<title>Node20&#45;&gt;Node12</title>
<path fill="none" stroke="#63b8ff" d="M65.43,-164.62C65.83,-150.77 68.76,-124.16 84.5,-110 153.12,-48.25 430.53,-22.59 554.33,-14.06"/>
<polygon fill="#63b8ff" stroke="#63b8ff" points="554.66,-17.55 564.4,-13.38 554.19,-10.56 554.66,-17.55"/>
</g>
<!-- Node21 -->
<g id="node21" class="node">
<title>Node21</title>
<g id="a_node21"><a xlink:title=" ">
<polygon fill="#e0e0e0" stroke="#999999" points="149.5,-129 93.5,-129 93.5,-110 149.5,-110 149.5,-129"/>
<text text-anchor="middle" x="121.5" y="-117" font-family="Helvetica,sans-Serif" font-size="10.00">stddef.h</text>
</a>
</g>
</g>
<!-- Node20&#45;&gt;Node21 -->
<g id="edge35" class="edge">
<title>Node20&#45;&gt;Node21</title>
<path fill="none" stroke="#63b8ff" d="M74.5,-164.98C82.69,-157.23 95.01,-145.58 104.97,-136.14"/>
<polygon fill="#63b8ff" stroke="#63b8ff" points="107.48,-138.59 112.34,-129.17 102.67,-133.5 107.48,-138.59"/>
</g>
</g>
</svg>
        <g id="navigator" transform="translate(0 0)" fill="#404254">
                <rect fill="#f2f5e9" fill-opacity="0.5" stroke="#606060" stroke-width=".5" x="0" y="0" width="60" height="60"/>
                <use id="zoomplus" xlink:href="#zoomPlus" x="17" y="9" onmousedown="handleZoom(evt,'in')"/>
                <use id="zoomminus" xlink:href="#zoomMin" x="42" y="9" onmousedown="handleZoom(evt,'out')"/>
                <use id="reset" xlink:href="#resetDef" x="30" y="36" onmousedown="handleReset()"/>
                <g id="arrowUp" xlink:href="#dirArrow" transform="translate(30 24)" onmousedown="handlePan(0,-1)">
                  <use xlink:href="#rim" fill="#404040">
                        <set attributeName="fill" to="#808080" begin="arrowUp.mouseover" end="arrowUp.mouseout"/>
                  </use>
                  <path fill="none" stroke="white" stroke-width="1.5" d="M0,-3.0v7 M-2.5,-0.5L0,-3.0L2.5,-0.5"/>
                </g>
                <g id="arrowRight" xlink:href="#dirArrow" transform="rotate(90) translate(36 -43)" onmousedown="handlePan(1,0)">
                  <use xlink:href="#rim" fill="#404040">
                        <set attributeName="fill" to="#808080" begin="arrowRight.mouseover" end="arrowRight.mouseout"/>
                  </use>
                  <path fill="none" stroke="white" stroke-width="1.5" d="M0,-3.0v7 M-2.5,-0.5L0,-3.0L2.5,-0.5"/>
                </g>
                <g id="arrowDown" xlink:href="#dirArrow" transform="rotate(180) translate(-30 -48)" onmousedown="handlePan(0,1)">
                  <use xlink:href="#rim" fill="#404040">
                        <set attributeName="fill" to="#808080" begin="arrowDown.mouseover" end="arrowDown.mouseout"/>
                  </use>
                  <path fill="none" stroke="white" stroke-width="1.5" d="M0,-3.0v7 M-2.5,-0.5L0,-3.0L2.5,-0.5"/>
                </g>
                <g id="arrowLeft" xlink:href="#dirArrow" transform="rotate(270) translate(-36 17)" onmousedown="handlePan(-1,0)">
                  <use xlink:href="#rim" fill="#404040">
                        <set attributeName="fill" to="#808080" begin="arrowLeft.mouseover" end="arrowLeft.mouseout"/>
                  </use>
                  <path fill="none" stroke="white" stroke-width="1.5" d="M0,-3.0v7 M-2.5,-0.5L0,-3.0L2.5,-0.5"/>
                </g>
        </g>
        <svg viewBox="0 0 15 15" width="100%" height="30px" preserveAspectRatio="xMaxYMin meet">
         <g id="arrow_out" transform="scale(0.3 0.3)">
          <a xlink:href="FMC__encodings_8c__incl_org.svg" target="_base">
           <rect id="button" ry="5" rx="5" y="6" x="6" height="38" width="38"
                fill="#f2f5e9" fill-opacity="0.5" stroke="#606060" stroke-width="1.0"/>
           <path id="arrow"
             d="M 11.500037,31.436501 C 11.940474,20.09759 22.043105,11.32322 32.158766,21.979434 L 37.068811,17.246167 C 37.068811,17.246167 37.088388,32 37.088388,32 L 22.160133,31.978069 C 22.160133,31.978069 26.997745,27.140456 26.997745,27.140456 C 18.528582,18.264221 13.291696,25.230495 11.500037,31.436501 z"
             style="fill:#404040;"/>
          </a>
         </g>
        </svg>
</svg>
