<?xml version="1.0" encoding="UTF-8" standalone="no"?>
<!DOCTYPE svg PUBLIC "-//W3C//DTD SVG 1.1//EN"
 "http://www.w3.org/Graphics/SVG/1.1/DTD/svg11.dtd">
<!-- Generated by graphviz version 2.43.0 (0)
 -->
<!-- Title: src/data_analyze/encodings/FMC_encodings.c Pages: 1 -->
<!--zoomable 368 -->
<svg id="main" version="1.1" xmlns="http://www.w3.org/2000/svg" xmlns:xlink="http://www.w3.org/1999/xlink" xml:space="preserve" onload="init(evt)">
<style type="text/css"><![CDATA[
.edge:hover path { stroke: red; }
.edge:hover polygon { stroke: red; fill: red; }
]]></style>
<script type="text/javascript"><![CDATA[
var edges = document.getElementsByTagName('g');
if (edges && edges.length) {
  for (var i=0;i<edges.length;i++) {
    if (edges[i].id.substr(0,4)=='edge') {
      edges[i].setAttribute('class','edge');
    }
  }
}
]]></script>
        <defs>
                <circle id="rim" cx="0" cy="0" r="7"/>
                <circle id="rim2" cx="0" cy="0" r="3.5"/>
                <g id="zoomPlus">
                        <use xlink:href="#rim" fill="#404040">
                                <set attributeName="fill" to="#808080" begin="zoomplus.mouseover" end="zoomplus.mouseout"/>
                        </use>
                        <path d="M-4,0h8M0,-4v8" fill="none" stroke="white" stroke-width="1.5" pointer-events="none"/>
                </g>
                <g id="zoomMin">
                        <use xlink:href="#rim" fill="#404040">
                                <set attributeName="fill" to="#808080" begin="zoomminus.mouseover" end="zoomminus.mouseout"/>
                        </use>
                        <path d="M-4,0h8" fill="none" stroke="white" stroke-width="1.5" pointer-events="none"/>
                </g>
                <g id="dirArrow">
                        <path fill="none" stroke="white" stroke-width="1.5" d="M0,-3.0v7 M-2.5,-0.5L0,-3.0L2.5,-0.5"/>
                </g>
               <g id="resetDef">
                       <use xlink:href="#rim2" fill="#404040">
                               <set attributeName="fill" to="#808080" begin="reset.mouseover" end="reset.mouseout"/>
                       </use>
               </g>
        </defs>

<script type="text/javascript">
var viewWidth = 902;
var viewHeight = 368;
var sectionId = 'dynsection-0';
</script>
<script xlink:href="../../svgpan.js"/>
<svg id="graph" class="graph">
<g id="viewport">
<title>src/data_analyze/encodings/FMC_encodings.c</title>
<!-- Node1 -->
<g id="node1" class="node">
<title>Node1</title>
<g id="a_node1"><a xlink:title=" ">
<polygon fill="#999999" stroke="#666666" points="420.73,-360 268.73,-360 268.73,-330 420.73,-330 420.73,-360"/>
<text text-anchor="start" x="276.73" y="-348" font-family="Helvetica,sans-Serif" font-size="10.00">src/data_analyze/encodings</text>
<text text-anchor="middle" x="344.73" y="-337" font-family="Helvetica,sans-Serif" font-size="10.00">/FMC_encodings.c</text>
</a>
</g>
</g>
<!-- Node2 -->
<g id="node2" class="node">
<title>Node2</title>
<g id="a_node2"><a xlink:title=" ">
<polygon fill="#e0e0e0" stroke="#999999" points="223.73,-129 173.73,-129 173.73,-110 223.73,-110 223.73,-129"/>
<text text-anchor="middle" x="198.73" y="-117" font-family="Helvetica,sans-Serif" font-size="10.00">stdio.h</text>
</a>
</g>
</g>
<!-- Node1&#45;&gt;Node2 -->
<g id="edge1" class="edge">
<title>Node1&#45;&gt;Node2</title>
<path fill="none" stroke="#63b8ff" d="M268.57,-334.6C212.25,-326.3 141.53,-312.62 118.73,-294 71.22,-255.21 34.13,-214.94 69.73,-165 90.83,-135.41 132.97,-125.3 163.35,-121.95"/>
<polygon fill="#63b8ff" stroke="#63b8ff" points="163.91,-125.42 173.55,-121.03 163.28,-118.45 163.91,-125.42"/>
</g>
<!-- Node3 -->
<g id="node3" class="node">
<title>Node3</title>
<g id="a_node3"><a xlink:title=" ">
<polygon fill="#e0e0e0" stroke="#999999" points="301.23,-294 248.23,-294 248.23,-275 301.23,-275 301.23,-294"/>
<text text-anchor="middle" x="274.73" y="-282" font-family="Helvetica,sans-Serif" font-size="10.00">stdlib.h</text>
</a>
</g>
</g>
<!-- Node1&#45;&gt;Node3 -->
<g id="edge2" class="edge">
<title>Node1&#45;&gt;Node3</title>
<path fill="none" stroke="#63b8ff" d="M327.78,-329.84C317.31,-321.09 303.87,-309.85 293.14,-300.88"/>
<polygon fill="#63b8ff" stroke="#63b8ff" points="295.14,-297.99 285.22,-294.27 290.65,-303.36 295.14,-297.99"/>
</g>
<!-- Node4 -->
<g id="node4" class="node">
<title>Node4</title>
<g id="a_node4"><a xlink:title=" ">
<polygon fill="#e0e0e0" stroke="#999999" points="370.23,-294 319.23,-294 319.23,-275 370.23,-275 370.23,-294"/>
<text text-anchor="middle" x="344.73" y="-282" font-family="Helvetica,sans-Serif" font-size="10.00">errno.h</text>
</a>
</g>
</g>
<!-- Node1&#45;&gt;Node4 -->
<g id="edge3" class="edge">
<title>Node1&#45;&gt;Node4</title>
<path fill="none" stroke="#63b8ff" d="M344.73,-329.84C344.73,-322.21 344.73,-312.7 344.73,-304.45"/>
<polygon fill="#63b8ff" stroke="#63b8ff" points="348.23,-304.27 344.73,-294.27 341.23,-304.27 348.23,-304.27"/>
</g>
<!-- Node5 -->
<g id="node5" class="node">
<title>Node5</title>
<g id="a_node5"><a xlink:title=" ">
<polygon fill="#e0e0e0" stroke="#999999" points="441.23,-294 388.23,-294 388.23,-275 441.23,-275 441.23,-294"/>
<text text-anchor="middle" x="414.73" y="-282" font-family="Helvetica,sans-Serif" font-size="10.00">string.h</text>
</a>
</g>
</g>
<!-- Node1&#45;&gt;Node5 -->
<g id="edge4" class="edge">
<title>Node1&#45;&gt;Node5</title>
<path fill="none" stroke="#63b8ff" d="M361.67,-329.84C372.15,-321.09 385.59,-309.85 396.32,-300.88"/>
<polygon fill="#63b8ff" stroke="#63b8ff" points="398.81,-303.36 404.24,-294.27 394.32,-297.99 398.81,-303.36"/>
</g>
<!-- Node6 -->
<g id="node6" class="node">
<title>Node6</title>
<g id="a_node6"><a xlink:title=" ">
<polygon fill="#e0e0e0" stroke="#999999" points="513.73,-294 459.73,-294 459.73,-275 513.73,-275 513.73,-294"/>
<text text-anchor="middle" x="486.73" y="-282" font-family="Helvetica,sans-Serif" font-size="10.00">wchar.h</text>
</a>
</g>
</g>
<!-- Node1&#45;&gt;Node6 -->
<g id="edge5" class="edge">
<title>Node1&#45;&gt;Node6</title>
<path fill="none" stroke="#63b8ff" d="M378.74,-329.99C402.33,-320.27 433.47,-307.44 456.25,-298.06"/>
<polygon fill="#63b8ff" stroke="#63b8ff" points="457.85,-301.18 465.76,-294.14 455.18,-294.71 457.85,-301.18"/>
</g>
<!-- Node7 -->
<g id="node7" class="node">
<title>Node7</title>
<g id="a_node7"><a xlink:title=" ">
<polygon fill="#e0e0e0" stroke="#999999" points="585.23,-294 532.23,-294 532.23,-275 585.23,-275 585.23,-294"/>
<text text-anchor="middle" x="558.73" y="-282" font-family="Helvetica,sans-Serif" font-size="10.00">stdint.h</text>
</a>
</g>
</g>
<!-- Node1&#45;&gt;Node7 -->
<g id="edge6" class="edge">
<title>Node1&#45;&gt;Node7</title>
<path fill="none" stroke="#63b8ff" d="M395.99,-329.99C434.93,-319.34 487.53,-304.96 522.26,-295.47"/>
<polygon fill="#63b8ff" stroke="#63b8ff" points="523.27,-298.82 531.99,-292.81 521.42,-292.07 523.27,-298.82"/>
</g>
<!-- Node8 -->
<g id="node8" class="node">
<title>Node8</title>
<g id="a_node8"><a xlink:href="../../db/d30/FMC__encodings_8h.html" target="_top" xlink:title=" ">
<polygon fill="white" stroke="#666666" points="229.73,-294 127.73,-294 127.73,-275 229.73,-275 229.73,-294"/>
<text text-anchor="middle" x="178.73" y="-282" font-family="Helvetica,sans-Serif" font-size="10.00">FMC_encodings.h</text>
</a>
</g>
</g>
<!-- Node1&#45;&gt;Node8 -->
<g id="edge7" class="edge">
<title>Node1&#45;&gt;Node8</title>
<path fill="none" stroke="#63b8ff" d="M304.97,-329.99C276.9,-320.1 239.68,-306.98 212.94,-297.56"/>
<polygon fill="#63b8ff" stroke="#63b8ff" points="213.84,-294.16 203.24,-294.14 211.51,-300.76 213.84,-294.16"/>
</g>
<!-- Node9 -->
<g id="node9" class="node">
<title>Node9</title>
<g id="a_node9"><a xlink:href="../../d9/de1/FMC__general_8h.html" target="_top" xlink:title=" ">
<polygon fill="white" stroke="#666666" points="377.23,-239 230.23,-239 230.23,-220 377.23,-220 377.23,-239"/>
<text text-anchor="middle" x="303.73" y="-227" font-family="Helvetica,sans-Serif" font-size="10.00">../../general/FMC_general.h</text>
</a>
</g>
</g>
<!-- Node8&#45;&gt;Node9 -->
<g id="edge8" class="edge">
<title>Node8&#45;&gt;Node9</title>
<path fill="none" stroke="#63b8ff" d="M198.81,-274.98C219.1,-266.38 250.69,-252.99 273.9,-243.15"/>
<polygon fill="#63b8ff" stroke="#63b8ff" points="275.44,-246.3 283.28,-239.17 272.71,-239.85 275.44,-246.3"/>
</g>
<!-- Node10 -->
<g id="node10" class="node">
<title>Node10</title>
<g id="a_node10"><a xlink:href="../../d0/d28/FMC__macros_8h.html" target="_top" xlink:title=" ">
<polygon fill="white" stroke="#666666" points="367.23,-74 212.23,-74 212.23,-55 367.23,-55 367.23,-74"/>
<text text-anchor="middle" x="289.73" y="-62" font-family="Helvetica,sans-Serif" font-size="10.00">preprocessor/FMC_macros.h</text>
</a>
</g>
</g>
<!-- Node9&#45;&gt;Node10 -->
<g id="edge9" class="edge">
<title>Node9&#45;&gt;Node10</title>
<path fill="none" stroke="#63b8ff" d="M229.98,-222.82C127.36,-212.16 -39.3,-183.22 22.73,-110 45.53,-83.09 133.4,-72.43 202.19,-68.23"/>
<polygon fill="#63b8ff" stroke="#63b8ff" points="202.41,-71.72 212.19,-67.65 202,-64.73 202.41,-71.72"/>
</g>
<!-- Node11 -->
<g id="node11" class="node">
<title>Node11</title>
<g id="a_node11"><a xlink:href="../../d7/dff/FMC__platform_8h.html" target="_top" xlink:title=" ">
<polygon fill="white" stroke="#666666" points="107.23,-19 12.23,-19 12.23,0 107.23,0 107.23,-19"/>
<text text-anchor="middle" x="59.73" y="-7" font-family="Helvetica,sans-Serif" font-size="10.00">FMC_platform.h</text>
</a>
</g>
</g>
<!-- Node9&#45;&gt;Node11 -->
<g id="edge14" class="edge">
<title>Node9&#45;&gt;Node11</title>
<path fill="none" stroke="#63b8ff" d="M230.12,-226.6C155.46,-223.06 46.89,-212.93 17.73,-184 -25.49,-141.12 22.35,-61.88 46.95,-27.34"/>
<polygon fill="#63b8ff" stroke="#63b8ff" points="49.82,-29.34 52.91,-19.21 44.18,-25.21 49.82,-29.34"/>
</g>
<!-- Node14 -->
<g id="node14" class="node">
<title>Node14</title>
<g id="a_node14"><a xlink:href="../../da/dd3/FMC__consts_8h.html" target="_top" xlink:title=" ">
<polygon fill="white" stroke="#666666" points="543.73,-129 393.73,-129 393.73,-110 543.73,-110 543.73,-129"/>
<text text-anchor="middle" x="468.73" y="-117" font-family="Helvetica,sans-Serif" font-size="10.00">preprocessor/FMC_consts.h</text>
</a>
</g>
</g>
<!-- Node9&#45;&gt;Node14 -->
<g id="edge15" class="edge">
<title>Node9&#45;&gt;Node14</title>
<path fill="none" stroke="#63b8ff" d="M316.95,-219.84C345.31,-201.28 412.22,-157.49 446.95,-134.75"/>
<polygon fill="#63b8ff" stroke="#63b8ff" points="448.99,-137.6 455.44,-129.2 445.16,-131.74 448.99,-137.6"/>
</g>
<!-- Node15 -->
<g id="node15" class="node">
<title>Node15</title>
<g id="a_node15"><a xlink:href="../../d5/de5/FMC__structs_8h.html" target="_top" xlink:title=" ">
<polygon fill="white" stroke="#666666" points="194.73,-184 78.73,-184 78.73,-165 194.73,-165 194.73,-184"/>
<text text-anchor="middle" x="136.73" y="-172" font-family="Helvetica,sans-Serif" font-size="10.00">types/FMC_structs.h</text>
</a>
</g>
</g>
<!-- Node9&#45;&gt;Node15 -->
<g id="edge16" class="edge">
<title>Node9&#45;&gt;Node15</title>
<path fill="none" stroke="#63b8ff" d="M276.9,-219.98C248.86,-211.09 204.68,-197.07 173.43,-187.15"/>
<polygon fill="#63b8ff" stroke="#63b8ff" points="174.36,-183.77 163.77,-184.08 172.24,-190.44 174.36,-183.77"/>
</g>
<!-- Node16 -->
<g id="node16" class="node">
<title>Node16</title>
<g id="a_node16"><a xlink:href="../../d6/d25/FMC__enums_8h.html" target="_top" xlink:title=" ">
<polygon fill="white" stroke="#666666" points="117.73,-129 31.73,-129 31.73,-110 117.73,-110 117.73,-129"/>
<text text-anchor="middle" x="74.73" y="-117" font-family="Helvetica,sans-Serif" font-size="10.00">FMC_enums.h</text>
</a>
</g>
</g>
<!-- Node9&#45;&gt;Node16 -->
<g id="edge27" class="edge">
<title>Node9&#45;&gt;Node16</title>
<path fill="none" stroke="#63b8ff" d="M230.07,-224.5C169.29,-219.47 89.87,-208.33 69.73,-184 59.39,-171.51 62.54,-152.5 67.11,-138.53"/>
<polygon fill="#63b8ff" stroke="#63b8ff" points="70.44,-139.62 70.69,-129.02 63.89,-137.15 70.44,-139.62"/>
</g>
<!-- Node17 -->
<g id="node17" class="node">
<title>Node17</title>
<g id="a_node17"><a xlink:href="../../df/df8/FMC__typedefs_8h.html" target="_top" xlink:title=" ">
<polygon fill="white" stroke="#666666" points="337.23,-129 242.23,-129 242.23,-110 337.23,-110 337.23,-129"/>
<text text-anchor="middle" x="289.73" y="-117" font-family="Helvetica,sans-Serif" font-size="10.00">FMC_typedefs.h</text>
</a>
</g>
</g>
<!-- Node9&#45;&gt;Node17 -->
<g id="edge26" class="edge">
<title>Node9&#45;&gt;Node17</title>
<path fill="none" stroke="#63b8ff" d="M283.53,-219.91C269.26,-212.64 251.22,-200.71 242.73,-184 233.47,-165.78 250.92,-147.25 267.12,-134.95"/>
<polygon fill="#63b8ff" stroke="#63b8ff" points="269.2,-137.77 275.33,-129.12 265.15,-132.06 269.2,-137.77"/>
</g>
<!-- Node18 -->
<g id="node18" class="node">
<title>Node18</title>
<g id="a_node18"><a xlink:href="../../d2/d5e/FMC__flags_8h.html" target="_top" xlink:title=" ">
<polygon fill="white" stroke="#666666" points="893.73,-74 751.73,-74 751.73,-55 893.73,-55 893.73,-74"/>
<text text-anchor="middle" x="822.73" y="-62" font-family="Helvetica,sans-Serif" font-size="10.00">preprocessor/FMC_flags.h</text>
</a>
</g>
</g>
<!-- Node9&#45;&gt;Node18 -->
<g id="edge24" class="edge">
<title>Node9&#45;&gt;Node18</title>
<path fill="none" stroke="#63b8ff" d="M377.49,-227.47C512.89,-224.81 790.06,-215.53 819.73,-184 845.03,-157.12 836.35,-109.73 828.88,-83.77"/>
<polygon fill="#63b8ff" stroke="#63b8ff" points="832.18,-82.58 825.86,-74.08 825.5,-84.67 832.18,-82.58"/>
</g>
<!-- Node19 -->
<g id="node19" class="node">
<title>Node19</title>
<g id="a_node19"><a xlink:href="../../dd/ddf/FMC__errors_8h.html" target="_top" xlink:title=" ">
<polygon fill="white" stroke="#666666" points="356.23,-184 251.23,-184 251.23,-165 356.23,-165 356.23,-184"/>
<text text-anchor="middle" x="303.73" y="-172" font-family="Helvetica,sans-Serif" font-size="10.00">utils/FMC_errors.h</text>
</a>
</g>
</g>
<!-- Node9&#45;&gt;Node19 -->
<g id="edge28" class="edge">
<title>Node9&#45;&gt;Node19</title>
<path fill="none" stroke="#63b8ff" d="M303.73,-219.75C303.73,-212.8 303.73,-202.85 303.73,-194.13"/>
<polygon fill="#63b8ff" stroke="#63b8ff" points="307.23,-194.09 303.73,-184.09 300.23,-194.09 307.23,-194.09"/>
</g>
<!-- Node20 -->
<g id="node20" class="node">
<title>Node20</title>
<g id="a_node20"><a xlink:href="../../de/d86/FMC__globals_8h.html" target="_top" xlink:title=" ">
<polygon fill="white" stroke="#666666" points="660.73,-184 548.73,-184 548.73,-165 660.73,-165 660.73,-184"/>
<text text-anchor="middle" x="604.73" y="-172" font-family="Helvetica,sans-Serif" font-size="10.00">utils/FMC_globals.h</text>
</a>
</g>
</g>
<!-- Node9&#45;&gt;Node20 -->
<g id="edge32" class="edge">
<title>Node9&#45;&gt;Node20</title>
<path fill="none" stroke="#63b8ff" d="M352.09,-219.98C404.92,-210.68 489.55,-195.78 546.12,-185.82"/>
<polygon fill="#63b8ff" stroke="#63b8ff" points="546.75,-189.26 555.99,-184.08 545.53,-182.37 546.75,-189.26"/>
</g>
<!-- Node21 -->
<g id="node21" class="node">
<title>Node21</title>
<g id="a_node21"><a xlink:href="../../d4/d06/FMC__deprecated_8h.html" target="_top" xlink:title=" ">
<polygon fill="white" stroke="#666666" points="810.23,-184 679.23,-184 679.23,-165 810.23,-165 810.23,-184"/>
<text text-anchor="middle" x="744.73" y="-172" font-family="Helvetica,sans-Serif" font-size="10.00">utils/FMC_deprecated.h</text>
</a>
</g>
</g>
<!-- Node9&#45;&gt;Node21 -->
<g id="edge36" class="edge">
<title>Node9&#45;&gt;Node21</title>
<path fill="none" stroke="#63b8ff" d="M374.58,-219.98C455.22,-210.29 586.41,-194.53 669.02,-184.6"/>
<polygon fill="#63b8ff" stroke="#63b8ff" points="669.58,-188.06 679.09,-183.39 668.74,-181.11 669.58,-188.06"/>
</g>
<!-- Node23 -->
<g id="node23" class="node">
<title>Node23</title>
<g id="a_node23"><a xlink:href="../../da/d45/FMC__str__view_8h.html" target="_top" xlink:title=" ">
<polygon fill="white" stroke="#666666" points="530.23,-184 413.23,-184 413.23,-165 530.23,-165 530.23,-184"/>
<text text-anchor="middle" x="471.73" y="-172" font-family="Helvetica,sans-Serif" font-size="10.00">utils/FMC_str_view.h</text>
</a>
</g>
</g>
<!-- Node9&#45;&gt;Node23 -->
<g id="edge39" class="edge">
<title>Node9&#45;&gt;Node23</title>
<path fill="none" stroke="#63b8ff" d="M325.61,-219.98C351.96,-211.05 396.48,-196.94 429.54,-187.02"/>
<polygon fill="#63b8ff" stroke="#63b8ff" points="430.81,-190.29 439.4,-184.08 428.81,-183.58 430.81,-190.29"/>
</g>
<!-- Node10&#45;&gt;Node11 -->
<g id="edge10" class="edge">
<title>Node10&#45;&gt;Node11</title>
<path fill="none" stroke="#63b8ff" d="M252.78,-54.98C213.16,-45.86 150.14,-31.33 106.96,-21.38"/>
<polygon fill="#63b8ff" stroke="#63b8ff" points="107.5,-17.92 96.97,-19.08 105.93,-24.74 107.5,-17.92"/>
</g>
<!-- Node12 -->
<g id="node12" class="node">
<title>Node12</title>
<g id="a_node12"><a xlink:title=" ">
<polygon fill="#e0e0e0" stroke="#999999" points="595.73,-19 511.73,-19 511.73,0 595.73,0 595.73,-19"/>
<text text-anchor="middle" x="553.73" y="-7" font-family="Helvetica,sans-Serif" font-size="10.00">metalang99.h</text>
</a>
</g>
</g>
<!-- Node10&#45;&gt;Node12 -->
<g id="edge11" class="edge">
<title>Node10&#45;&gt;Node12</title>
<path fill="none" stroke="#63b8ff" d="M332.15,-54.98C378.24,-45.73 451.92,-30.94 501.53,-20.98"/>
<polygon fill="#63b8ff" stroke="#63b8ff" points="502.3,-24.39 511.42,-18.99 500.93,-17.53 502.3,-24.39"/>
</g>
<!-- Node13 -->
<g id="node13" class="node">
<title>Node13</title>
<g id="a_node13"><a xlink:href="../../d1/d2e/FMC__attributes_8h.html" target="_top" xlink:title=" ">
<polygon fill="white" stroke="#666666" points="339.73,-19 239.73,-19 239.73,0 339.73,0 339.73,-19"/>
<text text-anchor="middle" x="289.73" y="-7" font-family="Helvetica,sans-Serif" font-size="10.00">FMC_attributes.h</text>
</a>
</g>
</g>
<!-- Node10&#45;&gt;Node13 -->
<g id="edge12" class="edge">
<title>Node10&#45;&gt;Node13</title>
<path fill="none" stroke="#63b8ff" d="M284.56,-54.75C283.07,-47.8 282.63,-37.85 283.25,-29.13"/>
<polygon fill="#63b8ff" stroke="#63b8ff" points="286.74,-29.47 284.6,-19.09 279.8,-28.53 286.74,-29.47"/>
</g>
<!-- Node13&#45;&gt;Node10 -->
<g id="edge13" class="edge">
<title>Node13&#45;&gt;Node10</title>
<path fill="none" stroke="#63b8ff" d="M294.86,-19.09C296.37,-25.99 296.82,-35.93 296.22,-44.66"/>
<polygon fill="#63b8ff" stroke="#63b8ff" points="292.73,-44.38 294.9,-54.75 299.67,-45.29 292.73,-44.38"/>
</g>
<!-- Node15&#45;&gt;Node2 -->
<g id="edge17" class="edge">
<title>Node15&#45;&gt;Node2</title>
<path fill="none" stroke="#63b8ff" d="M146.69,-164.98C155.86,-157.15 169.67,-145.34 180.76,-135.86"/>
<polygon fill="#63b8ff" stroke="#63b8ff" points="183.26,-138.33 188.59,-129.17 178.71,-133.01 183.26,-138.33"/>
</g>
<!-- Node15&#45;&gt;Node10 -->
<g id="edge19" class="edge">
<title>Node15&#45;&gt;Node10</title>
<path fill="none" stroke="#63b8ff" d="M138.27,-164.84C141.13,-151.29 148.49,-125.09 164.73,-110 182.22,-93.75 206.04,-83.36 228.2,-76.75"/>
<polygon fill="#63b8ff" stroke="#63b8ff" points="229.2,-80.11 237.9,-74.06 227.33,-73.36 229.2,-80.11"/>
</g>
<!-- Node15&#45;&gt;Node14 -->
<g id="edge18" class="edge">
<title>Node15&#45;&gt;Node14</title>
<path fill="none" stroke="#63b8ff" d="M190.07,-164.98C248.67,-155.63 342.74,-140.61 405.13,-130.65"/>
<polygon fill="#63b8ff" stroke="#63b8ff" points="405.92,-134.07 415.25,-129.04 404.82,-127.16 405.92,-134.07"/>
</g>
<!-- Node15&#45;&gt;Node16 -->
<g id="edge20" class="edge">
<title>Node15&#45;&gt;Node16</title>
<path fill="none" stroke="#63b8ff" d="M126.77,-164.98C117.6,-157.15 103.79,-145.34 92.7,-135.86"/>
<polygon fill="#63b8ff" stroke="#63b8ff" points="94.75,-133.01 84.87,-129.17 90.2,-138.33 94.75,-133.01"/>
</g>
<!-- Node15&#45;&gt;Node17 -->
<g id="edge22" class="edge">
<title>Node15&#45;&gt;Node17</title>
<path fill="none" stroke="#63b8ff" d="M161.31,-164.98C186.78,-156.16 226.77,-142.31 255.36,-132.41"/>
<polygon fill="#63b8ff" stroke="#63b8ff" points="256.65,-135.66 264.96,-129.08 254.36,-129.05 256.65,-135.66"/>
</g>
<!-- Node16&#45;&gt;Node10 -->
<g id="edge21" class="edge">
<title>Node16&#45;&gt;Node10</title>
<path fill="none" stroke="#63b8ff" d="M109.27,-109.98C146.15,-100.89 204.72,-86.46 245.07,-76.51"/>
<polygon fill="#63b8ff" stroke="#63b8ff" points="246.04,-79.87 254.92,-74.08 244.37,-73.08 246.04,-79.87"/>
</g>
<!-- Node17&#45;&gt;Node10 -->
<g id="edge23" class="edge">
<title>Node17&#45;&gt;Node10</title>
<path fill="none" stroke="#63b8ff" d="M289.73,-109.75C289.73,-102.8 289.73,-92.85 289.73,-84.13"/>
<polygon fill="#63b8ff" stroke="#63b8ff" points="293.23,-84.09 289.73,-74.09 286.23,-84.09 293.23,-84.09"/>
</g>
<!-- Node18&#45;&gt;Node12 -->
<g id="edge25" class="edge">
<title>Node18&#45;&gt;Node12</title>
<path fill="none" stroke="#63b8ff" d="M779.51,-54.98C732.27,-45.68 656.58,-30.76 606.03,-20.8"/>
<polygon fill="#63b8ff" stroke="#63b8ff" points="606.44,-17.32 595.96,-18.82 605.09,-24.19 606.44,-17.32"/>
</g>
<!-- Node19&#45;&gt;Node2 -->
<g id="edge29" class="edge">
<title>Node19&#45;&gt;Node2</title>
<path fill="none" stroke="#63b8ff" d="M286.86,-164.98C270.12,-156.54 244.23,-143.47 224.84,-133.68"/>
<polygon fill="#63b8ff" stroke="#63b8ff" points="226.41,-130.55 215.91,-129.17 223.26,-136.8 226.41,-130.55"/>
</g>
<!-- Node19&#45;&gt;Node10 -->
<g id="edge31" class="edge">
<title>Node19&#45;&gt;Node10</title>
<path fill="none" stroke="#63b8ff" d="M316.71,-164.94C332.83,-153.18 357.01,-131.06 346.73,-110 340.43,-97.09 328.38,-86.83 316.97,-79.43"/>
<polygon fill="#63b8ff" stroke="#63b8ff" points="318.46,-76.25 308.08,-74.12 314.87,-82.25 318.46,-76.25"/>
</g>
<!-- Node19&#45;&gt;Node14 -->
<g id="edge30" class="edge">
<title>Node19&#45;&gt;Node14</title>
<path fill="none" stroke="#63b8ff" d="M330.24,-164.98C357.94,-156.09 401.59,-142.07 432.47,-132.15"/>
<polygon fill="#63b8ff" stroke="#63b8ff" points="433.56,-135.47 442.01,-129.08 431.42,-128.81 433.56,-135.47"/>
</g>
<!-- Node20&#45;&gt;Node10 -->
<g id="edge34" class="edge">
<title>Node20&#45;&gt;Node10</title>
<path fill="none" stroke="#63b8ff" d="M600.33,-164.84C592.71,-150.8 575.65,-123.31 552.73,-110 523.51,-93.03 442.13,-80.95 377.56,-73.69"/>
<polygon fill="#63b8ff" stroke="#63b8ff" points="377.67,-70.18 367.35,-72.57 376.91,-77.14 377.67,-70.18"/>
</g>
<!-- Node20&#45;&gt;Node14 -->
<g id="edge35" class="edge">
<title>Node20&#45;&gt;Node14</title>
<path fill="none" stroke="#63b8ff" d="M582.88,-164.98C560.61,-156.3 525.83,-142.75 500.51,-132.88"/>
<polygon fill="#63b8ff" stroke="#63b8ff" points="501.57,-129.54 490.98,-129.17 499.02,-136.06 501.57,-129.54"/>
</g>
<!-- Node20&#45;&gt;Node17 -->
<g id="edge33" class="edge">
<title>Node20&#45;&gt;Node17</title>
<path fill="none" stroke="#63b8ff" d="M554.12,-164.98C497.65,-155.48 406.46,-140.14 347.31,-130.19"/>
<polygon fill="#63b8ff" stroke="#63b8ff" points="347.82,-126.72 337.38,-128.52 346.66,-133.63 347.82,-126.72"/>
</g>
<!-- Node21&#45;&gt;Node13 -->
<g id="edge37" class="edge">
<title>Node21&#45;&gt;Node13</title>
<path fill="none" stroke="#63b8ff" d="M722.93,-164.96C691.12,-152.57 630.07,-128.99 577.73,-110 486.91,-77.05 379.09,-40.47 324.76,-22.21"/>
<polygon fill="#63b8ff" stroke="#63b8ff" points="325.84,-18.89 315.25,-19.02 323.62,-25.52 325.84,-18.89"/>
</g>
<!-- Node22 -->
<g id="node22" class="node">
<title>Node22</title>
<g id="a_node22"><a xlink:title=" ">
<polygon fill="#e0e0e0" stroke="#999999" points="772.73,-129 716.73,-129 716.73,-110 772.73,-110 772.73,-129"/>
<text text-anchor="middle" x="744.73" y="-117" font-family="Helvetica,sans-Serif" font-size="10.00">stddef.h</text>
</a>
</g>
</g>
<!-- Node21&#45;&gt;Node22 -->
<g id="edge38" class="edge">
<title>Node21&#45;&gt;Node22</title>
<path fill="none" stroke="#63b8ff" d="M744.73,-164.75C744.73,-157.8 744.73,-147.85 744.73,-139.13"/>
<polygon fill="#63b8ff" stroke="#63b8ff" points="748.23,-139.09 744.73,-129.09 741.23,-139.09 748.23,-139.09"/>
</g>
<!-- Node23&#45;&gt;Node9 -->
<g id="edge40" class="edge">
<title>Node23&#45;&gt;Node9</title>
<path fill="none" stroke="#63b8ff" d="M449.66,-184.08C423.21,-193.04 378.68,-207.15 345.68,-217.06"/>
<polygon fill="#63b8ff" stroke="#63b8ff" points="344.42,-213.78 335.84,-219.98 346.42,-220.49 344.42,-213.78"/>
</g>
</g>
</svg>
        <g id="navigator" transform="translate(0 0)" fill="#404254">
                <rect fill="#f2f5e9" fill-opacity="0.5" stroke="#606060" stroke-width=".5" x="0" y="0" width="60" height="60"/>
                <use id="zoomplus" xlink:href="#zoomPlus" x="17" y="9" onmousedown="handleZoom(evt,'in')"/>
                <use id="zoomminus" xlink:href="#zoomMin" x="42" y="9" onmousedown="handleZoom(evt,'out')"/>
                <use id="reset" xlink:href="#resetDef" x="30" y="36" onmousedown="handleReset()"/>
                <g id="arrowUp" xlink:href="#dirArrow" transform="translate(30 24)" onmousedown="handlePan(0,-1)">
                  <use xlink:href="#rim" fill="#404040">
                        <set attributeName="fill" to="#808080" begin="arrowUp.mouseover" end="arrowUp.mouseout"/>
                  </use>
                  <path fill="none" stroke="white" stroke-width="1.5" d="M0,-3.0v7 M-2.5,-0.5L0,-3.0L2.5,-0.5"/>
                </g>
                <g id="arrowRight" xlink:href="#dirArrow" transform="rotate(90) translate(36 -43)" onmousedown="handlePan(1,0)">
                  <use xlink:href="#rim" fill="#404040">
                        <set attributeName="fill" to="#808080" begin="arrowRight.mouseover" end="arrowRight.mouseout"/>
                  </use>
                  <path fill="none" stroke="white" stroke-width="1.5" d="M0,-3.0v7 M-2.5,-0.5L0,-3.0L2.5,-0.5"/>
                </g>
                <g id="arrowDown" xlink:href="#dirArrow" transform="rotate(180) translate(-30 -48)" onmousedown="handlePan(0,1)">
                  <use xlink:href="#rim" fill="#404040">
                        <set attributeName="fill" to="#808080" begin="arrowDown.mouseover" end="arrowDown.mouseout"/>
                  </use>
                  <path fill="none" stroke="white" stroke-width="1.5" d="M0,-3.0v7 M-2.5,-0.5L0,-3.0L2.5,-0.5"/>
                </g>
                <g id="arrowLeft" xlink:href="#dirArrow" transform="rotate(270) translate(-36 17)" onmousedown="handlePan(-1,0)">
                  <use xlink:href="#rim" fill="#404040">
                        <set attributeName="fill" to="#808080" begin="arrowLeft.mouseover" end="arrowLeft.mouseout"/>
                  </use>
                  <path fill="none" stroke="white" stroke-width="1.5" d="M0,-3.0v7 M-2.5,-0.5L0,-3.0L2.5,-0.5"/>
                </g>
        </g>
        <svg viewBox="0 0 15 15" width="100%" height="30px" preserveAspectRatio="xMaxYMin meet">
         <g id="arrow_out" transform="scale(0.3 0.3)">
          <a xlink:href="FMC__encodings_8c__incl_org.svg" target="_base">
           <rect id="button" ry="5" rx="5" y="6" x="6" height="38" width="38"
                fill="#f2f5e9" fill-opacity="0.5" stroke="#606060" stroke-width="1.0"/>
           <path id="arrow"
             d="M 11.500037,31.436501 C 11.940474,20.09759 22.043105,11.32322 32.158766,21.979434 L 37.068811,17.246167 C 37.068811,17.246167 37.088388,32 37.088388,32 L 22.160133,31.978069 C 22.160133,31.978069 26.997745,27.140456 26.997745,27.140456 C 18.528582,18.264221 13.291696,25.230495 11.500037,31.436501 z"
             style="fill:#404040;"/>
          </a>
         </g>
        </svg>
</svg>
