<?xml version="1.0" encoding="UTF-8" standalone="no"?>
<!DOCTYPE svg PUBLIC "-//W3C//DTD SVG 1.1//EN"
 "http://www.w3.org/Graphics/SVG/1.1/DTD/svg11.dtd">
<!-- Generated by graphviz version 2.43.0 (0)
 -->
<!-- Title: src/data_analyze/encodings/FMC_encodings.c Pages: 1 -->
<svg width="743pt" height="423pt"
 viewBox="0.00 0.00 743.00 423.00" xmlns="http://www.w3.org/2000/svg" xmlns:xlink="http://www.w3.org/1999/xlink">
<g id="graph0" class="graph" transform="scale(1 1) rotate(0) translate(4 419)">
<title>src/data_analyze/encodings/FMC_encodings.c</title>
<!-- Node1 -->
<g id="node1" class="node">
<title>Node1</title>
<g id="a_node1"><a xlink:title=" ">
<polygon fill="#999999" stroke="#666666" points="268,-415 116,-415 116,-385 268,-385 268,-415"/>
<text text-anchor="start" x="124" y="-403" font-family="Helvetica,sans-Serif" font-size="10.00">src/data_analyze/encodings</text>
<text text-anchor="middle" x="192" y="-392" font-family="Helvetica,sans-Serif" font-size="10.00">/FMC_encodings.c</text>
</a>
</g>
</g>
<!-- Node2 -->
<g id="node2" class="node">
<title>Node2</title>
<g id="a_node2"><a xlink:title=" ">
<polygon fill="#e0e0e0" stroke="#999999" points="50,-184 0,-184 0,-165 50,-165 50,-184"/>
<text text-anchor="middle" x="25" y="-172" font-family="Helvetica,sans-Serif" font-size="10.00">stdio.h</text>
</a>
</g>
</g>
<!-- Node1&#45;&gt;Node2 -->
<g id="edge1" class="edge">
<title>Node1&#45;&gt;Node2</title>
<path fill="none" stroke="#63b8ff" d="M115.93,-385.82C92.5,-378.43 68.34,-366.92 51,-349 9.69,-306.31 10.08,-279.11 16,-220 16.85,-211.47 18.61,-202.16 20.34,-194.27"/>
<polygon fill="#63b8ff" stroke="#63b8ff" points="23.8,-194.82 22.68,-184.29 16.99,-193.22 23.8,-194.82"/>
</g>
<!-- Node3 -->
<g id="node3" class="node">
<title>Node3</title>
<g id="a_node3"><a xlink:title=" ">
<polygon fill="#e0e0e0" stroke="#999999" points="113.5,-349 60.5,-349 60.5,-330 113.5,-330 113.5,-349"/>
<text text-anchor="middle" x="87" y="-337" font-family="Helvetica,sans-Serif" font-size="10.00">stdlib.h</text>
</a>
</g>
</g>
<!-- Node1&#45;&gt;Node3 -->
<g id="edge2" class="edge">
<title>Node1&#45;&gt;Node3</title>
<path fill="none" stroke="#63b8ff" d="M166.85,-384.99C150.11,-375.66 128.23,-363.47 111.61,-354.21"/>
<polygon fill="#63b8ff" stroke="#63b8ff" points="112.95,-350.95 102.51,-349.14 109.54,-357.06 112.95,-350.95"/>
</g>
<!-- Node4 -->
<g id="node4" class="node">
<title>Node4</title>
<g id="a_node4"><a xlink:title=" ">
<polygon fill="#e0e0e0" stroke="#999999" points="182.5,-349 131.5,-349 131.5,-330 182.5,-330 182.5,-349"/>
<text text-anchor="middle" x="157" y="-337" font-family="Helvetica,sans-Serif" font-size="10.00">errno.h</text>
</a>
</g>
</g>
<!-- Node1&#45;&gt;Node4 -->
<g id="edge3" class="edge">
<title>Node1&#45;&gt;Node4</title>
<path fill="none" stroke="#63b8ff" d="M183.53,-384.84C178.71,-376.78 172.63,-366.62 167.5,-358.06"/>
<polygon fill="#63b8ff" stroke="#63b8ff" points="170.38,-356.05 162.24,-349.27 164.38,-359.64 170.38,-356.05"/>
</g>
<!-- Node5 -->
<g id="node5" class="node">
<title>Node5</title>
<g id="a_node5"><a xlink:title=" ">
<polygon fill="#e0e0e0" stroke="#999999" points="253.5,-349 200.5,-349 200.5,-330 253.5,-330 253.5,-349"/>
<text text-anchor="middle" x="227" y="-337" font-family="Helvetica,sans-Serif" font-size="10.00">string.h</text>
</a>
</g>
</g>
<!-- Node1&#45;&gt;Node5 -->
<g id="edge4" class="edge">
<title>Node1&#45;&gt;Node5</title>
<path fill="none" stroke="#63b8ff" d="M200.47,-384.84C205.29,-376.78 211.37,-366.62 216.5,-358.06"/>
<polygon fill="#63b8ff" stroke="#63b8ff" points="219.62,-359.64 221.76,-349.27 213.62,-356.05 219.62,-359.64"/>
</g>
<!-- Node6 -->
<g id="node6" class="node">
<title>Node6</title>
<g id="a_node6"><a xlink:title=" ">
<polygon fill="#e0e0e0" stroke="#999999" points="326,-349 272,-349 272,-330 326,-330 326,-349"/>
<text text-anchor="middle" x="299" y="-337" font-family="Helvetica,sans-Serif" font-size="10.00">wchar.h</text>
</a>
</g>
</g>
<!-- Node1&#45;&gt;Node6 -->
<g id="edge5" class="edge">
<title>Node1&#45;&gt;Node6</title>
<path fill="none" stroke="#63b8ff" d="M217.63,-384.99C234.84,-375.58 257.4,-363.24 274.4,-353.95"/>
<polygon fill="#63b8ff" stroke="#63b8ff" points="276.1,-357.01 283.2,-349.14 272.75,-350.87 276.1,-357.01"/>
</g>
<!-- Node7 -->
<g id="node7" class="node">
<title>Node7</title>
<g id="a_node7"><a xlink:href="../../db/d30/FMC__encodings_8h.html" target="_top" xlink:title=" ">
<polygon fill="white" stroke="#666666" points="463,-349 361,-349 361,-330 463,-330 463,-349"/>
<text text-anchor="middle" x="412" y="-337" font-family="Helvetica,sans-Serif" font-size="10.00">FMC_encodings.h</text>
</a>
</g>
</g>
<!-- Node1&#45;&gt;Node7 -->
<g id="edge6" class="edge">
<title>Node1&#45;&gt;Node7</title>
<path fill="none" stroke="#63b8ff" d="M244.7,-384.99C282.99,-374.8 334.14,-361.2 369.77,-351.73"/>
<polygon fill="#63b8ff" stroke="#63b8ff" points="371.07,-355.01 379.83,-349.05 369.27,-348.24 371.07,-355.01"/>
</g>
<!-- Node8 -->
<g id="node8" class="node">
<title>Node8</title>
<g id="a_node8"><a xlink:href="../../d9/de1/FMC__general_8h.html" target="_top" xlink:title=" ">
<polygon fill="white" stroke="#666666" points="494.5,-294 347.5,-294 347.5,-275 494.5,-275 494.5,-294"/>
<text text-anchor="middle" x="421" y="-282" font-family="Helvetica,sans-Serif" font-size="10.00">../../general/FMC_general.h</text>
</a>
</g>
</g>
<!-- Node7&#45;&gt;Node8 -->
<g id="edge7" class="edge">
<title>Node7&#45;&gt;Node8</title>
<path fill="none" stroke="#63b8ff" d="M413.49,-329.75C414.67,-322.8 416.36,-312.85 417.84,-304.13"/>
<polygon fill="#63b8ff" stroke="#63b8ff" points="421.32,-304.53 419.54,-294.09 414.42,-303.36 421.32,-304.53"/>
</g>
<!-- Node9 -->
<g id="node9" class="node">
<title>Node9</title>
<g id="a_node9"><a xlink:href="../../d0/d28/FMC__macros_8h.html" target="_top" xlink:title=" ">
<polygon fill="white" stroke="#666666" points="514.5,-129 359.5,-129 359.5,-110 514.5,-110 514.5,-129"/>
<text text-anchor="middle" x="437" y="-117" font-family="Helvetica,sans-Serif" font-size="10.00">preprocessor/FMC_macros.h</text>
</a>
</g>
</g>
<!-- Node8&#45;&gt;Node9 -->
<g id="edge8" class="edge">
<title>Node8&#45;&gt;Node9</title>
<path fill="none" stroke="#63b8ff" d="M494.67,-279.57C555.75,-274.58 635.74,-263.46 656,-239 704.4,-180.58 583.52,-146.57 502.71,-130.95"/>
<polygon fill="#63b8ff" stroke="#63b8ff" points="503.05,-127.46 492.58,-129.05 501.76,-134.34 503.05,-127.46"/>
</g>
<!-- Node10 -->
<g id="node10" class="node">
<title>Node10</title>
<g id="a_node10"><a xlink:href="../../d7/dff/FMC__platform_8h.html" target="_top" xlink:title=" ">
<polygon fill="white" stroke="#666666" points="562.5,-19 467.5,-19 467.5,0 562.5,0 562.5,-19"/>
<text text-anchor="middle" x="515" y="-7" font-family="Helvetica,sans-Serif" font-size="10.00">FMC_platform.h</text>
</a>
</g>
</g>
<!-- Node8&#45;&gt;Node10 -->
<g id="edge13" class="edge">
<title>Node8&#45;&gt;Node10</title>
<path fill="none" stroke="#63b8ff" d="M494.7,-282.54C547.4,-279.08 618.51,-268.58 674,-239 708.53,-220.59 735,-214.63 735,-175.5 735,-175.5 735,-175.5 735,-118.5 735,-46.21 638.09,-22.3 572.91,-14.4"/>
<polygon fill="#63b8ff" stroke="#63b8ff" points="573.06,-10.9 562.74,-13.26 572.29,-17.85 573.06,-10.9"/>
</g>
<!-- Node12 -->
<g id="node12" class="node">
<title>Node12</title>
<g id="a_node12"><a xlink:href="../../da/dd3/FMC__consts_8h.html" target="_top" xlink:title=" ">
<polygon fill="white" stroke="#666666" points="256,-184 106,-184 106,-165 256,-165 256,-184"/>
<text text-anchor="middle" x="181" y="-172" font-family="Helvetica,sans-Serif" font-size="10.00">preprocessor/FMC_consts.h</text>
</a>
</g>
</g>
<!-- Node8&#45;&gt;Node12 -->
<g id="edge14" class="edge">
<title>Node8&#45;&gt;Node12</title>
<path fill="none" stroke="#63b8ff" d="M347.31,-280.11C283.87,-275.46 199.28,-264.53 178,-239 167.64,-226.57 170.13,-207.55 174.15,-193.56"/>
<polygon fill="#63b8ff" stroke="#63b8ff" points="177.48,-194.64 177.34,-184.04 170.84,-192.41 177.48,-194.64"/>
</g>
<!-- Node13 -->
<g id="node13" class="node">
<title>Node13</title>
<g id="a_node13"><a xlink:href="../../d5/de5/FMC__structs_8h.html" target="_top" xlink:title=" ">
<polygon fill="white" stroke="#666666" points="303,-239 187,-239 187,-220 303,-220 303,-239"/>
<text text-anchor="middle" x="245" y="-227" font-family="Helvetica,sans-Serif" font-size="10.00">types/FMC_structs.h</text>
</a>
</g>
</g>
<!-- Node8&#45;&gt;Node13 -->
<g id="edge15" class="edge">
<title>Node8&#45;&gt;Node13</title>
<path fill="none" stroke="#63b8ff" d="M392.72,-274.98C363.05,-266.05 316.21,-251.94 283.25,-242.02"/>
<polygon fill="#63b8ff" stroke="#63b8ff" points="284.08,-238.61 273.5,-239.08 282.07,-245.32 284.08,-238.61"/>
</g>
<!-- Node14 -->
<g id="node14" class="node">
<title>Node14</title>
<g id="a_node14"><a xlink:href="../../d6/d25/FMC__enums_8h.html" target="_top" xlink:title=" ">
<polygon fill="white" stroke="#666666" points="398,-184 312,-184 312,-165 398,-165 398,-184"/>
<text text-anchor="middle" x="355" y="-172" font-family="Helvetica,sans-Serif" font-size="10.00">FMC_enums.h</text>
</a>
</g>
</g>
<!-- Node8&#45;&gt;Node14 -->
<g id="edge25" class="edge">
<title>Node8&#45;&gt;Node14</title>
<path fill="none" stroke="#63b8ff" d="M395.49,-274.9C379.31,-267.96 359.65,-256.44 350,-239 342.47,-225.39 344.72,-207.57 348.28,-194.28"/>
<polygon fill="#63b8ff" stroke="#63b8ff" points="351.74,-194.95 351.39,-184.36 345.06,-192.86 351.74,-194.95"/>
</g>
<!-- Node15 -->
<g id="node15" class="node">
<title>Node15</title>
<g id="a_node15"><a xlink:href="../../df/df8/FMC__typedefs_8h.html" target="_top" xlink:title=" ">
<polygon fill="white" stroke="#666666" points="566.5,-184 471.5,-184 471.5,-165 566.5,-165 566.5,-184"/>
<text text-anchor="middle" x="519" y="-172" font-family="Helvetica,sans-Serif" font-size="10.00">FMC_typedefs.h</text>
</a>
</g>
</g>
<!-- Node8&#45;&gt;Node15 -->
<g id="edge24" class="edge">
<title>Node8&#45;&gt;Node15</title>
<path fill="none" stroke="#63b8ff" d="M494.78,-278.35C551,-272.71 621.77,-261.31 640,-239 662.38,-211.62 617.68,-194.6 576.43,-185.15"/>
<polygon fill="#63b8ff" stroke="#63b8ff" points="577.12,-181.72 566.61,-183.03 575.64,-188.56 577.12,-181.72"/>
</g>
<!-- Node16 -->
<g id="node16" class="node">
<title>Node16</title>
<g id="a_node16"><a xlink:href="../../d2/d5e/FMC__flags_8h.html" target="_top" xlink:title=" ">
<polygon fill="white" stroke="#666666" points="501,-239 359,-239 359,-220 501,-220 501,-239"/>
<text text-anchor="middle" x="430" y="-227" font-family="Helvetica,sans-Serif" font-size="10.00">preprocessor/FMC_flags.h</text>
</a>
</g>
</g>
<!-- Node8&#45;&gt;Node16 -->
<g id="edge23" class="edge">
<title>Node8&#45;&gt;Node16</title>
<path fill="none" stroke="#63b8ff" d="M422.49,-274.75C423.67,-267.8 425.36,-257.85 426.84,-249.13"/>
<polygon fill="#63b8ff" stroke="#63b8ff" points="430.32,-249.53 428.54,-239.09 423.42,-248.36 430.32,-249.53"/>
</g>
<!-- Node17 -->
<g id="node17" class="node">
<title>Node17</title>
<g id="a_node17"><a xlink:href="../../dd/ddf/FMC__errors_8h.html" target="_top" xlink:title=" ">
<polygon fill="white" stroke="#666666" points="130.5,-239 25.5,-239 25.5,-220 130.5,-220 130.5,-239"/>
<text text-anchor="middle" x="78" y="-227" font-family="Helvetica,sans-Serif" font-size="10.00">utils/FMC_errors.h</text>
</a>
</g>
</g>
<!-- Node8&#45;&gt;Node17 -->
<g id="edge26" class="edge">
<title>Node8&#45;&gt;Node17</title>
<path fill="none" stroke="#63b8ff" d="M365.89,-274.98C304.41,-265.49 205.16,-250.15 140.75,-240.2"/>
<polygon fill="#63b8ff" stroke="#63b8ff" points="141.14,-236.71 130.72,-238.65 140.07,-243.63 141.14,-236.71"/>
</g>
<!-- Node18 -->
<g id="node18" class="node">
<title>Node18</title>
<g id="a_node18"><a xlink:href="../../de/d86/FMC__globals_8h.html" target="_top" xlink:title=" ">
<polygon fill="white" stroke="#666666" points="631,-239 519,-239 519,-220 631,-220 631,-239"/>
<text text-anchor="middle" x="575" y="-227" font-family="Helvetica,sans-Serif" font-size="10.00">utils/FMC_globals.h</text>
</a>
</g>
</g>
<!-- Node8&#45;&gt;Node18 -->
<g id="edge30" class="edge">
<title>Node8&#45;&gt;Node18</title>
<path fill="none" stroke="#63b8ff" d="M445.74,-274.98C471.37,-266.16 511.63,-252.31 540.41,-242.41"/>
<polygon fill="#63b8ff" stroke="#63b8ff" points="541.75,-245.65 550.06,-239.08 539.47,-239.03 541.75,-245.65"/>
</g>
<!-- Node9&#45;&gt;Node10 -->
<g id="edge9" class="edge">
<title>Node9&#45;&gt;Node10</title>
<path fill="none" stroke="#63b8ff" d="M453.59,-109.9C466.89,-102.19 485.09,-89.69 496,-74 505.34,-60.57 510.17,-42.47 512.61,-29.03"/>
<polygon fill="#63b8ff" stroke="#63b8ff" points="516.09,-29.46 514.15,-19.04 509.17,-28.39 516.09,-29.46"/>
</g>
<!-- Node11 -->
<g id="node11" class="node">
<title>Node11</title>
<g id="a_node11"><a xlink:href="../../d1/d2e/FMC__attributes_8h.html" target="_top" xlink:title=" ">
<polygon fill="white" stroke="#666666" points="487,-74 387,-74 387,-55 487,-55 487,-74"/>
<text text-anchor="middle" x="437" y="-62" font-family="Helvetica,sans-Serif" font-size="10.00">FMC_attributes.h</text>
</a>
</g>
</g>
<!-- Node9&#45;&gt;Node11 -->
<g id="edge10" class="edge">
<title>Node9&#45;&gt;Node11</title>
<path fill="none" stroke="#63b8ff" d="M431.83,-109.75C430.34,-102.8 429.9,-92.85 430.52,-84.13"/>
<polygon fill="#63b8ff" stroke="#63b8ff" points="434.01,-84.47 431.87,-74.09 427.07,-83.53 434.01,-84.47"/>
</g>
<!-- Node11&#45;&gt;Node9 -->
<g id="edge12" class="edge">
<title>Node11&#45;&gt;Node9</title>
<path fill="none" stroke="#63b8ff" d="M442.13,-74.09C443.64,-80.99 444.09,-90.93 443.49,-99.66"/>
<polygon fill="#63b8ff" stroke="#63b8ff" points="440,-99.38 442.17,-109.75 446.94,-100.29 440,-99.38"/>
</g>
<!-- Node11&#45;&gt;Node10 -->
<g id="edge11" class="edge">
<title>Node11&#45;&gt;Node10</title>
<path fill="none" stroke="#63b8ff" d="M449.53,-54.98C461.4,-46.92 479.46,-34.65 493.61,-25.03"/>
<polygon fill="#63b8ff" stroke="#63b8ff" points="495.94,-27.69 502.24,-19.17 492,-21.9 495.94,-27.69"/>
</g>
<!-- Node13&#45;&gt;Node2 -->
<g id="edge16" class="edge">
<title>Node13&#45;&gt;Node2</title>
<path fill="none" stroke="#63b8ff" d="M209.65,-219.98C168.56,-210.08 101.15,-193.84 60.14,-183.97"/>
<polygon fill="#63b8ff" stroke="#63b8ff" points="60.86,-180.54 50.32,-181.6 59.22,-187.34 60.86,-180.54"/>
</g>
<!-- Node13&#45;&gt;Node9 -->
<g id="edge18" class="edge">
<title>Node13&#45;&gt;Node9</title>
<path fill="none" stroke="#63b8ff" d="M250.71,-219.81C260.07,-206.22 279.95,-179.96 303,-165 327.33,-149.21 357.78,-138.52 383.51,-131.57"/>
<polygon fill="#63b8ff" stroke="#63b8ff" points="384.67,-134.89 393.48,-129 382.92,-128.11 384.67,-134.89"/>
</g>
<!-- Node13&#45;&gt;Node12 -->
<g id="edge17" class="edge">
<title>Node13&#45;&gt;Node12</title>
<path fill="none" stroke="#63b8ff" d="M234.72,-219.98C225.16,-212.07 210.72,-200.11 199.22,-190.58"/>
<polygon fill="#63b8ff" stroke="#63b8ff" points="201.4,-187.85 191.47,-184.17 196.94,-193.24 201.4,-187.85"/>
</g>
<!-- Node13&#45;&gt;Node14 -->
<g id="edge19" class="edge">
<title>Node13&#45;&gt;Node14</title>
<path fill="none" stroke="#63b8ff" d="M262.67,-219.98C280.29,-211.5 307.58,-198.35 327.93,-188.54"/>
<polygon fill="#63b8ff" stroke="#63b8ff" points="329.52,-191.66 337.01,-184.17 326.48,-185.36 329.52,-191.66"/>
</g>
<!-- Node13&#45;&gt;Node15 -->
<g id="edge21" class="edge">
<title>Node13&#45;&gt;Node15</title>
<path fill="none" stroke="#63b8ff" d="M289.02,-219.98C336.82,-210.74 413.2,-195.97 464.68,-186.01"/>
<polygon fill="#63b8ff" stroke="#63b8ff" points="465.48,-189.42 474.63,-184.08 464.15,-182.54 465.48,-189.42"/>
</g>
<!-- Node14&#45;&gt;Node9 -->
<g id="edge20" class="edge">
<title>Node14&#45;&gt;Node9</title>
<path fill="none" stroke="#63b8ff" d="M368.17,-164.98C380.77,-156.84 400,-144.41 414.94,-134.76"/>
<polygon fill="#63b8ff" stroke="#63b8ff" points="417.09,-137.54 423.59,-129.17 413.29,-131.66 417.09,-137.54"/>
</g>
<!-- Node15&#45;&gt;Node9 -->
<g id="edge22" class="edge">
<title>Node15&#45;&gt;Node9</title>
<path fill="none" stroke="#63b8ff" d="M505.83,-164.98C493.23,-156.84 474,-144.41 459.06,-134.76"/>
<polygon fill="#63b8ff" stroke="#63b8ff" points="460.71,-131.66 450.41,-129.17 456.91,-137.54 460.71,-131.66"/>
</g>
<!-- Node17&#45;&gt;Node2 -->
<g id="edge27" class="edge">
<title>Node17&#45;&gt;Node2</title>
<path fill="none" stroke="#63b8ff" d="M69.25,-219.75C61.53,-212.03 50.1,-200.6 40.78,-191.28"/>
<polygon fill="#63b8ff" stroke="#63b8ff" points="43.14,-188.69 33.59,-184.09 38.19,-193.64 43.14,-188.69"/>
</g>
<!-- Node17&#45;&gt;Node9 -->
<g id="edge29" class="edge">
<title>Node17&#45;&gt;Node9</title>
<path fill="none" stroke="#63b8ff" d="M77.83,-219.96C78.06,-206.11 80.7,-178.87 97,-165 133.85,-133.64 261,-124.16 348.91,-121.42"/>
<polygon fill="#63b8ff" stroke="#63b8ff" points="349.26,-124.92 359.16,-121.13 349.06,-117.92 349.26,-124.92"/>
</g>
<!-- Node17&#45;&gt;Node12 -->
<g id="edge28" class="edge">
<title>Node17&#45;&gt;Node12</title>
<path fill="none" stroke="#63b8ff" d="M94.55,-219.98C110.89,-211.57 136.13,-198.59 155.13,-188.81"/>
<polygon fill="#63b8ff" stroke="#63b8ff" points="156.86,-191.86 164.15,-184.17 153.66,-185.63 156.86,-191.86"/>
</g>
<!-- Node18&#45;&gt;Node15 -->
<g id="edge31" class="edge">
<title>Node18&#45;&gt;Node15</title>
<path fill="none" stroke="#63b8ff" d="M566,-219.98C557.81,-212.23 545.49,-200.58 535.53,-191.14"/>
<polygon fill="#63b8ff" stroke="#63b8ff" points="537.83,-188.5 528.16,-184.17 533.02,-193.59 537.83,-188.5"/>
</g>
</g>
</svg>
