<?xml version="1.0" encoding="UTF-8" standalone="no"?>
<!DOCTYPE svg PUBLIC "-//W3C//DTD SVG 1.1//EN"
 "http://www.w3.org/Graphics/SVG/1.1/DTD/svg11.dtd">
<!-- Generated by graphviz version 2.43.0 (0)
 -->
<!-- Title: src/data_analyze/encodings/FMC_encodings.c Pages: 1 -->
<!--zoomable 368 -->
<svg id="main" version="1.1" xmlns="http://www.w3.org/2000/svg" xmlns:xlink="http://www.w3.org/1999/xlink" xml:space="preserve" onload="init(evt)">
<style type="text/css"><![CDATA[
.edge:hover path { stroke: red; }
.edge:hover polygon { stroke: red; fill: red; }
]]></style>
<script type="text/javascript"><![CDATA[
var edges = document.getElementsByTagName('g');
if (edges && edges.length) {
  for (var i=0;i<edges.length;i++) {
    if (edges[i].id.substr(0,4)=='edge') {
      edges[i].setAttribute('class','edge');
    }
  }
}
]]></script>
        <defs>
                <circle id="rim" cx="0" cy="0" r="7"/>
                <circle id="rim2" cx="0" cy="0" r="3.5"/>
                <g id="zoomPlus">
                        <use xlink:href="#rim" fill="#404040">
                                <set attributeName="fill" to="#808080" begin="zoomplus.mouseover" end="zoomplus.mouseout"/>
                        </use>
                        <path d="M-4,0h8M0,-4v8" fill="none" stroke="white" stroke-width="1.5" pointer-events="none"/>
                </g>
                <g id="zoomMin">
                        <use xlink:href="#rim" fill="#404040">
                                <set attributeName="fill" to="#808080" begin="zoomminus.mouseover" end="zoomminus.mouseout"/>
                        </use>
                        <path d="M-4,0h8" fill="none" stroke="white" stroke-width="1.5" pointer-events="none"/>
                </g>
                <g id="dirArrow">
                        <path fill="none" stroke="white" stroke-width="1.5" d="M0,-3.0v7 M-2.5,-0.5L0,-3.0L2.5,-0.5"/>
                </g>
               <g id="resetDef">
                       <use xlink:href="#rim2" fill="#404040">
                               <set attributeName="fill" to="#808080" begin="reset.mouseover" end="reset.mouseout"/>
                       </use>
               </g>
        </defs>

<script type="text/javascript">
var viewWidth = 700;
var viewHeight = 368;
var sectionId = 'dynsection-0';
</script>
<script xlink:href="../../svgpan.js"/>
<svg id="graph" class="graph">
<g id="viewport">
<title>src/data_analyze/encodings/FMC_encodings.c</title>
<!-- Node1 -->
<g id="node1" class="node">
<title>Node1</title>
<g id="a_node1"><a xlink:title=" ">
<polygon fill="#999999" stroke="#666666" points="270.48,-360 118.48,-360 118.48,-330 270.48,-330 270.48,-360"/>
<text text-anchor="start" x="126.48" y="-348" font-family="Helvetica,sans-Serif" font-size="10.00">src/data_analyze/encodings</text>
<text text-anchor="middle" x="194.48" y="-337" font-family="Helvetica,sans-Serif" font-size="10.00">/FMC_encodings.c</text>
</a>
</g>
</g>
<!-- Node2 -->
<g id="node2" class="node">
<title>Node2</title>
<g id="a_node2"><a xlink:title=" ">
<polygon fill="#e0e0e0" stroke="#999999" points="53.48,-129 3.48,-129 3.48,-110 53.48,-110 53.48,-129"/>
<text text-anchor="middle" x="28.48" y="-117" font-family="Helvetica,sans-Serif" font-size="10.00">stdio.h</text>
</a>
</g>
</g>
<!-- Node1&#45;&gt;Node2 -->
<g id="edge1" class="edge">
<title>Node1&#45;&gt;Node2</title>
<path fill="none" stroke="#63b8ff" d="M118.06,-331.66C76.46,-323.21 30.97,-310.54 18.48,-294 -16.48,-247.73 6.69,-173.14 20.41,-138.84"/>
<polygon fill="#63b8ff" stroke="#63b8ff" points="23.81,-139.78 24.44,-129.2 17.35,-137.07 23.81,-139.78"/>
</g>
<!-- Node3 -->
<g id="node3" class="node">
<title>Node3</title>
<g id="a_node3"><a xlink:title=" ">
<polygon fill="#e0e0e0" stroke="#999999" points="80.98,-294 27.98,-294 27.98,-275 80.98,-275 80.98,-294"/>
<text text-anchor="middle" x="54.48" y="-282" font-family="Helvetica,sans-Serif" font-size="10.00">stdlib.h</text>
</a>
</g>
</g>
<!-- Node1&#45;&gt;Node3 -->
<g id="edge2" class="edge">
<title>Node1&#45;&gt;Node3</title>
<path fill="none" stroke="#63b8ff" d="M160.94,-329.99C137.69,-320.27 106.99,-307.44 84.53,-298.06"/>
<polygon fill="#63b8ff" stroke="#63b8ff" points="85.73,-294.77 75.15,-294.14 83.03,-301.22 85.73,-294.77"/>
</g>
<!-- Node4 -->
<g id="node4" class="node">
<title>Node4</title>
<g id="a_node4"><a xlink:title=" ">
<polygon fill="#e0e0e0" stroke="#999999" points="149.98,-294 98.98,-294 98.98,-275 149.98,-275 149.98,-294"/>
<text text-anchor="middle" x="124.48" y="-282" font-family="Helvetica,sans-Serif" font-size="10.00">errno.h</text>
</a>
</g>
</g>
<!-- Node1&#45;&gt;Node4 -->
<g id="edge3" class="edge">
<title>Node1&#45;&gt;Node4</title>
<path fill="none" stroke="#63b8ff" d="M177.53,-329.84C167.06,-321.09 153.62,-309.85 142.88,-300.88"/>
<polygon fill="#63b8ff" stroke="#63b8ff" points="144.88,-297.99 134.96,-294.27 140.39,-303.36 144.88,-297.99"/>
</g>
<!-- Node5 -->
<g id="node5" class="node">
<title>Node5</title>
<g id="a_node5"><a xlink:title=" ">
<polygon fill="#e0e0e0" stroke="#999999" points="220.98,-294 167.98,-294 167.98,-275 220.98,-275 220.98,-294"/>
<text text-anchor="middle" x="194.48" y="-282" font-family="Helvetica,sans-Serif" font-size="10.00">string.h</text>
</a>
</g>
</g>
<!-- Node1&#45;&gt;Node5 -->
<g id="edge4" class="edge">
<title>Node1&#45;&gt;Node5</title>
<path fill="none" stroke="#63b8ff" d="M194.48,-329.84C194.48,-322.21 194.48,-312.7 194.48,-304.45"/>
<polygon fill="#63b8ff" stroke="#63b8ff" points="197.98,-304.27 194.48,-294.27 190.98,-304.27 197.98,-304.27"/>
</g>
<!-- Node6 -->
<g id="node6" class="node">
<title>Node6</title>
<g id="a_node6"><a xlink:title=" ">
<polygon fill="#e0e0e0" stroke="#999999" points="293.48,-294 239.48,-294 239.48,-275 293.48,-275 293.48,-294"/>
<text text-anchor="middle" x="266.48" y="-282" font-family="Helvetica,sans-Serif" font-size="10.00">wchar.h</text>
</a>
</g>
</g>
<!-- Node1&#45;&gt;Node6 -->
<g id="edge5" class="edge">
<title>Node1&#45;&gt;Node6</title>
<path fill="none" stroke="#63b8ff" d="M211.9,-329.84C222.78,-321 236.78,-309.63 247.87,-300.62"/>
<polygon fill="#63b8ff" stroke="#63b8ff" points="250.13,-303.29 255.69,-294.27 245.72,-297.86 250.13,-303.29"/>
</g>
<!-- Node7 -->
<g id="node7" class="node">
<title>Node7</title>
<g id="a_node7"><a xlink:title=" ">
<polygon fill="#e0e0e0" stroke="#999999" points="364.98,-294 311.98,-294 311.98,-275 364.98,-275 364.98,-294"/>
<text text-anchor="middle" x="338.48" y="-282" font-family="Helvetica,sans-Serif" font-size="10.00">stdint.h</text>
</a>
</g>
</g>
<!-- Node1&#45;&gt;Node7 -->
<g id="edge6" class="edge">
<title>Node1&#45;&gt;Node7</title>
<path fill="none" stroke="#63b8ff" d="M228.97,-329.99C252.99,-320.23 284.75,-307.33 307.87,-297.93"/>
<polygon fill="#63b8ff" stroke="#63b8ff" points="309.26,-301.15 317.21,-294.14 306.63,-294.66 309.26,-301.15"/>
</g>
<!-- Node8 -->
<g id="node8" class="node">
<title>Node8</title>
<g id="a_node8"><a xlink:href="../../db/d30/FMC__encodings_8h.html" target="_top" xlink:title=" ">
<polygon fill="white" stroke="#666666" points="485.48,-294 383.48,-294 383.48,-275 485.48,-275 485.48,-294"/>
<text text-anchor="middle" x="434.48" y="-282" font-family="Helvetica,sans-Serif" font-size="10.00">FMC_encodings.h</text>
</a>
</g>
</g>
<!-- Node1&#45;&gt;Node8 -->
<g id="edge7" class="edge">
<title>Node1&#45;&gt;Node8</title>
<path fill="none" stroke="#63b8ff" d="M251.96,-329.99C294.1,-319.72 350.5,-305.97 389.4,-296.49"/>
<polygon fill="#63b8ff" stroke="#63b8ff" points="390.5,-299.82 399.38,-294.05 388.84,-293.02 390.5,-299.82"/>
</g>
<!-- Node9 -->
<g id="node9" class="node">
<title>Node9</title>
<g id="a_node9"><a xlink:href="../../d9/de1/FMC__general_8h.html" target="_top" xlink:title=" ">
<polygon fill="white" stroke="#666666" points="506.98,-239 359.98,-239 359.98,-220 506.98,-220 506.98,-239"/>
<text text-anchor="middle" x="433.48" y="-227" font-family="Helvetica,sans-Serif" font-size="10.00">../../general/FMC_general.h</text>
</a>
</g>
</g>
<!-- Node8&#45;&gt;Node9 -->
<g id="edge8" class="edge">
<title>Node8&#45;&gt;Node9</title>
<path fill="none" stroke="#63b8ff" d="M434.31,-274.75C434.18,-267.8 433.99,-257.85 433.83,-249.13"/>
<polygon fill="#63b8ff" stroke="#63b8ff" points="437.33,-249.02 433.64,-239.09 430.33,-249.15 437.33,-249.02"/>
</g>
<!-- Node10 -->
<g id="node10" class="node">
<title>Node10</title>
<g id="a_node10"><a xlink:href="../../d0/d28/FMC__macros_8h.html" target="_top" xlink:title=" ">
<polygon fill="white" stroke="#666666" points="489.98,-74 334.98,-74 334.98,-55 489.98,-55 489.98,-74"/>
<text text-anchor="middle" x="412.48" y="-62" font-family="Helvetica,sans-Serif" font-size="10.00">preprocessor/FMC_macros.h</text>
</a>
</g>
</g>
<!-- Node9&#45;&gt;Node10 -->
<g id="edge9" class="edge">
<title>Node9&#45;&gt;Node10</title>
<path fill="none" stroke="#63b8ff" d="M506.99,-224C565.69,-218.69 641.21,-207.41 660.48,-184 665.84,-177.48 664.45,-172.45 660.48,-165 629.88,-107.64 558.46,-83.26 500.08,-72.94"/>
<polygon fill="#63b8ff" stroke="#63b8ff" points="500.53,-69.47 490.09,-71.29 499.39,-76.38 500.53,-69.47"/>
</g>
<!-- Node11 -->
<g id="node11" class="node">
<title>Node11</title>
<g id="a_node11"><a xlink:href="../../d7/dff/FMC__platform_8h.html" target="_top" xlink:title=" ">
<polygon fill="white" stroke="#666666" points="680.98,-19 585.98,-19 585.98,0 680.98,0 680.98,-19"/>
<text text-anchor="middle" x="633.48" y="-7" font-family="Helvetica,sans-Serif" font-size="10.00">FMC_platform.h</text>
</a>
</g>
</g>
<!-- Node9&#45;&gt;Node11 -->
<g id="edge13" class="edge">
<title>Node9&#45;&gt;Node11</title>
<path fill="none" stroke="#63b8ff" d="M507.16,-225.11C570.6,-220.46 655.19,-209.53 676.48,-184 715.16,-137.59 670.13,-61.42 646.35,-27.6"/>
<polygon fill="#63b8ff" stroke="#63b8ff" points="648.99,-25.28 640.29,-19.24 643.33,-29.39 648.99,-25.28"/>
</g>
<!-- Node13 -->
<g id="node13" class="node">
<title>Node13</title>
<g id="a_node13"><a xlink:href="../../da/dd3/FMC__consts_8h.html" target="_top" xlink:title=" ">
<polygon fill="white" stroke="#666666" points="259.48,-129 109.48,-129 109.48,-110 259.48,-110 259.48,-129"/>
<text text-anchor="middle" x="184.48" y="-117" font-family="Helvetica,sans-Serif" font-size="10.00">preprocessor/FMC_consts.h</text>
</a>
</g>
</g>
<!-- Node9&#45;&gt;Node13 -->
<g id="edge14" class="edge">
<title>Node9&#45;&gt;Node13</title>
<path fill="none" stroke="#63b8ff" d="M359.93,-225.69C293.88,-221.44 203.93,-210.76 181.48,-184 171.08,-171.6 173.57,-152.58 177.61,-138.58"/>
<polygon fill="#63b8ff" stroke="#63b8ff" points="180.94,-139.65 180.8,-129.05 174.3,-137.42 180.94,-139.65"/>
</g>
<!-- Node14 -->
<g id="node14" class="node">
<title>Node14</title>
<g id="a_node14"><a xlink:href="../../d5/de5/FMC__structs_8h.html" target="_top" xlink:title=" ">
<polygon fill="white" stroke="#666666" points="306.48,-184 190.48,-184 190.48,-165 306.48,-165 306.48,-184"/>
<text text-anchor="middle" x="248.48" y="-172" font-family="Helvetica,sans-Serif" font-size="10.00">types/FMC_structs.h</text>
</a>
</g>
</g>
<!-- Node9&#45;&gt;Node14 -->
<g id="edge15" class="edge">
<title>Node9&#45;&gt;Node14</title>
<path fill="none" stroke="#63b8ff" d="M403.75,-219.98C372.42,-211.01 322.9,-196.82 288.23,-186.89"/>
<polygon fill="#63b8ff" stroke="#63b8ff" points="289.01,-183.47 278.43,-184.08 287.08,-190.2 289.01,-183.47"/>
</g>
<!-- Node15 -->
<g id="node15" class="node">
<title>Node15</title>
<g id="a_node15"><a xlink:href="../../d6/d25/FMC__enums_8h.html" target="_top" xlink:title=" ">
<polygon fill="white" stroke="#666666" points="401.48,-129 315.48,-129 315.48,-110 401.48,-110 401.48,-129"/>
<text text-anchor="middle" x="358.48" y="-117" font-family="Helvetica,sans-Serif" font-size="10.00">FMC_enums.h</text>
</a>
</g>
</g>
<!-- Node9&#45;&gt;Node15 -->
<g id="edge25" class="edge">
<title>Node9&#45;&gt;Node15</title>
<path fill="none" stroke="#63b8ff" d="M402.43,-219.87C384.73,-213.18 364.03,-201.95 353.48,-184 345.43,-170.31 347.98,-152 351.78,-138.56"/>
<polygon fill="#63b8ff" stroke="#63b8ff" points="355.12,-139.59 354.91,-129 348.47,-137.41 355.12,-139.59"/>
</g>
<!-- Node16 -->
<g id="node16" class="node">
<title>Node16</title>
<g id="a_node16"><a xlink:href="../../df/df8/FMC__typedefs_8h.html" target="_top" xlink:title=" ">
<polygon fill="white" stroke="#666666" points="569.98,-129 474.98,-129 474.98,-110 569.98,-110 569.98,-129"/>
<text text-anchor="middle" x="522.48" y="-117" font-family="Helvetica,sans-Serif" font-size="10.00">FMC_typedefs.h</text>
</a>
</g>
</g>
<!-- Node9&#45;&gt;Node16 -->
<g id="edge24" class="edge">
<title>Node9&#45;&gt;Node16</title>
<path fill="none" stroke="#63b8ff" d="M506.99,-222.62C560.45,-216.64 626.35,-205.14 643.48,-184 665.74,-156.53 621.06,-139.52 579.84,-130.1"/>
<polygon fill="#63b8ff" stroke="#63b8ff" points="580.55,-126.67 570.03,-127.98 579.07,-133.52 580.55,-126.67"/>
</g>
<!-- Node17 -->
<g id="node17" class="node">
<title>Node17</title>
<g id="a_node17"><a xlink:href="../../d2/d5e/FMC__flags_8h.html" target="_top" xlink:title=" ">
<polygon fill="white" stroke="#666666" points="504.48,-184 362.48,-184 362.48,-165 504.48,-165 504.48,-184"/>
<text text-anchor="middle" x="433.48" y="-172" font-family="Helvetica,sans-Serif" font-size="10.00">preprocessor/FMC_flags.h</text>
</a>
</g>
</g>
<!-- Node9&#45;&gt;Node17 -->
<g id="edge23" class="edge">
<title>Node9&#45;&gt;Node17</title>
<path fill="none" stroke="#63b8ff" d="M433.48,-219.75C433.48,-212.8 433.48,-202.85 433.48,-194.13"/>
<polygon fill="#63b8ff" stroke="#63b8ff" points="436.98,-194.09 433.48,-184.09 429.98,-194.09 436.98,-194.09"/>
</g>
<!-- Node18 -->
<g id="node18" class="node">
<title>Node18</title>
<g id="a_node18"><a xlink:href="../../dd/ddf/FMC__errors_8h.html" target="_top" xlink:title=" ">
<polygon fill="white" stroke="#666666" points="133.98,-184 28.98,-184 28.98,-165 133.98,-165 133.98,-184"/>
<text text-anchor="middle" x="81.48" y="-172" font-family="Helvetica,sans-Serif" font-size="10.00">utils/FMC_errors.h</text>
</a>
</g>
</g>
<!-- Node9&#45;&gt;Node18 -->
<g id="edge26" class="edge">
<title>Node9&#45;&gt;Node18</title>
<path fill="none" stroke="#63b8ff" d="M376.92,-219.98C313.37,-210.42 210.48,-194.92 144.42,-184.98"/>
<polygon fill="#63b8ff" stroke="#63b8ff" points="144.56,-181.46 134.15,-183.43 143.52,-188.38 144.56,-181.46"/>
</g>
<!-- Node19 -->
<g id="node19" class="node">
<title>Node19</title>
<g id="a_node19"><a xlink:href="../../de/d86/FMC__globals_8h.html" target="_top" xlink:title=" ">
<polygon fill="white" stroke="#666666" points="634.48,-184 522.48,-184 522.48,-165 634.48,-165 634.48,-184"/>
<text text-anchor="middle" x="578.48" y="-172" font-family="Helvetica,sans-Serif" font-size="10.00">utils/FMC_globals.h</text>
</a>
</g>
</g>
<!-- Node9&#45;&gt;Node19 -->
<g id="edge30" class="edge">
<title>Node9&#45;&gt;Node19</title>
<path fill="none" stroke="#63b8ff" d="M456.77,-219.98C480.73,-211.23 518.26,-197.51 545.31,-187.62"/>
<polygon fill="#63b8ff" stroke="#63b8ff" points="546.56,-190.89 554.75,-184.17 544.16,-184.32 546.56,-190.89"/>
</g>
<!-- Node10&#45;&gt;Node11 -->
<g id="edge10" class="edge">
<title>Node10&#45;&gt;Node11</title>
<path fill="none" stroke="#63b8ff" d="M447.98,-54.98C485.97,-45.87 546.34,-31.4 587.83,-21.45"/>
<polygon fill="#63b8ff" stroke="#63b8ff" points="588.78,-24.82 597.69,-19.08 587.15,-18.01 588.78,-24.82"/>
</g>
<!-- Node12 -->
<g id="node12" class="node">
<title>Node12</title>
<g id="a_node12"><a xlink:href="../../d1/d2e/FMC__attributes_8h.html" target="_top" xlink:title=" ">
<polygon fill="white" stroke="#666666" points="462.48,-19 362.48,-19 362.48,0 462.48,0 462.48,-19"/>
<text text-anchor="middle" x="412.48" y="-7" font-family="Helvetica,sans-Serif" font-size="10.00">FMC_attributes.h</text>
</a>
</g>
</g>
<!-- Node10&#45;&gt;Node12 -->
<g id="edge11" class="edge">
<title>Node10&#45;&gt;Node12</title>
<path fill="none" stroke="#63b8ff" d="M407.31,-54.75C405.82,-47.8 405.38,-37.85 406,-29.13"/>
<polygon fill="#63b8ff" stroke="#63b8ff" points="409.48,-29.47 407.34,-19.09 402.55,-28.53 409.48,-29.47"/>
</g>
<!-- Node12&#45;&gt;Node10 -->
<g id="edge12" class="edge">
<title>Node12&#45;&gt;Node10</title>
<path fill="none" stroke="#63b8ff" d="M417.61,-19.09C419.12,-25.99 419.57,-35.93 418.97,-44.66"/>
<polygon fill="#63b8ff" stroke="#63b8ff" points="415.48,-44.38 417.64,-54.75 422.42,-45.29 415.48,-44.38"/>
</g>
<!-- Node14&#45;&gt;Node2 -->
<g id="edge16" class="edge">
<title>Node14&#45;&gt;Node2</title>
<path fill="none" stroke="#63b8ff" d="M213.13,-164.98C172.03,-155.08 104.62,-138.84 63.62,-128.97"/>
<polygon fill="#63b8ff" stroke="#63b8ff" points="64.33,-125.54 53.79,-126.6 62.69,-132.34 64.33,-125.54"/>
</g>
<!-- Node14&#45;&gt;Node10 -->
<g id="edge18" class="edge">
<title>Node14&#45;&gt;Node10</title>
<path fill="none" stroke="#63b8ff" d="M254.65,-164.57C264.32,-151.15 284.27,-125.66 306.48,-110 326.75,-95.7 352.33,-84.8 373.28,-77.36"/>
<polygon fill="#63b8ff" stroke="#63b8ff" points="374.52,-80.64 382.85,-74.09 372.26,-74.02 374.52,-80.64"/>
</g>
<!-- Node14&#45;&gt;Node13 -->
<g id="edge17" class="edge">
<title>Node14&#45;&gt;Node13</title>
<path fill="none" stroke="#63b8ff" d="M238.19,-164.98C228.64,-157.07 214.2,-145.11 202.69,-135.58"/>
<polygon fill="#63b8ff" stroke="#63b8ff" points="204.88,-132.85 194.95,-129.17 200.41,-138.24 204.88,-132.85"/>
</g>
<!-- Node14&#45;&gt;Node15 -->
<g id="edge19" class="edge">
<title>Node14&#45;&gt;Node15</title>
<path fill="none" stroke="#63b8ff" d="M266.15,-164.98C283.76,-156.5 311.05,-143.35 331.4,-133.54"/>
<polygon fill="#63b8ff" stroke="#63b8ff" points="332.99,-136.66 340.48,-129.17 329.95,-130.36 332.99,-136.66"/>
</g>
<!-- Node14&#45;&gt;Node16 -->
<g id="edge21" class="edge">
<title>Node14&#45;&gt;Node16</title>
<path fill="none" stroke="#63b8ff" d="M292.5,-164.98C340.29,-155.74 416.67,-140.97 468.16,-131.01"/>
<polygon fill="#63b8ff" stroke="#63b8ff" points="468.95,-134.42 478.11,-129.08 467.62,-127.54 468.95,-134.42"/>
</g>
<!-- Node15&#45;&gt;Node10 -->
<g id="edge20" class="edge">
<title>Node15&#45;&gt;Node10</title>
<path fill="none" stroke="#63b8ff" d="M367.39,-109.75C375.26,-102.03 386.91,-90.6 396.39,-81.28"/>
<polygon fill="#63b8ff" stroke="#63b8ff" points="399.04,-83.59 403.72,-74.09 394.14,-78.6 399.04,-83.59"/>
</g>
<!-- Node16&#45;&gt;Node10 -->
<g id="edge22" class="edge">
<title>Node16&#45;&gt;Node10</title>
<path fill="none" stroke="#63b8ff" d="M504.8,-109.98C487.19,-101.5 459.9,-88.35 439.55,-78.54"/>
<polygon fill="#63b8ff" stroke="#63b8ff" points="441,-75.36 430.47,-74.17 437.96,-81.66 441,-75.36"/>
</g>
<!-- Node18&#45;&gt;Node2 -->
<g id="edge27" class="edge">
<title>Node18&#45;&gt;Node2</title>
<path fill="none" stroke="#63b8ff" d="M72.72,-164.75C65.01,-157.03 53.57,-145.6 44.26,-136.28"/>
<polygon fill="#63b8ff" stroke="#63b8ff" points="46.61,-133.69 37.06,-129.09 41.66,-138.64 46.61,-133.69"/>
</g>
<!-- Node18&#45;&gt;Node10 -->
<g id="edge29" class="edge">
<title>Node18&#45;&gt;Node10</title>
<path fill="none" stroke="#63b8ff" d="M81.32,-164.99C81.58,-151.16 84.26,-123.97 100.48,-110 133.23,-81.8 244.39,-71.46 324.7,-67.67"/>
<polygon fill="#63b8ff" stroke="#63b8ff" points="325,-71.16 334.83,-67.22 324.69,-64.17 325,-71.16"/>
</g>
<!-- Node18&#45;&gt;Node13 -->
<g id="edge28" class="edge">
<title>Node18&#45;&gt;Node13</title>
<path fill="none" stroke="#63b8ff" d="M98.02,-164.98C114.37,-156.57 139.61,-143.59 158.61,-133.81"/>
<polygon fill="#63b8ff" stroke="#63b8ff" points="160.34,-136.86 167.63,-129.17 157.13,-130.63 160.34,-136.86"/>
</g>
<!-- Node19&#45;&gt;Node16 -->
<g id="edge31" class="edge">
<title>Node19&#45;&gt;Node16</title>
<path fill="none" stroke="#63b8ff" d="M569.48,-164.98C561.28,-157.23 548.97,-145.58 539,-136.14"/>
<polygon fill="#63b8ff" stroke="#63b8ff" points="541.31,-133.5 531.64,-129.17 536.49,-138.59 541.31,-133.5"/>
</g>
</g>
</svg>
        <g id="navigator" transform="translate(0 0)" fill="#404254">
                <rect fill="#f2f5e9" fill-opacity="0.5" stroke="#606060" stroke-width=".5" x="0" y="0" width="60" height="60"/>
                <use id="zoomplus" xlink:href="#zoomPlus" x="17" y="9" onmousedown="handleZoom(evt,'in')"/>
                <use id="zoomminus" xlink:href="#zoomMin" x="42" y="9" onmousedown="handleZoom(evt,'out')"/>
                <use id="reset" xlink:href="#resetDef" x="30" y="36" onmousedown="handleReset()"/>
                <g id="arrowUp" xlink:href="#dirArrow" transform="translate(30 24)" onmousedown="handlePan(0,-1)">
                  <use xlink:href="#rim" fill="#404040">
                        <set attributeName="fill" to="#808080" begin="arrowUp.mouseover" end="arrowUp.mouseout"/>
                  </use>
                  <path fill="none" stroke="white" stroke-width="1.5" d="M0,-3.0v7 M-2.5,-0.5L0,-3.0L2.5,-0.5"/>
                </g>
                <g id="arrowRight" xlink:href="#dirArrow" transform="rotate(90) translate(36 -43)" onmousedown="handlePan(1,0)">
                  <use xlink:href="#rim" fill="#404040">
                        <set attributeName="fill" to="#808080" begin="arrowRight.mouseover" end="arrowRight.mouseout"/>
                  </use>
                  <path fill="none" stroke="white" stroke-width="1.5" d="M0,-3.0v7 M-2.5,-0.5L0,-3.0L2.5,-0.5"/>
                </g>
                <g id="arrowDown" xlink:href="#dirArrow" transform="rotate(180) translate(-30 -48)" onmousedown="handlePan(0,1)">
                  <use xlink:href="#rim" fill="#404040">
                        <set attributeName="fill" to="#808080" begin="arrowDown.mouseover" end="arrowDown.mouseout"/>
                  </use>
                  <path fill="none" stroke="white" stroke-width="1.5" d="M0,-3.0v7 M-2.5,-0.5L0,-3.0L2.5,-0.5"/>
                </g>
                <g id="arrowLeft" xlink:href="#dirArrow" transform="rotate(270) translate(-36 17)" onmousedown="handlePan(-1,0)">
                  <use xlink:href="#rim" fill="#404040">
                        <set attributeName="fill" to="#808080" begin="arrowLeft.mouseover" end="arrowLeft.mouseout"/>
                  </use>
                  <path fill="none" stroke="white" stroke-width="1.5" d="M0,-3.0v7 M-2.5,-0.5L0,-3.0L2.5,-0.5"/>
                </g>
        </g>
        <svg viewBox="0 0 15 15" width="100%" height="30px" preserveAspectRatio="xMaxYMin meet">
         <g id="arrow_out" transform="scale(0.3 0.3)">
          <a xlink:href="FMC__encodings_8c__incl_org.svg" target="_base">
           <rect id="button" ry="5" rx="5" y="6" x="6" height="38" width="38"
                fill="#f2f5e9" fill-opacity="0.5" stroke="#606060" stroke-width="1.0"/>
           <path id="arrow"
             d="M 11.500037,31.436501 C 11.940474,20.09759 22.043105,11.32322 32.158766,21.979434 L 37.068811,17.246167 C 37.068811,17.246167 37.088388,32 37.088388,32 L 22.160133,31.978069 C 22.160133,31.978069 26.997745,27.140456 26.997745,27.140456 C 18.528582,18.264221 13.291696,25.230495 11.500037,31.436501 z"
             style="fill:#404040;"/>
          </a>
         </g>
        </svg>
</svg>
