<?xml version="1.0" encoding="UTF-8" standalone="no"?>
<!DOCTYPE svg PUBLIC "-//W3C//DTD SVG 1.1//EN"
 "http://www.w3.org/Graphics/SVG/1.1/DTD/svg11.dtd">
<!-- Generated by graphviz version 2.43.0 (0)
 -->
<!-- Title: src/data_analyze/encodings/FMC_encodings.c Pages: 1 -->
<svg width="895pt" height="368pt"
 viewBox="0.00 0.00 894.70 368.00" xmlns="http://www.w3.org/2000/svg" xmlns:xlink="http://www.w3.org/1999/xlink">
<g id="graph0" class="graph" transform="scale(1 1) rotate(0) translate(4 364)">
<title>src/data_analyze/encodings/FMC_encodings.c</title>
<!-- Node1 -->
<g id="node1" class="node">
<title>Node1</title>
<g id="a_node1"><a xlink:title=" ">
<polygon fill="#999999" stroke="#666666" points="278.06,-360 126.06,-360 126.06,-330 278.06,-330 278.06,-360"/>
<text text-anchor="start" x="134.06" y="-348" font-family="Helvetica,sans-Serif" font-size="10.00">src/data_analyze/encodings</text>
<text text-anchor="middle" x="202.06" y="-337" font-family="Helvetica,sans-Serif" font-size="10.00">/FMC_encodings.c</text>
</a>
</g>
</g>
<!-- Node2 -->
<g id="node2" class="node">
<title>Node2</title>
<g id="a_node2"><a xlink:title=" ">
<polygon fill="#e0e0e0" stroke="#999999" points="137.06,-129 87.06,-129 87.06,-110 137.06,-110 137.06,-129"/>
<text text-anchor="middle" x="112.06" y="-117" font-family="Helvetica,sans-Serif" font-size="10.00">stdio.h</text>
</a>
</g>
</g>
<!-- Node1&#45;&gt;Node2 -->
<g id="edge1" class="edge">
<title>Node1&#45;&gt;Node2</title>
<path fill="none" stroke="#63b8ff" d="M125.81,-331.53C84.27,-323.04 38.78,-310.37 26.06,-294 -9.13,-248.72 -7.09,-213.78 23.06,-165 34.82,-145.98 57.44,-134.82 76.93,-128.43"/>
<polygon fill="#63b8ff" stroke="#63b8ff" points="78.18,-131.71 86.77,-125.51 76.18,-125 78.18,-131.71"/>
</g>
<!-- Node3 -->
<g id="node3" class="node">
<title>Node3</title>
<g id="a_node3"><a xlink:title=" ">
<polygon fill="#e0e0e0" stroke="#999999" points="88.56,-294 35.56,-294 35.56,-275 88.56,-275 88.56,-294"/>
<text text-anchor="middle" x="62.06" y="-282" font-family="Helvetica,sans-Serif" font-size="10.00">stdlib.h</text>
</a>
</g>
</g>
<!-- Node1&#45;&gt;Node3 -->
<g id="edge2" class="edge">
<title>Node1&#45;&gt;Node3</title>
<path fill="none" stroke="#63b8ff" d="M168.53,-329.99C145.28,-320.27 114.57,-307.44 92.11,-298.06"/>
<polygon fill="#63b8ff" stroke="#63b8ff" points="93.31,-294.77 82.74,-294.14 90.62,-301.22 93.31,-294.77"/>
</g>
<!-- Node4 -->
<g id="node4" class="node">
<title>Node4</title>
<g id="a_node4"><a xlink:title=" ">
<polygon fill="#e0e0e0" stroke="#999999" points="157.56,-294 106.56,-294 106.56,-275 157.56,-275 157.56,-294"/>
<text text-anchor="middle" x="132.06" y="-282" font-family="Helvetica,sans-Serif" font-size="10.00">errno.h</text>
</a>
</g>
</g>
<!-- Node1&#45;&gt;Node4 -->
<g id="edge3" class="edge">
<title>Node1&#45;&gt;Node4</title>
<path fill="none" stroke="#63b8ff" d="M185.12,-329.84C174.65,-321.09 161.2,-309.85 150.47,-300.88"/>
<polygon fill="#63b8ff" stroke="#63b8ff" points="152.47,-297.99 142.55,-294.27 147.98,-303.36 152.47,-297.99"/>
</g>
<!-- Node5 -->
<g id="node5" class="node">
<title>Node5</title>
<g id="a_node5"><a xlink:title=" ">
<polygon fill="#e0e0e0" stroke="#999999" points="228.56,-294 175.56,-294 175.56,-275 228.56,-275 228.56,-294"/>
<text text-anchor="middle" x="202.06" y="-282" font-family="Helvetica,sans-Serif" font-size="10.00">string.h</text>
</a>
</g>
</g>
<!-- Node1&#45;&gt;Node5 -->
<g id="edge4" class="edge">
<title>Node1&#45;&gt;Node5</title>
<path fill="none" stroke="#63b8ff" d="M202.06,-329.84C202.06,-322.21 202.06,-312.7 202.06,-304.45"/>
<polygon fill="#63b8ff" stroke="#63b8ff" points="205.56,-304.27 202.06,-294.27 198.56,-304.27 205.56,-304.27"/>
</g>
<!-- Node6 -->
<g id="node6" class="node">
<title>Node6</title>
<g id="a_node6"><a xlink:title=" ">
<polygon fill="#e0e0e0" stroke="#999999" points="301.06,-294 247.06,-294 247.06,-275 301.06,-275 301.06,-294"/>
<text text-anchor="middle" x="274.06" y="-282" font-family="Helvetica,sans-Serif" font-size="10.00">wchar.h</text>
</a>
</g>
</g>
<!-- Node1&#45;&gt;Node6 -->
<g id="edge5" class="edge">
<title>Node1&#45;&gt;Node6</title>
<path fill="none" stroke="#63b8ff" d="M219.49,-329.84C230.37,-321 244.36,-309.63 255.46,-300.62"/>
<polygon fill="#63b8ff" stroke="#63b8ff" points="257.72,-303.29 263.27,-294.27 253.31,-297.86 257.72,-303.29"/>
</g>
<!-- Node7 -->
<g id="node7" class="node">
<title>Node7</title>
<g id="a_node7"><a xlink:title=" ">
<polygon fill="#e0e0e0" stroke="#999999" points="372.56,-294 319.56,-294 319.56,-275 372.56,-275 372.56,-294"/>
<text text-anchor="middle" x="346.06" y="-282" font-family="Helvetica,sans-Serif" font-size="10.00">stdint.h</text>
</a>
</g>
</g>
<!-- Node1&#45;&gt;Node7 -->
<g id="edge6" class="edge">
<title>Node1&#45;&gt;Node7</title>
<path fill="none" stroke="#63b8ff" d="M236.55,-329.99C260.58,-320.23 292.34,-307.33 315.46,-297.93"/>
<polygon fill="#63b8ff" stroke="#63b8ff" points="316.85,-301.15 324.8,-294.14 314.21,-294.66 316.85,-301.15"/>
</g>
<!-- Node8 -->
<g id="node8" class="node">
<title>Node8</title>
<g id="a_node8"><a xlink:href="../../db/d30/FMC__encodings_8h.html" target="_top" xlink:title=" ">
<polygon fill="white" stroke="#666666" points="498.06,-294 396.06,-294 396.06,-275 498.06,-275 498.06,-294"/>
<text text-anchor="middle" x="447.06" y="-282" font-family="Helvetica,sans-Serif" font-size="10.00">FMC_encodings.h</text>
</a>
</g>
</g>
<!-- Node1&#45;&gt;Node8 -->
<g id="edge7" class="edge">
<title>Node1&#45;&gt;Node8</title>
<path fill="none" stroke="#63b8ff" d="M260.75,-329.99C303.85,-319.7 361.58,-305.91 401.3,-296.43"/>
<polygon fill="#63b8ff" stroke="#63b8ff" points="402.33,-299.78 411.24,-294.05 400.7,-292.97 402.33,-299.78"/>
</g>
<!-- Node9 -->
<g id="node9" class="node">
<title>Node9</title>
<g id="a_node9"><a xlink:href="../../d9/de1/FMC__general_8h.html" target="_top" xlink:title=" ">
<polygon fill="white" stroke="#666666" points="523.56,-239 376.56,-239 376.56,-220 523.56,-220 523.56,-239"/>
<text text-anchor="middle" x="450.06" y="-227" font-family="Helvetica,sans-Serif" font-size="10.00">../../general/FMC_general.h</text>
</a>
</g>
</g>
<!-- Node8&#45;&gt;Node9 -->
<g id="edge8" class="edge">
<title>Node8&#45;&gt;Node9</title>
<path fill="none" stroke="#63b8ff" d="M447.56,-274.75C447.95,-267.8 448.51,-257.85 449.01,-249.13"/>
<polygon fill="#63b8ff" stroke="#63b8ff" points="452.51,-249.27 449.58,-239.09 445.52,-248.88 452.51,-249.27"/>
</g>
<!-- Node10 -->
<g id="node10" class="node">
<title>Node10</title>
<g id="a_node10"><a xlink:href="../../d0/d28/FMC__macros_8h.html" target="_top" xlink:title=" ">
<polygon fill="white" stroke="#666666" points="593.56,-74 438.56,-74 438.56,-55 593.56,-55 593.56,-74"/>
<text text-anchor="middle" x="516.06" y="-62" font-family="Helvetica,sans-Serif" font-size="10.00">preprocessor/FMC_macros.h</text>
</a>
</g>
</g>
<!-- Node9&#45;&gt;Node10 -->
<g id="edge9" class="edge">
<title>Node9&#45;&gt;Node10</title>
<path fill="none" stroke="#63b8ff" d="M428.04,-219.94C404.27,-209.26 371.31,-189.4 383.06,-165 403.59,-122.39 452.42,-93.53 484.85,-78.3"/>
<polygon fill="#63b8ff" stroke="#63b8ff" points="486.67,-81.32 494.34,-74.01 483.78,-74.94 486.67,-81.32"/>
</g>
<!-- Node11 -->
<g id="node11" class="node">
<title>Node11</title>
<g id="a_node11"><a xlink:href="../../d7/dff/FMC__platform_8h.html" target="_top" xlink:title=" ">
<polygon fill="white" stroke="#666666" points="811.56,-19 716.56,-19 716.56,0 811.56,0 811.56,-19"/>
<text text-anchor="middle" x="764.06" y="-7" font-family="Helvetica,sans-Serif" font-size="10.00">FMC_platform.h</text>
</a>
</g>
</g>
<!-- Node9&#45;&gt;Node11 -->
<g id="edge13" class="edge">
<title>Node9&#45;&gt;Node11</title>
<path fill="none" stroke="#63b8ff" d="M523.89,-226.01C638.91,-221.35 850.18,-209.42 873.06,-184 920.27,-131.57 828.9,-56.24 785.35,-24.96"/>
<polygon fill="#63b8ff" stroke="#63b8ff" points="787.28,-22.04 777.09,-19.15 783.25,-27.77 787.28,-22.04"/>
</g>
<!-- Node13 -->
<g id="node13" class="node">
<title>Node13</title>
<g id="a_node13"><a xlink:href="../../da/dd3/FMC__consts_8h.html" target="_top" xlink:title=" ">
<polygon fill="white" stroke="#666666" points="305.06,-129 155.06,-129 155.06,-110 305.06,-110 305.06,-129"/>
<text text-anchor="middle" x="230.06" y="-117" font-family="Helvetica,sans-Serif" font-size="10.00">preprocessor/FMC_consts.h</text>
</a>
</g>
</g>
<!-- Node9&#45;&gt;Node13 -->
<g id="edge14" class="edge">
<title>Node9&#45;&gt;Node13</title>
<path fill="none" stroke="#63b8ff" d="M376.38,-226.44C306.66,-222.75 209.17,-212.49 185.06,-184 171.56,-168.04 190.81,-148.19 208.15,-134.97"/>
<polygon fill="#63b8ff" stroke="#63b8ff" points="210.29,-137.74 216.37,-129.06 206.2,-132.06 210.29,-137.74"/>
</g>
<!-- Node14 -->
<g id="node14" class="node">
<title>Node14</title>
<g id="a_node14"><a xlink:href="../../d5/de5/FMC__structs_8h.html" target="_top" xlink:title=" ">
<polygon fill="white" stroke="#666666" points="508.06,-184 392.06,-184 392.06,-165 508.06,-165 508.06,-184"/>
<text text-anchor="middle" x="450.06" y="-172" font-family="Helvetica,sans-Serif" font-size="10.00">types/FMC_structs.h</text>
</a>
</g>
</g>
<!-- Node9&#45;&gt;Node14 -->
<g id="edge15" class="edge">
<title>Node9&#45;&gt;Node14</title>
<path fill="none" stroke="#63b8ff" d="M450.06,-219.75C450.06,-212.8 450.06,-202.85 450.06,-194.13"/>
<polygon fill="#63b8ff" stroke="#63b8ff" points="453.56,-194.09 450.06,-184.09 446.56,-194.09 453.56,-194.09"/>
</g>
<!-- Node15 -->
<g id="node15" class="node">
<title>Node15</title>
<g id="a_node15"><a xlink:href="../../d6/d25/FMC__enums_8h.html" target="_top" xlink:title=" ">
<polygon fill="white" stroke="#666666" points="559.06,-129 473.06,-129 473.06,-110 559.06,-110 559.06,-129"/>
<text text-anchor="middle" x="516.06" y="-117" font-family="Helvetica,sans-Serif" font-size="10.00">FMC_enums.h</text>
</a>
</g>
</g>
<!-- Node9&#45;&gt;Node15 -->
<g id="edge25" class="edge">
<title>Node9&#45;&gt;Node15</title>
<path fill="none" stroke="#63b8ff" d="M473.17,-219.98C488.65,-212.92 507.82,-201.23 517.06,-184 524.39,-170.34 523.37,-152.52 520.95,-139.24"/>
<polygon fill="#63b8ff" stroke="#63b8ff" points="524.34,-138.35 518.75,-129.34 517.51,-139.86 524.34,-138.35"/>
</g>
<!-- Node16 -->
<g id="node16" class="node">
<title>Node16</title>
<g id="a_node16"><a xlink:href="../../df/df8/FMC__typedefs_8h.html" target="_top" xlink:title=" ">
<polygon fill="white" stroke="#666666" points="672.56,-129 577.56,-129 577.56,-110 672.56,-110 672.56,-129"/>
<text text-anchor="middle" x="625.06" y="-117" font-family="Helvetica,sans-Serif" font-size="10.00">FMC_typedefs.h</text>
</a>
</g>
</g>
<!-- Node9&#45;&gt;Node16 -->
<g id="edge24" class="edge">
<title>Node9&#45;&gt;Node16</title>
<path fill="none" stroke="#63b8ff" d="M523.74,-224.57C584.82,-219.58 664.8,-208.46 685.06,-184 700.11,-165.83 674.72,-146.29 652.47,-133.76"/>
<polygon fill="#63b8ff" stroke="#63b8ff" points="654.04,-130.63 643.57,-129 650.74,-136.8 654.04,-130.63"/>
</g>
<!-- Node17 -->
<g id="node17" class="node">
<title>Node17</title>
<g id="a_node17"><a xlink:href="../../d2/d5e/FMC__flags_8h.html" target="_top" xlink:title=" ">
<polygon fill="white" stroke="#666666" points="336.06,-184 194.06,-184 194.06,-165 336.06,-165 336.06,-184"/>
<text text-anchor="middle" x="265.06" y="-172" font-family="Helvetica,sans-Serif" font-size="10.00">preprocessor/FMC_flags.h</text>
</a>
</g>
</g>
<!-- Node9&#45;&gt;Node17 -->
<g id="edge23" class="edge">
<title>Node9&#45;&gt;Node17</title>
<path fill="none" stroke="#63b8ff" d="M420.34,-219.98C389.01,-211.01 339.49,-196.82 304.82,-186.89"/>
<polygon fill="#63b8ff" stroke="#63b8ff" points="305.6,-183.47 295.02,-184.08 303.67,-190.2 305.6,-183.47"/>
</g>
<!-- Node18 -->
<g id="node18" class="node">
<title>Node18</title>
<g id="a_node18"><a xlink:href="../../dd/ddf/FMC__errors_8h.html" target="_top" xlink:title=" ">
<polygon fill="white" stroke="#666666" points="137.56,-184 32.56,-184 32.56,-165 137.56,-165 137.56,-184"/>
<text text-anchor="middle" x="85.06" y="-172" font-family="Helvetica,sans-Serif" font-size="10.00">utils/FMC_errors.h</text>
</a>
</g>
</g>
<!-- Node9&#45;&gt;Node18 -->
<g id="edge26" class="edge">
<title>Node9&#45;&gt;Node18</title>
<path fill="none" stroke="#63b8ff" d="M391.42,-219.98C324.72,-210.3 216.21,-194.54 147.84,-184.62"/>
<polygon fill="#63b8ff" stroke="#63b8ff" points="148.04,-181.11 137.64,-183.13 147.03,-188.03 148.04,-181.11"/>
</g>
<!-- Node19 -->
<g id="node19" class="node">
<title>Node19</title>
<g id="a_node19"><a xlink:href="../../de/d86/FMC__globals_8h.html" target="_top" xlink:title=" ">
<polygon fill="white" stroke="#666666" points="676.06,-184 564.06,-184 564.06,-165 676.06,-165 676.06,-184"/>
<text text-anchor="middle" x="620.06" y="-172" font-family="Helvetica,sans-Serif" font-size="10.00">utils/FMC_globals.h</text>
</a>
</g>
</g>
<!-- Node9&#45;&gt;Node19 -->
<g id="edge30" class="edge">
<title>Node9&#45;&gt;Node19</title>
<path fill="none" stroke="#63b8ff" d="M477.38,-219.98C505.92,-211.09 550.89,-197.07 582.7,-187.15"/>
<polygon fill="#63b8ff" stroke="#63b8ff" points="584.03,-190.4 592.54,-184.08 581.95,-183.72 584.03,-190.4"/>
</g>
<!-- Node20 -->
<g id="node20" class="node">
<title>Node20</title>
<g id="a_node20"><a xlink:href="../../d4/d06/FMC__deprecated_8h.html" target="_top" xlink:title=" ">
<polygon fill="white" stroke="#666666" points="863.56,-184 732.56,-184 732.56,-165 863.56,-165 863.56,-184"/>
<text text-anchor="middle" x="798.06" y="-172" font-family="Helvetica,sans-Serif" font-size="10.00">utils/FMC_deprecated.h</text>
</a>
</g>
</g>
<!-- Node9&#45;&gt;Node20 -->
<g id="edge32" class="edge">
<title>Node9&#45;&gt;Node20</title>
<path fill="none" stroke="#63b8ff" d="M505.97,-219.98C567.53,-210.61 666.41,-195.55 731.8,-185.59"/>
<polygon fill="#63b8ff" stroke="#63b8ff" points="732.64,-189 742,-184.04 731.59,-182.08 732.64,-189"/>
</g>
<!-- Node10&#45;&gt;Node11 -->
<g id="edge10" class="edge">
<title>Node10&#45;&gt;Node11</title>
<path fill="none" stroke="#63b8ff" d="M555.91,-54.98C598.9,-45.8 667.43,-31.15 714.02,-21.19"/>
<polygon fill="#63b8ff" stroke="#63b8ff" points="714.86,-24.59 723.9,-19.08 713.39,-17.75 714.86,-24.59"/>
</g>
<!-- Node12 -->
<g id="node12" class="node">
<title>Node12</title>
<g id="a_node12"><a xlink:href="../../d1/d2e/FMC__attributes_8h.html" target="_top" xlink:title=" ">
<polygon fill="white" stroke="#666666" points="566.06,-19 466.06,-19 466.06,0 566.06,0 566.06,-19"/>
<text text-anchor="middle" x="516.06" y="-7" font-family="Helvetica,sans-Serif" font-size="10.00">FMC_attributes.h</text>
</a>
</g>
</g>
<!-- Node10&#45;&gt;Node12 -->
<g id="edge11" class="edge">
<title>Node10&#45;&gt;Node12</title>
<path fill="none" stroke="#63b8ff" d="M510.9,-54.75C509.4,-47.8 508.97,-37.85 509.58,-29.13"/>
<polygon fill="#63b8ff" stroke="#63b8ff" points="513.07,-29.47 510.93,-19.09 506.13,-28.53 513.07,-29.47"/>
</g>
<!-- Node12&#45;&gt;Node10 -->
<g id="edge12" class="edge">
<title>Node12&#45;&gt;Node10</title>
<path fill="none" stroke="#63b8ff" d="M521.19,-19.09C522.7,-25.99 523.16,-35.93 522.56,-44.66"/>
<polygon fill="#63b8ff" stroke="#63b8ff" points="519.06,-44.38 521.23,-54.75 526,-45.29 519.06,-44.38"/>
</g>
<!-- Node14&#45;&gt;Node2 -->
<g id="edge16" class="edge">
<title>Node14&#45;&gt;Node2</title>
<path fill="none" stroke="#63b8ff" d="M392.06,-166.75C332.82,-159.47 238.05,-146.74 147.17,-129.05"/>
<polygon fill="#63b8ff" stroke="#63b8ff" points="147.74,-125.59 137.25,-127.09 146.39,-132.46 147.74,-125.59"/>
</g>
<!-- Node14&#45;&gt;Node10 -->
<g id="edge18" class="edge">
<title>Node14&#45;&gt;Node10</title>
<path fill="none" stroke="#63b8ff" d="M450.27,-164.64C450.94,-151.74 453.62,-127.43 464.06,-110 471.22,-98.06 482.72,-87.72 493.09,-80.03"/>
<polygon fill="#63b8ff" stroke="#63b8ff" points="495.22,-82.81 501.41,-74.21 491.21,-77.07 495.22,-82.81"/>
</g>
<!-- Node14&#45;&gt;Node13 -->
<g id="edge17" class="edge">
<title>Node14&#45;&gt;Node13</title>
<path fill="none" stroke="#63b8ff" d="M414.72,-164.98C376.9,-155.87 316.8,-141.4 275.5,-131.45"/>
<polygon fill="#63b8ff" stroke="#63b8ff" points="276.23,-128.02 265.69,-129.08 274.59,-134.83 276.23,-128.02"/>
</g>
<!-- Node14&#45;&gt;Node15 -->
<g id="edge19" class="edge">
<title>Node14&#45;&gt;Node15</title>
<path fill="none" stroke="#63b8ff" d="M460.67,-164.98C470.52,-157.07 485.41,-145.11 497.28,-135.58"/>
<polygon fill="#63b8ff" stroke="#63b8ff" points="499.66,-138.16 505.27,-129.17 495.28,-132.7 499.66,-138.16"/>
</g>
<!-- Node14&#45;&gt;Node16 -->
<g id="edge21" class="edge">
<title>Node14&#45;&gt;Node16</title>
<path fill="none" stroke="#63b8ff" d="M478.18,-164.98C507.69,-156.05 554.25,-141.94 587.03,-132.02"/>
<polygon fill="#63b8ff" stroke="#63b8ff" points="588.17,-135.33 596.73,-129.08 586.14,-128.63 588.17,-135.33"/>
</g>
<!-- Node15&#45;&gt;Node10 -->
<g id="edge20" class="edge">
<title>Node15&#45;&gt;Node10</title>
<path fill="none" stroke="#63b8ff" d="M516.06,-109.75C516.06,-102.8 516.06,-92.85 516.06,-84.13"/>
<polygon fill="#63b8ff" stroke="#63b8ff" points="519.56,-84.09 516.06,-74.09 512.56,-84.09 519.56,-84.09"/>
</g>
<!-- Node16&#45;&gt;Node10 -->
<g id="edge22" class="edge">
<title>Node16&#45;&gt;Node10</title>
<path fill="none" stroke="#63b8ff" d="M607.55,-109.98C590.09,-101.5 563.05,-88.35 542.89,-78.54"/>
<polygon fill="#63b8ff" stroke="#63b8ff" points="544.42,-75.4 533.89,-74.17 541.36,-81.69 544.42,-75.4"/>
</g>
<!-- Node18&#45;&gt;Node2 -->
<g id="edge27" class="edge">
<title>Node18&#45;&gt;Node2</title>
<path fill="none" stroke="#63b8ff" d="M89.52,-164.75C93.18,-157.57 98.47,-147.18 103.01,-138.27"/>
<polygon fill="#63b8ff" stroke="#63b8ff" points="106.27,-139.59 107.69,-129.09 100.03,-136.41 106.27,-139.59"/>
</g>
<!-- Node18&#45;&gt;Node10 -->
<g id="edge29" class="edge">
<title>Node18&#45;&gt;Node10</title>
<path fill="none" stroke="#63b8ff" d="M80.47,-164.85C73.98,-151.32 64.38,-125.14 78.06,-110 101.05,-84.56 307.04,-72.92 428.17,-68.23"/>
<polygon fill="#63b8ff" stroke="#63b8ff" points="428.32,-71.73 438.18,-67.85 428.05,-64.73 428.32,-71.73"/>
</g>
<!-- Node18&#45;&gt;Node13 -->
<g id="edge28" class="edge">
<title>Node18&#45;&gt;Node13</title>
<path fill="none" stroke="#63b8ff" d="M108.36,-164.98C132.32,-156.23 169.84,-142.51 196.89,-132.62"/>
<polygon fill="#63b8ff" stroke="#63b8ff" points="198.15,-135.89 206.34,-129.17 195.75,-129.32 198.15,-135.89"/>
</g>
<!-- Node19&#45;&gt;Node16 -->
<g id="edge31" class="edge">
<title>Node19&#45;&gt;Node16</title>
<path fill="none" stroke="#63b8ff" d="M620.89,-164.75C621.54,-157.8 622.48,-147.85 623.3,-139.13"/>
<polygon fill="#63b8ff" stroke="#63b8ff" points="626.8,-139.37 624.25,-129.09 619.83,-138.72 626.8,-139.37"/>
</g>
<!-- Node20&#45;&gt;Node12 -->
<g id="edge33" class="edge">
<title>Node20&#45;&gt;Node12</title>
<path fill="none" stroke="#63b8ff" d="M797.82,-164.93C797,-151.52 793.49,-125.49 779.06,-110 725.67,-52.68 635.88,-28.12 576.3,-17.78"/>
<polygon fill="#63b8ff" stroke="#63b8ff" points="576.71,-14.3 566.27,-16.12 575.57,-21.21 576.71,-14.3"/>
</g>
<!-- Node21 -->
<g id="node21" class="node">
<title>Node21</title>
<g id="a_node21"><a xlink:title=" ">
<polygon fill="#e0e0e0" stroke="#999999" points="770.06,-129 714.06,-129 714.06,-110 770.06,-110 770.06,-129"/>
<text text-anchor="middle" x="742.06" y="-117" font-family="Helvetica,sans-Serif" font-size="10.00">stddef.h</text>
</a>
</g>
</g>
<!-- Node20&#45;&gt;Node21 -->
<g id="edge34" class="edge">
<title>Node20&#45;&gt;Node21</title>
<path fill="none" stroke="#63b8ff" d="M789.07,-164.98C780.87,-157.23 768.56,-145.58 758.59,-136.14"/>
<polygon fill="#63b8ff" stroke="#63b8ff" points="760.89,-133.5 751.22,-129.17 756.08,-138.59 760.89,-133.5"/>
</g>
</g>
</svg>
