<?xml version="1.0" encoding="UTF-8" standalone="no"?>
<!DOCTYPE svg PUBLIC "-//W3C//DTD SVG 1.1//EN"
 "http://www.w3.org/Graphics/SVG/1.1/DTD/svg11.dtd">
<!-- Generated by graphviz version 2.43.0 (0)
 -->
<!-- Title: src/data_analyze/encodings/FMC_encodings.c Pages: 1 -->
<svg width="1022pt" height="368pt"
 viewBox="0.00 0.00 1022.35 368.00" xmlns="http://www.w3.org/2000/svg" xmlns:xlink="http://www.w3.org/1999/xlink">
<g id="graph0" class="graph" transform="scale(1 1) rotate(0) translate(4 364)">
<title>src/data_analyze/encodings/FMC_encodings.c</title>
<!-- Node1 -->
<g id="node1" class="node">
<title>Node1</title>
<g id="a_node1"><a xlink:title=" ">
<polygon fill="#999999" stroke="#666666" points="291.79,-360 139.79,-360 139.79,-330 291.79,-330 291.79,-360"/>
<text text-anchor="start" x="147.79" y="-348" font-family="Helvetica,sans-Serif" font-size="10.00">src/data_analyze/encodings</text>
<text text-anchor="middle" x="215.79" y="-337" font-family="Helvetica,sans-Serif" font-size="10.00">/FMC_encodings.c</text>
</a>
</g>
</g>
<!-- Node2 -->
<g id="node2" class="node">
<title>Node2</title>
<g id="a_node2"><a xlink:title=" ">
<polygon fill="#e0e0e0" stroke="#999999" points="190.79,-129 140.79,-129 140.79,-110 190.79,-110 190.79,-129"/>
<text text-anchor="middle" x="165.79" y="-117" font-family="Helvetica,sans-Serif" font-size="10.00">stdio.h</text>
</a>
</g>
</g>
<!-- Node1&#45;&gt;Node2 -->
<g id="edge1" class="edge">
<title>Node1&#45;&gt;Node2</title>
<path fill="none" stroke="#63b8ff" d="M139.37,-331.66C97.77,-323.21 52.28,-310.54 39.79,-294 19.93,-267.72 -44.64,-291.41 52.79,-165 71.34,-140.93 104.83,-129.86 130.55,-124.78"/>
<polygon fill="#63b8ff" stroke="#63b8ff" points="131.43,-128.17 140.67,-123 130.22,-121.28 131.43,-128.17"/>
</g>
<!-- Node3 -->
<g id="node3" class="node">
<title>Node3</title>
<g id="a_node3"><a xlink:title=" ">
<polygon fill="#e0e0e0" stroke="#999999" points="102.29,-294 49.29,-294 49.29,-275 102.29,-275 102.29,-294"/>
<text text-anchor="middle" x="75.79" y="-282" font-family="Helvetica,sans-Serif" font-size="10.00">stdlib.h</text>
</a>
</g>
</g>
<!-- Node1&#45;&gt;Node3 -->
<g id="edge2" class="edge">
<title>Node1&#45;&gt;Node3</title>
<path fill="none" stroke="#63b8ff" d="M182.26,-329.99C159,-320.27 128.3,-307.44 105.84,-298.06"/>
<polygon fill="#63b8ff" stroke="#63b8ff" points="107.04,-294.77 96.46,-294.14 104.34,-301.22 107.04,-294.77"/>
</g>
<!-- Node4 -->
<g id="node4" class="node">
<title>Node4</title>
<g id="a_node4"><a xlink:title=" ">
<polygon fill="#e0e0e0" stroke="#999999" points="171.29,-294 120.29,-294 120.29,-275 171.29,-275 171.29,-294"/>
<text text-anchor="middle" x="145.79" y="-282" font-family="Helvetica,sans-Serif" font-size="10.00">errno.h</text>
</a>
</g>
</g>
<!-- Node1&#45;&gt;Node4 -->
<g id="edge3" class="edge">
<title>Node1&#45;&gt;Node4</title>
<path fill="none" stroke="#63b8ff" d="M198.84,-329.84C188.37,-321.09 174.93,-309.85 164.2,-300.88"/>
<polygon fill="#63b8ff" stroke="#63b8ff" points="166.2,-297.99 156.28,-294.27 161.71,-303.36 166.2,-297.99"/>
</g>
<!-- Node5 -->
<g id="node5" class="node">
<title>Node5</title>
<g id="a_node5"><a xlink:title=" ">
<polygon fill="#e0e0e0" stroke="#999999" points="242.29,-294 189.29,-294 189.29,-275 242.29,-275 242.29,-294"/>
<text text-anchor="middle" x="215.79" y="-282" font-family="Helvetica,sans-Serif" font-size="10.00">string.h</text>
</a>
</g>
</g>
<!-- Node1&#45;&gt;Node5 -->
<g id="edge4" class="edge">
<title>Node1&#45;&gt;Node5</title>
<path fill="none" stroke="#63b8ff" d="M215.79,-329.84C215.79,-322.21 215.79,-312.7 215.79,-304.45"/>
<polygon fill="#63b8ff" stroke="#63b8ff" points="219.29,-304.27 215.79,-294.27 212.29,-304.27 219.29,-304.27"/>
</g>
<!-- Node6 -->
<g id="node6" class="node">
<title>Node6</title>
<g id="a_node6"><a xlink:title=" ">
<polygon fill="#e0e0e0" stroke="#999999" points="314.79,-294 260.79,-294 260.79,-275 314.79,-275 314.79,-294"/>
<text text-anchor="middle" x="287.79" y="-282" font-family="Helvetica,sans-Serif" font-size="10.00">wchar.h</text>
</a>
</g>
</g>
<!-- Node1&#45;&gt;Node6 -->
<g id="edge5" class="edge">
<title>Node1&#45;&gt;Node6</title>
<path fill="none" stroke="#63b8ff" d="M233.22,-329.84C244.1,-321 258.09,-309.63 269.18,-300.62"/>
<polygon fill="#63b8ff" stroke="#63b8ff" points="271.45,-303.29 277,-294.27 267.03,-297.86 271.45,-303.29"/>
</g>
<!-- Node7 -->
<g id="node7" class="node">
<title>Node7</title>
<g id="a_node7"><a xlink:title=" ">
<polygon fill="#e0e0e0" stroke="#999999" points="386.29,-294 333.29,-294 333.29,-275 386.29,-275 386.29,-294"/>
<text text-anchor="middle" x="359.79" y="-282" font-family="Helvetica,sans-Serif" font-size="10.00">stdint.h</text>
</a>
</g>
</g>
<!-- Node1&#45;&gt;Node7 -->
<g id="edge6" class="edge">
<title>Node1&#45;&gt;Node7</title>
<path fill="none" stroke="#63b8ff" d="M250.28,-329.99C274.31,-320.23 306.06,-307.33 329.19,-297.93"/>
<polygon fill="#63b8ff" stroke="#63b8ff" points="330.58,-301.15 338.52,-294.14 327.94,-294.66 330.58,-301.15"/>
</g>
<!-- Node8 -->
<g id="node8" class="node">
<title>Node8</title>
<g id="a_node8"><a xlink:href="../../db/d30/FMC__encodings_8h.html" target="_top" xlink:title=" ">
<polygon fill="white" stroke="#666666" points="554.79,-294 452.79,-294 452.79,-275 554.79,-275 554.79,-294"/>
<text text-anchor="middle" x="503.79" y="-282" font-family="Helvetica,sans-Serif" font-size="10.00">FMC_encodings.h</text>
</a>
</g>
</g>
<!-- Node1&#45;&gt;Node8 -->
<g id="edge7" class="edge">
<title>Node1&#45;&gt;Node8</title>
<path fill="none" stroke="#63b8ff" d="M284.77,-329.99C336.09,-319.56 405.04,-305.56 451.77,-296.07"/>
<polygon fill="#63b8ff" stroke="#63b8ff" points="452.58,-299.47 461.68,-294.05 451.18,-292.61 452.58,-299.47"/>
</g>
<!-- Node9 -->
<g id="node9" class="node">
<title>Node9</title>
<g id="a_node9"><a xlink:href="../../d9/de1/FMC__general_8h.html" target="_top" xlink:title=" ">
<polygon fill="white" stroke="#666666" points="601.29,-239 454.29,-239 454.29,-220 601.29,-220 601.29,-239"/>
<text text-anchor="middle" x="527.79" y="-227" font-family="Helvetica,sans-Serif" font-size="10.00">../../general/FMC_general.h</text>
</a>
</g>
</g>
<!-- Node8&#45;&gt;Node9 -->
<g id="edge8" class="edge">
<title>Node8&#45;&gt;Node9</title>
<path fill="none" stroke="#63b8ff" d="M507.75,-274.75C511,-267.57 515.71,-257.18 519.74,-248.27"/>
<polygon fill="#63b8ff" stroke="#63b8ff" points="522.96,-249.64 523.9,-239.09 516.59,-246.75 522.96,-249.64"/>
</g>
<!-- Node10 -->
<g id="node10" class="node">
<title>Node10</title>
<g id="a_node10"><a xlink:href="../../d0/d28/FMC__macros_8h.html" target="_top" xlink:title=" ">
<polygon fill="white" stroke="#666666" points="522.29,-74 367.29,-74 367.29,-55 522.29,-55 522.29,-74"/>
<text text-anchor="middle" x="444.79" y="-62" font-family="Helvetica,sans-Serif" font-size="10.00">preprocessor/FMC_macros.h</text>
</a>
</g>
</g>
<!-- Node9&#45;&gt;Node10 -->
<g id="edge9" class="edge">
<title>Node9&#45;&gt;Node10</title>
<path fill="none" stroke="#63b8ff" d="M454.13,-226.94C327.44,-223.48 79.24,-213.05 52.79,-184 -37.06,-85.35 215.52,-67.65 356.73,-65.24"/>
<polygon fill="#63b8ff" stroke="#63b8ff" points="357.17,-68.73 367.12,-65.08 357.07,-61.73 357.17,-68.73"/>
</g>
<!-- Node11 -->
<g id="node11" class="node">
<title>Node11</title>
<g id="a_node11"><a xlink:href="../../d7/dff/FMC__platform_8h.html" target="_top" xlink:title=" ">
<polygon fill="white" stroke="#666666" points="837.29,-19 742.29,-19 742.29,0 837.29,0 837.29,-19"/>
<text text-anchor="middle" x="789.79" y="-7" font-family="Helvetica,sans-Serif" font-size="10.00">FMC_platform.h</text>
</a>
</g>
</g>
<!-- Node9&#45;&gt;Node11 -->
<g id="edge13" class="edge">
<title>Node9&#45;&gt;Node11</title>
<path fill="none" stroke="#63b8ff" d="M601.48,-226.89C727.52,-223.37 973.54,-212.84 999.79,-184 1063,-114.55 901.78,-48.44 826.28,-22.29"/>
<polygon fill="#63b8ff" stroke="#63b8ff" points="827.25,-18.92 816.66,-19.01 824.99,-25.55 827.25,-18.92"/>
</g>
<!-- Node13 -->
<g id="node13" class="node">
<title>Node13</title>
<g id="a_node13"><a xlink:href="../../da/dd3/FMC__consts_8h.html" target="_top" xlink:title=" ">
<polygon fill="white" stroke="#666666" points="500.79,-129 350.79,-129 350.79,-110 500.79,-110 500.79,-129"/>
<text text-anchor="middle" x="425.79" y="-117" font-family="Helvetica,sans-Serif" font-size="10.00">preprocessor/FMC_consts.h</text>
</a>
</g>
</g>
<!-- Node9&#45;&gt;Node13 -->
<g id="edge14" class="edge">
<title>Node9&#45;&gt;Node13</title>
<path fill="none" stroke="#63b8ff" d="M527.26,-219.72C526.05,-206.47 522.03,-181.22 508.79,-165 496.86,-150.39 478.83,-139.91 462.62,-132.81"/>
<polygon fill="#63b8ff" stroke="#63b8ff" points="463.92,-129.56 453.34,-129.01 461.27,-136.04 463.92,-129.56"/>
</g>
<!-- Node14 -->
<g id="node14" class="node">
<title>Node14</title>
<g id="a_node14"><a xlink:href="../../d5/de5/FMC__structs_8h.html" target="_top" xlink:title=" ">
<polygon fill="white" stroke="#666666" points="339.79,-184 223.79,-184 223.79,-165 339.79,-165 339.79,-184"/>
<text text-anchor="middle" x="281.79" y="-172" font-family="Helvetica,sans-Serif" font-size="10.00">types/FMC_structs.h</text>
</a>
</g>
</g>
<!-- Node9&#45;&gt;Node14 -->
<g id="edge15" class="edge">
<title>Node9&#45;&gt;Node14</title>
<path fill="none" stroke="#63b8ff" d="M488.26,-219.98C445.62,-210.8 377.64,-196.15 331.42,-186.19"/>
<polygon fill="#63b8ff" stroke="#63b8ff" points="332.14,-182.77 321.62,-184.08 330.66,-189.61 332.14,-182.77"/>
</g>
<!-- Node15 -->
<g id="node15" class="node">
<title>Node15</title>
<g id="a_node15"><a xlink:href="../../d6/d25/FMC__enums_8h.html" target="_top" xlink:title=" ">
<polygon fill="white" stroke="#666666" points="294.79,-129 208.79,-129 208.79,-110 294.79,-110 294.79,-129"/>
<text text-anchor="middle" x="251.79" y="-117" font-family="Helvetica,sans-Serif" font-size="10.00">FMC_enums.h</text>
</a>
</g>
</g>
<!-- Node9&#45;&gt;Node15 -->
<g id="edge25" class="edge">
<title>Node9&#45;&gt;Node15</title>
<path fill="none" stroke="#63b8ff" d="M454.08,-228.7C371.48,-227.18 245.14,-218.98 214.79,-184 202.02,-169.28 217.65,-149.53 232.34,-135.98"/>
<polygon fill="#63b8ff" stroke="#63b8ff" points="234.95,-138.35 240.22,-129.17 230.37,-133.06 234.95,-138.35"/>
</g>
<!-- Node16 -->
<g id="node16" class="node">
<title>Node16</title>
<g id="a_node16"><a xlink:href="../../df/df8/FMC__typedefs_8h.html" target="_top" xlink:title=" ">
<polygon fill="white" stroke="#666666" points="614.29,-129 519.29,-129 519.29,-110 614.29,-110 614.29,-129"/>
<text text-anchor="middle" x="566.79" y="-117" font-family="Helvetica,sans-Serif" font-size="10.00">FMC_typedefs.h</text>
</a>
</g>
</g>
<!-- Node9&#45;&gt;Node16 -->
<g id="edge24" class="edge">
<title>Node9&#45;&gt;Node16</title>
<path fill="none" stroke="#63b8ff" d="M530.98,-219.66C537.35,-202.01 551.77,-162.09 560.24,-138.64"/>
<polygon fill="#63b8ff" stroke="#63b8ff" points="563.56,-139.75 563.66,-129.16 556.97,-137.38 563.56,-139.75"/>
</g>
<!-- Node17 -->
<g id="node17" class="node">
<title>Node17</title>
<g id="a_node17"><a xlink:href="../../d2/d5e/FMC__flags_8h.html" target="_top" xlink:title=" ">
<polygon fill="white" stroke="#666666" points="499.79,-184 357.79,-184 357.79,-165 499.79,-165 499.79,-184"/>
<text text-anchor="middle" x="428.79" y="-172" font-family="Helvetica,sans-Serif" font-size="10.00">preprocessor/FMC_flags.h</text>
</a>
</g>
</g>
<!-- Node9&#45;&gt;Node17 -->
<g id="edge23" class="edge">
<title>Node9&#45;&gt;Node17</title>
<path fill="none" stroke="#63b8ff" d="M511.88,-219.98C496.24,-211.61 472.13,-198.7 453.9,-188.95"/>
<polygon fill="#63b8ff" stroke="#63b8ff" points="455.45,-185.8 444.98,-184.17 452.15,-191.98 455.45,-185.8"/>
</g>
<!-- Node18 -->
<g id="node18" class="node">
<title>Node18</title>
<g id="a_node18"><a xlink:href="../../dd/ddf/FMC__errors_8h.html" target="_top" xlink:title=" ">
<polygon fill="white" stroke="#666666" points="167.29,-184 62.29,-184 62.29,-165 167.29,-165 167.29,-184"/>
<text text-anchor="middle" x="114.79" y="-172" font-family="Helvetica,sans-Serif" font-size="10.00">utils/FMC_errors.h</text>
</a>
</g>
</g>
<!-- Node9&#45;&gt;Node18 -->
<g id="edge26" class="edge">
<title>Node9&#45;&gt;Node18</title>
<path fill="none" stroke="#63b8ff" d="M461.43,-219.98C383.2,-209.95 254.16,-193.39 177.53,-183.55"/>
<polygon fill="#63b8ff" stroke="#63b8ff" points="177.9,-180.07 167.54,-182.27 177.01,-187.01 177.9,-180.07"/>
</g>
<!-- Node19 -->
<g id="node19" class="node">
<title>Node19</title>
<g id="a_node19"><a xlink:href="../../de/d86/FMC__globals_8h.html" target="_top" xlink:title=" ">
<polygon fill="white" stroke="#666666" points="705.79,-184 593.79,-184 593.79,-165 705.79,-165 705.79,-184"/>
<text text-anchor="middle" x="649.79" y="-172" font-family="Helvetica,sans-Serif" font-size="10.00">utils/FMC_globals.h</text>
</a>
</g>
</g>
<!-- Node9&#45;&gt;Node19 -->
<g id="edge30" class="edge">
<title>Node9&#45;&gt;Node19</title>
<path fill="none" stroke="#63b8ff" d="M547.39,-219.98C567.1,-211.42 597.74,-198.11 620.37,-188.28"/>
<polygon fill="#63b8ff" stroke="#63b8ff" points="622.05,-191.37 629.83,-184.17 619.26,-184.94 622.05,-191.37"/>
</g>
<!-- Node20 -->
<g id="node20" class="node">
<title>Node20</title>
<g id="a_node20"><a xlink:href="../../d4/d06/FMC__deprecated_8h.html" target="_top" xlink:title=" ">
<polygon fill="white" stroke="#666666" points="990.29,-184 859.29,-184 859.29,-165 990.29,-165 990.29,-184"/>
<text text-anchor="middle" x="924.79" y="-172" font-family="Helvetica,sans-Serif" font-size="10.00">utils/FMC_deprecated.h</text>
</a>
</g>
</g>
<!-- Node9&#45;&gt;Node20 -->
<g id="edge34" class="edge">
<title>Node9&#45;&gt;Node20</title>
<path fill="none" stroke="#63b8ff" d="M591.57,-219.98C662.23,-210.55 775.99,-195.36 850.58,-185.41"/>
<polygon fill="#63b8ff" stroke="#63b8ff" points="851.38,-188.83 860.83,-184.04 850.46,-181.89 851.38,-188.83"/>
</g>
<!-- Node22 -->
<g id="node22" class="node">
<title>Node22</title>
<g id="a_node22"><a xlink:href="../../da/d45/FMC__str__view_8h.html" target="_top" xlink:title=" ">
<polygon fill="white" stroke="#666666" points="841.29,-184 724.29,-184 724.29,-165 841.29,-165 841.29,-184"/>
<text text-anchor="middle" x="782.79" y="-172" font-family="Helvetica,sans-Serif" font-size="10.00">utils/FMC_str_view.h</text>
</a>
</g>
</g>
<!-- Node9&#45;&gt;Node22 -->
<g id="edge37" class="edge">
<title>Node9&#45;&gt;Node22</title>
<path fill="none" stroke="#63b8ff" d="M563.64,-219.98C606,-210.76 676.74,-196.03 726.42,-186.07"/>
<polygon fill="#63b8ff" stroke="#63b8ff" points="727.25,-189.47 736.37,-184.08 725.88,-182.61 727.25,-189.47"/>
</g>
<!-- Node10&#45;&gt;Node11 -->
<g id="edge10" class="edge">
<title>Node10&#45;&gt;Node11</title>
<path fill="none" stroke="#63b8ff" d="M500.22,-54.98C563.86,-45.21 667.76,-29.25 732.27,-19.34"/>
<polygon fill="#63b8ff" stroke="#63b8ff" points="732.92,-22.78 742.27,-17.8 731.86,-15.86 732.92,-22.78"/>
</g>
<!-- Node12 -->
<g id="node12" class="node">
<title>Node12</title>
<g id="a_node12"><a xlink:href="../../d1/d2e/FMC__attributes_8h.html" target="_top" xlink:title=" ">
<polygon fill="white" stroke="#666666" points="494.79,-19 394.79,-19 394.79,0 494.79,0 494.79,-19"/>
<text text-anchor="middle" x="444.79" y="-7" font-family="Helvetica,sans-Serif" font-size="10.00">FMC_attributes.h</text>
</a>
</g>
</g>
<!-- Node10&#45;&gt;Node12 -->
<g id="edge11" class="edge">
<title>Node10&#45;&gt;Node12</title>
<path fill="none" stroke="#63b8ff" d="M439.62,-54.75C438.13,-47.8 437.69,-37.85 438.31,-29.13"/>
<polygon fill="#63b8ff" stroke="#63b8ff" points="441.8,-29.47 439.66,-19.09 434.86,-28.53 441.8,-29.47"/>
</g>
<!-- Node12&#45;&gt;Node10 -->
<g id="edge12" class="edge">
<title>Node12&#45;&gt;Node10</title>
<path fill="none" stroke="#63b8ff" d="M449.92,-19.09C451.43,-25.99 451.88,-35.93 451.28,-44.66"/>
<polygon fill="#63b8ff" stroke="#63b8ff" points="447.79,-44.38 449.96,-54.75 454.73,-45.29 447.79,-44.38"/>
</g>
<!-- Node14&#45;&gt;Node2 -->
<g id="edge16" class="edge">
<title>Node14&#45;&gt;Node2</title>
<path fill="none" stroke="#63b8ff" d="M263.15,-164.98C244.49,-156.46 215.54,-143.23 194.05,-133.41"/>
<polygon fill="#63b8ff" stroke="#63b8ff" points="195.32,-130.14 184.77,-129.17 192.41,-136.51 195.32,-130.14"/>
</g>
<!-- Node14&#45;&gt;Node10 -->
<g id="edge18" class="edge">
<title>Node14&#45;&gt;Node10</title>
<path fill="none" stroke="#63b8ff" d="M288.26,-164.62C298.39,-151.25 319.18,-125.83 341.79,-110 361.81,-95.98 386.95,-85.02 407.38,-77.48"/>
<polygon fill="#63b8ff" stroke="#63b8ff" points="408.74,-80.71 416.99,-74.05 406.39,-74.11 408.74,-80.71"/>
</g>
<!-- Node14&#45;&gt;Node13 -->
<g id="edge17" class="edge">
<title>Node14&#45;&gt;Node13</title>
<path fill="none" stroke="#63b8ff" d="M304.92,-164.98C328.61,-156.27 365.66,-142.63 392.5,-132.75"/>
<polygon fill="#63b8ff" stroke="#63b8ff" points="394.06,-135.91 402.23,-129.17 391.64,-129.34 394.06,-135.91"/>
</g>
<!-- Node14&#45;&gt;Node15 -->
<g id="edge19" class="edge">
<title>Node14&#45;&gt;Node15</title>
<path fill="none" stroke="#63b8ff" d="M276.83,-164.75C272.73,-157.49 266.76,-146.95 261.68,-137.98"/>
<polygon fill="#63b8ff" stroke="#63b8ff" points="264.62,-136.07 256.65,-129.09 258.53,-139.52 264.62,-136.07"/>
</g>
<!-- Node14&#45;&gt;Node16 -->
<g id="edge21" class="edge">
<title>Node14&#45;&gt;Node16</title>
<path fill="none" stroke="#63b8ff" d="M327.58,-164.98C377.4,-155.72 457.07,-140.9 510.62,-130.94"/>
<polygon fill="#63b8ff" stroke="#63b8ff" points="511.45,-134.35 520.64,-129.08 510.17,-127.47 511.45,-134.35"/>
</g>
<!-- Node15&#45;&gt;Node10 -->
<g id="edge20" class="edge">
<title>Node15&#45;&gt;Node10</title>
<path fill="none" stroke="#63b8ff" d="M282.8,-109.98C315.62,-100.97 367.58,-86.7 403.78,-76.76"/>
<polygon fill="#63b8ff" stroke="#63b8ff" points="404.82,-80.11 413.54,-74.08 402.97,-73.36 404.82,-80.11"/>
</g>
<!-- Node16&#45;&gt;Node10 -->
<g id="edge22" class="edge">
<title>Node16&#45;&gt;Node10</title>
<path fill="none" stroke="#63b8ff" d="M547.19,-109.98C527.47,-101.42 496.84,-88.11 474.21,-78.28"/>
<polygon fill="#63b8ff" stroke="#63b8ff" points="475.31,-74.94 464.75,-74.17 472.52,-81.37 475.31,-74.94"/>
</g>
<!-- Node18&#45;&gt;Node2 -->
<g id="edge27" class="edge">
<title>Node18&#45;&gt;Node2</title>
<path fill="none" stroke="#63b8ff" d="M123.21,-164.75C130.56,-157.11 141.42,-145.82 150.33,-136.56"/>
<polygon fill="#63b8ff" stroke="#63b8ff" points="153.11,-138.72 157.52,-129.09 148.07,-133.87 153.11,-138.72"/>
</g>
<!-- Node18&#45;&gt;Node10 -->
<g id="edge29" class="edge">
<title>Node18&#45;&gt;Node10</title>
<path fill="none" stroke="#63b8ff" d="M114.34,-164.56C114.17,-150.64 116.07,-123.93 131.79,-110 164.29,-81.2 276.19,-71 356.92,-67.41"/>
<polygon fill="#63b8ff" stroke="#63b8ff" points="357.26,-70.9 367.1,-66.99 356.96,-63.91 357.26,-70.9"/>
</g>
<!-- Node18&#45;&gt;Node13 -->
<g id="edge28" class="edge">
<title>Node18&#45;&gt;Node13</title>
<path fill="none" stroke="#63b8ff" d="M164.76,-164.98C219.42,-155.67 307.04,-140.74 365.49,-130.78"/>
<polygon fill="#63b8ff" stroke="#63b8ff" points="366.42,-134.17 375.69,-129.04 365.24,-127.27 366.42,-134.17"/>
</g>
<!-- Node19&#45;&gt;Node10 -->
<g id="edge32" class="edge">
<title>Node19&#45;&gt;Node10</title>
<path fill="none" stroke="#63b8ff" d="M648.71,-164.66C646.55,-150.87 640.37,-124.34 623.79,-110 598.65,-88.27 564.48,-76.84 532.73,-70.94"/>
<polygon fill="#63b8ff" stroke="#63b8ff" points="532.97,-67.43 522.52,-69.21 531.8,-74.33 532.97,-67.43"/>
</g>
<!-- Node19&#45;&gt;Node13 -->
<g id="edge33" class="edge">
<title>Node19&#45;&gt;Node13</title>
<path fill="none" stroke="#63b8ff" d="M613.8,-164.98C575.3,-155.87 514.1,-141.4 472.05,-131.45"/>
<polygon fill="#63b8ff" stroke="#63b8ff" points="472.6,-127.98 462.06,-129.08 470.99,-134.79 472.6,-127.98"/>
</g>
<!-- Node19&#45;&gt;Node16 -->
<g id="edge31" class="edge">
<title>Node19&#45;&gt;Node16</title>
<path fill="none" stroke="#63b8ff" d="M636.45,-164.98C623.7,-156.84 604.24,-144.41 589.12,-134.76"/>
<polygon fill="#63b8ff" stroke="#63b8ff" points="590.68,-131.6 580.37,-129.17 586.91,-137.5 590.68,-131.6"/>
</g>
<!-- Node20&#45;&gt;Node12 -->
<g id="edge35" class="edge">
<title>Node20&#45;&gt;Node12</title>
<path fill="none" stroke="#63b8ff" d="M924.81,-164.67C924.35,-150.89 921.33,-124.38 905.79,-110 847.93,-56.5 616.44,-27.2 505.15,-15.95"/>
<polygon fill="#63b8ff" stroke="#63b8ff" points="505.38,-12.46 495.08,-14.95 504.69,-19.43 505.38,-12.46"/>
</g>
<!-- Node21 -->
<g id="node21" class="node">
<title>Node21</title>
<g id="a_node21"><a xlink:title=" ">
<polygon fill="#e0e0e0" stroke="#999999" points="896.79,-129 840.79,-129 840.79,-110 896.79,-110 896.79,-129"/>
<text text-anchor="middle" x="868.79" y="-117" font-family="Helvetica,sans-Serif" font-size="10.00">stddef.h</text>
</a>
</g>
</g>
<!-- Node20&#45;&gt;Node21 -->
<g id="edge36" class="edge">
<title>Node20&#45;&gt;Node21</title>
<path fill="none" stroke="#63b8ff" d="M915.79,-164.98C907.59,-157.23 895.28,-145.58 885.32,-136.14"/>
<polygon fill="#63b8ff" stroke="#63b8ff" points="887.62,-133.5 877.95,-129.17 882.81,-138.59 887.62,-133.5"/>
</g>
<!-- Node22&#45;&gt;Node9 -->
<g id="edge38" class="edge">
<title>Node22&#45;&gt;Node9</title>
<path fill="none" stroke="#63b8ff" d="M746.63,-184.08C704.14,-193.33 633.38,-208.07 583.8,-218"/>
<polygon fill="#63b8ff" stroke="#63b8ff" points="583,-214.59 573.87,-219.98 584.37,-221.46 583,-214.59"/>
</g>
</g>
</svg>
