<?xml version="1.0" encoding="UTF-8" standalone="no"?>
<!DOCTYPE svg PUBLIC "-//W3C//DTD SVG 1.1//EN"
 "http://www.w3.org/Graphics/SVG/1.1/DTD/svg11.dtd">
<!-- Generated by graphviz version 2.43.0 (0)
 -->
<!-- Title: replaceStringInFile Pages: 1 -->
<svg width="420pt" height="101pt"
 viewBox="0.00 0.00 420.00 101.00" xmlns="http://www.w3.org/2000/svg" xmlns:xlink="http://www.w3.org/1999/xlink">
<g id="graph0" class="graph" transform="scale(1 1) rotate(0) translate(4 97)">
<title>replaceStringInFile</title>
<!-- Node1 -->
<g id="node1" class="node">
<title>Node1</title>
<g id="a_node1"><a xlink:title=" ">
<polygon fill="#999999" stroke="#666666" points="107,-74 0,-74 0,-55 107,-55 107,-74"/>
<text text-anchor="middle" x="53.5" y="-62" font-family="Helvetica,sans-Serif" font-size="10.00">replaceStringInFile</text>
</a>
</g>
</g>
<!-- Node2 -->
<g id="node2" class="node">
<title>Node2</title>
<g id="a_node2"><a xlink:href="../../d7/d93/analyze_8c.html#a04ae2138b1c3b361f9556bd30db30c23" target="_top" xlink:title=" ">
<polygon fill="white" stroke="#666666" points="412,-93 283,-93 283,-74 412,-74 412,-93"/>
<text text-anchor="middle" x="347.5" y="-81" font-family="Helvetica,sans-Serif" font-size="10.00">free_stringOccurrences</text>
</a>
</g>
</g>
<!-- Node1&#45;&gt;Node2 -->
<g id="edge1" class="edge">
<title>Node1&#45;&gt;Node2</title>
<path fill="none" stroke="#63b8ff" d="M107.04,-67.92C153.3,-70.93 221.15,-75.34 272.82,-78.71"/>
<polygon fill="#63b8ff" stroke="#63b8ff" points="272.73,-82.21 282.93,-79.36 273.18,-75.22 272.73,-82.21"/>
</g>
<!-- Node3 -->
<g id="node3" class="node">
<title>Node3</title>
<g id="a_node3"><a xlink:href="../../d7/d93/analyze_8c.html#ab029b1afb2f8a964dd116b825baf8741" target="_top" xlink:title=" ">
<polygon fill="white" stroke="#666666" points="247,-55 143,-55 143,-36 247,-36 247,-55"/>
<text text-anchor="middle" x="195" y="-43" font-family="Helvetica,sans-Serif" font-size="10.00">searchStringInFile</text>
</a>
</g>
</g>
<!-- Node1&#45;&gt;Node3 -->
<g id="edge2" class="edge">
<title>Node1&#45;&gt;Node3</title>
<path fill="none" stroke="#63b8ff" d="M107.24,-57.32C115.47,-56.2 124.03,-55.03 132.43,-53.89"/>
<polygon fill="#63b8ff" stroke="#63b8ff" points="133.14,-57.32 142.57,-52.5 132.19,-50.39 133.14,-57.32"/>
</g>
<!-- Node3&#45;&gt;Node2 -->
<g id="edge4" class="edge">
<title>Node3&#45;&gt;Node2</title>
<path fill="none" stroke="#63b8ff" d="M233.98,-55.09C253.66,-60.06 277.89,-66.18 298.82,-71.46"/>
<polygon fill="#63b8ff" stroke="#63b8ff" points="298.24,-74.93 308.8,-73.98 299.96,-68.14 298.24,-74.93"/>
</g>
<!-- Node4 -->
<g id="node4" class="node">
<title>Node4</title>
<g id="a_node4"><a xlink:href="../../d7/d93/analyze_8c.html#a2fae470a9f2ba64ed544ecb0efdf3113" target="_top" xlink:title=" ">
<polygon fill="white" stroke="#666666" points="393.5,-56 301.5,-56 301.5,-37 393.5,-37 393.5,-56"/>
<text text-anchor="middle" x="347.5" y="-44" font-family="Helvetica,sans-Serif" font-size="10.00">countCharInFile</text>
</a>
</g>
</g>
<!-- Node3&#45;&gt;Node4 -->
<g id="edge3" class="edge">
<title>Node3&#45;&gt;Node4</title>
<path fill="none" stroke="#63b8ff" d="M247.37,-45.84C261.49,-45.94 276.85,-46.04 291.18,-46.13"/>
<polygon fill="#63b8ff" stroke="#63b8ff" points="291.37,-49.63 301.4,-46.2 291.42,-42.63 291.37,-49.63"/>
</g>
<!-- Node5 -->
<g id="node5" class="node">
<title>Node5</title>
<g id="a_node5"><a xlink:href="../../d7/d93/analyze_8c.html#a00a81359d75f930d3e47239dbd6dd324" target="_top" xlink:title=" ">
<polygon fill="white" stroke="#666666" points="408.5,-19 286.5,-19 286.5,0 408.5,0 408.5,-19"/>
<text text-anchor="middle" x="347.5" y="-7" font-family="Helvetica,sans-Serif" font-size="10.00">init_stringOccurences</text>
</a>
</g>
</g>
<!-- Node3&#45;&gt;Node5 -->
<g id="edge5" class="edge">
<title>Node3&#45;&gt;Node5</title>
<path fill="none" stroke="#63b8ff" d="M235.94,-35.95C254.63,-31.47 277.1,-26.1 296.87,-21.37"/>
<polygon fill="#63b8ff" stroke="#63b8ff" points="297.73,-24.77 306.64,-19.03 296.1,-17.96 297.73,-24.77"/>
</g>
</g>
</svg>
