<?xml version="1.0" encoding="UTF-8" standalone="no"?>
<!DOCTYPE svg PUBLIC "-//W3C//DTD SVG 1.1//EN"
 "http://www.w3.org/Graphics/SVG/1.1/DTD/svg11.dtd">
<!-- Generated by graphviz version 7.1.0 (20230121.1956)
 -->
<!-- Title: src/general/utils/FMC_errors.c Pages: 1 -->
<svg width="339pt" height="214pt"
 viewBox="0.00 0.00 338.50 214.00" xmlns="http://www.w3.org/2000/svg" xmlns:xlink="http://www.w3.org/1999/xlink">
<g id="graph0" class="graph" transform="scale(1 1) rotate(0) translate(4 210)">
<title>src/general/utils/FMC_errors.c</title>
<!-- Node1 -->
<g id="node1" class="node">
<title>Node1</title>
<g id="a_node1"><a xlink:title=" ">
<polygon fill="#999999" stroke="#666666" points="238,-206 128,-206 128,-176 238,-176 238,-206"/>
<text text-anchor="start" x="136" y="-194" font-family="Helvetica,sans-Serif" font-size="10.00">src/general/utils/FMC</text>
<text text-anchor="middle" x="183" y="-183" font-family="Helvetica,sans-Serif" font-size="10.00">_errors.c</text>
</a>
</g>
</g>
<!-- Node2 -->
<g id="node2" class="node">
<title>Node2</title>
<g id="a_node2"><a xlink:href="../../dc/de1/_f_m_c__errors_8h.html" target="_top" xlink:title=" ">
<polygon fill="white" stroke="#666666" points="155,-140 79,-140 79,-121 155,-121 155,-140"/>
<text text-anchor="middle" x="117" y="-128" font-family="Helvetica,sans-Serif" font-size="10.00">FMC_errors.h</text>
</a>
</g>
</g>
<!-- Node1&#45;&gt;Node2 -->
<g id="edge1" class="edge">
<title>Node1&#45;&gt;Node2</title>
<path fill="none" stroke="#63b8ff" d="M166.69,-175.54C157.2,-167.13 145.21,-156.51 135.39,-147.8"/>
<polygon fill="#63b8ff" stroke="#63b8ff" points="137.73,-145.19 127.92,-141.18 133.08,-150.43 137.73,-145.19"/>
</g>
<!-- Node3 -->
<g id="node3" class="node">
<title>Node3</title>
<g id="a_node3"><a xlink:title=" ">
<polygon fill="#e0e0e0" stroke="#999999" points="46,-79.5 0,-79.5 0,-60.5 46,-60.5 46,-79.5"/>
<text text-anchor="middle" x="23" y="-67.5" font-family="Helvetica,sans-Serif" font-size="10.00">stdio.h</text>
</a>
</g>
</g>
<!-- Node1&#45;&gt;Node3 -->
<g id="edge9" class="edge">
<title>Node1&#45;&gt;Node3</title>
<path fill="none" stroke="#63b8ff" d="M135.17,-175.58C113.68,-167.49 88.95,-155.79 70,-140 53.33,-126.11 40.09,-104.88 31.96,-89.63"/>
<polygon fill="#63b8ff" stroke="#63b8ff" points="35.3,-88.47 27.66,-81.13 29.05,-91.64 35.3,-88.47"/>
</g>
<!-- Node5 -->
<g id="node5" class="node">
<title>Node5</title>
<g id="a_node5"><a xlink:href="../../d0/d07/_f_m_c__macros_8h.html" target="_top" xlink:title=" ">
<polygon fill="white" stroke="#666666" points="294,-85 188,-85 188,-55 294,-55 294,-85"/>
<text text-anchor="start" x="196" y="-73" font-family="Helvetica,sans-Serif" font-size="10.00">../preprocessor/FMC</text>
<text text-anchor="middle" x="241" y="-62" font-family="Helvetica,sans-Serif" font-size="10.00">_macros.h</text>
</a>
</g>
</g>
<!-- Node1&#45;&gt;Node5 -->
<g id="edge8" class="edge">
<title>Node1&#45;&gt;Node5</title>
<path fill="none" stroke="#63b8ff" d="M185.25,-175.66C187.88,-161.28 193.08,-138.76 202,-121 206.76,-111.53 213.46,-102.1 219.96,-94.03"/>
<polygon fill="#63b8ff" stroke="#63b8ff" points="222.62,-96.31 226.4,-86.42 217.27,-91.79 222.62,-96.31"/>
</g>
<!-- Node8 -->
<g id="node8" class="node">
<title>Node8</title>
<g id="a_node8"><a xlink:title=" ">
<polygon fill="#e0e0e0" stroke="#999999" points="263,-140 211,-140 211,-121 263,-121 263,-140"/>
<text text-anchor="middle" x="237" y="-128" font-family="Helvetica,sans-Serif" font-size="10.00">stdarg.h</text>
</a>
</g>
</g>
<!-- Node1&#45;&gt;Node8 -->
<g id="edge10" class="edge">
<title>Node1&#45;&gt;Node8</title>
<path fill="none" stroke="#63b8ff" d="M196.35,-175.54C203.87,-167.39 213.31,-157.16 221.2,-148.61"/>
<polygon fill="#63b8ff" stroke="#63b8ff" points="223.75,-151.01 227.97,-141.29 218.61,-146.26 223.75,-151.01"/>
</g>
<!-- Node9 -->
<g id="node9" class="node">
<title>Node9</title>
<g id="a_node9"><a xlink:title=" ">
<polygon fill="#e0e0e0" stroke="#999999" points="330.5,-140 281.5,-140 281.5,-121 330.5,-121 330.5,-140"/>
<text text-anchor="middle" x="306" y="-128" font-family="Helvetica,sans-Serif" font-size="10.00">string.h</text>
</a>
</g>
</g>
<!-- Node1&#45;&gt;Node9 -->
<g id="edge11" class="edge">
<title>Node1&#45;&gt;Node9</title>
<path fill="none" stroke="#63b8ff" d="M213.4,-175.54C232.88,-166.28 258.01,-154.33 277.17,-145.21"/>
<polygon fill="#63b8ff" stroke="#63b8ff" points="278.51,-148.45 286.03,-141 275.5,-142.13 278.51,-148.45"/>
</g>
<!-- Node2&#45;&gt;Node3 -->
<g id="edge2" class="edge">
<title>Node2&#45;&gt;Node3</title>
<path fill="none" stroke="#63b8ff" d="M102.72,-120.62C87.95,-111.42 64.63,-96.91 47.01,-85.94"/>
<polygon fill="#63b8ff" stroke="#63b8ff" points="49.04,-83.08 38.7,-80.77 45.34,-89.02 49.04,-83.08"/>
</g>
<!-- Node4 -->
<g id="node4" class="node">
<title>Node4</title>
<g id="a_node4"><a xlink:href="../../d8/d6d/_f_m_c__consts_8h.html" target="_top" xlink:title=" ">
<polygon fill="white" stroke="#666666" points="170,-85 64,-85 64,-55 170,-55 170,-85"/>
<text text-anchor="start" x="72" y="-73" font-family="Helvetica,sans-Serif" font-size="10.00">../preprocessor/FMC</text>
<text text-anchor="middle" x="117" y="-62" font-family="Helvetica,sans-Serif" font-size="10.00">_consts.h</text>
</a>
</g>
</g>
<!-- Node2&#45;&gt;Node4 -->
<g id="edge3" class="edge">
<title>Node2&#45;&gt;Node4</title>
<path fill="none" stroke="#63b8ff" d="M117,-120.87C117,-114.4 117,-105.2 117,-96.45"/>
<polygon fill="#63b8ff" stroke="#63b8ff" points="120.5,-96.63 117,-86.63 113.5,-96.63 120.5,-96.63"/>
</g>
<!-- Node2&#45;&gt;Node5 -->
<g id="edge4" class="edge">
<title>Node2&#45;&gt;Node5</title>
<path fill="none" stroke="#63b8ff" d="M135.83,-120.62C152.83,-112.59 178.43,-100.52 200.12,-90.29"/>
<polygon fill="#63b8ff" stroke="#63b8ff" points="201.47,-93.52 209.02,-86.09 198.49,-87.19 201.47,-93.52"/>
</g>
<!-- Node6 -->
<g id="node6" class="node">
<title>Node6</title>
<g id="a_node6"><a xlink:href="../../d0/dc4/_f_m_c__platform_8h.html" target="_top" xlink:title=" ">
<polygon fill="white" stroke="#666666" points="177,-19 91,-19 91,0 177,0 177,-19"/>
<text text-anchor="middle" x="134" y="-7" font-family="Helvetica,sans-Serif" font-size="10.00">FMC_platform.h</text>
</a>
</g>
</g>
<!-- Node5&#45;&gt;Node6 -->
<g id="edge5" class="edge">
<title>Node5&#45;&gt;Node6</title>
<path fill="none" stroke="#63b8ff" d="M214.55,-54.54C198,-45.49 176.76,-33.88 160.25,-24.85"/>
<polygon fill="#63b8ff" stroke="#63b8ff" points="161.96,-21.8 151.51,-20.07 158.6,-27.94 161.96,-21.8"/>
</g>
<!-- Node7 -->
<g id="node7" class="node">
<title>Node7</title>
<g id="a_node7"><a xlink:href="../../d4/d62/_f_m_c__attributes_8h.html" target="_top" xlink:title=" ">
<polygon fill="white" stroke="#666666" points="287,-19 195,-19 195,0 287,0 287,-19"/>
<text text-anchor="middle" x="241" y="-7" font-family="Helvetica,sans-Serif" font-size="10.00">FMC_attributes.h</text>
</a>
</g>
</g>
<!-- Node5&#45;&gt;Node7 -->
<g id="edge6" class="edge">
<title>Node5&#45;&gt;Node7</title>
<path fill="none" stroke="#63b8ff" d="M235.08,-54.54C234.19,-47.26 234.01,-38.31 234.57,-30.39"/>
<polygon fill="#63b8ff" stroke="#63b8ff" points="238.01,-31.05 235.84,-20.68 231.07,-30.14 238.01,-31.05"/>
</g>
<!-- Node7&#45;&gt;Node5 -->
<g id="edge7" class="edge">
<title>Node7&#45;&gt;Node5</title>
<path fill="none" stroke="#63b8ff" d="M245.96,-19.18C247.34,-25.58 247.92,-34.65 247.71,-43.3"/>
<polygon fill="#63b8ff" stroke="#63b8ff" points="244.23,-42.81 247.02,-53.03 251.21,-43.3 244.23,-42.81"/>
</g>
</g>
</svg>
