<?xml version="1.0" encoding="UTF-8" standalone="no"?>
<!DOCTYPE svg PUBLIC "-//W3C//DTD SVG 1.1//EN"
 "http://www.w3.org/Graphics/SVG/1.1/DTD/svg11.dtd">
<!-- Generated by graphviz version 7.1.0 (20230121.1956)
 -->
<!-- Title: src/general/preprocessor/FMC_consts.h Pages: 1 -->
<svg width="766pt" height="357pt"
 viewBox="0.00 0.00 766.07 357.00" xmlns="http://www.w3.org/2000/svg" xmlns:xlink="http://www.w3.org/1999/xlink">
<g id="graph0" class="graph" transform="scale(1 1) rotate(0) translate(4 353)">
<title>src/general/preprocessor/FMC_consts.h</title>
<!-- Node1 -->
<g id="node1" class="node">
<title>Node1</title>
<g id="a_node1"><a xlink:title=" ">
<polygon fill="#999999" stroke="#666666" points="271.07,-349 147.07,-349 147.07,-319 271.07,-319 271.07,-349"/>
<text text-anchor="start" x="155.07" y="-337" font-family="Helvetica,sans-Serif" font-size="10.00">src/general/preprocessor</text>
<text text-anchor="middle" x="209.07" y="-326" font-family="Helvetica,sans-Serif" font-size="10.00">/FMC_consts.h</text>
</a>
</g>
</g>
<!-- Node2 -->
<g id="node2" class="node">
<title>Node2</title>
<g id="a_node2"><a xlink:href="../../d2/db5/_f_m_c__general_8h.html" target="_top" xlink:title=" ">
<polygon fill="white" stroke="#666666" points="271.07,-211.5 137.07,-211.5 137.07,-192.5 271.07,-192.5 271.07,-211.5"/>
<text text-anchor="middle" x="204.07" y="-199.5" font-family="Helvetica,sans-Serif" font-size="10.00">src/general/FMC_general.h</text>
</a>
</g>
</g>
<!-- Node1&#45;&gt;Node2 -->
<g id="edge1" class="edge">
<title>Node1&#45;&gt;Node2</title>
<path fill="none" stroke="#63b8ff" d="M169.2,-312.44C158.4,-304.76 148.06,-294.94 142.07,-283 136.1,-271.08 136.32,-265.03 142.07,-253 151.02,-234.29 170.77,-220.34 185.59,-211.99"/>
<polygon fill="#63b8ff" stroke="#63b8ff" points="167.14,-315.28 177.43,-317.81 170.97,-309.41 167.14,-315.28"/>
</g>
<!-- Node13 -->
<g id="node13" class="node">
<title>Node13</title>
<g id="a_node13"><a xlink:href="../../d5/d7a/_f_m_c__structs_8h.html" target="_top" xlink:title=" ">
<polygon fill="white" stroke="#666666" points="267.07,-283 151.07,-283 151.07,-253 267.07,-253 267.07,-283"/>
<text text-anchor="start" x="159.07" y="-271" font-family="Helvetica,sans-Serif" font-size="10.00">src/general/types/FMC</text>
<text text-anchor="middle" x="209.07" y="-260" font-family="Helvetica,sans-Serif" font-size="10.00">_structs.h</text>
</a>
</g>
</g>
<!-- Node1&#45;&gt;Node13 -->
<g id="edge16" class="edge">
<title>Node1&#45;&gt;Node13</title>
<path fill="none" stroke="#63b8ff" d="M209.07,-307.39C209.07,-299.13 209.07,-290.28 209.07,-283.16"/>
<polygon fill="#63b8ff" stroke="#63b8ff" points="205.57,-307.28 209.07,-317.28 212.57,-307.28 205.57,-307.28"/>
</g>
<!-- Node14 -->
<g id="node14" class="node">
<title>Node14</title>
<g id="a_node14"><a xlink:href="../../dc/de1/_f_m_c__errors_8h.html" target="_top" xlink:title=" ">
<polygon fill="white" stroke="#666666" points="395.07,-283 285.07,-283 285.07,-253 395.07,-253 395.07,-283"/>
<text text-anchor="start" x="293.07" y="-271" font-family="Helvetica,sans-Serif" font-size="10.00">src/general/utils/FMC</text>
<text text-anchor="middle" x="340.07" y="-260" font-family="Helvetica,sans-Serif" font-size="10.00">_errors.h</text>
</a>
</g>
</g>
<!-- Node1&#45;&gt;Node14 -->
<g id="edge18" class="edge">
<title>Node1&#45;&gt;Node14</title>
<path fill="none" stroke="#63b8ff" d="M248.81,-313.59C268.76,-303.84 292.5,-292.24 310.77,-283.31"/>
<polygon fill="#63b8ff" stroke="#63b8ff" points="247.28,-310.44 239.83,-317.97 250.35,-316.73 247.28,-310.44"/>
</g>
<!-- Node3 -->
<g id="node3" class="node">
<title>Node3</title>
<g id="a_node3"><a xlink:href="../../d9/d0f/_f_m_c_8h.html" target="_top" xlink:title=" ">
<polygon fill="white" stroke="#666666" points="177.07,-19 115.07,-19 115.07,0 177.07,0 177.07,-19"/>
<text text-anchor="middle" x="146.07" y="-7" font-family="Helvetica,sans-Serif" font-size="10.00">src/FMC.h</text>
</a>
</g>
</g>
<!-- Node2&#45;&gt;Node3 -->
<g id="edge2" class="edge">
<title>Node2&#45;&gt;Node3</title>
<path fill="none" stroke="#63b8ff" d="M125.49,-191.11C76.9,-183.19 21.03,-170.2 6.07,-151 -15.28,-123.59 27.8,-62.04 35.07,-55 57,-33.78 90.35,-22.25 114.77,-16.29"/>
<polygon fill="#63b8ff" stroke="#63b8ff" points="124.78,-194.54 135.2,-192.63 125.86,-187.62 124.78,-194.54"/>
</g>
<!-- Node4 -->
<g id="node4" class="node">
<title>Node4</title>
<g id="a_node4"><a xlink:href="../../d7/de5/_f_m_c__code__utils_8h.html" target="_top" xlink:title=" ">
<polygon fill="white" stroke="#666666" points="116.57,-151 15.57,-151 15.57,-121 116.57,-121 116.57,-151"/>
<text text-anchor="start" x="23.57" y="-139" font-family="Helvetica,sans-Serif" font-size="10.00">src/code_utils/FMC</text>
<text text-anchor="middle" x="66.07" y="-128" font-family="Helvetica,sans-Serif" font-size="10.00">_code_utils.h</text>
</a>
</g>
</g>
<!-- Node2&#45;&gt;Node4 -->
<g id="edge3" class="edge">
<title>Node2&#45;&gt;Node4</title>
<path fill="none" stroke="#63b8ff" d="M174.49,-187.28C151.75,-176.73 120.42,-162.21 97.29,-151.48"/>
<polygon fill="#63b8ff" stroke="#63b8ff" points="172.97,-190.43 183.51,-191.46 175.91,-184.08 172.97,-190.43"/>
</g>
<!-- Node5 -->
<g id="node5" class="node">
<title>Node5</title>
<g id="a_node5"><a xlink:href="../../d9/d1f/_f_m_c__encodings_8h.html" target="_top" xlink:title=" ">
<polygon fill="white" stroke="#666666" points="273.07,-151 135.07,-151 135.07,-121 273.07,-121 273.07,-151"/>
<text text-anchor="start" x="143.07" y="-139" font-family="Helvetica,sans-Serif" font-size="10.00">src/data_analyze/encodings</text>
<text text-anchor="middle" x="204.07" y="-128" font-family="Helvetica,sans-Serif" font-size="10.00">/FMC_encodings.h</text>
</a>
</g>
</g>
<!-- Node2&#45;&gt;Node5 -->
<g id="edge5" class="edge">
<title>Node2&#45;&gt;Node5</title>
<path fill="none" stroke="#63b8ff" d="M204.07,-180.78C204.07,-171.17 204.07,-159.92 204.07,-151.23"/>
<polygon fill="#63b8ff" stroke="#63b8ff" points="200.57,-180.59 204.07,-190.59 207.57,-180.59 200.57,-180.59"/>
</g>
<!-- Node8 -->
<g id="node8" class="node">
<title>Node8</title>
<g id="a_node8"><a xlink:href="../../d2/d1d/_f_m_c__strings_8h.html" target="_top" xlink:title=" ">
<polygon fill="white" stroke="#666666" points="414.57,-151 291.57,-151 291.57,-121 414.57,-121 414.57,-151"/>
<text text-anchor="start" x="299.57" y="-139" font-family="Helvetica,sans-Serif" font-size="10.00">src/data_analyze/strings</text>
<text text-anchor="middle" x="353.07" y="-128" font-family="Helvetica,sans-Serif" font-size="10.00">/FMC_strings.h</text>
</a>
</g>
</g>
<!-- Node2&#45;&gt;Node8 -->
<g id="edge9" class="edge">
<title>Node2&#45;&gt;Node8</title>
<path fill="none" stroke="#63b8ff" d="M235.35,-187.57C259.95,-177 294.16,-162.3 319.37,-151.48"/>
<polygon fill="#63b8ff" stroke="#63b8ff" points="233.99,-184.34 226.18,-191.5 236.75,-190.77 233.99,-184.34"/>
</g>
<!-- Node10 -->
<g id="node10" class="node">
<title>Node10</title>
<g id="a_node10"><a xlink:href="../../d8/d29/_f_m_c__file__management_8h.html" target="_top" xlink:title=" ">
<polygon fill="white" stroke="#666666" points="580.07,-151 488.07,-151 488.07,-121 580.07,-121 580.07,-151"/>
<text text-anchor="start" x="496.07" y="-139" font-family="Helvetica,sans-Serif" font-size="10.00">src/files/FMC_file</text>
<text text-anchor="middle" x="534.07" y="-128" font-family="Helvetica,sans-Serif" font-size="10.00">_management.h</text>
</a>
</g>
</g>
<!-- Node2&#45;&gt;Node10 -->
<g id="edge12" class="edge">
<title>Node2&#45;&gt;Node10</title>
<path fill="none" stroke="#63b8ff" d="M261.43,-189.88C325.59,-177.43 428.28,-157.52 487.62,-146.01"/>
<polygon fill="#63b8ff" stroke="#63b8ff" points="260.94,-186.41 251.79,-191.75 262.27,-193.28 260.94,-186.41"/>
</g>
<!-- Node4&#45;&gt;Node3 -->
<g id="edge4" class="edge">
<title>Node4&#45;&gt;Node3</title>
<path fill="none" stroke="#63b8ff" d="M49.8,-110.98C40.64,-94.2 33.03,-71.87 44.07,-55 59.63,-31.24 90.95,-20.09 114.81,-14.91"/>
<polygon fill="#63b8ff" stroke="#63b8ff" points="46.65,-112.53 54.78,-119.32 52.66,-108.94 46.65,-112.53"/>
</g>
<!-- Node6 -->
<g id="node6" class="node">
<title>Node6</title>
<g id="a_node6"><a xlink:href="../../d7/d3a/_f_m_c__data__analyze_8h.html" target="_top" xlink:title=" ">
<polygon fill="white" stroke="#666666" points="324.57,-85 209.57,-85 209.57,-55 324.57,-55 324.57,-85"/>
<text text-anchor="start" x="217.57" y="-73" font-family="Helvetica,sans-Serif" font-size="10.00">src/data_analyze/FMC</text>
<text text-anchor="middle" x="267.07" y="-62" font-family="Helvetica,sans-Serif" font-size="10.00">_data_analyze.h</text>
</a>
</g>
</g>
<!-- Node5&#45;&gt;Node6 -->
<g id="edge6" class="edge">
<title>Node5&#45;&gt;Node6</title>
<path fill="none" stroke="#63b8ff" d="M225.92,-112.81C234.95,-103.64 245.14,-93.28 253.13,-85.16"/>
<polygon fill="#63b8ff" stroke="#63b8ff" points="223.64,-110.14 219.12,-119.72 228.63,-115.05 223.64,-110.14"/>
</g>
<!-- Node7 -->
<g id="node7" class="node">
<title>Node7</title>
<g id="a_node7"><a xlink:href="../../da/da9/_f_m_c__encodings_8c.html" target="_top" xlink:title=" ">
<polygon fill="white" stroke="#666666" points="191.07,-85 53.07,-85 53.07,-55 191.07,-55 191.07,-85"/>
<text text-anchor="start" x="61.07" y="-73" font-family="Helvetica,sans-Serif" font-size="10.00">src/data_analyze/encodings</text>
<text text-anchor="middle" x="122.07" y="-62" font-family="Helvetica,sans-Serif" font-size="10.00">/FMC_encodings.c</text>
</a>
</g>
</g>
<!-- Node5&#45;&gt;Node7 -->
<g id="edge8" class="edge">
<title>Node5&#45;&gt;Node7</title>
<path fill="none" stroke="#63b8ff" d="M177.13,-113.97C165.13,-104.61 151.3,-93.81 140.5,-85.39"/>
<polygon fill="#63b8ff" stroke="#63b8ff" points="174.64,-116.47 184.68,-119.87 178.95,-110.95 174.64,-116.47"/>
</g>
<!-- Node6&#45;&gt;Node3 -->
<g id="edge7" class="edge">
<title>Node6&#45;&gt;Node3</title>
<path fill="none" stroke="#63b8ff" d="M226.84,-49.55C205.72,-39.34 180.87,-27.32 164.37,-19.35"/>
<polygon fill="#63b8ff" stroke="#63b8ff" points="225.27,-52.68 235.8,-53.88 228.32,-46.38 225.27,-52.68"/>
</g>
<!-- Node8&#45;&gt;Node6 -->
<g id="edge10" class="edge">
<title>Node8&#45;&gt;Node6</title>
<path fill="none" stroke="#63b8ff" d="M324.82,-113.97C312.23,-104.61 297.73,-93.81 286.4,-85.39"/>
<polygon fill="#63b8ff" stroke="#63b8ff" points="322.66,-116.73 332.77,-119.89 326.84,-111.11 322.66,-116.73"/>
</g>
<!-- Node9 -->
<g id="node9" class="node">
<title>Node9</title>
<g id="a_node9"><a xlink:href="../../d5/dd0/_f_m_c__chars_8c.html" target="_top" xlink:title=" ">
<polygon fill="white" stroke="#666666" points="465.57,-85 342.57,-85 342.57,-55 465.57,-55 465.57,-85"/>
<text text-anchor="start" x="350.57" y="-73" font-family="Helvetica,sans-Serif" font-size="10.00">src/data_analyze/strings</text>
<text text-anchor="middle" x="404.07" y="-62" font-family="Helvetica,sans-Serif" font-size="10.00">/FMC_chars.c</text>
</a>
</g>
</g>
<!-- Node8&#45;&gt;Node9 -->
<g id="edge11" class="edge">
<title>Node8&#45;&gt;Node9</title>
<path fill="none" stroke="#63b8ff" d="M371.43,-111.96C378.57,-103 386.52,-93.03 392.79,-85.16"/>
<polygon fill="#63b8ff" stroke="#63b8ff" points="368.83,-109.61 365.33,-119.61 374.3,-113.97 368.83,-109.61"/>
</g>
<!-- Node10&#45;&gt;Node3 -->
<g id="edge13" class="edge">
<title>Node10&#45;&gt;Node3</title>
<path fill="none" stroke="#63b8ff" d="M522.82,-110.61C512.96,-92.15 496.79,-67.87 475.07,-55 425.05,-25.36 249.54,-14.8 177.4,-11.66"/>
<polygon fill="#63b8ff" stroke="#63b8ff" points="519.58,-111.96 527.21,-119.31 525.83,-108.81 519.58,-111.96"/>
</g>
<!-- Node11 -->
<g id="node11" class="node">
<title>Node11</title>
<g id="a_node11"><a xlink:href="../../d6/dc6/_f_m_c__files_8c.html" target="_top" xlink:title=" ">
<polygon fill="white" stroke="#666666" points="627.57,-79.5 522.57,-79.5 522.57,-60.5 627.57,-60.5 627.57,-79.5"/>
<text text-anchor="middle" x="575.07" y="-67.5" font-family="Helvetica,sans-Serif" font-size="10.00">src/files/FMC_files.c</text>
</a>
</g>
</g>
<!-- Node10&#45;&gt;Node11 -->
<g id="edge14" class="edge">
<title>Node10&#45;&gt;Node11</title>
<path fill="none" stroke="#63b8ff" d="M549.27,-111.28C556.3,-100.31 564.22,-87.94 569.41,-79.84"/>
<polygon fill="#63b8ff" stroke="#63b8ff" points="546.44,-109.21 543.99,-119.52 552.33,-112.99 546.44,-109.21"/>
</g>
<!-- Node12 -->
<g id="node12" class="node">
<title>Node12</title>
<g id="a_node12"><a xlink:href="../../da/d92/_f_m_c__paths_8c.html" target="_top" xlink:title=" ">
<polygon fill="white" stroke="#666666" points="758.07,-79.5 646.07,-79.5 646.07,-60.5 758.07,-60.5 758.07,-79.5"/>
<text text-anchor="middle" x="702.07" y="-67.5" font-family="Helvetica,sans-Serif" font-size="10.00">src/files/FMC_paths.c</text>
</a>
</g>
</g>
<!-- Node10&#45;&gt;Node12 -->
<g id="edge15" class="edge">
<title>Node10&#45;&gt;Node12</title>
<path fill="none" stroke="#63b8ff" d="M582.13,-116.69C613.69,-104.67 653.6,-89.47 678.49,-79.99"/>
<polygon fill="#63b8ff" stroke="#63b8ff" points="581.29,-113.27 573.19,-120.1 583.78,-119.81 581.29,-113.27"/>
</g>
<!-- Node13&#45;&gt;Node2 -->
<g id="edge17" class="edge">
<title>Node13&#45;&gt;Node2</title>
<path fill="none" stroke="#63b8ff" d="M207.09,-241.59C206.26,-231.06 205.36,-219.53 204.76,-211.84"/>
<polygon fill="#63b8ff" stroke="#63b8ff" points="203.58,-241.59 207.85,-251.29 210.56,-241.05 203.58,-241.59"/>
</g>
<!-- Node14&#45;&gt;Node2 -->
<g id="edge19" class="edge">
<title>Node14&#45;&gt;Node2</title>
<path fill="none" stroke="#63b8ff" d="M299.16,-247.75C273.94,-235.88 242.79,-221.22 223.17,-211.99"/>
<polygon fill="#63b8ff" stroke="#63b8ff" points="297.64,-250.9 308.18,-251.99 300.62,-244.57 297.64,-250.9"/>
</g>
<!-- Node15 -->
<g id="node15" class="node">
<title>Node15</title>
<g id="a_node15"><a xlink:href="../../d3/d3a/_f_m_c__errors_8c.html" target="_top" xlink:title=" ">
<polygon fill="white" stroke="#666666" points="399.07,-217 289.07,-217 289.07,-187 399.07,-187 399.07,-217"/>
<text text-anchor="start" x="297.07" y="-205" font-family="Helvetica,sans-Serif" font-size="10.00">src/general/utils/FMC</text>
<text text-anchor="middle" x="344.07" y="-194" font-family="Helvetica,sans-Serif" font-size="10.00">_errors.c</text>
</a>
</g>
</g>
<!-- Node14&#45;&gt;Node15 -->
<g id="edge20" class="edge">
<title>Node14&#45;&gt;Node15</title>
<path fill="none" stroke="#63b8ff" d="M341.67,-241.39C342.19,-233.13 342.74,-224.28 343.19,-217.16"/>
<polygon fill="#63b8ff" stroke="#63b8ff" points="338.19,-241.09 341.06,-251.29 345.17,-241.52 338.19,-241.09"/>
</g>
</g>
</svg>
