<?xml version="1.0" encoding="UTF-8" standalone="no"?>
<!DOCTYPE svg PUBLIC "-//W3C//DTD SVG 1.1//EN"
 "http://www.w3.org/Graphics/SVG/1.1/DTD/svg11.dtd">
<!-- Generated by graphviz version 7.1.0 (20230121.1956)
 -->
<!-- Title: src/FMC.h Pages: 1 -->
<svg width="907pt" height="434pt"
 viewBox="0.00 0.00 907.35 434.00" xmlns="http://www.w3.org/2000/svg" xmlns:xlink="http://www.w3.org/1999/xlink">
<g id="graph0" class="graph" transform="scale(1 1) rotate(0) translate(4 430)">
<title>src/FMC.h</title>
<!-- Node1 -->
<g id="node1" class="node">
<title>Node1</title>
<g id="a_node1"><a xlink:title=" ">
<polygon fill="#999999" stroke="#666666" points="555.35,-426 493.35,-426 493.35,-407 555.35,-407 555.35,-426"/>
<text text-anchor="middle" x="524.35" y="-414" font-family="Helvetica,sans-Serif" font-size="10.00">src/FMC.h</text>
</a>
</g>
</g>
<!-- Node2 -->
<g id="node2" class="node">
<title>Node2</title>
<g id="a_node2"><a xlink:href="../../d2/db5/_f_m_c__general_8h.html" target="_top" xlink:title=" ">
<polygon fill="white" stroke="#666666" points="433.85,-239 316.85,-239 316.85,-220 433.85,-220 433.85,-239"/>
<text text-anchor="middle" x="375.35" y="-227" font-family="Helvetica,sans-Serif" font-size="10.00">general/FMC_general.h</text>
</a>
</g>
</g>
<!-- Node1&#45;&gt;Node2 -->
<g id="edge1" class="edge">
<title>Node1&#45;&gt;Node2</title>
<path fill="none" stroke="#63b8ff" d="M548.5,-406.57C564.24,-399.43 583.75,-387.81 594.35,-371 617.18,-334.78 629.56,-308.06 602.35,-275 582.69,-251.11 504.47,-239.86 445.3,-234.69"/>
<polygon fill="#63b8ff" stroke="#63b8ff" points="445.88,-231.22 435.63,-233.88 445.31,-238.2 445.88,-231.22"/>
</g>
<!-- Node16 -->
<g id="node16" class="node">
<title>Node16</title>
<g id="a_node16"><a xlink:href="../../d7/de5/_f_m_c__code__utils_8h.html" target="_top" xlink:title=" ">
<polygon fill="white" stroke="#666666" points="262.85,-305 151.85,-305 151.85,-275 262.85,-275 262.85,-305"/>
<text text-anchor="start" x="159.85" y="-293" font-family="Helvetica,sans-Serif" font-size="10.00">code_utils/FMC_code</text>
<text text-anchor="middle" x="207.35" y="-282" font-family="Helvetica,sans-Serif" font-size="10.00">_utils.h</text>
</a>
</g>
</g>
<!-- Node1&#45;&gt;Node16 -->
<g id="edge29" class="edge">
<title>Node1&#45;&gt;Node16</title>
<path fill="none" stroke="#63b8ff" d="M493.25,-412.73C434.41,-407.06 309.4,-392.79 272.35,-371 249.68,-357.67 231.61,-333.27 220.34,-314.92"/>
<polygon fill="#63b8ff" stroke="#63b8ff" points="223.48,-313.36 215.41,-306.5 217.44,-316.9 223.48,-313.36"/>
</g>
<!-- Node17 -->
<g id="node17" class="node">
<title>Node17</title>
<g id="a_node17"><a xlink:href="../../d8/d29/_f_m_c__file__management_8h.html" target="_top" xlink:title=" ">
<polygon fill="white" stroke="#666666" points="426.85,-365.5 281.85,-365.5 281.85,-346.5 426.85,-346.5 426.85,-365.5"/>
<text text-anchor="middle" x="354.35" y="-353.5" font-family="Helvetica,sans-Serif" font-size="10.00">files/FMC_file_management.h</text>
</a>
</g>
</g>
<!-- Node1&#45;&gt;Node17 -->
<g id="edge31" class="edge">
<title>Node1&#45;&gt;Node17</title>
<path fill="none" stroke="#63b8ff" d="M498.53,-406.62C469.95,-396.78 423.64,-380.84 391.24,-369.69"/>
<polygon fill="#63b8ff" stroke="#63b8ff" points="392.44,-366.41 381.84,-366.46 390.16,-373.02 392.44,-366.41"/>
</g>
<!-- Node18 -->
<g id="node18" class="node">
<title>Node18</title>
<g id="a_node18"><a xlink:href="../../d7/d3a/_f_m_c__data__analyze_8h.html" target="_top" xlink:title=" ">
<polygon fill="white" stroke="#666666" points="585.35,-371 463.35,-371 463.35,-341 585.35,-341 585.35,-371"/>
<text text-anchor="start" x="471.35" y="-359" font-family="Helvetica,sans-Serif" font-size="10.00">data_analyze/FMC_data</text>
<text text-anchor="middle" x="524.35" y="-348" font-family="Helvetica,sans-Serif" font-size="10.00">_analyze.h</text>
</a>
</g>
</g>
<!-- Node1&#45;&gt;Node18 -->
<g id="edge33" class="edge">
<title>Node1&#45;&gt;Node18</title>
<path fill="none" stroke="#63b8ff" d="M524.35,-406.87C524.35,-400.4 524.35,-391.2 524.35,-382.45"/>
<polygon fill="#63b8ff" stroke="#63b8ff" points="527.85,-382.63 524.35,-372.63 520.85,-382.63 527.85,-382.63"/>
</g>
<!-- Node21 -->
<g id="node21" class="node">
<title>Node21</title>
<g id="a_node21"><a xlink:href="../../de/d04/_f_m_c__wrapper_8h.html" target="_top" xlink:title=" ">
<polygon fill="white" stroke="#666666" points="761.35,-184 657.35,-184 657.35,-165 761.35,-165 761.35,-184"/>
<text text-anchor="middle" x="709.35" y="-172" font-family="Helvetica,sans-Serif" font-size="10.00">cpp/FMC_wrapper.h</text>
</a>
</g>
</g>
<!-- Node1&#45;&gt;Node21 -->
<g id="edge38" class="edge">
<title>Node1&#45;&gt;Node21</title>
<path fill="none" stroke="#63b8ff" d="M555.62,-406.56C575.39,-399.58 600.32,-388.14 617.35,-371 668.66,-319.36 695.04,-233.67 704.81,-195.23"/>
<polygon fill="#63b8ff" stroke="#63b8ff" points="708.19,-196.13 707.14,-185.59 701.39,-194.49 708.19,-196.13"/>
</g>
<!-- Node3 -->
<g id="node3" class="node">
<title>Node3</title>
<g id="a_node3"><a xlink:href="../../d0/d07/_f_m_c__macros_8h.html" target="_top" xlink:title=" ">
<polygon fill="white" stroke="#666666" points="475.85,-74 332.85,-74 332.85,-55 475.85,-55 475.85,-74"/>
<text text-anchor="middle" x="404.35" y="-62" font-family="Helvetica,sans-Serif" font-size="10.00">preprocessor/FMC_macros.h</text>
</a>
</g>
</g>
<!-- Node2&#45;&gt;Node3 -->
<g id="edge2" class="edge">
<title>Node2&#45;&gt;Node3</title>
<path fill="none" stroke="#63b8ff" d="M316.45,-225.31C220.61,-219.52 39.59,-205.8 20.35,-184 14.76,-177.67 16.98,-172.74 20.35,-165 34.65,-132.13 46.96,-125.37 79.35,-110 120.93,-90.26 239.58,-77.71 321.39,-71.13"/>
<polygon fill="#63b8ff" stroke="#63b8ff" points="321.48,-74.64 331.17,-70.37 320.93,-67.66 321.48,-74.64"/>
</g>
<!-- Node4 -->
<g id="node4" class="node">
<title>Node4</title>
<g id="a_node4"><a xlink:href="../../d0/dc4/_f_m_c__platform_8h.html" target="_top" xlink:title=" ">
<polygon fill="white" stroke="#666666" points="173.35,-19 87.35,-19 87.35,0 173.35,0 173.35,-19"/>
<text text-anchor="middle" x="130.35" y="-7" font-family="Helvetica,sans-Serif" font-size="10.00">FMC_platform.h</text>
</a>
</g>
</g>
<!-- Node2&#45;&gt;Node4 -->
<g id="edge6" class="edge">
<title>Node2&#45;&gt;Node4</title>
<path fill="none" stroke="#63b8ff" d="M316.47,-225.47C219.05,-219.84 33.07,-206.29 13.35,-184 -33.97,-130.51 60.37,-56.87 106.71,-25.56"/>
<polygon fill="#63b8ff" stroke="#63b8ff" points="108.39,-28.65 114.8,-20.21 104.53,-22.81 108.39,-28.65"/>
</g>
<!-- Node6 -->
<g id="node6" class="node">
<title>Node6</title>
<g id="a_node6"><a xlink:href="../../d8/d6d/_f_m_c__consts_8h.html" target="_top" xlink:title=" ">
<polygon fill="white" stroke="#666666" points="307.35,-129 167.35,-129 167.35,-110 307.35,-110 307.35,-129"/>
<text text-anchor="middle" x="237.35" y="-117" font-family="Helvetica,sans-Serif" font-size="10.00">preprocessor/FMC_consts.h</text>
</a>
</g>
</g>
<!-- Node2&#45;&gt;Node6 -->
<g id="edge7" class="edge">
<title>Node2&#45;&gt;Node6</title>
<path fill="none" stroke="#63b8ff" d="M316.55,-223.53C263.76,-217.7 191.94,-205.91 174.35,-184 159.68,-165.73 184.19,-146.93 206.79,-134.58"/>
<polygon fill="#63b8ff" stroke="#63b8ff" points="208.25,-137.77 215.55,-130.08 205.05,-131.54 208.25,-137.77"/>
</g>
<!-- Node7 -->
<g id="node7" class="node">
<title>Node7</title>
<g id="a_node7"><a xlink:href="../../d5/d7a/_f_m_c__structs_8h.html" target="_top" xlink:title=" ">
<polygon fill="white" stroke="#666666" points="291.35,-184 183.35,-184 183.35,-165 291.35,-165 291.35,-184"/>
<text text-anchor="middle" x="237.35" y="-172" font-family="Helvetica,sans-Serif" font-size="10.00">types/FMC_structs.h</text>
</a>
</g>
</g>
<!-- Node2&#45;&gt;Node7 -->
<g id="edge8" class="edge">
<title>Node2&#45;&gt;Node7</title>
<path fill="none" stroke="#63b8ff" d="M351.94,-219.51C329.7,-210.97 296.02,-198.03 270.93,-188.4"/>
<polygon fill="#63b8ff" stroke="#63b8ff" points="272.42,-185.22 261.83,-184.9 269.91,-191.75 272.42,-185.22"/>
</g>
<!-- Node9 -->
<g id="node9" class="node">
<title>Node9</title>
<g id="a_node9"><a xlink:href="../../d9/dab/_f_m_c__enums_8h.html" target="_top" xlink:title=" ">
<polygon fill="white" stroke="#666666" points="444.35,-129 364.35,-129 364.35,-110 444.35,-110 444.35,-129"/>
<text text-anchor="middle" x="404.35" y="-117" font-family="Helvetica,sans-Serif" font-size="10.00">FMC_enums.h</text>
</a>
</g>
</g>
<!-- Node2&#45;&gt;Node9 -->
<g id="edge18" class="edge">
<title>Node2&#45;&gt;Node9</title>
<path fill="none" stroke="#63b8ff" d="M403.38,-219.57C419.94,-212.69 439.53,-201.36 449.35,-184 459.08,-166.79 442.99,-148.52 427.42,-136.01"/>
<polygon fill="#63b8ff" stroke="#63b8ff" points="429.83,-133.44 419.72,-130.27 425.65,-139.06 429.83,-133.44"/>
</g>
<!-- Node10 -->
<g id="node10" class="node">
<title>Node10</title>
<g id="a_node10"><a xlink:href="../../df/dc3/_f_m_c__typedefs_8h.html" target="_top" xlink:title=" ">
<polygon fill="white" stroke="#666666" points="550.35,-129 462.35,-129 462.35,-110 550.35,-110 550.35,-129"/>
<text text-anchor="middle" x="506.35" y="-117" font-family="Helvetica,sans-Serif" font-size="10.00">FMC_typedefs.h</text>
</a>
</g>
</g>
<!-- Node2&#45;&gt;Node10 -->
<g id="edge17" class="edge">
<title>Node2&#45;&gt;Node10</title>
<path fill="none" stroke="#63b8ff" d="M402.41,-219.53C421.57,-212.2 447.01,-200.36 465.35,-184 479.27,-171.58 490.38,-153.37 497.5,-139.63"/>
<polygon fill="#63b8ff" stroke="#63b8ff" points="500.6,-141.25 501.85,-130.72 494.32,-138.17 500.6,-141.25"/>
</g>
<!-- Node11 -->
<g id="node11" class="node">
<title>Node11</title>
<g id="a_node11"><a xlink:href="../../de/d25/_f_m_c__flags_8h.html" target="_top" xlink:title=" ">
<polygon fill="white" stroke="#666666" points="440.85,-184 309.85,-184 309.85,-165 440.85,-165 440.85,-184"/>
<text text-anchor="middle" x="375.35" y="-172" font-family="Helvetica,sans-Serif" font-size="10.00">preprocessor/FMC_flags.h</text>
</a>
</g>
</g>
<!-- Node2&#45;&gt;Node11 -->
<g id="edge16" class="edge">
<title>Node2&#45;&gt;Node11</title>
<path fill="none" stroke="#63b8ff" d="M375.35,-219.75C375.35,-213.27 375.35,-204.16 375.35,-195.9"/>
<polygon fill="#63b8ff" stroke="#63b8ff" points="378.85,-195.96 375.35,-185.96 371.85,-195.96 378.85,-195.96"/>
</g>
<!-- Node12 -->
<g id="node12" class="node">
<title>Node12</title>
<g id="a_node12"><a xlink:href="../../dc/de1/_f_m_c__errors_8h.html" target="_top" xlink:title=" ">
<polygon fill="white" stroke="#666666" points="126.85,-184 29.85,-184 29.85,-165 126.85,-165 126.85,-184"/>
<text text-anchor="middle" x="78.35" y="-172" font-family="Helvetica,sans-Serif" font-size="10.00">utils/FMC_errors.h</text>
</a>
</g>
</g>
<!-- Node2&#45;&gt;Node12 -->
<g id="edge19" class="edge">
<title>Node2&#45;&gt;Node12</title>
<path fill="none" stroke="#63b8ff" d="M324.97,-219.51C273.36,-210.3 193.14,-195.98 138.3,-186.2"/>
<polygon fill="#63b8ff" stroke="#63b8ff" points="138.95,-182.76 128.49,-184.45 137.72,-189.65 138.95,-182.76"/>
</g>
<!-- Node13 -->
<g id="node13" class="node">
<title>Node13</title>
<g id="a_node13"><a xlink:href="../../de/d83/_f_m_c__globals_8h.html" target="_top" xlink:title=" ">
<polygon fill="white" stroke="#666666" points="638.85,-184 535.85,-184 535.85,-165 638.85,-165 638.85,-184"/>
<text text-anchor="middle" x="587.35" y="-172" font-family="Helvetica,sans-Serif" font-size="10.00">utils/FMC_globals.h</text>
</a>
</g>
</g>
<!-- Node2&#45;&gt;Node13 -->
<g id="edge23" class="edge">
<title>Node2&#45;&gt;Node13</title>
<path fill="none" stroke="#63b8ff" d="M411.31,-219.51C446.9,-210.61 501.56,-196.95 540.52,-187.21"/>
<polygon fill="#63b8ff" stroke="#63b8ff" points="541.24,-190.63 550.1,-184.81 539.55,-183.84 541.24,-190.63"/>
</g>
<!-- Node14 -->
<g id="node14" class="node">
<title>Node14</title>
<g id="a_node14"><a xlink:href="../../d8/d32/_f_m_c__deprecated_8h.html" target="_top" xlink:title=" ">
<polygon fill="white" stroke="#666666" points="899.35,-184 779.35,-184 779.35,-165 899.35,-165 899.35,-184"/>
<text text-anchor="middle" x="839.35" y="-172" font-family="Helvetica,sans-Serif" font-size="10.00">utils/FMC_deprecated.h</text>
</a>
</g>
</g>
<!-- Node2&#45;&gt;Node14 -->
<g id="edge26" class="edge">
<title>Node2&#45;&gt;Node14</title>
<path fill="none" stroke="#63b8ff" d="M434.26,-222.06C509.21,-213.82 642.97,-198.96 767.86,-184.28"/>
<polygon fill="#63b8ff" stroke="#63b8ff" points="768.12,-187.78 777.64,-183.13 767.3,-180.82 768.12,-187.78"/>
</g>
<!-- Node3&#45;&gt;Node4 -->
<g id="edge3" class="edge">
<title>Node3&#45;&gt;Node4</title>
<path fill="none" stroke="#63b8ff" d="M357.87,-54.51C309.89,-45.23 235.1,-30.76 184.49,-20.97"/>
<polygon fill="#63b8ff" stroke="#63b8ff" points="185.41,-17.59 174.93,-19.12 184.08,-24.46 185.41,-17.59"/>
</g>
<!-- Node5 -->
<g id="node5" class="node">
<title>Node5</title>
<g id="a_node5"><a xlink:href="../../d4/d62/_f_m_c__attributes_8h.html" target="_top" xlink:title=" ">
<polygon fill="white" stroke="#666666" points="450.35,-19 358.35,-19 358.35,0 450.35,0 450.35,-19"/>
<text text-anchor="middle" x="404.35" y="-7" font-family="Helvetica,sans-Serif" font-size="10.00">FMC_attributes.h</text>
</a>
</g>
</g>
<!-- Node3&#45;&gt;Node5 -->
<g id="edge4" class="edge">
<title>Node3&#45;&gt;Node5</title>
<path fill="none" stroke="#63b8ff" d="M399.18,-54.75C397.77,-48.19 397.3,-38.95 397.78,-30.6"/>
<polygon fill="#63b8ff" stroke="#63b8ff" points="401.22,-31.3 398.96,-20.94 394.27,-30.45 401.22,-31.3"/>
</g>
<!-- Node5&#45;&gt;Node3 -->
<g id="edge5" class="edge">
<title>Node5&#45;&gt;Node3</title>
<path fill="none" stroke="#63b8ff" d="M409.56,-19.44C410.93,-25.97 411.39,-35.1 410.92,-43.35"/>
<polygon fill="#63b8ff" stroke="#63b8ff" points="407.45,-42.89 409.7,-53.25 414.4,-43.75 407.45,-42.89"/>
</g>
<!-- Node7&#45;&gt;Node3 -->
<g id="edge11" class="edge">
<title>Node7&#45;&gt;Node3</title>
<path fill="none" stroke="#63b8ff" d="M254.31,-164.66C270.53,-156.04 295.53,-142.32 316.35,-129 340.32,-113.67 366.64,-94.33 384.19,-81.04"/>
<polygon fill="#63b8ff" stroke="#63b8ff" points="385.93,-84.11 391.76,-75.26 381.69,-78.54 385.93,-84.11"/>
</g>
<!-- Node7&#45;&gt;Node6 -->
<g id="edge10" class="edge">
<title>Node7&#45;&gt;Node6</title>
<path fill="none" stroke="#63b8ff" d="M237.35,-164.75C237.35,-158.27 237.35,-149.16 237.35,-140.9"/>
<polygon fill="#63b8ff" stroke="#63b8ff" points="240.85,-140.96 237.35,-130.96 233.85,-140.96 240.85,-140.96"/>
</g>
<!-- Node8 -->
<g id="node8" class="node">
<title>Node8</title>
<g id="a_node8"><a xlink:title=" ">
<polygon fill="#e0e0e0" stroke="#999999" points="149.35,-129 103.35,-129 103.35,-110 149.35,-110 149.35,-129"/>
<text text-anchor="middle" x="126.35" y="-117" font-family="Helvetica,sans-Serif" font-size="10.00">stdio.h</text>
</a>
</g>
</g>
<!-- Node7&#45;&gt;Node8 -->
<g id="edge9" class="edge">
<title>Node7&#45;&gt;Node8</title>
<path fill="none" stroke="#63b8ff" d="M218.52,-164.51C201.19,-156.24 175.24,-143.84 155.28,-134.31"/>
<polygon fill="#63b8ff" stroke="#63b8ff" points="156.8,-131.16 146.27,-130.01 153.78,-137.48 156.8,-131.16"/>
</g>
<!-- Node7&#45;&gt;Node9 -->
<g id="edge12" class="edge">
<title>Node7&#45;&gt;Node9</title>
<path fill="none" stroke="#63b8ff" d="M265.68,-164.51C293.11,-155.8 334.93,-142.53 365.47,-132.84"/>
<polygon fill="#63b8ff" stroke="#63b8ff" points="366.24,-136.27 374.72,-129.9 364.13,-129.59 366.24,-136.27"/>
</g>
<!-- Node7&#45;&gt;Node10 -->
<g id="edge14" class="edge">
<title>Node7&#45;&gt;Node10</title>
<path fill="none" stroke="#63b8ff" d="M282.98,-164.51C329.43,-155.36 401.47,-141.16 451.11,-131.38"/>
<polygon fill="#63b8ff" stroke="#63b8ff" points="451.66,-134.84 460.8,-129.47 450.31,-127.97 451.66,-134.84"/>
</g>
<!-- Node9&#45;&gt;Node3 -->
<g id="edge13" class="edge">
<title>Node9&#45;&gt;Node3</title>
<path fill="none" stroke="#63b8ff" d="M404.35,-109.75C404.35,-103.27 404.35,-94.16 404.35,-85.9"/>
<polygon fill="#63b8ff" stroke="#63b8ff" points="407.85,-85.96 404.35,-75.96 400.85,-85.96 407.85,-85.96"/>
</g>
<!-- Node10&#45;&gt;Node3 -->
<g id="edge15" class="edge">
<title>Node10&#45;&gt;Node3</title>
<path fill="none" stroke="#63b8ff" d="M489.05,-109.51C473.27,-101.31 449.71,-89.07 431.44,-79.58"/>
<polygon fill="#63b8ff" stroke="#63b8ff" points="433.23,-76.56 422.74,-75.06 430,-82.77 433.23,-76.56"/>
</g>
<!-- Node12&#45;&gt;Node3 -->
<g id="edge22" class="edge">
<title>Node12&#45;&gt;Node3</title>
<path fill="none" stroke="#63b8ff" d="M77.75,-164.58C77.34,-150.68 78.81,-124 94.35,-110 126.85,-80.72 241,-70.67 321.29,-67.24"/>
<polygon fill="#63b8ff" stroke="#63b8ff" points="321.02,-70.75 330.87,-66.86 320.74,-63.76 321.02,-70.75"/>
</g>
<!-- Node12&#45;&gt;Node6 -->
<g id="edge21" class="edge">
<title>Node12&#45;&gt;Node6</title>
<path fill="none" stroke="#63b8ff" d="M105.32,-164.51C131.33,-155.84 170.9,-142.65 199.95,-132.97"/>
<polygon fill="#63b8ff" stroke="#63b8ff" points="200.69,-136.41 209.07,-129.92 198.48,-129.77 200.69,-136.41"/>
</g>
<!-- Node12&#45;&gt;Node8 -->
<g id="edge20" class="edge">
<title>Node12&#45;&gt;Node8</title>
<path fill="none" stroke="#63b8ff" d="M86.27,-164.75C92.91,-157.43 102.56,-146.76 110.74,-137.74"/>
<polygon fill="#63b8ff" stroke="#63b8ff" points="113.12,-140.33 117.23,-130.56 107.93,-135.63 113.12,-140.33"/>
</g>
<!-- Node13&#45;&gt;Node3 -->
<g id="edge25" class="edge">
<title>Node13&#45;&gt;Node3</title>
<path fill="none" stroke="#63b8ff" d="M585.91,-164.72C583.21,-151 576.05,-124.58 559.35,-110 539.32,-92.52 512.83,-81.89 487.42,-75.42"/>
<polygon fill="#63b8ff" stroke="#63b8ff" points="488.24,-72.02 477.71,-73.16 486.65,-78.84 488.24,-72.02"/>
</g>
<!-- Node13&#45;&gt;Node10 -->
<g id="edge24" class="edge">
<title>Node13&#45;&gt;Node10</title>
<path fill="none" stroke="#63b8ff" d="M573.61,-164.51C561.55,-156.62 543.76,-144.98 529.51,-135.65"/>
<polygon fill="#63b8ff" stroke="#63b8ff" points="531.44,-132.73 521.15,-130.19 527.6,-138.59 531.44,-132.73"/>
</g>
<!-- Node14&#45;&gt;Node5 -->
<g id="edge27" class="edge">
<title>Node14&#45;&gt;Node5</title>
<path fill="none" stroke="#63b8ff" d="M831.34,-164.74C818.37,-151.07 791.36,-124.7 763.35,-110 664.27,-58.02 535.16,-30.85 461.85,-18.7"/>
<polygon fill="#63b8ff" stroke="#63b8ff" points="462.5,-15.26 452.07,-17.12 461.39,-22.17 462.5,-15.26"/>
</g>
<!-- Node15 -->
<g id="node15" class="node">
<title>Node15</title>
<g id="a_node15"><a xlink:title=" ">
<polygon fill="#e0e0e0" stroke="#999999" points="753.85,-129 702.85,-129 702.85,-110 753.85,-110 753.85,-129"/>
<text text-anchor="middle" x="728.35" y="-117" font-family="Helvetica,sans-Serif" font-size="10.00">stddef.h</text>
</a>
</g>
</g>
<!-- Node14&#45;&gt;Node15 -->
<g id="edge28" class="edge">
<title>Node14&#45;&gt;Node15</title>
<path fill="none" stroke="#63b8ff" d="M820.52,-164.51C803.19,-156.24 777.24,-143.84 757.28,-134.31"/>
<polygon fill="#63b8ff" stroke="#63b8ff" points="758.8,-131.16 748.27,-130.01 755.78,-137.48 758.8,-131.16"/>
</g>
<!-- Node16&#45;&gt;Node2 -->
<g id="edge30" class="edge">
<title>Node16&#45;&gt;Node2</title>
<path fill="none" stroke="#63b8ff" d="M248.88,-274.54C276.59,-264.89 312.68,-252.32 339.21,-243.08"/>
<polygon fill="#63b8ff" stroke="#63b8ff" points="340.22,-246.44 348.51,-239.84 337.92,-239.83 340.22,-246.44"/>
</g>
<!-- Node17&#45;&gt;Node2 -->
<g id="edge32" class="edge">
<title>Node17&#45;&gt;Node2</title>
<path fill="none" stroke="#63b8ff" d="M343.19,-346.18C326.06,-331.49 296.6,-301.08 310.35,-275 317.28,-261.86 330.02,-251.86 342.4,-244.7"/>
<polygon fill="#63b8ff" stroke="#63b8ff" points="344.02,-247.81 351.24,-240.06 340.76,-241.61 344.02,-247.81"/>
</g>
<!-- Node19 -->
<g id="node19" class="node">
<title>Node19</title>
<g id="a_node19"><a xlink:href="../../d9/d1f/_f_m_c__encodings_8h.html" target="_top" xlink:title=" ">
<polygon fill="white" stroke="#666666" points="462.85,-299.5 319.85,-299.5 319.85,-280.5 462.85,-280.5 462.85,-299.5"/>
<text text-anchor="middle" x="391.35" y="-287.5" font-family="Helvetica,sans-Serif" font-size="10.00">encodings/FMC_encodings.h</text>
</a>
</g>
</g>
<!-- Node18&#45;&gt;Node19 -->
<g id="edge34" class="edge">
<title>Node18&#45;&gt;Node19</title>
<path fill="none" stroke="#63b8ff" d="M494.5,-340.64C472.36,-329.98 442.32,-315.53 420.38,-304.97"/>
<polygon fill="#63b8ff" stroke="#63b8ff" points="421.91,-301.82 411.39,-300.64 418.88,-308.13 421.91,-301.82"/>
</g>
<!-- Node20 -->
<g id="node20" class="node">
<title>Node20</title>
<g id="a_node20"><a xlink:href="../../d2/d1d/_f_m_c__strings_8h.html" target="_top" xlink:title=" ">
<polygon fill="white" stroke="#666666" points="593.85,-299.5 480.85,-299.5 480.85,-280.5 593.85,-280.5 593.85,-299.5"/>
<text text-anchor="middle" x="537.35" y="-287.5" font-family="Helvetica,sans-Serif" font-size="10.00">strings/FMC_strings.h</text>
</a>
</g>
</g>
<!-- Node18&#45;&gt;Node20 -->
<g id="edge36" class="edge">
<title>Node18&#45;&gt;Node20</title>
<path fill="none" stroke="#63b8ff" d="M527.23,-340.8C529.02,-331.99 531.35,-320.55 533.31,-310.86"/>
<polygon fill="#63b8ff" stroke="#63b8ff" points="536.69,-311.82 535.25,-301.33 529.83,-310.43 536.69,-311.82"/>
</g>
<!-- Node19&#45;&gt;Node2 -->
<g id="edge35" class="edge">
<title>Node19&#45;&gt;Node2</title>
<path fill="none" stroke="#63b8ff" d="M388.99,-280.37C386.81,-272.42 383.51,-260.33 380.7,-250.05"/>
<polygon fill="#63b8ff" stroke="#63b8ff" points="384.13,-249.35 378.12,-240.63 377.38,-251.2 384.13,-249.35"/>
</g>
<!-- Node20&#45;&gt;Node2 -->
<g id="edge37" class="edge">
<title>Node20&#45;&gt;Node2</title>
<path fill="none" stroke="#63b8ff" d="M512.74,-280.12C485.63,-270.32 441.77,-254.48 410.91,-243.34"/>
<polygon fill="#63b8ff" stroke="#63b8ff" points="412.2,-240.09 401.61,-239.98 409.82,-246.67 412.2,-240.09"/>
</g>
<!-- Node21&#45;&gt;Node3 -->
<g id="edge39" class="edge">
<title>Node21&#45;&gt;Node3</title>
<path fill="none" stroke="#63b8ff" d="M693.93,-164.58C670.2,-151.16 622.99,-125.69 580.35,-110 541.65,-95.76 496.53,-84.45 461.67,-76.8"/>
<polygon fill="#63b8ff" stroke="#63b8ff" points="462.72,-73.45 452.21,-74.76 461.25,-80.29 462.72,-73.45"/>
</g>
<!-- Node21&#45;&gt;Node15 -->
<g id="edge40" class="edge">
<title>Node21&#45;&gt;Node15</title>
<path fill="none" stroke="#63b8ff" d="M712.49,-164.75C714.89,-158.04 718.31,-148.52 721.35,-140.02"/>
<polygon fill="#63b8ff" stroke="#63b8ff" points="724.55,-141.46 724.63,-130.87 717.96,-139.1 724.55,-141.46"/>
</g>
</g>
</svg>
