<?xml version="1.0" encoding="UTF-8" standalone="no"?>
<!DOCTYPE svg PUBLIC "-//W3C//DTD SVG 1.1//EN"
 "http://www.w3.org/Graphics/SVG/1.1/DTD/svg11.dtd">
<!-- Generated by graphviz version 7.1.0 (20230121.1956)
 -->
<!-- Title: src/files/FMC_files.c Pages: 1 -->
<!--zoomable 357 -->
<svg id="main" version="1.1" xmlns="http://www.w3.org/2000/svg" xmlns:xlink="http://www.w3.org/1999/xlink" xml:space="preserve" onload="init(evt)">
<style type="text/css"><![CDATA[
.edge:hover path { stroke: red; }
.edge:hover polygon { stroke: red; fill: red; }
]]></style>
<script type="text/javascript"><![CDATA[
var edges = document.getElementsByTagName('g');
if (edges && edges.length) {
  for (var i=0;i<edges.length;i++) {
    if (edges[i].id.substr(0,4)=='edge') {
      edges[i].setAttribute('class','edge');
    }
  }
}
]]></script>
        <defs>
                <circle id="rim" cx="0" cy="0" r="7"/>
                <circle id="rim2" cx="0" cy="0" r="3.5"/>
                <g id="zoomPlus">
                        <use xlink:href="#rim" fill="#404040">
                                <set attributeName="fill" to="#808080" begin="zoomplus.mouseover" end="zoomplus.mouseout"/>
                        </use>
                        <path d="M-4,0h8M0,-4v8" fill="none" stroke="white" stroke-width="1.5" pointer-events="none"/>
                </g>
                <g id="zoomMin">
                        <use xlink:href="#rim" fill="#404040">
                                <set attributeName="fill" to="#808080" begin="zoomminus.mouseover" end="zoomminus.mouseout"/>
                        </use>
                        <path d="M-4,0h8" fill="none" stroke="white" stroke-width="1.5" pointer-events="none"/>
                </g>
                <g id="dirArrow">
                        <path fill="none" stroke="white" stroke-width="1.5" d="M0,-3.0v7 M-2.5,-0.5L0,-3.0L2.5,-0.5"/>
                </g>
               <g id="resetDef">
                       <use xlink:href="#rim2" fill="#404040">
                               <set attributeName="fill" to="#808080" begin="reset.mouseover" end="reset.mouseout"/>
                       </use>
               </g>
        </defs>

<script type="text/javascript">
var viewWidth = 800;
var viewHeight = 357;
var sectionId = 'dynsection-0';
</script>
<script xlink:href="../../svgpan.js"/>
<svg id="graph" class="graph">
<g id="viewport">
<title>src/files/FMC_files.c</title>
<!-- Node1 -->
<g id="node1" class="node">
<title>Node1</title>
<g id="a_node1"><a xlink:title=" ">
<polygon fill="#999999" stroke="#666666" points="303.5,-349 198.5,-349 198.5,-330 303.5,-330 303.5,-349"/>
<text text-anchor="middle" x="251" y="-337" font-family="Helvetica,sans-Serif" font-size="10.00">src/files/FMC_files.c</text>
</a>
</g>
</g>
<!-- Node2 -->
<g id="node2" class="node">
<title>Node2</title>
<g id="a_node2"><a xlink:href="../../d8/d29/_f_m_c__file__management_8h.html" target="_top" xlink:title=" ">
<polygon fill="white" stroke="#666666" points="313.5,-294 188.5,-294 188.5,-275 313.5,-275 313.5,-294"/>
<text text-anchor="middle" x="251" y="-282" font-family="Helvetica,sans-Serif" font-size="10.00">FMC_file_management.h</text>
</a>
</g>
</g>
<!-- Node1&#45;&gt;Node2 -->
<g id="edge1" class="edge">
<title>Node1&#45;&gt;Node2</title>
<path fill="none" stroke="#63b8ff" d="M251,-329.75C251,-323.27 251,-314.16 251,-305.9"/>
<polygon fill="#63b8ff" stroke="#63b8ff" points="254.5,-305.96 251,-295.96 247.5,-305.96 254.5,-305.96"/>
</g>
<!-- Node3 -->
<g id="node3" class="node">
<title>Node3</title>
<g id="a_node3"><a xlink:href="../../d2/db5/_f_m_c__general_8h.html" target="_top" xlink:title=" ">
<polygon fill="white" stroke="#666666" points="314,-239 188,-239 188,-220 314,-220 314,-239"/>
<text text-anchor="middle" x="251" y="-227" font-family="Helvetica,sans-Serif" font-size="10.00">../general/FMC_general.h</text>
</a>
</g>
</g>
<!-- Node2&#45;&gt;Node3 -->
<g id="edge2" class="edge">
<title>Node2&#45;&gt;Node3</title>
<path fill="none" stroke="#63b8ff" d="M251,-274.75C251,-268.27 251,-259.16 251,-250.9"/>
<polygon fill="#63b8ff" stroke="#63b8ff" points="254.5,-250.96 251,-240.96 247.5,-250.96 254.5,-250.96"/>
</g>
<!-- Node4 -->
<g id="node4" class="node">
<title>Node4</title>
<g id="a_node4"><a xlink:href="../../d0/d07/_f_m_c__macros_8h.html" target="_top" xlink:title=" ">
<polygon fill="white" stroke="#666666" points="241.5,-74 98.5,-74 98.5,-55 241.5,-55 241.5,-74"/>
<text text-anchor="middle" x="170" y="-62" font-family="Helvetica,sans-Serif" font-size="10.00">preprocessor/FMC_macros.h</text>
</a>
</g>
</g>
<!-- Node3&#45;&gt;Node4 -->
<g id="edge3" class="edge">
<title>Node3&#45;&gt;Node4</title>
<path fill="none" stroke="#63b8ff" d="M187.53,-224.4C129.73,-219.19 50.49,-207.83 31,-184 12.53,-161.43 40.18,-127.2 59,-110 75.42,-94.99 97.54,-84.75 117.72,-77.91"/>
<polygon fill="#63b8ff" stroke="#63b8ff" points="118.75,-81.26 127.23,-74.91 116.64,-74.58 118.75,-81.26"/>
</g>
<!-- Node5 -->
<g id="node5" class="node">
<title>Node5</title>
<g id="a_node5"><a xlink:href="../../d0/dc4/_f_m_c__platform_8h.html" target="_top" xlink:title=" ">
<polygon fill="white" stroke="#666666" points="86,-19 0,-19 0,0 86,0 86,-19"/>
<text text-anchor="middle" x="43" y="-7" font-family="Helvetica,sans-Serif" font-size="10.00">FMC_platform.h</text>
</a>
</g>
</g>
<!-- Node3&#45;&gt;Node5 -->
<g id="edge7" class="edge">
<title>Node3&#45;&gt;Node5</title>
<path fill="none" stroke="#63b8ff" d="M187.53,-225.05C126.9,-220.28 41.77,-209.18 21,-184 -16.14,-138.99 14.89,-63.77 32.66,-29.07"/>
<polygon fill="#63b8ff" stroke="#63b8ff" points="35.53,-31.12 37.15,-20.65 29.36,-27.83 35.53,-31.12"/>
</g>
<!-- Node7 -->
<g id="node7" class="node">
<title>Node7</title>
<g id="a_node7"><a xlink:href="../../d8/d6d/_f_m_c__consts_8h.html" target="_top" xlink:title=" ">
<polygon fill="white" stroke="#666666" points="521,-129 381,-129 381,-110 521,-110 521,-129"/>
<text text-anchor="middle" x="451" y="-117" font-family="Helvetica,sans-Serif" font-size="10.00">preprocessor/FMC_consts.h</text>
</a>
</g>
</g>
<!-- Node3&#45;&gt;Node7 -->
<g id="edge8" class="edge">
<title>Node3&#45;&gt;Node7</title>
<path fill="none" stroke="#63b8ff" d="M275.11,-219.61C296.57,-211.37 328.55,-198.26 355,-184 381.84,-169.53 410.79,-149.75 429.8,-136.13"/>
<polygon fill="#63b8ff" stroke="#63b8ff" points="431.74,-139.05 437.79,-130.34 427.64,-133.38 431.74,-139.05"/>
</g>
<!-- Node8 -->
<g id="node8" class="node">
<title>Node8</title>
<g id="a_node8"><a xlink:href="../../d5/d7a/_f_m_c__structs_8h.html" target="_top" xlink:title=" ">
<polygon fill="white" stroke="#666666" points="346,-184 238,-184 238,-165 346,-165 346,-184"/>
<text text-anchor="middle" x="292" y="-172" font-family="Helvetica,sans-Serif" font-size="10.00">types/FMC_structs.h</text>
</a>
</g>
</g>
<!-- Node3&#45;&gt;Node8 -->
<g id="edge9" class="edge">
<title>Node3&#45;&gt;Node8</title>
<path fill="none" stroke="#63b8ff" d="M257.77,-219.75C263.32,-212.58 271.34,-202.2 278.23,-193.3"/>
<polygon fill="#63b8ff" stroke="#63b8ff" points="280.81,-195.69 284.16,-185.64 275.27,-191.41 280.81,-195.69"/>
</g>
<!-- Node10 -->
<g id="node10" class="node">
<title>Node10</title>
<g id="a_node10"><a xlink:href="../../d9/dab/_f_m_c__enums_8h.html" target="_top" xlink:title=" ">
<polygon fill="white" stroke="#666666" points="261,-129 181,-129 181,-110 261,-110 261,-129"/>
<text text-anchor="middle" x="221" y="-117" font-family="Helvetica,sans-Serif" font-size="10.00">FMC_enums.h</text>
</a>
</g>
</g>
<!-- Node3&#45;&gt;Node10 -->
<g id="edge19" class="edge">
<title>Node3&#45;&gt;Node10</title>
<path fill="none" stroke="#63b8ff" d="M245.52,-219.66C240.38,-210.93 232.92,-197.04 229,-184 224.73,-169.8 222.73,-153.14 221.81,-140.45"/>
<polygon fill="#63b8ff" stroke="#63b8ff" points="225.32,-140.62 221.27,-130.83 218.33,-141.01 225.32,-140.62"/>
</g>
<!-- Node11 -->
<g id="node11" class="node">
<title>Node11</title>
<g id="a_node11"><a xlink:href="../../df/dc3/_f_m_c__typedefs_8h.html" target="_top" xlink:title=" ">
<polygon fill="white" stroke="#666666" points="163,-129 75,-129 75,-110 163,-110 163,-129"/>
<text text-anchor="middle" x="119" y="-117" font-family="Helvetica,sans-Serif" font-size="10.00">FMC_typedefs.h</text>
</a>
</g>
</g>
<!-- Node3&#45;&gt;Node11 -->
<g id="edge18" class="edge">
<title>Node3&#45;&gt;Node11</title>
<path fill="none" stroke="#63b8ff" d="M240.2,-219.66C217.96,-201.47 166.79,-159.6 138.57,-136.51"/>
<polygon fill="#63b8ff" stroke="#63b8ff" points="141.08,-134.04 131.12,-130.42 136.65,-139.46 141.08,-134.04"/>
</g>
<!-- Node12 -->
<g id="node12" class="node">
<title>Node12</title>
<g id="a_node12"><a xlink:href="../../de/d25/_f_m_c__flags_8h.html" target="_top" xlink:title=" ">
<polygon fill="white" stroke="#666666" points="791.5,-184 660.5,-184 660.5,-165 791.5,-165 791.5,-184"/>
<text text-anchor="middle" x="726" y="-172" font-family="Helvetica,sans-Serif" font-size="10.00">preprocessor/FMC_flags.h</text>
</a>
</g>
</g>
<!-- Node3&#45;&gt;Node12 -->
<g id="edge17" class="edge">
<title>Node3&#45;&gt;Node12</title>
<path fill="none" stroke="#63b8ff" d="M314.39,-221.49C390.96,-213.01 524.01,-198.25 648.87,-184.24"/>
<polygon fill="#63b8ff" stroke="#63b8ff" points="649.1,-187.73 658.65,-183.14 648.32,-180.78 649.1,-187.73"/>
</g>
<!-- Node13 -->
<g id="node13" class="node">
<title>Node13</title>
<g id="a_node13"><a xlink:href="../../dc/de1/_f_m_c__errors_8h.html" target="_top" xlink:title=" ">
<polygon fill="white" stroke="#666666" points="499.5,-184 402.5,-184 402.5,-165 499.5,-165 499.5,-184"/>
<text text-anchor="middle" x="451" y="-172" font-family="Helvetica,sans-Serif" font-size="10.00">utils/FMC_errors.h</text>
</a>
</g>
</g>
<!-- Node3&#45;&gt;Node13 -->
<g id="edge20" class="edge">
<title>Node3&#45;&gt;Node13</title>
<path fill="none" stroke="#63b8ff" d="M284.93,-219.51C318.36,-210.65 369.62,-197.07 406.35,-187.33"/>
<polygon fill="#63b8ff" stroke="#63b8ff" points="407.01,-190.78 415.78,-184.83 405.21,-184.01 407.01,-190.78"/>
</g>
<!-- Node14 -->
<g id="node14" class="node">
<title>Node14</title>
<g id="a_node14"><a xlink:href="../../de/d83/_f_m_c__globals_8h.html" target="_top" xlink:title=" ">
<polygon fill="white" stroke="#666666" points="143.5,-184 40.5,-184 40.5,-165 143.5,-165 143.5,-184"/>
<text text-anchor="middle" x="92" y="-172" font-family="Helvetica,sans-Serif" font-size="10.00">utils/FMC_globals.h</text>
</a>
</g>
</g>
<!-- Node3&#45;&gt;Node14 -->
<g id="edge24" class="edge">
<title>Node3&#45;&gt;Node14</title>
<path fill="none" stroke="#63b8ff" d="M224.03,-219.51C198.02,-210.84 158.45,-197.65 129.4,-187.97"/>
<polygon fill="#63b8ff" stroke="#63b8ff" points="130.87,-184.77 120.27,-184.92 128.65,-191.41 130.87,-184.77"/>
</g>
<!-- Node15 -->
<g id="node15" class="node">
<title>Node15</title>
<g id="a_node15"><a xlink:href="../../d8/d32/_f_m_c__deprecated_8h.html" target="_top" xlink:title=" ">
<polygon fill="white" stroke="#666666" points="642,-184 522,-184 522,-165 642,-165 642,-184"/>
<text text-anchor="middle" x="582" y="-172" font-family="Helvetica,sans-Serif" font-size="10.00">utils/FMC_deprecated.h</text>
</a>
</g>
</g>
<!-- Node3&#45;&gt;Node15 -->
<g id="edge27" class="edge">
<title>Node3&#45;&gt;Node15</title>
<path fill="none" stroke="#63b8ff" d="M307.15,-219.51C364.54,-210.32 453.67,-196.05 514.78,-186.26"/>
<polygon fill="#63b8ff" stroke="#63b8ff" points="515.04,-189.77 524.36,-184.73 513.93,-182.85 515.04,-189.77"/>
</g>
<!-- Node4&#45;&gt;Node5 -->
<g id="edge4" class="edge">
<title>Node4&#45;&gt;Node5</title>
<path fill="none" stroke="#63b8ff" d="M148.46,-54.51C128.26,-46.08 97.83,-33.38 74.84,-23.79"/>
<polygon fill="#63b8ff" stroke="#63b8ff" points="76.2,-20.56 65.62,-19.94 73.5,-27.02 76.2,-20.56"/>
</g>
<!-- Node6 -->
<g id="node6" class="node">
<title>Node6</title>
<g id="a_node6"><a xlink:href="../../d4/d62/_f_m_c__attributes_8h.html" target="_top" xlink:title=" ">
<polygon fill="white" stroke="#666666" points="216,-19 124,-19 124,0 216,0 216,-19"/>
<text text-anchor="middle" x="170" y="-7" font-family="Helvetica,sans-Serif" font-size="10.00">FMC_attributes.h</text>
</a>
</g>
</g>
<!-- Node4&#45;&gt;Node6 -->
<g id="edge5" class="edge">
<title>Node4&#45;&gt;Node6</title>
<path fill="none" stroke="#63b8ff" d="M164.83,-54.75C163.42,-48.19 162.96,-38.95 163.43,-30.6"/>
<polygon fill="#63b8ff" stroke="#63b8ff" points="166.87,-31.3 164.61,-20.94 159.92,-30.45 166.87,-31.3"/>
</g>
<!-- Node6&#45;&gt;Node4 -->
<g id="edge6" class="edge">
<title>Node6&#45;&gt;Node4</title>
<path fill="none" stroke="#63b8ff" d="M175.21,-19.44C176.58,-25.97 177.04,-35.1 176.57,-43.35"/>
<polygon fill="#63b8ff" stroke="#63b8ff" points="173.1,-42.89 175.35,-53.25 180.05,-43.75 173.1,-42.89"/>
</g>
<!-- Node8&#45;&gt;Node4 -->
<g id="edge12" class="edge">
<title>Node8&#45;&gt;Node4</title>
<path fill="none" stroke="#63b8ff" d="M291.15,-164.57C289.42,-151.14 284.36,-125.64 270,-110 256.42,-95.21 237.01,-85.05 218.9,-78.21"/>
<polygon fill="#63b8ff" stroke="#63b8ff" points="220.18,-74.95 209.58,-74.97 217.87,-81.56 220.18,-74.95"/>
</g>
<!-- Node8&#45;&gt;Node7 -->
<g id="edge11" class="edge">
<title>Node8&#45;&gt;Node7</title>
<path fill="none" stroke="#63b8ff" d="M318.97,-164.51C344.98,-155.84 384.55,-142.65 413.6,-132.97"/>
<polygon fill="#63b8ff" stroke="#63b8ff" points="414.35,-136.41 422.73,-129.92 412.13,-129.77 414.35,-136.41"/>
</g>
<!-- Node9 -->
<g id="node9" class="node">
<title>Node9</title>
<g id="a_node9"><a xlink:title=" ">
<polygon fill="#e0e0e0" stroke="#999999" points="363,-129 317,-129 317,-110 363,-110 363,-129"/>
<text text-anchor="middle" x="340" y="-117" font-family="Helvetica,sans-Serif" font-size="10.00">stdio.h</text>
</a>
</g>
</g>
<!-- Node8&#45;&gt;Node9 -->
<g id="edge10" class="edge">
<title>Node8&#45;&gt;Node9</title>
<path fill="none" stroke="#63b8ff" d="M299.93,-164.75C306.56,-157.43 316.22,-146.76 324.39,-137.74"/>
<polygon fill="#63b8ff" stroke="#63b8ff" points="326.77,-140.33 330.89,-130.56 321.58,-135.63 326.77,-140.33"/>
</g>
<!-- Node8&#45;&gt;Node10 -->
<g id="edge13" class="edge">
<title>Node8&#45;&gt;Node10</title>
<path fill="none" stroke="#63b8ff" d="M279.96,-164.51C269.59,-156.77 254.4,-145.43 242.03,-136.2"/>
<polygon fill="#63b8ff" stroke="#63b8ff" points="244.19,-133.44 234.08,-130.26 240,-139.05 244.19,-133.44"/>
</g>
<!-- Node8&#45;&gt;Node11 -->
<g id="edge15" class="edge">
<title>Node8&#45;&gt;Node11</title>
<path fill="none" stroke="#63b8ff" d="M262.65,-164.51C234.11,-155.76 190.54,-142.42 158.86,-132.71"/>
<polygon fill="#63b8ff" stroke="#63b8ff" points="160.24,-129.47 149.65,-129.89 158.19,-136.17 160.24,-129.47"/>
</g>
<!-- Node10&#45;&gt;Node4 -->
<g id="edge14" class="edge">
<title>Node10&#45;&gt;Node4</title>
<path fill="none" stroke="#63b8ff" d="M212.58,-109.75C205.53,-102.43 195.27,-91.76 186.59,-82.74"/>
<polygon fill="#63b8ff" stroke="#63b8ff" points="189.11,-80.31 179.65,-75.53 184.07,-85.17 189.11,-80.31"/>
</g>
<!-- Node11&#45;&gt;Node4 -->
<g id="edge16" class="edge">
<title>Node11&#45;&gt;Node4</title>
<path fill="none" stroke="#63b8ff" d="M127.42,-109.75C134.47,-102.43 144.73,-91.76 153.41,-82.74"/>
<polygon fill="#63b8ff" stroke="#63b8ff" points="155.93,-85.17 160.35,-75.53 150.89,-80.31 155.93,-85.17"/>
</g>
<!-- Node13&#45;&gt;Node4 -->
<g id="edge23" class="edge">
<title>Node13&#45;&gt;Node4</title>
<path fill="none" stroke="#63b8ff" d="M478.2,-164.5C508.23,-153.18 549.87,-132.48 530,-110 511.95,-89.58 353.75,-76.43 253.16,-70.06"/>
<polygon fill="#63b8ff" stroke="#63b8ff" points="253.51,-66.57 243.31,-69.44 253.07,-73.56 253.51,-66.57"/>
</g>
<!-- Node13&#45;&gt;Node7 -->
<g id="edge22" class="edge">
<title>Node13&#45;&gt;Node7</title>
<path fill="none" stroke="#63b8ff" d="M451,-164.75C451,-158.27 451,-149.16 451,-140.9"/>
<polygon fill="#63b8ff" stroke="#63b8ff" points="454.5,-140.96 451,-130.96 447.5,-140.96 454.5,-140.96"/>
</g>
<!-- Node13&#45;&gt;Node9 -->
<g id="edge21" class="edge">
<title>Node13&#45;&gt;Node9</title>
<path fill="none" stroke="#63b8ff" d="M432.17,-164.51C414.84,-156.24 388.89,-143.84 368.93,-134.31"/>
<polygon fill="#63b8ff" stroke="#63b8ff" points="370.45,-131.16 359.92,-130.01 367.43,-137.48 370.45,-131.16"/>
</g>
<!-- Node14&#45;&gt;Node4 -->
<g id="edge26" class="edge">
<title>Node14&#45;&gt;Node4</title>
<path fill="none" stroke="#63b8ff" d="M83.36,-164.77C71.84,-152.02 54.19,-127.9 66,-110 76.03,-94.8 92.45,-84.77 109.3,-78.16"/>
<polygon fill="#63b8ff" stroke="#63b8ff" points="110.1,-81.59 118.37,-74.97 107.78,-74.99 110.1,-81.59"/>
</g>
<!-- Node14&#45;&gt;Node11 -->
<g id="edge25" class="edge">
<title>Node14&#45;&gt;Node11</title>
<path fill="none" stroke="#63b8ff" d="M96.46,-164.75C99.95,-157.88 104.95,-148.08 109.35,-139.45"/>
<polygon fill="#63b8ff" stroke="#63b8ff" points="112.34,-141.29 113.76,-130.79 106.1,-138.11 112.34,-141.29"/>
</g>
<!-- Node15&#45;&gt;Node6 -->
<g id="edge28" class="edge">
<title>Node15&#45;&gt;Node6</title>
<path fill="none" stroke="#63b8ff" d="M579.44,-164.64C574.98,-150.81 564.47,-124.24 546,-110 451.07,-36.8 307,-17.28 227.58,-12.18"/>
<polygon fill="#63b8ff" stroke="#63b8ff" points="228.04,-8.7 217.86,-11.62 227.64,-15.69 228.04,-8.7"/>
</g>
<!-- Node16 -->
<g id="node16" class="node">
<title>Node16</title>
<g id="a_node16"><a xlink:title=" ">
<polygon fill="#e0e0e0" stroke="#999999" points="666.5,-129 615.5,-129 615.5,-110 666.5,-110 666.5,-129"/>
<text text-anchor="middle" x="641" y="-117" font-family="Helvetica,sans-Serif" font-size="10.00">stddef.h</text>
</a>
</g>
</g>
<!-- Node15&#45;&gt;Node16 -->
<g id="edge29" class="edge">
<title>Node15&#45;&gt;Node16</title>
<path fill="none" stroke="#63b8ff" d="M592.01,-164.51C600.37,-157 612.5,-146.1 622.6,-137.03"/>
<polygon fill="#63b8ff" stroke="#63b8ff" points="624.91,-139.66 630.01,-130.37 620.24,-134.45 624.91,-139.66"/>
</g>
</g>
</svg>
        <g id="navigator" transform="translate(0 0)" fill="#404254">
                <rect fill="#f2f5e9" fill-opacity="0.5" stroke="#606060" stroke-width=".5" x="0" y="0" width="60" height="60"/>
                <use id="zoomplus" xlink:href="#zoomPlus" x="17" y="9" onmousedown="handleZoom(evt,'in')"/>
                <use id="zoomminus" xlink:href="#zoomMin" x="42" y="9" onmousedown="handleZoom(evt,'out')"/>
                <use id="reset" xlink:href="#resetDef" x="30" y="36" onmousedown="handleReset()"/>
                <g id="arrowUp" xlink:href="#dirArrow" transform="translate(30 24)" onmousedown="handlePan(0,-1)">
                  <use xlink:href="#rim" fill="#404040">
                        <set attributeName="fill" to="#808080" begin="arrowUp.mouseover" end="arrowUp.mouseout"/>
                  </use>
                  <path fill="none" stroke="white" stroke-width="1.5" d="M0,-3.0v7 M-2.5,-0.5L0,-3.0L2.5,-0.5"/>
                </g>
                <g id="arrowRight" xlink:href="#dirArrow" transform="rotate(90) translate(36 -43)" onmousedown="handlePan(1,0)">
                  <use xlink:href="#rim" fill="#404040">
                        <set attributeName="fill" to="#808080" begin="arrowRight.mouseover" end="arrowRight.mouseout"/>
                  </use>
                  <path fill="none" stroke="white" stroke-width="1.5" d="M0,-3.0v7 M-2.5,-0.5L0,-3.0L2.5,-0.5"/>
                </g>
                <g id="arrowDown" xlink:href="#dirArrow" transform="rotate(180) translate(-30 -48)" onmousedown="handlePan(0,1)">
                  <use xlink:href="#rim" fill="#404040">
                        <set attributeName="fill" to="#808080" begin="arrowDown.mouseover" end="arrowDown.mouseout"/>
                  </use>
                  <path fill="none" stroke="white" stroke-width="1.5" d="M0,-3.0v7 M-2.5,-0.5L0,-3.0L2.5,-0.5"/>
                </g>
                <g id="arrowLeft" xlink:href="#dirArrow" transform="rotate(270) translate(-36 17)" onmousedown="handlePan(-1,0)">
                  <use xlink:href="#rim" fill="#404040">
                        <set attributeName="fill" to="#808080" begin="arrowLeft.mouseover" end="arrowLeft.mouseout"/>
                  </use>
                  <path fill="none" stroke="white" stroke-width="1.5" d="M0,-3.0v7 M-2.5,-0.5L0,-3.0L2.5,-0.5"/>
                </g>
        </g>
        <svg viewBox="0 0 15 15" width="100%" height="30px" preserveAspectRatio="xMaxYMin meet">
         <g id="arrow_out" transform="scale(0.3 0.3)">
          <a xlink:href="_f_m_c__files_8c__incl_org.svg" target="_base">
           <rect id="button" ry="5" rx="5" y="6" x="6" height="38" width="38"
                fill="#f2f5e9" fill-opacity="0.5" stroke="#606060" stroke-width="1.0"/>
           <path id="arrow"
             d="M 11.500037,31.436501 C 11.940474,20.09759 22.043105,11.32322 32.158766,21.979434 L 37.068811,17.246167 C 37.068811,17.246167 37.088388,32 37.088388,32 L 22.160133,31.978069 C 22.160133,31.978069 26.997745,27.140456 26.997745,27.140456 C 18.528582,18.264221 13.291696,25.230495 11.500037,31.436501 z"
             style="fill:#404040;"/>
          </a>
         </g>
        </svg>
</svg>
