<?xml version="1.0" encoding="UTF-8" standalone="no"?>
<!DOCTYPE svg PUBLIC "-//W3C//DTD SVG 1.1//EN"
 "http://www.w3.org/Graphics/SVG/1.1/DTD/svg11.dtd">
<!-- Generated by graphviz version 2.43.0 (0)
 -->
<!-- Title: src/files/FMC_file_management.h Pages: 1 -->
<svg width="1018pt" height="313pt"
 viewBox="0.00 0.00 1017.59 313.00" xmlns="http://www.w3.org/2000/svg" xmlns:xlink="http://www.w3.org/1999/xlink">
<g id="graph0" class="graph" transform="scale(1 1) rotate(0) translate(4 309)">
<title>src/files/FMC_file_management.h</title>
<!-- Node1 -->
<g id="node1" class="node">
<title>Node1</title>
<g id="a_node1"><a xlink:title=" ">
<polygon fill="#999999" stroke="#666666" points="432.59,-305 333.59,-305 333.59,-275 432.59,-275 432.59,-305"/>
<text text-anchor="start" x="341.59" y="-293" font-family="Helvetica,sans-Serif" font-size="10.00">src/files/FMC_file</text>
<text text-anchor="middle" x="383.09" y="-282" font-family="Helvetica,sans-Serif" font-size="10.00">_management.h</text>
</a>
</g>
</g>
<!-- Node2 -->
<g id="node2" class="node">
<title>Node2</title>
<g id="a_node2"><a xlink:href="../../d9/de1/FMC__general_8h.html" target="_top" xlink:title=" ">
<polygon fill="white" stroke="#666666" points="452.09,-239 314.09,-239 314.09,-220 452.09,-220 452.09,-239"/>
<text text-anchor="middle" x="383.09" y="-227" font-family="Helvetica,sans-Serif" font-size="10.00">../general/FMC_general.h</text>
</a>
</g>
</g>
<!-- Node1&#45;&gt;Node2 -->
<g id="edge1" class="edge">
<title>Node1&#45;&gt;Node2</title>
<path fill="none" stroke="#63b8ff" d="M383.09,-274.84C383.09,-267.21 383.09,-257.7 383.09,-249.45"/>
<polygon fill="#63b8ff" stroke="#63b8ff" points="386.59,-249.27 383.09,-239.27 379.59,-249.27 386.59,-249.27"/>
</g>
<!-- Node3 -->
<g id="node3" class="node">
<title>Node3</title>
<g id="a_node3"><a xlink:href="../../d0/d28/FMC__macros_8h.html" target="_top" xlink:title=" ">
<polygon fill="white" stroke="#666666" points="282.59,-74 127.59,-74 127.59,-55 282.59,-55 282.59,-74"/>
<text text-anchor="middle" x="205.09" y="-62" font-family="Helvetica,sans-Serif" font-size="10.00">preprocessor/FMC_macros.h</text>
</a>
</g>
</g>
<!-- Node2&#45;&gt;Node3 -->
<g id="edge2" class="edge">
<title>Node2&#45;&gt;Node3</title>
<path fill="none" stroke="#63b8ff" d="M314.04,-227.53C251.99,-224.51 159.46,-214.61 85.09,-184 46.86,-168.27 28.77,-165.87 10.09,-129 6.27,-121.47 4.82,-116.6 10.09,-110 23.88,-92.71 72.21,-81.61 117.31,-74.82"/>
<polygon fill="#63b8ff" stroke="#63b8ff" points="118.07,-78.25 127.47,-73.35 117.07,-71.32 118.07,-78.25"/>
</g>
<!-- Node4 -->
<g id="node4" class="node">
<title>Node4</title>
<g id="a_node4"><a xlink:href="../../d7/dff/FMC__platform_8h.html" target="_top" xlink:title=" ">
<polygon fill="white" stroke="#666666" points="104.59,-19 9.59,-19 9.59,0 104.59,0 104.59,-19"/>
<text text-anchor="middle" x="57.09" y="-7" font-family="Helvetica,sans-Serif" font-size="10.00">FMC_platform.h</text>
</a>
</g>
</g>
<!-- Node2&#45;&gt;Node4 -->
<g id="edge6" class="edge">
<title>Node2&#45;&gt;Node4</title>
<path fill="none" stroke="#63b8ff" d="M313.97,-226.44C226.7,-222.67 82.56,-212.26 38.09,-184 7.38,-164.48 -5.86,-145.26 3.09,-110 11.07,-78.57 31.19,-46.32 44.49,-27.36"/>
<polygon fill="#63b8ff" stroke="#63b8ff" points="47.38,-29.35 50.39,-19.19 41.7,-25.25 47.38,-29.35"/>
</g>
<!-- Node6 -->
<g id="node6" class="node">
<title>Node6</title>
<g id="a_node6"><a xlink:href="../../da/dd3/FMC__consts_8h.html" target="_top" xlink:title=" ">
<polygon fill="white" stroke="#666666" points="531.09,-129 381.09,-129 381.09,-110 531.09,-110 531.09,-129"/>
<text text-anchor="middle" x="456.09" y="-117" font-family="Helvetica,sans-Serif" font-size="10.00">preprocessor/FMC_consts.h</text>
</a>
</g>
</g>
<!-- Node2&#45;&gt;Node6 -->
<g id="edge7" class="edge">
<title>Node2&#45;&gt;Node6</title>
<path fill="none" stroke="#63b8ff" d="M389.06,-219.66C401.15,-201.77 428.71,-161 444.47,-137.69"/>
<polygon fill="#63b8ff" stroke="#63b8ff" points="447.54,-139.4 450.24,-129.16 441.74,-135.48 447.54,-139.4"/>
</g>
<!-- Node7 -->
<g id="node7" class="node">
<title>Node7</title>
<g id="a_node7"><a xlink:href="../../d5/de5/FMC__structs_8h.html" target="_top" xlink:title=" ">
<polygon fill="white" stroke="#666666" points="234.09,-184 118.09,-184 118.09,-165 234.09,-165 234.09,-184"/>
<text text-anchor="middle" x="176.09" y="-172" font-family="Helvetica,sans-Serif" font-size="10.00">types/FMC_structs.h</text>
</a>
</g>
</g>
<!-- Node2&#45;&gt;Node7 -->
<g id="edge8" class="edge">
<title>Node2&#45;&gt;Node7</title>
<path fill="none" stroke="#63b8ff" d="M349.83,-219.98C314.48,-210.93 258.42,-196.58 219.58,-186.64"/>
<polygon fill="#63b8ff" stroke="#63b8ff" points="220.16,-183.17 209.61,-184.08 218.43,-189.95 220.16,-183.17"/>
</g>
<!-- Node9 -->
<g id="node9" class="node">
<title>Node9</title>
<g id="a_node9"><a xlink:href="../../d6/d25/FMC__enums_8h.html" target="_top" xlink:title=" ">
<polygon fill="white" stroke="#666666" points="105.09,-129 19.09,-129 19.09,-110 105.09,-110 105.09,-129"/>
<text text-anchor="middle" x="62.09" y="-117" font-family="Helvetica,sans-Serif" font-size="10.00">FMC_enums.h</text>
</a>
</g>
</g>
<!-- Node2&#45;&gt;Node9 -->
<g id="edge18" class="edge">
<title>Node2&#45;&gt;Node9</title>
<path fill="none" stroke="#63b8ff" d="M313.84,-223.21C244.23,-216.85 142.58,-204.41 109.09,-184 91.39,-173.21 78.21,-153.03 70.38,-138.31"/>
<polygon fill="#63b8ff" stroke="#63b8ff" points="73.42,-136.56 65.82,-129.17 67.15,-139.68 73.42,-136.56"/>
</g>
<!-- Node10 -->
<g id="node10" class="node">
<title>Node10</title>
<g id="a_node10"><a xlink:href="../../df/df8/FMC__typedefs_8h.html" target="_top" xlink:title=" ">
<polygon fill="white" stroke="#666666" points="324.59,-129 229.59,-129 229.59,-110 324.59,-110 324.59,-129"/>
<text text-anchor="middle" x="277.09" y="-117" font-family="Helvetica,sans-Serif" font-size="10.00">FMC_typedefs.h</text>
</a>
</g>
</g>
<!-- Node2&#45;&gt;Node10 -->
<g id="edge17" class="edge">
<title>Node2&#45;&gt;Node10</title>
<path fill="none" stroke="#63b8ff" d="M338.87,-219.96C318.23,-213.61 295.34,-202.67 282.09,-184 272.99,-171.18 272.45,-153.01 273.78,-139.39"/>
<polygon fill="#63b8ff" stroke="#63b8ff" points="277.28,-139.62 275.18,-129.24 270.35,-138.66 277.28,-139.62"/>
</g>
<!-- Node11 -->
<g id="node11" class="node">
<title>Node11</title>
<g id="a_node11"><a xlink:href="../../d2/d5e/FMC__flags_8h.html" target="_top" xlink:title=" ">
<polygon fill="white" stroke="#666666" points="874.09,-184 732.09,-184 732.09,-165 874.09,-165 874.09,-184"/>
<text text-anchor="middle" x="803.09" y="-172" font-family="Helvetica,sans-Serif" font-size="10.00">preprocessor/FMC_flags.h</text>
</a>
</g>
</g>
<!-- Node2&#45;&gt;Node11 -->
<g id="edge16" class="edge">
<title>Node2&#45;&gt;Node11</title>
<path fill="none" stroke="#63b8ff" d="M450.57,-219.98C525.47,-210.53 646.16,-195.3 725.06,-185.35"/>
<polygon fill="#63b8ff" stroke="#63b8ff" points="725.94,-188.76 735.43,-184.04 725.07,-181.82 725.94,-188.76"/>
</g>
<!-- Node12 -->
<g id="node12" class="node">
<title>Node12</title>
<g id="a_node12"><a xlink:href="../../dd/ddf/FMC__errors_8h.html" target="_top" xlink:title=" ">
<polygon fill="white" stroke="#666666" points="395.59,-184 290.59,-184 290.59,-165 395.59,-165 395.59,-184"/>
<text text-anchor="middle" x="343.09" y="-172" font-family="Helvetica,sans-Serif" font-size="10.00">utils/FMC_errors.h</text>
</a>
</g>
</g>
<!-- Node2&#45;&gt;Node12 -->
<g id="edge19" class="edge">
<title>Node2&#45;&gt;Node12</title>
<path fill="none" stroke="#63b8ff" d="M376.48,-219.75C370.83,-212.26 362.54,-201.28 355.64,-192.13"/>
<polygon fill="#63b8ff" stroke="#63b8ff" points="358.39,-189.96 349.57,-184.09 352.8,-194.18 358.39,-189.96"/>
</g>
<!-- Node13 -->
<g id="node13" class="node">
<title>Node13</title>
<g id="a_node13"><a xlink:href="../../de/d86/FMC__globals_8h.html" target="_top" xlink:title=" ">
<polygon fill="white" stroke="#666666" points="564.09,-184 452.09,-184 452.09,-165 564.09,-165 564.09,-184"/>
<text text-anchor="middle" x="508.09" y="-172" font-family="Helvetica,sans-Serif" font-size="10.00">utils/FMC_globals.h</text>
</a>
</g>
</g>
<!-- Node2&#45;&gt;Node13 -->
<g id="edge23" class="edge">
<title>Node2&#45;&gt;Node13</title>
<path fill="none" stroke="#63b8ff" d="M403.17,-219.98C423.46,-211.38 455.04,-197.99 478.26,-188.15"/>
<polygon fill="#63b8ff" stroke="#63b8ff" points="479.8,-191.3 487.64,-184.17 477.07,-184.85 479.8,-191.3"/>
</g>
<!-- Node14 -->
<g id="node14" class="node">
<title>Node14</title>
<g id="a_node14"><a xlink:href="../../d4/d06/FMC__deprecated_8h.html" target="_top" xlink:title=" ">
<polygon fill="white" stroke="#666666" points="713.59,-184 582.59,-184 582.59,-165 713.59,-165 713.59,-184"/>
<text text-anchor="middle" x="648.09" y="-172" font-family="Helvetica,sans-Serif" font-size="10.00">utils/FMC_deprecated.h</text>
</a>
</g>
</g>
<!-- Node2&#45;&gt;Node14 -->
<g id="edge27" class="edge">
<title>Node2&#45;&gt;Node14</title>
<path fill="none" stroke="#63b8ff" d="M425.67,-219.98C471.79,-210.76 545.45,-196.03 595.24,-186.07"/>
<polygon fill="#63b8ff" stroke="#63b8ff" points="596.06,-189.48 605.18,-184.08 594.69,-182.61 596.06,-189.48"/>
</g>
<!-- Node16 -->
<g id="node16" class="node">
<title>Node16</title>
<g id="a_node16"><a xlink:href="../../da/d45/FMC__str__view_8h.html" target="_top" xlink:title=" ">
<polygon fill="white" stroke="#666666" points="1009.59,-184 892.59,-184 892.59,-165 1009.59,-165 1009.59,-184"/>
<text text-anchor="middle" x="951.09" y="-172" font-family="Helvetica,sans-Serif" font-size="10.00">utils/FMC_str_view.h</text>
</a>
</g>
</g>
<!-- Node2&#45;&gt;Node16 -->
<g id="edge30" class="edge">
<title>Node2&#45;&gt;Node16</title>
<path fill="none" stroke="#63b8ff" d="M452.36,-222.62C547.52,-214.81 723.74,-200.08 874.09,-184 876.77,-183.71 879.51,-183.41 882.28,-183.1"/>
<polygon fill="#63b8ff" stroke="#63b8ff" points="882.88,-186.55 892.41,-181.92 882.08,-179.6 882.88,-186.55"/>
</g>
<!-- Node3&#45;&gt;Node4 -->
<g id="edge3" class="edge">
<title>Node3&#45;&gt;Node4</title>
<path fill="none" stroke="#63b8ff" d="M181.31,-54.98C156.86,-46.23 118.55,-32.51 90.94,-22.62"/>
<polygon fill="#63b8ff" stroke="#63b8ff" points="91.89,-19.25 81.3,-19.17 89.53,-25.84 91.89,-19.25"/>
</g>
<!-- Node5 -->
<g id="node5" class="node">
<title>Node5</title>
<g id="a_node5"><a xlink:href="../../d1/d2e/FMC__attributes_8h.html" target="_top" xlink:title=" ">
<polygon fill="white" stroke="#666666" points="255.09,-19 155.09,-19 155.09,0 255.09,0 255.09,-19"/>
<text text-anchor="middle" x="205.09" y="-7" font-family="Helvetica,sans-Serif" font-size="10.00">FMC_attributes.h</text>
</a>
</g>
</g>
<!-- Node3&#45;&gt;Node5 -->
<g id="edge4" class="edge">
<title>Node3&#45;&gt;Node5</title>
<path fill="none" stroke="#63b8ff" d="M199.92,-54.75C198.43,-47.8 197.99,-37.85 198.61,-29.13"/>
<polygon fill="#63b8ff" stroke="#63b8ff" points="202.1,-29.47 199.96,-19.09 195.16,-28.53 202.1,-29.47"/>
</g>
<!-- Node5&#45;&gt;Node3 -->
<g id="edge5" class="edge">
<title>Node5&#45;&gt;Node3</title>
<path fill="none" stroke="#63b8ff" d="M210.22,-19.09C211.73,-25.99 212.18,-35.93 211.58,-44.66"/>
<polygon fill="#63b8ff" stroke="#63b8ff" points="208.09,-44.38 210.25,-54.75 215.03,-45.29 208.09,-44.38"/>
</g>
<!-- Node7&#45;&gt;Node3 -->
<g id="edge11" class="edge">
<title>Node7&#45;&gt;Node3</title>
<path fill="none" stroke="#63b8ff" d="M168.29,-164.7C158.29,-152.29 143.23,-129.01 152.09,-110 157.92,-97.49 169.18,-87.25 179.83,-79.76"/>
<polygon fill="#63b8ff" stroke="#63b8ff" points="182.03,-82.51 188.5,-74.13 178.21,-76.64 182.03,-82.51"/>
</g>
<!-- Node7&#45;&gt;Node6 -->
<g id="edge10" class="edge">
<title>Node7&#45;&gt;Node6</title>
<path fill="none" stroke="#63b8ff" d="M221.08,-164.98C270.02,-155.72 348.29,-140.9 400.91,-130.94"/>
<polygon fill="#63b8ff" stroke="#63b8ff" points="401.57,-134.38 410.75,-129.08 400.27,-127.5 401.57,-134.38"/>
</g>
<!-- Node8 -->
<g id="node8" class="node">
<title>Node8</title>
<g id="a_node8"><a xlink:title=" ">
<polygon fill="#e0e0e0" stroke="#999999" points="211.09,-129 161.09,-129 161.09,-110 211.09,-110 211.09,-129"/>
<text text-anchor="middle" x="186.09" y="-117" font-family="Helvetica,sans-Serif" font-size="10.00">stdio.h</text>
</a>
</g>
</g>
<!-- Node7&#45;&gt;Node8 -->
<g id="edge9" class="edge">
<title>Node7&#45;&gt;Node8</title>
<path fill="none" stroke="#63b8ff" d="M177.74,-164.75C179.05,-157.8 180.93,-147.85 182.57,-139.13"/>
<polygon fill="#63b8ff" stroke="#63b8ff" points="186.05,-139.56 184.47,-129.09 179.17,-138.27 186.05,-139.56"/>
</g>
<!-- Node7&#45;&gt;Node9 -->
<g id="edge12" class="edge">
<title>Node7&#45;&gt;Node9</title>
<path fill="none" stroke="#63b8ff" d="M157.77,-164.98C139.43,-156.46 110.98,-143.23 89.86,-133.41"/>
<polygon fill="#63b8ff" stroke="#63b8ff" points="91.28,-130.21 80.74,-129.17 88.33,-136.56 91.28,-130.21"/>
</g>
<!-- Node7&#45;&gt;Node10 -->
<g id="edge14" class="edge">
<title>Node7&#45;&gt;Node10</title>
<path fill="none" stroke="#63b8ff" d="M192.32,-164.98C208.27,-156.61 232.87,-143.7 251.47,-133.95"/>
<polygon fill="#63b8ff" stroke="#63b8ff" points="253.34,-136.92 260.57,-129.17 250.08,-130.72 253.34,-136.92"/>
</g>
<!-- Node9&#45;&gt;Node3 -->
<g id="edge13" class="edge">
<title>Node9&#45;&gt;Node3</title>
<path fill="none" stroke="#63b8ff" d="M85.06,-109.98C108.59,-101.27 145.38,-87.63 172.03,-77.75"/>
<polygon fill="#63b8ff" stroke="#63b8ff" points="173.53,-80.93 181.7,-74.17 171.1,-74.36 173.53,-80.93"/>
</g>
<!-- Node10&#45;&gt;Node3 -->
<g id="edge15" class="edge">
<title>Node10&#45;&gt;Node3</title>
<path fill="none" stroke="#63b8ff" d="M265.52,-109.98C254.67,-102 238.21,-89.88 225.21,-80.31"/>
<polygon fill="#63b8ff" stroke="#63b8ff" points="227,-77.28 216.87,-74.17 222.85,-82.92 227,-77.28"/>
</g>
<!-- Node12&#45;&gt;Node3 -->
<g id="edge22" class="edge">
<title>Node12&#45;&gt;Node3</title>
<path fill="none" stroke="#63b8ff" d="M344.5,-164.57C346.09,-151.13 346.98,-125.63 334.09,-110 320.75,-93.82 301.21,-83.51 281.35,-76.95"/>
<polygon fill="#63b8ff" stroke="#63b8ff" points="282.19,-73.54 271.61,-74.01 280.17,-80.25 282.19,-73.54"/>
</g>
<!-- Node12&#45;&gt;Node6 -->
<g id="edge21" class="edge">
<title>Node12&#45;&gt;Node6</title>
<path fill="none" stroke="#63b8ff" d="M361.24,-164.98C379.34,-156.5 407.37,-143.35 428.28,-133.54"/>
<polygon fill="#63b8ff" stroke="#63b8ff" points="430.04,-136.59 437.6,-129.17 427.06,-130.25 430.04,-136.59"/>
</g>
<!-- Node12&#45;&gt;Node8 -->
<g id="edge20" class="edge">
<title>Node12&#45;&gt;Node8</title>
<path fill="none" stroke="#63b8ff" d="M317.86,-164.98C291.66,-156.14 250.45,-142.23 221.09,-132.32"/>
<polygon fill="#63b8ff" stroke="#63b8ff" points="221.85,-128.88 211.25,-128.99 219.61,-135.51 221.85,-128.88"/>
</g>
<!-- Node13&#45;&gt;Node3 -->
<g id="edge25" class="edge">
<title>Node13&#45;&gt;Node3</title>
<path fill="none" stroke="#63b8ff" d="M518.28,-164.89C532.47,-151.87 554.89,-126.9 540.09,-110 523.96,-91.58 386.44,-78.26 292.69,-71.23"/>
<polygon fill="#63b8ff" stroke="#63b8ff" points="292.86,-67.73 282.63,-70.48 292.34,-74.71 292.86,-67.73"/>
</g>
<!-- Node13&#45;&gt;Node6 -->
<g id="edge26" class="edge">
<title>Node13&#45;&gt;Node6</title>
<path fill="none" stroke="#63b8ff" d="M499.5,-164.75C491.93,-157.03 480.71,-145.6 471.57,-136.28"/>
<polygon fill="#63b8ff" stroke="#63b8ff" points="474.02,-133.78 464.52,-129.09 469.02,-138.68 474.02,-133.78"/>
</g>
<!-- Node13&#45;&gt;Node10 -->
<g id="edge24" class="edge">
<title>Node13&#45;&gt;Node10</title>
<path fill="none" stroke="#63b8ff" d="M470.97,-164.98C431.1,-155.84 367.63,-141.27 324.25,-131.32"/>
<polygon fill="#63b8ff" stroke="#63b8ff" points="325.02,-127.91 314.49,-129.08 323.46,-134.73 325.02,-127.91"/>
</g>
<!-- Node14&#45;&gt;Node5 -->
<g id="edge28" class="edge">
<title>Node14&#45;&gt;Node5</title>
<path fill="none" stroke="#63b8ff" d="M652.05,-164.58C657.34,-151.16 664.67,-125.68 652.09,-110 604.22,-50.3 375.61,-24.13 265.13,-14.81"/>
<polygon fill="#63b8ff" stroke="#63b8ff" points="265.39,-11.32 255.14,-13.99 264.82,-18.3 265.39,-11.32"/>
</g>
<!-- Node15 -->
<g id="node15" class="node">
<title>Node15</title>
<g id="a_node15"><a xlink:title=" ">
<polygon fill="#e0e0e0" stroke="#999999" points="643.09,-129 587.09,-129 587.09,-110 643.09,-110 643.09,-129"/>
<text text-anchor="middle" x="615.09" y="-117" font-family="Helvetica,sans-Serif" font-size="10.00">stddef.h</text>
</a>
</g>
</g>
<!-- Node14&#45;&gt;Node15 -->
<g id="edge29" class="edge">
<title>Node14&#45;&gt;Node15</title>
<path fill="none" stroke="#63b8ff" d="M642.64,-164.75C638.07,-157.42 631.42,-146.73 625.8,-137.7"/>
<polygon fill="#63b8ff" stroke="#63b8ff" points="628.69,-135.73 620.44,-129.09 622.75,-139.43 628.69,-135.73"/>
</g>
<!-- Node16&#45;&gt;Node2 -->
<g id="edge31" class="edge">
<title>Node16&#45;&gt;Node2</title>
<path fill="none" stroke="#63b8ff" d="M892.44,-183.96C892.33,-183.97 892.21,-183.99 892.09,-184 740.45,-200.22 562.5,-215.06 462.18,-222.82"/>
<polygon fill="#63b8ff" stroke="#63b8ff" points="461.82,-219.34 452.12,-223.6 462.36,-226.32 461.82,-219.34"/>
</g>
</g>
</svg>
