<?xml version="1.0" encoding="UTF-8" standalone="no"?>
<!DOCTYPE svg PUBLIC "-//W3C//DTD SVG 1.1//EN"
 "http://www.w3.org/Graphics/SVG/1.1/DTD/svg11.dtd">
<!-- Generated by graphviz version 7.1.0 (20230121.1956)
 -->
<!-- Title: FManC_CharComp Pages: 1 -->
<svg width="117pt" height="148pt"
 viewBox="0.00 0.00 117.00 148.00" xmlns="http://www.w3.org/2000/svg" xmlns:xlink="http://www.w3.org/1999/xlink">
<g id="graph0" class="graph" transform="scale(1 1) rotate(0) translate(4 144)">
<title>FManC_CharComp</title>
<!-- Node1 -->
<g id="node1" class="node">
<title>Node1</title>
<g id="a_node1"><a xlink:title=" ">
<polygon fill="#999999" stroke="#666666" points="102,-30 0,-30 0,0 102,0 102,-30"/>
<text text-anchor="middle" x="51" y="-18" font-family="Helvetica,sans-Serif" font-size="10.00">{FManC_CharComp</text>
<text text-anchor="middle" x="51" y="-7" font-family="Helvetica,sans-Serif" font-size="10.00">||}</text>
</a>
</g>
</g>
<!-- Node2 -->
<g id="node2" class="node">
<title>Node2</title>
<g id="a_node2"><a xlink:title=" ">
<polygon fill="white" stroke="#666666" points="87,-140 15,-140 15,-110 87,-110 87,-140"/>
<text text-anchor="middle" x="51" y="-128" font-family="Helvetica,sans-Serif" font-size="10.00">{unsigned int</text>
<text text-anchor="middle" x="51" y="-117" font-family="Helvetica,sans-Serif" font-size="10.00">||}</text>
</a>
</g>
</g>
<!-- Node2&#45;&gt;Node1 -->
<g id="edge1" class="edge">
<title>Node2&#45;&gt;Node1</title>
<path fill="none" stroke="#404040" d="M51,-109.88C51,-93.08 51,-64.63 51,-43.44"/>
<polygon fill="none" stroke="#404040" points="51,-43.37 47,-37.37 51,-31.37 55,-37.37 51,-43.37"/>
<text text-anchor="middle" x="80" y="-84" font-family="Helvetica,sans-Serif" font-size="10.00"> +middleLeft</text>
<text text-anchor="middle" x="80" y="-73" font-family="Helvetica,sans-Serif" font-size="10.00">+middleRight</text>
<text text-anchor="middle" x="80" y="-62" font-family="Helvetica,sans-Serif" font-size="10.00">+mostLeft</text>
<text text-anchor="middle" x="80" y="-51" font-family="Helvetica,sans-Serif" font-size="10.00">+mostRight</text>
</g>
</g>
</svg>
