<?xml version="1.0" encoding="UTF-8" standalone="no"?>
<!DOCTYPE svg PUBLIC "-//W3C//DTD SVG 1.1//EN"
 "http://www.w3.org/Graphics/SVG/1.1/DTD/svg11.dtd">
<!-- Generated by graphviz version 2.43.0 (0)
 -->
<!-- Title: src/general/preprocessor/FMC_platform.h Pages: 1 -->
<svg width="964pt" height="478pt"
 viewBox="0.00 0.00 964.23 478.00" xmlns="http://www.w3.org/2000/svg" xmlns:xlink="http://www.w3.org/1999/xlink">
<g id="graph0" class="graph" transform="scale(1 1) rotate(0) translate(4 474)">
<title>src/general/preprocessor/FMC_platform.h</title>
<!-- Node1 -->
<g id="node1" class="node">
<title>Node1</title>
<g id="a_node1"><a xlink:title=" ">
<polygon fill="#999999" stroke="#666666" points="786.55,-470 649.55,-470 649.55,-440 786.55,-440 786.55,-470"/>
<text text-anchor="start" x="657.55" y="-458" font-family="Helvetica,sans-Serif" font-size="10.00">src/general/preprocessor</text>
<text text-anchor="middle" x="718.05" y="-447" font-family="Helvetica,sans-Serif" font-size="10.00">/FMC_platform.h</text>
</a>
</g>
</g>
<!-- Node2 -->
<g id="node2" class="node">
<title>Node2</title>
<g id="a_node2"><a xlink:href="../../d9/de1/FMC__general_8h.html" target="_top" xlink:title=" ">
<polygon fill="white" stroke="#666666" points="568.05,-206 422.05,-206 422.05,-187 568.05,-187 568.05,-206"/>
<text text-anchor="middle" x="495.05" y="-194" font-family="Helvetica,sans-Serif" font-size="10.00">src/general/FMC_general.h</text>
</a>
</g>
</g>
<!-- Node1&#45;&gt;Node2 -->
<g id="edge1" class="edge">
<title>Node1&#45;&gt;Node2</title>
<path fill="none" stroke="#63b8ff" d="M764.89,-435.78C804.42,-417.59 858.4,-385.47 883.05,-338 893.72,-317.46 881.46,-250.13 873.05,-242 851.59,-221.24 672,-207.61 568.27,-201.39"/>
<polygon fill="#63b8ff" stroke="#63b8ff" points="763.39,-432.61 755.68,-439.88 766.24,-439.01 763.39,-432.61"/>
</g>
<!-- Node13 -->
<g id="node13" class="node">
<title>Node13</title>
<g id="a_node13"><a xlink:href="../../d0/d28/FMC__macros_8h.html" target="_top" xlink:title=" ">
<polygon fill="white" stroke="#666666" points="645.55,-404 508.55,-404 508.55,-374 645.55,-374 645.55,-404"/>
<text text-anchor="start" x="516.55" y="-392" font-family="Helvetica,sans-Serif" font-size="10.00">src/general/preprocessor</text>
<text text-anchor="middle" x="577.05" y="-381" font-family="Helvetica,sans-Serif" font-size="10.00">/FMC_macros.h</text>
</a>
</g>
</g>
<!-- Node1&#45;&gt;Node13 -->
<g id="edge16" class="edge">
<title>Node1&#45;&gt;Node13</title>
<path fill="none" stroke="#63b8ff" d="M677.92,-435.78C655.69,-425.69 628.48,-413.34 607.92,-404.01"/>
<polygon fill="#63b8ff" stroke="#63b8ff" points="676.55,-439.01 687.11,-439.95 679.45,-432.63 676.55,-439.01"/>
</g>
<!-- Node3 -->
<g id="node3" class="node">
<title>Node3</title>
<g id="a_node3"><a xlink:href="../../de/d47/FMC_8h.html" target="_top" xlink:title=" ">
<polygon fill="white" stroke="#666666" points="227.55,-19 162.55,-19 162.55,0 227.55,0 227.55,-19"/>
<text text-anchor="middle" x="195.05" y="-7" font-family="Helvetica,sans-Serif" font-size="10.00">src/FMC.h</text>
</a>
</g>
</g>
<!-- Node2&#45;&gt;Node3 -->
<g id="edge2" class="edge">
<title>Node2&#45;&gt;Node3</title>
<path fill="none" stroke="#63b8ff" d="M411.66,-195.12C331.41,-192.77 218.2,-183.56 190.05,-151 156.68,-112.41 181.13,-43.19 191.23,-19.07"/>
<polygon fill="#63b8ff" stroke="#63b8ff" points="411.68,-198.62 421.77,-195.39 411.87,-191.62 411.68,-198.62"/>
</g>
<!-- Node4 -->
<g id="node4" class="node">
<title>Node4</title>
<g id="a_node4"><a xlink:href="../../db/d26/FMC__code__utils_8h.html" target="_top" xlink:title=" ">
<polygon fill="white" stroke="#666666" points="307.05,-151 199.05,-151 199.05,-121 307.05,-121 307.05,-151"/>
<text text-anchor="start" x="207.05" y="-139" font-family="Helvetica,sans-Serif" font-size="10.00">src/code_utils/FMC</text>
<text text-anchor="middle" x="253.05" y="-128" font-family="Helvetica,sans-Serif" font-size="10.00">_code_utils.h</text>
</a>
</g>
</g>
<!-- Node2&#45;&gt;Node4 -->
<g id="edge3" class="edge">
<title>Node2&#45;&gt;Node4</title>
<path fill="none" stroke="#63b8ff" d="M450.01,-184.61C409.55,-174.83 350.07,-160.45 307.07,-150.06"/>
<polygon fill="#63b8ff" stroke="#63b8ff" points="449.32,-188.05 459.86,-186.99 450.96,-181.24 449.32,-188.05"/>
</g>
<!-- Node5 -->
<g id="node5" class="node">
<title>Node5</title>
<g id="a_node5"><a xlink:href="../../db/d30/FMC__encodings_8h.html" target="_top" xlink:title=" ">
<polygon fill="white" stroke="#666666" points="490.05,-151 338.05,-151 338.05,-121 490.05,-121 490.05,-151"/>
<text text-anchor="start" x="346.05" y="-139" font-family="Helvetica,sans-Serif" font-size="10.00">src/data_analyze/encodings</text>
<text text-anchor="middle" x="414.05" y="-128" font-family="Helvetica,sans-Serif" font-size="10.00">/FMC_encodings.h</text>
</a>
</g>
</g>
<!-- Node2&#45;&gt;Node5 -->
<g id="edge5" class="edge">
<title>Node2&#45;&gt;Node5</title>
<path fill="none" stroke="#63b8ff" d="M474.65,-180.77C462.07,-171.68 446.02,-160.09 433.59,-151.11"/>
<polygon fill="#63b8ff" stroke="#63b8ff" points="472.94,-183.85 483.1,-186.87 477.04,-178.18 472.94,-183.85"/>
</g>
<!-- Node8 -->
<g id="node8" class="node">
<title>Node8</title>
<g id="a_node8"><a xlink:href="../../d9/db5/FMC__strings_8h.html" target="_top" xlink:title=" ">
<polygon fill="white" stroke="#666666" points="643.55,-151 508.55,-151 508.55,-121 643.55,-121 643.55,-151"/>
<text text-anchor="start" x="516.55" y="-139" font-family="Helvetica,sans-Serif" font-size="10.00">src/data_analyze/strings</text>
<text text-anchor="middle" x="576.05" y="-128" font-family="Helvetica,sans-Serif" font-size="10.00">/FMC_strings.h</text>
</a>
</g>
</g>
<!-- Node2&#45;&gt;Node8 -->
<g id="edge9" class="edge">
<title>Node2&#45;&gt;Node8</title>
<path fill="none" stroke="#63b8ff" d="M515.45,-180.77C528.03,-171.68 544.09,-160.09 556.51,-151.11"/>
<polygon fill="#63b8ff" stroke="#63b8ff" points="513.06,-178.18 507,-186.87 517.16,-183.85 513.06,-178.18"/>
</g>
<!-- Node10 -->
<g id="node10" class="node">
<title>Node10</title>
<g id="a_node10"><a xlink:href="../../d2/deb/FMC__file__management_8h.html" target="_top" xlink:title=" ">
<polygon fill="white" stroke="#666666" points="864.55,-151 765.55,-151 765.55,-121 864.55,-121 864.55,-151"/>
<text text-anchor="start" x="773.55" y="-139" font-family="Helvetica,sans-Serif" font-size="10.00">src/files/FMC_file</text>
<text text-anchor="middle" x="815.05" y="-128" font-family="Helvetica,sans-Serif" font-size="10.00">_management.h</text>
</a>
</g>
</g>
<!-- Node2&#45;&gt;Node10 -->
<g id="edge12" class="edge">
<title>Node2&#45;&gt;Node10</title>
<path fill="none" stroke="#63b8ff" d="M551.74,-185.14C612.35,-174.06 707.51,-156.66 765.3,-146.09"/>
<polygon fill="#63b8ff" stroke="#63b8ff" points="550.79,-181.75 541.58,-186.99 552.05,-188.64 550.79,-181.75"/>
</g>
<!-- Node4&#45;&gt;Node3 -->
<g id="edge4" class="edge">
<title>Node4&#45;&gt;Node3</title>
<path fill="none" stroke="#63b8ff" d="M232.76,-113.06C225.98,-104.77 218.92,-94.93 214.05,-85 203.12,-62.71 198.04,-33.48 196.08,-19.16"/>
<polygon fill="#63b8ff" stroke="#63b8ff" points="230.19,-115.45 239.35,-120.78 235.52,-110.9 230.19,-115.45"/>
</g>
<!-- Node6 -->
<g id="node6" class="node">
<title>Node6</title>
<g id="a_node6"><a xlink:href="../../da/db0/FMC__data__analyze_8h.html" target="_top" xlink:title=" ">
<polygon fill="white" stroke="#666666" points="517.05,-85 393.05,-85 393.05,-55 517.05,-55 517.05,-85"/>
<text text-anchor="start" x="401.05" y="-73" font-family="Helvetica,sans-Serif" font-size="10.00">src/data_analyze/FMC</text>
<text text-anchor="middle" x="455.05" y="-62" font-family="Helvetica,sans-Serif" font-size="10.00">_data_analyze.h</text>
</a>
</g>
</g>
<!-- Node5&#45;&gt;Node6 -->
<g id="edge6" class="edge">
<title>Node5&#45;&gt;Node6</title>
<path fill="none" stroke="#63b8ff" d="M428.63,-112.24C434.41,-103.21 440.89,-93.11 445.98,-85.16"/>
<polygon fill="#63b8ff" stroke="#63b8ff" points="425.6,-110.49 423.15,-120.8 431.49,-114.26 425.6,-110.49"/>
</g>
<!-- Node7 -->
<g id="node7" class="node">
<title>Node7</title>
<g id="a_node7"><a xlink:href="../../db/dc4/FMC__encodings_8c.html" target="_top" xlink:title=" ">
<polygon fill="white" stroke="#666666" points="375.05,-85 223.05,-85 223.05,-55 375.05,-55 375.05,-85"/>
<text text-anchor="start" x="231.05" y="-73" font-family="Helvetica,sans-Serif" font-size="10.00">src/data_analyze/encodings</text>
<text text-anchor="middle" x="299.05" y="-62" font-family="Helvetica,sans-Serif" font-size="10.00">/FMC_encodings.c</text>
</a>
</g>
</g>
<!-- Node5&#45;&gt;Node7 -->
<g id="edge8" class="edge">
<title>Node5&#45;&gt;Node7</title>
<path fill="none" stroke="#63b8ff" d="M379.85,-115.97C362,-106.03 340.54,-94.09 324.23,-85.01"/>
<polygon fill="#63b8ff" stroke="#63b8ff" points="378.37,-119.15 388.81,-120.95 381.78,-113.03 378.37,-119.15"/>
</g>
<!-- Node6&#45;&gt;Node3 -->
<g id="edge7" class="edge">
<title>Node6&#45;&gt;Node3</title>
<path fill="none" stroke="#63b8ff" d="M382.83,-52.75C332.09,-41.33 266.61,-26.6 227.89,-17.89"/>
<polygon fill="#63b8ff" stroke="#63b8ff" points="382.25,-56.21 392.77,-54.99 383.79,-49.38 382.25,-56.21"/>
</g>
<!-- Node8&#45;&gt;Node6 -->
<g id="edge10" class="edge">
<title>Node8&#45;&gt;Node6</title>
<path fill="none" stroke="#63b8ff" d="M540.59,-116.24C521.7,-106.25 498.87,-94.18 481.54,-85.01"/>
<polygon fill="#63b8ff" stroke="#63b8ff" points="539.02,-119.37 549.5,-120.95 542.29,-113.19 539.02,-119.37"/>
</g>
<!-- Node9 -->
<g id="node9" class="node">
<title>Node9</title>
<g id="a_node9"><a xlink:href="../../d1/d8c/FMC__chars_8c.html" target="_top" xlink:title=" ">
<polygon fill="white" stroke="#666666" points="670.55,-85 535.55,-85 535.55,-55 670.55,-55 670.55,-85"/>
<text text-anchor="start" x="543.55" y="-73" font-family="Helvetica,sans-Serif" font-size="10.00">src/data_analyze/strings</text>
<text text-anchor="middle" x="603.05" y="-62" font-family="Helvetica,sans-Serif" font-size="10.00">/FMC_chars.c</text>
</a>
</g>
</g>
<!-- Node8&#45;&gt;Node9 -->
<g id="edge11" class="edge">
<title>Node8&#45;&gt;Node9</title>
<path fill="none" stroke="#63b8ff" d="M586.01,-111.39C589.73,-102.59 593.83,-92.86 597.08,-85.16"/>
<polygon fill="#63b8ff" stroke="#63b8ff" points="582.7,-110.22 582.04,-120.8 589.15,-112.94 582.7,-110.22"/>
</g>
<!-- Node10&#45;&gt;Node3 -->
<g id="edge13" class="edge">
<title>Node10&#45;&gt;Node3</title>
<path fill="none" stroke="#63b8ff" d="M874.35,-121.62C922.02,-108.26 976.67,-85.36 948.05,-55 922.98,-28.41 368.98,-14.35 227.64,-11.19"/>
<polygon fill="#63b8ff" stroke="#63b8ff" points="873.37,-118.26 864.63,-124.24 875.2,-125.01 873.37,-118.26"/>
</g>
<!-- Node11 -->
<g id="node11" class="node">
<title>Node11</title>
<g id="a_node11"><a xlink:href="../../d0/dc0/FMC__files_8c.html" target="_top" xlink:title=" ">
<polygon fill="white" stroke="#666666" points="938.55,-79.5 825.55,-79.5 825.55,-60.5 938.55,-60.5 938.55,-79.5"/>
<text text-anchor="middle" x="882.05" y="-67.5" font-family="Helvetica,sans-Serif" font-size="10.00">src/files/FMC_files.c</text>
</a>
</g>
</g>
<!-- Node10&#45;&gt;Node11 -->
<g id="edge14" class="edge">
<title>Node10&#45;&gt;Node11</title>
<path fill="none" stroke="#63b8ff" d="M837.45,-113.6C849.5,-102.1 863.71,-88.52 872.79,-79.84"/>
<polygon fill="#63b8ff" stroke="#63b8ff" points="834.73,-111.36 829.92,-120.8 839.57,-116.42 834.73,-111.36"/>
</g>
<!-- Node12 -->
<g id="node12" class="node">
<title>Node12</title>
<g id="a_node12"><a xlink:href="../../dc/d5e/FMC__paths_8c.html" target="_top" xlink:title=" ">
<polygon fill="white" stroke="#666666" points="807.55,-79.5 688.55,-79.5 688.55,-60.5 807.55,-60.5 807.55,-79.5"/>
<text text-anchor="middle" x="748.05" y="-67.5" font-family="Helvetica,sans-Serif" font-size="10.00">src/files/FMC_paths.c</text>
</a>
</g>
</g>
<!-- Node10&#45;&gt;Node12 -->
<g id="edge15" class="edge">
<title>Node10&#45;&gt;Node12</title>
<path fill="none" stroke="#63b8ff" d="M792.65,-113.6C780.6,-102.1 766.4,-88.52 757.31,-79.84"/>
<polygon fill="#63b8ff" stroke="#63b8ff" points="790.53,-116.42 800.18,-120.8 795.37,-111.36 790.53,-116.42"/>
</g>
<!-- Node13&#45;&gt;Node2 -->
<g id="edge20" class="edge">
<title>Node13&#45;&gt;Node2</title>
<path fill="none" stroke="#63b8ff" d="M564.86,-364.58C560.66,-356.25 556.02,-346.77 552.05,-338 529.82,-288.83 506.64,-228.31 498.29,-206.15"/>
<polygon fill="#63b8ff" stroke="#63b8ff" points="561.86,-366.39 569.53,-373.7 568.09,-363.21 561.86,-366.39"/>
</g>
<!-- Node14 -->
<g id="node14" class="node">
<title>Node14</title>
<g id="a_node14"><a xlink:href="../../d4/db9/FMC__wrapper_8h.html" target="_top" xlink:title=" ">
<polygon fill="white" stroke="#666666" points="152.55,-332.5 23.55,-332.5 23.55,-313.5 152.55,-313.5 152.55,-332.5"/>
<text text-anchor="middle" x="88.05" y="-320.5" font-family="Helvetica,sans-Serif" font-size="10.00">src/cpp/FMC_wrapper.h</text>
</a>
</g>
</g>
<!-- Node13&#45;&gt;Node14 -->
<g id="edge17" class="edge">
<title>Node13&#45;&gt;Node14</title>
<path fill="none" stroke="#63b8ff" d="M498.2,-378.13C419.59,-368.23 295.42,-352.42 188.05,-338 175.11,-336.26 161.23,-334.35 148.05,-332.51"/>
<polygon fill="#63b8ff" stroke="#63b8ff" points="498.15,-381.65 508.51,-379.43 499.02,-374.71 498.15,-381.65"/>
</g>
<!-- Node16 -->
<g id="node16" class="node">
<title>Node16</title>
<g id="a_node16"><a xlink:href="../../d1/d2e/FMC__attributes_8h.html" target="_top" xlink:title=" ">
<polygon fill="white" stroke="#666666" points="874.55,-338 737.55,-338 737.55,-308 874.55,-308 874.55,-338"/>
<text text-anchor="start" x="745.55" y="-326" font-family="Helvetica,sans-Serif" font-size="10.00">src/general/preprocessor</text>
<text text-anchor="middle" x="806.05" y="-315" font-family="Helvetica,sans-Serif" font-size="10.00">/FMC_attributes.h</text>
</a>
</g>
</g>
<!-- Node13&#45;&gt;Node16 -->
<g id="edge21" class="edge">
<title>Node13&#45;&gt;Node16</title>
<path fill="none" stroke="#63b8ff" d="M631.41,-371.12C667.28,-360.8 714.06,-347.76 750.22,-338.01"/>
<polygon fill="#63b8ff" stroke="#63b8ff" points="630.24,-367.82 621.61,-373.95 632.18,-374.54 630.24,-367.82"/>
</g>
<!-- Node18 -->
<g id="node18" class="node">
<title>Node18</title>
<g id="a_node18"><a xlink:href="../../d6/d25/FMC__enums_8h.html" target="_top" xlink:title=" ">
<polygon fill="white" stroke="#666666" points="504.55,-338 379.55,-338 379.55,-308 504.55,-308 504.55,-338"/>
<text text-anchor="start" x="387.55" y="-326" font-family="Helvetica,sans-Serif" font-size="10.00">src/general/types/FMC</text>
<text text-anchor="middle" x="442.05" y="-315" font-family="Helvetica,sans-Serif" font-size="10.00">_enums.h</text>
</a>
</g>
</g>
<!-- Node13&#45;&gt;Node18 -->
<g id="edge25" class="edge">
<title>Node13&#45;&gt;Node18</title>
<path fill="none" stroke="#63b8ff" d="M538.34,-369.65C517.11,-359.58 491.2,-347.3 471.61,-338.01"/>
<polygon fill="#63b8ff" stroke="#63b8ff" points="536.89,-372.83 547.42,-373.95 539.89,-366.51 536.89,-372.83"/>
</g>
<!-- Node19 -->
<g id="node19" class="node">
<title>Node19</title>
<g id="a_node19"><a xlink:href="../../d5/de5/FMC__structs_8h.html" target="_top" xlink:title=" ">
<polygon fill="white" stroke="#666666" points="466.55,-272 341.55,-272 341.55,-242 466.55,-242 466.55,-272"/>
<text text-anchor="start" x="349.55" y="-260" font-family="Helvetica,sans-Serif" font-size="10.00">src/general/types/FMC</text>
<text text-anchor="middle" x="404.05" y="-249" font-family="Helvetica,sans-Serif" font-size="10.00">_structs.h</text>
</a>
</g>
</g>
<!-- Node13&#45;&gt;Node19 -->
<g id="edge29" class="edge">
<title>Node13&#45;&gt;Node19</title>
<path fill="none" stroke="#63b8ff" d="M498.35,-379.09C446.8,-371.45 386.1,-358.39 370.05,-338 354.18,-317.84 374.38,-289.18 389.74,-272.19"/>
<polygon fill="#63b8ff" stroke="#63b8ff" points="498.13,-382.6 508.53,-380.55 499.12,-375.67 498.13,-382.6"/>
</g>
<!-- Node20 -->
<g id="node20" class="node">
<title>Node20</title>
<g id="a_node20"><a xlink:href="../../df/df8/FMC__typedefs_8h.html" target="_top" xlink:title=" ">
<polygon fill="white" stroke="#666666" points="322.55,-338 197.55,-338 197.55,-308 322.55,-308 322.55,-338"/>
<text text-anchor="start" x="205.55" y="-326" font-family="Helvetica,sans-Serif" font-size="10.00">src/general/types/FMC</text>
<text text-anchor="middle" x="260.05" y="-315" font-family="Helvetica,sans-Serif" font-size="10.00">_typedefs.h</text>
</a>
</g>
</g>
<!-- Node13&#45;&gt;Node20 -->
<g id="edge30" class="edge">
<title>Node13&#45;&gt;Node20</title>
<path fill="none" stroke="#63b8ff" d="M498.35,-372.11C444.17,-361.17 373.16,-346.84 322.78,-336.67"/>
<polygon fill="#63b8ff" stroke="#63b8ff" points="497.77,-375.56 508.27,-374.11 499.16,-368.7 497.77,-375.56"/>
</g>
<!-- Node22 -->
<g id="node22" class="node">
<title>Node22</title>
<g id="a_node22"><a xlink:href="../../de/dab/FMC__errors_8c.html" target="_top" xlink:title=" ">
<polygon fill="white" stroke="#666666" points="725.55,-272 606.55,-272 606.55,-242 725.55,-242 725.55,-272"/>
<text text-anchor="start" x="614.55" y="-260" font-family="Helvetica,sans-Serif" font-size="10.00">src/general/utils/FMC</text>
<text text-anchor="middle" x="666.05" y="-249" font-family="Helvetica,sans-Serif" font-size="10.00">_errors.c</text>
</a>
</g>
</g>
<!-- Node13&#45;&gt;Node22 -->
<g id="edge35" class="edge">
<title>Node13&#45;&gt;Node22</title>
<path fill="none" stroke="#63b8ff" d="M649.78,-369.93C665.28,-362.6 679.75,-352.34 689.05,-338 702.42,-317.39 687.89,-288.87 676.62,-272.04"/>
<polygon fill="#63b8ff" stroke="#63b8ff" points="648.36,-366.73 640.58,-373.92 651.14,-373.16 648.36,-366.73"/>
</g>
<!-- Node23 -->
<g id="node23" class="node">
<title>Node23</title>
<g id="a_node23"><a xlink:href="../../dd/ddf/FMC__errors_8h.html" target="_top" xlink:title=" ">
<polygon fill="white" stroke="#666666" points="680.55,-338 561.55,-338 561.55,-308 680.55,-308 680.55,-338"/>
<text text-anchor="start" x="569.55" y="-326" font-family="Helvetica,sans-Serif" font-size="10.00">src/general/utils/FMC</text>
<text text-anchor="middle" x="621.05" y="-315" font-family="Helvetica,sans-Serif" font-size="10.00">_errors.h</text>
</a>
</g>
</g>
<!-- Node13&#45;&gt;Node23 -->
<g id="edge36" class="edge">
<title>Node13&#45;&gt;Node23</title>
<path fill="none" stroke="#63b8ff" d="M592.5,-365.53C598.76,-356.43 605.79,-346.19 611.31,-338.16"/>
<polygon fill="#63b8ff" stroke="#63b8ff" points="589.6,-363.57 586.82,-373.8 595.36,-367.54 589.6,-363.57"/>
</g>
<!-- Node14&#45;&gt;Node3 -->
<g id="edge18" class="edge">
<title>Node14&#45;&gt;Node3</title>
<path fill="none" stroke="#63b8ff" d="M60.96,-308.41C46.49,-299.84 29.55,-287.46 19.05,-272 -0.15,-243.73 0.05,-231.67 0.05,-197.5 0.05,-197.5 0.05,-197.5 0.05,-135 0.05,-58.89 106.9,-27.24 162.41,-15.93"/>
<polygon fill="#63b8ff" stroke="#63b8ff" points="59.58,-311.65 70.01,-313.49 63,-305.54 59.58,-311.65"/>
</g>
<!-- Node15 -->
<g id="node15" class="node">
<title>Node15</title>
<g id="a_node15"><a xlink:href="../../dd/d0d/FMC__dir__wrapper_8cpp.html" target="_top" xlink:title=" ">
<polygon fill="white" stroke="#666666" points="147.55,-272 28.55,-272 28.55,-242 147.55,-242 147.55,-272"/>
<text text-anchor="start" x="36.55" y="-260" font-family="Helvetica,sans-Serif" font-size="10.00">src/cpp/FMC_dir/FMC</text>
<text text-anchor="middle" x="88.05" y="-249" font-family="Helvetica,sans-Serif" font-size="10.00">_dir_wrapper.cpp</text>
</a>
</g>
</g>
<!-- Node14&#45;&gt;Node15 -->
<g id="edge19" class="edge">
<title>Node14&#45;&gt;Node15</title>
<path fill="none" stroke="#63b8ff" d="M88.05,-303.35C88.05,-293.47 88.05,-281.51 88.05,-272.36"/>
<polygon fill="#63b8ff" stroke="#63b8ff" points="84.55,-303.37 88.05,-313.37 91.55,-303.37 84.55,-303.37"/>
</g>
<!-- Node16&#45;&gt;Node13 -->
<g id="edge22" class="edge">
<title>Node16&#45;&gt;Node13</title>
<path fill="none" stroke="#63b8ff" d="M751.81,-340.84C715.97,-351.16 669.19,-364.2 633,-373.95"/>
<polygon fill="#63b8ff" stroke="#63b8ff" points="752.97,-344.15 761.61,-338.01 751.03,-337.43 752.97,-344.15"/>
</g>
<!-- Node17 -->
<g id="node17" class="node">
<title>Node17</title>
<g id="a_node17"><a xlink:href="../../d4/d06/FMC__deprecated_8h.html" target="_top" xlink:title=" ">
<polygon fill="white" stroke="#666666" points="864.55,-272 745.55,-272 745.55,-242 864.55,-242 864.55,-272"/>
<text text-anchor="start" x="753.55" y="-260" font-family="Helvetica,sans-Serif" font-size="10.00">src/general/utils/FMC</text>
<text text-anchor="middle" x="805.05" y="-249" font-family="Helvetica,sans-Serif" font-size="10.00">_deprecated.h</text>
</a>
</g>
</g>
<!-- Node16&#45;&gt;Node17 -->
<g id="edge23" class="edge">
<title>Node16&#45;&gt;Node17</title>
<path fill="none" stroke="#63b8ff" d="M805.67,-297.54C805.53,-288.96 805.39,-279.61 805.27,-272.16"/>
<polygon fill="#63b8ff" stroke="#63b8ff" points="802.17,-297.85 805.83,-307.8 809.17,-297.74 802.17,-297.85"/>
</g>
<!-- Node17&#45;&gt;Node2 -->
<g id="edge24" class="edge">
<title>Node17&#45;&gt;Node2</title>
<path fill="none" stroke="#63b8ff" d="M735.44,-242.27C734.98,-242.18 734.51,-242.09 734.05,-242 667.31,-229.21 589.99,-214.9 541.79,-206.05"/>
<polygon fill="#63b8ff" stroke="#63b8ff" points="734.92,-245.73 745.4,-244.19 736.25,-238.86 734.92,-245.73"/>
</g>
<!-- Node18&#45;&gt;Node2 -->
<g id="edge26" class="edge">
<title>Node18&#45;&gt;Node2</title>
<path fill="none" stroke="#63b8ff" d="M459.15,-299.46C464.83,-291.16 470.79,-281.47 475.05,-272 485.27,-249.28 491.2,-220.25 493.67,-206.07"/>
<polygon fill="#63b8ff" stroke="#63b8ff" points="456.13,-297.67 453.18,-307.84 461.83,-301.73 456.13,-297.67"/>
</g>
<!-- Node18&#45;&gt;Node19 -->
<g id="edge27" class="edge">
<title>Node18&#45;&gt;Node19</title>
<path fill="none" stroke="#63b8ff" d="M428.37,-298.96C423.05,-290 417.13,-280.03 412.46,-272.16"/>
<polygon fill="#63b8ff" stroke="#63b8ff" points="425.5,-300.98 433.62,-307.8 431.52,-297.41 425.5,-300.98"/>
</g>
<!-- Node19&#45;&gt;Node2 -->
<g id="edge28" class="edge">
<title>Node19&#45;&gt;Node2</title>
<path fill="none" stroke="#63b8ff" d="M434.62,-236.35C450.6,-226.07 469.35,-214.02 481.68,-206.09"/>
<polygon fill="#63b8ff" stroke="#63b8ff" points="432.6,-233.49 426.08,-241.84 436.38,-239.38 432.6,-233.49"/>
</g>
<!-- Node20&#45;&gt;Node2 -->
<g id="edge31" class="edge">
<title>Node20&#45;&gt;Node2</title>
<path fill="none" stroke="#63b8ff" d="M226.22,-302.25C202.42,-285.89 177.67,-262.15 195.05,-242 223.77,-208.71 342.68,-199.92 421.9,-197.82"/>
<polygon fill="#63b8ff" stroke="#63b8ff" points="224.59,-305.36 234.87,-307.92 228.42,-299.51 224.59,-305.36"/>
</g>
<!-- Node20&#45;&gt;Node19 -->
<g id="edge32" class="edge">
<title>Node20&#45;&gt;Node19</title>
<path fill="none" stroke="#63b8ff" d="M301.04,-303.78C323.74,-293.69 351.53,-281.34 372.52,-272.01"/>
<polygon fill="#63b8ff" stroke="#63b8ff" points="299.37,-300.7 291.65,-307.95 302.21,-307.09 299.37,-300.7"/>
</g>
<!-- Node21 -->
<g id="node21" class="node">
<title>Node21</title>
<g id="a_node21"><a xlink:href="../../de/d86/FMC__globals_8h.html" target="_top" xlink:title=" ">
<polygon fill="white" stroke="#666666" points="323.55,-272 204.55,-272 204.55,-242 323.55,-242 323.55,-272"/>
<text text-anchor="start" x="212.55" y="-260" font-family="Helvetica,sans-Serif" font-size="10.00">src/general/utils/FMC</text>
<text text-anchor="middle" x="264.05" y="-249" font-family="Helvetica,sans-Serif" font-size="10.00">_globals.h</text>
</a>
</g>
</g>
<!-- Node20&#45;&gt;Node21 -->
<g id="edge33" class="edge">
<title>Node20&#45;&gt;Node21</title>
<path fill="none" stroke="#63b8ff" d="M261.58,-297.54C262.12,-288.96 262.7,-279.61 263.17,-272.16"/>
<polygon fill="#63b8ff" stroke="#63b8ff" points="258.07,-297.6 260.94,-307.8 265.06,-298.03 258.07,-297.6"/>
</g>
<!-- Node21&#45;&gt;Node2 -->
<g id="edge34" class="edge">
<title>Node21&#45;&gt;Node2</title>
<path fill="none" stroke="#63b8ff" d="M329.2,-239.5C372.18,-228.62 426.73,-214.8 461.27,-206.05"/>
<polygon fill="#63b8ff" stroke="#63b8ff" points="328.22,-236.14 319.38,-241.99 329.93,-242.93 328.22,-236.14"/>
</g>
<!-- Node23&#45;&gt;Node2 -->
<g id="edge37" class="edge">
<title>Node23&#45;&gt;Node2</title>
<path fill="none" stroke="#63b8ff" d="M602.34,-300.44C587.75,-283.96 566.73,-260.94 547.05,-242 533.35,-228.82 516.46,-214.73 505.72,-206.02"/>
<polygon fill="#63b8ff" stroke="#63b8ff" points="599.72,-302.75 608.95,-307.95 604.97,-298.13 599.72,-302.75"/>
</g>
<!-- Node23&#45;&gt;Node22 -->
<g id="edge38" class="edge">
<title>Node23&#45;&gt;Node22</title>
<path fill="none" stroke="#63b8ff" d="M636.85,-299.53C643.25,-290.43 650.45,-280.19 656.09,-272.16"/>
<polygon fill="#63b8ff" stroke="#63b8ff" points="633.93,-297.6 631.04,-307.8 639.65,-301.63 633.93,-297.6"/>
</g>
</g>
</svg>
