<?xml version="1.0" encoding="UTF-8" standalone="no"?>
<!DOCTYPE svg PUBLIC "-//W3C//DTD SVG 1.1//EN"
 "http://www.w3.org/Graphics/SVG/1.1/DTD/svg11.dtd">
<!-- Generated by graphviz version 2.43.0 (0)
 -->
<!-- Title: src/general/preprocessor/FMC_platform.h Pages: 1 -->
<svg width="879pt" height="478pt"
 viewBox="0.00 0.00 879.00 478.00" xmlns="http://www.w3.org/2000/svg" xmlns:xlink="http://www.w3.org/1999/xlink">
<g id="graph0" class="graph" transform="scale(1 1) rotate(0) translate(4 474)">
<title>src/general/preprocessor/FMC_platform.h</title>
<!-- Node1 -->
<g id="node1" class="node">
<title>Node1</title>
<g id="a_node1"><a xlink:title=" ">
<polygon fill="#999999" stroke="#666666" points="236.5,-470 99.5,-470 99.5,-440 236.5,-440 236.5,-470"/>
<text text-anchor="start" x="107.5" y="-458" font-family="Helvetica,sans-Serif" font-size="10.00">src/general/preprocessor</text>
<text text-anchor="middle" x="168" y="-447" font-family="Helvetica,sans-Serif" font-size="10.00">/FMC_platform.h</text>
</a>
</g>
</g>
<!-- Node2 -->
<g id="node2" class="node">
<title>Node2</title>
<g id="a_node2"><a xlink:href="../../d9/de1/FMC__general_8h.html" target="_top" xlink:title=" ">
<polygon fill="white" stroke="#666666" points="471,-206 325,-206 325,-187 471,-187 471,-206"/>
<text text-anchor="middle" x="398" y="-194" font-family="Helvetica,sans-Serif" font-size="10.00">src/general/FMC_general.h</text>
</a>
</g>
</g>
<!-- Node1&#45;&gt;Node2 -->
<g id="edge1" class="edge">
<title>Node1&#45;&gt;Node2</title>
<path fill="none" stroke="#63b8ff" d="M123.02,-435.67C67.37,-410.2 -15.99,-361.2 19,-308 53.88,-254.96 236.74,-220.82 335.15,-206"/>
<polygon fill="#63b8ff" stroke="#63b8ff" points="121.81,-438.96 132.37,-439.85 124.67,-432.57 121.81,-438.96"/>
</g>
<!-- Node13 -->
<g id="node13" class="node">
<title>Node13</title>
<g id="a_node13"><a xlink:href="../../d0/d28/FMC__macros_8h.html" target="_top" xlink:title=" ">
<polygon fill="white" stroke="#666666" points="450.5,-404 313.5,-404 313.5,-374 450.5,-374 450.5,-404"/>
<text text-anchor="start" x="321.5" y="-392" font-family="Helvetica,sans-Serif" font-size="10.00">src/general/preprocessor</text>
<text text-anchor="middle" x="382" y="-381" font-family="Helvetica,sans-Serif" font-size="10.00">/FMC_macros.h</text>
</a>
</g>
</g>
<!-- Node1&#45;&gt;Node13 -->
<g id="edge16" class="edge">
<title>Node1&#45;&gt;Node13</title>
<path fill="none" stroke="#63b8ff" d="M224.88,-436.99C259.31,-426.69 302.7,-413.72 335.15,-404.01"/>
<polygon fill="#63b8ff" stroke="#63b8ff" points="223.54,-433.74 214.96,-439.95 225.55,-440.44 223.54,-433.74"/>
</g>
<!-- Node3 -->
<g id="node3" class="node">
<title>Node3</title>
<g id="a_node3"><a xlink:href="../../de/d47/FMC_8h.html" target="_top" xlink:title=" ">
<polygon fill="white" stroke="#666666" points="818.5,-19 753.5,-19 753.5,0 818.5,0 818.5,-19"/>
<text text-anchor="middle" x="786" y="-7" font-family="Helvetica,sans-Serif" font-size="10.00">src/FMC.h</text>
</a>
</g>
</g>
<!-- Node2&#45;&gt;Node3 -->
<g id="edge2" class="edge">
<title>Node2&#45;&gt;Node3</title>
<path fill="none" stroke="#63b8ff" d="M481.22,-192.36C540.8,-187.84 621.99,-176.98 689,-151 738.31,-131.88 763.05,-131.62 788,-85 799.36,-63.78 793.15,-34.07 788.91,-19.41"/>
<polygon fill="#63b8ff" stroke="#63b8ff" points="480.83,-188.88 471.11,-193.08 481.33,-195.86 480.83,-188.88"/>
</g>
<!-- Node4 -->
<g id="node4" class="node">
<title>Node4</title>
<g id="a_node4"><a xlink:href="../../db/d26/FMC__code__utils_8h.html" target="_top" xlink:title=" ">
<polygon fill="white" stroke="#666666" points="108,-151 0,-151 0,-121 108,-121 108,-151"/>
<text text-anchor="start" x="8" y="-139" font-family="Helvetica,sans-Serif" font-size="10.00">src/code_utils/FMC</text>
<text text-anchor="middle" x="54" y="-128" font-family="Helvetica,sans-Serif" font-size="10.00">_code_utils.h</text>
</a>
</g>
</g>
<!-- Node2&#45;&gt;Node4 -->
<g id="edge3" class="edge">
<title>Node2&#45;&gt;Node4</title>
<path fill="none" stroke="#63b8ff" d="M337.9,-185.28C272.98,-174.24 170.51,-156.81 108.05,-146.19"/>
<polygon fill="#63b8ff" stroke="#63b8ff" points="337.53,-188.77 347.98,-186.99 338.71,-181.87 337.53,-188.77"/>
</g>
<!-- Node5 -->
<g id="node5" class="node">
<title>Node5</title>
<g id="a_node5"><a xlink:href="../../db/d30/FMC__encodings_8h.html" target="_top" xlink:title=" ">
<polygon fill="white" stroke="#666666" points="317,-151 165,-151 165,-121 317,-121 317,-151"/>
<text text-anchor="start" x="173" y="-139" font-family="Helvetica,sans-Serif" font-size="10.00">src/data_analyze/encodings</text>
<text text-anchor="middle" x="241" y="-128" font-family="Helvetica,sans-Serif" font-size="10.00">/FMC_encodings.h</text>
</a>
</g>
</g>
<!-- Node2&#45;&gt;Node5 -->
<g id="edge5" class="edge">
<title>Node2&#45;&gt;Node5</title>
<path fill="none" stroke="#63b8ff" d="M365.68,-183.46C340.43,-174.05 305.29,-160.95 278.75,-151.06"/>
<polygon fill="#63b8ff" stroke="#63b8ff" points="364.58,-186.78 375.17,-186.99 367.02,-180.22 364.58,-186.78"/>
</g>
<!-- Node8 -->
<g id="node8" class="node">
<title>Node8</title>
<g id="a_node8"><a xlink:href="../../d9/db5/FMC__strings_8h.html" target="_top" xlink:title=" ">
<polygon fill="white" stroke="#666666" points="470.5,-151 335.5,-151 335.5,-121 470.5,-121 470.5,-151"/>
<text text-anchor="start" x="343.5" y="-139" font-family="Helvetica,sans-Serif" font-size="10.00">src/data_analyze/strings</text>
<text text-anchor="middle" x="403" y="-128" font-family="Helvetica,sans-Serif" font-size="10.00">/FMC_strings.h</text>
</a>
</g>
</g>
<!-- Node2&#45;&gt;Node8 -->
<g id="edge9" class="edge">
<title>Node2&#45;&gt;Node8</title>
<path fill="none" stroke="#63b8ff" d="M399.61,-176.65C400.32,-168.36 401.14,-158.78 401.79,-151.11"/>
<polygon fill="#63b8ff" stroke="#63b8ff" points="396.1,-176.61 398.74,-186.87 403.08,-177.2 396.1,-176.61"/>
</g>
<!-- Node10 -->
<g id="node10" class="node">
<title>Node10</title>
<g id="a_node10"><a xlink:href="../../d2/deb/FMC__file__management_8h.html" target="_top" xlink:title=" ">
<polygon fill="white" stroke="#666666" points="680.5,-151 581.5,-151 581.5,-121 680.5,-121 680.5,-151"/>
<text text-anchor="start" x="589.5" y="-139" font-family="Helvetica,sans-Serif" font-size="10.00">src/files/FMC_file</text>
<text text-anchor="middle" x="631" y="-128" font-family="Helvetica,sans-Serif" font-size="10.00">_management.h</text>
</a>
</g>
</g>
<!-- Node2&#45;&gt;Node10 -->
<g id="edge12" class="edge">
<title>Node2&#45;&gt;Node10</title>
<path fill="none" stroke="#63b8ff" d="M441.78,-184.51C481.42,-174.56 539.77,-159.9 581.18,-149.51"/>
<polygon fill="#63b8ff" stroke="#63b8ff" points="440.73,-181.16 431.88,-186.99 442.43,-187.95 440.73,-181.16"/>
</g>
<!-- Node4&#45;&gt;Node3 -->
<g id="edge4" class="edge">
<title>Node4&#45;&gt;Node3</title>
<path fill="none" stroke="#63b8ff" d="M38.01,-112.31C27.63,-94.56 18.49,-70.39 33,-55 58.07,-28.41 612.08,-14.35 753.41,-11.19"/>
<polygon fill="#63b8ff" stroke="#63b8ff" points="35.15,-114.33 43.44,-120.93 41.07,-110.6 35.15,-114.33"/>
</g>
<!-- Node6 -->
<g id="node6" class="node">
<title>Node6</title>
<g id="a_node6"><a xlink:href="../../da/db0/FMC__data__analyze_8h.html" target="_top" xlink:title=" ">
<polygon fill="white" stroke="#666666" points="336,-85 212,-85 212,-55 336,-55 336,-85"/>
<text text-anchor="start" x="220" y="-73" font-family="Helvetica,sans-Serif" font-size="10.00">src/data_analyze/FMC</text>
<text text-anchor="middle" x="274" y="-62" font-family="Helvetica,sans-Serif" font-size="10.00">_data_analyze.h</text>
</a>
</g>
</g>
<!-- Node5&#45;&gt;Node6 -->
<g id="edge6" class="edge">
<title>Node5&#45;&gt;Node6</title>
<path fill="none" stroke="#63b8ff" d="M253.02,-111.68C257.61,-102.79 262.68,-92.95 266.7,-85.16"/>
<polygon fill="#63b8ff" stroke="#63b8ff" points="249.8,-110.3 248.32,-120.8 256.02,-113.51 249.8,-110.3"/>
</g>
<!-- Node7 -->
<g id="node7" class="node">
<title>Node7</title>
<g id="a_node7"><a xlink:href="../../db/dc4/FMC__encodings_8c.html" target="_top" xlink:title=" ">
<polygon fill="white" stroke="#666666" points="194,-85 42,-85 42,-55 194,-55 194,-85"/>
<text text-anchor="start" x="50" y="-73" font-family="Helvetica,sans-Serif" font-size="10.00">src/data_analyze/encodings</text>
<text text-anchor="middle" x="118" y="-62" font-family="Helvetica,sans-Serif" font-size="10.00">/FMC_encodings.c</text>
</a>
</g>
</g>
<!-- Node5&#45;&gt;Node7 -->
<g id="edge8" class="edge">
<title>Node5&#45;&gt;Node7</title>
<path fill="none" stroke="#63b8ff" d="M204.95,-116.24C185.75,-106.25 162.54,-94.18 144.93,-85.01"/>
<polygon fill="#63b8ff" stroke="#63b8ff" points="203.52,-119.44 214.01,-120.95 206.75,-113.23 203.52,-119.44"/>
</g>
<!-- Node6&#45;&gt;Node3 -->
<g id="edge7" class="edge">
<title>Node6&#45;&gt;Node3</title>
<path fill="none" stroke="#63b8ff" d="M346.19,-54.91C504.31,-31.83 681.35,-17.9 753.23,-12.75"/>
<polygon fill="#63b8ff" stroke="#63b8ff" points="345.66,-51.45 336.28,-56.38 346.68,-58.38 345.66,-51.45"/>
</g>
<!-- Node8&#45;&gt;Node6 -->
<g id="edge10" class="edge">
<title>Node8&#45;&gt;Node6</title>
<path fill="none" stroke="#63b8ff" d="M365.46,-116.38C345.28,-106.36 320.8,-94.22 302.24,-85.01"/>
<polygon fill="#63b8ff" stroke="#63b8ff" points="364.18,-119.65 374.69,-120.95 367.29,-113.38 364.18,-119.65"/>
</g>
<!-- Node9 -->
<g id="node9" class="node">
<title>Node9</title>
<g id="a_node9"><a xlink:href="../../d1/d8c/FMC__chars_8c.html" target="_top" xlink:title=" ">
<polygon fill="white" stroke="#666666" points="489.5,-85 354.5,-85 354.5,-55 489.5,-55 489.5,-85"/>
<text text-anchor="start" x="362.5" y="-73" font-family="Helvetica,sans-Serif" font-size="10.00">src/data_analyze/strings</text>
<text text-anchor="middle" x="422" y="-62" font-family="Helvetica,sans-Serif" font-size="10.00">/FMC_chars.c</text>
</a>
</g>
</g>
<!-- Node8&#45;&gt;Node9 -->
<g id="edge11" class="edge">
<title>Node8&#45;&gt;Node9</title>
<path fill="none" stroke="#63b8ff" d="M410.09,-111.11C412.69,-102.38 415.53,-92.78 417.8,-85.16"/>
<polygon fill="#63b8ff" stroke="#63b8ff" points="406.71,-110.21 407.22,-120.8 413.42,-112.21 406.71,-110.21"/>
</g>
<!-- Node10&#45;&gt;Node3 -->
<g id="edge13" class="edge">
<title>Node10&#45;&gt;Node3</title>
<path fill="none" stroke="#63b8ff" d="M690.63,-125.67C717.06,-118.64 746.52,-106.37 766,-85 783.14,-66.2 785.86,-34.27 786.12,-19.05"/>
<polygon fill="#63b8ff" stroke="#63b8ff" points="689.56,-122.33 680.68,-128.11 691.23,-129.13 689.56,-122.33"/>
</g>
<!-- Node11 -->
<g id="node11" class="node">
<title>Node11</title>
<g id="a_node11"><a xlink:href="../../d0/dc0/FMC__files_8c.html" target="_top" xlink:title=" ">
<polygon fill="white" stroke="#666666" points="620.5,-79.5 507.5,-79.5 507.5,-60.5 620.5,-60.5 620.5,-79.5"/>
<text text-anchor="middle" x="564" y="-67.5" font-family="Helvetica,sans-Serif" font-size="10.00">src/files/FMC_files.c</text>
</a>
</g>
</g>
<!-- Node10&#45;&gt;Node11 -->
<g id="edge14" class="edge">
<title>Node10&#45;&gt;Node11</title>
<path fill="none" stroke="#63b8ff" d="M608.6,-113.6C596.55,-102.1 582.34,-88.52 573.26,-79.84"/>
<polygon fill="#63b8ff" stroke="#63b8ff" points="606.48,-116.42 616.13,-120.8 611.32,-111.36 606.48,-116.42"/>
</g>
<!-- Node12 -->
<g id="node12" class="node">
<title>Node12</title>
<g id="a_node12"><a xlink:href="../../dc/d5e/FMC__paths_8c.html" target="_top" xlink:title=" ">
<polygon fill="white" stroke="#666666" points="757.5,-79.5 638.5,-79.5 638.5,-60.5 757.5,-60.5 757.5,-79.5"/>
<text text-anchor="middle" x="698" y="-67.5" font-family="Helvetica,sans-Serif" font-size="10.00">src/files/FMC_paths.c</text>
</a>
</g>
</g>
<!-- Node10&#45;&gt;Node12 -->
<g id="edge15" class="edge">
<title>Node10&#45;&gt;Node12</title>
<path fill="none" stroke="#63b8ff" d="M653.4,-113.6C665.45,-102.1 679.66,-88.52 688.74,-79.84"/>
<polygon fill="#63b8ff" stroke="#63b8ff" points="650.68,-111.36 645.87,-120.8 655.52,-116.42 650.68,-111.36"/>
</g>
<!-- Node13&#45;&gt;Node2 -->
<g id="edge20" class="edge">
<title>Node13&#45;&gt;Node2</title>
<path fill="none" stroke="#63b8ff" d="M460.97,-385.63C538.23,-381.45 648.09,-369.89 675,-338 693.64,-315.91 667.31,-252.88 655,-242 628.33,-218.42 537.45,-207.02 471.31,-201.73"/>
<polygon fill="#63b8ff" stroke="#63b8ff" points="460.58,-382.14 450.78,-386.15 460.94,-389.13 460.58,-382.14"/>
</g>
<!-- Node14 -->
<g id="node14" class="node">
<title>Node14</title>
<g id="a_node14"><a xlink:href="../../d4/db9/FMC__wrapper_8h.html" target="_top" xlink:title=" ">
<polygon fill="white" stroke="#666666" points="852.5,-332.5 723.5,-332.5 723.5,-313.5 852.5,-313.5 852.5,-332.5"/>
<text text-anchor="middle" x="788" y="-320.5" font-family="Helvetica,sans-Serif" font-size="10.00">src/cpp/FMC_wrapper.h</text>
</a>
</g>
</g>
<!-- Node13&#45;&gt;Node14 -->
<g id="edge17" class="edge">
<title>Node13&#45;&gt;Node14</title>
<path fill="none" stroke="#63b8ff" d="M460.61,-376.51C526.9,-366.7 624.25,-351.99 709,-338 719.31,-336.3 730.36,-334.39 740.83,-332.55"/>
<polygon fill="#63b8ff" stroke="#63b8ff" points="460.04,-373.06 450.66,-377.98 461.06,-379.98 460.04,-373.06"/>
</g>
<!-- Node16 -->
<g id="node16" class="node">
<title>Node16</title>
<g id="a_node16"><a xlink:href="../../d1/d2e/FMC__attributes_8h.html" target="_top" xlink:title=" ">
<polygon fill="white" stroke="#666666" points="165.5,-338 28.5,-338 28.5,-308 165.5,-308 165.5,-338"/>
<text text-anchor="start" x="36.5" y="-326" font-family="Helvetica,sans-Serif" font-size="10.00">src/general/preprocessor</text>
<text text-anchor="middle" x="97" y="-315" font-family="Helvetica,sans-Serif" font-size="10.00">/FMC_attributes.h</text>
</a>
</g>
</g>
<!-- Node13&#45;&gt;Node16 -->
<g id="edge21" class="edge">
<title>Node13&#45;&gt;Node16</title>
<path fill="none" stroke="#63b8ff" d="M303.81,-371.78C256.28,-361.36 196.72,-347.97 153.7,-338.01"/>
<polygon fill="#63b8ff" stroke="#63b8ff" points="303.24,-375.24 313.76,-373.95 304.73,-368.4 303.24,-375.24"/>
</g>
<!-- Node17 -->
<g id="node17" class="node">
<title>Node17</title>
<g id="a_node17"><a xlink:href="../../d6/d25/FMC__enums_8h.html" target="_top" xlink:title=" ">
<polygon fill="white" stroke="#666666" points="308.5,-338 183.5,-338 183.5,-308 308.5,-308 308.5,-338"/>
<text text-anchor="start" x="191.5" y="-326" font-family="Helvetica,sans-Serif" font-size="10.00">src/general/types/FMC</text>
<text text-anchor="middle" x="246" y="-315" font-family="Helvetica,sans-Serif" font-size="10.00">_enums.h</text>
</a>
</g>
</g>
<!-- Node13&#45;&gt;Node17 -->
<g id="edge23" class="edge">
<title>Node13&#45;&gt;Node17</title>
<path fill="none" stroke="#63b8ff" d="M343,-369.65C321.61,-359.58 295.51,-347.3 275.78,-338.01"/>
<polygon fill="#63b8ff" stroke="#63b8ff" points="341.62,-372.86 352.15,-373.95 344.6,-366.53 341.62,-372.86"/>
</g>
<!-- Node18 -->
<g id="node18" class="node">
<title>Node18</title>
<g id="a_node18"><a xlink:href="../../d5/de5/FMC__structs_8h.html" target="_top" xlink:title=" ">
<polygon fill="white" stroke="#666666" points="315.5,-272 190.5,-272 190.5,-242 315.5,-242 315.5,-272"/>
<text text-anchor="start" x="198.5" y="-260" font-family="Helvetica,sans-Serif" font-size="10.00">src/general/types/FMC</text>
<text text-anchor="middle" x="253" y="-249" font-family="Helvetica,sans-Serif" font-size="10.00">_structs.h</text>
</a>
</g>
</g>
<!-- Node13&#45;&gt;Node18 -->
<g id="edge27" class="edge">
<title>Node13&#45;&gt;Node18</title>
<path fill="none" stroke="#63b8ff" d="M366.1,-365.79C353.64,-349.08 335.38,-326.04 317,-308 303.41,-294.67 286.36,-281.49 273.27,-272.02"/>
<polygon fill="#63b8ff" stroke="#63b8ff" points="363.32,-367.92 372.06,-373.9 368.96,-363.77 363.32,-367.92"/>
</g>
<!-- Node19 -->
<g id="node19" class="node">
<title>Node19</title>
<g id="a_node19"><a xlink:href="../../df/df8/FMC__typedefs_8h.html" target="_top" xlink:title=" ">
<polygon fill="white" stroke="#666666" points="490.5,-338 365.5,-338 365.5,-308 490.5,-308 490.5,-338"/>
<text text-anchor="start" x="373.5" y="-326" font-family="Helvetica,sans-Serif" font-size="10.00">src/general/types/FMC</text>
<text text-anchor="middle" x="428" y="-315" font-family="Helvetica,sans-Serif" font-size="10.00">_typedefs.h</text>
</a>
</g>
</g>
<!-- Node13&#45;&gt;Node19 -->
<g id="edge28" class="edge">
<title>Node13&#45;&gt;Node19</title>
<path fill="none" stroke="#63b8ff" d="M398.15,-365.53C404.69,-356.43 412.05,-346.19 417.82,-338.16"/>
<polygon fill="#63b8ff" stroke="#63b8ff" points="395.2,-363.63 392.21,-373.8 400.89,-367.72 395.2,-363.63"/>
</g>
<!-- Node21 -->
<g id="node21" class="node">
<title>Node21</title>
<g id="a_node21"><a xlink:href="../../de/dab/FMC__errors_8c.html" target="_top" xlink:title=" ">
<polygon fill="white" stroke="#666666" points="628.5,-272 509.5,-272 509.5,-242 628.5,-242 628.5,-272"/>
<text text-anchor="start" x="517.5" y="-260" font-family="Helvetica,sans-Serif" font-size="10.00">src/general/utils/FMC</text>
<text text-anchor="middle" x="569" y="-249" font-family="Helvetica,sans-Serif" font-size="10.00">_errors.c</text>
</a>
</g>
</g>
<!-- Node13&#45;&gt;Node21 -->
<g id="edge33" class="edge">
<title>Node13&#45;&gt;Node21</title>
<path fill="none" stroke="#63b8ff" d="M437.08,-370.33C457.6,-362.28 480.4,-351.5 499,-338 524.69,-319.35 547.46,-289.65 559.63,-272.16"/>
<polygon fill="#63b8ff" stroke="#63b8ff" points="435.64,-367.13 427.53,-373.95 438.12,-373.68 435.64,-367.13"/>
</g>
<!-- Node22 -->
<g id="node22" class="node">
<title>Node22</title>
<g id="a_node22"><a xlink:href="../../dd/ddf/FMC__errors_8h.html" target="_top" xlink:title=" ">
<polygon fill="white" stroke="#666666" points="666.5,-338 547.5,-338 547.5,-308 666.5,-308 666.5,-338"/>
<text text-anchor="start" x="555.5" y="-326" font-family="Helvetica,sans-Serif" font-size="10.00">src/general/utils/FMC</text>
<text text-anchor="middle" x="607" y="-315" font-family="Helvetica,sans-Serif" font-size="10.00">_errors.h</text>
</a>
</g>
</g>
<!-- Node13&#45;&gt;Node22 -->
<g id="edge34" class="edge">
<title>Node13&#45;&gt;Node22</title>
<path fill="none" stroke="#63b8ff" d="M441.34,-371.12C477.62,-360.8 523.47,-347.76 557.74,-338.01"/>
<polygon fill="#63b8ff" stroke="#63b8ff" points="440.04,-367.85 431.38,-373.95 441.95,-374.59 440.04,-367.85"/>
</g>
<!-- Node14&#45;&gt;Node3 -->
<g id="edge18" class="edge">
<title>Node14&#45;&gt;Node3</title>
<path fill="none" stroke="#63b8ff" d="M813.25,-307.91C826.64,-299.21 842.29,-286.87 852,-272 870.69,-243.39 871,-231.67 871,-197.5 871,-197.5 871,-197.5 871,-135 871,-83.44 820.66,-37.51 797.46,-19.07"/>
<polygon fill="#63b8ff" stroke="#63b8ff" points="811.12,-305.11 804.44,-313.34 814.79,-311.07 811.12,-305.11"/>
</g>
<!-- Node15 -->
<g id="node15" class="node">
<title>Node15</title>
<g id="a_node15"><a xlink:href="../../dd/d0d/FMC__dir__wrapper_8cpp.html" target="_top" xlink:title=" ">
<polygon fill="white" stroke="#666666" points="842.5,-272 723.5,-272 723.5,-242 842.5,-242 842.5,-272"/>
<text text-anchor="start" x="731.5" y="-260" font-family="Helvetica,sans-Serif" font-size="10.00">src/cpp/FMC_dir/FMC</text>
<text text-anchor="middle" x="783" y="-249" font-family="Helvetica,sans-Serif" font-size="10.00">_dir_wrapper.cpp</text>
</a>
</g>
</g>
<!-- Node14&#45;&gt;Node15 -->
<g id="edge19" class="edge">
<title>Node14&#45;&gt;Node15</title>
<path fill="none" stroke="#63b8ff" d="M786.54,-303.35C785.77,-293.47 784.84,-281.51 784.12,-272.36"/>
<polygon fill="#63b8ff" stroke="#63b8ff" points="783.06,-303.67 787.33,-313.37 790.04,-303.13 783.06,-303.67"/>
</g>
<!-- Node16&#45;&gt;Node13 -->
<g id="edge22" class="edge">
<title>Node16&#45;&gt;Node13</title>
<path fill="none" stroke="#63b8ff" d="M175.04,-340.19C222.54,-350.6 282.1,-363.99 325.15,-373.95"/>
<polygon fill="#63b8ff" stroke="#63b8ff" points="175.61,-336.73 165.09,-338.01 174.12,-343.57 175.61,-336.73"/>
</g>
<!-- Node17&#45;&gt;Node2 -->
<g id="edge24" class="edge">
<title>Node17&#45;&gt;Node2</title>
<path fill="none" stroke="#63b8ff" d="M212.04,-302.21C188.55,-286 164.28,-262.5 181,-242 199.05,-219.87 269.18,-208.44 324.89,-202.75"/>
<polygon fill="#63b8ff" stroke="#63b8ff" points="210.31,-305.25 220.58,-307.82 214.15,-299.4 210.31,-305.25"/>
</g>
<!-- Node17&#45;&gt;Node18 -->
<g id="edge25" class="edge">
<title>Node17&#45;&gt;Node18</title>
<path fill="none" stroke="#63b8ff" d="M248.64,-297.83C249.59,-289.17 250.63,-279.7 251.45,-272.16"/>
<polygon fill="#63b8ff" stroke="#63b8ff" points="245.16,-297.48 247.55,-307.8 252.12,-298.24 245.16,-297.48"/>
</g>
<!-- Node18&#45;&gt;Node2 -->
<g id="edge26" class="edge">
<title>Node18&#45;&gt;Node2</title>
<path fill="none" stroke="#63b8ff" d="M297.14,-238.19C323.48,-227.57 355.75,-214.54 376.59,-206.14"/>
<polygon fill="#63b8ff" stroke="#63b8ff" points="295.7,-235 287.73,-241.99 298.31,-241.49 295.7,-235"/>
</g>
<!-- Node19&#45;&gt;Node2 -->
<g id="edge29" class="edge">
<title>Node19&#45;&gt;Node2</title>
<path fill="none" stroke="#63b8ff" d="M447.59,-299.88C459.55,-283.55 470.83,-260.97 461,-242 452.25,-225.12 433.83,-213.27 419.15,-206.07"/>
<polygon fill="#63b8ff" stroke="#63b8ff" points="444.8,-297.77 441.38,-307.79 450.3,-302.09 444.8,-297.77"/>
</g>
<!-- Node19&#45;&gt;Node18 -->
<g id="edge30" class="edge">
<title>Node19&#45;&gt;Node18</title>
<path fill="none" stroke="#63b8ff" d="M380.03,-304.46C352.11,-294.25 317.4,-281.55 291.31,-272.01"/>
<polygon fill="#63b8ff" stroke="#63b8ff" points="379,-307.81 389.6,-307.95 381.41,-301.23 379,-307.81"/>
</g>
<!-- Node20 -->
<g id="node20" class="node">
<title>Node20</title>
<g id="a_node20"><a xlink:href="../../de/d86/FMC__globals_8h.html" target="_top" xlink:title=" ">
<polygon fill="white" stroke="#666666" points="452.5,-272 333.5,-272 333.5,-242 452.5,-242 452.5,-272"/>
<text text-anchor="start" x="341.5" y="-260" font-family="Helvetica,sans-Serif" font-size="10.00">src/general/utils/FMC</text>
<text text-anchor="middle" x="393" y="-249" font-family="Helvetica,sans-Serif" font-size="10.00">_globals.h</text>
</a>
</g>
</g>
<!-- Node19&#45;&gt;Node20 -->
<g id="edge31" class="edge">
<title>Node19&#45;&gt;Node20</title>
<path fill="none" stroke="#63b8ff" d="M415.4,-298.96C410.5,-290 405.05,-280.03 400.75,-272.16"/>
<polygon fill="#63b8ff" stroke="#63b8ff" points="412.36,-300.7 420.23,-307.8 418.5,-297.34 412.36,-300.7"/>
</g>
<!-- Node20&#45;&gt;Node2 -->
<g id="edge32" class="edge">
<title>Node20&#45;&gt;Node2</title>
<path fill="none" stroke="#63b8ff" d="M395.07,-231.75C395.84,-222.72 396.67,-213.03 397.25,-206.27"/>
<polygon fill="#63b8ff" stroke="#63b8ff" points="391.57,-231.58 394.21,-241.84 398.55,-232.17 391.57,-231.58"/>
</g>
<!-- Node22&#45;&gt;Node2 -->
<g id="edge35" class="edge">
<title>Node22&#45;&gt;Node2</title>
<path fill="none" stroke="#63b8ff" d="M626.28,-299.95C638.98,-282.64 650.93,-258.77 637,-242 616.16,-216.92 533.42,-205.91 471.09,-201.11"/>
<polygon fill="#63b8ff" stroke="#63b8ff" points="623.5,-297.82 620.09,-307.85 629.01,-302.13 623.5,-297.82"/>
</g>
<!-- Node22&#45;&gt;Node21 -->
<g id="edge36" class="edge">
<title>Node22&#45;&gt;Node21</title>
<path fill="none" stroke="#63b8ff" d="M593.32,-298.96C588,-290 582.08,-280.03 577.41,-272.16"/>
<polygon fill="#63b8ff" stroke="#63b8ff" points="590.45,-300.98 598.57,-307.8 596.47,-297.41 590.45,-300.98"/>
</g>
</g>
</svg>
