<?xml version="1.0" encoding="UTF-8" standalone="no"?>
<!DOCTYPE svg PUBLIC "-//W3C//DTD SVG 1.1//EN"
 "http://www.w3.org/Graphics/SVG/1.1/DTD/svg11.dtd">
<!-- Generated by graphviz version 2.43.0 (0)
 -->
<!-- Title: src/general/preprocessor/FMC_platform.h Pages: 1 -->
<!--zoomable 544 -->
<svg id="main" version="1.1" xmlns="http://www.w3.org/2000/svg" xmlns:xlink="http://www.w3.org/1999/xlink" xml:space="preserve" onload="init(evt)">
<style type="text/css"><![CDATA[
.edge:hover path { stroke: red; }
.edge:hover polygon { stroke: red; fill: red; }
]]></style>
<script type="text/javascript"><![CDATA[
var edges = document.getElementsByTagName('g');
if (edges && edges.length) {
  for (var i=0;i<edges.length;i++) {
    if (edges[i].id.substr(0,4)=='edge') {
      edges[i].setAttribute('class','edge');
    }
  }
}
]]></script>
        <defs>
                <circle id="rim" cx="0" cy="0" r="7"/>
                <circle id="rim2" cx="0" cy="0" r="3.5"/>
                <g id="zoomPlus">
                        <use xlink:href="#rim" fill="#404040">
                                <set attributeName="fill" to="#808080" begin="zoomplus.mouseover" end="zoomplus.mouseout"/>
                        </use>
                        <path d="M-4,0h8M0,-4v8" fill="none" stroke="white" stroke-width="1.5" pointer-events="none"/>
                </g>
                <g id="zoomMin">
                        <use xlink:href="#rim" fill="#404040">
                                <set attributeName="fill" to="#808080" begin="zoomminus.mouseover" end="zoomminus.mouseout"/>
                        </use>
                        <path d="M-4,0h8" fill="none" stroke="white" stroke-width="1.5" pointer-events="none"/>
                </g>
                <g id="dirArrow">
                        <path fill="none" stroke="white" stroke-width="1.5" d="M0,-3.0v7 M-2.5,-0.5L0,-3.0L2.5,-0.5"/>
                </g>
               <g id="resetDef">
                       <use xlink:href="#rim2" fill="#404040">
                               <set attributeName="fill" to="#808080" begin="reset.mouseover" end="reset.mouseout"/>
                       </use>
               </g>
        </defs>

<script type="text/javascript">
var viewWidth = 879;
var viewHeight = 544;
var sectionId = 'dynsection-0';
</script>
<script xlink:href="../../svgpan.js"/>
<svg id="graph" class="graph">
<g id="viewport">
<title>src/general/preprocessor/FMC_platform.h</title>
<!-- Node1 -->
<g id="node1" class="node">
<title>Node1</title>
<g id="a_node1"><a xlink:title=" ">
<polygon fill="#999999" stroke="#666666" points="476.5,-536 339.5,-536 339.5,-506 476.5,-506 476.5,-536"/>
<text text-anchor="start" x="347.5" y="-524" font-family="Helvetica,sans-Serif" font-size="10.00">src/general/preprocessor</text>
<text text-anchor="middle" x="408" y="-513" font-family="Helvetica,sans-Serif" font-size="10.00">/FMC_platform.h</text>
</a>
</g>
</g>
<!-- Node2 -->
<g id="node2" class="node">
<title>Node2</title>
<g id="a_node2"><a xlink:href="../../d9/de1/FMC__general_8h.html" target="_top" xlink:title=" ">
<polygon fill="white" stroke="#666666" points="471,-206 325,-206 325,-187 471,-187 471,-206"/>
<text text-anchor="middle" x="398" y="-194" font-family="Helvetica,sans-Serif" font-size="10.00">src/general/FMC_general.h</text>
</a>
</g>
</g>
<!-- Node1&#45;&gt;Node2 -->
<g id="edge1" class="edge">
<title>Node1&#45;&gt;Node2</title>
<path fill="none" stroke="#63b8ff" d="M329.2,-516.65C245.15,-508.35 124,-480.67 124,-390 124,-390 124,-390 124,-322 124,-280.54 138.07,-265.84 172,-242 196.3,-224.93 268.45,-212.69 324.77,-205.42"/>
<polygon fill="#63b8ff" stroke="#63b8ff" points="328.97,-520.15 339.25,-517.57 329.61,-513.18 328.97,-520.15"/>
</g>
<!-- Node13 -->
<g id="node13" class="node">
<title>Node13</title>
<g id="a_node13"><a xlink:href="../../d1/d2e/FMC__attributes_8h.html" target="_top" xlink:title=" ">
<polygon fill="white" stroke="#666666" points="476.5,-470 339.5,-470 339.5,-440 476.5,-440 476.5,-470"/>
<text text-anchor="start" x="347.5" y="-458" font-family="Helvetica,sans-Serif" font-size="10.00">src/general/preprocessor</text>
<text text-anchor="middle" x="408" y="-447" font-family="Helvetica,sans-Serif" font-size="10.00">/FMC_attributes.h</text>
</a>
</g>
</g>
<!-- Node1&#45;&gt;Node13 -->
<g id="edge16" class="edge">
<title>Node1&#45;&gt;Node13</title>
<path fill="none" stroke="#63b8ff" d="M408,-495.54C408,-486.96 408,-477.61 408,-470.16"/>
<polygon fill="#63b8ff" stroke="#63b8ff" points="404.5,-495.8 408,-505.8 411.5,-495.8 404.5,-495.8"/>
</g>
<!-- Node14 -->
<g id="node14" class="node">
<title>Node14</title>
<g id="a_node14"><a xlink:href="../../d0/d28/FMC__macros_8h.html" target="_top" xlink:title=" ">
<polygon fill="white" stroke="#666666" points="525.5,-404 388.5,-404 388.5,-374 525.5,-374 525.5,-404"/>
<text text-anchor="start" x="396.5" y="-392" font-family="Helvetica,sans-Serif" font-size="10.00">src/general/preprocessor</text>
<text text-anchor="middle" x="457" y="-381" font-family="Helvetica,sans-Serif" font-size="10.00">/FMC_macros.h</text>
</a>
</g>
</g>
<!-- Node1&#45;&gt;Node14 -->
<g id="edge37" class="edge">
<title>Node1&#45;&gt;Node14</title>
<path fill="none" stroke="#63b8ff" d="M453.69,-501.07C466.45,-493.41 478.79,-483.19 486,-470 497.91,-448.22 481.7,-420.58 469.15,-404.14"/>
<polygon fill="#63b8ff" stroke="#63b8ff" points="451.89,-498.07 444.84,-505.98 455.29,-504.19 451.89,-498.07"/>
</g>
<!-- Node3 -->
<g id="node3" class="node">
<title>Node3</title>
<g id="a_node3"><a xlink:href="../../de/d47/FMC_8h.html" target="_top" xlink:title=" ">
<polygon fill="white" stroke="#666666" points="818.5,-19 753.5,-19 753.5,0 818.5,0 818.5,-19"/>
<text text-anchor="middle" x="786" y="-7" font-family="Helvetica,sans-Serif" font-size="10.00">src/FMC.h</text>
</a>
</g>
</g>
<!-- Node2&#45;&gt;Node3 -->
<g id="edge2" class="edge">
<title>Node2&#45;&gt;Node3</title>
<path fill="none" stroke="#63b8ff" d="M481.24,-192.52C541.07,-188.09 622.71,-177.25 690,-151 738.92,-131.91 763.33,-131.36 788,-85 799.31,-63.76 793.13,-34.05 788.9,-19.4"/>
<polygon fill="#63b8ff" stroke="#63b8ff" points="480.82,-189.04 471.09,-193.23 481.31,-196.03 480.82,-189.04"/>
</g>
<!-- Node4 -->
<g id="node4" class="node">
<title>Node4</title>
<g id="a_node4"><a xlink:href="../../db/d26/FMC__code__utils_8h.html" target="_top" xlink:title=" ">
<polygon fill="white" stroke="#666666" points="108,-151 0,-151 0,-121 108,-121 108,-151"/>
<text text-anchor="start" x="8" y="-139" font-family="Helvetica,sans-Serif" font-size="10.00">src/code_utils/FMC</text>
<text text-anchor="middle" x="54" y="-128" font-family="Helvetica,sans-Serif" font-size="10.00">_code_utils.h</text>
</a>
</g>
</g>
<!-- Node2&#45;&gt;Node4 -->
<g id="edge3" class="edge">
<title>Node2&#45;&gt;Node4</title>
<path fill="none" stroke="#63b8ff" d="M337.9,-185.28C272.98,-174.24 170.51,-156.81 108.05,-146.19"/>
<polygon fill="#63b8ff" stroke="#63b8ff" points="337.53,-188.77 347.98,-186.99 338.71,-181.87 337.53,-188.77"/>
</g>
<!-- Node5 -->
<g id="node5" class="node">
<title>Node5</title>
<g id="a_node5"><a xlink:href="../../db/d30/FMC__encodings_8h.html" target="_top" xlink:title=" ">
<polygon fill="white" stroke="#666666" points="317,-151 165,-151 165,-121 317,-121 317,-151"/>
<text text-anchor="start" x="173" y="-139" font-family="Helvetica,sans-Serif" font-size="10.00">src/data_analyze/encodings</text>
<text text-anchor="middle" x="241" y="-128" font-family="Helvetica,sans-Serif" font-size="10.00">/FMC_encodings.h</text>
</a>
</g>
</g>
<!-- Node2&#45;&gt;Node5 -->
<g id="edge5" class="edge">
<title>Node2&#45;&gt;Node5</title>
<path fill="none" stroke="#63b8ff" d="M365.68,-183.46C340.43,-174.05 305.29,-160.95 278.75,-151.06"/>
<polygon fill="#63b8ff" stroke="#63b8ff" points="364.58,-186.78 375.17,-186.99 367.02,-180.22 364.58,-186.78"/>
</g>
<!-- Node8 -->
<g id="node8" class="node">
<title>Node8</title>
<g id="a_node8"><a xlink:href="../../d9/db5/FMC__strings_8h.html" target="_top" xlink:title=" ">
<polygon fill="white" stroke="#666666" points="470.5,-151 335.5,-151 335.5,-121 470.5,-121 470.5,-151"/>
<text text-anchor="start" x="343.5" y="-139" font-family="Helvetica,sans-Serif" font-size="10.00">src/data_analyze/strings</text>
<text text-anchor="middle" x="403" y="-128" font-family="Helvetica,sans-Serif" font-size="10.00">/FMC_strings.h</text>
</a>
</g>
</g>
<!-- Node2&#45;&gt;Node8 -->
<g id="edge9" class="edge">
<title>Node2&#45;&gt;Node8</title>
<path fill="none" stroke="#63b8ff" d="M399.61,-176.65C400.32,-168.36 401.14,-158.78 401.79,-151.11"/>
<polygon fill="#63b8ff" stroke="#63b8ff" points="396.1,-176.61 398.74,-186.87 403.08,-177.2 396.1,-176.61"/>
</g>
<!-- Node10 -->
<g id="node10" class="node">
<title>Node10</title>
<g id="a_node10"><a xlink:href="../../d2/deb/FMC__file__management_8h.html" target="_top" xlink:title=" ">
<polygon fill="white" stroke="#666666" points="680.5,-151 581.5,-151 581.5,-121 680.5,-121 680.5,-151"/>
<text text-anchor="start" x="589.5" y="-139" font-family="Helvetica,sans-Serif" font-size="10.00">src/files/FMC_file</text>
<text text-anchor="middle" x="631" y="-128" font-family="Helvetica,sans-Serif" font-size="10.00">_management.h</text>
</a>
</g>
</g>
<!-- Node2&#45;&gt;Node10 -->
<g id="edge12" class="edge">
<title>Node2&#45;&gt;Node10</title>
<path fill="none" stroke="#63b8ff" d="M441.78,-184.51C481.42,-174.56 539.77,-159.9 581.18,-149.51"/>
<polygon fill="#63b8ff" stroke="#63b8ff" points="440.73,-181.16 431.88,-186.99 442.43,-187.95 440.73,-181.16"/>
</g>
<!-- Node4&#45;&gt;Node3 -->
<g id="edge4" class="edge">
<title>Node4&#45;&gt;Node3</title>
<path fill="none" stroke="#63b8ff" d="M38.01,-112.31C27.63,-94.56 18.49,-70.39 33,-55 58.07,-28.41 612.08,-14.35 753.41,-11.19"/>
<polygon fill="#63b8ff" stroke="#63b8ff" points="35.15,-114.33 43.44,-120.93 41.07,-110.6 35.15,-114.33"/>
</g>
<!-- Node6 -->
<g id="node6" class="node">
<title>Node6</title>
<g id="a_node6"><a xlink:href="../../da/db0/FMC__data__analyze_8h.html" target="_top" xlink:title=" ">
<polygon fill="white" stroke="#666666" points="336,-85 212,-85 212,-55 336,-55 336,-85"/>
<text text-anchor="start" x="220" y="-73" font-family="Helvetica,sans-Serif" font-size="10.00">src/data_analyze/FMC</text>
<text text-anchor="middle" x="274" y="-62" font-family="Helvetica,sans-Serif" font-size="10.00">_data_analyze.h</text>
</a>
</g>
</g>
<!-- Node5&#45;&gt;Node6 -->
<g id="edge6" class="edge">
<title>Node5&#45;&gt;Node6</title>
<path fill="none" stroke="#63b8ff" d="M253.02,-111.68C257.61,-102.79 262.68,-92.95 266.7,-85.16"/>
<polygon fill="#63b8ff" stroke="#63b8ff" points="249.8,-110.3 248.32,-120.8 256.02,-113.51 249.8,-110.3"/>
</g>
<!-- Node7 -->
<g id="node7" class="node">
<title>Node7</title>
<g id="a_node7"><a xlink:href="../../db/dc4/FMC__encodings_8c.html" target="_top" xlink:title=" ">
<polygon fill="white" stroke="#666666" points="194,-85 42,-85 42,-55 194,-55 194,-85"/>
<text text-anchor="start" x="50" y="-73" font-family="Helvetica,sans-Serif" font-size="10.00">src/data_analyze/encodings</text>
<text text-anchor="middle" x="118" y="-62" font-family="Helvetica,sans-Serif" font-size="10.00">/FMC_encodings.c</text>
</a>
</g>
</g>
<!-- Node5&#45;&gt;Node7 -->
<g id="edge8" class="edge">
<title>Node5&#45;&gt;Node7</title>
<path fill="none" stroke="#63b8ff" d="M204.95,-116.24C185.75,-106.25 162.54,-94.18 144.93,-85.01"/>
<polygon fill="#63b8ff" stroke="#63b8ff" points="203.52,-119.44 214.01,-120.95 206.75,-113.23 203.52,-119.44"/>
</g>
<!-- Node6&#45;&gt;Node3 -->
<g id="edge7" class="edge">
<title>Node6&#45;&gt;Node3</title>
<path fill="none" stroke="#63b8ff" d="M346.19,-54.91C504.31,-31.83 681.35,-17.9 753.23,-12.75"/>
<polygon fill="#63b8ff" stroke="#63b8ff" points="345.66,-51.45 336.28,-56.38 346.68,-58.38 345.66,-51.45"/>
</g>
<!-- Node8&#45;&gt;Node6 -->
<g id="edge10" class="edge">
<title>Node8&#45;&gt;Node6</title>
<path fill="none" stroke="#63b8ff" d="M365.46,-116.38C345.28,-106.36 320.8,-94.22 302.24,-85.01"/>
<polygon fill="#63b8ff" stroke="#63b8ff" points="364.18,-119.65 374.69,-120.95 367.29,-113.38 364.18,-119.65"/>
</g>
<!-- Node9 -->
<g id="node9" class="node">
<title>Node9</title>
<g id="a_node9"><a xlink:href="../../d1/d8c/FMC__chars_8c.html" target="_top" xlink:title=" ">
<polygon fill="white" stroke="#666666" points="489.5,-85 354.5,-85 354.5,-55 489.5,-55 489.5,-85"/>
<text text-anchor="start" x="362.5" y="-73" font-family="Helvetica,sans-Serif" font-size="10.00">src/data_analyze/strings</text>
<text text-anchor="middle" x="422" y="-62" font-family="Helvetica,sans-Serif" font-size="10.00">/FMC_chars.c</text>
</a>
</g>
</g>
<!-- Node8&#45;&gt;Node9 -->
<g id="edge11" class="edge">
<title>Node8&#45;&gt;Node9</title>
<path fill="none" stroke="#63b8ff" d="M410.09,-111.11C412.69,-102.38 415.53,-92.78 417.8,-85.16"/>
<polygon fill="#63b8ff" stroke="#63b8ff" points="406.71,-110.21 407.22,-120.8 413.42,-112.21 406.71,-110.21"/>
</g>
<!-- Node10&#45;&gt;Node3 -->
<g id="edge13" class="edge">
<title>Node10&#45;&gt;Node3</title>
<path fill="none" stroke="#63b8ff" d="M690.88,-125.96C717.61,-119 747.42,-106.7 767,-85 783.99,-66.17 786.23,-34.25 786.25,-19.05"/>
<polygon fill="#63b8ff" stroke="#63b8ff" points="689.73,-122.64 680.82,-128.38 691.36,-129.45 689.73,-122.64"/>
</g>
<!-- Node11 -->
<g id="node11" class="node">
<title>Node11</title>
<g id="a_node11"><a xlink:href="../../d0/dc0/FMC__files_8c.html" target="_top" xlink:title=" ">
<polygon fill="white" stroke="#666666" points="620.5,-79.5 507.5,-79.5 507.5,-60.5 620.5,-60.5 620.5,-79.5"/>
<text text-anchor="middle" x="564" y="-67.5" font-family="Helvetica,sans-Serif" font-size="10.00">src/files/FMC_files.c</text>
</a>
</g>
</g>
<!-- Node10&#45;&gt;Node11 -->
<g id="edge14" class="edge">
<title>Node10&#45;&gt;Node11</title>
<path fill="none" stroke="#63b8ff" d="M608.6,-113.6C596.55,-102.1 582.34,-88.52 573.26,-79.84"/>
<polygon fill="#63b8ff" stroke="#63b8ff" points="606.48,-116.42 616.13,-120.8 611.32,-111.36 606.48,-116.42"/>
</g>
<!-- Node12 -->
<g id="node12" class="node">
<title>Node12</title>
<g id="a_node12"><a xlink:href="../../dc/d5e/FMC__paths_8c.html" target="_top" xlink:title=" ">
<polygon fill="white" stroke="#666666" points="757.5,-79.5 638.5,-79.5 638.5,-60.5 757.5,-60.5 757.5,-79.5"/>
<text text-anchor="middle" x="698" y="-67.5" font-family="Helvetica,sans-Serif" font-size="10.00">src/files/FMC_paths.c</text>
</a>
</g>
</g>
<!-- Node10&#45;&gt;Node12 -->
<g id="edge15" class="edge">
<title>Node10&#45;&gt;Node12</title>
<path fill="none" stroke="#63b8ff" d="M653.4,-113.6C665.45,-102.1 679.66,-88.52 688.74,-79.84"/>
<polygon fill="#63b8ff" stroke="#63b8ff" points="650.68,-111.36 645.87,-120.8 655.52,-116.42 650.68,-111.36"/>
</g>
<!-- Node13&#45;&gt;Node14 -->
<g id="edge17" class="edge">
<title>Node13&#45;&gt;Node14</title>
<path fill="none" stroke="#63b8ff" d="M418.93,-431.24C425.33,-422.21 433.32,-412.11 440.44,-404.16"/>
<polygon fill="#63b8ff" stroke="#63b8ff" points="415.85,-429.55 413.15,-439.8 421.65,-433.47 415.85,-429.55"/>
</g>
<!-- Node14&#45;&gt;Node2 -->
<g id="edge21" class="edge">
<title>Node14&#45;&gt;Node2</title>
<path fill="none" stroke="#63b8ff" d="M535.46,-378.69C585.75,-370.93 644.42,-357.89 660,-338 671.91,-322.8 671.11,-260.56 654,-242 629.85,-215.8 537.99,-204.99 471.21,-200.55"/>
<polygon fill="#63b8ff" stroke="#63b8ff" points="534.9,-375.24 525.53,-380.18 535.94,-382.16 534.9,-375.24"/>
</g>
<!-- Node14&#45;&gt;Node13 -->
<g id="edge22" class="edge">
<title>Node14&#45;&gt;Node13</title>
<path fill="none" stroke="#63b8ff" d="M446.1,-412.71C439.71,-421.74 431.72,-431.84 424.59,-439.8"/>
<polygon fill="#63b8ff" stroke="#63b8ff" points="449.18,-414.41 451.87,-404.16 443.38,-410.5 449.18,-414.41"/>
</g>
<!-- Node15 -->
<g id="node15" class="node">
<title>Node15</title>
<g id="a_node15"><a xlink:href="../../d4/db9/FMC__wrapper_8h.html" target="_top" xlink:title=" ">
<polygon fill="white" stroke="#666666" points="852.5,-332.5 723.5,-332.5 723.5,-313.5 852.5,-313.5 852.5,-332.5"/>
<text text-anchor="middle" x="788" y="-320.5" font-family="Helvetica,sans-Serif" font-size="10.00">src/cpp/FMC_wrapper.h</text>
</a>
</g>
</g>
<!-- Node14&#45;&gt;Node15 -->
<g id="edge18" class="edge">
<title>Node14&#45;&gt;Node15</title>
<path fill="none" stroke="#63b8ff" d="M535.8,-372.76C600.83,-360.19 690.75,-342.8 743.79,-332.55"/>
<polygon fill="#63b8ff" stroke="#63b8ff" points="534.74,-369.4 525.58,-374.74 536.07,-376.28 534.74,-369.4"/>
</g>
<!-- Node17 -->
<g id="node17" class="node">
<title>Node17</title>
<g id="a_node17"><a xlink:href="../../d6/d25/FMC__enums_8h.html" target="_top" xlink:title=" ">
<polygon fill="white" stroke="#666666" points="292.5,-338 167.5,-338 167.5,-308 292.5,-308 292.5,-338"/>
<text text-anchor="start" x="175.5" y="-326" font-family="Helvetica,sans-Serif" font-size="10.00">src/general/types/FMC</text>
<text text-anchor="middle" x="230" y="-315" font-family="Helvetica,sans-Serif" font-size="10.00">_enums.h</text>
</a>
</g>
</g>
<!-- Node14&#45;&gt;Node17 -->
<g id="edge23" class="edge">
<title>Node14&#45;&gt;Node17</title>
<path fill="none" stroke="#63b8ff" d="M397.13,-371.12C360.53,-360.8 314.27,-347.76 279.7,-338.01"/>
<polygon fill="#63b8ff" stroke="#63b8ff" points="396.61,-374.61 407.18,-373.95 398.51,-367.87 396.61,-374.61"/>
</g>
<!-- Node18 -->
<g id="node18" class="node">
<title>Node18</title>
<g id="a_node18"><a xlink:href="../../d5/de5/FMC__structs_8h.html" target="_top" xlink:title=" ">
<polygon fill="white" stroke="#666666" points="315.5,-272 190.5,-272 190.5,-242 315.5,-242 315.5,-272"/>
<text text-anchor="start" x="198.5" y="-260" font-family="Helvetica,sans-Serif" font-size="10.00">src/general/types/FMC</text>
<text text-anchor="middle" x="253" y="-249" font-family="Helvetica,sans-Serif" font-size="10.00">_structs.h</text>
</a>
</g>
</g>
<!-- Node14&#45;&gt;Node18 -->
<g id="edge27" class="edge">
<title>Node14&#45;&gt;Node18</title>
<path fill="none" stroke="#63b8ff" d="M405.48,-370.36C384.36,-362.04 360.19,-351.05 340,-338 310.36,-318.85 281.27,-289.32 265.38,-272"/>
<polygon fill="#63b8ff" stroke="#63b8ff" points="404.35,-373.68 414.94,-374 406.86,-367.14 404.35,-373.68"/>
</g>
<!-- Node19 -->
<g id="node19" class="node">
<title>Node19</title>
<g id="a_node19"><a xlink:href="../../df/df8/FMC__typedefs_8h.html" target="_top" xlink:title=" ">
<polygon fill="white" stroke="#666666" points="474.5,-338 349.5,-338 349.5,-308 474.5,-308 474.5,-338"/>
<text text-anchor="start" x="357.5" y="-326" font-family="Helvetica,sans-Serif" font-size="10.00">src/general/types/FMC</text>
<text text-anchor="middle" x="412" y="-315" font-family="Helvetica,sans-Serif" font-size="10.00">_typedefs.h</text>
</a>
</g>
</g>
<!-- Node14&#45;&gt;Node19 -->
<g id="edge28" class="edge">
<title>Node14&#45;&gt;Node19</title>
<path fill="none" stroke="#63b8ff" d="M441.2,-365.53C434.8,-356.43 427.61,-346.19 421.96,-338.16"/>
<polygon fill="#63b8ff" stroke="#63b8ff" points="438.4,-367.63 447.01,-373.8 444.12,-363.6 438.4,-367.63"/>
</g>
<!-- Node21 -->
<g id="node21" class="node">
<title>Node21</title>
<g id="a_node21"><a xlink:href="../../de/dab/FMC__errors_8c.html" target="_top" xlink:title=" ">
<polygon fill="white" stroke="#666666" points="628.5,-272 509.5,-272 509.5,-242 628.5,-242 628.5,-272"/>
<text text-anchor="start" x="517.5" y="-260" font-family="Helvetica,sans-Serif" font-size="10.00">src/general/utils/FMC</text>
<text text-anchor="middle" x="569" y="-249" font-family="Helvetica,sans-Serif" font-size="10.00">_errors.c</text>
</a>
</g>
</g>
<!-- Node14&#45;&gt;Node21 -->
<g id="edge33" class="edge">
<title>Node14&#45;&gt;Node21</title>
<path fill="none" stroke="#63b8ff" d="M474.56,-366.08C487.68,-349.85 506.18,-327.3 523,-308 533.69,-295.73 546.23,-282.16 555.51,-272.25"/>
<polygon fill="#63b8ff" stroke="#63b8ff" points="471.77,-363.95 468.22,-373.94 477.22,-368.35 471.77,-363.95"/>
</g>
<!-- Node22 -->
<g id="node22" class="node">
<title>Node22</title>
<g id="a_node22"><a xlink:href="../../dd/ddf/FMC__errors_8h.html" target="_top" xlink:title=" ">
<polygon fill="white" stroke="#666666" points="650.5,-338 531.5,-338 531.5,-308 650.5,-308 650.5,-338"/>
<text text-anchor="start" x="539.5" y="-326" font-family="Helvetica,sans-Serif" font-size="10.00">src/general/utils/FMC</text>
<text text-anchor="middle" x="591" y="-315" font-family="Helvetica,sans-Serif" font-size="10.00">_errors.h</text>
</a>
</g>
</g>
<!-- Node14&#45;&gt;Node22 -->
<g id="edge34" class="edge">
<title>Node14&#45;&gt;Node22</title>
<path fill="none" stroke="#63b8ff" d="M495.71,-369.51C516.73,-359.47 542.3,-347.26 561.66,-338.01"/>
<polygon fill="#63b8ff" stroke="#63b8ff" points="493.92,-366.49 486.41,-373.95 496.94,-372.8 493.92,-366.49"/>
</g>
<!-- Node15&#45;&gt;Node3 -->
<g id="edge19" class="edge">
<title>Node15&#45;&gt;Node3</title>
<path fill="none" stroke="#63b8ff" d="M813.25,-307.91C826.64,-299.21 842.29,-286.87 852,-272 870.69,-243.39 871,-231.67 871,-197.5 871,-197.5 871,-197.5 871,-135 871,-83.44 820.66,-37.51 797.46,-19.07"/>
<polygon fill="#63b8ff" stroke="#63b8ff" points="811.12,-305.11 804.44,-313.34 814.79,-311.07 811.12,-305.11"/>
</g>
<!-- Node16 -->
<g id="node16" class="node">
<title>Node16</title>
<g id="a_node16"><a xlink:href="../../dd/d0d/FMC__dir__wrapper_8cpp.html" target="_top" xlink:title=" ">
<polygon fill="white" stroke="#666666" points="842.5,-272 723.5,-272 723.5,-242 842.5,-242 842.5,-272"/>
<text text-anchor="start" x="731.5" y="-260" font-family="Helvetica,sans-Serif" font-size="10.00">src/cpp/FMC_dir/FMC</text>
<text text-anchor="middle" x="783" y="-249" font-family="Helvetica,sans-Serif" font-size="10.00">_dir_wrapper.cpp</text>
</a>
</g>
</g>
<!-- Node15&#45;&gt;Node16 -->
<g id="edge20" class="edge">
<title>Node15&#45;&gt;Node16</title>
<path fill="none" stroke="#63b8ff" d="M786.54,-303.35C785.77,-293.47 784.84,-281.51 784.12,-272.36"/>
<polygon fill="#63b8ff" stroke="#63b8ff" points="783.06,-303.67 787.33,-313.37 790.04,-303.13 783.06,-303.67"/>
</g>
<!-- Node17&#45;&gt;Node2 -->
<g id="edge24" class="edge">
<title>Node17&#45;&gt;Node2</title>
<path fill="none" stroke="#63b8ff" d="M203.01,-301.23C184.49,-284.46 165.78,-260.66 181,-242 199.05,-219.87 269.18,-208.44 324.89,-202.75"/>
<polygon fill="#63b8ff" stroke="#63b8ff" points="200.97,-304.09 210.84,-307.95 205.53,-298.78 200.97,-304.09"/>
</g>
<!-- Node17&#45;&gt;Node18 -->
<g id="edge25" class="edge">
<title>Node17&#45;&gt;Node18</title>
<path fill="none" stroke="#63b8ff" d="M238.59,-298.11C241.72,-289.38 245.17,-279.78 247.91,-272.16"/>
<polygon fill="#63b8ff" stroke="#63b8ff" points="235.19,-297.2 235.1,-307.8 241.78,-299.57 235.19,-297.2"/>
</g>
<!-- Node18&#45;&gt;Node2 -->
<g id="edge26" class="edge">
<title>Node18&#45;&gt;Node2</title>
<path fill="none" stroke="#63b8ff" d="M297.14,-238.19C323.48,-227.57 355.75,-214.54 376.59,-206.14"/>
<polygon fill="#63b8ff" stroke="#63b8ff" points="295.7,-235 287.73,-241.99 298.31,-241.49 295.7,-235"/>
</g>
<!-- Node19&#45;&gt;Node2 -->
<g id="edge29" class="edge">
<title>Node19&#45;&gt;Node2</title>
<path fill="none" stroke="#63b8ff" d="M440.1,-301.32C448.82,-293.25 457.35,-283.23 462,-272 467.1,-259.68 468.18,-253.82 462,-242 453.16,-225.09 434.64,-213.31 419.79,-206.13"/>
<polygon fill="#63b8ff" stroke="#63b8ff" points="437.77,-298.71 432.49,-307.89 442.35,-304 437.77,-298.71"/>
</g>
<!-- Node19&#45;&gt;Node18 -->
<g id="edge30" class="edge">
<title>Node19&#45;&gt;Node18</title>
<path fill="none" stroke="#63b8ff" d="M367.75,-304.19C342.5,-294.02 311.3,-281.47 287.81,-272.01"/>
<polygon fill="#63b8ff" stroke="#63b8ff" points="366.52,-307.47 377.11,-307.95 369.14,-300.97 366.52,-307.47"/>
</g>
<!-- Node20 -->
<g id="node20" class="node">
<title>Node20</title>
<g id="a_node20"><a xlink:href="../../de/d86/FMC__globals_8h.html" target="_top" xlink:title=" ">
<polygon fill="white" stroke="#666666" points="452.5,-272 333.5,-272 333.5,-242 452.5,-242 452.5,-272"/>
<text text-anchor="start" x="341.5" y="-260" font-family="Helvetica,sans-Serif" font-size="10.00">src/general/utils/FMC</text>
<text text-anchor="middle" x="393" y="-249" font-family="Helvetica,sans-Serif" font-size="10.00">_globals.h</text>
</a>
</g>
</g>
<!-- Node19&#45;&gt;Node20 -->
<g id="edge31" class="edge">
<title>Node19&#45;&gt;Node20</title>
<path fill="none" stroke="#63b8ff" d="M404.91,-298.11C402.31,-289.38 399.47,-279.78 397.2,-272.16"/>
<polygon fill="#63b8ff" stroke="#63b8ff" points="401.58,-299.21 407.78,-307.8 408.29,-297.21 401.58,-299.21"/>
</g>
<!-- Node20&#45;&gt;Node2 -->
<g id="edge32" class="edge">
<title>Node20&#45;&gt;Node2</title>
<path fill="none" stroke="#63b8ff" d="M395.07,-231.75C395.84,-222.72 396.67,-213.03 397.25,-206.27"/>
<polygon fill="#63b8ff" stroke="#63b8ff" points="391.57,-231.58 394.21,-241.84 398.55,-232.17 391.57,-231.58"/>
</g>
<!-- Node22&#45;&gt;Node2 -->
<g id="edge35" class="edge">
<title>Node22&#45;&gt;Node2</title>
<path fill="none" stroke="#63b8ff" d="M617.22,-301.04C635.18,-284.16 653.23,-260.31 638,-242 617.03,-216.79 533.72,-205.8 471.09,-201.05"/>
<polygon fill="#63b8ff" stroke="#63b8ff" points="614.76,-298.55 609.63,-307.81 619.42,-303.77 614.76,-298.55"/>
</g>
<!-- Node22&#45;&gt;Node21 -->
<g id="edge36" class="edge">
<title>Node22&#45;&gt;Node21</title>
<path fill="none" stroke="#63b8ff" d="M582.79,-298.11C579.79,-289.38 576.49,-279.78 573.87,-272.16"/>
<polygon fill="#63b8ff" stroke="#63b8ff" points="579.56,-299.48 586.12,-307.8 586.18,-297.2 579.56,-299.48"/>
</g>
</g>
</svg>
        <g id="navigator" transform="translate(0 0)" fill="#404254">
                <rect fill="#f2f5e9" fill-opacity="0.5" stroke="#606060" stroke-width=".5" x="0" y="0" width="60" height="60"/>
                <use id="zoomplus" xlink:href="#zoomPlus" x="17" y="9" onmousedown="handleZoom(evt,'in')"/>
                <use id="zoomminus" xlink:href="#zoomMin" x="42" y="9" onmousedown="handleZoom(evt,'out')"/>
                <use id="reset" xlink:href="#resetDef" x="30" y="36" onmousedown="handleReset()"/>
                <g id="arrowUp" xlink:href="#dirArrow" transform="translate(30 24)" onmousedown="handlePan(0,-1)">
                  <use xlink:href="#rim" fill="#404040">
                        <set attributeName="fill" to="#808080" begin="arrowUp.mouseover" end="arrowUp.mouseout"/>
                  </use>
                  <path fill="none" stroke="white" stroke-width="1.5" d="M0,-3.0v7 M-2.5,-0.5L0,-3.0L2.5,-0.5"/>
                </g>
                <g id="arrowRight" xlink:href="#dirArrow" transform="rotate(90) translate(36 -43)" onmousedown="handlePan(1,0)">
                  <use xlink:href="#rim" fill="#404040">
                        <set attributeName="fill" to="#808080" begin="arrowRight.mouseover" end="arrowRight.mouseout"/>
                  </use>
                  <path fill="none" stroke="white" stroke-width="1.5" d="M0,-3.0v7 M-2.5,-0.5L0,-3.0L2.5,-0.5"/>
                </g>
                <g id="arrowDown" xlink:href="#dirArrow" transform="rotate(180) translate(-30 -48)" onmousedown="handlePan(0,1)">
                  <use xlink:href="#rim" fill="#404040">
                        <set attributeName="fill" to="#808080" begin="arrowDown.mouseover" end="arrowDown.mouseout"/>
                  </use>
                  <path fill="none" stroke="white" stroke-width="1.5" d="M0,-3.0v7 M-2.5,-0.5L0,-3.0L2.5,-0.5"/>
                </g>
                <g id="arrowLeft" xlink:href="#dirArrow" transform="rotate(270) translate(-36 17)" onmousedown="handlePan(-1,0)">
                  <use xlink:href="#rim" fill="#404040">
                        <set attributeName="fill" to="#808080" begin="arrowLeft.mouseover" end="arrowLeft.mouseout"/>
                  </use>
                  <path fill="none" stroke="white" stroke-width="1.5" d="M0,-3.0v7 M-2.5,-0.5L0,-3.0L2.5,-0.5"/>
                </g>
        </g>
        <svg viewBox="0 0 15 15" width="100%" height="30px" preserveAspectRatio="xMaxYMin meet">
         <g id="arrow_out" transform="scale(0.3 0.3)">
          <a xlink:href="FMC__platform_8h__dep__incl_org.svg" target="_base">
           <rect id="button" ry="5" rx="5" y="6" x="6" height="38" width="38"
                fill="#f2f5e9" fill-opacity="0.5" stroke="#606060" stroke-width="1.0"/>
           <path id="arrow"
             d="M 11.500037,31.436501 C 11.940474,20.09759 22.043105,11.32322 32.158766,21.979434 L 37.068811,17.246167 C 37.068811,17.246167 37.088388,32 37.088388,32 L 22.160133,31.978069 C 22.160133,31.978069 26.997745,27.140456 26.997745,27.140456 C 18.528582,18.264221 13.291696,25.230495 11.500037,31.436501 z"
             style="fill:#404040;"/>
          </a>
         </g>
        </svg>
</svg>
