<?xml version="1.0" encoding="UTF-8" standalone="no"?>
<!DOCTYPE svg PUBLIC "-//W3C//DTD SVG 1.1//EN"
 "http://www.w3.org/Graphics/SVG/1.1/DTD/svg11.dtd">
<!-- Generated by graphviz version 2.43.0 (0)
 -->
<!-- Title: src/general/preprocessor/FMC_platform.h Pages: 1 -->
<svg width="1025pt" height="489pt"
 viewBox="0.00 0.00 1025.32 489.00" xmlns="http://www.w3.org/2000/svg" xmlns:xlink="http://www.w3.org/1999/xlink">
<g id="graph0" class="graph" transform="scale(1 1) rotate(0) translate(4 485)">
<title>src/general/preprocessor/FMC_platform.h</title>
<!-- Node1 -->
<g id="node1" class="node">
<title>Node1</title>
<g id="a_node1"><a xlink:title=" ">
<polygon fill="#999999" stroke="#666666" points="336.5,-481 199.5,-481 199.5,-451 336.5,-451 336.5,-481"/>
<text text-anchor="start" x="207.5" y="-469" font-family="Helvetica,sans-Serif" font-size="10.00">src/general/preprocessor</text>
<text text-anchor="middle" x="268" y="-458" font-family="Helvetica,sans-Serif" font-size="10.00">/FMC_platform.h</text>
</a>
</g>
</g>
<!-- Node2 -->
<g id="node2" class="node">
<title>Node2</title>
<g id="a_node2"><a xlink:href="../../d9/de1/FMC__general_8h.html" target="_top" xlink:title=" ">
<polygon fill="white" stroke="#666666" points="595,-211.5 449,-211.5 449,-192.5 595,-192.5 595,-211.5"/>
<text text-anchor="middle" x="522" y="-199.5" font-family="Helvetica,sans-Serif" font-size="10.00">src/general/FMC_general.h</text>
</a>
</g>
</g>
<!-- Node1&#45;&gt;Node2 -->
<g id="edge1" class="edge">
<title>Node1&#45;&gt;Node2</title>
<path fill="none" stroke="#63b8ff" d="M231.41,-445.72C198.76,-426.23 153.1,-392.77 133,-349 122.92,-327.05 138.38,-258.43 144,-253 186.18,-212.22 351.16,-203.94 448.67,-202.71"/>
<polygon fill="#63b8ff" stroke="#63b8ff" points="229.83,-448.86 240.24,-450.85 233.35,-442.8 229.83,-448.86"/>
</g>
<!-- Node15 -->
<g id="node15" class="node">
<title>Node15</title>
<g id="a_node15"><a xlink:href="../../d0/d28/FMC__macros_8h.html" target="_top" xlink:title=" ">
<polygon fill="white" stroke="#666666" points="521.5,-415 384.5,-415 384.5,-385 521.5,-385 521.5,-415"/>
<text text-anchor="start" x="392.5" y="-403" font-family="Helvetica,sans-Serif" font-size="10.00">src/general/preprocessor</text>
<text text-anchor="middle" x="453" y="-392" font-family="Helvetica,sans-Serif" font-size="10.00">/FMC_macros.h</text>
</a>
</g>
</g>
<!-- Node1&#45;&gt;Node15 -->
<g id="edge19" class="edge">
<title>Node1&#45;&gt;Node15</title>
<path fill="none" stroke="#63b8ff" d="M318.33,-447.59C347.9,-437.36 384.8,-424.59 412.5,-415.01"/>
<polygon fill="#63b8ff" stroke="#63b8ff" points="316.91,-444.38 308.6,-450.95 319.19,-450.99 316.91,-444.38"/>
</g>
<!-- Node3 -->
<g id="node3" class="node">
<title>Node3</title>
<g id="a_node3"><a xlink:href="../../de/d47/FMC_8h.html" target="_top" xlink:title=" ">
<polygon fill="white" stroke="#666666" points="541.5,-19 476.5,-19 476.5,0 541.5,0 541.5,-19"/>
<text text-anchor="middle" x="509" y="-7" font-family="Helvetica,sans-Serif" font-size="10.00">src/FMC.h</text>
</a>
</g>
</g>
<!-- Node2&#45;&gt;Node3 -->
<g id="edge2" class="edge">
<title>Node2&#45;&gt;Node3</title>
<path fill="none" stroke="#63b8ff" d="M597.92,-190.99C705.89,-174.97 895.09,-139.7 934,-85 941.73,-74.13 942.92,-64.91 934,-55 907.84,-25.96 636.72,-14.57 541.69,-11.46"/>
<polygon fill="#63b8ff" stroke="#63b8ff" points="597.12,-187.57 587.73,-192.48 598.13,-194.49 597.12,-187.57"/>
</g>
<!-- Node4 -->
<g id="node4" class="node">
<title>Node4</title>
<g id="a_node4"><a xlink:href="../../db/d26/FMC__code__utils_8h.html" target="_top" xlink:title=" ">
<polygon fill="white" stroke="#666666" points="108,-151 0,-151 0,-121 108,-121 108,-151"/>
<text text-anchor="start" x="8" y="-139" font-family="Helvetica,sans-Serif" font-size="10.00">src/code_utils/FMC</text>
<text text-anchor="middle" x="54" y="-128" font-family="Helvetica,sans-Serif" font-size="10.00">_code_utils.h</text>
</a>
</g>
</g>
<!-- Node2&#45;&gt;Node4 -->
<g id="edge3" class="edge">
<title>Node2&#45;&gt;Node4</title>
<path fill="none" stroke="#63b8ff" d="M449.34,-191.06C355.02,-178.17 192.56,-155.95 108.27,-144.42"/>
<polygon fill="#63b8ff" stroke="#63b8ff" points="448.99,-194.55 459.37,-192.44 449.94,-187.61 448.99,-194.55"/>
</g>
<!-- Node5 -->
<g id="node5" class="node">
<title>Node5</title>
<g id="a_node5"><a xlink:href="../../db/d30/FMC__encodings_8h.html" target="_top" xlink:title=" ">
<polygon fill="white" stroke="#666666" points="327,-151 175,-151 175,-121 327,-121 327,-151"/>
<text text-anchor="start" x="183" y="-139" font-family="Helvetica,sans-Serif" font-size="10.00">src/data_analyze/encodings</text>
<text text-anchor="middle" x="251" y="-128" font-family="Helvetica,sans-Serif" font-size="10.00">/FMC_encodings.h</text>
</a>
</g>
</g>
<!-- Node2&#45;&gt;Node5 -->
<g id="edge5" class="edge">
<title>Node2&#45;&gt;Node5</title>
<path fill="none" stroke="#63b8ff" d="M475.81,-190.09C430.17,-179.31 360.14,-162.78 310.39,-151.02"/>
<polygon fill="#63b8ff" stroke="#63b8ff" points="475.2,-193.54 485.73,-192.44 476.81,-186.73 475.2,-193.54"/>
</g>
<!-- Node8 -->
<g id="node8" class="node">
<title>Node8</title>
<g id="a_node8"><a xlink:href="../../d9/db5/FMC__strings_8h.html" target="_top" xlink:title=" ">
<polygon fill="white" stroke="#666666" points="480.5,-151 345.5,-151 345.5,-121 480.5,-121 480.5,-151"/>
<text text-anchor="start" x="353.5" y="-139" font-family="Helvetica,sans-Serif" font-size="10.00">src/data_analyze/strings</text>
<text text-anchor="middle" x="413" y="-128" font-family="Helvetica,sans-Serif" font-size="10.00">/FMC_strings.h</text>
</a>
</g>
</g>
<!-- Node2&#45;&gt;Node8 -->
<g id="edge9" class="edge">
<title>Node2&#45;&gt;Node8</title>
<path fill="none" stroke="#63b8ff" d="M498.51,-187.21C480.36,-176.55 455.33,-161.85 437.04,-151.12"/>
<polygon fill="#63b8ff" stroke="#63b8ff" points="496.9,-190.32 507.3,-192.37 500.45,-184.29 496.9,-190.32"/>
</g>
<!-- Node10 -->
<g id="node10" class="node">
<title>Node10</title>
<g id="a_node10"><a xlink:href="../../d2/deb/FMC__file__management_8h.html" target="_top" xlink:title=" ">
<polygon fill="white" stroke="#666666" points="597.5,-151 498.5,-151 498.5,-121 597.5,-121 597.5,-151"/>
<text text-anchor="start" x="506.5" y="-139" font-family="Helvetica,sans-Serif" font-size="10.00">src/files/FMC_file</text>
<text text-anchor="middle" x="548" y="-128" font-family="Helvetica,sans-Serif" font-size="10.00">_management.h</text>
</a>
</g>
</g>
<!-- Node2&#45;&gt;Node10 -->
<g id="edge12" class="edge">
<title>Node2&#45;&gt;Node10</title>
<path fill="none" stroke="#63b8ff" d="M529.32,-182.98C533.38,-172.98 538.37,-160.71 542.17,-151.36"/>
<polygon fill="#63b8ff" stroke="#63b8ff" points="526.03,-181.79 525.51,-192.37 532.51,-184.42 526.03,-181.79"/>
</g>
<!-- Node13 -->
<g id="node13" class="node">
<title>Node13</title>
<g id="a_node13"><a xlink:href="../../da/d45/FMC__str__view_8h.html" target="_top" xlink:title=" ">
<polygon fill="white" stroke="#666666" points="734.5,-151 615.5,-151 615.5,-121 734.5,-121 734.5,-151"/>
<text text-anchor="start" x="623.5" y="-139" font-family="Helvetica,sans-Serif" font-size="10.00">src/general/utils/FMC</text>
<text text-anchor="middle" x="675" y="-128" font-family="Helvetica,sans-Serif" font-size="10.00">_str_view.h</text>
</a>
</g>
</g>
<!-- Node2&#45;&gt;Node13 -->
<g id="edge16" class="edge">
<title>Node2&#45;&gt;Node13</title>
<path fill="none" stroke="#63b8ff" d="M547.03,-188.22C571.09,-177.5 607.6,-162.2 635.55,-151.12"/>
<polygon fill="#63b8ff" stroke="#63b8ff" points="545.52,-185.06 537.85,-192.37 548.4,-191.44 545.52,-185.06"/>
</g>
<!-- Node4&#45;&gt;Node3 -->
<g id="edge4" class="edge">
<title>Node4&#45;&gt;Node3</title>
<path fill="none" stroke="#63b8ff" d="M34.54,-112.89C21.51,-95.36 9.22,-71.2 24,-55 54.46,-21.62 372.18,-12.96 476.22,-11.01"/>
<polygon fill="#63b8ff" stroke="#63b8ff" points="31.92,-115.23 40.88,-120.9 37.41,-110.89 31.92,-115.23"/>
</g>
<!-- Node6 -->
<g id="node6" class="node">
<title>Node6</title>
<g id="a_node6"><a xlink:href="../../da/db0/FMC__data__analyze_8h.html" target="_top" xlink:title=" ">
<polygon fill="white" stroke="#666666" points="327,-85 203,-85 203,-55 327,-55 327,-85"/>
<text text-anchor="start" x="211" y="-73" font-family="Helvetica,sans-Serif" font-size="10.00">src/data_analyze/FMC</text>
<text text-anchor="middle" x="265" y="-62" font-family="Helvetica,sans-Serif" font-size="10.00">_data_analyze.h</text>
</a>
</g>
</g>
<!-- Node5&#45;&gt;Node6 -->
<g id="edge6" class="edge">
<title>Node5&#45;&gt;Node6</title>
<path fill="none" stroke="#63b8ff" d="M256.29,-110.83C258.18,-102.17 260.25,-92.7 261.9,-85.16"/>
<polygon fill="#63b8ff" stroke="#63b8ff" points="252.82,-110.28 254.11,-120.8 259.66,-111.78 252.82,-110.28"/>
</g>
<!-- Node7 -->
<g id="node7" class="node">
<title>Node7</title>
<g id="a_node7"><a xlink:href="../../db/dc4/FMC__encodings_8c.html" target="_top" xlink:title=" ">
<polygon fill="white" stroke="#666666" points="185,-85 33,-85 33,-55 185,-55 185,-85"/>
<text text-anchor="start" x="41" y="-73" font-family="Helvetica,sans-Serif" font-size="10.00">src/data_analyze/encodings</text>
<text text-anchor="middle" x="109" y="-62" font-family="Helvetica,sans-Serif" font-size="10.00">/FMC_encodings.c</text>
</a>
</g>
</g>
<!-- Node5&#45;&gt;Node7 -->
<g id="edge8" class="edge">
<title>Node5&#45;&gt;Node7</title>
<path fill="none" stroke="#63b8ff" d="M210.58,-116.78C188.2,-106.69 160.79,-94.34 140.09,-85.01"/>
<polygon fill="#63b8ff" stroke="#63b8ff" points="209.28,-120.04 219.84,-120.95 212.16,-113.65 209.28,-120.04"/>
</g>
<!-- Node6&#45;&gt;Node3 -->
<g id="edge7" class="edge">
<title>Node6&#45;&gt;Node3</title>
<path fill="none" stroke="#63b8ff" d="M333.22,-52.64C380.04,-41.42 440.07,-27.03 476.48,-18.3"/>
<polygon fill="#63b8ff" stroke="#63b8ff" points="332.35,-49.25 323.44,-54.99 333.98,-56.06 332.35,-49.25"/>
</g>
<!-- Node8&#45;&gt;Node6 -->
<g id="edge10" class="edge">
<title>Node8&#45;&gt;Node6</title>
<path fill="none" stroke="#63b8ff" d="M371.19,-116.92C347.8,-106.8 319.08,-94.38 297.4,-85.01"/>
<polygon fill="#63b8ff" stroke="#63b8ff" points="369.95,-120.2 380.52,-120.95 372.73,-113.77 369.95,-120.2"/>
</g>
<!-- Node9 -->
<g id="node9" class="node">
<title>Node9</title>
<g id="a_node9"><a xlink:href="../../d1/d8c/FMC__chars_8c.html" target="_top" xlink:title=" ">
<polygon fill="white" stroke="#666666" points="480.5,-85 345.5,-85 345.5,-55 480.5,-55 480.5,-85"/>
<text text-anchor="start" x="353.5" y="-73" font-family="Helvetica,sans-Serif" font-size="10.00">src/data_analyze/strings</text>
<text text-anchor="middle" x="413" y="-62" font-family="Helvetica,sans-Serif" font-size="10.00">/FMC_chars.c</text>
</a>
</g>
</g>
<!-- Node8&#45;&gt;Node9 -->
<g id="edge11" class="edge">
<title>Node8&#45;&gt;Node9</title>
<path fill="none" stroke="#63b8ff" d="M413,-110.54C413,-101.96 413,-92.61 413,-85.16"/>
<polygon fill="#63b8ff" stroke="#63b8ff" points="409.5,-110.8 413,-120.8 416.5,-110.8 409.5,-110.8"/>
</g>
<!-- Node10&#45;&gt;Node3 -->
<g id="edge13" class="edge">
<title>Node10&#45;&gt;Node3</title>
<path fill="none" stroke="#63b8ff" d="M538.43,-111.29C535.25,-103.04 531.8,-93.67 529,-85 521.42,-61.55 514.4,-33.32 511.06,-19.3"/>
<polygon fill="#63b8ff" stroke="#63b8ff" points="535.21,-112.67 542.12,-120.7 541.73,-110.11 535.21,-112.67"/>
</g>
<!-- Node11 -->
<g id="node11" class="node">
<title>Node11</title>
<g id="a_node11"><a xlink:href="../../d0/dc0/FMC__files_8c.html" target="_top" xlink:title=" ">
<polygon fill="white" stroke="#666666" points="650.5,-79.5 537.5,-79.5 537.5,-60.5 650.5,-60.5 650.5,-79.5"/>
<text text-anchor="middle" x="594" y="-67.5" font-family="Helvetica,sans-Serif" font-size="10.00">src/files/FMC_files.c</text>
</a>
</g>
</g>
<!-- Node10&#45;&gt;Node11 -->
<g id="edge14" class="edge">
<title>Node10&#45;&gt;Node11</title>
<path fill="none" stroke="#63b8ff" d="M564.09,-112.61C572.2,-101.32 581.58,-88.28 587.64,-79.84"/>
<polygon fill="#63b8ff" stroke="#63b8ff" points="561.2,-110.63 558.21,-120.8 566.89,-114.72 561.2,-110.63"/>
</g>
<!-- Node12 -->
<g id="node12" class="node">
<title>Node12</title>
<g id="a_node12"><a xlink:href="../../dc/d5e/FMC__paths_8c.html" target="_top" xlink:title=" ">
<polygon fill="white" stroke="#666666" points="787.5,-79.5 668.5,-79.5 668.5,-60.5 787.5,-60.5 787.5,-79.5"/>
<text text-anchor="middle" x="728" y="-67.5" font-family="Helvetica,sans-Serif" font-size="10.00">src/files/FMC_paths.c</text>
</a>
</g>
</g>
<!-- Node10&#45;&gt;Node12 -->
<g id="edge15" class="edge">
<title>Node10&#45;&gt;Node12</title>
<path fill="none" stroke="#63b8ff" d="M597,-117.58C631.74,-105.23 676.84,-89.19 704.05,-79.52"/>
<polygon fill="#63b8ff" stroke="#63b8ff" points="595.75,-114.31 587.5,-120.95 598.1,-120.9 595.75,-114.31"/>
</g>
<!-- Node13&#45;&gt;Node2 -->
<g id="edge17" class="edge">
<title>Node13&#45;&gt;Node2</title>
<path fill="none" stroke="#63b8ff" d="M637.48,-155.27C609.47,-167.45 572.06,-182.91 547.42,-192.37"/>
<polygon fill="#63b8ff" stroke="#63b8ff" points="639.21,-158.34 646.96,-151.12 636.4,-151.93 639.21,-158.34"/>
</g>
<!-- Node14 -->
<g id="node14" class="node">
<title>Node14</title>
<g id="a_node14"><a xlink:href="../../d2/daf/FMC__str__view_8c.html" target="_top" xlink:title=" ">
<polygon fill="white" stroke="#666666" points="924.5,-85 805.5,-85 805.5,-55 924.5,-55 924.5,-85"/>
<text text-anchor="start" x="813.5" y="-73" font-family="Helvetica,sans-Serif" font-size="10.00">src/general/utils/FMC</text>
<text text-anchor="middle" x="865" y="-62" font-family="Helvetica,sans-Serif" font-size="10.00">_str_view.c</text>
</a>
</g>
</g>
<!-- Node13&#45;&gt;Node14 -->
<g id="edge18" class="edge">
<title>Node13&#45;&gt;Node14</title>
<path fill="none" stroke="#63b8ff" d="M726.29,-117.72C756.73,-107.47 794.84,-94.63 823.4,-85.01"/>
<polygon fill="#63b8ff" stroke="#63b8ff" points="725.06,-114.45 716.7,-120.95 727.29,-121.08 725.06,-114.45"/>
</g>
<!-- Node15&#45;&gt;Node2 -->
<g id="edge23" class="edge">
<title>Node15&#45;&gt;Node2</title>
<path fill="none" stroke="#63b8ff" d="M374.31,-397.56C292.16,-394.2 171.28,-383.36 142,-349 133.35,-338.85 139.34,-332.07 142,-319 148.35,-287.78 144.74,-272.42 170,-253 212.39,-220.41 358.62,-209.03 448.73,-205.08"/>
<polygon fill="#63b8ff" stroke="#63b8ff" points="374.25,-401.06 384.37,-397.95 374.51,-394.07 374.25,-401.06"/>
</g>
<!-- Node16 -->
<g id="node16" class="node">
<title>Node16</title>
<g id="a_node16"><a xlink:href="../../d4/db9/FMC__wrapper_8h.html" target="_top" xlink:title=" ">
<polygon fill="white" stroke="#666666" points="993.5,-343.5 864.5,-343.5 864.5,-324.5 993.5,-324.5 993.5,-343.5"/>
<text text-anchor="middle" x="929" y="-331.5" font-family="Helvetica,sans-Serif" font-size="10.00">src/cpp/FMC_wrapper.h</text>
</a>
</g>
</g>
<!-- Node15&#45;&gt;Node16 -->
<g id="edge20" class="edge">
<title>Node15&#45;&gt;Node16</title>
<path fill="none" stroke="#63b8ff" d="M531.7,-388.83C608.18,-378.89 727.6,-363.22 831,-349 843.68,-347.26 857.29,-345.34 870.2,-343.5"/>
<polygon fill="#63b8ff" stroke="#63b8ff" points="531.13,-385.38 521.66,-390.14 532.03,-392.32 531.13,-385.38"/>
</g>
<!-- Node18 -->
<g id="node18" class="node">
<title>Node18</title>
<g id="a_node18"><a xlink:href="../../d1/d2e/FMC__attributes_8h.html" target="_top" xlink:title=" ">
<polygon fill="white" stroke="#666666" points="287.5,-349 150.5,-349 150.5,-319 287.5,-319 287.5,-349"/>
<text text-anchor="start" x="158.5" y="-337" font-family="Helvetica,sans-Serif" font-size="10.00">src/general/preprocessor</text>
<text text-anchor="middle" x="219" y="-326" font-family="Helvetica,sans-Serif" font-size="10.00">/FMC_attributes.h</text>
</a>
</g>
</g>
<!-- Node15&#45;&gt;Node18 -->
<g id="edge24" class="edge">
<title>Node15&#45;&gt;Node18</title>
<path fill="none" stroke="#63b8ff" d="M386.25,-382.39C347.28,-372.03 299.18,-358.84 264.54,-349.01"/>
<polygon fill="#63b8ff" stroke="#63b8ff" points="385.39,-385.78 395.95,-384.95 387.18,-379.01 385.39,-385.78"/>
</g>
<!-- Node20 -->
<g id="node20" class="node">
<title>Node20</title>
<g id="a_node20"><a xlink:href="../../d6/d25/FMC__enums_8h.html" target="_top" xlink:title=" ">
<polygon fill="white" stroke="#666666" points="606.5,-349 481.5,-349 481.5,-319 606.5,-319 606.5,-349"/>
<text text-anchor="start" x="489.5" y="-337" font-family="Helvetica,sans-Serif" font-size="10.00">src/general/types/FMC</text>
<text text-anchor="middle" x="544" y="-326" font-family="Helvetica,sans-Serif" font-size="10.00">_enums.h</text>
</a>
</g>
</g>
<!-- Node15&#45;&gt;Node20 -->
<g id="edge28" class="edge">
<title>Node15&#45;&gt;Node20</title>
<path fill="none" stroke="#63b8ff" d="M481.4,-379.03C495.17,-369.34 511.38,-357.94 523.86,-349.16"/>
<polygon fill="#63b8ff" stroke="#63b8ff" points="479.36,-376.18 473.2,-384.8 483.39,-381.91 479.36,-376.18"/>
</g>
<!-- Node21 -->
<g id="node21" class="node">
<title>Node21</title>
<g id="a_node21"><a xlink:href="../../d5/de5/FMC__structs_8h.html" target="_top" xlink:title=" ">
<polygon fill="white" stroke="#666666" points="675.5,-283 550.5,-283 550.5,-253 675.5,-253 675.5,-283"/>
<text text-anchor="start" x="558.5" y="-271" font-family="Helvetica,sans-Serif" font-size="10.00">src/general/types/FMC</text>
<text text-anchor="middle" x="613" y="-260" font-family="Helvetica,sans-Serif" font-size="10.00">_structs.h</text>
</a>
</g>
</g>
<!-- Node15&#45;&gt;Node21 -->
<g id="edge32" class="edge">
<title>Node15&#45;&gt;Node21</title>
<path fill="none" stroke="#63b8ff" d="M531.85,-394.48C563.24,-388.33 596.47,-375.42 616,-349 630.13,-329.89 624.04,-300.61 618.45,-283.28"/>
<polygon fill="#63b8ff" stroke="#63b8ff" points="531,-391.07 521.75,-396.24 532.2,-397.97 531,-391.07"/>
</g>
<!-- Node22 -->
<g id="node22" class="node">
<title>Node22</title>
<g id="a_node22"><a xlink:href="../../df/df8/FMC__typedefs_8h.html" target="_top" xlink:title=" ">
<polygon fill="white" stroke="#666666" points="788.5,-349 663.5,-349 663.5,-319 788.5,-319 788.5,-349"/>
<text text-anchor="start" x="671.5" y="-337" font-family="Helvetica,sans-Serif" font-size="10.00">src/general/types/FMC</text>
<text text-anchor="middle" x="726" y="-326" font-family="Helvetica,sans-Serif" font-size="10.00">_typedefs.h</text>
</a>
</g>
</g>
<!-- Node15&#45;&gt;Node22 -->
<g id="edge33" class="edge">
<title>Node15&#45;&gt;Node22</title>
<path fill="none" stroke="#63b8ff" d="M522.75,-382.65C567.11,-372.25 623.94,-358.93 666.23,-349.01"/>
<polygon fill="#63b8ff" stroke="#63b8ff" points="521.85,-379.26 512.91,-384.95 523.45,-386.08 521.85,-379.26"/>
</g>
<!-- Node23 -->
<g id="node23" class="node">
<title>Node23</title>
<g id="a_node23"><a xlink:href="../../de/d86/FMC__globals_8h.html" target="_top" xlink:title=" ">
<polygon fill="white" stroke="#666666" points="851.5,-283 732.5,-283 732.5,-253 851.5,-253 851.5,-283"/>
<text text-anchor="start" x="740.5" y="-271" font-family="Helvetica,sans-Serif" font-size="10.00">src/general/utils/FMC</text>
<text text-anchor="middle" x="792" y="-260" font-family="Helvetica,sans-Serif" font-size="10.00">_globals.h</text>
</a>
</g>
</g>
<!-- Node15&#45;&gt;Node23 -->
<g id="edge43" class="edge">
<title>Node15&#45;&gt;Node23</title>
<path fill="none" stroke="#63b8ff" d="M531.66,-399.04C622.64,-397.22 764.26,-387.98 798,-349 813.77,-330.78 805.48,-300.65 798.46,-283.03"/>
<polygon fill="#63b8ff" stroke="#63b8ff" points="531.59,-395.54 521.65,-399.22 531.71,-402.54 531.59,-395.54"/>
</g>
<!-- Node25 -->
<g id="node25" class="node">
<title>Node25</title>
<g id="a_node25"><a xlink:href="../../de/dab/FMC__errors_8c.html" target="_top" xlink:title=" ">
<polygon fill="white" stroke="#666666" points="493.5,-283 374.5,-283 374.5,-253 493.5,-253 493.5,-283"/>
<text text-anchor="start" x="382.5" y="-271" font-family="Helvetica,sans-Serif" font-size="10.00">src/general/utils/FMC</text>
<text text-anchor="middle" x="434" y="-260" font-family="Helvetica,sans-Serif" font-size="10.00">_errors.c</text>
</a>
</g>
</g>
<!-- Node15&#45;&gt;Node25 -->
<g id="edge39" class="edge">
<title>Node15&#45;&gt;Node25</title>
<path fill="none" stroke="#63b8ff" d="M449.45,-374.68C445.5,-347.7 439.28,-305.11 436.07,-283.14"/>
<polygon fill="#63b8ff" stroke="#63b8ff" points="446.02,-375.45 450.93,-384.84 452.95,-374.44 446.02,-375.45"/>
</g>
<!-- Node26 -->
<g id="node26" class="node">
<title>Node26</title>
<g id="a_node26"><a xlink:href="../../dd/ddf/FMC__errors_8h.html" target="_top" xlink:title=" ">
<polygon fill="white" stroke="#666666" points="424.5,-349 305.5,-349 305.5,-319 424.5,-319 424.5,-349"/>
<text text-anchor="start" x="313.5" y="-337" font-family="Helvetica,sans-Serif" font-size="10.00">src/general/utils/FMC</text>
<text text-anchor="middle" x="365" y="-326" font-family="Helvetica,sans-Serif" font-size="10.00">_errors.h</text>
</a>
</g>
</g>
<!-- Node15&#45;&gt;Node26 -->
<g id="edge40" class="edge">
<title>Node15&#45;&gt;Node26</title>
<path fill="none" stroke="#63b8ff" d="M425.16,-378.75C411.93,-369.13 396.43,-357.86 384.48,-349.16"/>
<polygon fill="#63b8ff" stroke="#63b8ff" points="423.32,-381.75 433.47,-384.8 427.44,-376.08 423.32,-381.75"/>
</g>
<!-- Node16&#45;&gt;Node3 -->
<g id="edge21" class="edge">
<title>Node16&#45;&gt;Node3</title>
<path fill="none" stroke="#63b8ff" d="M956.47,-319.31C970.91,-310.76 987.69,-298.44 998,-283 1018.28,-252.6 1017,-239.54 1017,-203 1017,-203 1017,-203 1017,-135 1017,-88.91 991.66,-76.72 951,-55 880.08,-17.11 631.49,-11.42 541.68,-10.61"/>
<polygon fill="#63b8ff" stroke="#63b8ff" points="954.44,-316.44 947.42,-324.37 957.86,-322.55 954.44,-316.44"/>
</g>
<!-- Node17 -->
<g id="node17" class="node">
<title>Node17</title>
<g id="a_node17"><a xlink:href="../../dd/d0d/FMC__dir__wrapper_8cpp.html" target="_top" xlink:title=" ">
<polygon fill="white" stroke="#666666" points="988.5,-283 869.5,-283 869.5,-253 988.5,-253 988.5,-283"/>
<text text-anchor="start" x="877.5" y="-271" font-family="Helvetica,sans-Serif" font-size="10.00">src/cpp/FMC_dir/FMC</text>
<text text-anchor="middle" x="929" y="-260" font-family="Helvetica,sans-Serif" font-size="10.00">_dir_wrapper.cpp</text>
</a>
</g>
</g>
<!-- Node16&#45;&gt;Node17 -->
<g id="edge22" class="edge">
<title>Node16&#45;&gt;Node17</title>
<path fill="none" stroke="#63b8ff" d="M929,-314.35C929,-304.47 929,-292.51 929,-283.36"/>
<polygon fill="#63b8ff" stroke="#63b8ff" points="925.5,-314.37 929,-324.37 932.5,-314.37 925.5,-314.37"/>
</g>
<!-- Node18&#45;&gt;Node15 -->
<g id="edge25" class="edge">
<title>Node18&#45;&gt;Node15</title>
<path fill="none" stroke="#63b8ff" d="M285.62,-351.58C324.57,-361.93 372.67,-375.12 407.35,-384.95"/>
<polygon fill="#63b8ff" stroke="#63b8ff" points="286.49,-348.19 275.93,-349.01 284.7,-354.96 286.49,-348.19"/>
</g>
<!-- Node19 -->
<g id="node19" class="node">
<title>Node19</title>
<g id="a_node19"><a xlink:href="../../d4/d06/FMC__deprecated_8h.html" target="_top" xlink:title=" ">
<polygon fill="white" stroke="#666666" points="297.5,-283 178.5,-283 178.5,-253 297.5,-253 297.5,-283"/>
<text text-anchor="start" x="186.5" y="-271" font-family="Helvetica,sans-Serif" font-size="10.00">src/general/utils/FMC</text>
<text text-anchor="middle" x="238" y="-260" font-family="Helvetica,sans-Serif" font-size="10.00">_deprecated.h</text>
</a>
</g>
</g>
<!-- Node18&#45;&gt;Node19 -->
<g id="edge26" class="edge">
<title>Node18&#45;&gt;Node19</title>
<path fill="none" stroke="#63b8ff" d="M226.09,-309.11C228.69,-300.38 231.53,-290.78 233.8,-283.16"/>
<polygon fill="#63b8ff" stroke="#63b8ff" points="222.71,-308.21 223.22,-318.8 229.42,-310.21 222.71,-308.21"/>
</g>
<!-- Node19&#45;&gt;Node2 -->
<g id="edge27" class="edge">
<title>Node19&#45;&gt;Node2</title>
<path fill="none" stroke="#63b8ff" d="M307.34,-251.37C363.07,-238.81 439.24,-221.65 484.26,-211.5"/>
<polygon fill="#63b8ff" stroke="#63b8ff" points="306.52,-247.97 297.54,-253.58 308.06,-254.8 306.52,-247.97"/>
</g>
<!-- Node20&#45;&gt;Node2 -->
<g id="edge29" class="edge">
<title>Node20&#45;&gt;Node2</title>
<path fill="none" stroke="#63b8ff" d="M539.93,-308.96C534.96,-279.59 526.81,-231.39 523.48,-211.75"/>
<polygon fill="#63b8ff" stroke="#63b8ff" points="536.48,-309.56 541.6,-318.84 543.39,-308.4 536.48,-309.56"/>
</g>
<!-- Node20&#45;&gt;Node21 -->
<g id="edge30" class="edge">
<title>Node20&#45;&gt;Node21</title>
<path fill="none" stroke="#63b8ff" d="M566.72,-311.92C576.9,-302.49 588.63,-291.61 597.73,-283.16"/>
<polygon fill="#63b8ff" stroke="#63b8ff" points="564.26,-309.43 559.31,-318.8 569.03,-314.56 564.26,-309.43"/>
</g>
<!-- Node21&#45;&gt;Node2 -->
<g id="edge31" class="edge">
<title>Node21&#45;&gt;Node2</title>
<path fill="none" stroke="#63b8ff" d="M584.38,-246.87C567.54,-235.03 547.09,-220.65 534.31,-211.66"/>
<polygon fill="#63b8ff" stroke="#63b8ff" points="582.61,-249.91 592.8,-252.8 586.64,-244.18 582.61,-249.91"/>
</g>
<!-- Node22&#45;&gt;Node2 -->
<g id="edge34" class="edge">
<title>Node22&#45;&gt;Node2</title>
<path fill="none" stroke="#63b8ff" d="M719.29,-308.98C713.14,-291.14 702.3,-267.5 685,-253 658.45,-230.76 622.13,-218.4 590.5,-211.54"/>
<polygon fill="#63b8ff" stroke="#63b8ff" points="716.02,-310.23 722.39,-318.69 722.69,-308.1 716.02,-310.23"/>
</g>
<!-- Node22&#45;&gt;Node21 -->
<g id="edge35" class="edge">
<title>Node22&#45;&gt;Node21</title>
<path fill="none" stroke="#63b8ff" d="M692.4,-313.97C674.86,-304.03 653.77,-292.09 637.74,-283.01"/>
<polygon fill="#63b8ff" stroke="#63b8ff" points="690.78,-317.07 701.2,-318.95 694.23,-310.98 690.78,-317.07"/>
</g>
<!-- Node22&#45;&gt;Node23 -->
<g id="edge36" class="edge">
<title>Node22&#45;&gt;Node23</title>
<path fill="none" stroke="#63b8ff" d="M748.02,-311.65C757.69,-302.27 768.77,-291.53 777.39,-283.16"/>
<polygon fill="#63b8ff" stroke="#63b8ff" points="745.39,-309.32 740.65,-318.8 750.26,-314.35 745.39,-309.32"/>
</g>
<!-- Node23&#45;&gt;Node2 -->
<g id="edge37" class="edge">
<title>Node23&#45;&gt;Node2</title>
<path fill="none" stroke="#63b8ff" d="M722.8,-250.6C670.17,-238.12 599.87,-221.46 557.93,-211.52"/>
<polygon fill="#63b8ff" stroke="#63b8ff" points="722.21,-254.05 732.75,-252.95 723.82,-247.24 722.21,-254.05"/>
</g>
<!-- Node24 -->
<g id="node24" class="node">
<title>Node24</title>
<g id="a_node24"><a xlink:href="../../d0/ddd/FMC__globals_8c.html" target="_top" xlink:title=" ">
<polygon fill="white" stroke="#666666" points="851.5,-217 732.5,-217 732.5,-187 851.5,-187 851.5,-217"/>
<text text-anchor="start" x="740.5" y="-205" font-family="Helvetica,sans-Serif" font-size="10.00">src/general/utils/FMC</text>
<text text-anchor="middle" x="792" y="-194" font-family="Helvetica,sans-Serif" font-size="10.00">_globals.c</text>
</a>
</g>
</g>
<!-- Node23&#45;&gt;Node24 -->
<g id="edge38" class="edge">
<title>Node23&#45;&gt;Node24</title>
<path fill="none" stroke="#63b8ff" d="M792,-242.54C792,-233.96 792,-224.61 792,-217.16"/>
<polygon fill="#63b8ff" stroke="#63b8ff" points="788.5,-242.8 792,-252.8 795.5,-242.8 788.5,-242.8"/>
</g>
<!-- Node26&#45;&gt;Node2 -->
<g id="edge41" class="edge">
<title>Node26&#45;&gt;Node2</title>
<path fill="none" stroke="#63b8ff" d="M358.42,-308.83C355.24,-291.61 354.31,-268.82 366,-253 385.19,-227.04 418.03,-214.27 448.64,-208.1"/>
<polygon fill="#63b8ff" stroke="#63b8ff" points="355.02,-309.7 360.59,-318.72 361.86,-308.2 355.02,-309.7"/>
</g>
<!-- Node26&#45;&gt;Node25 -->
<g id="edge42" class="edge">
<title>Node26&#45;&gt;Node25</title>
<path fill="none" stroke="#63b8ff" d="M387.72,-311.92C397.9,-302.49 409.63,-291.61 418.73,-283.16"/>
<polygon fill="#63b8ff" stroke="#63b8ff" points="385.26,-309.43 380.31,-318.8 390.03,-314.56 385.26,-309.43"/>
</g>
</g>
</svg>
