<?xml version="1.0" encoding="UTF-8" standalone="no"?>
<!DOCTYPE svg PUBLIC "-//W3C//DTD SVG 1.1//EN"
 "http://www.w3.org/Graphics/SVG/1.1/DTD/svg11.dtd">
<!-- Generated by graphviz version 2.43.0 (0)
 -->
<!-- Title: src/general/preprocessor/FMC_platform.h Pages: 1 -->
<!--zoomable 478 -->
<svg id="main" version="1.1" xmlns="http://www.w3.org/2000/svg" xmlns:xlink="http://www.w3.org/1999/xlink" xml:space="preserve" onload="init(evt)">
<style type="text/css"><![CDATA[
.edge:hover path { stroke: red; }
.edge:hover polygon { stroke: red; fill: red; }
]]></style>
<script type="text/javascript"><![CDATA[
var edges = document.getElementsByTagName('g');
if (edges && edges.length) {
  for (var i=0;i<edges.length;i++) {
    if (edges[i].id.substr(0,4)=='edge') {
      edges[i].setAttribute('class','edge');
    }
  }
}
]]></script>
        <defs>
                <circle id="rim" cx="0" cy="0" r="7"/>
                <circle id="rim2" cx="0" cy="0" r="3.5"/>
                <g id="zoomPlus">
                        <use xlink:href="#rim" fill="#404040">
                                <set attributeName="fill" to="#808080" begin="zoomplus.mouseover" end="zoomplus.mouseout"/>
                        </use>
                        <path d="M-4,0h8M0,-4v8" fill="none" stroke="white" stroke-width="1.5" pointer-events="none"/>
                </g>
                <g id="zoomMin">
                        <use xlink:href="#rim" fill="#404040">
                                <set attributeName="fill" to="#808080" begin="zoomminus.mouseover" end="zoomminus.mouseout"/>
                        </use>
                        <path d="M-4,0h8" fill="none" stroke="white" stroke-width="1.5" pointer-events="none"/>
                </g>
                <g id="dirArrow">
                        <path fill="none" stroke="white" stroke-width="1.5" d="M0,-3.0v7 M-2.5,-0.5L0,-3.0L2.5,-0.5"/>
                </g>
               <g id="resetDef">
                       <use xlink:href="#rim2" fill="#404040">
                               <set attributeName="fill" to="#808080" begin="reset.mouseover" end="reset.mouseout"/>
                       </use>
               </g>
        </defs>

<script type="text/javascript">
var viewWidth = 895;
var viewHeight = 478;
var sectionId = 'dynsection-0';
</script>
<script xlink:href="../../svgpan.js"/>
<svg id="graph" class="graph">
<g id="viewport">
<title>src/general/preprocessor/FMC_platform.h</title>
<!-- Node1 -->
<g id="node1" class="node">
<title>Node1</title>
<g id="a_node1"><a xlink:title=" ">
<polygon fill="#999999" stroke="#666666" points="786.5,-470 649.5,-470 649.5,-440 786.5,-440 786.5,-470"/>
<text text-anchor="start" x="657.5" y="-458" font-family="Helvetica,sans-Serif" font-size="10.00">src/general/preprocessor</text>
<text text-anchor="middle" x="718" y="-447" font-family="Helvetica,sans-Serif" font-size="10.00">/FMC_platform.h</text>
</a>
</g>
</g>
<!-- Node2 -->
<g id="node2" class="node">
<title>Node2</title>
<g id="a_node2"><a xlink:href="../../d9/de1/FMC__general_8h.html" target="_top" xlink:title=" ">
<polygon fill="white" stroke="#666666" points="568,-206 422,-206 422,-187 568,-187 568,-206"/>
<text text-anchor="middle" x="495" y="-194" font-family="Helvetica,sans-Serif" font-size="10.00">src/general/FMC_general.h</text>
</a>
</g>
</g>
<!-- Node1&#45;&gt;Node2 -->
<g id="edge1" class="edge">
<title>Node1&#45;&gt;Node2</title>
<path fill="none" stroke="#63b8ff" d="M764.84,-435.78C804.37,-417.59 858.35,-385.47 883,-338 893.67,-317.46 881.41,-250.13 873,-242 851.54,-221.24 671.95,-207.61 568.22,-201.39"/>
<polygon fill="#63b8ff" stroke="#63b8ff" points="763.34,-432.61 755.63,-439.88 766.19,-439.01 763.34,-432.61"/>
</g>
<!-- Node13 -->
<g id="node13" class="node">
<title>Node13</title>
<g id="a_node13"><a xlink:href="../../d0/d28/FMC__macros_8h.html" target="_top" xlink:title=" ">
<polygon fill="white" stroke="#666666" points="601.5,-404 464.5,-404 464.5,-374 601.5,-374 601.5,-404"/>
<text text-anchor="start" x="472.5" y="-392" font-family="Helvetica,sans-Serif" font-size="10.00">src/general/preprocessor</text>
<text text-anchor="middle" x="533" y="-381" font-family="Helvetica,sans-Serif" font-size="10.00">/FMC_macros.h</text>
</a>
</g>
</g>
<!-- Node1&#45;&gt;Node13 -->
<g id="edge16" class="edge">
<title>Node1&#45;&gt;Node13</title>
<path fill="none" stroke="#63b8ff" d="M667.67,-436.59C638.1,-426.36 601.2,-413.59 573.5,-404.01"/>
<polygon fill="#63b8ff" stroke="#63b8ff" points="666.81,-439.99 677.4,-439.95 669.09,-433.38 666.81,-439.99"/>
</g>
<!-- Node3 -->
<g id="node3" class="node">
<title>Node3</title>
<g id="a_node3"><a xlink:href="../../de/d47/FMC_8h.html" target="_top" xlink:title=" ">
<polygon fill="white" stroke="#666666" points="355.5,-19 290.5,-19 290.5,0 355.5,0 355.5,-19"/>
<text text-anchor="middle" x="323" y="-7" font-family="Helvetica,sans-Serif" font-size="10.00">src/FMC.h</text>
</a>
</g>
</g>
<!-- Node2&#45;&gt;Node3 -->
<g id="edge2" class="edge">
<title>Node2&#45;&gt;Node3</title>
<path fill="none" stroke="#63b8ff" d="M578.28,-188.93C702.1,-176.19 912.14,-141.35 833,-55 800.72,-19.78 462.94,-12.33 355.57,-10.85"/>
<polygon fill="#63b8ff" stroke="#63b8ff" points="577.65,-185.48 568.05,-189.95 578.34,-192.44 577.65,-185.48"/>
</g>
<!-- Node4 -->
<g id="node4" class="node">
<title>Node4</title>
<g id="a_node4"><a xlink:href="../../db/d26/FMC__code__utils_8h.html" target="_top" xlink:title=" ">
<polygon fill="white" stroke="#666666" points="171,-151 63,-151 63,-121 171,-121 171,-151"/>
<text text-anchor="start" x="71" y="-139" font-family="Helvetica,sans-Serif" font-size="10.00">src/code_utils/FMC</text>
<text text-anchor="middle" x="117" y="-128" font-family="Helvetica,sans-Serif" font-size="10.00">_code_utils.h</text>
</a>
</g>
</g>
<!-- Node2&#45;&gt;Node4 -->
<g id="edge3" class="edge">
<title>Node2&#45;&gt;Node4</title>
<path fill="none" stroke="#63b8ff" d="M430.02,-185.44C356.9,-174.13 239.45,-155.95 171.11,-145.37"/>
<polygon fill="#63b8ff" stroke="#63b8ff" points="429.62,-188.92 440.04,-186.99 430.69,-182.01 429.62,-188.92"/>
</g>
<!-- Node5 -->
<g id="node5" class="node">
<title>Node5</title>
<g id="a_node5"><a xlink:href="../../db/d30/FMC__encodings_8h.html" target="_top" xlink:title=" ">
<polygon fill="white" stroke="#666666" points="392,-151 240,-151 240,-121 392,-121 392,-151"/>
<text text-anchor="start" x="248" y="-139" font-family="Helvetica,sans-Serif" font-size="10.00">src/data_analyze/encodings</text>
<text text-anchor="middle" x="316" y="-128" font-family="Helvetica,sans-Serif" font-size="10.00">/FMC_encodings.h</text>
</a>
</g>
</g>
<!-- Node2&#45;&gt;Node5 -->
<g id="edge5" class="edge">
<title>Node2&#45;&gt;Node5</title>
<path fill="none" stroke="#63b8ff" d="M459.29,-183.83C430.43,-174.4 389.7,-161.09 359.03,-151.06"/>
<polygon fill="#63b8ff" stroke="#63b8ff" points="458.38,-187.21 468.97,-186.99 460.55,-180.56 458.38,-187.21"/>
</g>
<!-- Node8 -->
<g id="node8" class="node">
<title>Node8</title>
<g id="a_node8"><a xlink:href="../../d9/db5/FMC__strings_8h.html" target="_top" xlink:title=" ">
<polygon fill="white" stroke="#666666" points="545.5,-151 410.5,-151 410.5,-121 545.5,-121 545.5,-151"/>
<text text-anchor="start" x="418.5" y="-139" font-family="Helvetica,sans-Serif" font-size="10.00">src/data_analyze/strings</text>
<text text-anchor="middle" x="478" y="-128" font-family="Helvetica,sans-Serif" font-size="10.00">/FMC_strings.h</text>
</a>
</g>
</g>
<!-- Node2&#45;&gt;Node8 -->
<g id="edge9" class="edge">
<title>Node2&#45;&gt;Node8</title>
<path fill="none" stroke="#63b8ff" d="M489.69,-177.22C487.24,-168.79 484.38,-158.95 482.1,-151.11"/>
<polygon fill="#63b8ff" stroke="#63b8ff" points="486.34,-178.24 492.49,-186.87 493.06,-176.29 486.34,-178.24"/>
</g>
<!-- Node10 -->
<g id="node10" class="node">
<title>Node10</title>
<g id="a_node10"><a xlink:href="../../d2/deb/FMC__file__management_8h.html" target="_top" xlink:title=" ">
<polygon fill="white" stroke="#666666" points="734.5,-151 635.5,-151 635.5,-121 734.5,-121 734.5,-151"/>
<text text-anchor="start" x="643.5" y="-139" font-family="Helvetica,sans-Serif" font-size="10.00">src/files/FMC_file</text>
<text text-anchor="middle" x="685" y="-128" font-family="Helvetica,sans-Serif" font-size="10.00">_management.h</text>
</a>
</g>
</g>
<!-- Node2&#45;&gt;Node10 -->
<g id="edge12" class="edge">
<title>Node2&#45;&gt;Node10</title>
<path fill="none" stroke="#63b8ff" d="M532.5,-183.95C563.16,-174.51 606.63,-161.13 639.32,-151.06"/>
<polygon fill="#63b8ff" stroke="#63b8ff" points="531.15,-180.71 522.63,-186.99 533.21,-187.4 531.15,-180.71"/>
</g>
<!-- Node4&#45;&gt;Node3 -->
<g id="edge4" class="edge">
<title>Node4&#45;&gt;Node3</title>
<path fill="none" stroke="#63b8ff" d="M95.6,-113.14C81.39,-95.95 67.75,-72.12 82,-55 108.13,-23.6 230.63,-14.27 290.24,-11.57"/>
<polygon fill="#63b8ff" stroke="#63b8ff" points="93.27,-115.79 102.5,-120.99 98.53,-111.17 93.27,-115.79"/>
</g>
<!-- Node6 -->
<g id="node6" class="node">
<title>Node6</title>
<g id="a_node6"><a xlink:href="../../da/db0/FMC__data__analyze_8h.html" target="_top" xlink:title=" ">
<polygon fill="white" stroke="#666666" points="385,-85 261,-85 261,-55 385,-55 385,-85"/>
<text text-anchor="start" x="269" y="-73" font-family="Helvetica,sans-Serif" font-size="10.00">src/data_analyze/FMC</text>
<text text-anchor="middle" x="323" y="-62" font-family="Helvetica,sans-Serif" font-size="10.00">_data_analyze.h</text>
</a>
</g>
</g>
<!-- Node5&#45;&gt;Node6 -->
<g id="edge6" class="edge">
<title>Node5&#45;&gt;Node6</title>
<path fill="none" stroke="#63b8ff" d="M318.64,-110.83C319.59,-102.17 320.63,-92.7 321.45,-85.16"/>
<polygon fill="#63b8ff" stroke="#63b8ff" points="315.16,-110.48 317.55,-120.8 322.12,-111.24 315.16,-110.48"/>
</g>
<!-- Node7 -->
<g id="node7" class="node">
<title>Node7</title>
<g id="a_node7"><a xlink:href="../../db/dc4/FMC__encodings_8c.html" target="_top" xlink:title=" ">
<polygon fill="white" stroke="#666666" points="243,-85 91,-85 91,-55 243,-55 243,-85"/>
<text text-anchor="start" x="99" y="-73" font-family="Helvetica,sans-Serif" font-size="10.00">src/data_analyze/encodings</text>
<text text-anchor="middle" x="167" y="-62" font-family="Helvetica,sans-Serif" font-size="10.00">/FMC_encodings.c</text>
</a>
</g>
</g>
<!-- Node5&#45;&gt;Node7 -->
<g id="edge8" class="edge">
<title>Node5&#45;&gt;Node7</title>
<path fill="none" stroke="#63b8ff" d="M273.91,-116.92C250.36,-106.8 221.44,-94.38 199.62,-85.01"/>
<polygon fill="#63b8ff" stroke="#63b8ff" points="272.73,-120.22 283.3,-120.95 275.49,-113.79 272.73,-120.22"/>
</g>
<!-- Node6&#45;&gt;Node3 -->
<g id="edge7" class="edge">
<title>Node6&#45;&gt;Node3</title>
<path fill="none" stroke="#63b8ff" d="M323,-44.75C323,-35.72 323,-26.03 323,-19.27"/>
<polygon fill="#63b8ff" stroke="#63b8ff" points="319.5,-44.84 323,-54.84 326.5,-44.84 319.5,-44.84"/>
</g>
<!-- Node8&#45;&gt;Node6 -->
<g id="edge10" class="edge">
<title>Node8&#45;&gt;Node6</title>
<path fill="none" stroke="#63b8ff" d="M434.54,-117.05C409.98,-106.91 379.73,-94.43 356.94,-85.01"/>
<polygon fill="#63b8ff" stroke="#63b8ff" points="433.41,-120.37 443.98,-120.95 436.08,-113.9 433.41,-120.37"/>
</g>
<!-- Node9 -->
<g id="node9" class="node">
<title>Node9</title>
<g id="a_node9"><a xlink:href="../../d1/d8c/FMC__chars_8c.html" target="_top" xlink:title=" ">
<polygon fill="white" stroke="#666666" points="538.5,-85 403.5,-85 403.5,-55 538.5,-55 538.5,-85"/>
<text text-anchor="start" x="411.5" y="-73" font-family="Helvetica,sans-Serif" font-size="10.00">src/data_analyze/strings</text>
<text text-anchor="middle" x="471" y="-62" font-family="Helvetica,sans-Serif" font-size="10.00">/FMC_chars.c</text>
</a>
</g>
</g>
<!-- Node8&#45;&gt;Node9 -->
<g id="edge11" class="edge">
<title>Node8&#45;&gt;Node9</title>
<path fill="none" stroke="#63b8ff" d="M475.36,-110.83C474.41,-102.17 473.37,-92.7 472.55,-85.16"/>
<polygon fill="#63b8ff" stroke="#63b8ff" points="471.88,-111.24 476.45,-120.8 478.84,-110.48 471.88,-111.24"/>
</g>
<!-- Node10&#45;&gt;Node3 -->
<g id="edge13" class="edge">
<title>Node10&#45;&gt;Node3</title>
<path fill="none" stroke="#63b8ff" d="M744.38,-121.14C790.5,-107.7 842.37,-84.96 815,-55 784.01,-21.09 460.28,-12.77 355.52,-10.96"/>
<polygon fill="#63b8ff" stroke="#63b8ff" points="743.34,-117.79 734.66,-123.86 745.23,-124.53 743.34,-117.79"/>
</g>
<!-- Node11 -->
<g id="node11" class="node">
<title>Node11</title>
<g id="a_node11"><a xlink:href="../../d0/dc0/FMC__files_8c.html" target="_top" xlink:title=" ">
<polygon fill="white" stroke="#666666" points="806.5,-79.5 693.5,-79.5 693.5,-60.5 806.5,-60.5 806.5,-79.5"/>
<text text-anchor="middle" x="750" y="-67.5" font-family="Helvetica,sans-Serif" font-size="10.00">src/files/FMC_files.c</text>
</a>
</g>
</g>
<!-- Node10&#45;&gt;Node11 -->
<g id="edge14" class="edge">
<title>Node10&#45;&gt;Node11</title>
<path fill="none" stroke="#63b8ff" d="M706.73,-113.6C718.42,-102.1 732.2,-88.52 741.02,-79.84"/>
<polygon fill="#63b8ff" stroke="#63b8ff" points="704.1,-111.29 699.43,-120.8 709.01,-116.27 704.1,-111.29"/>
</g>
<!-- Node12 -->
<g id="node12" class="node">
<title>Node12</title>
<g id="a_node12"><a xlink:href="../../dc/d5e/FMC__paths_8c.html" target="_top" xlink:title=" ">
<polygon fill="white" stroke="#666666" points="675.5,-79.5 556.5,-79.5 556.5,-60.5 675.5,-60.5 675.5,-79.5"/>
<text text-anchor="middle" x="616" y="-67.5" font-family="Helvetica,sans-Serif" font-size="10.00">src/files/FMC_paths.c</text>
</a>
</g>
</g>
<!-- Node10&#45;&gt;Node12 -->
<g id="edge15" class="edge">
<title>Node10&#45;&gt;Node12</title>
<path fill="none" stroke="#63b8ff" d="M662.29,-113.93C649.8,-102.35 634.98,-88.61 625.54,-79.84"/>
<polygon fill="#63b8ff" stroke="#63b8ff" points="659.97,-116.56 669.69,-120.8 664.74,-111.43 659.97,-116.56"/>
</g>
<!-- Node13&#45;&gt;Node2 -->
<g id="edge20" class="edge">
<title>Node13&#45;&gt;Node2</title>
<path fill="none" stroke="#63b8ff" d="M528.2,-363.93C519.69,-321.28 502.34,-234.31 496.77,-206.36"/>
<polygon fill="#63b8ff" stroke="#63b8ff" points="524.82,-364.87 530.21,-373.99 531.68,-363.5 524.82,-364.87"/>
</g>
<!-- Node14 -->
<g id="node14" class="node">
<title>Node14</title>
<g id="a_node14"><a xlink:href="../../d4/db9/FMC__wrapper_8h.html" target="_top" xlink:title=" ">
<polygon fill="white" stroke="#666666" points="140.5,-332.5 11.5,-332.5 11.5,-313.5 140.5,-313.5 140.5,-332.5"/>
<text text-anchor="middle" x="76" y="-320.5" font-family="Helvetica,sans-Serif" font-size="10.00">src/cpp/FMC_wrapper.h</text>
</a>
</g>
</g>
<!-- Node13&#45;&gt;Node14 -->
<g id="edge17" class="edge">
<title>Node13&#45;&gt;Node14</title>
<path fill="none" stroke="#63b8ff" d="M454.19,-378.6C377.63,-369.22 258.15,-353.95 155,-338 144.4,-336.36 133.03,-334.44 122.31,-332.56"/>
<polygon fill="#63b8ff" stroke="#63b8ff" points="453.89,-382.09 464.24,-379.82 454.74,-375.14 453.89,-382.09"/>
</g>
<!-- Node16 -->
<g id="node16" class="node">
<title>Node16</title>
<g id="a_node16"><a xlink:href="../../d1/d2e/FMC__attributes_8h.html" target="_top" xlink:title=" ">
<polygon fill="white" stroke="#666666" points="874.5,-338 737.5,-338 737.5,-308 874.5,-308 874.5,-338"/>
<text text-anchor="start" x="745.5" y="-326" font-family="Helvetica,sans-Serif" font-size="10.00">src/general/preprocessor</text>
<text text-anchor="middle" x="806" y="-315" font-family="Helvetica,sans-Serif" font-size="10.00">/FMC_attributes.h</text>
</a>
</g>
</g>
<!-- Node13&#45;&gt;Node16 -->
<g id="edge21" class="edge">
<title>Node13&#45;&gt;Node16</title>
<path fill="none" stroke="#63b8ff" d="M597.05,-371.58C640.25,-361.19 697.03,-347.9 740.53,-338.01"/>
<polygon fill="#63b8ff" stroke="#63b8ff" points="596.11,-368.21 587.21,-373.95 597.75,-375.01 596.11,-368.21"/>
</g>
<!-- Node18 -->
<g id="node18" class="node">
<title>Node18</title>
<g id="a_node18"><a xlink:href="../../d6/d25/FMC__enums_8h.html" target="_top" xlink:title=" ">
<polygon fill="white" stroke="#666666" points="504.5,-338 379.5,-338 379.5,-308 504.5,-308 504.5,-338"/>
<text text-anchor="start" x="387.5" y="-326" font-family="Helvetica,sans-Serif" font-size="10.00">src/general/types/FMC</text>
<text text-anchor="middle" x="442" y="-315" font-family="Helvetica,sans-Serif" font-size="10.00">_enums.h</text>
</a>
</g>
</g>
<!-- Node13&#45;&gt;Node18 -->
<g id="edge25" class="edge">
<title>Node13&#45;&gt;Node18</title>
<path fill="none" stroke="#63b8ff" d="M504.6,-368.03C490.83,-358.34 474.62,-346.94 462.14,-338.16"/>
<polygon fill="#63b8ff" stroke="#63b8ff" points="502.61,-370.91 512.8,-373.8 506.64,-365.18 502.61,-370.91"/>
</g>
<!-- Node19 -->
<g id="node19" class="node">
<title>Node19</title>
<g id="a_node19"><a xlink:href="../../d5/de5/FMC__structs_8h.html" target="_top" xlink:title=" ">
<polygon fill="white" stroke="#666666" points="466.5,-272 341.5,-272 341.5,-242 466.5,-242 466.5,-272"/>
<text text-anchor="start" x="349.5" y="-260" font-family="Helvetica,sans-Serif" font-size="10.00">src/general/types/FMC</text>
<text text-anchor="middle" x="404" y="-249" font-family="Helvetica,sans-Serif" font-size="10.00">_structs.h</text>
</a>
</g>
</g>
<!-- Node13&#45;&gt;Node19 -->
<g id="edge29" class="edge">
<title>Node13&#45;&gt;Node19</title>
<path fill="none" stroke="#63b8ff" d="M454.15,-383.48C422.76,-377.33 389.53,-364.42 370,-338 354.75,-317.37 374.75,-288.86 389.9,-272.03"/>
<polygon fill="#63b8ff" stroke="#63b8ff" points="453.8,-386.97 464.25,-385.24 455,-380.07 453.8,-386.97"/>
</g>
<!-- Node20 -->
<g id="node20" class="node">
<title>Node20</title>
<g id="a_node20"><a xlink:href="../../df/df8/FMC__typedefs_8h.html" target="_top" xlink:title=" ">
<polygon fill="white" stroke="#666666" points="322.5,-338 197.5,-338 197.5,-308 322.5,-308 322.5,-338"/>
<text text-anchor="start" x="205.5" y="-326" font-family="Helvetica,sans-Serif" font-size="10.00">src/general/types/FMC</text>
<text text-anchor="middle" x="260" y="-315" font-family="Helvetica,sans-Serif" font-size="10.00">_typedefs.h</text>
</a>
</g>
</g>
<!-- Node13&#45;&gt;Node20 -->
<g id="edge30" class="edge">
<title>Node13&#45;&gt;Node20</title>
<path fill="none" stroke="#63b8ff" d="M463.25,-371.65C418.89,-361.25 362.06,-347.93 319.77,-338.01"/>
<polygon fill="#63b8ff" stroke="#63b8ff" points="462.55,-375.08 473.09,-373.95 464.15,-368.26 462.55,-375.08"/>
</g>
<!-- Node21 -->
<g id="node21" class="node">
<title>Node21</title>
<g id="a_node21"><a xlink:href="../../de/d86/FMC__globals_8h.html" target="_top" xlink:title=" ">
<polygon fill="white" stroke="#666666" points="284.5,-272 165.5,-272 165.5,-242 284.5,-242 284.5,-272"/>
<text text-anchor="start" x="173.5" y="-260" font-family="Helvetica,sans-Serif" font-size="10.00">src/general/utils/FMC</text>
<text text-anchor="middle" x="225" y="-249" font-family="Helvetica,sans-Serif" font-size="10.00">_globals.h</text>
</a>
</g>
</g>
<!-- Node13&#45;&gt;Node21 -->
<g id="edge39" class="edge">
<title>Node13&#45;&gt;Node21</title>
<path fill="none" stroke="#63b8ff" d="M454.34,-388.04C363.36,-386.22 221.74,-376.98 188,-338 170.88,-318.21 193.14,-289.17 209.81,-272.06"/>
<polygon fill="#63b8ff" stroke="#63b8ff" points="454.29,-391.54 464.35,-388.22 454.41,-384.54 454.29,-391.54"/>
</g>
<!-- Node22 -->
<g id="node22" class="node">
<title>Node22</title>
<g id="a_node22"><a xlink:href="../../de/dab/FMC__errors_8c.html" target="_top" xlink:title=" ">
<polygon fill="white" stroke="#666666" points="725.5,-272 606.5,-272 606.5,-242 725.5,-242 725.5,-272"/>
<text text-anchor="start" x="614.5" y="-260" font-family="Helvetica,sans-Serif" font-size="10.00">src/general/utils/FMC</text>
<text text-anchor="middle" x="666" y="-249" font-family="Helvetica,sans-Serif" font-size="10.00">_errors.c</text>
</a>
</g>
</g>
<!-- Node13&#45;&gt;Node22 -->
<g id="edge35" class="edge">
<title>Node13&#45;&gt;Node22</title>
<path fill="none" stroke="#63b8ff" d="M611.5,-381.95C640.66,-375.44 671,-362.67 689,-338 703.48,-318.15 688.59,-289.39 676.95,-272.3"/>
<polygon fill="#63b8ff" stroke="#63b8ff" points="610.79,-378.53 601.67,-383.93 612.17,-385.39 610.79,-378.53"/>
</g>
<!-- Node23 -->
<g id="node23" class="node">
<title>Node23</title>
<g id="a_node23"><a xlink:href="../../dd/ddf/FMC__errors_8h.html" target="_top" xlink:title=" ">
<polygon fill="white" stroke="#666666" points="680.5,-338 561.5,-338 561.5,-308 680.5,-308 680.5,-338"/>
<text text-anchor="start" x="569.5" y="-326" font-family="Helvetica,sans-Serif" font-size="10.00">src/general/utils/FMC</text>
<text text-anchor="middle" x="621" y="-315" font-family="Helvetica,sans-Serif" font-size="10.00">_errors.h</text>
</a>
</g>
</g>
<!-- Node13&#45;&gt;Node23 -->
<g id="edge36" class="edge">
<title>Node13&#45;&gt;Node23</title>
<path fill="none" stroke="#63b8ff" d="M560.84,-367.75C574.07,-358.13 589.57,-346.86 601.52,-338.16"/>
<polygon fill="#63b8ff" stroke="#63b8ff" points="558.56,-365.08 552.53,-373.8 562.68,-370.75 558.56,-365.08"/>
</g>
<!-- Node14&#45;&gt;Node3 -->
<g id="edge18" class="edge">
<title>Node14&#45;&gt;Node3</title>
<path fill="none" stroke="#63b8ff" d="M53.86,-307.59C41.87,-298.69 27.75,-286.27 19,-272 1.13,-242.87 0,-231.67 0,-197.5 0,-197.5 0,-197.5 0,-135 0,-87.16 30.18,-78.22 72,-55 142.62,-15.8 240.11,-9.88 290.27,-9.7"/>
<polygon fill="#63b8ff" stroke="#63b8ff" points="51.93,-310.51 62.12,-313.42 55.97,-304.79 51.93,-310.51"/>
</g>
<!-- Node15 -->
<g id="node15" class="node">
<title>Node15</title>
<g id="a_node15"><a xlink:href="../../dd/d0d/FMC__dir__wrapper_8cpp.html" target="_top" xlink:title=" ">
<polygon fill="white" stroke="#666666" points="147.5,-272 28.5,-272 28.5,-242 147.5,-242 147.5,-272"/>
<text text-anchor="start" x="36.5" y="-260" font-family="Helvetica,sans-Serif" font-size="10.00">src/cpp/FMC_dir/FMC</text>
<text text-anchor="middle" x="88" y="-249" font-family="Helvetica,sans-Serif" font-size="10.00">_dir_wrapper.cpp</text>
</a>
</g>
</g>
<!-- Node14&#45;&gt;Node15 -->
<g id="edge19" class="edge">
<title>Node14&#45;&gt;Node15</title>
<path fill="none" stroke="#63b8ff" d="M79.5,-303.35C81.35,-293.47 83.59,-281.51 85.31,-272.36"/>
<polygon fill="#63b8ff" stroke="#63b8ff" points="76.02,-302.89 77.62,-313.37 82.9,-304.18 76.02,-302.89"/>
</g>
<!-- Node16&#45;&gt;Node13 -->
<g id="edge22" class="edge">
<title>Node16&#45;&gt;Node13</title>
<path fill="none" stroke="#63b8ff" d="M742.09,-340.38C698.92,-350.77 642.14,-364.06 598.61,-373.95"/>
<polygon fill="#63b8ff" stroke="#63b8ff" points="743.02,-343.76 751.92,-338.01 741.38,-336.95 743.02,-343.76"/>
</g>
<!-- Node17 -->
<g id="node17" class="node">
<title>Node17</title>
<g id="a_node17"><a xlink:href="../../d4/d06/FMC__deprecated_8h.html" target="_top" xlink:title=" ">
<polygon fill="white" stroke="#666666" points="864.5,-272 745.5,-272 745.5,-242 864.5,-242 864.5,-272"/>
<text text-anchor="start" x="753.5" y="-260" font-family="Helvetica,sans-Serif" font-size="10.00">src/general/utils/FMC</text>
<text text-anchor="middle" x="805" y="-249" font-family="Helvetica,sans-Serif" font-size="10.00">_deprecated.h</text>
</a>
</g>
</g>
<!-- Node16&#45;&gt;Node17 -->
<g id="edge23" class="edge">
<title>Node16&#45;&gt;Node17</title>
<path fill="none" stroke="#63b8ff" d="M805.62,-297.54C805.48,-288.96 805.34,-279.61 805.22,-272.16"/>
<polygon fill="#63b8ff" stroke="#63b8ff" points="802.12,-297.85 805.78,-307.8 809.12,-297.74 802.12,-297.85"/>
</g>
<!-- Node17&#45;&gt;Node2 -->
<g id="edge24" class="edge">
<title>Node17&#45;&gt;Node2</title>
<path fill="none" stroke="#63b8ff" d="M735.39,-242.27C734.93,-242.18 734.46,-242.09 734,-242 667.26,-229.21 589.94,-214.9 541.74,-206.05"/>
<polygon fill="#63b8ff" stroke="#63b8ff" points="734.87,-245.73 745.35,-244.19 736.2,-238.86 734.87,-245.73"/>
</g>
<!-- Node18&#45;&gt;Node2 -->
<g id="edge26" class="edge">
<title>Node18&#45;&gt;Node2</title>
<path fill="none" stroke="#63b8ff" d="M459.09,-299.46C464.78,-291.16 470.74,-281.47 475,-272 485.22,-249.28 491.15,-220.25 493.62,-206.07"/>
<polygon fill="#63b8ff" stroke="#63b8ff" points="456.08,-297.67 453.13,-307.84 461.78,-301.73 456.08,-297.67"/>
</g>
<!-- Node18&#45;&gt;Node19 -->
<g id="edge27" class="edge">
<title>Node18&#45;&gt;Node19</title>
<path fill="none" stroke="#63b8ff" d="M428.32,-298.96C423,-290 417.08,-280.03 412.41,-272.16"/>
<polygon fill="#63b8ff" stroke="#63b8ff" points="425.45,-300.98 433.57,-307.8 431.47,-297.41 425.45,-300.98"/>
</g>
<!-- Node19&#45;&gt;Node2 -->
<g id="edge28" class="edge">
<title>Node19&#45;&gt;Node2</title>
<path fill="none" stroke="#63b8ff" d="M434.57,-236.35C450.55,-226.07 469.3,-214.02 481.63,-206.09"/>
<polygon fill="#63b8ff" stroke="#63b8ff" points="432.55,-233.49 426.03,-241.84 436.33,-239.38 432.55,-233.49"/>
</g>
<!-- Node20&#45;&gt;Node2 -->
<g id="edge31" class="edge">
<title>Node20&#45;&gt;Node2</title>
<path fill="none" stroke="#63b8ff" d="M274.66,-299.6C287.65,-281.49 308.21,-256.66 332,-242 362.22,-223.38 400.29,-212.42 432.03,-206.04"/>
<polygon fill="#63b8ff" stroke="#63b8ff" points="271.74,-297.67 268.91,-307.88 277.49,-301.67 271.74,-297.67"/>
</g>
<!-- Node20&#45;&gt;Node19 -->
<g id="edge32" class="edge">
<title>Node20&#45;&gt;Node19</title>
<path fill="none" stroke="#63b8ff" d="M300.99,-303.78C323.69,-293.69 351.48,-281.34 372.47,-272.01"/>
<polygon fill="#63b8ff" stroke="#63b8ff" points="299.32,-300.7 291.6,-307.95 302.16,-307.09 299.32,-300.7"/>
</g>
<!-- Node20&#45;&gt;Node21 -->
<g id="edge33" class="edge">
<title>Node20&#45;&gt;Node21</title>
<path fill="none" stroke="#63b8ff" d="M247.4,-298.96C242.5,-290 237.05,-280.03 232.75,-272.16"/>
<polygon fill="#63b8ff" stroke="#63b8ff" points="244.36,-300.7 252.23,-307.8 250.5,-297.34 244.36,-300.7"/>
</g>
<!-- Node21&#45;&gt;Node2 -->
<g id="edge34" class="edge">
<title>Node21&#45;&gt;Node2</title>
<path fill="none" stroke="#63b8ff" d="M294.59,-240.92C345.75,-229.84 413.45,-215.17 455.6,-206.04"/>
<polygon fill="#63b8ff" stroke="#63b8ff" points="293.62,-237.55 284.59,-243.09 295.1,-244.39 293.62,-237.55"/>
</g>
<!-- Node23&#45;&gt;Node2 -->
<g id="edge37" class="edge">
<title>Node23&#45;&gt;Node2</title>
<path fill="none" stroke="#63b8ff" d="M602.29,-300.44C587.7,-283.96 566.68,-260.94 547,-242 533.3,-228.82 516.41,-214.73 505.67,-206.02"/>
<polygon fill="#63b8ff" stroke="#63b8ff" points="599.67,-302.75 608.9,-307.95 604.92,-298.13 599.67,-302.75"/>
</g>
<!-- Node23&#45;&gt;Node22 -->
<g id="edge38" class="edge">
<title>Node23&#45;&gt;Node22</title>
<path fill="none" stroke="#63b8ff" d="M636.8,-299.53C643.2,-290.43 650.39,-280.19 656.04,-272.16"/>
<polygon fill="#63b8ff" stroke="#63b8ff" points="633.88,-297.6 630.99,-307.8 639.6,-301.63 633.88,-297.6"/>
</g>
</g>
</svg>
        <g id="navigator" transform="translate(0 0)" fill="#404254">
                <rect fill="#f2f5e9" fill-opacity="0.5" stroke="#606060" stroke-width=".5" x="0" y="0" width="60" height="60"/>
                <use id="zoomplus" xlink:href="#zoomPlus" x="17" y="9" onmousedown="handleZoom(evt,'in')"/>
                <use id="zoomminus" xlink:href="#zoomMin" x="42" y="9" onmousedown="handleZoom(evt,'out')"/>
                <use id="reset" xlink:href="#resetDef" x="30" y="36" onmousedown="handleReset()"/>
                <g id="arrowUp" xlink:href="#dirArrow" transform="translate(30 24)" onmousedown="handlePan(0,-1)">
                  <use xlink:href="#rim" fill="#404040">
                        <set attributeName="fill" to="#808080" begin="arrowUp.mouseover" end="arrowUp.mouseout"/>
                  </use>
                  <path fill="none" stroke="white" stroke-width="1.5" d="M0,-3.0v7 M-2.5,-0.5L0,-3.0L2.5,-0.5"/>
                </g>
                <g id="arrowRight" xlink:href="#dirArrow" transform="rotate(90) translate(36 -43)" onmousedown="handlePan(1,0)">
                  <use xlink:href="#rim" fill="#404040">
                        <set attributeName="fill" to="#808080" begin="arrowRight.mouseover" end="arrowRight.mouseout"/>
                  </use>
                  <path fill="none" stroke="white" stroke-width="1.5" d="M0,-3.0v7 M-2.5,-0.5L0,-3.0L2.5,-0.5"/>
                </g>
                <g id="arrowDown" xlink:href="#dirArrow" transform="rotate(180) translate(-30 -48)" onmousedown="handlePan(0,1)">
                  <use xlink:href="#rim" fill="#404040">
                        <set attributeName="fill" to="#808080" begin="arrowDown.mouseover" end="arrowDown.mouseout"/>
                  </use>
                  <path fill="none" stroke="white" stroke-width="1.5" d="M0,-3.0v7 M-2.5,-0.5L0,-3.0L2.5,-0.5"/>
                </g>
                <g id="arrowLeft" xlink:href="#dirArrow" transform="rotate(270) translate(-36 17)" onmousedown="handlePan(-1,0)">
                  <use xlink:href="#rim" fill="#404040">
                        <set attributeName="fill" to="#808080" begin="arrowLeft.mouseover" end="arrowLeft.mouseout"/>
                  </use>
                  <path fill="none" stroke="white" stroke-width="1.5" d="M0,-3.0v7 M-2.5,-0.5L0,-3.0L2.5,-0.5"/>
                </g>
        </g>
        <svg viewBox="0 0 15 15" width="100%" height="30px" preserveAspectRatio="xMaxYMin meet">
         <g id="arrow_out" transform="scale(0.3 0.3)">
          <a xlink:href="FMC__platform_8h__dep__incl_org.svg" target="_base">
           <rect id="button" ry="5" rx="5" y="6" x="6" height="38" width="38"
                fill="#f2f5e9" fill-opacity="0.5" stroke="#606060" stroke-width="1.0"/>
           <path id="arrow"
             d="M 11.500037,31.436501 C 11.940474,20.09759 22.043105,11.32322 32.158766,21.979434 L 37.068811,17.246167 C 37.068811,17.246167 37.088388,32 37.088388,32 L 22.160133,31.978069 C 22.160133,31.978069 26.997745,27.140456 26.997745,27.140456 C 18.528582,18.264221 13.291696,25.230495 11.500037,31.436501 z"
             style="fill:#404040;"/>
          </a>
         </g>
        </svg>
</svg>
