<?xml version="1.0" encoding="UTF-8" standalone="no"?>
<!DOCTYPE svg PUBLIC "-//W3C//DTD SVG 1.1//EN"
 "http://www.w3.org/Graphics/SVG/1.1/DTD/svg11.dtd">
<!-- Generated by graphviz version 7.1.0 (20230121.1956)
 -->
<!-- Title: FManC_File Pages: 1 -->
<svg width="336pt" height="137pt"
 viewBox="0.00 0.00 336.00 137.00" xmlns="http://www.w3.org/2000/svg" xmlns:xlink="http://www.w3.org/1999/xlink">
<g id="graph0" class="graph" transform="scale(1 1) rotate(0) translate(4 133)">
<title>FManC_File</title>
<!-- Node1 -->
<g id="node1" class="node">
<title>Node1</title>
<g id="a_node1"><a xlink:title=" ">
<polygon fill="#999999" stroke="#666666" points="160.5,-30 88.5,-30 88.5,0 160.5,0 160.5,-30"/>
<text text-anchor="middle" x="124.5" y="-18" font-family="Helvetica,sans-Serif" font-size="10.00">{FManC_File</text>
<text text-anchor="middle" x="124.5" y="-7" font-family="Helvetica,sans-Serif" font-size="10.00">||}</text>
</a>
</g>
</g>
<!-- Node2 -->
<g id="node2" class="node">
<title>Node2</title>
<g id="a_node2"><a xlink:title=" ">
<polygon fill="white" stroke="#666666" points="47,-129 0,-129 0,-99 47,-99 47,-129"/>
<text text-anchor="middle" x="23.5" y="-117" font-family="Helvetica,sans-Serif" font-size="10.00">{FILE *</text>
<text text-anchor="middle" x="23.5" y="-106" font-family="Helvetica,sans-Serif" font-size="10.00">||}</text>
</a>
</g>
</g>
<!-- Node2&#45;&gt;Node1 -->
<g id="edge1" class="edge">
<title>Node2&#45;&gt;Node1</title>
<path fill="none" stroke="#404040" d="M27.72,-98.65C32.6,-84.24 41.88,-62.19 56.5,-48 62.34,-42.33 69.36,-37.53 76.66,-33.51"/>
<polygon fill="none" stroke="#404040" points="76.63,-33.52 80.24,-27.28 87.39,-28.21 83.78,-34.45 76.63,-33.52"/>
<text text-anchor="middle" x="67.5" y="-62" font-family="Helvetica,sans-Serif" font-size="10.00"> +file</text>
</g>
<!-- Node3 -->
<g id="node3" class="node">
<title>Node3</title>
<g id="a_node3"><a xlink:title=" ">
<polygon fill="white" stroke="#666666" points="109.5,-129 65.5,-129 65.5,-99 109.5,-99 109.5,-129"/>
<text text-anchor="middle" x="87.5" y="-117" font-family="Helvetica,sans-Serif" font-size="10.00">{_Bool</text>
<text text-anchor="middle" x="87.5" y="-106" font-family="Helvetica,sans-Serif" font-size="10.00">||}</text>
</a>
</g>
</g>
<!-- Node3&#45;&gt;Node1 -->
<g id="edge2" class="edge">
<title>Node3&#45;&gt;Node1</title>
<path fill="none" stroke="#404040" d="M84.52,-98.58C82.41,-84.91 81.12,-64.11 88.5,-48 89.87,-45.01 91.67,-42.18 93.74,-39.53"/>
<polygon fill="none" stroke="#404040" points="93.71,-39.56 95,-32.47 102.05,-30.93 100.76,-38.03 93.71,-39.56"/>
<text text-anchor="middle" x="114" y="-62" font-family="Helvetica,sans-Serif" font-size="10.00"> +isOpened</text>
</g>
<!-- Node4 -->
<g id="node4" class="node">
<title>Node4</title>
<g id="a_node4"><a xlink:title=" ">
<polygon fill="white" stroke="#666666" points="180.5,-129 142.5,-129 142.5,-99 180.5,-99 180.5,-129"/>
<text text-anchor="middle" x="161.5" y="-117" font-family="Helvetica,sans-Serif" font-size="10.00">{char</text>
<text text-anchor="middle" x="161.5" y="-106" font-family="Helvetica,sans-Serif" font-size="10.00">||}</text>
</a>
</g>
</g>
<!-- Node4&#45;&gt;Node1 -->
<g id="edge3" class="edge">
<title>Node4&#45;&gt;Node1</title>
<path fill="none" stroke="#404040" d="M157.15,-98.63C153,-85.35 146.39,-65.13 139.5,-48 138.68,-45.96 137.8,-43.87 136.89,-41.78"/>
<polygon fill="none" stroke="#404040" points="136.95,-41.91 130.81,-38.13 131.94,-31.01 138.08,-34.79 136.95,-41.91"/>
<text text-anchor="middle" x="176.5" y="-73" font-family="Helvetica,sans-Serif" font-size="10.00"> +extension</text>
<text text-anchor="middle" x="176.5" y="-62" font-family="Helvetica,sans-Serif" font-size="10.00">+name</text>
<text text-anchor="middle" x="176.5" y="-51" font-family="Helvetica,sans-Serif" font-size="10.00">+path</text>
</g>
<!-- Node5 -->
<g id="node5" class="node">
<title>Node5</title>
<g id="a_node5"><a xlink:title=" ">
<polygon fill="white" stroke="#666666" points="328,-129 199,-129 199,-99 328,-99 328,-129"/>
<text text-anchor="middle" x="263.5" y="-117" font-family="Helvetica,sans-Serif" font-size="10.00">{enum FManC_Encodings</text>
<text text-anchor="middle" x="263.5" y="-106" font-family="Helvetica,sans-Serif" font-size="10.00">||}</text>
</a>
</g>
</g>
<!-- Node5&#45;&gt;Node1 -->
<g id="edge4" class="edge">
<title>Node5&#45;&gt;Node1</title>
<path fill="none" stroke="#404040" d="M253.95,-98.52C243.73,-84 226.29,-61.87 206.5,-48 196.28,-40.84 184.25,-34.99 172.58,-30.34"/>
<polygon fill="none" stroke="#404040" points="172.76,-30.41 165.75,-32.08 161.51,-26.25 168.52,-24.58 172.76,-30.41"/>
<text text-anchor="middle" x="264" y="-62" font-family="Helvetica,sans-Serif" font-size="10.00"> +encoding</text>
</g>
</g>
</svg>
