<?xml version="1.0" encoding="UTF-8" standalone="no"?>
<!DOCTYPE svg PUBLIC "-//W3C//DTD SVG 1.1//EN"
 "http://www.w3.org/Graphics/SVG/1.1/DTD/svg11.dtd">
<!-- Generated by graphviz version 2.43.0 (0)
 -->
<!-- Title: FMC_printGreenText Pages: 1 -->
<svg width="321pt" height="76pt"
 viewBox="0.00 0.00 321.00 75.50" xmlns="http://www.w3.org/2000/svg" xmlns:xlink="http://www.w3.org/1999/xlink">
<g id="graph0" class="graph" transform="scale(1 1) rotate(0) translate(4 71.5)">
<title>FMC_printGreenText</title>
<!-- Node1 -->
<g id="node1" class="node">
<title>Node1</title>
<g id="a_node1"><a xlink:title=" ">
<polygon fill="#999999" stroke="#666666" points="116,-40 0,-40 0,-21 116,-21 116,-40"/>
<text text-anchor="middle" x="58" y="-28" font-family="Helvetica,sans-Serif" font-size="10.00">FMC_printGreenText</text>
</a>
</g>
</g>
<!-- Node2 -->
<g id="node2" class="node">
<title>Node2</title>
<g id="a_node2"><a xlink:href="../../dd/ddf/FMC__errors_8h.html#ab8572eccf1615a1c6694e200d3ce3665" target="_top" xlink:title=" ">
<polygon fill="white" stroke="#666666" points="312.5,-67.5 152.5,-67.5 152.5,-37.5 312.5,-37.5 312.5,-67.5"/>
<text text-anchor="start" x="160.5" y="-55.5" font-family="Helvetica,sans-Serif" font-size="10.00">FMC_changeStreamTextColor</text>
<text text-anchor="middle" x="232.5" y="-44.5" font-family="Helvetica,sans-Serif" font-size="10.00">ToGreen</text>
</a>
</g>
</g>
<!-- Node1&#45;&gt;Node2 -->
<g id="edge1" class="edge">
<title>Node1&#45;&gt;Node2</title>
<path fill="none" stroke="#63b8ff" d="M116.44,-37.83C124.68,-38.88 133.32,-39.98 142,-41.09"/>
<polygon fill="#63b8ff" stroke="#63b8ff" points="141.83,-44.59 152.19,-42.39 142.72,-37.65 141.83,-44.59"/>
</g>
<!-- Node3 -->
<g id="node3" class="node">
<title>Node3</title>
<g id="a_node3"><a xlink:href="../../dd/ddf/FMC__errors_8h.html#a5dac1ddff314ba7b3bed3d87eb3f19f5" target="_top" xlink:title=" ">
<polygon fill="white" stroke="#666666" points="313,-19 152,-19 152,0 313,0 313,-19"/>
<text text-anchor="middle" x="232.5" y="-7" font-family="Helvetica,sans-Serif" font-size="10.00">FMC_resetStreamOutputStyle</text>
</a>
</g>
</g>
<!-- Node1&#45;&gt;Node3 -->
<g id="edge2" class="edge">
<title>Node1&#45;&gt;Node3</title>
<path fill="none" stroke="#63b8ff" d="M116.44,-23.51C125.15,-22.45 134.3,-21.33 143.48,-20.22"/>
<polygon fill="#63b8ff" stroke="#63b8ff" points="143.93,-23.69 153.43,-19 143.08,-16.74 143.93,-23.69"/>
</g>
</g>
</svg>
