<?xml version="1.0" encoding="UTF-8" standalone="no"?>
<!DOCTYPE svg PUBLIC "-//W3C//DTD SVG 1.1//EN"
 "http://www.w3.org/Graphics/SVG/1.1/DTD/svg11.dtd">
<!-- Generated by graphviz version 2.43.0 (0)
 -->
<!-- Title: FMC_printBrightRedError Pages: 1 -->
<svg width="447pt" height="140pt"
 viewBox="0.00 0.00 447.00 140.00" xmlns="http://www.w3.org/2000/svg" xmlns:xlink="http://www.w3.org/1999/xlink">
<g id="graph0" class="graph" transform="scale(1 1) rotate(0) translate(4 136)">
<title>FMC_printBrightRedError</title>
<!-- Node1 -->
<g id="node1" class="node">
<title>Node1</title>
<g id="a_node1"><a xlink:title=" ">
<polygon fill="#999999" stroke="#666666" points="439,-76 302,-76 302,-57 439,-57 439,-76"/>
<text text-anchor="middle" x="370.5" y="-64" font-family="Helvetica,sans-Serif" font-size="10.00">FMC_printBrightRedError</text>
</a>
</g>
</g>
<!-- Node2 -->
<g id="node2" class="node">
<title>Node2</title>
<g id="a_node2"><a xlink:href="../../dc/d5e/FMC__paths_8c.html#a93ee980e87b59d6a3af6e5d4f1ec7ac0" target="_top" xlink:title=" ">
<polygon fill="white" stroke="#666666" points="256.5,-132 152.5,-132 152.5,-113 256.5,-113 256.5,-132"/>
<text text-anchor="middle" x="204.5" y="-120" font-family="Helvetica,sans-Serif" font-size="10.00">FMC_cutFilename</text>
</a>
</g>
</g>
<!-- Node1&#45;&gt;Node2 -->
<g id="edge1" class="edge">
<title>Node1&#45;&gt;Node2</title>
<path fill="none" stroke="#63b8ff" d="M334.94,-79.81C314.91,-87.36 289.16,-96.81 266,-104.5 257.26,-107.4 247.75,-110.34 238.9,-112.97"/>
<polygon fill="#63b8ff" stroke="#63b8ff" points="336.45,-82.98 344.56,-76.16 333.97,-76.43 336.45,-82.98"/>
</g>
<!-- Node3 -->
<g id="node3" class="node">
<title>Node3</title>
<g id="a_node3"><a xlink:href="../../dc/d5e/FMC__paths_8c.html#a1fa62fd52b6e1fa12794f480d51ba683" target="_top" xlink:title="Gets the filename from a complete path.">
<polygon fill="white" stroke="#666666" points="266,-95 143,-95 143,-76 266,-76 266,-95"/>
<text text-anchor="middle" x="204.5" y="-83" font-family="Helvetica,sans-Serif" font-size="10.00">FMC_extractFilename</text>
</a>
</g>
</g>
<!-- Node1&#45;&gt;Node3 -->
<g id="edge2" class="edge">
<title>Node1&#45;&gt;Node3</title>
<path fill="none" stroke="#63b8ff" d="M291.8,-75.5C283.19,-76.5 274.52,-77.5 266.17,-78.47"/>
<polygon fill="#63b8ff" stroke="#63b8ff" points="292.32,-78.97 301.85,-74.34 291.51,-72.01 292.32,-78.97"/>
</g>
<!-- Node4 -->
<g id="node4" class="node">
<title>Node4</title>
<g id="a_node4"><a xlink:href="../../dc/d5e/FMC__paths_8c.html#ab8632eb234af95cea6075bc166278cff" target="_top" xlink:title=" ">
<polygon fill="white" stroke="#666666" points="107,-76 0,-76 0,-57 107,-57 107,-76"/>
<text text-anchor="middle" x="53.5" y="-64" font-family="Helvetica,sans-Serif" font-size="10.00">FMC_getExtension</text>
</a>
</g>
</g>
<!-- Node1&#45;&gt;Node4 -->
<g id="edge5" class="edge">
<title>Node1&#45;&gt;Node4</title>
<path fill="none" stroke="#63b8ff" d="M291.81,-66.5C234.42,-66.5 157.83,-66.5 107.38,-66.5"/>
<polygon fill="#63b8ff" stroke="#63b8ff" points="291.92,-70 301.92,-66.5 291.92,-63 291.92,-70"/>
</g>
<!-- Node5 -->
<g id="node5" class="node">
<title>Node5</title>
<g id="a_node5"><a xlink:href="../../db/dc4/FMC__encodings_8c.html#ac43872885563da059b7870132977db9d" target="_top" xlink:title=" ">
<polygon fill="white" stroke="#666666" points="256.5,-19 152.5,-19 152.5,0 256.5,0 256.5,-19"/>
<text text-anchor="middle" x="204.5" y="-7" font-family="Helvetica,sans-Serif" font-size="10.00">FMC_getEncoding</text>
</a>
</g>
</g>
<!-- Node1&#45;&gt;Node5 -->
<g id="edge4" class="edge">
<title>Node1&#45;&gt;Node5</title>
<path fill="none" stroke="#63b8ff" d="M332.3,-53.57C302.13,-43.08 260.27,-28.54 233.04,-19.07"/>
<polygon fill="#63b8ff" stroke="#63b8ff" points="331.46,-56.98 342.05,-56.96 333.75,-50.37 331.46,-56.98"/>
</g>
<!-- Node3&#45;&gt;Node4 -->
<g id="edge3" class="edge">
<title>Node3&#45;&gt;Node4</title>
<path fill="none" stroke="#63b8ff" d="M132.88,-76.5C124.31,-75.4 115.66,-74.3 107.4,-73.25"/>
<polygon fill="#63b8ff" stroke="#63b8ff" points="132.53,-79.98 142.9,-77.77 133.42,-73.04 132.53,-79.98"/>
</g>
</g>
</svg>
