<?xml version="1.0" encoding="UTF-8" standalone="no"?>
<!DOCTYPE svg PUBLIC "-//W3C//DTD SVG 1.1//EN"
 "http://www.w3.org/Graphics/SVG/1.1/DTD/svg11.dtd">
<!-- Generated by graphviz version 2.43.0 (0)
 -->
<!-- Title: FMC_changeStreamTextColorToGreen Pages: 1 -->
<svg width="323pt" height="64pt"
 viewBox="0.00 0.00 323.00 64.00" xmlns="http://www.w3.org/2000/svg" xmlns:xlink="http://www.w3.org/1999/xlink">
<g id="graph0" class="graph" transform="scale(1 1) rotate(0) translate(4 60)">
<title>FMC_changeStreamTextColorToGreen</title>
<!-- Node1 -->
<g id="node1" class="node">
<title>Node1</title>
<g id="a_node1"><a xlink:title=" ">
<polygon fill="#999999" stroke="#666666" points="315,-42.5 155,-42.5 155,-12.5 315,-12.5 315,-42.5"/>
<text text-anchor="start" x="163" y="-30.5" font-family="Helvetica,sans-Serif" font-size="10.00">FMC_changeStreamTextColor</text>
<text text-anchor="middle" x="235" y="-19.5" font-family="Helvetica,sans-Serif" font-size="10.00">ToGreen</text>
</a>
</g>
</g>
<!-- Node2 -->
<g id="node2" class="node">
<title>Node2</title>
<g id="a_node2"><a xlink:href="../../dd/ddf/FMC__errors_8h.html#a5f5479a4e25d254b474ed99b9b788e84" target="_top" xlink:title=" ">
<polygon fill="white" stroke="#666666" points="119,-56 0,-56 0,-37 119,-37 119,-56"/>
<text text-anchor="middle" x="59.5" y="-44" font-family="Helvetica,sans-Serif" font-size="10.00">FMC_printGreenError</text>
</a>
</g>
</g>
<!-- Node1&#45;&gt;Node2 -->
<g id="edge1" class="edge">
<title>Node1&#45;&gt;Node2</title>
<path fill="none" stroke="#63b8ff" d="M144.66,-37.28C135.96,-38.24 127.3,-39.18 119.02,-40.09"/>
<polygon fill="#63b8ff" stroke="#63b8ff" points="145.31,-40.73 154.87,-36.17 144.54,-33.78 145.31,-40.73"/>
</g>
<!-- Node3 -->
<g id="node3" class="node">
<title>Node3</title>
<g id="a_node3"><a xlink:href="../../dd/ddf/FMC__errors_8h.html#a21b17644ce03f3179d3f384cae639bd6" target="_top" xlink:title=" ">
<polygon fill="white" stroke="#666666" points="117.5,-19 1.5,-19 1.5,0 117.5,0 117.5,-19"/>
<text text-anchor="middle" x="59.5" y="-7" font-family="Helvetica,sans-Serif" font-size="10.00">FMC_printGreenText</text>
</a>
</g>
</g>
<!-- Node1&#45;&gt;Node3 -->
<g id="edge2" class="edge">
<title>Node1&#45;&gt;Node3</title>
<path fill="none" stroke="#63b8ff" d="M144.87,-18.25C135.65,-17.3 126.47,-16.34 117.74,-15.44"/>
<polygon fill="#63b8ff" stroke="#63b8ff" points="144.56,-21.74 154.87,-19.29 145.28,-14.78 144.56,-21.74"/>
</g>
</g>
</svg>
