<?xml version="1.0" encoding="UTF-8" standalone="no"?>
<!DOCTYPE svg PUBLIC "-//W3C//DTD SVG 1.1//EN"
 "http://www.w3.org/Graphics/SVG/1.1/DTD/svg11.dtd">
<!-- Generated by graphviz version 2.43.0 (0)
 -->
<!-- Title: FMC_printBrightCyanText Pages: 1 -->
<svg width="345pt" height="76pt"
 viewBox="0.00 0.00 345.00 75.50" xmlns="http://www.w3.org/2000/svg" xmlns:xlink="http://www.w3.org/1999/xlink">
<g id="graph0" class="graph" transform="scale(1 1) rotate(0) translate(4 71.5)">
<title>FMC_printBrightCyanText</title>
<!-- Node1 -->
<g id="node1" class="node">
<title>Node1</title>
<g id="a_node1"><a xlink:title=" ">
<polygon fill="#999999" stroke="#666666" points="140,-40 0,-40 0,-21 140,-21 140,-40"/>
<text text-anchor="middle" x="70" y="-28" font-family="Helvetica,sans-Serif" font-size="10.00">FMC_printBrightCyanText</text>
</a>
</g>
</g>
<!-- Node2 -->
<g id="node2" class="node">
<title>Node2</title>
<g id="a_node2"><a xlink:href="../../dd/ddf/FMC__errors_8h.html#acd40641293c34f85866f0623c7f472c7" target="_top" xlink:title=" ">
<polygon fill="white" stroke="#666666" points="336.5,-67.5 176.5,-67.5 176.5,-37.5 336.5,-37.5 336.5,-67.5"/>
<text text-anchor="start" x="184.5" y="-55.5" font-family="Helvetica,sans-Serif" font-size="10.00">FMC_changeStreamTextColor</text>
<text text-anchor="middle" x="256.5" y="-44.5" font-family="Helvetica,sans-Serif" font-size="10.00">ToBrightCyan</text>
</a>
</g>
</g>
<!-- Node1&#45;&gt;Node2 -->
<g id="edge1" class="edge">
<title>Node1&#45;&gt;Node2</title>
<path fill="none" stroke="#63b8ff" d="M140.23,-38.75C148.68,-39.76 157.4,-40.8 166.1,-41.84"/>
<polygon fill="#63b8ff" stroke="#63b8ff" points="165.93,-45.34 176.27,-43.05 166.75,-38.39 165.93,-45.34"/>
</g>
<!-- Node3 -->
<g id="node3" class="node">
<title>Node3</title>
<g id="a_node3"><a xlink:href="../../dd/ddf/FMC__errors_8h.html#af11b1f617ef7bc80184285957c3aeee0" target="_top" xlink:title=" ">
<polygon fill="white" stroke="#666666" points="337,-19 176,-19 176,0 337,0 337,-19"/>
<text text-anchor="middle" x="256.5" y="-7" font-family="Helvetica,sans-Serif" font-size="10.00">FMC_resetStreamOutputStyle</text>
</a>
</g>
</g>
<!-- Node1&#45;&gt;Node3 -->
<g id="edge2" class="edge">
<title>Node1&#45;&gt;Node3</title>
<path fill="none" stroke="#63b8ff" d="M140.23,-22.62C148.6,-21.67 157.25,-20.68 165.87,-19.7"/>
<polygon fill="#63b8ff" stroke="#63b8ff" points="166.42,-23.16 175.96,-18.55 165.62,-16.21 166.42,-23.16"/>
</g>
</g>
</svg>
