<?xml version="1.0" encoding="UTF-8" standalone="no"?>
<!DOCTYPE svg PUBLIC "-//W3C//DTD SVG 1.1//EN"
 "http://www.w3.org/Graphics/SVG/1.1/DTD/svg11.dtd">
<!-- Generated by graphviz version 2.43.0 (0)
 -->
<!-- Title: FMC_resetStreamOutputStyle Pages: 1 -->
<!--zoomable 1026 -->
<svg id="main" version="1.1" xmlns="http://www.w3.org/2000/svg" xmlns:xlink="http://www.w3.org/1999/xlink" xml:space="preserve" onload="init(evt)">
<style type="text/css"><![CDATA[
.edge:hover path { stroke: red; }
.edge:hover polygon { stroke: red; fill: red; }
]]></style>
<script type="text/javascript"><![CDATA[
var edges = document.getElementsByTagName('g');
if (edges && edges.length) {
  for (var i=0;i<edges.length;i++) {
    if (edges[i].id.substr(0,4)=='edge') {
      edges[i].setAttribute('class','edge');
    }
  }
}
]]></script>
        <defs>
                <circle id="rim" cx="0" cy="0" r="7"/>
                <circle id="rim2" cx="0" cy="0" r="3.5"/>
                <g id="zoomPlus">
                        <use xlink:href="#rim" fill="#404040">
                                <set attributeName="fill" to="#808080" begin="zoomplus.mouseover" end="zoomplus.mouseout"/>
                        </use>
                        <path d="M-4,0h8M0,-4v8" fill="none" stroke="white" stroke-width="1.5" pointer-events="none"/>
                </g>
                <g id="zoomMin">
                        <use xlink:href="#rim" fill="#404040">
                                <set attributeName="fill" to="#808080" begin="zoomminus.mouseover" end="zoomminus.mouseout"/>
                        </use>
                        <path d="M-4,0h8" fill="none" stroke="white" stroke-width="1.5" pointer-events="none"/>
                </g>
                <g id="dirArrow">
                        <path fill="none" stroke="white" stroke-width="1.5" d="M0,-3.0v7 M-2.5,-0.5L0,-3.0L2.5,-0.5"/>
                </g>
               <g id="resetDef">
                       <use xlink:href="#rim2" fill="#404040">
                               <set attributeName="fill" to="#808080" begin="reset.mouseover" end="reset.mouseout"/>
                       </use>
               </g>
        </defs>

<script type="text/javascript">
var viewWidth = 527;
var viewHeight = 1026;
var sectionId = 'dynsection-45';
</script>
<script xlink:href="../../svgpan.js"/>
<svg id="graph" class="graph">
<g id="viewport">
<title>FMC_resetStreamOutputStyle</title>
<!-- Node1 -->
<g id="node1" class="node">
<title>Node1</title>
<g id="a_node1"><a xlink:title=" ">
<polygon fill="#999999" stroke="#666666" points="519,-518 358,-518 358,-499 519,-499 519,-518"/>
<text text-anchor="middle" x="438.5" y="-506" font-family="Helvetica,sans-Serif" font-size="10.00">FMC_resetStreamOutputStyle</text>
</a>
</g>
</g>
<!-- Node2 -->
<g id="node2" class="node">
<title>Node2</title>
<g id="a_node2"><a xlink:href="../../dd/ddf/FMC__errors_8h.html#a0808577b5749121dd64680e8e9d8a469" target="_top" xlink:title=" ">
<polygon fill="white" stroke="#666666" points="297,-1018 186,-1018 186,-999 297,-999 297,-1018"/>
<text text-anchor="middle" x="241.5" y="-1006" font-family="Helvetica,sans-Serif" font-size="10.00">FMC_printBlueError</text>
</a>
</g>
</g>
<!-- Node1&#45;&gt;Node2 -->
<g id="edge1" class="edge">
<title>Node1&#45;&gt;Node2</title>
<path fill="none" stroke="#63b8ff" d="M435.53,-528.13C426.93,-610.04 389.98,-923.37 322,-990.5 315.15,-997.26 306.33,-1001.7 297.07,-1004.58"/>
<polygon fill="#63b8ff" stroke="#63b8ff" points="439.02,-528.47 436.56,-518.16 432.05,-527.75 439.02,-528.47"/>
</g>
<!-- Node3 -->
<g id="node3" class="node">
<title>Node3</title>
<g id="a_node3"><a xlink:href="../../dd/ddf/FMC__errors_8h.html#a35adf1dc1a76a80d921227acdbc7ffd0" target="_top" xlink:title=" ">
<polygon fill="white" stroke="#666666" points="295.5,-981 187.5,-981 187.5,-962 295.5,-962 295.5,-981"/>
<text text-anchor="middle" x="241.5" y="-969" font-family="Helvetica,sans-Serif" font-size="10.00">FMC_printBlueText</text>
</a>
</g>
</g>
<!-- Node1&#45;&gt;Node3 -->
<g id="edge2" class="edge">
<title>Node1&#45;&gt;Node3</title>
<path fill="none" stroke="#63b8ff" d="M435.12,-528.11C425.27,-605.99 385.23,-892.22 322,-953.5 314.79,-960.49 305.46,-964.99 295.74,-967.84"/>
<polygon fill="#63b8ff" stroke="#63b8ff" points="438.59,-528.54 436.35,-518.18 431.65,-527.67 438.59,-528.54"/>
</g>
<!-- Node4 -->
<g id="node4" class="node">
<title>Node4</title>
<g id="a_node4"><a xlink:href="../../dd/ddf/FMC__errors_8h.html#a9472ef4935e71c850fa7aa1232ad96cb" target="_top" xlink:title=" ">
<polygon fill="white" stroke="#666666" points="311.5,-944 171.5,-944 171.5,-925 311.5,-925 311.5,-944"/>
<text text-anchor="middle" x="241.5" y="-932" font-family="Helvetica,sans-Serif" font-size="10.00">FMC_printBrightBlueError</text>
</a>
</g>
</g>
<!-- Node1&#45;&gt;Node4 -->
<g id="edge3" class="edge">
<title>Node1&#45;&gt;Node4</title>
<path fill="none" stroke="#63b8ff" d="M434.59,-528.34C423.35,-602.37 380.44,-861.09 322,-916.5 318.51,-919.81 314.54,-922.56 310.29,-924.84"/>
<polygon fill="#63b8ff" stroke="#63b8ff" points="438.11,-528.51 436.12,-518.1 431.18,-527.47 438.11,-528.51"/>
</g>
<!-- Node5 -->
<g id="node5" class="node">
<title>Node5</title>
<g id="a_node5"><a xlink:href="../../dd/ddf/FMC__errors_8h.html#a3a8ecc947d53a7dbad1fc8c8cf0b75b5" target="_top" xlink:title=" ">
<polygon fill="white" stroke="#666666" points="310,-907 173,-907 173,-888 310,-888 310,-907"/>
<text text-anchor="middle" x="241.5" y="-895" font-family="Helvetica,sans-Serif" font-size="10.00">FMC_printBrightBlueText</text>
</a>
</g>
</g>
<!-- Node1&#45;&gt;Node5 -->
<g id="edge4" class="edge">
<title>Node1&#45;&gt;Node5</title>
<path fill="none" stroke="#63b8ff" d="M437.75,-528.32C437.39,-590.3 427.44,-782.09 322,-879.5 318.36,-882.86 314.23,-885.64 309.81,-887.93"/>
<polygon fill="#63b8ff" stroke="#63b8ff" points="441.25,-528 437.72,-518.01 434.25,-528.02 441.25,-528"/>
</g>
<!-- Node6 -->
<g id="node6" class="node">
<title>Node6</title>
<g id="a_node6"><a xlink:href="../../dd/ddf/FMC__errors_8h.html#abd74ae9c22c8749cc98773af5af375d2" target="_top" xlink:title=" ">
<polygon fill="white" stroke="#666666" points="313,-870 170,-870 170,-851 313,-851 313,-870"/>
<text text-anchor="middle" x="241.5" y="-858" font-family="Helvetica,sans-Serif" font-size="10.00">FMC_printBrightCyanError</text>
</a>
</g>
</g>
<!-- Node1&#45;&gt;Node6 -->
<g id="edge5" class="edge">
<title>Node1&#45;&gt;Node6</title>
<path fill="none" stroke="#63b8ff" d="M436.97,-528.26C434.29,-586.1 418.2,-756.36 322,-842.5 318.2,-845.9 313.9,-848.7 309.32,-851"/>
<polygon fill="#63b8ff" stroke="#63b8ff" points="440.47,-528.38 437.35,-518.25 433.47,-528.11 440.47,-528.38"/>
</g>
<!-- Node7 -->
<g id="node7" class="node">
<title>Node7</title>
<g id="a_node7"><a xlink:href="../../dd/ddf/FMC__errors_8h.html#abdab950923604fd48cefbca5ef7429bf" target="_top" xlink:title=" ">
<polygon fill="white" stroke="#666666" points="311.5,-833 171.5,-833 171.5,-814 311.5,-814 311.5,-833"/>
<text text-anchor="middle" x="241.5" y="-821" font-family="Helvetica,sans-Serif" font-size="10.00">FMC_printBrightCyanText</text>
</a>
</g>
</g>
<!-- Node1&#45;&gt;Node7 -->
<g id="edge6" class="edge">
<title>Node1&#45;&gt;Node7</title>
<path fill="none" stroke="#63b8ff" d="M436.02,-528.17C430.89,-581.61 409.07,-730.47 322,-805.5 318.14,-808.83 313.79,-811.57 309.18,-813.84"/>
<polygon fill="#63b8ff" stroke="#63b8ff" points="439.52,-528.28 436.9,-518.02 432.55,-527.68 439.52,-528.28"/>
</g>
<!-- Node8 -->
<g id="node8" class="node">
<title>Node8</title>
<g id="a_node8"><a xlink:href="../../dd/ddf/FMC__errors_8h.html#a41d194ac486683f81afac62911e1bcb9" target="_top" xlink:title=" ">
<polygon fill="white" stroke="#666666" points="315.5,-796 167.5,-796 167.5,-777 315.5,-777 315.5,-796"/>
<text text-anchor="middle" x="241.5" y="-784" font-family="Helvetica,sans-Serif" font-size="10.00">FMC_printBrightGreenError</text>
</a>
</g>
</g>
<!-- Node1&#45;&gt;Node8 -->
<g id="edge7" class="edge">
<title>Node1&#45;&gt;Node8</title>
<path fill="none" stroke="#63b8ff" d="M434.79,-528.31C427.01,-577.25 399.91,-704.5 322,-768.5 317.84,-771.91 313.17,-774.71 308.23,-777"/>
<polygon fill="#63b8ff" stroke="#63b8ff" points="438.3,-528.53 436.31,-518.12 431.37,-527.5 438.3,-528.53"/>
</g>
<!-- Node9 -->
<g id="node9" class="node">
<title>Node9</title>
<g id="a_node9"><a xlink:href="../../dd/ddf/FMC__errors_8h.html#aaedc9b95efbd8c5443c4f8efc2422c07" target="_top" xlink:title=" ">
<polygon fill="white" stroke="#666666" points="314,-759 169,-759 169,-740 314,-740 314,-759"/>
<text text-anchor="middle" x="241.5" y="-747" font-family="Helvetica,sans-Serif" font-size="10.00">FMC_printBrightGreenText</text>
</a>
</g>
</g>
<!-- Node1&#45;&gt;Node9 -->
<g id="edge8" class="edge">
<title>Node1&#45;&gt;Node9</title>
<path fill="none" stroke="#63b8ff" d="M433.18,-528.44C422.57,-572.47 390.88,-678.29 322,-731.5 317.63,-734.87 312.75,-737.64 307.61,-739.9"/>
<polygon fill="#63b8ff" stroke="#63b8ff" points="436.66,-528.95 435.49,-518.42 429.84,-527.38 436.66,-528.95"/>
</g>
<!-- Node10 -->
<g id="node10" class="node">
<title>Node10</title>
<g id="a_node10"><a xlink:href="../../dd/ddf/FMC__errors_8h.html#a49e3c737301f567d3bb7e6930b82cc04" target="_top" xlink:title=" ">
<polygon fill="white" stroke="#666666" points="322,-722 161,-722 161,-703 322,-703 322,-722"/>
<text text-anchor="middle" x="241.5" y="-710" font-family="Helvetica,sans-Serif" font-size="10.00">FMC_printBrightMagentaError</text>
</a>
</g>
</g>
<!-- Node1&#45;&gt;Node10 -->
<g id="edge9" class="edge">
<title>Node1&#45;&gt;Node10</title>
<path fill="none" stroke="#63b8ff" d="M431.19,-527.96C417.7,-566.29 382.3,-651.55 322,-694.5 317.27,-697.87 312.02,-700.62 306.54,-702.86"/>
<polygon fill="#63b8ff" stroke="#63b8ff" points="434.65,-528.66 434.54,-518.07 428.02,-526.41 434.65,-528.66"/>
</g>
<!-- Node11 -->
<g id="node11" class="node">
<title>Node11</title>
<g id="a_node11"><a xlink:href="../../dd/ddf/FMC__errors_8h.html#a8ee3e4949ec4f06e4b318755d73e0671" target="_top" xlink:title=" ">
<polygon fill="white" stroke="#666666" points="320.5,-685 162.5,-685 162.5,-666 320.5,-666 320.5,-685"/>
<text text-anchor="middle" x="241.5" y="-673" font-family="Helvetica,sans-Serif" font-size="10.00">FMC_printBrightMagentaText</text>
</a>
</g>
</g>
<!-- Node1&#45;&gt;Node11 -->
<g id="edge10" class="edge">
<title>Node1&#45;&gt;Node11</title>
<path fill="none" stroke="#63b8ff" d="M428.52,-527.16C412.1,-559.18 374.07,-624.35 322,-657.5 316.63,-660.92 310.69,-663.69 304.55,-665.94"/>
<polygon fill="#63b8ff" stroke="#63b8ff" points="431.75,-528.52 433.08,-518.01 425.49,-525.39 431.75,-528.52"/>
</g>
<!-- Node12 -->
<g id="node12" class="node">
<title>Node12</title>
<g id="a_node12"><a xlink:href="../../dd/ddf/FMC__errors_8h.html#a6f3db48b5173e8c1c93b0080aa95fa61" target="_top" xlink:title=" ">
<polygon fill="white" stroke="#666666" points="310,-648 173,-648 173,-629 310,-629 310,-648"/>
<text text-anchor="middle" x="241.5" y="-636" font-family="Helvetica,sans-Serif" font-size="10.00">FMC_printBrightRedError</text>
</a>
</g>
</g>
<!-- Node1&#45;&gt;Node12 -->
<g id="edge11" class="edge">
<title>Node1&#45;&gt;Node12</title>
<path fill="none" stroke="#63b8ff" d="M424.38,-526.33C404.92,-551.41 365.97,-596.69 322,-620.5 315.65,-623.94 308.68,-626.72 301.58,-628.97"/>
<polygon fill="#63b8ff" stroke="#63b8ff" points="427.38,-528.17 430.63,-518.09 421.8,-523.94 427.38,-528.17"/>
</g>
<!-- Node14 -->
<g id="node14" class="node">
<title>Node14</title>
<g id="a_node14"><a xlink:href="../../dd/ddf/FMC__errors_8h.html#a2487f7ddf1623b258ba8ee7f57a9e537" target="_top" xlink:title=" ">
<polygon fill="white" stroke="#666666" points="308.5,-611 174.5,-611 174.5,-592 308.5,-592 308.5,-611"/>
<text text-anchor="middle" x="241.5" y="-599" font-family="Helvetica,sans-Serif" font-size="10.00">FMC_printBrightRedText</text>
</a>
</g>
</g>
<!-- Node1&#45;&gt;Node14 -->
<g id="edge13" class="edge">
<title>Node1&#45;&gt;Node14</title>
<path fill="none" stroke="#63b8ff" d="M417.9,-524.35C395.86,-541.41 358.37,-568.16 322,-583.5 314.05,-586.86 305.37,-589.63 296.77,-591.92"/>
<polygon fill="#63b8ff" stroke="#63b8ff" points="420.13,-527.05 425.83,-518.12 415.8,-521.55 420.13,-527.05"/>
</g>
<!-- Node15 -->
<g id="node15" class="node">
<title>Node15</title>
<g id="a_node15"><a xlink:href="../../dd/ddf/FMC__errors_8h.html#a2a2e2d4c7def1ce486a64b3b9fb05c73" target="_top" xlink:title=" ">
<polygon fill="white" stroke="#666666" points="315,-574 168,-574 168,-555 315,-555 315,-574"/>
<text text-anchor="middle" x="241.5" y="-562" font-family="Helvetica,sans-Serif" font-size="10.00">FMC_printBrightWhiteError</text>
</a>
</g>
</g>
<!-- Node1&#45;&gt;Node15 -->
<g id="edge14" class="edge">
<title>Node1&#45;&gt;Node15</title>
<path fill="none" stroke="#63b8ff" d="M401.12,-521.46C378.51,-529.26 348.76,-539.09 322,-546.5 311.09,-549.52 299.23,-552.41 288.09,-554.96"/>
<polygon fill="#63b8ff" stroke="#63b8ff" points="402.36,-524.73 410.65,-518.14 400.06,-518.12 402.36,-524.73"/>
</g>
<!-- Node16 -->
<g id="node16" class="node">
<title>Node16</title>
<g id="a_node16"><a xlink:href="../../dd/ddf/FMC__errors_8h.html#a8437c6fe0179bc31b608526b4ff6ff2f" target="_top" xlink:title=" ">
<polygon fill="white" stroke="#666666" points="313.5,-537 169.5,-537 169.5,-518 313.5,-518 313.5,-537"/>
<text text-anchor="middle" x="241.5" y="-525" font-family="Helvetica,sans-Serif" font-size="10.00">FMC_printBrightWhiteText</text>
</a>
</g>
</g>
<!-- Node1&#45;&gt;Node16 -->
<g id="edge15" class="edge">
<title>Node1&#45;&gt;Node16</title>
<path fill="none" stroke="#63b8ff" d="M347.89,-517.23C336.42,-518.35 324.81,-519.48 313.7,-520.56"/>
<polygon fill="#63b8ff" stroke="#63b8ff" points="348.29,-520.71 357.9,-516.26 347.61,-513.74 348.29,-520.71"/>
</g>
<!-- Node17 -->
<g id="node17" class="node">
<title>Node17</title>
<g id="a_node17"><a xlink:href="../../dd/ddf/FMC__errors_8h.html#a2cca9e193cad8105bb9196ffdbcb45a7" target="_top" xlink:title=" ">
<polygon fill="white" stroke="#666666" points="316,-500 167,-500 167,-481 316,-481 316,-500"/>
<text text-anchor="middle" x="241.5" y="-488" font-family="Helvetica,sans-Serif" font-size="10.00">FMC_printBrightYellowError</text>
</a>
</g>
</g>
<!-- Node1&#45;&gt;Node17 -->
<g id="edge16" class="edge">
<title>Node1&#45;&gt;Node17</title>
<path fill="none" stroke="#63b8ff" d="M347.81,-500.22C337.23,-499.24 326.52,-498.26 316.19,-497.3"/>
<polygon fill="#63b8ff" stroke="#63b8ff" points="347.63,-503.72 357.9,-501.15 348.27,-496.75 347.63,-503.72"/>
</g>
<!-- Node18 -->
<g id="node18" class="node">
<title>Node18</title>
<g id="a_node18"><a xlink:href="../../dd/ddf/FMC__errors_8h.html#a117c22486bebe2027d000ba3b49692c2" target="_top" xlink:title=" ">
<polygon fill="white" stroke="#666666" points="314.5,-463 168.5,-463 168.5,-444 314.5,-444 314.5,-463"/>
<text text-anchor="middle" x="241.5" y="-451" font-family="Helvetica,sans-Serif" font-size="10.00">FMC_printBrightYellowText</text>
</a>
</g>
</g>
<!-- Node1&#45;&gt;Node18 -->
<g id="edge18" class="edge">
<title>Node1&#45;&gt;Node18</title>
<path fill="none" stroke="#63b8ff" d="M398.92,-495.76C376.56,-488.56 347.82,-479.6 322,-472.5 309.96,-469.19 296.8,-465.91 284.72,-463.03"/>
<polygon fill="#63b8ff" stroke="#63b8ff" points="398.11,-499.18 408.7,-498.93 400.27,-492.52 398.11,-499.18"/>
</g>
<!-- Node19 -->
<g id="node19" class="node">
<title>Node19</title>
<g id="a_node19"><a xlink:href="../../dd/ddf/FMC__errors_8h.html#ad8095a80f3428830f8cb3e7eab85f7c1" target="_top" xlink:title=" ">
<polygon fill="white" stroke="#666666" points="298.5,-426 184.5,-426 184.5,-407 298.5,-407 298.5,-426"/>
<text text-anchor="middle" x="241.5" y="-414" font-family="Helvetica,sans-Serif" font-size="10.00">FMC_printCyanError</text>
</a>
</g>
</g>
<!-- Node1&#45;&gt;Node19 -->
<g id="edge19" class="edge">
<title>Node1&#45;&gt;Node19</title>
<path fill="none" stroke="#63b8ff" d="M417.44,-492.91C395.26,-476.39 357.89,-450.64 322,-435.5 312.98,-431.69 303.04,-428.56 293.34,-426.01"/>
<polygon fill="#63b8ff" stroke="#63b8ff" points="415.35,-495.72 425.43,-498.96 419.57,-490.13 415.35,-495.72"/>
</g>
<!-- Node20 -->
<g id="node20" class="node">
<title>Node20</title>
<g id="a_node20"><a xlink:href="../../dd/ddf/FMC__errors_8h.html#afca4fdffc16c493e7f8c7aea23e0aedc" target="_top" xlink:title=" ">
<polygon fill="white" stroke="#666666" points="297,-389 186,-389 186,-370 297,-370 297,-389"/>
<text text-anchor="middle" x="241.5" y="-377" font-family="Helvetica,sans-Serif" font-size="10.00">FMC_printCyanText</text>
</a>
</g>
</g>
<!-- Node1&#45;&gt;Node20 -->
<g id="edge20" class="edge">
<title>Node1&#45;&gt;Node20</title>
<path fill="none" stroke="#63b8ff" d="M423.97,-490.69C404.28,-466.08 365.34,-422.05 322,-398.5 314.39,-394.37 305.9,-391.12 297.37,-388.58"/>
<polygon fill="#63b8ff" stroke="#63b8ff" points="421.4,-493.09 430.32,-498.81 426.91,-488.78 421.4,-493.09"/>
</g>
<!-- Node21 -->
<g id="node21" class="node">
<title>Node21</title>
<g id="a_node21"><a xlink:href="../../dd/ddf/FMC__errors_8h.html#a5f5479a4e25d254b474ed99b9b788e84" target="_top" xlink:title=" ">
<polygon fill="white" stroke="#666666" points="301,-352 182,-352 182,-333 301,-333 301,-352"/>
<text text-anchor="middle" x="241.5" y="-340" font-family="Helvetica,sans-Serif" font-size="10.00">FMC_printGreenError</text>
</a>
</g>
</g>
<!-- Node1&#45;&gt;Node21 -->
<g id="edge21" class="edge">
<title>Node1&#45;&gt;Node21</title>
<path fill="none" stroke="#63b8ff" d="M428.17,-489.7C411.46,-458.05 373.29,-394.36 322,-361.5 315.67,-357.44 308.55,-354.25 301.24,-351.74"/>
<polygon fill="#63b8ff" stroke="#63b8ff" points="425.15,-491.48 432.84,-498.77 431.38,-488.28 425.15,-491.48"/>
</g>
<!-- Node22 -->
<g id="node22" class="node">
<title>Node22</title>
<g id="a_node22"><a xlink:href="../../dd/ddf/FMC__errors_8h.html#a21b17644ce03f3179d3f384cae639bd6" target="_top" xlink:title=" ">
<polygon fill="white" stroke="#666666" points="299.5,-315 183.5,-315 183.5,-296 299.5,-296 299.5,-315"/>
<text text-anchor="middle" x="241.5" y="-303" font-family="Helvetica,sans-Serif" font-size="10.00">FMC_printGreenText</text>
</a>
</g>
</g>
<!-- Node1&#45;&gt;Node22 -->
<g id="edge22" class="edge">
<title>Node1&#45;&gt;Node22</title>
<path fill="none" stroke="#63b8ff" d="M430.89,-488.78C417.07,-450.71 381.41,-367.13 322,-324.5 315.31,-319.7 307.58,-316.1 299.61,-313.4"/>
<polygon fill="#63b8ff" stroke="#63b8ff" points="427.73,-490.35 434.34,-498.63 434.34,-488.04 427.73,-490.35"/>
</g>
<!-- Node23 -->
<g id="node23" class="node">
<title>Node23</title>
<g id="a_node23"><a xlink:href="../../dd/ddf/FMC__errors_8h.html#a07f890b84d7a505659d601c456cfab4b" target="_top" xlink:title=" ">
<polygon fill="white" stroke="#666666" points="307.5,-278 175.5,-278 175.5,-259 307.5,-259 307.5,-278"/>
<text text-anchor="middle" x="241.5" y="-266" font-family="Helvetica,sans-Serif" font-size="10.00">FMC_printMagentaError</text>
</a>
</g>
</g>
<!-- Node1&#45;&gt;Node23 -->
<g id="edge23" class="edge">
<title>Node1&#45;&gt;Node23</title>
<path fill="none" stroke="#63b8ff" d="M433.08,-488.79C422.26,-445.27 390.17,-340.62 322,-287.5 317.07,-283.66 311.49,-280.58 305.63,-278.11"/>
<polygon fill="#63b8ff" stroke="#63b8ff" points="429.72,-489.78 435.43,-498.7 436.53,-488.16 429.72,-489.78"/>
</g>
<!-- Node24 -->
<g id="node24" class="node">
<title>Node24</title>
<g id="a_node24"><a xlink:href="../../dd/ddf/FMC__errors_8h.html#a4278d760ec4321f120aafc9c0244da0f" target="_top" xlink:title=" ">
<polygon fill="white" stroke="#666666" points="306,-241 177,-241 177,-222 306,-222 306,-241"/>
<text text-anchor="middle" x="241.5" y="-229" font-family="Helvetica,sans-Serif" font-size="10.00">FMC_printMagentaText</text>
</a>
</g>
</g>
<!-- Node1&#45;&gt;Node24 -->
<g id="edge24" class="edge">
<title>Node1&#45;&gt;Node24</title>
<path fill="none" stroke="#63b8ff" d="M434.69,-488.89C426.69,-440.46 399.12,-314.44 322,-250.5 317.3,-246.61 311.94,-243.48 306.27,-240.98"/>
<polygon fill="#63b8ff" stroke="#63b8ff" points="431.27,-489.63 436.26,-498.98 438.18,-488.56 431.27,-489.63"/>
</g>
<!-- Node25 -->
<g id="node25" class="node">
<title>Node25</title>
<g id="a_node25"><a xlink:href="../../dd/ddf/FMC__errors_8h.html#a9b572ef292afb0e57567b8d5857708a5" target="_top" xlink:title=" ">
<polygon fill="white" stroke="#666666" points="295.5,-204 187.5,-204 187.5,-185 295.5,-185 295.5,-204"/>
<text text-anchor="middle" x="241.5" y="-192" font-family="Helvetica,sans-Serif" font-size="10.00">FMC_printRedError</text>
</a>
</g>
</g>
<!-- Node1&#45;&gt;Node25 -->
<g id="edge25" class="edge">
<title>Node1&#45;&gt;Node25</title>
<path fill="none" stroke="#63b8ff" d="M435.89,-488.65C430.46,-435.4 408.01,-288.34 322,-213.5 314.51,-206.98 305.17,-202.6 295.55,-199.69"/>
<polygon fill="#63b8ff" stroke="#63b8ff" points="432.42,-489.16 436.83,-498.79 439.39,-488.51 432.42,-489.16"/>
</g>
<!-- Node26 -->
<g id="node26" class="node">
<title>Node26</title>
<g id="a_node26"><a xlink:href="../../dd/ddf/FMC__errors_8h.html#a593f2fd6aee14f792cacc4c167b9fd61" target="_top" xlink:title=" ">
<polygon fill="white" stroke="#666666" points="294,-167 189,-167 189,-148 294,-148 294,-167"/>
<text text-anchor="middle" x="241.5" y="-155" font-family="Helvetica,sans-Serif" font-size="10.00">FMC_printRedText</text>
</a>
</g>
</g>
<!-- Node1&#45;&gt;Node26 -->
<g id="edge26" class="edge">
<title>Node1&#45;&gt;Node26</title>
<path fill="none" stroke="#63b8ff" d="M436.86,-488.55C433.88,-430.85 417.06,-262.48 322,-176.5 314.21,-169.46 304.28,-164.9 294.1,-161.97"/>
<polygon fill="#63b8ff" stroke="#63b8ff" points="433.38,-488.99 437.3,-498.83 440.37,-488.69 433.38,-488.99"/>
</g>
<!-- Node27 -->
<g id="node27" class="node">
<title>Node27</title>
<g id="a_node27"><a xlink:href="../../dd/ddf/FMC__errors_8h.html#a545e3c3405b11f19c15d0fb4e126ed05" target="_top" xlink:title=" ">
<polygon fill="white" stroke="#666666" points="300.5,-130 182.5,-130 182.5,-111 300.5,-111 300.5,-130"/>
<text text-anchor="middle" x="241.5" y="-118" font-family="Helvetica,sans-Serif" font-size="10.00">FMC_printWhiteError</text>
</a>
</g>
</g>
<!-- Node1&#45;&gt;Node27 -->
<g id="edge27" class="edge">
<title>Node1&#45;&gt;Node27</title>
<path fill="none" stroke="#63b8ff" d="M437.66,-488.43C437,-426.5 426.18,-236.76 322,-139.5 315.98,-133.88 308.61,-129.84 300.81,-126.94"/>
<polygon fill="#63b8ff" stroke="#63b8ff" points="434.16,-488.76 437.68,-498.75 441.16,-488.74 434.16,-488.76"/>
</g>
<!-- Node28 -->
<g id="node28" class="node">
<title>Node28</title>
<g id="a_node28"><a xlink:href="../../dd/ddf/FMC__errors_8h.html#a66c2350461579501ebdcb1635a70994b" target="_top" xlink:title=" ">
<polygon fill="white" stroke="#666666" points="299,-93 184,-93 184,-74 299,-74 299,-93"/>
<text text-anchor="middle" x="241.5" y="-81" font-family="Helvetica,sans-Serif" font-size="10.00">FMC_printWhiteText</text>
</a>
</g>
</g>
<!-- Node1&#45;&gt;Node28 -->
<g id="edge28" class="edge">
<title>Node1&#45;&gt;Node28</title>
<path fill="none" stroke="#63b8ff" d="M434.56,-488.78C423.19,-415.19 379.88,-157.97 322,-102.5 315.65,-96.41 307.71,-92.16 299.33,-89.21"/>
<polygon fill="#63b8ff" stroke="#63b8ff" points="431.14,-489.6 436.11,-498.96 438.06,-488.54 431.14,-489.6"/>
</g>
<!-- Node29 -->
<g id="node29" class="node">
<title>Node29</title>
<g id="a_node29"><a xlink:href="../../dd/ddf/FMC__errors_8h.html#a1e52e30b24624e791f4815cd6bacb0a5" target="_top" xlink:title=" ">
<polygon fill="white" stroke="#666666" points="301.5,-56 181.5,-56 181.5,-37 301.5,-37 301.5,-56"/>
<text text-anchor="middle" x="241.5" y="-44" font-family="Helvetica,sans-Serif" font-size="10.00">FMC_printYellowError</text>
</a>
</g>
</g>
<!-- Node1&#45;&gt;Node29 -->
<g id="edge29" class="edge">
<title>Node1&#45;&gt;Node29</title>
<path fill="none" stroke="#63b8ff" d="M435.02,-488.52C424.94,-410.38 384.51,-126.74 322,-65.5 316.32,-59.94 309.33,-55.9 301.86,-52.99"/>
<polygon fill="#63b8ff" stroke="#63b8ff" points="431.6,-489.39 436.33,-498.87 438.55,-488.51 431.6,-489.39"/>
</g>
<!-- Node30 -->
<g id="node30" class="node">
<title>Node30</title>
<g id="a_node30"><a xlink:href="../../dd/ddf/FMC__errors_8h.html#a0ed6d8b223c90eb7bcc4981e1ba73c57" target="_top" xlink:title=" ">
<polygon fill="white" stroke="#666666" points="300,-19 183,-19 183,0 300,0 300,-19"/>
<text text-anchor="middle" x="241.5" y="-7" font-family="Helvetica,sans-Serif" font-size="10.00">FMC_printYellowText</text>
</a>
</g>
</g>
<!-- Node1&#45;&gt;Node30 -->
<g id="edge30" class="edge">
<title>Node1&#45;&gt;Node30</title>
<path fill="none" stroke="#63b8ff" d="M435.44,-488.46C426.61,-406.21 389.21,-95.6 322,-28.5 315.97,-22.48 308.41,-18.24 300.35,-15.28"/>
<polygon fill="#63b8ff" stroke="#63b8ff" points="432.01,-489.31 436.54,-498.89 438.98,-488.58 432.01,-489.31"/>
</g>
<!-- Node13 -->
<g id="node13" class="node">
<title>Node13</title>
<g id="a_node13"><a xlink:href="../../db/dc4/FMC__encodings_8c.html#a4766bf9887ba1fc50aae7d71f16a0128" target="_top" xlink:title=" ">
<polygon fill="white" stroke="#666666" points="125,-574 0,-574 0,-555 125,-555 125,-574"/>
<text text-anchor="middle" x="62.5" y="-562" font-family="Helvetica,sans-Serif" font-size="10.00">FMC_FUNC_NONNULL</text>
</a>
</g>
</g>
<!-- Node12&#45;&gt;Node13 -->
<g id="edge12" class="edge">
<title>Node12&#45;&gt;Node13</title>
<path fill="none" stroke="#63b8ff" d="M178.17,-626.28C172.3,-624.56 166.49,-622.64 161,-620.5 129.18,-608.08 95.3,-586.47 77.05,-574.04"/>
<polygon fill="#63b8ff" stroke="#63b8ff" points="177.52,-629.73 188.08,-628.98 179.35,-622.97 177.52,-629.73"/>
</g>
<!-- Node17&#45;&gt;Node13 -->
<g id="edge17" class="edge">
<title>Node17&#45;&gt;Node13</title>
<path fill="none" stroke="#63b8ff" d="M181.05,-502.77C174.2,-504.75 167.39,-506.99 161,-509.5 129.52,-521.86 95.79,-542.83 77.41,-554.99"/>
<polygon fill="#63b8ff" stroke="#63b8ff" points="182.34,-506.05 191.07,-500.05 180.5,-499.29 182.34,-506.05"/>
</g>
</g>
</svg>
        <g id="navigator" transform="translate(0 0)" fill="#404254">
                <rect fill="#f2f5e9" fill-opacity="0.5" stroke="#606060" stroke-width=".5" x="0" y="0" width="60" height="60"/>
                <use id="zoomplus" xlink:href="#zoomPlus" x="17" y="9" onmousedown="handleZoom(evt,'in')"/>
                <use id="zoomminus" xlink:href="#zoomMin" x="42" y="9" onmousedown="handleZoom(evt,'out')"/>
                <use id="reset" xlink:href="#resetDef" x="30" y="36" onmousedown="handleReset()"/>
                <g id="arrowUp" xlink:href="#dirArrow" transform="translate(30 24)" onmousedown="handlePan(0,-1)">
                  <use xlink:href="#rim" fill="#404040">
                        <set attributeName="fill" to="#808080" begin="arrowUp.mouseover" end="arrowUp.mouseout"/>
                  </use>
                  <path fill="none" stroke="white" stroke-width="1.5" d="M0,-3.0v7 M-2.5,-0.5L0,-3.0L2.5,-0.5"/>
                </g>
                <g id="arrowRight" xlink:href="#dirArrow" transform="rotate(90) translate(36 -43)" onmousedown="handlePan(1,0)">
                  <use xlink:href="#rim" fill="#404040">
                        <set attributeName="fill" to="#808080" begin="arrowRight.mouseover" end="arrowRight.mouseout"/>
                  </use>
                  <path fill="none" stroke="white" stroke-width="1.5" d="M0,-3.0v7 M-2.5,-0.5L0,-3.0L2.5,-0.5"/>
                </g>
                <g id="arrowDown" xlink:href="#dirArrow" transform="rotate(180) translate(-30 -48)" onmousedown="handlePan(0,1)">
                  <use xlink:href="#rim" fill="#404040">
                        <set attributeName="fill" to="#808080" begin="arrowDown.mouseover" end="arrowDown.mouseout"/>
                  </use>
                  <path fill="none" stroke="white" stroke-width="1.5" d="M0,-3.0v7 M-2.5,-0.5L0,-3.0L2.5,-0.5"/>
                </g>
                <g id="arrowLeft" xlink:href="#dirArrow" transform="rotate(270) translate(-36 17)" onmousedown="handlePan(-1,0)">
                  <use xlink:href="#rim" fill="#404040">
                        <set attributeName="fill" to="#808080" begin="arrowLeft.mouseover" end="arrowLeft.mouseout"/>
                  </use>
                  <path fill="none" stroke="white" stroke-width="1.5" d="M0,-3.0v7 M-2.5,-0.5L0,-3.0L2.5,-0.5"/>
                </g>
        </g>
        <svg viewBox="0 0 15 15" width="100%" height="30px" preserveAspectRatio="xMaxYMin meet">
         <g id="arrow_out" transform="scale(0.3 0.3)">
          <a xlink:href="FMC__errors_8c_af11b1f617ef7bc80184285957c3aeee0_icgraph_org.svg" target="_base">
           <rect id="button" ry="5" rx="5" y="6" x="6" height="38" width="38"
                fill="#f2f5e9" fill-opacity="0.5" stroke="#606060" stroke-width="1.0"/>
           <path id="arrow"
             d="M 11.500037,31.436501 C 11.940474,20.09759 22.043105,11.32322 32.158766,21.979434 L 37.068811,17.246167 C 37.068811,17.246167 37.088388,32 37.088388,32 L 22.160133,31.978069 C 22.160133,31.978069 26.997745,27.140456 26.997745,27.140456 C 18.528582,18.264221 13.291696,25.230495 11.500037,31.436501 z"
             style="fill:#404040;"/>
          </a>
         </g>
        </svg>
</svg>
