<?xml version="1.0" encoding="UTF-8" standalone="no"?>
<!DOCTYPE svg PUBLIC "-//W3C//DTD SVG 1.1//EN"
 "http://www.w3.org/Graphics/SVG/1.1/DTD/svg11.dtd">
<!-- Generated by graphviz version 2.43.0 (0)
 -->
<!-- Title: FMC_changeStreamTextColorToBrightWhite Pages: 1 -->
<svg width="351pt" height="64pt"
 viewBox="0.00 0.00 351.00 64.00" xmlns="http://www.w3.org/2000/svg" xmlns:xlink="http://www.w3.org/1999/xlink">
<g id="graph0" class="graph" transform="scale(1 1) rotate(0) translate(4 60)">
<title>FMC_changeStreamTextColorToBrightWhite</title>
<!-- Node1 -->
<g id="node1" class="node">
<title>Node1</title>
<g id="a_node1"><a xlink:title=" ">
<polygon fill="#999999" stroke="#666666" points="343,-42.5 183,-42.5 183,-12.5 343,-12.5 343,-42.5"/>
<text text-anchor="start" x="191" y="-30.5" font-family="Helvetica,sans-Serif" font-size="10.00">FMC_changeStreamTextColor</text>
<text text-anchor="middle" x="263" y="-19.5" font-family="Helvetica,sans-Serif" font-size="10.00">ToBrightWhite</text>
</a>
</g>
</g>
<!-- Node2 -->
<g id="node2" class="node">
<title>Node2</title>
<g id="a_node2"><a xlink:href="../../dd/ddf/FMC__errors_8h.html#affdab952330911966f092113573bc8f7" target="_top" xlink:title=" ">
<polygon fill="white" stroke="#666666" points="147,-56 0,-56 0,-37 147,-37 147,-56"/>
<text text-anchor="middle" x="73.5" y="-44" font-family="Helvetica,sans-Serif" font-size="10.00">FMC_printBrightWhiteError</text>
</a>
</g>
</g>
<!-- Node1&#45;&gt;Node2 -->
<g id="edge1" class="edge">
<title>Node1&#45;&gt;Node2</title>
<path fill="none" stroke="#63b8ff" d="M172.75,-36.54C164.19,-37.41 155.58,-38.28 147.2,-39.13"/>
<polygon fill="#63b8ff" stroke="#63b8ff" points="173.16,-40.02 182.75,-35.53 172.45,-33.06 173.16,-40.02"/>
</g>
<!-- Node3 -->
<g id="node3" class="node">
<title>Node3</title>
<g id="a_node3"><a xlink:href="../../dd/ddf/FMC__errors_8h.html#acbd079da4200c21ed0e95d1c207beda8" target="_top" xlink:title=" ">
<polygon fill="white" stroke="#666666" points="145.5,-19 1.5,-19 1.5,0 145.5,0 145.5,-19"/>
<text text-anchor="middle" x="73.5" y="-7" font-family="Helvetica,sans-Serif" font-size="10.00">FMC_printBrightWhiteText</text>
</a>
</g>
</g>
<!-- Node1&#45;&gt;Node3 -->
<g id="edge2" class="edge">
<title>Node1&#45;&gt;Node3</title>
<path fill="none" stroke="#63b8ff" d="M172.61,-18.92C163.59,-18.05 154.52,-17.18 145.72,-16.34"/>
<polygon fill="#63b8ff" stroke="#63b8ff" points="172.47,-22.42 182.75,-19.89 173.14,-15.45 172.47,-22.42"/>
</g>
</g>
</svg>
