<?xml version="1.0" encoding="UTF-8" standalone="no"?>
<!DOCTYPE svg PUBLIC "-//W3C//DTD SVG 1.1//EN"
 "http://www.w3.org/Graphics/SVG/1.1/DTD/svg11.dtd">
<!-- Generated by graphviz version 2.43.0 (0)
 -->
<!-- Title: FMC_printBrightCyanError Pages: 1 -->
<svg width="348pt" height="113pt"
 viewBox="0.00 0.00 348.00 112.50" xmlns="http://www.w3.org/2000/svg" xmlns:xlink="http://www.w3.org/1999/xlink">
<g id="graph0" class="graph" transform="scale(1 1) rotate(0) translate(4 108.5)">
<title>FMC_printBrightCyanError</title>
<!-- Node1 -->
<g id="node1" class="node">
<title>Node1</title>
<g id="a_node1"><a xlink:title=" ">
<polygon fill="#999999" stroke="#666666" points="143,-56 0,-56 0,-37 143,-37 143,-56"/>
<text text-anchor="middle" x="71.5" y="-44" font-family="Helvetica,sans-Serif" font-size="10.00">FMC_printBrightCyanError</text>
</a>
</g>
</g>
<!-- Node2 -->
<g id="node2" class="node">
<title>Node2</title>
<g id="a_node2"><a xlink:href="../../dd/ddf/FMC__errors_8h.html#a56705cd41fc34ddc9e7f33d38be73169" target="_top" xlink:title=" ">
<polygon fill="white" stroke="#666666" points="339.5,-104.5 179.5,-104.5 179.5,-74.5 339.5,-74.5 339.5,-104.5"/>
<text text-anchor="start" x="187.5" y="-92.5" font-family="Helvetica,sans-Serif" font-size="10.00">FMC_changeStreamTextColor</text>
<text text-anchor="middle" x="259.5" y="-81.5" font-family="Helvetica,sans-Serif" font-size="10.00">ToBrightCyan</text>
</a>
</g>
</g>
<!-- Node1&#45;&gt;Node2 -->
<g id="edge1" class="edge">
<title>Node1&#45;&gt;Node2</title>
<path fill="none" stroke="#63b8ff" d="M113.78,-56.04C134.38,-60.81 159.94,-66.72 183.83,-72.24"/>
<polygon fill="#63b8ff" stroke="#63b8ff" points="183.06,-75.65 193.59,-74.49 184.63,-68.83 183.06,-75.65"/>
</g>
<!-- Node3 -->
<g id="node3" class="node">
<title>Node3</title>
<g id="a_node3"><a xlink:href="../../dd/ddf/FMC__errors_8h.html#a5dac1ddff314ba7b3bed3d87eb3f19f5" target="_top" xlink:title=" ">
<polygon fill="white" stroke="#666666" points="340,-56 179,-56 179,-37 340,-37 340,-56"/>
<text text-anchor="middle" x="259.5" y="-44" font-family="Helvetica,sans-Serif" font-size="10.00">FMC_resetStreamOutputStyle</text>
</a>
</g>
</g>
<!-- Node1&#45;&gt;Node3 -->
<g id="edge2" class="edge">
<title>Node1&#45;&gt;Node3</title>
<path fill="none" stroke="#63b8ff" d="M143.08,-46.5C151.5,-46.5 160.19,-46.5 168.83,-46.5"/>
<polygon fill="#63b8ff" stroke="#63b8ff" points="168.94,-50 178.94,-46.5 168.94,-43 168.94,-50"/>
</g>
<!-- Node4 -->
<g id="node4" class="node">
<title>Node4</title>
<g id="a_node4"><a xlink:href="../../dd/ddf/FMC__errors_8h.html#ad65d0a387448c0139270e9c628cf4126" target="_top" xlink:title=" ">
<polygon fill="white" stroke="#666666" points="327.5,-19 191.5,-19 191.5,0 327.5,0 327.5,-19"/>
<text text-anchor="middle" x="259.5" y="-7" font-family="Helvetica,sans-Serif" font-size="10.00">FMC_setTextStyleToBold</text>
</a>
</g>
</g>
<!-- Node1&#45;&gt;Node4 -->
<g id="edge3" class="edge">
<title>Node1&#45;&gt;Node4</title>
<path fill="none" stroke="#63b8ff" d="M120.4,-36.97C144.82,-32.11 174.72,-26.17 200.44,-21.05"/>
<polygon fill="#63b8ff" stroke="#63b8ff" points="201.31,-24.44 210.44,-19.06 199.95,-17.58 201.31,-24.44"/>
</g>
</g>
</svg>
