<?xml version="1.0" encoding="UTF-8" standalone="no"?>
<!DOCTYPE svg PUBLIC "-//W3C//DTD SVG 1.1//EN"
 "http://www.w3.org/Graphics/SVG/1.1/DTD/svg11.dtd">
<!-- Generated by graphviz version 2.43.0 (0)
 -->
<!-- Title: FMC_printRedError Pages: 1 -->
<svg width="313pt" height="113pt"
 viewBox="0.00 0.00 313.00 112.50" xmlns="http://www.w3.org/2000/svg" xmlns:xlink="http://www.w3.org/1999/xlink">
<g id="graph0" class="graph" transform="scale(1 1) rotate(0) translate(4 108.5)">
<title>FMC_printRedError</title>
<!-- Node1 -->
<g id="node1" class="node">
<title>Node1</title>
<g id="a_node1"><a xlink:title=" ">
<polygon fill="#999999" stroke="#666666" points="108,-56 0,-56 0,-37 108,-37 108,-56"/>
<text text-anchor="middle" x="54" y="-44" font-family="Helvetica,sans-Serif" font-size="10.00">FMC_printRedError</text>
</a>
</g>
</g>
<!-- Node2 -->
<g id="node2" class="node">
<title>Node2</title>
<g id="a_node2"><a xlink:href="../../dd/ddf/FMC__errors_8h.html#a8a9b02d122dbd9363d16a77dc49e5864" target="_top" xlink:title=" ">
<polygon fill="white" stroke="#666666" points="304.5,-104.5 144.5,-104.5 144.5,-74.5 304.5,-74.5 304.5,-104.5"/>
<text text-anchor="start" x="152.5" y="-92.5" font-family="Helvetica,sans-Serif" font-size="10.00">FMC_changeStreamTextColor</text>
<text text-anchor="middle" x="224.5" y="-81.5" font-family="Helvetica,sans-Serif" font-size="10.00">ToRed</text>
</a>
</g>
</g>
<!-- Node1&#45;&gt;Node2 -->
<g id="edge1" class="edge">
<title>Node1&#45;&gt;Node2</title>
<path fill="none" stroke="#63b8ff" d="M92.4,-56.04C110.81,-60.74 133.6,-66.56 154.99,-72.02"/>
<polygon fill="#63b8ff" stroke="#63b8ff" points="154.14,-75.41 164.7,-74.49 155.87,-68.63 154.14,-75.41"/>
</g>
<!-- Node3 -->
<g id="node3" class="node">
<title>Node3</title>
<g id="a_node3"><a xlink:href="../../dd/ddf/FMC__errors_8h.html#af11b1f617ef7bc80184285957c3aeee0" target="_top" xlink:title=" ">
<polygon fill="white" stroke="#666666" points="305,-56 144,-56 144,-37 305,-37 305,-56"/>
<text text-anchor="middle" x="224.5" y="-44" font-family="Helvetica,sans-Serif" font-size="10.00">FMC_resetStreamOutputStyle</text>
</a>
</g>
</g>
<!-- Node1&#45;&gt;Node3 -->
<g id="edge2" class="edge">
<title>Node1&#45;&gt;Node3</title>
<path fill="none" stroke="#63b8ff" d="M108.31,-46.5C116.42,-46.5 124.97,-46.5 133.61,-46.5"/>
<polygon fill="#63b8ff" stroke="#63b8ff" points="133.75,-50 143.75,-46.5 133.75,-43 133.75,-50"/>
</g>
<!-- Node4 -->
<g id="node4" class="node">
<title>Node4</title>
<g id="a_node4"><a xlink:href="../../dd/ddf/FMC__errors_8h.html#a33a1a2c6f6a143bc6a836ef37778a07f" target="_top" xlink:title=" ">
<polygon fill="white" stroke="#666666" points="292.5,-19 156.5,-19 156.5,0 292.5,0 292.5,-19"/>
<text text-anchor="middle" x="224.5" y="-7" font-family="Helvetica,sans-Serif" font-size="10.00">FMC_setTextStyleToBold</text>
</a>
</g>
</g>
<!-- Node1&#45;&gt;Node4 -->
<g id="edge3" class="edge">
<title>Node1&#45;&gt;Node4</title>
<path fill="none" stroke="#63b8ff" d="M98.39,-36.97C120.22,-32.18 146.88,-26.32 169.97,-21.25"/>
<polygon fill="#63b8ff" stroke="#63b8ff" points="170.94,-24.62 179.96,-19.06 169.44,-17.79 170.94,-24.62"/>
</g>
</g>
</svg>
