<?xml version="1.0" encoding="UTF-8" standalone="no"?>
<!DOCTYPE svg PUBLIC "-//W3C//DTD SVG 1.1//EN"
 "http://www.w3.org/Graphics/SVG/1.1/DTD/svg11.dtd">
<!-- Generated by graphviz version 2.43.0 (0)
 -->
<!-- Title: FMC_printMagentaError Pages: 1 -->
<svg width="337pt" height="113pt"
 viewBox="0.00 0.00 337.00 112.50" xmlns="http://www.w3.org/2000/svg" xmlns:xlink="http://www.w3.org/1999/xlink">
<g id="graph0" class="graph" transform="scale(1 1) rotate(0) translate(4 108.5)">
<title>FMC_printMagentaError</title>
<!-- Node1 -->
<g id="node1" class="node">
<title>Node1</title>
<g id="a_node1"><a xlink:title=" ">
<polygon fill="#999999" stroke="#666666" points="132,-56 0,-56 0,-37 132,-37 132,-56"/>
<text text-anchor="middle" x="66" y="-44" font-family="Helvetica,sans-Serif" font-size="10.00">FMC_printMagentaError</text>
</a>
</g>
</g>
<!-- Node2 -->
<g id="node2" class="node">
<title>Node2</title>
<g id="a_node2"><a xlink:href="../../dd/ddf/FMC__errors_8h.html#a50963f96b1bba77a6fb32403123e59a6" target="_top" xlink:title=" ">
<polygon fill="white" stroke="#666666" points="328.5,-104.5 168.5,-104.5 168.5,-74.5 328.5,-74.5 328.5,-104.5"/>
<text text-anchor="start" x="176.5" y="-92.5" font-family="Helvetica,sans-Serif" font-size="10.00">FMC_changeStreamTextColor</text>
<text text-anchor="middle" x="248.5" y="-81.5" font-family="Helvetica,sans-Serif" font-size="10.00">ToMagenta</text>
</a>
</g>
</g>
<!-- Node1&#45;&gt;Node2 -->
<g id="edge1" class="edge">
<title>Node1&#45;&gt;Node2</title>
<path fill="none" stroke="#63b8ff" d="M107.06,-56.04C126.96,-60.78 151.64,-66.66 174.73,-72.16"/>
<polygon fill="#63b8ff" stroke="#63b8ff" points="173.97,-75.58 184.51,-74.49 175.59,-68.77 173.97,-75.58"/>
</g>
<!-- Node3 -->
<g id="node3" class="node">
<title>Node3</title>
<g id="a_node3"><a xlink:href="../../dd/ddf/FMC__errors_8h.html#af11b1f617ef7bc80184285957c3aeee0" target="_top" xlink:title=" ">
<polygon fill="white" stroke="#666666" points="329,-56 168,-56 168,-37 329,-37 329,-56"/>
<text text-anchor="middle" x="248.5" y="-44" font-family="Helvetica,sans-Serif" font-size="10.00">FMC_resetStreamOutputStyle</text>
</a>
</g>
</g>
<!-- Node1&#45;&gt;Node3 -->
<g id="edge2" class="edge">
<title>Node1&#45;&gt;Node3</title>
<path fill="none" stroke="#63b8ff" d="M132.16,-46.5C140.51,-46.5 149.17,-46.5 157.82,-46.5"/>
<polygon fill="#63b8ff" stroke="#63b8ff" points="157.95,-50 167.95,-46.5 157.95,-43 157.95,-50"/>
</g>
<!-- Node4 -->
<g id="node4" class="node">
<title>Node4</title>
<g id="a_node4"><a xlink:href="../../dd/ddf/FMC__errors_8h.html#a33a1a2c6f6a143bc6a836ef37778a07f" target="_top" xlink:title=" ">
<polygon fill="white" stroke="#666666" points="316.5,-19 180.5,-19 180.5,0 316.5,0 316.5,-19"/>
<text text-anchor="middle" x="248.5" y="-7" font-family="Helvetica,sans-Serif" font-size="10.00">FMC_setTextStyleToBold</text>
</a>
</g>
</g>
<!-- Node1&#45;&gt;Node4 -->
<g id="edge3" class="edge">
<title>Node1&#45;&gt;Node4</title>
<path fill="none" stroke="#63b8ff" d="M113.48,-36.97C137.08,-32.14 165.94,-26.22 190.82,-21.12"/>
<polygon fill="#63b8ff" stroke="#63b8ff" points="191.77,-24.5 200.86,-19.06 190.36,-17.64 191.77,-24.5"/>
</g>
</g>
</svg>
