<?xml version="1.0" encoding="UTF-8" standalone="no"?>
<!DOCTYPE svg PUBLIC "-//W3C//DTD SVG 1.1//EN"
 "http://www.w3.org/Graphics/SVG/1.1/DTD/svg11.dtd">
<!-- Generated by graphviz version 2.43.0 (0)
 -->
<!-- Title: FMC_printBrightMagentaText Pages: 1 -->
<svg width="363pt" height="76pt"
 viewBox="0.00 0.00 363.00 75.50" xmlns="http://www.w3.org/2000/svg" xmlns:xlink="http://www.w3.org/1999/xlink">
<g id="graph0" class="graph" transform="scale(1 1) rotate(0) translate(4 71.5)">
<title>FMC_printBrightMagentaText</title>
<!-- Node1 -->
<g id="node1" class="node">
<title>Node1</title>
<g id="a_node1"><a xlink:title=" ">
<polygon fill="#999999" stroke="#666666" points="158,-40 0,-40 0,-21 158,-21 158,-40"/>
<text text-anchor="middle" x="79" y="-28" font-family="Helvetica,sans-Serif" font-size="10.00">FMC_printBrightMagentaText</text>
</a>
</g>
</g>
<!-- Node2 -->
<g id="node2" class="node">
<title>Node2</title>
<g id="a_node2"><a xlink:href="../../dd/ddf/FMC__errors_8h.html#a561fde32769e709def1868d5196e14be" target="_top" xlink:title=" ">
<polygon fill="white" stroke="#666666" points="354.5,-67.5 194.5,-67.5 194.5,-37.5 354.5,-37.5 354.5,-67.5"/>
<text text-anchor="start" x="202.5" y="-55.5" font-family="Helvetica,sans-Serif" font-size="10.00">FMC_changeStreamTextColor</text>
<text text-anchor="middle" x="274.5" y="-44.5" font-family="Helvetica,sans-Serif" font-size="10.00">ToBrightMagenta</text>
</a>
</g>
</g>
<!-- Node1&#45;&gt;Node2 -->
<g id="edge1" class="edge">
<title>Node1&#45;&gt;Node2</title>
<path fill="none" stroke="#63b8ff" d="M158.15,-39.38C166.74,-40.36 175.54,-41.36 184.25,-42.35"/>
<polygon fill="#63b8ff" stroke="#63b8ff" points="184.1,-45.86 194.43,-43.51 184.89,-38.9 184.1,-45.86"/>
</g>
<!-- Node3 -->
<g id="node3" class="node">
<title>Node3</title>
<g id="a_node3"><a xlink:href="../../dd/ddf/FMC__errors_8h.html#af11b1f617ef7bc80184285957c3aeee0" target="_top" xlink:title=" ">
<polygon fill="white" stroke="#666666" points="355,-19 194,-19 194,0 355,0 355,-19"/>
<text text-anchor="middle" x="274.5" y="-7" font-family="Helvetica,sans-Serif" font-size="10.00">FMC_resetStreamOutputStyle</text>
</a>
</g>
</g>
<!-- Node1&#45;&gt;Node3 -->
<g id="edge2" class="edge">
<title>Node1&#45;&gt;Node3</title>
<path fill="none" stroke="#63b8ff" d="M158.15,-22.02C166.59,-21.1 175.23,-20.16 183.8,-19.24"/>
<polygon fill="#63b8ff" stroke="#63b8ff" points="184.24,-22.71 193.8,-18.15 183.48,-15.75 184.24,-22.71"/>
</g>
</g>
</svg>
