<?xml version="1.0" encoding="UTF-8" standalone="no"?>
<!DOCTYPE svg PUBLIC "-//W3C//DTD SVG 1.1//EN"
 "http://www.w3.org/Graphics/SVG/1.1/DTD/svg11.dtd">
<!-- Generated by graphviz version 2.43.0 (0)
 -->
<!-- Title: FMC_printWhiteError Pages: 1 -->
<svg width="323pt" height="113pt"
 viewBox="0.00 0.00 323.00 112.50" xmlns="http://www.w3.org/2000/svg" xmlns:xlink="http://www.w3.org/1999/xlink">
<g id="graph0" class="graph" transform="scale(1 1) rotate(0) translate(4 108.5)">
<title>FMC_printWhiteError</title>
<!-- Node1 -->
<g id="node1" class="node">
<title>Node1</title>
<g id="a_node1"><a xlink:title=" ">
<polygon fill="#999999" stroke="#666666" points="118,-56 0,-56 0,-37 118,-37 118,-56"/>
<text text-anchor="middle" x="59" y="-44" font-family="Helvetica,sans-Serif" font-size="10.00">FMC_printWhiteError</text>
</a>
</g>
</g>
<!-- Node2 -->
<g id="node2" class="node">
<title>Node2</title>
<g id="a_node2"><a xlink:href="../../dd/ddf/FMC__errors_8h.html#a8341db3979a9fb2f84cfdc1a700a901a" target="_top" xlink:title=" ">
<polygon fill="white" stroke="#666666" points="314.5,-104.5 154.5,-104.5 154.5,-74.5 314.5,-74.5 314.5,-104.5"/>
<text text-anchor="start" x="162.5" y="-92.5" font-family="Helvetica,sans-Serif" font-size="10.00">FMC_changeStreamTextColor</text>
<text text-anchor="middle" x="234.5" y="-81.5" font-family="Helvetica,sans-Serif" font-size="10.00">ToWhite</text>
</a>
</g>
</g>
<!-- Node1&#45;&gt;Node2 -->
<g id="edge1" class="edge">
<title>Node1&#45;&gt;Node2</title>
<path fill="none" stroke="#63b8ff" d="M98.51,-56.04C117.46,-60.74 140.93,-66.56 162.96,-72.02"/>
<polygon fill="#63b8ff" stroke="#63b8ff" points="162.4,-75.49 172.95,-74.49 164.09,-68.69 162.4,-75.49"/>
</g>
<!-- Node3 -->
<g id="node3" class="node">
<title>Node3</title>
<g id="a_node3"><a xlink:href="../../dd/ddf/FMC__errors_8h.html#a5dac1ddff314ba7b3bed3d87eb3f19f5" target="_top" xlink:title=" ">
<polygon fill="white" stroke="#666666" points="315,-56 154,-56 154,-37 315,-37 315,-56"/>
<text text-anchor="middle" x="234.5" y="-44" font-family="Helvetica,sans-Serif" font-size="10.00">FMC_resetStreamOutputStyle</text>
</a>
</g>
</g>
<!-- Node1&#45;&gt;Node3 -->
<g id="edge2" class="edge">
<title>Node1&#45;&gt;Node3</title>
<path fill="none" stroke="#63b8ff" d="M118.26,-46.5C126.46,-46.5 135.05,-46.5 143.69,-46.5"/>
<polygon fill="#63b8ff" stroke="#63b8ff" points="143.82,-50 153.82,-46.5 143.82,-43 143.82,-50"/>
</g>
<!-- Node4 -->
<g id="node4" class="node">
<title>Node4</title>
<g id="a_node4"><a xlink:href="../../dd/ddf/FMC__errors_8h.html#ad65d0a387448c0139270e9c628cf4126" target="_top" xlink:title=" ">
<polygon fill="white" stroke="#666666" points="302.5,-19 166.5,-19 166.5,0 302.5,0 302.5,-19"/>
<text text-anchor="middle" x="234.5" y="-7" font-family="Helvetica,sans-Serif" font-size="10.00">FMC_setTextStyleToBold</text>
</a>
</g>
</g>
<!-- Node1&#45;&gt;Node4 -->
<g id="edge3" class="edge">
<title>Node1&#45;&gt;Node4</title>
<path fill="none" stroke="#63b8ff" d="M104.68,-36.97C127.26,-32.16 154.85,-26.27 178.7,-21.19"/>
<polygon fill="#63b8ff" stroke="#63b8ff" points="179.62,-24.57 188.67,-19.06 178.16,-17.72 179.62,-24.57"/>
</g>
</g>
</svg>
