<?xml version="1.0" encoding="UTF-8" standalone="no"?>
<!DOCTYPE svg PUBLIC "-//W3C//DTD SVG 1.1//EN"
 "http://www.w3.org/Graphics/SVG/1.1/DTD/svg11.dtd">
<!-- Generated by graphviz version 2.43.0 (0)
 -->
<!-- Title: FMC_resetStreamOutputStyle Pages: 1 -->
<!--zoomable 1026 -->
<svg id="main" version="1.1" xmlns="http://www.w3.org/2000/svg" xmlns:xlink="http://www.w3.org/1999/xlink" xml:space="preserve" onload="init(evt)">
<style type="text/css"><![CDATA[
.edge:hover path { stroke: red; }
.edge:hover polygon { stroke: red; fill: red; }
]]></style>
<script type="text/javascript"><![CDATA[
var edges = document.getElementsByTagName('g');
if (edges && edges.length) {
  for (var i=0;i<edges.length;i++) {
    if (edges[i].id.substr(0,4)=='edge') {
      edges[i].setAttribute('class','edge');
    }
  }
}
]]></script>
        <defs>
                <circle id="rim" cx="0" cy="0" r="7"/>
                <circle id="rim2" cx="0" cy="0" r="3.5"/>
                <g id="zoomPlus">
                        <use xlink:href="#rim" fill="#404040">
                                <set attributeName="fill" to="#808080" begin="zoomplus.mouseover" end="zoomplus.mouseout"/>
                        </use>
                        <path d="M-4,0h8M0,-4v8" fill="none" stroke="white" stroke-width="1.5" pointer-events="none"/>
                </g>
                <g id="zoomMin">
                        <use xlink:href="#rim" fill="#404040">
                                <set attributeName="fill" to="#808080" begin="zoomminus.mouseover" end="zoomminus.mouseout"/>
                        </use>
                        <path d="M-4,0h8" fill="none" stroke="white" stroke-width="1.5" pointer-events="none"/>
                </g>
                <g id="dirArrow">
                        <path fill="none" stroke="white" stroke-width="1.5" d="M0,-3.0v7 M-2.5,-0.5L0,-3.0L2.5,-0.5"/>
                </g>
               <g id="resetDef">
                       <use xlink:href="#rim2" fill="#404040">
                               <set attributeName="fill" to="#808080" begin="reset.mouseover" end="reset.mouseout"/>
                       </use>
               </g>
        </defs>

<script type="text/javascript">
var viewWidth = 668;
var viewHeight = 1026;
var sectionId = 'dynsection-45';
</script>
<script xlink:href="../../svgpan.js"/>
<svg id="graph" class="graph">
<g id="viewport">
<title>FMC_resetStreamOutputStyle</title>
<!-- Node1 -->
<g id="node1" class="node">
<title>Node1</title>
<g id="a_node1"><a xlink:title=" ">
<polygon fill="#999999" stroke="#666666" points="660,-518 499,-518 499,-499 660,-499 660,-518"/>
<text text-anchor="middle" x="579.5" y="-506" font-family="Helvetica,sans-Serif" font-size="10.00">FMC_resetStreamOutputStyle</text>
</a>
</g>
</g>
<!-- Node2 -->
<g id="node2" class="node">
<title>Node2</title>
<g id="a_node2"><a xlink:href="../../dd/ddf/FMC__errors_8h.html#ac4c186bffe86549c0997b764c8c27b40" target="_top" xlink:title=" ">
<polygon fill="white" stroke="#666666" points="438,-1018 327,-1018 327,-999 438,-999 438,-1018"/>
<text text-anchor="middle" x="382.5" y="-1006" font-family="Helvetica,sans-Serif" font-size="10.00">FMC_printBlueError</text>
</a>
</g>
</g>
<!-- Node1&#45;&gt;Node2 -->
<g id="edge1" class="edge">
<title>Node1&#45;&gt;Node2</title>
<path fill="none" stroke="#63b8ff" d="M576.53,-528.13C567.93,-610.04 530.98,-923.37 463,-990.5 456.15,-997.26 447.33,-1001.7 438.07,-1004.58"/>
<polygon fill="#63b8ff" stroke="#63b8ff" points="580.02,-528.47 577.56,-518.16 573.05,-527.75 580.02,-528.47"/>
</g>
<!-- Node3 -->
<g id="node3" class="node">
<title>Node3</title>
<g id="a_node3"><a xlink:href="../../dd/ddf/FMC__errors_8h.html#a0ca75a6adae89226439be84f4ca65399" target="_top" xlink:title=" ">
<polygon fill="white" stroke="#666666" points="436.5,-981 328.5,-981 328.5,-962 436.5,-962 436.5,-981"/>
<text text-anchor="middle" x="382.5" y="-969" font-family="Helvetica,sans-Serif" font-size="10.00">FMC_printBlueText</text>
</a>
</g>
</g>
<!-- Node1&#45;&gt;Node3 -->
<g id="edge2" class="edge">
<title>Node1&#45;&gt;Node3</title>
<path fill="none" stroke="#63b8ff" d="M576.12,-528.11C566.27,-605.99 526.23,-892.22 463,-953.5 455.79,-960.49 446.46,-964.99 436.74,-967.84"/>
<polygon fill="#63b8ff" stroke="#63b8ff" points="579.59,-528.54 577.35,-518.18 572.65,-527.67 579.59,-528.54"/>
</g>
<!-- Node4 -->
<g id="node4" class="node">
<title>Node4</title>
<g id="a_node4"><a xlink:href="../../dd/ddf/FMC__errors_8h.html#a862092a78b791a46ebc40cfab323365c" target="_top" xlink:title=" ">
<polygon fill="white" stroke="#666666" points="452.5,-944 312.5,-944 312.5,-925 452.5,-925 452.5,-944"/>
<text text-anchor="middle" x="382.5" y="-932" font-family="Helvetica,sans-Serif" font-size="10.00">FMC_printBrightBlueError</text>
</a>
</g>
</g>
<!-- Node1&#45;&gt;Node4 -->
<g id="edge3" class="edge">
<title>Node1&#45;&gt;Node4</title>
<path fill="none" stroke="#63b8ff" d="M575.59,-528.34C564.35,-602.37 521.44,-861.09 463,-916.5 459.51,-919.81 455.54,-922.56 451.29,-924.84"/>
<polygon fill="#63b8ff" stroke="#63b8ff" points="579.11,-528.51 577.12,-518.1 572.18,-527.47 579.11,-528.51"/>
</g>
<!-- Node5 -->
<g id="node5" class="node">
<title>Node5</title>
<g id="a_node5"><a xlink:href="../../dd/ddf/FMC__errors_8h.html#a85df3b6daaf127dfc0d53142235c9363" target="_top" xlink:title=" ">
<polygon fill="white" stroke="#666666" points="451,-907 314,-907 314,-888 451,-888 451,-907"/>
<text text-anchor="middle" x="382.5" y="-895" font-family="Helvetica,sans-Serif" font-size="10.00">FMC_printBrightBlueText</text>
</a>
</g>
</g>
<!-- Node1&#45;&gt;Node5 -->
<g id="edge4" class="edge">
<title>Node1&#45;&gt;Node5</title>
<path fill="none" stroke="#63b8ff" d="M578.75,-528.32C578.39,-590.3 568.44,-782.09 463,-879.5 459.36,-882.86 455.23,-885.64 450.81,-887.93"/>
<polygon fill="#63b8ff" stroke="#63b8ff" points="582.25,-528 578.72,-518.01 575.25,-528.02 582.25,-528"/>
</g>
<!-- Node6 -->
<g id="node6" class="node">
<title>Node6</title>
<g id="a_node6"><a xlink:href="../../dd/ddf/FMC__errors_8h.html#a1f26dc19a2b1b6b2c285eef8ab6422ca" target="_top" xlink:title=" ">
<polygon fill="white" stroke="#666666" points="454,-870 311,-870 311,-851 454,-851 454,-870"/>
<text text-anchor="middle" x="382.5" y="-858" font-family="Helvetica,sans-Serif" font-size="10.00">FMC_printBrightCyanError</text>
</a>
</g>
</g>
<!-- Node1&#45;&gt;Node6 -->
<g id="edge5" class="edge">
<title>Node1&#45;&gt;Node6</title>
<path fill="none" stroke="#63b8ff" d="M577.97,-528.26C575.29,-586.1 559.2,-756.36 463,-842.5 459.2,-845.9 454.9,-848.7 450.32,-851"/>
<polygon fill="#63b8ff" stroke="#63b8ff" points="581.47,-528.38 578.35,-518.25 574.47,-528.11 581.47,-528.38"/>
</g>
<!-- Node7 -->
<g id="node7" class="node">
<title>Node7</title>
<g id="a_node7"><a xlink:href="../../dd/ddf/FMC__errors_8h.html#a445b93a7bd9e3ab7c43a32f49e7cd30c" target="_top" xlink:title=" ">
<polygon fill="white" stroke="#666666" points="452.5,-833 312.5,-833 312.5,-814 452.5,-814 452.5,-833"/>
<text text-anchor="middle" x="382.5" y="-821" font-family="Helvetica,sans-Serif" font-size="10.00">FMC_printBrightCyanText</text>
</a>
</g>
</g>
<!-- Node1&#45;&gt;Node7 -->
<g id="edge6" class="edge">
<title>Node1&#45;&gt;Node7</title>
<path fill="none" stroke="#63b8ff" d="M577.02,-528.17C571.89,-581.61 550.07,-730.47 463,-805.5 459.14,-808.83 454.79,-811.57 450.18,-813.84"/>
<polygon fill="#63b8ff" stroke="#63b8ff" points="580.52,-528.28 577.9,-518.02 573.55,-527.68 580.52,-528.28"/>
</g>
<!-- Node8 -->
<g id="node8" class="node">
<title>Node8</title>
<g id="a_node8"><a xlink:href="../../dd/ddf/FMC__errors_8h.html#a6dfc2522d5b6a4d5236a4d02eea99ee6" target="_top" xlink:title=" ">
<polygon fill="white" stroke="#666666" points="456.5,-796 308.5,-796 308.5,-777 456.5,-777 456.5,-796"/>
<text text-anchor="middle" x="382.5" y="-784" font-family="Helvetica,sans-Serif" font-size="10.00">FMC_printBrightGreenError</text>
</a>
</g>
</g>
<!-- Node1&#45;&gt;Node8 -->
<g id="edge7" class="edge">
<title>Node1&#45;&gt;Node8</title>
<path fill="none" stroke="#63b8ff" d="M575.79,-528.31C568.01,-577.25 540.91,-704.5 463,-768.5 458.84,-771.91 454.17,-774.71 449.23,-777"/>
<polygon fill="#63b8ff" stroke="#63b8ff" points="579.3,-528.53 577.31,-518.12 572.37,-527.5 579.3,-528.53"/>
</g>
<!-- Node9 -->
<g id="node9" class="node">
<title>Node9</title>
<g id="a_node9"><a xlink:href="../../dd/ddf/FMC__errors_8h.html#ab35ae5bcf27e3ff75a38c44a682e225d" target="_top" xlink:title=" ">
<polygon fill="white" stroke="#666666" points="455,-759 310,-759 310,-740 455,-740 455,-759"/>
<text text-anchor="middle" x="382.5" y="-747" font-family="Helvetica,sans-Serif" font-size="10.00">FMC_printBrightGreenText</text>
</a>
</g>
</g>
<!-- Node1&#45;&gt;Node9 -->
<g id="edge8" class="edge">
<title>Node1&#45;&gt;Node9</title>
<path fill="none" stroke="#63b8ff" d="M574.18,-528.44C563.57,-572.47 531.88,-678.29 463,-731.5 458.63,-734.87 453.75,-737.64 448.61,-739.9"/>
<polygon fill="#63b8ff" stroke="#63b8ff" points="577.66,-528.95 576.49,-518.42 570.84,-527.38 577.66,-528.95"/>
</g>
<!-- Node10 -->
<g id="node10" class="node">
<title>Node10</title>
<g id="a_node10"><a xlink:href="../../dd/ddf/FMC__errors_8h.html#a1b30b2b2018dfbc2870f4073e0250f87" target="_top" xlink:title=" ">
<polygon fill="white" stroke="#666666" points="463,-722 302,-722 302,-703 463,-703 463,-722"/>
<text text-anchor="middle" x="382.5" y="-710" font-family="Helvetica,sans-Serif" font-size="10.00">FMC_printBrightMagentaError</text>
</a>
</g>
</g>
<!-- Node1&#45;&gt;Node10 -->
<g id="edge9" class="edge">
<title>Node1&#45;&gt;Node10</title>
<path fill="none" stroke="#63b8ff" d="M572.19,-527.96C558.7,-566.29 523.3,-651.55 463,-694.5 458.27,-697.87 453.02,-700.62 447.54,-702.86"/>
<polygon fill="#63b8ff" stroke="#63b8ff" points="575.65,-528.66 575.54,-518.07 569.02,-526.41 575.65,-528.66"/>
</g>
<!-- Node11 -->
<g id="node11" class="node">
<title>Node11</title>
<g id="a_node11"><a xlink:href="../../dd/ddf/FMC__errors_8h.html#afe16aa39ab2efc5c95ed7a8628800133" target="_top" xlink:title=" ">
<polygon fill="white" stroke="#666666" points="461.5,-685 303.5,-685 303.5,-666 461.5,-666 461.5,-685"/>
<text text-anchor="middle" x="382.5" y="-673" font-family="Helvetica,sans-Serif" font-size="10.00">FMC_printBrightMagentaText</text>
</a>
</g>
</g>
<!-- Node1&#45;&gt;Node11 -->
<g id="edge10" class="edge">
<title>Node1&#45;&gt;Node11</title>
<path fill="none" stroke="#63b8ff" d="M569.52,-527.16C553.1,-559.18 515.07,-624.35 463,-657.5 457.63,-660.92 451.69,-663.69 445.55,-665.94"/>
<polygon fill="#63b8ff" stroke="#63b8ff" points="572.75,-528.52 574.08,-518.01 566.49,-525.39 572.75,-528.52"/>
</g>
<!-- Node12 -->
<g id="node12" class="node">
<title>Node12</title>
<g id="a_node12"><a xlink:href="../../dd/ddf/FMC__errors_8h.html#ae3486f9bf81a6979471cdbab89635aa3" target="_top" xlink:title=" ">
<polygon fill="white" stroke="#666666" points="451,-648 314,-648 314,-629 451,-629 451,-648"/>
<text text-anchor="middle" x="382.5" y="-636" font-family="Helvetica,sans-Serif" font-size="10.00">FMC_printBrightRedError</text>
</a>
</g>
</g>
<!-- Node1&#45;&gt;Node12 -->
<g id="edge11" class="edge">
<title>Node1&#45;&gt;Node12</title>
<path fill="none" stroke="#63b8ff" d="M565.38,-526.33C545.92,-551.41 506.97,-596.69 463,-620.5 456.65,-623.94 449.68,-626.72 442.58,-628.97"/>
<polygon fill="#63b8ff" stroke="#63b8ff" points="568.38,-528.17 571.63,-518.09 562.8,-523.94 568.38,-528.17"/>
</g>
<!-- Node17 -->
<g id="node17" class="node">
<title>Node17</title>
<g id="a_node17"><a xlink:href="../../dd/ddf/FMC__errors_8h.html#a4a31043dad5e76666cf2978f4fbe05b4" target="_top" xlink:title=" ">
<polygon fill="white" stroke="#666666" points="449.5,-611 315.5,-611 315.5,-592 449.5,-592 449.5,-611"/>
<text text-anchor="middle" x="382.5" y="-599" font-family="Helvetica,sans-Serif" font-size="10.00">FMC_printBrightRedText</text>
</a>
</g>
</g>
<!-- Node1&#45;&gt;Node17 -->
<g id="edge17" class="edge">
<title>Node1&#45;&gt;Node17</title>
<path fill="none" stroke="#63b8ff" d="M558.9,-524.35C536.86,-541.41 499.37,-568.16 463,-583.5 455.05,-586.86 446.37,-589.63 437.77,-591.92"/>
<polygon fill="#63b8ff" stroke="#63b8ff" points="561.13,-527.05 566.83,-518.12 556.8,-521.55 561.13,-527.05"/>
</g>
<!-- Node18 -->
<g id="node18" class="node">
<title>Node18</title>
<g id="a_node18"><a xlink:href="../../dd/ddf/FMC__errors_8h.html#a58fdee7a96133ba2d9859ce13eeb6746" target="_top" xlink:title=" ">
<polygon fill="white" stroke="#666666" points="456,-574 309,-574 309,-555 456,-555 456,-574"/>
<text text-anchor="middle" x="382.5" y="-562" font-family="Helvetica,sans-Serif" font-size="10.00">FMC_printBrightWhiteError</text>
</a>
</g>
</g>
<!-- Node1&#45;&gt;Node18 -->
<g id="edge18" class="edge">
<title>Node1&#45;&gt;Node18</title>
<path fill="none" stroke="#63b8ff" d="M542.12,-521.46C519.51,-529.26 489.76,-539.09 463,-546.5 452.09,-549.52 440.23,-552.41 429.09,-554.96"/>
<polygon fill="#63b8ff" stroke="#63b8ff" points="543.36,-524.73 551.65,-518.14 541.06,-518.12 543.36,-524.73"/>
</g>
<!-- Node19 -->
<g id="node19" class="node">
<title>Node19</title>
<g id="a_node19"><a xlink:href="../../dd/ddf/FMC__errors_8h.html#a349d45fc10978efc9086363725d4a05f" target="_top" xlink:title=" ">
<polygon fill="white" stroke="#666666" points="454.5,-537 310.5,-537 310.5,-518 454.5,-518 454.5,-537"/>
<text text-anchor="middle" x="382.5" y="-525" font-family="Helvetica,sans-Serif" font-size="10.00">FMC_printBrightWhiteText</text>
</a>
</g>
</g>
<!-- Node1&#45;&gt;Node19 -->
<g id="edge19" class="edge">
<title>Node1&#45;&gt;Node19</title>
<path fill="none" stroke="#63b8ff" d="M488.89,-517.23C477.42,-518.35 465.81,-519.48 454.7,-520.56"/>
<polygon fill="#63b8ff" stroke="#63b8ff" points="489.29,-520.71 498.9,-516.26 488.61,-513.74 489.29,-520.71"/>
</g>
<!-- Node20 -->
<g id="node20" class="node">
<title>Node20</title>
<g id="a_node20"><a xlink:href="../../dd/ddf/FMC__errors_8h.html#ad88b59522d44764cbf3aaaac2674af14" target="_top" xlink:title=" ">
<polygon fill="white" stroke="#666666" points="457,-500 308,-500 308,-481 457,-481 457,-500"/>
<text text-anchor="middle" x="382.5" y="-488" font-family="Helvetica,sans-Serif" font-size="10.00">FMC_printBrightYellowError</text>
</a>
</g>
</g>
<!-- Node1&#45;&gt;Node20 -->
<g id="edge20" class="edge">
<title>Node1&#45;&gt;Node20</title>
<path fill="none" stroke="#63b8ff" d="M488.81,-500.22C478.23,-499.24 467.52,-498.26 457.19,-497.3"/>
<polygon fill="#63b8ff" stroke="#63b8ff" points="488.63,-503.72 498.9,-501.15 489.27,-496.75 488.63,-503.72"/>
</g>
<!-- Node21 -->
<g id="node21" class="node">
<title>Node21</title>
<g id="a_node21"><a xlink:href="../../dd/ddf/FMC__errors_8h.html#ae7dc5079936ba774fc7567b10bd8c35d" target="_top" xlink:title=" ">
<polygon fill="white" stroke="#666666" points="455.5,-463 309.5,-463 309.5,-444 455.5,-444 455.5,-463"/>
<text text-anchor="middle" x="382.5" y="-451" font-family="Helvetica,sans-Serif" font-size="10.00">FMC_printBrightYellowText</text>
</a>
</g>
</g>
<!-- Node1&#45;&gt;Node21 -->
<g id="edge22" class="edge">
<title>Node1&#45;&gt;Node21</title>
<path fill="none" stroke="#63b8ff" d="M541.64,-495.78C519.08,-488.23 489.54,-478.74 463,-471.5 451.94,-468.48 439.92,-465.57 428.66,-463"/>
<polygon fill="#63b8ff" stroke="#63b8ff" points="540.57,-499.12 551.16,-499 542.81,-492.49 540.57,-499.12"/>
</g>
<!-- Node22 -->
<g id="node22" class="node">
<title>Node22</title>
<g id="a_node22"><a xlink:href="../../dd/ddf/FMC__errors_8h.html#a30942f1a63adf98b32508b45f7c3c102" target="_top" xlink:title=" ">
<polygon fill="white" stroke="#666666" points="439.5,-426 325.5,-426 325.5,-407 439.5,-407 439.5,-426"/>
<text text-anchor="middle" x="382.5" y="-414" font-family="Helvetica,sans-Serif" font-size="10.00">FMC_printCyanError</text>
</a>
</g>
</g>
<!-- Node1&#45;&gt;Node22 -->
<g id="edge23" class="edge">
<title>Node1&#45;&gt;Node22</title>
<path fill="none" stroke="#63b8ff" d="M558.51,-492.6C536.39,-475.77 499.07,-449.59 463,-434.5 454.91,-431.11 446.07,-428.31 437.32,-426.01"/>
<polygon fill="#63b8ff" stroke="#63b8ff" points="556.43,-495.41 566.48,-498.76 560.71,-489.88 556.43,-495.41"/>
</g>
<!-- Node23 -->
<g id="node23" class="node">
<title>Node23</title>
<g id="a_node23"><a xlink:href="../../dd/ddf/FMC__errors_8h.html#a9f873f776ba4ffc6f5d01d87be2628c9" target="_top" xlink:title=" ">
<polygon fill="white" stroke="#666666" points="438,-389 327,-389 327,-370 438,-370 438,-389"/>
<text text-anchor="middle" x="382.5" y="-377" font-family="Helvetica,sans-Serif" font-size="10.00">FMC_printCyanText</text>
</a>
</g>
</g>
<!-- Node1&#45;&gt;Node23 -->
<g id="edge24" class="edge">
<title>Node1&#45;&gt;Node23</title>
<path fill="none" stroke="#63b8ff" d="M565.05,-490.46C545.45,-465.53 506.61,-420.99 463,-397.5 455.4,-393.41 446.91,-390.24 438.38,-387.8"/>
<polygon fill="#63b8ff" stroke="#63b8ff" points="562.5,-492.88 571.37,-498.68 568.05,-488.62 562.5,-492.88"/>
</g>
<!-- Node24 -->
<g id="node24" class="node">
<title>Node24</title>
<g id="a_node24"><a xlink:href="../../dd/ddf/FMC__errors_8h.html#a1b99d16ba51d2fb14721918b3b8d6fc3" target="_top" xlink:title=" ">
<polygon fill="white" stroke="#666666" points="442,-352 323,-352 323,-333 442,-333 442,-352"/>
<text text-anchor="middle" x="382.5" y="-340" font-family="Helvetica,sans-Serif" font-size="10.00">FMC_printGreenError</text>
</a>
</g>
</g>
<!-- Node1&#45;&gt;Node24 -->
<g id="edge25" class="edge">
<title>Node1&#45;&gt;Node24</title>
<path fill="none" stroke="#63b8ff" d="M569.25,-489.51C552.65,-457.54 514.65,-393.27 463,-360.5 456.67,-356.48 449.55,-353.36 442.24,-350.92"/>
<polygon fill="#63b8ff" stroke="#63b8ff" points="566.25,-491.32 573.88,-498.67 572.49,-488.17 566.25,-491.32"/>
</g>
<!-- Node25 -->
<g id="node25" class="node">
<title>Node25</title>
<g id="a_node25"><a xlink:href="../../dd/ddf/FMC__errors_8h.html#a69656dae06138d7ab414e60df63301bc" target="_top" xlink:title=" ">
<polygon fill="white" stroke="#666666" points="440.5,-315 324.5,-315 324.5,-296 440.5,-296 440.5,-315"/>
<text text-anchor="middle" x="382.5" y="-303" font-family="Helvetica,sans-Serif" font-size="10.00">FMC_printGreenText</text>
</a>
</g>
</g>
<!-- Node1&#45;&gt;Node25 -->
<g id="edge26" class="edge">
<title>Node1&#45;&gt;Node25</title>
<path fill="none" stroke="#63b8ff" d="M572.16,-489.14C558.62,-451.02 523.12,-366.21 463,-323.5 456.31,-318.75 448.57,-315.22 440.6,-312.62"/>
<polygon fill="#63b8ff" stroke="#63b8ff" points="568.98,-490.66 575.53,-498.98 575.6,-488.39 568.98,-490.66"/>
</g>
<!-- Node26 -->
<g id="node26" class="node">
<title>Node26</title>
<g id="a_node26"><a xlink:href="../../dd/ddf/FMC__errors_8h.html#a65517ff4ad1e4113facb636733f82058" target="_top" xlink:title=" ">
<polygon fill="white" stroke="#666666" points="448.5,-278 316.5,-278 316.5,-259 448.5,-259 448.5,-278"/>
<text text-anchor="middle" x="382.5" y="-266" font-family="Helvetica,sans-Serif" font-size="10.00">FMC_printMagentaError</text>
</a>
</g>
</g>
<!-- Node1&#45;&gt;Node26 -->
<g id="edge27" class="edge">
<title>Node1&#45;&gt;Node26</title>
<path fill="none" stroke="#63b8ff" d="M574.16,-488.65C563.48,-444.81 531.68,-339.46 463,-286.5 458.63,-283.13 453.75,-280.37 448.61,-278.11"/>
<polygon fill="#63b8ff" stroke="#63b8ff" points="570.8,-489.67 576.47,-498.62 577.62,-488.09 570.8,-489.67"/>
</g>
<!-- Node27 -->
<g id="node27" class="node">
<title>Node27</title>
<g id="a_node27"><a xlink:href="../../dd/ddf/FMC__errors_8h.html#aa8091231bdc72a725b68bb7e49dd543e" target="_top" xlink:title=" ">
<polygon fill="white" stroke="#666666" points="447,-241 318,-241 318,-222 447,-222 447,-241"/>
<text text-anchor="middle" x="382.5" y="-229" font-family="Helvetica,sans-Serif" font-size="10.00">FMC_printMagentaText</text>
</a>
</g>
</g>
<!-- Node1&#45;&gt;Node27 -->
<g id="edge28" class="edge">
<title>Node1&#45;&gt;Node27</title>
<path fill="none" stroke="#63b8ff" d="M575.77,-488.76C567.93,-440.01 540.7,-313.24 463,-249.5 458.3,-245.64 452.93,-242.57 447.25,-240.13"/>
<polygon fill="#63b8ff" stroke="#63b8ff" points="572.34,-489.54 577.29,-498.91 579.27,-488.5 572.34,-489.54"/>
</g>
<!-- Node28 -->
<g id="node28" class="node">
<title>Node28</title>
<g id="a_node28"><a xlink:href="../../dd/ddf/FMC__errors_8h.html#aae89617d40bfc3c1b7d5917e814852af" target="_top" xlink:title=" ">
<polygon fill="white" stroke="#666666" points="436.5,-204 328.5,-204 328.5,-185 436.5,-185 436.5,-204"/>
<text text-anchor="middle" x="382.5" y="-192" font-family="Helvetica,sans-Serif" font-size="10.00">FMC_printRedError</text>
</a>
</g>
</g>
<!-- Node1&#45;&gt;Node28 -->
<g id="edge29" class="edge">
<title>Node1&#45;&gt;Node28</title>
<path fill="none" stroke="#63b8ff" d="M576.96,-488.53C571.71,-434.96 549.66,-287.1 463,-212.5 455.49,-206.04 446.15,-201.76 436.53,-198.96"/>
<polygon fill="#63b8ff" stroke="#63b8ff" points="573.49,-489.08 577.86,-498.73 580.47,-488.46 573.49,-489.08"/>
</g>
<!-- Node29 -->
<g id="node29" class="node">
<title>Node29</title>
<g id="a_node29"><a xlink:href="../../dd/ddf/FMC__errors_8h.html#a11e06f8ed9dfb849013631d1ab786cd8" target="_top" xlink:title=" ">
<polygon fill="white" stroke="#666666" points="435,-167 330,-167 330,-148 435,-148 435,-167"/>
<text text-anchor="middle" x="382.5" y="-155" font-family="Helvetica,sans-Serif" font-size="10.00">FMC_printRedText</text>
</a>
</g>
</g>
<!-- Node1&#45;&gt;Node29 -->
<g id="edge30" class="edge">
<title>Node1&#45;&gt;Node29</title>
<path fill="none" stroke="#63b8ff" d="M577.93,-488.43C575.14,-430.42 558.79,-261.19 463,-175.5 455.2,-168.52 445.26,-164.07 435.08,-161.27"/>
<polygon fill="#63b8ff" stroke="#63b8ff" points="574.45,-488.92 578.33,-498.78 581.44,-488.65 574.45,-488.92"/>
</g>
<!-- Node30 -->
<g id="node30" class="node">
<title>Node30</title>
<g id="a_node30"><a xlink:href="../../dd/ddf/FMC__errors_8h.html#a9cfd067edb94dcc4184153a66cdef3e9" target="_top" xlink:title=" ">
<polygon fill="white" stroke="#666666" points="441.5,-130 323.5,-130 323.5,-111 441.5,-111 441.5,-130"/>
<text text-anchor="middle" x="382.5" y="-118" font-family="Helvetica,sans-Serif" font-size="10.00">FMC_printWhiteError</text>
</a>
</g>
</g>
<!-- Node1&#45;&gt;Node30 -->
<g id="edge31" class="edge">
<title>Node1&#45;&gt;Node30</title>
<path fill="none" stroke="#63b8ff" d="M578.73,-488.32C578.27,-426.07 567.98,-235.41 463,-138.5 456.97,-132.93 449.59,-128.96 441.78,-126.16"/>
<polygon fill="#63b8ff" stroke="#63b8ff" points="575.23,-488.69 578.72,-498.7 582.23,-488.7 575.23,-488.69"/>
</g>
<!-- Node31 -->
<g id="node31" class="node">
<title>Node31</title>
<g id="a_node31"><a xlink:href="../../dd/ddf/FMC__errors_8h.html#a0eff9a40de9ed2a73439191f4e3811ef" target="_top" xlink:title=" ">
<polygon fill="white" stroke="#666666" points="440,-93 325,-93 325,-74 440,-74 440,-93"/>
<text text-anchor="middle" x="382.5" y="-81" font-family="Helvetica,sans-Serif" font-size="10.00">FMC_printWhiteText</text>
</a>
</g>
</g>
<!-- Node1&#45;&gt;Node31 -->
<g id="edge32" class="edge">
<title>Node1&#45;&gt;Node31</title>
<path fill="none" stroke="#63b8ff" d="M575.59,-488.71C564.32,-414.86 521.33,-156.77 463,-101.5 456.63,-95.47 448.68,-91.3 440.3,-88.45"/>
<polygon fill="#63b8ff" stroke="#63b8ff" points="572.17,-489.55 577.12,-498.92 579.1,-488.51 572.17,-489.55"/>
</g>
<!-- Node32 -->
<g id="node32" class="node">
<title>Node32</title>
<g id="a_node32"><a xlink:href="../../dd/ddf/FMC__errors_8h.html#afcca9a137159a8e0bb5e1dec5c55b68d" target="_top" xlink:title=" ">
<polygon fill="white" stroke="#666666" points="442.5,-56 322.5,-56 322.5,-37 442.5,-37 442.5,-56"/>
<text text-anchor="middle" x="382.5" y="-44" font-family="Helvetica,sans-Serif" font-size="10.00">FMC_printYellowError</text>
</a>
</g>
</g>
<!-- Node1&#45;&gt;Node32 -->
<g id="edge33" class="edge">
<title>Node1&#45;&gt;Node32</title>
<path fill="none" stroke="#63b8ff" d="M576.05,-488.46C566.07,-410.06 525.99,-125.51 463,-64.5 457.31,-58.99 450.3,-55.02 442.83,-52.2"/>
<polygon fill="#63b8ff" stroke="#63b8ff" points="572.64,-489.35 577.35,-498.84 579.58,-488.48 572.64,-489.35"/>
</g>
<!-- Node33 -->
<g id="node33" class="node">
<title>Node33</title>
<g id="a_node33"><a xlink:href="../../dd/ddf/FMC__errors_8h.html#adcc6ed3e1ddeaecead050a95a18007b6" target="_top" xlink:title=" ">
<polygon fill="white" stroke="#666666" points="441,-19 324,-19 324,0 441,0 441,-19"/>
<text text-anchor="middle" x="382.5" y="-7" font-family="Helvetica,sans-Serif" font-size="10.00">FMC_printYellowText</text>
</a>
</g>
</g>
<!-- Node1&#45;&gt;Node33 -->
<g id="edge34" class="edge">
<title>Node1&#45;&gt;Node33</title>
<path fill="none" stroke="#63b8ff" d="M576.53,-488.91C567.9,-407.16 530.86,-94.48 463,-27.5 456.96,-21.54 449.38,-17.38 441.32,-14.51"/>
<polygon fill="#63b8ff" stroke="#63b8ff" points="573.04,-489.27 577.56,-498.86 580.01,-488.55 573.04,-489.27"/>
</g>
<!-- Node13 -->
<g id="node13" class="node">
<title>Node13</title>
<g id="a_node13"><a xlink:href="../../dc/d5e/FMC__paths_8c.html#a93ee980e87b59d6a3af6e5d4f1ec7ac0" target="_top" xlink:title=" ">
<polygon fill="white" stroke="#666666" points="256.5,-685 152.5,-685 152.5,-666 256.5,-666 256.5,-685"/>
<text text-anchor="middle" x="204.5" y="-673" font-family="Helvetica,sans-Serif" font-size="10.00">FMC_cutFilename</text>
</a>
</g>
</g>
<!-- Node12&#45;&gt;Node13 -->
<g id="edge12" class="edge">
<title>Node12&#45;&gt;Node13</title>
<path fill="none" stroke="#63b8ff" d="M326.07,-650.15C301.9,-655.23 273.9,-661.12 250.98,-665.94"/>
<polygon fill="#63b8ff" stroke="#63b8ff" points="327.11,-653.51 336.18,-648.03 325.67,-646.66 327.11,-653.51"/>
</g>
<!-- Node14 -->
<g id="node14" class="node">
<title>Node14</title>
<g id="a_node14"><a xlink:href="../../dc/d5e/FMC__paths_8c.html#a1fa62fd52b6e1fa12794f480d51ba683" target="_top" xlink:title="Gets the filename from a complete path.">
<polygon fill="white" stroke="#666666" points="266,-648 143,-648 143,-629 266,-629 266,-648"/>
<text text-anchor="middle" x="204.5" y="-636" font-family="Helvetica,sans-Serif" font-size="10.00">FMC_extractFilename</text>
</a>
</g>
</g>
<!-- Node12&#45;&gt;Node14 -->
<g id="edge13" class="edge">
<title>Node12&#45;&gt;Node14</title>
<path fill="none" stroke="#63b8ff" d="M303.92,-638.5C291.29,-638.5 278.38,-638.5 266.24,-638.5"/>
<polygon fill="#63b8ff" stroke="#63b8ff" points="303.96,-642 313.96,-638.5 303.96,-635 303.96,-642"/>
</g>
<!-- Node15 -->
<g id="node15" class="node">
<title>Node15</title>
<g id="a_node15"><a xlink:href="../../dc/d5e/FMC__paths_8c.html#ab8632eb234af95cea6075bc166278cff" target="_top" xlink:title=" ">
<polygon fill="white" stroke="#666666" points="107,-629 0,-629 0,-610 107,-610 107,-629"/>
<text text-anchor="middle" x="53.5" y="-617" font-family="Helvetica,sans-Serif" font-size="10.00">FMC_getExtension</text>
</a>
</g>
</g>
<!-- Node12&#45;&gt;Node15 -->
<g id="edge16" class="edge">
<title>Node12&#45;&gt;Node15</title>
<path fill="none" stroke="#63b8ff" d="M320.93,-627.31C303.28,-624.53 283.93,-621.93 266,-620.5 212.01,-616.19 150.02,-616.51 107.18,-617.56"/>
<polygon fill="#63b8ff" stroke="#63b8ff" points="320.66,-630.82 331.09,-628.97 321.79,-623.91 320.66,-630.82"/>
</g>
<!-- Node16 -->
<g id="node16" class="node">
<title>Node16</title>
<g id="a_node16"><a xlink:href="../../db/dc4/FMC__encodings_8c.html#ac43872885563da059b7870132977db9d" target="_top" xlink:title=" ">
<polygon fill="white" stroke="#666666" points="256.5,-536 152.5,-536 152.5,-517 256.5,-517 256.5,-536"/>
<text text-anchor="middle" x="204.5" y="-524" font-family="Helvetica,sans-Serif" font-size="10.00">FMC_getEncoding</text>
</a>
</g>
</g>
<!-- Node12&#45;&gt;Node16 -->
<g id="edge15" class="edge">
<title>Node12&#45;&gt;Node16</title>
<path fill="none" stroke="#63b8ff" d="M312.89,-625.58C309.12,-624.07 305.47,-622.38 302,-620.5 299.37,-619.07 239.07,-559.65 215.15,-536.04"/>
<polygon fill="#63b8ff" stroke="#63b8ff" points="311.82,-628.91 322.41,-628.98 314.17,-622.32 311.82,-628.91"/>
</g>
<!-- Node14&#45;&gt;Node15 -->
<g id="edge14" class="edge">
<title>Node14&#45;&gt;Node15</title>
<path fill="none" stroke="#63b8ff" d="M132.88,-629.5C124.31,-628.4 115.66,-627.3 107.4,-626.25"/>
<polygon fill="#63b8ff" stroke="#63b8ff" points="132.53,-632.98 142.9,-630.77 133.42,-626.04 132.53,-632.98"/>
</g>
<!-- Node20&#45;&gt;Node16 -->
<g id="edge21" class="edge">
<title>Node20&#45;&gt;Node16</title>
<path fill="none" stroke="#63b8ff" d="M324.95,-502.07C301.44,-506.88 274.47,-512.39 252.12,-516.97"/>
<polygon fill="#63b8ff" stroke="#63b8ff" points="325.7,-505.49 334.8,-500.05 324.3,-498.63 325.7,-505.49"/>
</g>
</g>
</svg>
        <g id="navigator" transform="translate(0 0)" fill="#404254">
                <rect fill="#f2f5e9" fill-opacity="0.5" stroke="#606060" stroke-width=".5" x="0" y="0" width="60" height="60"/>
                <use id="zoomplus" xlink:href="#zoomPlus" x="17" y="9" onmousedown="handleZoom(evt,'in')"/>
                <use id="zoomminus" xlink:href="#zoomMin" x="42" y="9" onmousedown="handleZoom(evt,'out')"/>
                <use id="reset" xlink:href="#resetDef" x="30" y="36" onmousedown="handleReset()"/>
                <g id="arrowUp" xlink:href="#dirArrow" transform="translate(30 24)" onmousedown="handlePan(0,-1)">
                  <use xlink:href="#rim" fill="#404040">
                        <set attributeName="fill" to="#808080" begin="arrowUp.mouseover" end="arrowUp.mouseout"/>
                  </use>
                  <path fill="none" stroke="white" stroke-width="1.5" d="M0,-3.0v7 M-2.5,-0.5L0,-3.0L2.5,-0.5"/>
                </g>
                <g id="arrowRight" xlink:href="#dirArrow" transform="rotate(90) translate(36 -43)" onmousedown="handlePan(1,0)">
                  <use xlink:href="#rim" fill="#404040">
                        <set attributeName="fill" to="#808080" begin="arrowRight.mouseover" end="arrowRight.mouseout"/>
                  </use>
                  <path fill="none" stroke="white" stroke-width="1.5" d="M0,-3.0v7 M-2.5,-0.5L0,-3.0L2.5,-0.5"/>
                </g>
                <g id="arrowDown" xlink:href="#dirArrow" transform="rotate(180) translate(-30 -48)" onmousedown="handlePan(0,1)">
                  <use xlink:href="#rim" fill="#404040">
                        <set attributeName="fill" to="#808080" begin="arrowDown.mouseover" end="arrowDown.mouseout"/>
                  </use>
                  <path fill="none" stroke="white" stroke-width="1.5" d="M0,-3.0v7 M-2.5,-0.5L0,-3.0L2.5,-0.5"/>
                </g>
                <g id="arrowLeft" xlink:href="#dirArrow" transform="rotate(270) translate(-36 17)" onmousedown="handlePan(-1,0)">
                  <use xlink:href="#rim" fill="#404040">
                        <set attributeName="fill" to="#808080" begin="arrowLeft.mouseover" end="arrowLeft.mouseout"/>
                  </use>
                  <path fill="none" stroke="white" stroke-width="1.5" d="M0,-3.0v7 M-2.5,-0.5L0,-3.0L2.5,-0.5"/>
                </g>
        </g>
        <svg viewBox="0 0 15 15" width="100%" height="30px" preserveAspectRatio="xMaxYMin meet">
         <g id="arrow_out" transform="scale(0.3 0.3)">
          <a xlink:href="FMC__errors_8c_a5dac1ddff314ba7b3bed3d87eb3f19f5_icgraph_org.svg" target="_base">
           <rect id="button" ry="5" rx="5" y="6" x="6" height="38" width="38"
                fill="#f2f5e9" fill-opacity="0.5" stroke="#606060" stroke-width="1.0"/>
           <path id="arrow"
             d="M 11.500037,31.436501 C 11.940474,20.09759 22.043105,11.32322 32.158766,21.979434 L 37.068811,17.246167 C 37.068811,17.246167 37.088388,32 37.088388,32 L 22.160133,31.978069 C 22.160133,31.978069 26.997745,27.140456 26.997745,27.140456 C 18.528582,18.264221 13.291696,25.230495 11.500037,31.436501 z"
             style="fill:#404040;"/>
          </a>
         </g>
        </svg>
</svg>
