<?xml version="1.0" encoding="UTF-8" standalone="no"?>
<!DOCTYPE svg PUBLIC "-//W3C//DTD SVG 1.1//EN"
 "http://www.w3.org/Graphics/SVG/1.1/DTD/svg11.dtd">
<!-- Generated by graphviz version 2.43.0 (0)
 -->
<!-- Title: FMC_printMagentaText Pages: 1 -->
<svg width="334pt" height="76pt"
 viewBox="0.00 0.00 334.00 75.50" xmlns="http://www.w3.org/2000/svg" xmlns:xlink="http://www.w3.org/1999/xlink">
<g id="graph0" class="graph" transform="scale(1 1) rotate(0) translate(4 71.5)">
<title>FMC_printMagentaText</title>
<!-- Node1 -->
<g id="node1" class="node">
<title>Node1</title>
<g id="a_node1"><a xlink:title=" ">
<polygon fill="#999999" stroke="#666666" points="129,-40 0,-40 0,-21 129,-21 129,-40"/>
<text text-anchor="middle" x="64.5" y="-28" font-family="Helvetica,sans-Serif" font-size="10.00">FMC_printMagentaText</text>
</a>
</g>
</g>
<!-- Node2 -->
<g id="node2" class="node">
<title>Node2</title>
<g id="a_node2"><a xlink:href="../../dd/ddf/FMC__errors_8h.html#a50963f96b1bba77a6fb32403123e59a6" target="_top" xlink:title=" ">
<polygon fill="white" stroke="#666666" points="325.5,-67.5 165.5,-67.5 165.5,-37.5 325.5,-37.5 325.5,-67.5"/>
<text text-anchor="start" x="173.5" y="-55.5" font-family="Helvetica,sans-Serif" font-size="10.00">FMC_changeStreamTextColor</text>
<text text-anchor="middle" x="245.5" y="-44.5" font-family="Helvetica,sans-Serif" font-size="10.00">ToMagenta</text>
</a>
</g>
</g>
<!-- Node1&#45;&gt;Node2 -->
<g id="edge1" class="edge">
<title>Node1&#45;&gt;Node2</title>
<path fill="none" stroke="#63b8ff" d="M129.11,-38.32C137.65,-39.37 146.54,-40.46 155.42,-41.55"/>
<polygon fill="#63b8ff" stroke="#63b8ff" points="155.08,-45.04 165.43,-42.78 155.93,-38.09 155.08,-45.04"/>
</g>
<!-- Node3 -->
<g id="node3" class="node">
<title>Node3</title>
<g id="a_node3"><a xlink:href="../../dd/ddf/FMC__errors_8h.html#af11b1f617ef7bc80184285957c3aeee0" target="_top" xlink:title=" ">
<polygon fill="white" stroke="#666666" points="326,-19 165,-19 165,0 326,0 326,-19"/>
<text text-anchor="middle" x="245.5" y="-7" font-family="Helvetica,sans-Serif" font-size="10.00">FMC_resetStreamOutputStyle</text>
</a>
</g>
</g>
<!-- Node1&#45;&gt;Node3 -->
<g id="edge2" class="edge">
<title>Node1&#45;&gt;Node3</title>
<path fill="none" stroke="#63b8ff" d="M129.11,-23.04C137.42,-22.06 146.05,-21.05 154.69,-20.04"/>
<polygon fill="#63b8ff" stroke="#63b8ff" points="155.28,-23.49 164.8,-18.85 154.47,-16.54 155.28,-23.49"/>
</g>
</g>
</svg>
