<?xml version="1.0" encoding="UTF-8" standalone="no"?>
<!DOCTYPE svg PUBLIC "-//W3C//DTD SVG 1.1//EN"
 "http://www.w3.org/Graphics/SVG/1.1/DTD/svg11.dtd">
<!-- Generated by graphviz version 2.43.0 (0)
 -->
<!-- Title: FMC_printBrightMagentaError Pages: 1 -->
<svg width="366pt" height="113pt"
 viewBox="0.00 0.00 366.00 112.50" xmlns="http://www.w3.org/2000/svg" xmlns:xlink="http://www.w3.org/1999/xlink">
<g id="graph0" class="graph" transform="scale(1 1) rotate(0) translate(4 108.5)">
<title>FMC_printBrightMagentaError</title>
<!-- Node1 -->
<g id="node1" class="node">
<title>Node1</title>
<g id="a_node1"><a xlink:title=" ">
<polygon fill="#999999" stroke="#666666" points="161,-56 0,-56 0,-37 161,-37 161,-56"/>
<text text-anchor="middle" x="80.5" y="-44" font-family="Helvetica,sans-Serif" font-size="10.00">FMC_printBrightMagentaError</text>
</a>
</g>
</g>
<!-- Node2 -->
<g id="node2" class="node">
<title>Node2</title>
<g id="a_node2"><a xlink:href="../../dd/ddf/FMC__errors_8h.html#a561fde32769e709def1868d5196e14be" target="_top" xlink:title=" ">
<polygon fill="white" stroke="#666666" points="357.5,-104.5 197.5,-104.5 197.5,-74.5 357.5,-74.5 357.5,-104.5"/>
<text text-anchor="start" x="205.5" y="-92.5" font-family="Helvetica,sans-Serif" font-size="10.00">FMC_changeStreamTextColor</text>
<text text-anchor="middle" x="277.5" y="-81.5" font-family="Helvetica,sans-Serif" font-size="10.00">ToBrightMagenta</text>
</a>
</g>
</g>
<!-- Node1&#45;&gt;Node2 -->
<g id="edge1" class="edge">
<title>Node1&#45;&gt;Node2</title>
<path fill="none" stroke="#63b8ff" d="M124.78,-56.04C146.47,-60.83 173.41,-66.77 198.55,-72.31"/>
<polygon fill="#63b8ff" stroke="#63b8ff" points="197.93,-75.76 208.45,-74.49 199.44,-68.92 197.93,-75.76"/>
</g>
<!-- Node3 -->
<g id="node3" class="node">
<title>Node3</title>
<g id="a_node3"><a xlink:href="../../dd/ddf/FMC__errors_8h.html#af11b1f617ef7bc80184285957c3aeee0" target="_top" xlink:title=" ">
<polygon fill="white" stroke="#666666" points="358,-56 197,-56 197,-37 358,-37 358,-56"/>
<text text-anchor="middle" x="277.5" y="-44" font-family="Helvetica,sans-Serif" font-size="10.00">FMC_resetStreamOutputStyle</text>
</a>
</g>
</g>
<!-- Node1&#45;&gt;Node3 -->
<g id="edge2" class="edge">
<title>Node1&#45;&gt;Node3</title>
<path fill="none" stroke="#63b8ff" d="M161.1,-46.5C169.57,-46.5 178.24,-46.5 186.82,-46.5"/>
<polygon fill="#63b8ff" stroke="#63b8ff" points="186.84,-50 196.84,-46.5 186.84,-43 186.84,-50"/>
</g>
<!-- Node4 -->
<g id="node4" class="node">
<title>Node4</title>
<g id="a_node4"><a xlink:href="../../dd/ddf/FMC__errors_8h.html#a33a1a2c6f6a143bc6a836ef37778a07f" target="_top" xlink:title=" ">
<polygon fill="white" stroke="#666666" points="345.5,-19 209.5,-19 209.5,0 345.5,0 345.5,-19"/>
<text text-anchor="middle" x="277.5" y="-7" font-family="Helvetica,sans-Serif" font-size="10.00">FMC_setTextStyleToBold</text>
</a>
</g>
</g>
<!-- Node1&#45;&gt;Node4 -->
<g id="edge3" class="edge">
<title>Node1&#45;&gt;Node4</title>
<path fill="none" stroke="#63b8ff" d="M131.72,-36.97C157.43,-32.09 188.94,-26.11 215.99,-20.98"/>
<polygon fill="#63b8ff" stroke="#63b8ff" points="216.94,-24.36 226.11,-19.06 215.64,-17.49 216.94,-24.36"/>
</g>
</g>
</svg>
