<?xml version="1.0" encoding="UTF-8" standalone="no"?>
<!DOCTYPE svg PUBLIC "-//W3C//DTD SVG 1.1//EN"
 "http://www.w3.org/Graphics/SVG/1.1/DTD/svg11.dtd">
<!-- Generated by graphviz version 2.43.0 (0)
 -->
<!-- Title: FMC_printBrightWhiteText Pages: 1 -->
<svg width="349pt" height="76pt"
 viewBox="0.00 0.00 349.00 75.50" xmlns="http://www.w3.org/2000/svg" xmlns:xlink="http://www.w3.org/1999/xlink">
<g id="graph0" class="graph" transform="scale(1 1) rotate(0) translate(4 71.5)">
<title>FMC_printBrightWhiteText</title>
<!-- Node1 -->
<g id="node1" class="node">
<title>Node1</title>
<g id="a_node1"><a xlink:title=" ">
<polygon fill="#999999" stroke="#666666" points="144,-40 0,-40 0,-21 144,-21 144,-40"/>
<text text-anchor="middle" x="72" y="-28" font-family="Helvetica,sans-Serif" font-size="10.00">FMC_printBrightWhiteText</text>
</a>
</g>
</g>
<!-- Node2 -->
<g id="node2" class="node">
<title>Node2</title>
<g id="a_node2"><a xlink:href="../../dd/ddf/FMC__errors_8h.html#a6c2631e8e0c68bd8d8c6952090d30083" target="_top" xlink:title=" ">
<polygon fill="white" stroke="#666666" points="340.5,-67.5 180.5,-67.5 180.5,-37.5 340.5,-37.5 340.5,-67.5"/>
<text text-anchor="start" x="188.5" y="-55.5" font-family="Helvetica,sans-Serif" font-size="10.00">FMC_changeStreamTextColor</text>
<text text-anchor="middle" x="260.5" y="-44.5" font-family="Helvetica,sans-Serif" font-size="10.00">ToBrightWhite</text>
</a>
</g>
</g>
<!-- Node1&#45;&gt;Node2 -->
<g id="edge1" class="edge">
<title>Node1&#45;&gt;Node2</title>
<path fill="none" stroke="#63b8ff" d="M144.04,-38.88C152.55,-39.88 161.32,-40.92 170.04,-41.95"/>
<polygon fill="#63b8ff" stroke="#63b8ff" points="169.91,-45.46 180.25,-43.15 170.73,-38.5 169.91,-45.46"/>
</g>
<!-- Node3 -->
<g id="node3" class="node">
<title>Node3</title>
<g id="a_node3"><a xlink:href="../../dd/ddf/FMC__errors_8h.html#af11b1f617ef7bc80184285957c3aeee0" target="_top" xlink:title=" ">
<polygon fill="white" stroke="#666666" points="341,-19 180,-19 180,0 341,0 341,-19"/>
<text text-anchor="middle" x="260.5" y="-7" font-family="Helvetica,sans-Serif" font-size="10.00">FMC_resetStreamOutputStyle</text>
</a>
</g>
</g>
<!-- Node1&#45;&gt;Node3 -->
<g id="edge2" class="edge">
<title>Node1&#45;&gt;Node3</title>
<path fill="none" stroke="#63b8ff" d="M144.04,-22.5C152.47,-21.55 161.17,-20.57 169.82,-19.6"/>
<polygon fill="#63b8ff" stroke="#63b8ff" points="170.39,-23.06 179.94,-18.46 169.61,-16.1 170.39,-23.06"/>
</g>
</g>
</svg>
