<?xml version="1.0" encoding="UTF-8" standalone="no"?>
<!DOCTYPE svg PUBLIC "-//W3C//DTD SVG 1.1//EN"
 "http://www.w3.org/Graphics/SVG/1.1/DTD/svg11.dtd">
<!-- Generated by graphviz version 2.43.0 (0)
 -->
<!-- Title: FMC_changeStreamTextColorToBrightRed Pages: 1 -->
<svg width="502pt" height="64pt"
 viewBox="0.00 0.00 502.00 64.00" xmlns="http://www.w3.org/2000/svg" xmlns:xlink="http://www.w3.org/1999/xlink">
<g id="graph0" class="graph" transform="scale(1 1) rotate(0) translate(4 60)">
<title>FMC_changeStreamTextColorToBrightRed</title>
<!-- Node1 -->
<g id="node1" class="node">
<title>Node1</title>
<g id="a_node1"><a xlink:title=" ">
<polygon fill="#999999" stroke="#666666" points="494,-42.5 334,-42.5 334,-12.5 494,-12.5 494,-42.5"/>
<text text-anchor="start" x="342" y="-30.5" font-family="Helvetica,sans-Serif" font-size="10.00">FMC_changeStreamTextColor</text>
<text text-anchor="middle" x="414" y="-19.5" font-family="Helvetica,sans-Serif" font-size="10.00">ToBrightRed</text>
</a>
</g>
</g>
<!-- Node2 -->
<g id="node2" class="node">
<title>Node2</title>
<g id="a_node2"><a xlink:href="../../dd/ddf/FMC__errors_8h.html#a6f3db48b5173e8c1c93b0080aa95fa61" target="_top" xlink:title=" ">
<polygon fill="white" stroke="#666666" points="298,-56 161,-56 161,-37 298,-37 298,-56"/>
<text text-anchor="middle" x="229.5" y="-44" font-family="Helvetica,sans-Serif" font-size="10.00">FMC_printBrightRedError</text>
</a>
</g>
</g>
<!-- Node1&#45;&gt;Node2 -->
<g id="edge1" class="edge">
<title>Node1&#45;&gt;Node2</title>
<path fill="none" stroke="#63b8ff" d="M323.72,-36.8C315.15,-37.69 306.56,-38.58 298.25,-39.45"/>
<polygon fill="#63b8ff" stroke="#63b8ff" points="324.17,-40.27 333.75,-35.75 323.44,-33.31 324.17,-40.27"/>
</g>
<!-- Node4 -->
<g id="node4" class="node">
<title>Node4</title>
<g id="a_node4"><a xlink:href="../../dd/ddf/FMC__errors_8h.html#a2487f7ddf1623b258ba8ee7f57a9e537" target="_top" xlink:title=" ">
<polygon fill="white" stroke="#666666" points="296.5,-19 162.5,-19 162.5,0 296.5,0 296.5,-19"/>
<text text-anchor="middle" x="229.5" y="-7" font-family="Helvetica,sans-Serif" font-size="10.00">FMC_printBrightRedText</text>
</a>
</g>
</g>
<!-- Node1&#45;&gt;Node4 -->
<g id="edge3" class="edge">
<title>Node1&#45;&gt;Node4</title>
<path fill="none" stroke="#63b8ff" d="M323.52,-18.67C314.44,-17.78 305.33,-16.88 296.56,-16.02"/>
<polygon fill="#63b8ff" stroke="#63b8ff" points="323.45,-22.18 333.75,-19.68 324.14,-15.22 323.45,-22.18"/>
</g>
<!-- Node3 -->
<g id="node3" class="node">
<title>Node3</title>
<g id="a_node3"><a xlink:href="../../db/dc4/FMC__encodings_8c.html#a4766bf9887ba1fc50aae7d71f16a0128" target="_top" xlink:title=" ">
<polygon fill="white" stroke="#666666" points="125,-56 0,-56 0,-37 125,-37 125,-56"/>
<text text-anchor="middle" x="62.5" y="-44" font-family="Helvetica,sans-Serif" font-size="10.00">FMC_FUNC_NONNULL</text>
</a>
</g>
</g>
<!-- Node2&#45;&gt;Node3 -->
<g id="edge2" class="edge">
<title>Node2&#45;&gt;Node3</title>
<path fill="none" stroke="#63b8ff" d="M150.85,-46.5C142.23,-46.5 133.53,-46.5 125.15,-46.5"/>
<polygon fill="#63b8ff" stroke="#63b8ff" points="150.91,-50 160.91,-46.5 150.91,-43 150.91,-50"/>
</g>
</g>
</svg>
