<?xml version="1.0" encoding="UTF-8" standalone="no"?>
<!DOCTYPE svg PUBLIC "-//W3C//DTD SVG 1.1//EN"
 "http://www.w3.org/Graphics/SVG/1.1/DTD/svg11.dtd">
<!-- Generated by graphviz version 2.43.0 (0)
 -->
<!-- Title: FMC_changeStreamTextColorToBrightCyan Pages: 1 -->
<svg width="347pt" height="64pt"
 viewBox="0.00 0.00 347.00 64.00" xmlns="http://www.w3.org/2000/svg" xmlns:xlink="http://www.w3.org/1999/xlink">
<g id="graph0" class="graph" transform="scale(1 1) rotate(0) translate(4 60)">
<title>FMC_changeStreamTextColorToBrightCyan</title>
<!-- Node1 -->
<g id="node1" class="node">
<title>Node1</title>
<g id="a_node1"><a xlink:title=" ">
<polygon fill="#999999" stroke="#666666" points="339,-42.5 179,-42.5 179,-12.5 339,-12.5 339,-42.5"/>
<text text-anchor="start" x="187" y="-30.5" font-family="Helvetica,sans-Serif" font-size="10.00">FMC_changeStreamTextColor</text>
<text text-anchor="middle" x="259" y="-19.5" font-family="Helvetica,sans-Serif" font-size="10.00">ToBrightCyan</text>
</a>
</g>
</g>
<!-- Node2 -->
<g id="node2" class="node">
<title>Node2</title>
<g id="a_node2"><a xlink:href="../../dd/ddf/FMC__errors_8h.html#af08f34aa818a9a290a6b5efc5949cc0a" target="_top" xlink:title=" ">
<polygon fill="white" stroke="#666666" points="143,-56 0,-56 0,-37 143,-37 143,-56"/>
<text text-anchor="middle" x="71.5" y="-44" font-family="Helvetica,sans-Serif" font-size="10.00">FMC_printBrightCyanError</text>
</a>
</g>
</g>
<!-- Node1&#45;&gt;Node2 -->
<g id="edge1" class="edge">
<title>Node1&#45;&gt;Node2</title>
<path fill="none" stroke="#63b8ff" d="M168.77,-36.64C160.2,-37.52 151.59,-38.4 143.23,-39.26"/>
<polygon fill="#63b8ff" stroke="#63b8ff" points="169.2,-40.11 178.79,-35.61 168.49,-33.15 169.2,-40.11"/>
</g>
<!-- Node3 -->
<g id="node3" class="node">
<title>Node3</title>
<g id="a_node3"><a xlink:href="../../dd/ddf/FMC__errors_8h.html#a1064b3b56fdee59b2e1fa27494204da0" target="_top" xlink:title=" ">
<polygon fill="white" stroke="#666666" points="141.5,-19 1.5,-19 1.5,0 141.5,0 141.5,-19"/>
<text text-anchor="middle" x="71.5" y="-7" font-family="Helvetica,sans-Serif" font-size="10.00">FMC_printBrightCyanText</text>
</a>
</g>
</g>
<!-- Node1&#45;&gt;Node3 -->
<g id="edge2" class="edge">
<title>Node1&#45;&gt;Node3</title>
<path fill="none" stroke="#63b8ff" d="M168.64,-18.83C159.62,-17.95 150.55,-17.07 141.78,-16.22"/>
<polygon fill="#63b8ff" stroke="#63b8ff" points="168.5,-22.33 178.79,-19.81 169.18,-15.36 168.5,-22.33"/>
</g>
</g>
</svg>
