<?xml version="1.0" encoding="UTF-8" standalone="no"?>
<!DOCTYPE svg PUBLIC "-//W3C//DTD SVG 1.1//EN"
 "http://www.w3.org/Graphics/SVG/1.1/DTD/svg11.dtd">
<!-- Generated by graphviz version 2.43.0 (0)
 -->
<!-- Title: FMC_printBrightYellowText Pages: 1 -->
<svg width="351pt" height="76pt"
 viewBox="0.00 0.00 351.00 75.50" xmlns="http://www.w3.org/2000/svg" xmlns:xlink="http://www.w3.org/1999/xlink">
<g id="graph0" class="graph" transform="scale(1 1) rotate(0) translate(4 71.5)">
<title>FMC_printBrightYellowText</title>
<!-- Node1 -->
<g id="node1" class="node">
<title>Node1</title>
<g id="a_node1"><a xlink:title=" ">
<polygon fill="#999999" stroke="#666666" points="146,-40 0,-40 0,-21 146,-21 146,-40"/>
<text text-anchor="middle" x="73" y="-28" font-family="Helvetica,sans-Serif" font-size="10.00">FMC_printBrightYellowText</text>
</a>
</g>
</g>
<!-- Node2 -->
<g id="node2" class="node">
<title>Node2</title>
<g id="a_node2"><a xlink:href="../../dd/ddf/FMC__errors_8h.html#ab3c0b7aa180c19747600cb8854bfa503" target="_top" xlink:title=" ">
<polygon fill="white" stroke="#666666" points="342.5,-67.5 182.5,-67.5 182.5,-37.5 342.5,-37.5 342.5,-67.5"/>
<text text-anchor="start" x="190.5" y="-55.5" font-family="Helvetica,sans-Serif" font-size="10.00">FMC_changeStreamTextColor</text>
<text text-anchor="middle" x="262.5" y="-44.5" font-family="Helvetica,sans-Serif" font-size="10.00">ToBrightYellow</text>
</a>
</g>
</g>
<!-- Node1&#45;&gt;Node2 -->
<g id="edge1" class="edge">
<title>Node1&#45;&gt;Node2</title>
<path fill="none" stroke="#63b8ff" d="M146.22,-38.97C154.75,-39.97 163.53,-41 172.26,-42.03"/>
<polygon fill="#63b8ff" stroke="#63b8ff" points="172.12,-45.54 182.46,-43.23 172.93,-38.58 172.12,-45.54"/>
</g>
<!-- Node3 -->
<g id="node3" class="node">
<title>Node3</title>
<g id="a_node3"><a xlink:href="../../dd/ddf/FMC__errors_8h.html#af11b1f617ef7bc80184285957c3aeee0" target="_top" xlink:title=" ">
<polygon fill="white" stroke="#666666" points="343,-19 182,-19 182,0 343,0 343,-19"/>
<text text-anchor="middle" x="262.5" y="-7" font-family="Helvetica,sans-Serif" font-size="10.00">FMC_resetStreamOutputStyle</text>
</a>
</g>
</g>
<!-- Node1&#45;&gt;Node3 -->
<g id="edge2" class="edge">
<title>Node1&#45;&gt;Node3</title>
<path fill="none" stroke="#63b8ff" d="M146.22,-22.41C154.6,-21.47 163.22,-20.51 171.8,-19.55"/>
<polygon fill="#63b8ff" stroke="#63b8ff" points="172.28,-23.01 181.83,-18.42 171.5,-16.06 172.28,-23.01"/>
</g>
</g>
</svg>
