<?xml version="1.0" encoding="UTF-8" standalone="no"?>
<!DOCTYPE svg PUBLIC "-//W3C//DTD SVG 1.1//EN"
 "http://www.w3.org/Graphics/SVG/1.1/DTD/svg11.dtd">
<!-- Generated by graphviz version 2.43.0 (0)
 -->
<!-- Title: FMC_printBrightGreenError Pages: 1 -->
<svg width="353pt" height="113pt"
 viewBox="0.00 0.00 353.00 112.50" xmlns="http://www.w3.org/2000/svg" xmlns:xlink="http://www.w3.org/1999/xlink">
<g id="graph0" class="graph" transform="scale(1 1) rotate(0) translate(4 108.5)">
<title>FMC_printBrightGreenError</title>
<!-- Node1 -->
<g id="node1" class="node">
<title>Node1</title>
<g id="a_node1"><a xlink:title=" ">
<polygon fill="#999999" stroke="#666666" points="148,-56 0,-56 0,-37 148,-37 148,-56"/>
<text text-anchor="middle" x="74" y="-44" font-family="Helvetica,sans-Serif" font-size="10.00">FMC_printBrightGreenError</text>
</a>
</g>
</g>
<!-- Node2 -->
<g id="node2" class="node">
<title>Node2</title>
<g id="a_node2"><a xlink:href="../../dd/ddf/FMC__errors_8h.html#a4b0daf08d8d76c820c64da0b37fbebb8" target="_top" xlink:title=" ">
<polygon fill="white" stroke="#666666" points="344.5,-104.5 184.5,-104.5 184.5,-74.5 344.5,-74.5 344.5,-104.5"/>
<text text-anchor="start" x="192.5" y="-92.5" font-family="Helvetica,sans-Serif" font-size="10.00">FMC_changeStreamTextColor</text>
<text text-anchor="middle" x="264.5" y="-81.5" font-family="Helvetica,sans-Serif" font-size="10.00">ToBrightGreen</text>
</a>
</g>
</g>
<!-- Node1&#45;&gt;Node2 -->
<g id="edge1" class="edge">
<title>Node1&#45;&gt;Node2</title>
<path fill="none" stroke="#63b8ff" d="M116.83,-56.04C137.71,-60.81 163.62,-66.72 187.83,-72.24"/>
<polygon fill="#63b8ff" stroke="#63b8ff" points="187.19,-75.68 197.72,-74.49 188.75,-68.86 187.19,-75.68"/>
</g>
<!-- Node3 -->
<g id="node3" class="node">
<title>Node3</title>
<g id="a_node3"><a xlink:href="../../dd/ddf/FMC__errors_8h.html#af11b1f617ef7bc80184285957c3aeee0" target="_top" xlink:title=" ">
<polygon fill="white" stroke="#666666" points="345,-56 184,-56 184,-37 345,-37 345,-56"/>
<text text-anchor="middle" x="264.5" y="-44" font-family="Helvetica,sans-Serif" font-size="10.00">FMC_resetStreamOutputStyle</text>
</a>
</g>
</g>
<!-- Node1&#45;&gt;Node3 -->
<g id="edge2" class="edge">
<title>Node1&#45;&gt;Node3</title>
<path fill="none" stroke="#63b8ff" d="M148.15,-46.5C156.55,-46.5 165.2,-46.5 173.79,-46.5"/>
<polygon fill="#63b8ff" stroke="#63b8ff" points="173.83,-50 183.83,-46.5 173.83,-43 173.83,-50"/>
</g>
<!-- Node4 -->
<g id="node4" class="node">
<title>Node4</title>
<g id="a_node4"><a xlink:href="../../dd/ddf/FMC__errors_8h.html#a33a1a2c6f6a143bc6a836ef37778a07f" target="_top" xlink:title=" ">
<polygon fill="white" stroke="#666666" points="332.5,-19 196.5,-19 196.5,0 332.5,0 332.5,-19"/>
<text text-anchor="middle" x="264.5" y="-7" font-family="Helvetica,sans-Serif" font-size="10.00">FMC_setTextStyleToBold</text>
</a>
</g>
</g>
<!-- Node1&#45;&gt;Node4 -->
<g id="edge3" class="edge">
<title>Node1&#45;&gt;Node4</title>
<path fill="none" stroke="#63b8ff" d="M123.54,-36.97C148.29,-32.11 178.59,-26.17 204.66,-21.05"/>
<polygon fill="#63b8ff" stroke="#63b8ff" points="205.66,-24.42 214.79,-19.06 204.31,-17.55 205.66,-24.42"/>
</g>
</g>
</svg>
