<?xml version="1.0" encoding="UTF-8" standalone="no"?>
<!DOCTYPE svg PUBLIC "-//W3C//DTD SVG 1.1//EN"
 "http://www.w3.org/Graphics/SVG/1.1/DTD/svg11.dtd">
<!-- Generated by graphviz version 2.43.0 (0)
 -->
<!-- Title: FMC_printBrightWhiteError Pages: 1 -->
<svg width="352pt" height="113pt"
 viewBox="0.00 0.00 352.00 112.50" xmlns="http://www.w3.org/2000/svg" xmlns:xlink="http://www.w3.org/1999/xlink">
<g id="graph0" class="graph" transform="scale(1 1) rotate(0) translate(4 108.5)">
<title>FMC_printBrightWhiteError</title>
<!-- Node1 -->
<g id="node1" class="node">
<title>Node1</title>
<g id="a_node1"><a xlink:title=" ">
<polygon fill="#999999" stroke="#666666" points="147,-56 0,-56 0,-37 147,-37 147,-56"/>
<text text-anchor="middle" x="73.5" y="-44" font-family="Helvetica,sans-Serif" font-size="10.00">FMC_printBrightWhiteError</text>
</a>
</g>
</g>
<!-- Node2 -->
<g id="node2" class="node">
<title>Node2</title>
<g id="a_node2"><a xlink:href="../../dd/ddf/FMC__errors_8h.html#a6c2631e8e0c68bd8d8c6952090d30083" target="_top" xlink:title=" ">
<polygon fill="white" stroke="#666666" points="343.5,-104.5 183.5,-104.5 183.5,-74.5 343.5,-74.5 343.5,-104.5"/>
<text text-anchor="start" x="191.5" y="-92.5" font-family="Helvetica,sans-Serif" font-size="10.00">FMC_changeStreamTextColor</text>
<text text-anchor="middle" x="263.5" y="-81.5" font-family="Helvetica,sans-Serif" font-size="10.00">ToBrightWhite</text>
</a>
</g>
</g>
<!-- Node1&#45;&gt;Node2 -->
<g id="edge1" class="edge">
<title>Node1&#45;&gt;Node2</title>
<path fill="none" stroke="#63b8ff" d="M116.22,-56.04C137.05,-60.81 162.88,-66.72 187.03,-72.24"/>
<polygon fill="#63b8ff" stroke="#63b8ff" points="186.36,-75.68 196.89,-74.49 187.92,-68.85 186.36,-75.68"/>
</g>
<!-- Node3 -->
<g id="node3" class="node">
<title>Node3</title>
<g id="a_node3"><a xlink:href="../../dd/ddf/FMC__errors_8h.html#af11b1f617ef7bc80184285957c3aeee0" target="_top" xlink:title=" ">
<polygon fill="white" stroke="#666666" points="344,-56 183,-56 183,-37 344,-37 344,-56"/>
<text text-anchor="middle" x="263.5" y="-44" font-family="Helvetica,sans-Serif" font-size="10.00">FMC_resetStreamOutputStyle</text>
</a>
</g>
</g>
<!-- Node1&#45;&gt;Node3 -->
<g id="edge2" class="edge">
<title>Node1&#45;&gt;Node3</title>
<path fill="none" stroke="#63b8ff" d="M147.19,-46.5C155.58,-46.5 164.21,-46.5 172.79,-46.5"/>
<polygon fill="#63b8ff" stroke="#63b8ff" points="172.83,-50 182.83,-46.5 172.83,-43 172.83,-50"/>
</g>
<!-- Node4 -->
<g id="node4" class="node">
<title>Node4</title>
<g id="a_node4"><a xlink:href="../../dd/ddf/FMC__errors_8h.html#a33a1a2c6f6a143bc6a836ef37778a07f" target="_top" xlink:title=" ">
<polygon fill="white" stroke="#666666" points="331.5,-19 195.5,-19 195.5,0 331.5,0 331.5,-19"/>
<text text-anchor="middle" x="263.5" y="-7" font-family="Helvetica,sans-Serif" font-size="10.00">FMC_setTextStyleToBold</text>
</a>
</g>
</g>
<!-- Node1&#45;&gt;Node4 -->
<g id="edge3" class="edge">
<title>Node1&#45;&gt;Node4</title>
<path fill="none" stroke="#63b8ff" d="M122.91,-36.97C147.6,-32.11 177.82,-26.17 203.81,-21.05"/>
<polygon fill="#63b8ff" stroke="#63b8ff" points="204.79,-24.43 213.92,-19.06 203.44,-17.56 204.79,-24.43"/>
</g>
</g>
</svg>
