<?xml version="1.0" encoding="UTF-8" standalone="no"?>
<!DOCTYPE svg PUBLIC "-//W3C//DTD SVG 1.1//EN"
 "http://www.w3.org/Graphics/SVG/1.1/DTD/svg11.dtd">
<!-- Generated by graphviz version 2.43.0 (0)
 -->
<!-- Title: FMC_changeStreamTextColorToBrightMagenta Pages: 1 -->
<svg width="365pt" height="64pt"
 viewBox="0.00 0.00 365.00 64.00" xmlns="http://www.w3.org/2000/svg" xmlns:xlink="http://www.w3.org/1999/xlink">
<g id="graph0" class="graph" transform="scale(1 1) rotate(0) translate(4 60)">
<title>FMC_changeStreamTextColorToBrightMagenta</title>
<!-- Node1 -->
<g id="node1" class="node">
<title>Node1</title>
<g id="a_node1"><a xlink:title=" ">
<polygon fill="#999999" stroke="#666666" points="357,-42.5 197,-42.5 197,-12.5 357,-12.5 357,-42.5"/>
<text text-anchor="start" x="205" y="-30.5" font-family="Helvetica,sans-Serif" font-size="10.00">FMC_changeStreamTextColor</text>
<text text-anchor="middle" x="277" y="-19.5" font-family="Helvetica,sans-Serif" font-size="10.00">ToBrightMagenta</text>
</a>
</g>
</g>
<!-- Node2 -->
<g id="node2" class="node">
<title>Node2</title>
<g id="a_node2"><a xlink:href="../../dd/ddf/FMC__errors_8h.html#a1b30b2b2018dfbc2870f4073e0250f87" target="_top" xlink:title=" ">
<polygon fill="white" stroke="#666666" points="161,-56 0,-56 0,-37 161,-37 161,-56"/>
<text text-anchor="middle" x="80.5" y="-44" font-family="Helvetica,sans-Serif" font-size="10.00">FMC_printBrightMagentaError</text>
</a>
</g>
</g>
<!-- Node1&#45;&gt;Node2 -->
<g id="edge1" class="edge">
<title>Node1&#45;&gt;Node2</title>
<path fill="none" stroke="#63b8ff" d="M186.88,-36.21C178.31,-37.04 169.65,-37.89 161.17,-38.72"/>
<polygon fill="#63b8ff" stroke="#63b8ff" points="187.28,-39.68 196.89,-35.23 186.6,-32.72 187.28,-39.68"/>
</g>
<!-- Node3 -->
<g id="node3" class="node">
<title>Node3</title>
<g id="a_node3"><a xlink:href="../../dd/ddf/FMC__errors_8h.html#afe16aa39ab2efc5c95ed7a8628800133" target="_top" xlink:title=" ">
<polygon fill="white" stroke="#666666" points="159.5,-19 1.5,-19 1.5,0 159.5,0 159.5,-19"/>
<text text-anchor="middle" x="80.5" y="-7" font-family="Helvetica,sans-Serif" font-size="10.00">FMC_printBrightMagentaText</text>
</a>
</g>
</g>
<!-- Node1&#45;&gt;Node3 -->
<g id="edge2" class="edge">
<title>Node1&#45;&gt;Node3</title>
<path fill="none" stroke="#63b8ff" d="M186.72,-19.24C177.67,-18.4 168.52,-17.55 159.59,-16.73"/>
<polygon fill="#63b8ff" stroke="#63b8ff" points="186.61,-22.74 196.89,-20.18 187.25,-15.77 186.61,-22.74"/>
</g>
</g>
</svg>
