<?xml version="1.0" encoding="UTF-8" standalone="no"?>
<!DOCTYPE svg PUBLIC "-//W3C//DTD SVG 1.1//EN"
 "http://www.w3.org/Graphics/SVG/1.1/DTD/svg11.dtd">
<!-- Generated by graphviz version 2.43.0 (0)
 -->
<!-- Title: src/general/utils/FMC_deprecated.h Pages: 1 -->
<svg width="196pt" height="214pt"
 viewBox="0.00 0.00 195.50 214.00" xmlns="http://www.w3.org/2000/svg" xmlns:xlink="http://www.w3.org/1999/xlink">
<g id="graph0" class="graph" transform="scale(1 1) rotate(0) translate(4 210)">
<title>src/general/utils/FMC_deprecated.h</title>
<!-- Node1 -->
<g id="node1" class="node">
<title>Node1</title>
<g id="a_node1"><a xlink:title=" ">
<polygon fill="#999999" stroke="#666666" points="167,-206 48,-206 48,-176 167,-176 167,-206"/>
<text text-anchor="start" x="56" y="-194" font-family="Helvetica,sans-Serif" font-size="10.00">src/general/utils/FMC</text>
<text text-anchor="middle" x="107.5" y="-183" font-family="Helvetica,sans-Serif" font-size="10.00">_deprecated.h</text>
</a>
</g>
</g>
<!-- Node2 -->
<g id="node2" class="node">
<title>Node2</title>
<g id="a_node2"><a xlink:href="../../d1/d2e/FMC__attributes_8h.html" target="_top" xlink:title=" ">
<polygon fill="white" stroke="#666666" points="113,-140 0,-140 0,-110 113,-110 113,-140"/>
<text text-anchor="start" x="8" y="-128" font-family="Helvetica,sans-Serif" font-size="10.00">../preprocessor/FMC</text>
<text text-anchor="middle" x="56.5" y="-117" font-family="Helvetica,sans-Serif" font-size="10.00">_attributes.h</text>
</a>
</g>
</g>
<!-- Node1&#45;&gt;Node2 -->
<g id="edge1" class="edge">
<title>Node1&#45;&gt;Node2</title>
<path fill="none" stroke="#63b8ff" d="M96.18,-175.8C89.71,-167.68 81.45,-157.31 74.15,-148.15"/>
<polygon fill="#63b8ff" stroke="#63b8ff" points="76.76,-145.8 67.79,-140.16 71.28,-150.17 76.76,-145.8"/>
</g>
<!-- Node5 -->
<g id="node5" class="node">
<title>Node5</title>
<g id="a_node5"><a xlink:title=" ">
<polygon fill="#e0e0e0" stroke="#999999" points="187.5,-134.5 131.5,-134.5 131.5,-115.5 187.5,-115.5 187.5,-134.5"/>
<text text-anchor="middle" x="159.5" y="-122.5" font-family="Helvetica,sans-Serif" font-size="10.00">stddef.h</text>
</a>
</g>
</g>
<!-- Node1&#45;&gt;Node5 -->
<g id="edge5" class="edge">
<title>Node1&#45;&gt;Node5</title>
<path fill="none" stroke="#63b8ff" d="M119.04,-175.8C126.99,-166.01 137.58,-152.98 145.93,-142.7"/>
<polygon fill="#63b8ff" stroke="#63b8ff" points="148.72,-144.81 152.31,-134.84 143.29,-140.4 148.72,-144.81"/>
</g>
<!-- Node3 -->
<g id="node3" class="node">
<title>Node3</title>
<g id="a_node3"><a xlink:href="../../d0/d28/FMC__macros_8h.html" target="_top" xlink:title=" ">
<polygon fill="white" stroke="#666666" points="101,-74 12,-74 12,-55 101,-55 101,-74"/>
<text text-anchor="middle" x="56.5" y="-62" font-family="Helvetica,sans-Serif" font-size="10.00">FMC_macros.h</text>
</a>
</g>
</g>
<!-- Node2&#45;&gt;Node3 -->
<g id="edge2" class="edge">
<title>Node2&#45;&gt;Node3</title>
<path fill="none" stroke="#63b8ff" d="M50.62,-109.84C49.65,-102.21 49.49,-92.7 50.14,-84.45"/>
<polygon fill="#63b8ff" stroke="#63b8ff" points="53.64,-84.65 51.52,-74.27 46.71,-83.71 53.64,-84.65"/>
</g>
<!-- Node3&#45;&gt;Node2 -->
<g id="edge4" class="edge">
<title>Node3&#45;&gt;Node2</title>
<path fill="none" stroke="#63b8ff" d="M61.48,-74.27C62.92,-81.03 63.48,-90.72 63.16,-99.75"/>
<polygon fill="#63b8ff" stroke="#63b8ff" points="59.66,-99.6 62.38,-109.84 66.64,-100.14 59.66,-99.6"/>
</g>
<!-- Node4 -->
<g id="node4" class="node">
<title>Node4</title>
<g id="a_node4"><a xlink:href="../../d7/dff/FMC__platform_8h.html" target="_top" xlink:title=" ">
<polygon fill="white" stroke="#666666" points="104,-19 9,-19 9,0 104,0 104,-19"/>
<text text-anchor="middle" x="56.5" y="-7" font-family="Helvetica,sans-Serif" font-size="10.00">FMC_platform.h</text>
</a>
</g>
</g>
<!-- Node3&#45;&gt;Node4 -->
<g id="edge3" class="edge">
<title>Node3&#45;&gt;Node4</title>
<path fill="none" stroke="#63b8ff" d="M56.5,-54.75C56.5,-47.8 56.5,-37.85 56.5,-29.13"/>
<polygon fill="#63b8ff" stroke="#63b8ff" points="60,-29.09 56.5,-19.09 53,-29.09 60,-29.09"/>
</g>
</g>
</svg>
