<?xml version="1.0" encoding="UTF-8" standalone="no"?>
<!DOCTYPE svg PUBLIC "-//W3C//DTD SVG 1.1//EN"
 "http://www.w3.org/Graphics/SVG/1.1/DTD/svg11.dtd">
<!-- Generated by graphviz version 2.43.0 (0)
 -->
<!-- Title: src/general/utils/FMC_deprecated.h Pages: 1 -->
<svg width="241pt" height="214pt"
 viewBox="0.00 0.00 240.50 214.00" xmlns="http://www.w3.org/2000/svg" xmlns:xlink="http://www.w3.org/1999/xlink">
<g id="graph0" class="graph" transform="scale(1 1) rotate(0) translate(4 210)">
<title>src/general/utils/FMC_deprecated.h</title>
<!-- Node1 -->
<g id="node1" class="node">
<title>Node1</title>
<g id="a_node1"><a xlink:title=" ">
<polygon fill="#999999" stroke="#666666" points="212,-206 93,-206 93,-176 212,-176 212,-206"/>
<text text-anchor="start" x="101" y="-194" font-family="Helvetica,sans-Serif" font-size="10.00">src/general/utils/FMC</text>
<text text-anchor="middle" x="152.5" y="-183" font-family="Helvetica,sans-Serif" font-size="10.00">_deprecated.h</text>
</a>
</g>
</g>
<!-- Node2 -->
<g id="node2" class="node">
<title>Node2</title>
<g id="a_node2"><a xlink:href="../../d1/d2e/FMC__attributes_8h.html" target="_top" xlink:title=" ">
<polygon fill="white" stroke="#666666" points="158,-140 45,-140 45,-110 158,-110 158,-140"/>
<text text-anchor="start" x="53" y="-128" font-family="Helvetica,sans-Serif" font-size="10.00">../preprocessor/FMC</text>
<text text-anchor="middle" x="101.5" y="-117" font-family="Helvetica,sans-Serif" font-size="10.00">_attributes.h</text>
</a>
</g>
</g>
<!-- Node1&#45;&gt;Node2 -->
<g id="edge1" class="edge">
<title>Node1&#45;&gt;Node2</title>
<path fill="none" stroke="#63b8ff" d="M141.18,-175.8C134.71,-167.68 126.45,-157.31 119.15,-148.15"/>
<polygon fill="#63b8ff" stroke="#63b8ff" points="121.76,-145.8 112.79,-140.16 116.28,-150.17 121.76,-145.8"/>
</g>
<!-- Node6 -->
<g id="node6" class="node">
<title>Node6</title>
<g id="a_node6"><a xlink:title=" ">
<polygon fill="#e0e0e0" stroke="#999999" points="232.5,-134.5 176.5,-134.5 176.5,-115.5 232.5,-115.5 232.5,-134.5"/>
<text text-anchor="middle" x="204.5" y="-122.5" font-family="Helvetica,sans-Serif" font-size="10.00">stddef.h</text>
</a>
</g>
</g>
<!-- Node1&#45;&gt;Node6 -->
<g id="edge6" class="edge">
<title>Node1&#45;&gt;Node6</title>
<path fill="none" stroke="#63b8ff" d="M164.04,-175.8C171.99,-166.01 182.58,-152.98 190.93,-142.7"/>
<polygon fill="#63b8ff" stroke="#63b8ff" points="193.72,-144.81 197.31,-134.84 188.29,-140.4 193.72,-144.81"/>
</g>
<!-- Node3 -->
<g id="node3" class="node">
<title>Node3</title>
<g id="a_node3"><a xlink:href="../../d0/d28/FMC__macros_8h.html" target="_top" xlink:title=" ">
<polygon fill="white" stroke="#666666" points="146,-74 57,-74 57,-55 146,-55 146,-74"/>
<text text-anchor="middle" x="101.5" y="-62" font-family="Helvetica,sans-Serif" font-size="10.00">FMC_macros.h</text>
</a>
</g>
</g>
<!-- Node2&#45;&gt;Node3 -->
<g id="edge2" class="edge">
<title>Node2&#45;&gt;Node3</title>
<path fill="none" stroke="#63b8ff" d="M95.62,-109.84C94.65,-102.21 94.49,-92.7 95.14,-84.45"/>
<polygon fill="#63b8ff" stroke="#63b8ff" points="98.64,-84.65 96.52,-74.27 91.71,-83.71 98.64,-84.65"/>
</g>
<!-- Node3&#45;&gt;Node2 -->
<g id="edge5" class="edge">
<title>Node3&#45;&gt;Node2</title>
<path fill="none" stroke="#63b8ff" d="M106.48,-74.27C107.92,-81.03 108.48,-90.72 108.16,-99.75"/>
<polygon fill="#63b8ff" stroke="#63b8ff" points="104.66,-99.6 107.38,-109.84 111.64,-100.14 104.66,-99.6"/>
</g>
<!-- Node4 -->
<g id="node4" class="node">
<title>Node4</title>
<g id="a_node4"><a xlink:href="../../d7/dff/FMC__platform_8h.html" target="_top" xlink:title=" ">
<polygon fill="white" stroke="#666666" points="95,-19 0,-19 0,0 95,0 95,-19"/>
<text text-anchor="middle" x="47.5" y="-7" font-family="Helvetica,sans-Serif" font-size="10.00">FMC_platform.h</text>
</a>
</g>
</g>
<!-- Node3&#45;&gt;Node4 -->
<g id="edge3" class="edge">
<title>Node3&#45;&gt;Node4</title>
<path fill="none" stroke="#63b8ff" d="M92.58,-54.75C84.72,-47.03 73.07,-35.6 63.58,-26.28"/>
<polygon fill="#63b8ff" stroke="#63b8ff" points="65.84,-23.6 56.25,-19.09 60.94,-28.59 65.84,-23.6"/>
</g>
<!-- Node5 -->
<g id="node5" class="node">
<title>Node5</title>
<g id="a_node5"><a xlink:title=" ">
<polygon fill="#e0e0e0" stroke="#999999" points="197.5,-19 113.5,-19 113.5,0 197.5,0 197.5,-19"/>
<text text-anchor="middle" x="155.5" y="-7" font-family="Helvetica,sans-Serif" font-size="10.00">metalang99.h</text>
</a>
</g>
</g>
<!-- Node3&#45;&gt;Node5 -->
<g id="edge4" class="edge">
<title>Node3&#45;&gt;Node5</title>
<path fill="none" stroke="#63b8ff" d="M110.42,-54.75C118.28,-47.03 129.93,-35.6 139.42,-26.28"/>
<polygon fill="#63b8ff" stroke="#63b8ff" points="142.06,-28.59 146.75,-19.09 137.16,-23.6 142.06,-28.59"/>
</g>
</g>
</svg>
