<?xml version="1.0" encoding="UTF-8" standalone="no"?>
<!DOCTYPE svg PUBLIC "-//W3C//DTD SVG 1.1//EN"
 "http://www.w3.org/Graphics/SVG/1.1/DTD/svg11.dtd">
<!-- Generated by graphviz version 7.1.0 (20230121.1956)
 -->
<!-- Title: FManC_Char Pages: 1 -->
<svg width="320pt" height="225pt"
 viewBox="0.00 0.00 319.50 225.00" xmlns="http://www.w3.org/2000/svg" xmlns:xlink="http://www.w3.org/1999/xlink">
<g id="graph0" class="graph" transform="scale(1 1) rotate(0) translate(4 221)">
<title>FManC_Char</title>
<!-- Node1 -->
<g id="node1" class="node">
<title>Node1</title>
<g id="a_node1"><a xlink:title=" ">
<polygon fill="#999999" stroke="#666666" points="237,-30 160,-30 160,0 237,0 237,-30"/>
<text text-anchor="middle" x="198.5" y="-18" font-family="Helvetica,sans-Serif" font-size="10.00">{FManC_Char</text>
<text text-anchor="middle" x="198.5" y="-7" font-family="Helvetica,sans-Serif" font-size="10.00">||}</text>
</a>
</g>
</g>
<!-- Node2 -->
<g id="node2" class="node">
<title>Node2</title>
<g id="a_node2"><a xlink:title=" ">
<polygon fill="white" stroke="#666666" points="129,-107 0,-107 0,-77 129,-77 129,-107"/>
<text text-anchor="middle" x="64.5" y="-95" font-family="Helvetica,sans-Serif" font-size="10.00">{enum FManC_Encodings</text>
<text text-anchor="middle" x="64.5" y="-84" font-family="Helvetica,sans-Serif" font-size="10.00">||}</text>
</a>
</g>
</g>
<!-- Node2&#45;&gt;Node1 -->
<g id="edge1" class="edge">
<title>Node2&#45;&gt;Node1</title>
<path fill="none" stroke="#404040" d="M90.34,-76.54C110.54,-65.23 138.9,-49.36 161.52,-36.7"/>
<polygon fill="none" stroke="#404040" points="161.48,-36.72 164.77,-30.3 171.96,-30.86 168.67,-37.28 161.48,-36.72"/>
<text text-anchor="middle" x="165" y="-51" font-family="Helvetica,sans-Serif" font-size="10.00"> +encoding</text>
</g>
<!-- Node3 -->
<g id="node3" class="node">
<title>Node3</title>
<g id="a_node3"><a xlink:href="../../d5/d7a/_f_m_c__structs_8h.html#dc/daa/struct_f_man_c___char_comp" target="_top" xlink:title=" ">
<polygon fill="white" stroke="#666666" points="249.5,-107 147.5,-107 147.5,-77 249.5,-77 249.5,-107"/>
<text text-anchor="middle" x="198.5" y="-95" font-family="Helvetica,sans-Serif" font-size="10.00">{FManC_CharComp</text>
<text text-anchor="middle" x="198.5" y="-84" font-family="Helvetica,sans-Serif" font-size="10.00">||}</text>
</a>
</g>
</g>
<!-- Node3&#45;&gt;Node1 -->
<g id="edge2" class="edge">
<title>Node3&#45;&gt;Node1</title>
<path fill="none" stroke="#404040" d="M198.5,-76.54C198.5,-67.1 198.5,-54.47 198.5,-43.2"/>
<polygon fill="none" stroke="#404040" points="198.5,-43.32 194.5,-37.32 198.5,-31.32 202.5,-37.32 198.5,-43.32"/>
<text text-anchor="middle" x="215.5" y="-51" font-family="Helvetica,sans-Serif" font-size="10.00"> +comp</text>
</g>
<!-- Node4 -->
<g id="node4" class="node">
<title>Node4</title>
<g id="a_node4"><a xlink:title=" ">
<polygon fill="white" stroke="#666666" points="234.5,-217 162.5,-217 162.5,-187 234.5,-187 234.5,-217"/>
<text text-anchor="middle" x="198.5" y="-205" font-family="Helvetica,sans-Serif" font-size="10.00">{unsigned int</text>
<text text-anchor="middle" x="198.5" y="-194" font-family="Helvetica,sans-Serif" font-size="10.00">||}</text>
</a>
</g>
</g>
<!-- Node4&#45;&gt;Node3 -->
<g id="edge3" class="edge">
<title>Node4&#45;&gt;Node3</title>
<path fill="none" stroke="#404040" d="M198.5,-186.88C198.5,-170.08 198.5,-141.63 198.5,-120.44"/>
<polygon fill="none" stroke="#404040" points="198.5,-120.37 194.5,-114.37 198.5,-108.37 202.5,-114.37 198.5,-120.37"/>
<text text-anchor="middle" x="227.5" y="-161" font-family="Helvetica,sans-Serif" font-size="10.00"> +middleLeft</text>
<text text-anchor="middle" x="227.5" y="-150" font-family="Helvetica,sans-Serif" font-size="10.00">+middleRight</text>
<text text-anchor="middle" x="227.5" y="-139" font-family="Helvetica,sans-Serif" font-size="10.00">+mostLeft</text>
<text text-anchor="middle" x="227.5" y="-128" font-family="Helvetica,sans-Serif" font-size="10.00">+mostRight</text>
</g>
<!-- Node5 -->
<g id="node5" class="node">
<title>Node5</title>
<g id="a_node5"><a xlink:title=" ">
<polygon fill="white" stroke="#666666" points="311.5,-107 267.5,-107 267.5,-77 311.5,-77 311.5,-107"/>
<text text-anchor="middle" x="289.5" y="-95" font-family="Helvetica,sans-Serif" font-size="10.00">{_Bool</text>
<text text-anchor="middle" x="289.5" y="-84" font-family="Helvetica,sans-Serif" font-size="10.00">||}</text>
</a>
</g>
</g>
<!-- Node5&#45;&gt;Node1 -->
<g id="edge4" class="edge">
<title>Node5&#45;&gt;Node1</title>
<path fill="none" stroke="#404040" d="M271.95,-76.54C258.86,-65.75 240.73,-50.8 225.75,-38.46"/>
<polygon fill="none" stroke="#404040" points="225.95,-38.62 218.77,-37.89 216.69,-30.99 223.86,-31.72 225.95,-38.62"/>
<text text-anchor="middle" x="265.5" y="-51" font-family="Helvetica,sans-Serif" font-size="10.00"> +isNull</text>
</g>
</g>
</svg>
