<?xml version="1.0" encoding="UTF-8" standalone="no"?>
<!DOCTYPE svg PUBLIC "-//W3C//DTD SVG 1.1//EN"
 "http://www.w3.org/Graphics/SVG/1.1/DTD/svg11.dtd">
<!-- Generated by graphviz version 7.1.0 (20230121.1956)
 -->
<!-- Title: src/general/preprocessor/FMC_macros.h Pages: 1 -->
<svg width="880pt" height="412pt"
 viewBox="0.00 0.00 880.00 412.00" xmlns="http://www.w3.org/2000/svg" xmlns:xlink="http://www.w3.org/1999/xlink">
<g id="graph0" class="graph" transform="scale(1 1) rotate(0) translate(4 408)">
<title>src/general/preprocessor/FMC_macros.h</title>
<!-- Node1 -->
<g id="node1" class="node">
<title>Node1</title>
<g id="a_node1"><a xlink:title=" ">
<polygon fill="#999999" stroke="#666666" points="503,-404 379,-404 379,-374 503,-374 503,-404"/>
<text text-anchor="start" x="387" y="-392" font-family="Helvetica,sans-Serif" font-size="10.00">src/general/preprocessor</text>
<text text-anchor="middle" x="441" y="-381" font-family="Helvetica,sans-Serif" font-size="10.00">/FMC_macros.h</text>
</a>
</g>
</g>
<!-- Node2 -->
<g id="node2" class="node">
<title>Node2</title>
<g id="a_node2"><a xlink:href="../../de/d04/_f_m_c__wrapper_8h.html" target="_top" xlink:title=" ">
<polygon fill="white" stroke="#666666" points="142,-332.5 22,-332.5 22,-313.5 142,-313.5 142,-332.5"/>
<text text-anchor="middle" x="82" y="-320.5" font-family="Helvetica,sans-Serif" font-size="10.00">src/cpp/FMC_wrapper.h</text>
</a>
</g>
</g>
<!-- Node1&#45;&gt;Node2 -->
<g id="edge1" class="edge">
<title>Node1&#45;&gt;Node2</title>
<path fill="none" stroke="#63b8ff" d="M367.51,-375.38C309.93,-365.43 227.81,-351.09 156,-338 147.25,-336.41 137.93,-334.67 128.96,-332.98"/>
<polygon fill="#63b8ff" stroke="#63b8ff" points="366.75,-378.8 377.2,-377.06 367.94,-371.91 366.75,-378.8"/>
</g>
<!-- Node5 -->
<g id="node5" class="node">
<title>Node5</title>
<g id="a_node5"><a xlink:href="../../d2/db5/_f_m_c__general_8h.html" target="_top" xlink:title=" ">
<polygon fill="white" stroke="#666666" points="453,-206 319,-206 319,-187 453,-187 453,-206"/>
<text text-anchor="middle" x="386" y="-194" font-family="Helvetica,sans-Serif" font-size="10.00">src/general/FMC_general.h</text>
</a>
</g>
</g>
<!-- Node1&#45;&gt;Node5 -->
<g id="edge4" class="edge">
<title>Node1&#45;&gt;Node5</title>
<path fill="none" stroke="#63b8ff" d="M367.55,-383.53C301.42,-377.8 211.27,-365.13 189,-338 176.57,-322.86 179.23,-260.99 196,-242 212.25,-223.59 271.05,-211.76 318.98,-204.96"/>
<polygon fill="#63b8ff" stroke="#63b8ff" points="367.01,-387 377.27,-384.34 367.59,-380.03 367.01,-387"/>
</g>
<!-- Node15 -->
<g id="node15" class="node">
<title>Node15</title>
<g id="a_node15"><a xlink:href="../../d4/d62/_f_m_c__attributes_8h.html" target="_top" xlink:title=" ">
<polygon fill="white" stroke="#666666" points="322,-338 198,-338 198,-308 322,-308 322,-338"/>
<text text-anchor="start" x="206" y="-326" font-family="Helvetica,sans-Serif" font-size="10.00">src/general/preprocessor</text>
<text text-anchor="middle" x="260" y="-315" font-family="Helvetica,sans-Serif" font-size="10.00">/FMC_attributes.h</text>
</a>
</g>
</g>
<!-- Node1&#45;&gt;Node15 -->
<g id="edge19" class="edge">
<title>Node1&#45;&gt;Node15</title>
<path fill="none" stroke="#63b8ff" d="M383.77,-369.94C354.65,-359.97 320.24,-347.75 295.05,-338.43"/>
<polygon fill="#63b8ff" stroke="#63b8ff" points="382.61,-373.24 393.21,-373.15 384.87,-366.61 382.61,-373.24"/>
</g>
<!-- Node17 -->
<g id="node17" class="node">
<title>Node17</title>
<g id="a_node17"><a xlink:href="../../d9/dab/_f_m_c__enums_8h.html" target="_top" xlink:title=" ">
<polygon fill="white" stroke="#666666" points="456,-338 340,-338 340,-308 456,-308 456,-338"/>
<text text-anchor="start" x="348" y="-326" font-family="Helvetica,sans-Serif" font-size="10.00">src/general/types/FMC</text>
<text text-anchor="middle" x="398" y="-315" font-family="Helvetica,sans-Serif" font-size="10.00">_enums.h</text>
</a>
</g>
</g>
<!-- Node1&#45;&gt;Node17 -->
<g id="edge23" class="edge">
<title>Node1&#45;&gt;Node17</title>
<path fill="none" stroke="#63b8ff" d="M425.14,-364.39C419.22,-355.59 412.69,-345.86 407.52,-338.16"/>
<polygon fill="#63b8ff" stroke="#63b8ff" points="422.13,-366.19 430.61,-372.54 427.94,-362.29 422.13,-366.19"/>
</g>
<!-- Node18 -->
<g id="node18" class="node">
<title>Node18</title>
<g id="a_node18"><a xlink:href="../../d5/d7a/_f_m_c__structs_8h.html" target="_top" xlink:title=" ">
<polygon fill="white" stroke="#666666" points="487,-272 371,-272 371,-242 487,-242 487,-272"/>
<text text-anchor="start" x="379" y="-260" font-family="Helvetica,sans-Serif" font-size="10.00">src/general/types/FMC</text>
<text text-anchor="middle" x="429" y="-249" font-family="Helvetica,sans-Serif" font-size="10.00">_structs.h</text>
</a>
</g>
</g>
<!-- Node1&#45;&gt;Node18 -->
<g id="edge27" class="edge">
<title>Node1&#45;&gt;Node18</title>
<path fill="none" stroke="#63b8ff" d="M456.07,-363.72C464.02,-347.82 471,-326.61 465,-308 460.67,-294.56 451.23,-281.69 443.11,-272.37"/>
<polygon fill="#63b8ff" stroke="#63b8ff" points="453.02,-362 451.28,-372.46 459.15,-365.37 453.02,-362"/>
</g>
<!-- Node19 -->
<g id="node19" class="node">
<title>Node19</title>
<g id="a_node19"><a xlink:href="../../df/dc3/_f_m_c__typedefs_8h.html" target="_top" xlink:title=" ">
<polygon fill="white" stroke="#666666" points="628,-338 512,-338 512,-308 628,-308 628,-338"/>
<text text-anchor="start" x="520" y="-326" font-family="Helvetica,sans-Serif" font-size="10.00">src/general/types/FMC</text>
<text text-anchor="middle" x="570" y="-315" font-family="Helvetica,sans-Serif" font-size="10.00">_typedefs.h</text>
</a>
</g>
</g>
<!-- Node1&#45;&gt;Node19 -->
<g id="edge28" class="edge">
<title>Node1&#45;&gt;Node19</title>
<path fill="none" stroke="#63b8ff" d="M480.13,-368.59C499.77,-358.84 523.16,-347.24 541.15,-338.31"/>
<polygon fill="#63b8ff" stroke="#63b8ff" points="478.71,-365.38 471.31,-372.96 481.82,-371.66 478.71,-365.38"/>
</g>
<!-- Node20 -->
<g id="node20" class="node">
<title>Node20</title>
<g id="a_node20"><a xlink:href="../../de/d83/_f_m_c__globals_8h.html" target="_top" xlink:title=" ">
<polygon fill="white" stroke="#666666" points="653,-272 543,-272 543,-242 653,-242 653,-272"/>
<text text-anchor="start" x="551" y="-260" font-family="Helvetica,sans-Serif" font-size="10.00">src/general/utils/FMC</text>
<text text-anchor="middle" x="598" y="-249" font-family="Helvetica,sans-Serif" font-size="10.00">_globals.h</text>
</a>
</g>
</g>
<!-- Node1&#45;&gt;Node20 -->
<g id="edge37" class="edge">
<title>Node1&#45;&gt;Node20</title>
<path fill="none" stroke="#63b8ff" d="M514.67,-378.67C563.69,-370.78 621.78,-357.59 637,-338 653.02,-317.38 630.89,-289.12 614,-272.29"/>
<polygon fill="#63b8ff" stroke="#63b8ff" points="514.24,-375.2 504.9,-380.19 515.32,-382.11 514.24,-375.2"/>
</g>
<!-- Node21 -->
<g id="node21" class="node">
<title>Node21</title>
<g id="a_node21"><a xlink:href="../../d3/d3a/_f_m_c__errors_8c.html" target="_top" xlink:title=" ">
<polygon fill="white" stroke="#666666" points="781,-272 671,-272 671,-242 781,-242 781,-272"/>
<text text-anchor="start" x="679" y="-260" font-family="Helvetica,sans-Serif" font-size="10.00">src/general/utils/FMC</text>
<text text-anchor="middle" x="726" y="-249" font-family="Helvetica,sans-Serif" font-size="10.00">_errors.c</text>
</a>
</g>
</g>
<!-- Node1&#45;&gt;Node21 -->
<g id="edge33" class="edge">
<title>Node1&#45;&gt;Node21</title>
<path fill="none" stroke="#63b8ff" d="M514.68,-381.78C557.71,-375.54 611.69,-363.04 654,-338 681.98,-321.44 705.19,-290.44 717.18,-272.27"/>
<polygon fill="#63b8ff" stroke="#63b8ff" points="514.36,-378.29 504.93,-383.1 515.31,-385.23 514.36,-378.29"/>
</g>
<!-- Node22 -->
<g id="node22" class="node">
<title>Node22</title>
<g id="a_node22"><a xlink:href="../../dc/de1/_f_m_c__errors_8h.html" target="_top" xlink:title=" ">
<polygon fill="white" stroke="#666666" points="832,-338 722,-338 722,-308 832,-308 832,-338"/>
<text text-anchor="start" x="730" y="-326" font-family="Helvetica,sans-Serif" font-size="10.00">src/general/utils/FMC</text>
<text text-anchor="middle" x="777" y="-315" font-family="Helvetica,sans-Serif" font-size="10.00">_errors.h</text>
</a>
</g>
</g>
<!-- Node1&#45;&gt;Node22 -->
<g id="edge34" class="edge">
<title>Node1&#45;&gt;Node22</title>
<path fill="none" stroke="#63b8ff" d="M514.49,-374.55C568.15,-364.65 642.64,-350.75 708,-338 712.44,-337.13 717.04,-336.23 721.65,-335.31"/>
<polygon fill="#63b8ff" stroke="#63b8ff" points="514.05,-371.07 504.85,-376.32 515.32,-377.95 514.05,-371.07"/>
</g>
<!-- Node3 -->
<g id="node3" class="node">
<title>Node3</title>
<g id="a_node3"><a xlink:href="../../d9/d0f/_f_m_c_8h.html" target="_top" xlink:title=" ">
<polygon fill="white" stroke="#666666" points="170,-19 108,-19 108,0 170,0 170,-19"/>
<text text-anchor="middle" x="139" y="-7" font-family="Helvetica,sans-Serif" font-size="10.00">src/FMC.h</text>
</a>
</g>
</g>
<!-- Node2&#45;&gt;Node3 -->
<g id="edge2" class="edge">
<title>Node2&#45;&gt;Node3</title>
<path fill="none" stroke="#63b8ff" d="M56.13,-307.15C43.18,-298.47 28.32,-286.38 19,-272 0.42,-243.32 0,-231.67 0,-197.5 0,-197.5 0,-197.5 0,-135 0,-74.26 74.57,-35.71 114.47,-19.42"/>
<polygon fill="#63b8ff" stroke="#63b8ff" points="53.93,-309.9 64.26,-312.3 57.68,-303.99 53.93,-309.9"/>
</g>
<!-- Node4 -->
<g id="node4" class="node">
<title>Node4</title>
<g id="a_node4"><a xlink:href="../../d8/ddf/_f_m_c__dir__wrapper_8cpp.html" target="_top" xlink:title=" ">
<polygon fill="white" stroke="#666666" points="141.5,-272 28.5,-272 28.5,-242 141.5,-242 141.5,-272"/>
<text text-anchor="start" x="36.5" y="-260" font-family="Helvetica,sans-Serif" font-size="10.00">src/cpp/FMC_dir/FMC</text>
<text text-anchor="middle" x="85" y="-249" font-family="Helvetica,sans-Serif" font-size="10.00">_dir_wrapper.cpp</text>
</a>
</g>
</g>
<!-- Node2&#45;&gt;Node4 -->
<g id="edge3" class="edge">
<title>Node2&#45;&gt;Node4</title>
<path fill="none" stroke="#63b8ff" d="M82.95,-301.78C83.4,-292.17 83.93,-280.92 84.33,-272.23"/>
<polygon fill="#63b8ff" stroke="#63b8ff" points="79.46,-301.44 82.49,-311.59 86.45,-301.76 79.46,-301.44"/>
</g>
<!-- Node5&#45;&gt;Node3 -->
<g id="edge5" class="edge">
<title>Node5&#45;&gt;Node3</title>
<path fill="none" stroke="#63b8ff" d="M307.07,-191.55C244.44,-186.59 164.03,-175.52 143,-151 109.95,-112.48 127.97,-43.8 135.88,-19.4"/>
<polygon fill="#63b8ff" stroke="#63b8ff" points="306.8,-195.04 317.03,-192.29 307.32,-188.06 306.8,-195.04"/>
</g>
<!-- Node6 -->
<g id="node6" class="node">
<title>Node6</title>
<g id="a_node6"><a xlink:href="../../d7/de5/_f_m_c__code__utils_8h.html" target="_top" xlink:title=" ">
<polygon fill="white" stroke="#666666" points="253.5,-151 152.5,-151 152.5,-121 253.5,-121 253.5,-151"/>
<text text-anchor="start" x="160.5" y="-139" font-family="Helvetica,sans-Serif" font-size="10.00">src/code_utils/FMC</text>
<text text-anchor="middle" x="203" y="-128" font-family="Helvetica,sans-Serif" font-size="10.00">_code_utils.h</text>
</a>
</g>
</g>
<!-- Node5&#45;&gt;Node6 -->
<g id="edge6" class="edge">
<title>Node5&#45;&gt;Node6</title>
<path fill="none" stroke="#63b8ff" d="M347.28,-183.12C318.3,-173.86 278.6,-161.17 248.17,-151.44"/>
<polygon fill="#63b8ff" stroke="#63b8ff" points="346.17,-186.44 356.76,-186.15 348.31,-179.78 346.17,-186.44"/>
</g>
<!-- Node7 -->
<g id="node7" class="node">
<title>Node7</title>
<g id="a_node7"><a xlink:href="../../d9/d1f/_f_m_c__encodings_8h.html" target="_top" xlink:title=" ">
<polygon fill="white" stroke="#666666" points="417,-151 279,-151 279,-121 417,-121 417,-151"/>
<text text-anchor="start" x="287" y="-139" font-family="Helvetica,sans-Serif" font-size="10.00">src/data_analyze/encodings</text>
<text text-anchor="middle" x="348" y="-128" font-family="Helvetica,sans-Serif" font-size="10.00">/FMC_encodings.h</text>
</a>
</g>
</g>
<!-- Node5&#45;&gt;Node7 -->
<g id="edge8" class="edge">
<title>Node5&#45;&gt;Node7</title>
<path fill="none" stroke="#63b8ff" d="M374.12,-177.22C368.65,-168.79 362.26,-158.95 357.17,-151.11"/>
<polygon fill="#63b8ff" stroke="#63b8ff" points="371.19,-179.12 379.57,-185.6 377.06,-175.31 371.19,-179.12"/>
</g>
<!-- Node10 -->
<g id="node10" class="node">
<title>Node10</title>
<g id="a_node10"><a xlink:href="../../d2/d1d/_f_m_c__strings_8h.html" target="_top" xlink:title=" ">
<polygon fill="white" stroke="#666666" points="558.5,-151 435.5,-151 435.5,-121 558.5,-121 558.5,-151"/>
<text text-anchor="start" x="443.5" y="-139" font-family="Helvetica,sans-Serif" font-size="10.00">src/data_analyze/strings</text>
<text text-anchor="middle" x="497" y="-128" font-family="Helvetica,sans-Serif" font-size="10.00">/FMC_strings.h</text>
</a>
</g>
</g>
<!-- Node5&#45;&gt;Node10 -->
<g id="edge12" class="edge">
<title>Node5&#45;&gt;Node10</title>
<path fill="none" stroke="#63b8ff" d="M412.82,-181.36C430.02,-172.3 452.29,-160.56 469.6,-151.44"/>
<polygon fill="#63b8ff" stroke="#63b8ff" points="411.41,-178.15 404.2,-185.91 414.68,-184.34 411.41,-178.15"/>
</g>
<!-- Node12 -->
<g id="node12" class="node">
<title>Node12</title>
<g id="a_node12"><a xlink:href="../../d8/d29/_f_m_c__file__management_8h.html" target="_top" xlink:title=" ">
<polygon fill="white" stroke="#666666" points="673,-151 581,-151 581,-121 673,-121 673,-151"/>
<text text-anchor="start" x="589" y="-139" font-family="Helvetica,sans-Serif" font-size="10.00">src/files/FMC_file</text>
<text text-anchor="middle" x="627" y="-128" font-family="Helvetica,sans-Serif" font-size="10.00">_management.h</text>
</a>
</g>
</g>
<!-- Node5&#45;&gt;Node12 -->
<g id="edge15" class="edge">
<title>Node5&#45;&gt;Node12</title>
<path fill="none" stroke="#63b8ff" d="M433.8,-183.9C476.43,-173.55 538.45,-158.49 580.64,-148.25"/>
<polygon fill="#63b8ff" stroke="#63b8ff" points="433.23,-180.43 424.34,-186.19 434.88,-187.24 433.23,-180.43"/>
</g>
<!-- Node6&#45;&gt;Node3 -->
<g id="edge7" class="edge">
<title>Node6&#45;&gt;Node3</title>
<path fill="none" stroke="#63b8ff" d="M178.66,-112.64C171.09,-104.57 163.34,-94.98 158,-85 146.29,-63.11 141.57,-33.7 139.86,-19.25"/>
<polygon fill="#63b8ff" stroke="#63b8ff" points="176.09,-115.02 185.61,-119.66 181.06,-110.09 176.09,-115.02"/>
</g>
<!-- Node8 -->
<g id="node8" class="node">
<title>Node8</title>
<g id="a_node8"><a xlink:href="../../d7/d3a/_f_m_c__data__analyze_8h.html" target="_top" xlink:title=" ">
<polygon fill="white" stroke="#666666" points="438.5,-85 323.5,-85 323.5,-55 438.5,-55 438.5,-85"/>
<text text-anchor="start" x="331.5" y="-73" font-family="Helvetica,sans-Serif" font-size="10.00">src/data_analyze/FMC</text>
<text text-anchor="middle" x="381" y="-62" font-family="Helvetica,sans-Serif" font-size="10.00">_data_analyze.h</text>
</a>
</g>
</g>
<!-- Node7&#45;&gt;Node8 -->
<g id="edge9" class="edge">
<title>Node7&#45;&gt;Node8</title>
<path fill="none" stroke="#63b8ff" d="M360.47,-110.83C364.93,-102.17 369.81,-92.7 373.7,-85.16"/>
<polygon fill="#63b8ff" stroke="#63b8ff" points="357.49,-108.96 356.02,-119.45 363.71,-112.17 357.49,-108.96"/>
</g>
<!-- Node9 -->
<g id="node9" class="node">
<title>Node9</title>
<g id="a_node9"><a xlink:href="../../da/da9/_f_m_c__encodings_8c.html" target="_top" xlink:title=" ">
<polygon fill="white" stroke="#666666" points="305,-85 167,-85 167,-55 305,-55 305,-85"/>
<text text-anchor="start" x="175" y="-73" font-family="Helvetica,sans-Serif" font-size="10.00">src/data_analyze/encodings</text>
<text text-anchor="middle" x="236" y="-62" font-family="Helvetica,sans-Serif" font-size="10.00">/FMC_encodings.c</text>
</a>
</g>
</g>
<!-- Node7&#45;&gt;Node9 -->
<g id="edge11" class="edge">
<title>Node7&#45;&gt;Node9</title>
<path fill="none" stroke="#63b8ff" d="M313.32,-115.18C296.41,-105.52 276.45,-94.12 261.05,-85.31"/>
<polygon fill="#63b8ff" stroke="#63b8ff" points="311.13,-117.96 321.55,-119.89 314.6,-111.89 311.13,-117.96"/>
</g>
<!-- Node8&#45;&gt;Node3 -->
<g id="edge10" class="edge">
<title>Node8&#45;&gt;Node3</title>
<path fill="none" stroke="#63b8ff" d="M312.07,-52.34C265.39,-41.05 205.92,-26.68 170.24,-18.05"/>
<polygon fill="#63b8ff" stroke="#63b8ff" points="311.02,-55.68 321.56,-54.63 312.67,-48.88 311.02,-55.68"/>
</g>
<!-- Node10&#45;&gt;Node8 -->
<g id="edge13" class="edge">
<title>Node10&#45;&gt;Node8</title>
<path fill="none" stroke="#63b8ff" d="M461.08,-115.18C443.57,-105.52 422.9,-94.12 406.95,-85.31"/>
<polygon fill="#63b8ff" stroke="#63b8ff" points="459.2,-118.14 469.64,-119.91 462.58,-112.01 459.2,-118.14"/>
</g>
<!-- Node11 -->
<g id="node11" class="node">
<title>Node11</title>
<g id="a_node11"><a xlink:href="../../d5/dd0/_f_m_c__chars_8c.html" target="_top" xlink:title=" ">
<polygon fill="white" stroke="#666666" points="579.5,-85 456.5,-85 456.5,-55 579.5,-55 579.5,-85"/>
<text text-anchor="start" x="464.5" y="-73" font-family="Helvetica,sans-Serif" font-size="10.00">src/data_analyze/strings</text>
<text text-anchor="middle" x="518" y="-62" font-family="Helvetica,sans-Serif" font-size="10.00">/FMC_chars.c</text>
</a>
</g>
</g>
<!-- Node10&#45;&gt;Node11 -->
<g id="edge14" class="edge">
<title>Node10&#45;&gt;Node11</title>
<path fill="none" stroke="#63b8ff" d="M505.21,-109.97C507.98,-101.55 510.96,-92.45 513.35,-85.16"/>
<polygon fill="#63b8ff" stroke="#63b8ff" points="501.92,-108.77 502.13,-119.36 508.58,-110.95 501.92,-108.77"/>
</g>
<!-- Node12&#45;&gt;Node3 -->
<g id="edge16" class="edge">
<title>Node12&#45;&gt;Node3</title>
<path fill="none" stroke="#63b8ff" d="M621.57,-109.59C616.26,-91.29 606.21,-67.67 588,-55 553.8,-31.2 266.34,-16.22 170.19,-11.84"/>
<polygon fill="#63b8ff" stroke="#63b8ff" points="618.17,-110.4 624.05,-119.21 624.95,-108.66 618.17,-110.4"/>
</g>
<!-- Node13 -->
<g id="node13" class="node">
<title>Node13</title>
<g id="a_node13"><a xlink:href="../../d6/dc6/_f_m_c__files_8c.html" target="_top" xlink:title=" ">
<polygon fill="white" stroke="#666666" points="741.5,-79.5 636.5,-79.5 636.5,-60.5 741.5,-60.5 741.5,-79.5"/>
<text text-anchor="middle" x="689" y="-67.5" font-family="Helvetica,sans-Serif" font-size="10.00">src/files/FMC_files.c</text>
</a>
</g>
</g>
<!-- Node12&#45;&gt;Node13 -->
<g id="edge17" class="edge">
<title>Node12&#45;&gt;Node13</title>
<path fill="none" stroke="#63b8ff" d="M648.69,-112.61C659.62,-101.32 672.26,-88.28 680.43,-79.84"/>
<polygon fill="#63b8ff" stroke="#63b8ff" points="646.26,-110.09 641.81,-119.71 651.28,-114.96 646.26,-110.09"/>
</g>
<!-- Node14 -->
<g id="node14" class="node">
<title>Node14</title>
<g id="a_node14"><a xlink:href="../../da/d92/_f_m_c__paths_8c.html" target="_top" xlink:title=" ">
<polygon fill="white" stroke="#666666" points="872,-79.5 760,-79.5 760,-60.5 872,-60.5 872,-79.5"/>
<text text-anchor="middle" x="816" y="-67.5" font-family="Helvetica,sans-Serif" font-size="10.00">src/files/FMC_paths.c</text>
</a>
</g>
</g>
<!-- Node12&#45;&gt;Node14 -->
<g id="edge18" class="edge">
<title>Node12&#45;&gt;Node14</title>
<path fill="none" stroke="#63b8ff" d="M680.14,-117.01C715.79,-104.93 761.22,-89.55 789.46,-79.99"/>
<polygon fill="#63b8ff" stroke="#63b8ff" points="679.2,-113.63 670.85,-120.15 681.44,-120.26 679.2,-113.63"/>
</g>
<!-- Node15&#45;&gt;Node1 -->
<g id="edge20" class="edge">
<title>Node15&#45;&gt;Node1</title>
<path fill="none" stroke="#63b8ff" d="M317.43,-342.13C346.57,-352.11 380.97,-364.32 406.12,-373.64"/>
<polygon fill="#63b8ff" stroke="#63b8ff" points="318.57,-338.82 307.98,-338.91 316.32,-345.45 318.57,-338.82"/>
</g>
<!-- Node16 -->
<g id="node16" class="node">
<title>Node16</title>
<g id="a_node16"><a xlink:href="../../d8/d32/_f_m_c__deprecated_8h.html" target="_top" xlink:title=" ">
<polygon fill="white" stroke="#666666" points="315,-272 205,-272 205,-242 315,-242 315,-272"/>
<text text-anchor="start" x="213" y="-260" font-family="Helvetica,sans-Serif" font-size="10.00">src/general/utils/FMC</text>
<text text-anchor="middle" x="260" y="-249" font-family="Helvetica,sans-Serif" font-size="10.00">_deprecated.h</text>
</a>
</g>
</g>
<!-- Node15&#45;&gt;Node16 -->
<g id="edge21" class="edge">
<title>Node15&#45;&gt;Node16</title>
<path fill="none" stroke="#63b8ff" d="M260,-296.39C260,-288.13 260,-279.28 260,-272.16"/>
<polygon fill="#63b8ff" stroke="#63b8ff" points="256.5,-296.28 260,-306.28 263.5,-296.28 256.5,-296.28"/>
</g>
<!-- Node16&#45;&gt;Node5 -->
<g id="edge22" class="edge">
<title>Node16&#45;&gt;Node5</title>
<path fill="none" stroke="#63b8ff" d="M301.3,-236.83C323.42,-226.55 349.61,-214.4 366.95,-206.35"/>
<polygon fill="#63b8ff" stroke="#63b8ff" points="300.12,-233.52 292.52,-240.9 303.06,-239.87 300.12,-233.52"/>
</g>
<!-- Node17&#45;&gt;Node5 -->
<g id="edge24" class="edge">
<title>Node17&#45;&gt;Node5</title>
<path fill="none" stroke="#63b8ff" d="M376.68,-298.73C370.74,-290.82 365.08,-281.55 362,-272 357.91,-259.31 358.74,-254.93 362,-242 365.35,-228.72 373.53,-215.1 379.41,-206.49"/>
<polygon fill="#63b8ff" stroke="#63b8ff" points="373.92,-300.89 382.94,-306.45 379.36,-296.48 373.92,-300.89"/>
</g>
<!-- Node17&#45;&gt;Node18 -->
<g id="edge25" class="edge">
<title>Node17&#45;&gt;Node18</title>
<path fill="none" stroke="#63b8ff" d="M409.85,-297.54C414,-288.96 418.53,-279.61 422.14,-272.16"/>
<polygon fill="#63b8ff" stroke="#63b8ff" points="406.75,-295.91 405.54,-306.43 413.05,-298.96 406.75,-295.91"/>
</g>
<!-- Node18&#45;&gt;Node5 -->
<g id="edge26" class="edge">
<title>Node18&#45;&gt;Node5</title>
<path fill="none" stroke="#63b8ff" d="M411.62,-232.35C404.82,-223.11 397.46,-213.09 392.38,-206.18"/>
<polygon fill="#63b8ff" stroke="#63b8ff" points="408.73,-234.34 417.47,-240.32 414.37,-230.19 408.73,-234.34"/>
</g>
<!-- Node19&#45;&gt;Node5 -->
<g id="edge29" class="edge">
<title>Node19&#45;&gt;Node5</title>
<path fill="none" stroke="#63b8ff" d="M553.1,-298.76C539.35,-281.22 518.59,-257.6 496,-242 472.1,-225.49 441.16,-213.67 418.18,-206.38"/>
<polygon fill="#63b8ff" stroke="#63b8ff" points="550.21,-300.75 559.06,-306.58 555.78,-296.51 550.21,-300.75"/>
</g>
<!-- Node19&#45;&gt;Node18 -->
<g id="edge30" class="edge">
<title>Node19&#45;&gt;Node18</title>
<path fill="none" stroke="#63b8ff" d="M528.12,-302.99C506.47,-293.16 480.47,-281.36 460.54,-272.31"/>
<polygon fill="#63b8ff" stroke="#63b8ff" points="526.43,-306.07 536.98,-307.01 529.32,-299.69 526.43,-306.07"/>
</g>
<!-- Node19&#45;&gt;Node20 -->
<g id="edge31" class="edge">
<title>Node19&#45;&gt;Node20</title>
<path fill="none" stroke="#63b8ff" d="M580.83,-297.25C584.55,-288.75 588.58,-279.53 591.8,-272.16"/>
<polygon fill="#63b8ff" stroke="#63b8ff" points="577.62,-295.85 576.82,-306.41 584.04,-298.65 577.62,-295.85"/>
</g>
<!-- Node20&#45;&gt;Node5 -->
<g id="edge32" class="edge">
<title>Node20&#45;&gt;Node5</title>
<path fill="none" stroke="#63b8ff" d="M534.55,-238.49C496.28,-227.93 449.14,-214.92 418.37,-206.43"/>
<polygon fill="#63b8ff" stroke="#63b8ff" points="533.57,-241.85 544.14,-241.14 535.43,-235.1 533.57,-241.85"/>
</g>
<!-- Node22&#45;&gt;Node5 -->
<g id="edge35" class="edge">
<title>Node22&#45;&gt;Node5</title>
<path fill="none" stroke="#63b8ff" d="M790.3,-297.55C797.84,-280.01 803.37,-256.93 790,-242 767.99,-217.43 562.57,-205.01 453.43,-200.1"/>
<polygon fill="#63b8ff" stroke="#63b8ff" points="787.29,-295.74 786.15,-306.27 793.61,-298.75 787.29,-295.74"/>
</g>
<!-- Node22&#45;&gt;Node21 -->
<g id="edge36" class="edge">
<title>Node22&#45;&gt;Node21</title>
<path fill="none" stroke="#63b8ff" d="M758.64,-298.96C751.5,-290 743.55,-280.03 737.29,-272.16"/>
<polygon fill="#63b8ff" stroke="#63b8ff" points="755.77,-300.97 764.74,-306.61 761.24,-296.61 755.77,-300.97"/>
</g>
</g>
</svg>
