<?xml version="1.0" encoding="UTF-8" standalone="no"?>
<!DOCTYPE svg PUBLIC "-//W3C//DTD SVG 1.1//EN"
 "http://www.w3.org/Graphics/SVG/1.1/DTD/svg11.dtd">
<!-- Generated by graphviz version 2.43.0 (0)
 -->
<!-- Title: FManC_CharComp Pages: 1 -->
<svg width="130pt" height="204pt"
 viewBox="0.00 0.00 129.50 204.00" xmlns="http://www.w3.org/2000/svg" xmlns:xlink="http://www.w3.org/1999/xlink">
<g id="graph0" class="graph" transform="scale(1 1) rotate(0) translate(4 200)">
<title>FManC_CharComp</title>
<!-- Node1 -->
<g id="node1" class="node">
<title>Node1</title>
<g id="a_node1"><a xlink:title=" ">
<polygon fill="#999999" stroke="#666666" points="0,-0.5 0,-57.5 107,-57.5 107,-0.5 0,-0.5"/>
<text text-anchor="middle" x="53.5" y="-45.5" font-family="Helvetica,sans-Serif" font-size="10.00">FManC_CharComp</text>
<polyline fill="none" stroke="#666666" points="0,-38.5 107,-38.5 "/>
<text text-anchor="middle" x="53.5" y="-26.5" font-family="Helvetica,sans-Serif" font-size="10.00"> </text>
<polyline fill="none" stroke="#666666" points="0,-19.5 107,-19.5 "/>
<text text-anchor="middle" x="53.5" y="-7.5" font-family="Helvetica,sans-Serif" font-size="10.00"> </text>
</a>
</g>
</g>
<!-- Node2 -->
<g id="node2" class="node">
<title>Node2</title>
<g id="a_node2"><a xlink:title=" ">
<polygon fill="white" stroke="#666666" points="15,-138.5 15,-195.5 92,-195.5 92,-138.5 15,-138.5"/>
<text text-anchor="middle" x="53.5" y="-183.5" font-family="Helvetica,sans-Serif" font-size="10.00">unsigned int</text>
<polyline fill="none" stroke="#666666" points="15,-176.5 92,-176.5 "/>
<text text-anchor="middle" x="53.5" y="-164.5" font-family="Helvetica,sans-Serif" font-size="10.00"> </text>
<polyline fill="none" stroke="#666666" points="15,-157.5 92,-157.5 "/>
<text text-anchor="middle" x="53.5" y="-145.5" font-family="Helvetica,sans-Serif" font-size="10.00"> </text>
</a>
</g>
</g>
<!-- Node2&#45;&gt;Node1 -->
<g id="edge1" class="edge">
<title>Node2&#45;&gt;Node1</title>
<path fill="none" stroke="#404040" d="M53.5,-138.48C53.5,-118.79 53.5,-91.99 53.5,-69.95"/>
<polygon fill="none" stroke="#404040" points="53.5,-69.95 49.5,-63.95 53.5,-57.95 57.5,-63.95 53.5,-69.95"/>
<text text-anchor="middle" x="87.5" y="-112" font-family="Helvetica,sans-Serif" font-size="10.00"> +middleLeft</text>
<text text-anchor="middle" x="87.5" y="-101" font-family="Helvetica,sans-Serif" font-size="10.00">+middleRight</text>
<text text-anchor="middle" x="87.5" y="-90" font-family="Helvetica,sans-Serif" font-size="10.00">+mostLeft</text>
<text text-anchor="middle" x="87.5" y="-79" font-family="Helvetica,sans-Serif" font-size="10.00">+mostRight</text>
</g>
</g>
</svg>
