<?xml version="1.0" encoding="UTF-8" standalone="no"?>
<!DOCTYPE svg PUBLIC "-//W3C//DTD SVG 1.1//EN"
 "http://www.w3.org/Graphics/SVG/1.1/DTD/svg11.dtd">
<!-- Generated by graphviz version 2.43.0 (0)
 -->
<!-- Title: src/general/preprocessor/FMC_attributes.h Pages: 1 -->
<svg width="161pt" height="148pt"
 viewBox="0.00 0.00 161.00 148.00" xmlns="http://www.w3.org/2000/svg" xmlns:xlink="http://www.w3.org/1999/xlink">
<g id="graph0" class="graph" transform="scale(1 1) rotate(0) translate(4 144)">
<title>src/general/preprocessor/FMC_attributes.h</title>
<!-- Node1 -->
<g id="node1" class="node">
<title>Node1</title>
<g id="a_node1"><a xlink:title=" ">
<polygon fill="#999999" stroke="#666666" points="153,-140 16,-140 16,-110 153,-110 153,-140"/>
<text text-anchor="start" x="24" y="-128" font-family="Helvetica,sans-Serif" font-size="10.00">src/general/preprocessor</text>
<text text-anchor="middle" x="84.5" y="-117" font-family="Helvetica,sans-Serif" font-size="10.00">/FMC_attributes.h</text>
</a>
</g>
</g>
<!-- Node2 -->
<g id="node2" class="node">
<title>Node2</title>
<g id="a_node2"><a xlink:href="../../d7/dff/FMC__platform_8h.html" target="_top" xlink:title=" ">
<polygon fill="white" stroke="#666666" points="95,-19 0,-19 0,0 95,0 95,-19"/>
<text text-anchor="middle" x="47.5" y="-7" font-family="Helvetica,sans-Serif" font-size="10.00">FMC_platform.h</text>
</a>
</g>
</g>
<!-- Node1&#45;&gt;Node2 -->
<g id="edge1" class="edge">
<title>Node1&#45;&gt;Node2</title>
<path fill="none" stroke="#63b8ff" d="M62.54,-109.94C50.96,-101.17 37.86,-88.75 31.5,-74 25.11,-59.19 30.72,-41.3 36.98,-28.29"/>
<polygon fill="#63b8ff" stroke="#63b8ff" points="40.09,-29.89 41.72,-19.42 33.92,-26.59 40.09,-29.89"/>
</g>
<!-- Node3 -->
<g id="node3" class="node">
<title>Node3</title>
<g id="a_node3"><a xlink:href="../../d0/d28/FMC__macros_8h.html" target="_top" xlink:title=" ">
<polygon fill="white" stroke="#666666" points="129,-74 40,-74 40,-55 129,-55 129,-74"/>
<text text-anchor="middle" x="84.5" y="-62" font-family="Helvetica,sans-Serif" font-size="10.00">FMC_macros.h</text>
</a>
</g>
</g>
<!-- Node1&#45;&gt;Node3 -->
<g id="edge2" class="edge">
<title>Node1&#45;&gt;Node3</title>
<path fill="none" stroke="#63b8ff" d="M78.62,-109.84C77.65,-102.21 77.49,-92.7 78.14,-84.45"/>
<polygon fill="#63b8ff" stroke="#63b8ff" points="81.64,-84.65 79.52,-74.27 74.71,-83.71 81.64,-84.65"/>
</g>
<!-- Node3&#45;&gt;Node1 -->
<g id="edge4" class="edge">
<title>Node3&#45;&gt;Node1</title>
<path fill="none" stroke="#63b8ff" d="M89.48,-74.27C90.92,-81.03 91.48,-90.72 91.16,-99.75"/>
<polygon fill="#63b8ff" stroke="#63b8ff" points="87.66,-99.6 90.38,-109.84 94.64,-100.14 87.66,-99.6"/>
</g>
<!-- Node3&#45;&gt;Node2 -->
<g id="edge3" class="edge">
<title>Node3&#45;&gt;Node2</title>
<path fill="none" stroke="#63b8ff" d="M78.39,-54.75C73.22,-47.34 65.65,-36.5 59.31,-27.41"/>
<polygon fill="#63b8ff" stroke="#63b8ff" points="62.09,-25.29 53.5,-19.09 56.35,-29.29 62.09,-25.29"/>
</g>
</g>
</svg>
