<?xml version="1.0" encoding="UTF-8" standalone="no"?>
<!DOCTYPE svg PUBLIC "-//W3C//DTD SVG 1.1//EN"
 "http://www.w3.org/Graphics/SVG/1.1/DTD/svg11.dtd">
<!-- Generated by graphviz version 2.43.0 (0)
 -->
<!-- Title: src/general/utils/FMC_errors.h Pages: 1 -->
<svg width="369pt" height="159pt"
 viewBox="0.00 0.00 369.00 159.00" xmlns="http://www.w3.org/2000/svg" xmlns:xlink="http://www.w3.org/1999/xlink">
<g id="graph0" class="graph" transform="scale(1 1) rotate(0) translate(4 155)">
<title>src/general/utils/FMC_errors.h</title>
<!-- Node1 -->
<g id="node1" class="node">
<title>Node1</title>
<g id="a_node1"><a xlink:title=" ">
<polygon fill="#999999" stroke="#666666" points="184.5,-151 65.5,-151 65.5,-121 184.5,-121 184.5,-151"/>
<text text-anchor="start" x="73.5" y="-139" font-family="Helvetica,sans-Serif" font-size="10.00">src/general/utils/FMC</text>
<text text-anchor="middle" x="125" y="-128" font-family="Helvetica,sans-Serif" font-size="10.00">_errors.h</text>
</a>
</g>
</g>
<!-- Node2 -->
<g id="node2" class="node">
<title>Node2</title>
<g id="a_node2"><a xlink:title=" ">
<polygon fill="#e0e0e0" stroke="#999999" points="50,-79.5 0,-79.5 0,-60.5 50,-60.5 50,-79.5"/>
<text text-anchor="middle" x="25" y="-67.5" font-family="Helvetica,sans-Serif" font-size="10.00">stdio.h</text>
</a>
</g>
</g>
<!-- Node1&#45;&gt;Node2 -->
<g id="edge1" class="edge">
<title>Node1&#45;&gt;Node2</title>
<path fill="none" stroke="#63b8ff" d="M102.81,-120.8C86.2,-110.17 63.6,-95.7 47.03,-85.1"/>
<polygon fill="#63b8ff" stroke="#63b8ff" points="48.84,-82.1 38.53,-79.66 45.06,-88 48.84,-82.1"/>
</g>
<!-- Node3 -->
<g id="node3" class="node">
<title>Node3</title>
<g id="a_node3"><a xlink:href="../../da/dd3/FMC__consts_8h.html" target="_top" xlink:title=" ">
<polygon fill="white" stroke="#666666" points="181.5,-85 68.5,-85 68.5,-55 181.5,-55 181.5,-85"/>
<text text-anchor="start" x="76.5" y="-73" font-family="Helvetica,sans-Serif" font-size="10.00">../preprocessor/FMC</text>
<text text-anchor="middle" x="125" y="-62" font-family="Helvetica,sans-Serif" font-size="10.00">_consts.h</text>
</a>
</g>
</g>
<!-- Node1&#45;&gt;Node3 -->
<g id="edge2" class="edge">
<title>Node1&#45;&gt;Node3</title>
<path fill="none" stroke="#63b8ff" d="M125,-120.8C125,-113.34 125,-103.99 125,-95.41"/>
<polygon fill="#63b8ff" stroke="#63b8ff" points="128.5,-95.16 125,-85.16 121.5,-95.16 128.5,-95.16"/>
</g>
<!-- Node4 -->
<g id="node4" class="node">
<title>Node4</title>
<g id="a_node4"><a xlink:href="../../d0/d28/FMC__macros_8h.html" target="_top" xlink:title=" ">
<polygon fill="white" stroke="#666666" points="312.5,-85 199.5,-85 199.5,-55 312.5,-55 312.5,-85"/>
<text text-anchor="start" x="207.5" y="-73" font-family="Helvetica,sans-Serif" font-size="10.00">../preprocessor/FMC</text>
<text text-anchor="middle" x="256" y="-62" font-family="Helvetica,sans-Serif" font-size="10.00">_macros.h</text>
</a>
</g>
</g>
<!-- Node1&#45;&gt;Node4 -->
<g id="edge3" class="edge">
<title>Node1&#45;&gt;Node4</title>
<path fill="none" stroke="#63b8ff" d="M153.75,-120.95C172.69,-111.7 197.69,-99.49 218.23,-89.45"/>
<polygon fill="#63b8ff" stroke="#63b8ff" points="219.87,-92.55 227.32,-85.01 216.8,-86.26 219.87,-92.55"/>
</g>
<!-- Node5 -->
<g id="node5" class="node">
<title>Node5</title>
<g id="a_node5"><a xlink:href="../../d7/dff/FMC__platform_8h.html" target="_top" xlink:title=" ">
<polygon fill="white" stroke="#666666" points="140.5,-19 45.5,-19 45.5,0 140.5,0 140.5,-19"/>
<text text-anchor="middle" x="93" y="-7" font-family="Helvetica,sans-Serif" font-size="10.00">FMC_platform.h</text>
</a>
</g>
</g>
<!-- Node4&#45;&gt;Node5 -->
<g id="edge4" class="edge">
<title>Node4&#45;&gt;Node5</title>
<path fill="none" stroke="#63b8ff" d="M216.96,-54.99C189.4,-45.1 152.85,-31.98 126.59,-22.56"/>
<polygon fill="#63b8ff" stroke="#63b8ff" points="127.67,-19.22 117.07,-19.14 125.3,-25.81 127.67,-19.22"/>
</g>
<!-- Node6 -->
<g id="node6" class="node">
<title>Node6</title>
<g id="a_node6"><a xlink:title=" ">
<polygon fill="#e0e0e0" stroke="#999999" points="243,-19 159,-19 159,0 243,0 243,-19"/>
<text text-anchor="middle" x="201" y="-7" font-family="Helvetica,sans-Serif" font-size="10.00">metalang99.h</text>
</a>
</g>
</g>
<!-- Node4&#45;&gt;Node6 -->
<g id="edge5" class="edge">
<title>Node4&#45;&gt;Node6</title>
<path fill="none" stroke="#63b8ff" d="M242.69,-54.84C234.7,-46.35 224.52,-35.52 216.22,-26.69"/>
<polygon fill="#63b8ff" stroke="#63b8ff" points="218.64,-24.15 209.24,-19.27 213.54,-28.95 218.64,-24.15"/>
</g>
<!-- Node7 -->
<g id="node7" class="node">
<title>Node7</title>
<g id="a_node7"><a xlink:href="../../d1/d2e/FMC__attributes_8h.html" target="_top" xlink:title=" ">
<polygon fill="white" stroke="#666666" points="361,-19 261,-19 261,0 361,0 361,-19"/>
<text text-anchor="middle" x="311" y="-7" font-family="Helvetica,sans-Serif" font-size="10.00">FMC_attributes.h</text>
</a>
</g>
</g>
<!-- Node4&#45;&gt;Node7 -->
<g id="edge6" class="edge">
<title>Node4&#45;&gt;Node7</title>
<path fill="none" stroke="#63b8ff" d="M263.44,-54.84C270.48,-46.17 280.86,-35.08 290.23,-26.15"/>
<polygon fill="#63b8ff" stroke="#63b8ff" points="292.75,-28.59 297.77,-19.27 288.03,-23.42 292.75,-28.59"/>
</g>
<!-- Node7&#45;&gt;Node4 -->
<g id="edge7" class="edge">
<title>Node7&#45;&gt;Node4</title>
<path fill="none" stroke="#63b8ff" d="M307.74,-19.27C302.29,-26.76 292.38,-37.86 282.58,-47.67"/>
<polygon fill="#63b8ff" stroke="#63b8ff" points="279.93,-45.36 275.19,-54.84 284.81,-50.39 279.93,-45.36"/>
</g>
</g>
</svg>
