<?xml version="1.0" encoding="UTF-8" standalone="no"?>
<!DOCTYPE svg PUBLIC "-//W3C//DTD SVG 1.1//EN"
 "http://www.w3.org/Graphics/SVG/1.1/DTD/svg11.dtd">
<!-- Generated by graphviz version 2.43.0 (0)
 -->
<!-- Title: src/general/utils/FMC_errors.h Pages: 1 -->
<svg width="321pt" height="214pt"
 viewBox="0.00 0.00 320.50 214.00" xmlns="http://www.w3.org/2000/svg" xmlns:xlink="http://www.w3.org/1999/xlink">
<g id="graph0" class="graph" transform="scale(1 1) rotate(0) translate(4 210)">
<title>src/general/utils/FMC_errors.h</title>
<!-- Node1 -->
<g id="node1" class="node">
<title>Node1</title>
<g id="a_node1"><a xlink:title=" ">
<polygon fill="#999999" stroke="#666666" points="184.5,-206 65.5,-206 65.5,-176 184.5,-176 184.5,-206"/>
<text text-anchor="start" x="73.5" y="-194" font-family="Helvetica,sans-Serif" font-size="10.00">src/general/utils/FMC</text>
<text text-anchor="middle" x="125" y="-183" font-family="Helvetica,sans-Serif" font-size="10.00">_errors.h</text>
</a>
</g>
</g>
<!-- Node2 -->
<g id="node2" class="node">
<title>Node2</title>
<g id="a_node2"><a xlink:title=" ">
<polygon fill="#e0e0e0" stroke="#999999" points="50,-134.5 0,-134.5 0,-115.5 50,-115.5 50,-134.5"/>
<text text-anchor="middle" x="25" y="-122.5" font-family="Helvetica,sans-Serif" font-size="10.00">stdio.h</text>
</a>
</g>
</g>
<!-- Node1&#45;&gt;Node2 -->
<g id="edge1" class="edge">
<title>Node1&#45;&gt;Node2</title>
<path fill="none" stroke="#63b8ff" d="M102.81,-175.8C86.2,-165.17 63.6,-150.7 47.03,-140.1"/>
<polygon fill="#63b8ff" stroke="#63b8ff" points="48.84,-137.1 38.53,-134.66 45.06,-143 48.84,-137.1"/>
</g>
<!-- Node3 -->
<g id="node3" class="node">
<title>Node3</title>
<g id="a_node3"><a xlink:href="../../da/dd3/FMC__consts_8h.html" target="_top" xlink:title=" ">
<polygon fill="white" stroke="#666666" points="181.5,-140 68.5,-140 68.5,-110 181.5,-110 181.5,-140"/>
<text text-anchor="start" x="76.5" y="-128" font-family="Helvetica,sans-Serif" font-size="10.00">../preprocessor/FMC</text>
<text text-anchor="middle" x="125" y="-117" font-family="Helvetica,sans-Serif" font-size="10.00">_consts.h</text>
</a>
</g>
</g>
<!-- Node1&#45;&gt;Node3 -->
<g id="edge2" class="edge">
<title>Node1&#45;&gt;Node3</title>
<path fill="none" stroke="#63b8ff" d="M125,-175.8C125,-168.34 125,-158.99 125,-150.41"/>
<polygon fill="#63b8ff" stroke="#63b8ff" points="128.5,-150.16 125,-140.16 121.5,-150.16 128.5,-150.16"/>
</g>
<!-- Node4 -->
<g id="node4" class="node">
<title>Node4</title>
<g id="a_node4"><a xlink:href="../../d0/d28/FMC__macros_8h.html" target="_top" xlink:title=" ">
<polygon fill="white" stroke="#666666" points="312.5,-140 199.5,-140 199.5,-110 312.5,-110 312.5,-140"/>
<text text-anchor="start" x="207.5" y="-128" font-family="Helvetica,sans-Serif" font-size="10.00">../preprocessor/FMC</text>
<text text-anchor="middle" x="256" y="-117" font-family="Helvetica,sans-Serif" font-size="10.00">_macros.h</text>
</a>
</g>
</g>
<!-- Node1&#45;&gt;Node4 -->
<g id="edge3" class="edge">
<title>Node1&#45;&gt;Node4</title>
<path fill="none" stroke="#63b8ff" d="M153.75,-175.95C172.69,-166.7 197.69,-154.49 218.23,-144.45"/>
<polygon fill="#63b8ff" stroke="#63b8ff" points="219.87,-147.55 227.32,-140.01 216.8,-141.26 219.87,-147.55"/>
</g>
<!-- Node5 -->
<g id="node5" class="node">
<title>Node5</title>
<g id="a_node5"><a xlink:href="../../d7/dff/FMC__platform_8h.html" target="_top" xlink:title=" ">
<polygon fill="white" stroke="#666666" points="264.5,-19 169.5,-19 169.5,0 264.5,0 264.5,-19"/>
<text text-anchor="middle" x="217" y="-7" font-family="Helvetica,sans-Serif" font-size="10.00">FMC_platform.h</text>
</a>
</g>
</g>
<!-- Node4&#45;&gt;Node5 -->
<g id="edge4" class="edge">
<title>Node4&#45;&gt;Node5</title>
<path fill="none" stroke="#63b8ff" d="M230.7,-109.88C218.06,-101.31 204,-89.11 197,-74 190.04,-58.98 197.13,-40.89 204.73,-27.86"/>
<polygon fill="#63b8ff" stroke="#63b8ff" points="207.71,-29.7 210.15,-19.39 201.81,-25.93 207.71,-29.7"/>
</g>
<!-- Node6 -->
<g id="node6" class="node">
<title>Node6</title>
<g id="a_node6"><a xlink:href="../../d1/d2e/FMC__attributes_8h.html" target="_top" xlink:title=" ">
<polygon fill="white" stroke="#666666" points="306,-74 206,-74 206,-55 306,-55 306,-74"/>
<text text-anchor="middle" x="256" y="-62" font-family="Helvetica,sans-Serif" font-size="10.00">FMC_attributes.h</text>
</a>
</g>
</g>
<!-- Node4&#45;&gt;Node6 -->
<g id="edge5" class="edge">
<title>Node4&#45;&gt;Node6</title>
<path fill="none" stroke="#63b8ff" d="M250.12,-109.84C249.15,-102.21 248.99,-92.7 249.64,-84.45"/>
<polygon fill="#63b8ff" stroke="#63b8ff" points="253.14,-84.65 251.02,-74.27 246.21,-83.71 253.14,-84.65"/>
</g>
<!-- Node6&#45;&gt;Node4 -->
<g id="edge7" class="edge">
<title>Node6&#45;&gt;Node4</title>
<path fill="none" stroke="#63b8ff" d="M260.98,-74.27C262.42,-81.03 262.98,-90.72 262.66,-99.75"/>
<polygon fill="#63b8ff" stroke="#63b8ff" points="259.16,-99.6 261.88,-109.84 266.14,-100.14 259.16,-99.6"/>
</g>
<!-- Node6&#45;&gt;Node5 -->
<g id="edge6" class="edge">
<title>Node6&#45;&gt;Node5</title>
<path fill="none" stroke="#63b8ff" d="M249.56,-54.75C244.11,-47.34 236.14,-36.5 229.44,-27.41"/>
<polygon fill="#63b8ff" stroke="#63b8ff" points="232.07,-25.07 223.32,-19.09 226.43,-29.22 232.07,-25.07"/>
</g>
</g>
</svg>
