<?xml version="1.0" encoding="UTF-8" standalone="no"?>
<!DOCTYPE svg PUBLIC "-//W3C//DTD SVG 1.1//EN"
 "http://www.w3.org/Graphics/SVG/1.1/DTD/svg11.dtd">
<!-- Generated by graphviz version 2.43.0 (0)
 -->
<!-- Title: src/cpp/FMC_wrapper.h Pages: 1 -->
<svg width="210pt" height="93pt"
 viewBox="0.00 0.00 210.00 93.00" xmlns="http://www.w3.org/2000/svg" xmlns:xlink="http://www.w3.org/1999/xlink">
<g id="graph0" class="graph" transform="scale(1 1) rotate(0) translate(4 89)">
<title>src/cpp/FMC_wrapper.h</title>
<!-- Node1 -->
<g id="node1" class="node">
<title>Node1</title>
<g id="a_node1"><a xlink:title=" ">
<polygon fill="#999999" stroke="#666666" points="152,-85 23,-85 23,-66 152,-66 152,-85"/>
<text text-anchor="middle" x="87.5" y="-73" font-family="Helvetica,sans-Serif" font-size="10.00">src/cpp/FMC_wrapper.h</text>
</a>
</g>
</g>
<!-- Node2 -->
<g id="node2" class="node">
<title>Node2</title>
<g id="a_node2"><a xlink:href="../../de/d47/FMC_8h.html" target="_top" xlink:title=" ">
<polygon fill="white" stroke="#666666" points="65,-24.5 0,-24.5 0,-5.5 65,-5.5 65,-24.5"/>
<text text-anchor="middle" x="32.5" y="-12.5" font-family="Helvetica,sans-Serif" font-size="10.00">src/FMC.h</text>
</a>
</g>
</g>
<!-- Node1&#45;&gt;Node2 -->
<g id="edge1" class="edge">
<title>Node1&#45;&gt;Node2</title>
<path fill="none" stroke="#63b8ff" d="M72.24,-58.27C62.01,-47.39 48.95,-33.49 40.65,-24.67"/>
<polygon fill="#63b8ff" stroke="#63b8ff" points="69.98,-60.98 79.38,-65.87 75.08,-56.19 69.98,-60.98"/>
</g>
<!-- Node3 -->
<g id="node3" class="node">
<title>Node3</title>
<g id="a_node3"><a xlink:href="../../dd/d0d/FMC__dir__wrapper_8cpp.html" target="_top" xlink:title=" ">
<polygon fill="white" stroke="#666666" points="202,-30 83,-30 83,0 202,0 202,-30"/>
<text text-anchor="start" x="91" y="-18" font-family="Helvetica,sans-Serif" font-size="10.00">src/cpp/FMC_dir/FMC</text>
<text text-anchor="middle" x="142.5" y="-7" font-family="Helvetica,sans-Serif" font-size="10.00">_dir_wrapper.cpp</text>
</a>
</g>
</g>
<!-- Node1&#45;&gt;Node3 -->
<g id="edge2" class="edge">
<title>Node1&#45;&gt;Node3</title>
<path fill="none" stroke="#63b8ff" d="M102.61,-58.43C110.95,-49.56 121.21,-38.65 129.23,-30.11"/>
<polygon fill="#63b8ff" stroke="#63b8ff" points="99.92,-56.19 95.62,-65.87 105.02,-60.98 99.92,-56.19"/>
</g>
</g>
</svg>
