<?xml version="1.0" encoding="UTF-8" standalone="no"?>
<!DOCTYPE svg PUBLIC "-//W3C//DTD SVG 1.1//EN"
 "http://www.w3.org/Graphics/SVG/1.1/DTD/svg11.dtd">
<!-- Generated by graphviz version 2.43.0 (0)
 -->
<!-- Title: src/analyze.h Pages: 1 -->
<svg width="180pt" height="82pt"
 viewBox="0.00 0.00 180.00 82.00" xmlns="http://www.w3.org/2000/svg" xmlns:xlink="http://www.w3.org/1999/xlink">
<g id="graph0" class="graph" transform="scale(1 1) rotate(0) translate(4 78)">
<title>src/analyze.h</title>
<!-- Node1 -->
<g id="node1" class="node">
<title>Node1</title>
<g id="a_node1"><a xlink:title=" ">
<polygon fill="#999999" stroke="#666666" points="127.5,-74 46.5,-74 46.5,-55 127.5,-55 127.5,-74"/>
<text text-anchor="middle" x="87" y="-62" font-family="Helvetica,sans-Serif" font-size="10.00">src/analyze.h</text>
</a>
</g>
</g>
<!-- Node2 -->
<g id="node2" class="node">
<title>Node2</title>
<g id="a_node2"><a xlink:href="../../d7/d93/analyze_8c.html" target="_top" xlink:title=" ">
<polygon fill="white" stroke="#666666" points="80,-19 0,-19 0,0 80,0 80,-19"/>
<text text-anchor="middle" x="40" y="-7" font-family="Helvetica,sans-Serif" font-size="10.00">src/analyze.c</text>
</a>
</g>
</g>
<!-- Node1&#45;&gt;Node2 -->
<g id="edge1" class="edge">
<title>Node1&#45;&gt;Node2</title>
<path fill="none" stroke="#63b8ff" d="M72.58,-47.24C64.34,-37.95 54.35,-26.68 47.62,-19.09"/>
<polygon fill="#63b8ff" stroke="#63b8ff" points="69.99,-49.59 79.24,-54.75 75.22,-44.94 69.99,-49.59"/>
</g>
<!-- Node3 -->
<g id="node3" class="node">
<title>Node3</title>
<g id="a_node3"><a xlink:href="../../d5/dc4/fmanc_8h.html" target="_top" xlink:title="This is the main header of the lib, where all of the headers are included.">
<polygon fill="white" stroke="#666666" points="172,-19 98,-19 98,0 172,0 172,-19"/>
<text text-anchor="middle" x="135" y="-7" font-family="Helvetica,sans-Serif" font-size="10.00">src/fmanc.h</text>
</a>
</g>
</g>
<!-- Node1&#45;&gt;Node3 -->
<g id="edge2" class="edge">
<title>Node1&#45;&gt;Node3</title>
<path fill="none" stroke="#63b8ff" d="M101.73,-47.24C110.14,-37.95 120.35,-26.68 127.22,-19.09"/>
<polygon fill="#63b8ff" stroke="#63b8ff" points="99.04,-44.99 94.93,-54.75 104.23,-49.69 99.04,-44.99"/>
</g>
</g>
</svg>
