<?xml version="1.0" encoding="UTF-8" standalone="no"?>
<!DOCTYPE svg PUBLIC "-//W3C//DTD SVG 1.1//EN"
 "http://www.w3.org/Graphics/SVG/1.1/DTD/svg11.dtd">
<!-- Generated by graphviz version 2.43.0 (0)
 -->
<!-- Title: src/data_analyze/encodings/FMC_encodings.h Pages: 1 -->
<svg width="302pt" height="159pt"
 viewBox="0.00 0.00 302.00 159.00" xmlns="http://www.w3.org/2000/svg" xmlns:xlink="http://www.w3.org/1999/xlink">
<g id="graph0" class="graph" transform="scale(1 1) rotate(0) translate(4 155)">
<title>src/data_analyze/encodings/FMC_encodings.h</title>
<!-- Node1 -->
<g id="node1" class="node">
<title>Node1</title>
<g id="a_node1"><a xlink:title=" ">
<polygon fill="#999999" stroke="#666666" points="216,-151 64,-151 64,-121 216,-121 216,-151"/>
<text text-anchor="start" x="72" y="-139" font-family="Helvetica,sans-Serif" font-size="10.00">src/data_analyze/encodings</text>
<text text-anchor="middle" x="140" y="-128" font-family="Helvetica,sans-Serif" font-size="10.00">/FMC_encodings.h</text>
</a>
</g>
</g>
<!-- Node2 -->
<g id="node2" class="node">
<title>Node2</title>
<g id="a_node2"><a xlink:href="../../da/db0/FMC__data__analyze_8h.html" target="_top" xlink:title=" ">
<polygon fill="white" stroke="#666666" points="124,-85 0,-85 0,-55 124,-55 124,-85"/>
<text text-anchor="start" x="8" y="-73" font-family="Helvetica,sans-Serif" font-size="10.00">src/data_analyze/FMC</text>
<text text-anchor="middle" x="62" y="-62" font-family="Helvetica,sans-Serif" font-size="10.00">_data_analyze.h</text>
</a>
</g>
</g>
<!-- Node1&#45;&gt;Node2 -->
<g id="edge1" class="edge">
<title>Node1&#45;&gt;Node2</title>
<path fill="none" stroke="#63b8ff" d="M114.65,-114.2C103.07,-104.7 89.65,-93.69 79.26,-85.16"/>
<polygon fill="#63b8ff" stroke="#63b8ff" points="112.74,-117.16 122.69,-120.8 117.18,-111.75 112.74,-117.16"/>
</g>
<!-- Node4 -->
<g id="node4" class="node">
<title>Node4</title>
<g id="a_node4"><a xlink:href="../../db/dc4/FMC__encodings_8c.html" target="_top" xlink:title=" ">
<polygon fill="white" stroke="#666666" points="294,-85 142,-85 142,-55 294,-55 294,-85"/>
<text text-anchor="start" x="150" y="-73" font-family="Helvetica,sans-Serif" font-size="10.00">src/data_analyze/encodings</text>
<text text-anchor="middle" x="218" y="-62" font-family="Helvetica,sans-Serif" font-size="10.00">/FMC_encodings.c</text>
</a>
</g>
</g>
<!-- Node1&#45;&gt;Node4 -->
<g id="edge3" class="edge">
<title>Node1&#45;&gt;Node4</title>
<path fill="none" stroke="#63b8ff" d="M165.35,-114.2C176.93,-104.7 190.35,-93.69 200.74,-85.16"/>
<polygon fill="#63b8ff" stroke="#63b8ff" points="162.82,-111.75 157.31,-120.8 167.26,-117.16 162.82,-111.75"/>
</g>
<!-- Node3 -->
<g id="node3" class="node">
<title>Node3</title>
<g id="a_node3"><a xlink:href="../../de/d47/FMC_8h.html" target="_top" xlink:title=" ">
<polygon fill="white" stroke="#666666" points="94.5,-19 29.5,-19 29.5,0 94.5,0 94.5,-19"/>
<text text-anchor="middle" x="62" y="-7" font-family="Helvetica,sans-Serif" font-size="10.00">src/FMC.h</text>
</a>
</g>
</g>
<!-- Node2&#45;&gt;Node3 -->
<g id="edge2" class="edge">
<title>Node2&#45;&gt;Node3</title>
<path fill="none" stroke="#63b8ff" d="M62,-44.75C62,-35.72 62,-26.03 62,-19.27"/>
<polygon fill="#63b8ff" stroke="#63b8ff" points="58.5,-44.84 62,-54.84 65.5,-44.84 58.5,-44.84"/>
</g>
</g>
</svg>
