<?xml version="1.0" encoding="UTF-8" standalone="no"?>
<!DOCTYPE svg PUBLIC "-//W3C//DTD SVG 1.1//EN"
 "http://www.w3.org/Graphics/SVG/1.1/DTD/svg11.dtd">
<!-- Generated by graphviz version 2.43.0 (0)
 -->
<!-- Title: src/general/utils/FMC_globals.c Pages: 1 -->
<svg width="408pt" height="280pt"
 viewBox="0.00 0.00 408.00 280.00" xmlns="http://www.w3.org/2000/svg" xmlns:xlink="http://www.w3.org/1999/xlink">
<g id="graph0" class="graph" transform="scale(1 1) rotate(0) translate(4 276)">
<title>src/general/utils/FMC_globals.c</title>
<!-- Node1 -->
<g id="node1" class="node">
<title>Node1</title>
<g id="a_node1"><a xlink:title=" ">
<polygon fill="#999999" stroke="#666666" points="268,-272 149,-272 149,-242 268,-242 268,-272"/>
<text text-anchor="start" x="157" y="-260" font-family="Helvetica,sans-Serif" font-size="10.00">src/general/utils/FMC</text>
<text text-anchor="middle" x="208.5" y="-249" font-family="Helvetica,sans-Serif" font-size="10.00">_globals.c</text>
</a>
</g>
</g>
<!-- Node2 -->
<g id="node2" class="node">
<title>Node2</title>
<g id="a_node2"><a xlink:title=" ">
<polygon fill="#e0e0e0" stroke="#999999" points="196.5,-206 122.5,-206 122.5,-187 196.5,-187 196.5,-206"/>
<text text-anchor="middle" x="159.5" y="-194" font-family="Helvetica,sans-Serif" font-size="10.00">stdatomic.h</text>
</a>
</g>
</g>
<!-- Node1&#45;&gt;Node2 -->
<g id="edge1" class="edge">
<title>Node1&#45;&gt;Node2</title>
<path fill="none" stroke="#63b8ff" d="M196.64,-241.84C189.6,-233.43 180.64,-222.74 173.29,-213.96"/>
<polygon fill="#63b8ff" stroke="#63b8ff" points="175.95,-211.68 166.84,-206.27 170.58,-216.18 175.95,-211.68"/>
</g>
<!-- Node3 -->
<g id="node3" class="node">
<title>Node3</title>
<g id="a_node3"><a xlink:href="../../de/d86/FMC__globals_8h.html" target="_top" xlink:title=" ">
<polygon fill="white" stroke="#666666" points="302.5,-206 214.5,-206 214.5,-187 302.5,-187 302.5,-206"/>
<text text-anchor="middle" x="258.5" y="-194" font-family="Helvetica,sans-Serif" font-size="10.00">FMC_globals.h</text>
</a>
</g>
</g>
<!-- Node1&#45;&gt;Node3 -->
<g id="edge2" class="edge">
<title>Node1&#45;&gt;Node3</title>
<path fill="none" stroke="#63b8ff" d="M220.6,-241.84C227.79,-233.43 236.93,-222.74 244.43,-213.96"/>
<polygon fill="#63b8ff" stroke="#63b8ff" points="247.17,-216.14 251.01,-206.27 241.85,-211.59 247.17,-216.14"/>
</g>
<!-- Node4 -->
<g id="node4" class="node">
<title>Node4</title>
<g id="a_node4"><a xlink:href="../../df/df8/FMC__typedefs_8h.html" target="_top" xlink:title=" ">
<polygon fill="white" stroke="#666666" points="230.5,-145.5 96.5,-145.5 96.5,-126.5 230.5,-126.5 230.5,-145.5"/>
<text text-anchor="middle" x="163.5" y="-133.5" font-family="Helvetica,sans-Serif" font-size="10.00">../types/FMC_typedefs.h</text>
</a>
</g>
</g>
<!-- Node3&#45;&gt;Node4 -->
<g id="edge3" class="edge">
<title>Node3&#45;&gt;Node4</title>
<path fill="none" stroke="#63b8ff" d="M244.48,-186.87C229.19,-177.45 204.47,-162.23 186.36,-151.08"/>
<polygon fill="#63b8ff" stroke="#63b8ff" points="187.93,-147.93 177.58,-145.67 184.25,-153.89 187.93,-147.93"/>
</g>
<!-- Node5 -->
<g id="node5" class="node">
<title>Node5</title>
<g id="a_node5"><a xlink:href="../../d0/d28/FMC__macros_8h.html" target="_top" xlink:title=" ">
<polygon fill="white" stroke="#666666" points="267,-85 154,-85 154,-55 267,-55 267,-85"/>
<text text-anchor="start" x="162" y="-73" font-family="Helvetica,sans-Serif" font-size="10.00">../preprocessor/FMC</text>
<text text-anchor="middle" x="210.5" y="-62" font-family="Helvetica,sans-Serif" font-size="10.00">_macros.h</text>
</a>
</g>
</g>
<!-- Node3&#45;&gt;Node5 -->
<g id="edge9" class="edge">
<title>Node3&#45;&gt;Node5</title>
<path fill="none" stroke="#63b8ff" d="M257.12,-186.99C254.66,-172.9 248.89,-143.99 239.5,-121 235.75,-111.82 230.58,-102.28 225.63,-94.02"/>
<polygon fill="#63b8ff" stroke="#63b8ff" points="228.49,-91.98 220.24,-85.33 222.54,-95.67 228.49,-91.98"/>
</g>
<!-- Node9 -->
<g id="node9" class="node">
<title>Node9</title>
<g id="a_node9"><a xlink:href="../../da/dd3/FMC__consts_8h.html" target="_top" xlink:title=" ">
<polygon fill="white" stroke="#666666" points="400,-151 287,-151 287,-121 400,-121 400,-151"/>
<text text-anchor="start" x="295" y="-139" font-family="Helvetica,sans-Serif" font-size="10.00">../preprocessor/FMC</text>
<text text-anchor="middle" x="343.5" y="-128" font-family="Helvetica,sans-Serif" font-size="10.00">_consts.h</text>
</a>
</g>
</g>
<!-- Node3&#45;&gt;Node9 -->
<g id="edge10" class="edge">
<title>Node3&#45;&gt;Node9</title>
<path fill="none" stroke="#63b8ff" d="M271.04,-186.87C282.47,-179 299.77,-167.09 314.61,-156.89"/>
<polygon fill="#63b8ff" stroke="#63b8ff" points="316.74,-159.67 322.99,-151.11 312.77,-153.9 316.74,-159.67"/>
</g>
<!-- Node4&#45;&gt;Node5 -->
<g id="edge4" class="edge">
<title>Node4&#45;&gt;Node5</title>
<path fill="none" stroke="#63b8ff" d="M169.84,-126.37C175.99,-117.99 185.59,-104.93 193.91,-93.59"/>
<polygon fill="#63b8ff" stroke="#63b8ff" points="196.86,-95.49 199.95,-85.36 191.21,-91.35 196.86,-95.49"/>
</g>
<!-- Node6 -->
<g id="node6" class="node">
<title>Node6</title>
<g id="a_node6"><a xlink:href="../../d7/dff/FMC__platform_8h.html" target="_top" xlink:title=" ">
<polygon fill="white" stroke="#666666" points="95,-19 0,-19 0,0 95,0 95,-19"/>
<text text-anchor="middle" x="47.5" y="-7" font-family="Helvetica,sans-Serif" font-size="10.00">FMC_platform.h</text>
</a>
</g>
</g>
<!-- Node5&#45;&gt;Node6 -->
<g id="edge5" class="edge">
<title>Node5&#45;&gt;Node6</title>
<path fill="none" stroke="#63b8ff" d="M171.46,-54.99C143.9,-45.1 107.35,-31.98 81.09,-22.56"/>
<polygon fill="#63b8ff" stroke="#63b8ff" points="82.17,-19.22 71.57,-19.14 79.8,-25.81 82.17,-19.22"/>
</g>
<!-- Node7 -->
<g id="node7" class="node">
<title>Node7</title>
<g id="a_node7"><a xlink:title=" ">
<polygon fill="#e0e0e0" stroke="#999999" points="197.5,-19 113.5,-19 113.5,0 197.5,0 197.5,-19"/>
<text text-anchor="middle" x="155.5" y="-7" font-family="Helvetica,sans-Serif" font-size="10.00">metalang99.h</text>
</a>
</g>
</g>
<!-- Node5&#45;&gt;Node7 -->
<g id="edge6" class="edge">
<title>Node5&#45;&gt;Node7</title>
<path fill="none" stroke="#63b8ff" d="M197.19,-54.84C189.2,-46.35 179.02,-35.52 170.72,-26.69"/>
<polygon fill="#63b8ff" stroke="#63b8ff" points="173.14,-24.15 163.74,-19.27 168.04,-28.95 173.14,-24.15"/>
</g>
<!-- Node8 -->
<g id="node8" class="node">
<title>Node8</title>
<g id="a_node8"><a xlink:href="../../d1/d2e/FMC__attributes_8h.html" target="_top" xlink:title=" ">
<polygon fill="white" stroke="#666666" points="315.5,-19 215.5,-19 215.5,0 315.5,0 315.5,-19"/>
<text text-anchor="middle" x="265.5" y="-7" font-family="Helvetica,sans-Serif" font-size="10.00">FMC_attributes.h</text>
</a>
</g>
</g>
<!-- Node5&#45;&gt;Node8 -->
<g id="edge7" class="edge">
<title>Node5&#45;&gt;Node8</title>
<path fill="none" stroke="#63b8ff" d="M217.94,-54.84C224.98,-46.17 235.36,-35.08 244.73,-26.15"/>
<polygon fill="#63b8ff" stroke="#63b8ff" points="247.25,-28.59 252.27,-19.27 242.53,-23.42 247.25,-28.59"/>
</g>
<!-- Node8&#45;&gt;Node5 -->
<g id="edge8" class="edge">
<title>Node8&#45;&gt;Node5</title>
<path fill="none" stroke="#63b8ff" d="M262.24,-19.27C256.79,-26.76 246.88,-37.86 237.08,-47.67"/>
<polygon fill="#63b8ff" stroke="#63b8ff" points="234.43,-45.36 229.69,-54.84 239.31,-50.39 234.43,-45.36"/>
</g>
</g>
</svg>
