<?xml version="1.0" encoding="UTF-8" standalone="no"?>
<!DOCTYPE svg PUBLIC "-//W3C//DTD SVG 1.1//EN"
 "http://www.w3.org/Graphics/SVG/1.1/DTD/svg11.dtd">
<!-- Generated by graphviz version 7.1.0 (20230121.1956)
 -->
<!-- Title: src/files/FMC_file_management.h Pages: 1 -->
<svg width="324pt" height="93pt"
 viewBox="0.00 0.00 324.00 93.00" xmlns="http://www.w3.org/2000/svg" xmlns:xlink="http://www.w3.org/1999/xlink">
<g id="graph0" class="graph" transform="scale(1 1) rotate(0) translate(4 89)">
<title>src/files/FMC_file_management.h</title>
<!-- Node1 -->
<g id="node1" class="node">
<title>Node1</title>
<g id="a_node1"><a xlink:title=" ">
<polygon fill="#999999" stroke="#666666" points="179,-85 87,-85 87,-55 179,-55 179,-85"/>
<text text-anchor="start" x="95" y="-73" font-family="Helvetica,sans-Serif" font-size="10.00">src/files/FMC_file</text>
<text text-anchor="middle" x="133" y="-62" font-family="Helvetica,sans-Serif" font-size="10.00">_management.h</text>
</a>
</g>
</g>
<!-- Node2 -->
<g id="node2" class="node">
<title>Node2</title>
<g id="a_node2"><a xlink:href="../../d9/d0f/_f_m_c_8h.html" target="_top" xlink:title=" ">
<polygon fill="white" stroke="#666666" points="62,-19 0,-19 0,0 62,0 62,-19"/>
<text text-anchor="middle" x="31" y="-7" font-family="Helvetica,sans-Serif" font-size="10.00">src/FMC.h</text>
</a>
</g>
</g>
<!-- Node1&#45;&gt;Node2 -->
<g id="edge1" class="edge">
<title>Node1&#45;&gt;Node2</title>
<path fill="none" stroke="#63b8ff" d="M97.86,-48.84C80.32,-38.79 60.02,-27.14 46.42,-19.35"/>
<polygon fill="#63b8ff" stroke="#63b8ff" points="96.06,-51.85 106.47,-53.79 99.54,-45.78 96.06,-51.85"/>
</g>
<!-- Node3 -->
<g id="node3" class="node">
<title>Node3</title>
<g id="a_node3"><a xlink:href="../../d6/dc6/_f_m_c__files_8c.html" target="_top" xlink:title=" ">
<polygon fill="white" stroke="#666666" points="185.5,-19 80.5,-19 80.5,0 185.5,0 185.5,-19"/>
<text text-anchor="middle" x="133" y="-7" font-family="Helvetica,sans-Serif" font-size="10.00">src/files/FMC_files.c</text>
</a>
</g>
</g>
<!-- Node1&#45;&gt;Node3 -->
<g id="edge2" class="edge">
<title>Node1&#45;&gt;Node3</title>
<path fill="none" stroke="#63b8ff" d="M133,-43.3C133,-34.65 133,-25.58 133,-19.18"/>
<polygon fill="#63b8ff" stroke="#63b8ff" points="129.5,-43.03 133,-53.03 136.5,-43.03 129.5,-43.03"/>
</g>
<!-- Node4 -->
<g id="node4" class="node">
<title>Node4</title>
<g id="a_node4"><a xlink:href="../../da/d92/_f_m_c__paths_8c.html" target="_top" xlink:title=" ">
<polygon fill="white" stroke="#666666" points="316,-19 204,-19 204,0 316,0 316,-19"/>
<text text-anchor="middle" x="260" y="-7" font-family="Helvetica,sans-Serif" font-size="10.00">src/files/FMC_paths.c</text>
</a>
</g>
</g>
<!-- Node1&#45;&gt;Node4 -->
<g id="edge3" class="edge">
<title>Node1&#45;&gt;Node4</title>
<path fill="none" stroke="#63b8ff" d="M174.63,-49.83C196.92,-39.55 223.32,-27.4 240.8,-19.35"/>
<polygon fill="#63b8ff" stroke="#63b8ff" points="173.39,-46.54 165.77,-53.91 176.32,-52.9 173.39,-46.54"/>
</g>
</g>
</svg>
