<?xml version="1.0" encoding="UTF-8" standalone="no"?>
<!DOCTYPE svg PUBLIC "-//W3C//DTD SVG 1.1//EN"
 "http://www.w3.org/Graphics/SVG/1.1/DTD/svg11.dtd">
<!-- Generated by graphviz version 7.1.0 (20230121.1956)
 -->
<!-- Title: FManC_CStrView Pages: 1 -->
<svg width="118pt" height="115pt"
 viewBox="0.00 0.00 117.50 115.00" xmlns="http://www.w3.org/2000/svg" xmlns:xlink="http://www.w3.org/1999/xlink">
<g id="graph0" class="graph" transform="scale(1 1) rotate(0) translate(4 111)">
<title>FManC_CStrView</title>
<!-- Node1 -->
<g id="node1" class="node">
<title>Node1</title>
<g id="a_node1"><a xlink:title=" ">
<polygon fill="#999999" stroke="#666666" points="103.5,-30 6.5,-30 6.5,0 103.5,0 103.5,-30"/>
<text text-anchor="middle" x="55" y="-18" font-family="Helvetica,sans-Serif" font-size="10.00">{FManC_CStrView</text>
<text text-anchor="middle" x="55" y="-7" font-family="Helvetica,sans-Serif" font-size="10.00">||}</text>
</a>
</g>
</g>
<!-- Node2 -->
<g id="node2" class="node">
<title>Node2</title>
<g id="a_node2"><a xlink:title=" ">
<polygon fill="white" stroke="#666666" points="46,-107 0,-107 0,-77 46,-77 46,-107"/>
<text text-anchor="middle" x="23" y="-95" font-family="Helvetica,sans-Serif" font-size="10.00">{size_t</text>
<text text-anchor="middle" x="23" y="-84" font-family="Helvetica,sans-Serif" font-size="10.00">||}</text>
</a>
</g>
</g>
<!-- Node2&#45;&gt;Node1 -->
<g id="edge1" class="edge">
<title>Node2&#45;&gt;Node1</title>
<path fill="none" stroke="#404040" d="M26.86,-76.8C29.35,-68.29 32.9,-57.35 37,-48 37.9,-45.95 38.89,-43.87 39.93,-41.79"/>
<polygon fill="none" stroke="#404040" points="39.98,-41.69 39.33,-34.51 45.7,-31.14 46.36,-38.32 39.98,-41.69"/>
<text text-anchor="middle" x="51" y="-51" font-family="Helvetica,sans-Serif" font-size="10.00"> +size</text>
</g>
<!-- Node3 -->
<g id="node3" class="node">
<title>Node3</title>
<g id="a_node3"><a xlink:title=" ">
<polygon fill="white" stroke="#666666" points="109.5,-107 64.5,-107 64.5,-77 109.5,-77 109.5,-107"/>
<text text-anchor="middle" x="87" y="-95" font-family="Helvetica,sans-Serif" font-size="10.00">{char *</text>
<text text-anchor="middle" x="87" y="-84" font-family="Helvetica,sans-Serif" font-size="10.00">||}</text>
</a>
</g>
</g>
<!-- Node3&#45;&gt;Node1 -->
<g id="edge2" class="edge">
<title>Node3&#45;&gt;Node1</title>
<path fill="none" stroke="#404040" d="M80.83,-76.54C76.67,-66.79 71.06,-53.64 66.13,-42.09"/>
<polygon fill="none" stroke="#404040" points="66.21,-42.28 60.18,-38.33 61.5,-31.25 67.54,-35.19 66.21,-42.28"/>
<text text-anchor="middle" x="82.5" y="-51" font-family="Helvetica,sans-Serif" font-size="10.00"> +str</text>
</g>
</g>
</svg>
