<?xml version="1.0" encoding="UTF-8" standalone="no"?>
<!DOCTYPE svg PUBLIC "-//W3C//DTD SVG 1.1//EN"
 "http://www.w3.org/Graphics/SVG/1.1/DTD/svg11.dtd">
<!-- Generated by graphviz version 7.1.0 (20230121.1956)
 -->
<!-- Title: FMC_setTextStyleToBold Pages: 1 -->
<svg width="603pt" height="508pt"
 viewBox="0.00 0.00 603.00 508.00" xmlns="http://www.w3.org/2000/svg" xmlns:xlink="http://www.w3.org/1999/xlink">
<g id="graph0" class="graph" transform="scale(1 1) rotate(0) translate(4 504)">
<title>FMC_setTextStyleToBold</title>
<!-- Node1 -->
<g id="node1" class="node">
<title>Node1</title>
<g id="a_node1"><a xlink:title=" ">
<polygon fill="#999999" stroke="#666666" points="595,-259 467,-259 467,-240 595,-240 595,-259"/>
<text text-anchor="middle" x="531" y="-247" font-family="Helvetica,sans-Serif" font-size="10.00">FMC_setTextStyleToBold</text>
</a>
</g>
</g>
<!-- Node2 -->
<g id="node2" class="node">
<title>Node2</title>
<g id="a_node2"><a xlink:href="../../dc/de1/_f_m_c__errors_8h.html#a5820ba295df9ea6e2dd3df119a90396f" target="_top" xlink:title=" ">
<polygon fill="white" stroke="#666666" points="409,-500 307,-500 307,-481 409,-481 409,-500"/>
<text text-anchor="middle" x="358" y="-488" font-family="Helvetica,sans-Serif" font-size="10.00">FMC_printBlueError</text>
</a>
</g>
</g>
<!-- Node1&#45;&gt;Node2 -->
<g id="edge1" class="edge">
<title>Node1&#45;&gt;Node2</title>
<path fill="none" stroke="#63b8ff" d="M526.89,-270.68C519.19,-315.17 495.04,-418.67 431,-472.5 424.79,-477.72 417.27,-481.47 409.47,-484.14"/>
<polygon fill="#63b8ff" stroke="#63b8ff" points="530.34,-271.25 528.47,-260.83 523.43,-270.15 530.34,-271.25"/>
</g>
<!-- Node3 -->
<g id="node3" class="node">
<title>Node3</title>
<g id="a_node3"><a xlink:href="../../dc/de1/_f_m_c__errors_8h.html#a69d43ae7c72935565e2f6d5848c7b371" target="_top" xlink:title=" ">
<polygon fill="white" stroke="#666666" points="422,-463 294,-463 294,-444 422,-444 422,-463"/>
<text text-anchor="middle" x="358" y="-451" font-family="Helvetica,sans-Serif" font-size="10.00">FMC_printBrightBlueError</text>
</a>
</g>
</g>
<!-- Node1&#45;&gt;Node3 -->
<g id="edge2" class="edge">
<title>Node1&#45;&gt;Node3</title>
<path fill="none" stroke="#63b8ff" d="M524.94,-270.33C514.42,-309.08 486.4,-392.21 431,-435.5 426.84,-438.75 422.16,-441.43 417.24,-443.62"/>
<polygon fill="#63b8ff" stroke="#63b8ff" points="528.27,-271.44 527.38,-260.89 521.49,-269.69 528.27,-271.44"/>
</g>
<!-- Node4 -->
<g id="node4" class="node">
<title>Node4</title>
<g id="a_node4"><a xlink:href="../../dc/de1/_f_m_c__errors_8h.html#af08f34aa818a9a290a6b5efc5949cc0a" target="_top" xlink:title=" ">
<polygon fill="white" stroke="#666666" points="423.5,-426 292.5,-426 292.5,-407 423.5,-407 423.5,-426"/>
<text text-anchor="middle" x="358" y="-414" font-family="Helvetica,sans-Serif" font-size="10.00">FMC_printBrightCyanError</text>
</a>
</g>
</g>
<!-- Node1&#45;&gt;Node4 -->
<g id="edge3" class="edge">
<title>Node1&#45;&gt;Node4</title>
<path fill="none" stroke="#63b8ff" d="M522.27,-269.75C508.82,-302.14 478,-365.32 431,-398.5 426.37,-401.77 421.2,-404.45 415.82,-406.64"/>
<polygon fill="#63b8ff" stroke="#63b8ff" points="525.41,-271.31 525.87,-260.73 518.91,-268.72 525.41,-271.31"/>
</g>
<!-- Node5 -->
<g id="node5" class="node">
<title>Node5</title>
<g id="a_node5"><a xlink:href="../../dc/de1/_f_m_c__errors_8h.html#a133abc0a18c0f9f52d027fa9dad3f21f" target="_top" xlink:title=" ">
<polygon fill="white" stroke="#666666" points="425,-389 291,-389 291,-370 425,-370 425,-389"/>
<text text-anchor="middle" x="358" y="-377" font-family="Helvetica,sans-Serif" font-size="10.00">FMC_printBrightGreenError</text>
</a>
</g>
</g>
<!-- Node1&#45;&gt;Node5 -->
<g id="edge4" class="edge">
<title>Node1&#45;&gt;Node5</title>
<path fill="none" stroke="#63b8ff" d="M518.2,-268.96C501.82,-294.24 469.81,-337.92 431,-361.5 425.71,-364.71 419.88,-367.35 413.89,-369.52"/>
<polygon fill="#63b8ff" stroke="#63b8ff" points="521.06,-270.97 523.42,-260.65 515.14,-267.25 521.06,-270.97"/>
</g>
<!-- Node6 -->
<g id="node6" class="node">
<title>Node6</title>
<g id="a_node6"><a xlink:href="../../dc/de1/_f_m_c__errors_8h.html#a8b30c700dfc669e1bd513a249cf10870" target="_top" xlink:title=" ">
<polygon fill="white" stroke="#666666" points="431,-352 285,-352 285,-333 431,-333 431,-352"/>
<text text-anchor="middle" x="358" y="-340" font-family="Helvetica,sans-Serif" font-size="10.00">FMC_printBrightMagentaError</text>
</a>
</g>
</g>
<!-- Node1&#45;&gt;Node6 -->
<g id="edge5" class="edge">
<title>Node1&#45;&gt;Node6</title>
<path fill="none" stroke="#63b8ff" d="M511.75,-266.99C492.95,-284.08 462.09,-309.61 431,-324.5 424.38,-327.67 417.13,-330.32 409.87,-332.53"/>
<polygon fill="#63b8ff" stroke="#63b8ff" points="513.9,-269.77 518.85,-260.4 509.14,-264.64 513.9,-269.77"/>
</g>
<!-- Node7 -->
<g id="node7" class="node">
<title>Node7</title>
<g id="a_node7"><a xlink:href="../../dc/de1/_f_m_c__errors_8h.html#aa53062880249a772fa5af75cbb637d14" target="_top" xlink:title=" ">
<polygon fill="white" stroke="#666666" points="420.5,-315 295.5,-315 295.5,-296 420.5,-296 420.5,-315"/>
<text text-anchor="middle" x="358" y="-303" font-family="Helvetica,sans-Serif" font-size="10.00">FMC_printBrightRedError</text>
</a>
</g>
</g>
<!-- Node1&#45;&gt;Node7 -->
<g id="edge6" class="edge">
<title>Node1&#45;&gt;Node7</title>
<path fill="none" stroke="#63b8ff" d="M496.18,-263.65C477.21,-271.29 453.01,-280.55 431,-287.5 421.78,-290.41 411.79,-293.16 402.26,-295.59"/>
<polygon fill="#63b8ff" stroke="#63b8ff" points="497.34,-266.96 505.28,-259.95 494.7,-260.48 497.34,-266.96"/>
</g>
<!-- Node12 -->
<g id="node12" class="node">
<title>Node12</title>
<g id="a_node12"><a xlink:href="../../dc/de1/_f_m_c__errors_8h.html#affdab952330911966f092113573bc8f7" target="_top" xlink:title=" ">
<polygon fill="white" stroke="#666666" points="425,-278 291,-278 291,-259 425,-259 425,-278"/>
<text text-anchor="middle" x="358" y="-266" font-family="Helvetica,sans-Serif" font-size="10.00">FMC_printBrightWhiteError</text>
</a>
</g>
</g>
<!-- Node1&#45;&gt;Node12 -->
<g id="edge12" class="edge">
<title>Node1&#45;&gt;Node12</title>
<path fill="none" stroke="#63b8ff" d="M455.58,-257.77C445.53,-258.89 435.27,-260.03 425.37,-261.13"/>
<polygon fill="#63b8ff" stroke="#63b8ff" points="455.76,-261.27 465.31,-256.69 454.98,-254.31 455.76,-261.27"/>
</g>
<!-- Node13 -->
<g id="node13" class="node">
<title>Node13</title>
<g id="a_node13"><a xlink:href="../../dc/de1/_f_m_c__errors_8h.html#a8a9d04ab3b4e6f06e7eead7abd20581c" target="_top" xlink:title=" ">
<polygon fill="white" stroke="#666666" points="426.5,-241 289.5,-241 289.5,-222 426.5,-222 426.5,-241"/>
<text text-anchor="middle" x="358" y="-229" font-family="Helvetica,sans-Serif" font-size="10.00">FMC_printBrightYellowError</text>
</a>
</g>
</g>
<!-- Node1&#45;&gt;Node13 -->
<g id="edge13" class="edge">
<title>Node1&#45;&gt;Node13</title>
<path fill="none" stroke="#63b8ff" d="M455.67,-241.68C446.07,-240.67 436.29,-239.64 426.81,-238.64"/>
<polygon fill="#63b8ff" stroke="#63b8ff" points="455,-245.12 465.31,-242.69 455.73,-238.16 455,-245.12"/>
</g>
<!-- Node14 -->
<g id="node14" class="node">
<title>Node14</title>
<g id="a_node14"><a xlink:href="../../dc/de1/_f_m_c__errors_8h.html#adde48fd1fee52588fc8c415ffee6cbf4" target="_top" xlink:title=" ">
<polygon fill="white" stroke="#666666" points="410.5,-204 305.5,-204 305.5,-185 410.5,-185 410.5,-204"/>
<text text-anchor="middle" x="358" y="-192" font-family="Helvetica,sans-Serif" font-size="10.00">FMC_printCyanError</text>
</a>
</g>
</g>
<!-- Node1&#45;&gt;Node14 -->
<g id="edge15" class="edge">
<title>Node1&#45;&gt;Node14</title>
<path fill="none" stroke="#63b8ff" d="M495.38,-235.47C476.53,-228.1 452.68,-219.24 431,-212.5 421.77,-209.63 411.77,-206.9 402.24,-204.47"/>
<polygon fill="#63b8ff" stroke="#63b8ff" points="493.86,-238.63 504.45,-239.05 496.43,-232.12 493.86,-238.63"/>
</g>
<!-- Node15 -->
<g id="node15" class="node">
<title>Node15</title>
<g id="a_node15"><a xlink:href="../../dc/de1/_f_m_c__errors_8h.html#a3c06d7ced3399b1c6908f9d7fb1a3001" target="_top" xlink:title=" ">
<polygon fill="white" stroke="#666666" points="412.5,-167 303.5,-167 303.5,-148 412.5,-148 412.5,-167"/>
<text text-anchor="middle" x="358" y="-155" font-family="Helvetica,sans-Serif" font-size="10.00">FMC_printGreenError</text>
</a>
</g>
</g>
<!-- Node1&#45;&gt;Node15 -->
<g id="edge16" class="edge">
<title>Node1&#45;&gt;Node15</title>
<path fill="none" stroke="#63b8ff" d="M511.4,-231.98C492.54,-215.13 461.82,-190.14 431,-175.5 424.25,-172.29 416.86,-169.62 409.47,-167.39"/>
<polygon fill="#63b8ff" stroke="#63b8ff" points="508.79,-234.34 518.54,-238.49 513.51,-229.16 508.79,-234.34"/>
</g>
<!-- Node16 -->
<g id="node16" class="node">
<title>Node16</title>
<g id="a_node16"><a xlink:href="../../dc/de1/_f_m_c__errors_8h.html#a5baf70d47076d8a69e144a29f96aaa83" target="_top" xlink:title=" ">
<polygon fill="white" stroke="#666666" points="418,-130 298,-130 298,-111 418,-111 418,-130"/>
<text text-anchor="middle" x="358" y="-118" font-family="Helvetica,sans-Serif" font-size="10.00">FMC_printMagentaError</text>
</a>
</g>
</g>
<!-- Node1&#45;&gt;Node16 -->
<g id="edge17" class="edge">
<title>Node1&#45;&gt;Node16</title>
<path fill="none" stroke="#63b8ff" d="M518.15,-230.22C501.73,-205.16 469.67,-161.88 431,-138.5 425.6,-135.23 419.62,-132.56 413.5,-130.37"/>
<polygon fill="#63b8ff" stroke="#63b8ff" points="515.07,-231.89 523.39,-238.45 520.98,-228.13 515.07,-231.89"/>
</g>
<!-- Node17 -->
<g id="node17" class="node">
<title>Node17</title>
<g id="a_node17"><a xlink:href="../../dc/de1/_f_m_c__errors_8h.html#a7e1dc9f65cdc87f4553b3df4e8a886d6" target="_top" xlink:title=" ">
<polygon fill="white" stroke="#666666" points="408,-93 308,-93 308,-74 408,-74 408,-93"/>
<text text-anchor="middle" x="358" y="-81" font-family="Helvetica,sans-Serif" font-size="10.00">FMC_printRedError</text>
</a>
</g>
</g>
<!-- Node1&#45;&gt;Node17 -->
<g id="edge18" class="edge">
<title>Node1&#45;&gt;Node17</title>
<path fill="none" stroke="#63b8ff" d="M522.23,-229.39C508.73,-197.21 477.84,-134.45 431,-101.5 424.26,-96.76 416.38,-93.26 408.37,-90.68"/>
<polygon fill="#63b8ff" stroke="#63b8ff" points="518.85,-230.38 525.84,-238.34 525.34,-227.76 518.85,-230.38"/>
</g>
<!-- Node18 -->
<g id="node18" class="node">
<title>Node18</title>
<g id="a_node18"><a xlink:href="../../dc/de1/_f_m_c__errors_8h.html#a1e2616f3954e78e99866f2d3c12303c6" target="_top" xlink:title=" ">
<polygon fill="white" stroke="#666666" points="412,-56 304,-56 304,-37 412,-37 412,-56"/>
<text text-anchor="middle" x="358" y="-44" font-family="Helvetica,sans-Serif" font-size="10.00">FMC_printWhiteError</text>
</a>
</g>
</g>
<!-- Node1&#45;&gt;Node18 -->
<g id="edge19" class="edge">
<title>Node1&#45;&gt;Node18</title>
<path fill="none" stroke="#63b8ff" d="M524.84,-228.53C514.2,-189.88 486.1,-107.46 431,-64.5 425.51,-60.22 419.14,-56.95 412.49,-54.44"/>
<polygon fill="#63b8ff" stroke="#63b8ff" points="521.44,-229.38 527.36,-238.17 528.22,-227.61 521.44,-229.38"/>
</g>
<!-- Node19 -->
<g id="node19" class="node">
<title>Node19</title>
<g id="a_node19"><a xlink:href="../../dc/de1/_f_m_c__errors_8h.html#a44368b2a61e244b3d4260be1acd248d3" target="_top" xlink:title=" ">
<polygon fill="white" stroke="#666666" points="413.5,-19 302.5,-19 302.5,0 413.5,0 413.5,-19"/>
<text text-anchor="middle" x="358" y="-7" font-family="Helvetica,sans-Serif" font-size="10.00">FMC_printYellowError</text>
</a>
</g>
</g>
<!-- Node1&#45;&gt;Node19 -->
<g id="edge20" class="edge">
<title>Node1&#45;&gt;Node19</title>
<path fill="none" stroke="#63b8ff" d="M526.86,-228.42C519.1,-184.12 494.85,-81.08 431,-27.5 425.97,-23.28 420.08,-20.02 413.88,-17.52"/>
<polygon fill="#63b8ff" stroke="#63b8ff" points="523.39,-228.91 528.45,-238.22 530.3,-227.79 523.39,-228.91"/>
</g>
<!-- Node8 -->
<g id="node8" class="node">
<title>Node8</title>
<g id="a_node8"><a xlink:href="../../da/d92/_f_m_c__paths_8c.html#a93ee980e87b59d6a3af6e5d4f1ec7ac0" target="_top" xlink:title=" ">
<polygon fill="white" stroke="#666666" points="240.5,-354 144.5,-354 144.5,-335 240.5,-335 240.5,-354"/>
<text text-anchor="middle" x="192.5" y="-342" font-family="Helvetica,sans-Serif" font-size="10.00">FMC_cutFilename</text>
</a>
</g>
</g>
<!-- Node7&#45;&gt;Node8 -->
<g id="edge7" class="edge">
<title>Node7&#45;&gt;Node8</title>
<path fill="none" stroke="#63b8ff" d="M304.33,-318.06C282.02,-323.39 256.38,-329.5 235.39,-334.51"/>
<polygon fill="#63b8ff" stroke="#63b8ff" points="304.93,-321.52 313.85,-315.79 303.31,-314.71 304.93,-321.52"/>
</g>
<!-- Node9 -->
<g id="node9" class="node">
<title>Node9</title>
<g id="a_node9"><a xlink:href="../../da/d92/_f_m_c__paths_8c.html#a1fa62fd52b6e1fa12794f480d51ba683" target="_top" xlink:title="Gets the filename from a complete path.">
<polygon fill="white" stroke="#666666" points="249,-317 136,-317 136,-298 249,-298 249,-317"/>
<text text-anchor="middle" x="192.5" y="-305" font-family="Helvetica,sans-Serif" font-size="10.00">FMC_extractFilename</text>
</a>
</g>
</g>
<!-- Node7&#45;&gt;Node9 -->
<g id="edge8" class="edge">
<title>Node7&#45;&gt;Node9</title>
<path fill="none" stroke="#63b8ff" d="M283.78,-306.4C272.27,-306.54 260.53,-306.68 249.49,-306.82"/>
<polygon fill="#63b8ff" stroke="#63b8ff" points="283.72,-309.9 293.67,-306.27 283.63,-302.9 283.72,-309.9"/>
</g>
<!-- Node10 -->
<g id="node10" class="node">
<title>Node10</title>
<g id="a_node10"><a xlink:href="../../da/d92/_f_m_c__paths_8c.html#ab8632eb234af95cea6075bc166278cff" target="_top" xlink:title=" ">
<polygon fill="white" stroke="#666666" points="100,-298 0,-298 0,-279 100,-279 100,-298"/>
<text text-anchor="middle" x="50" y="-286" font-family="Helvetica,sans-Serif" font-size="10.00">FMC_getExtension</text>
</a>
</g>
</g>
<!-- Node7&#45;&gt;Node10 -->
<g id="edge11" class="edge">
<title>Node7&#45;&gt;Node10</title>
<path fill="none" stroke="#63b8ff" d="M288.64,-293.88C275.52,-292.07 261.86,-290.48 249,-289.5 198.44,-285.65 140.41,-285.9 100.31,-286.81"/>
<polygon fill="#63b8ff" stroke="#63b8ff" points="288.11,-297.34 298.5,-295.29 289.1,-290.41 288.11,-297.34"/>
</g>
<!-- Node11 -->
<g id="node11" class="node">
<title>Node11</title>
<g id="a_node11"><a xlink:href="../../da/da9/_f_m_c__encodings_8c.html#ac43872885563da059b7870132977db9d" target="_top" xlink:title=" ">
<polygon fill="white" stroke="#666666" points="241,-241 144,-241 144,-222 241,-222 241,-241"/>
<text text-anchor="middle" x="192.5" y="-229" font-family="Helvetica,sans-Serif" font-size="10.00">FMC_getEncoding</text>
</a>
</g>
</g>
<!-- Node7&#45;&gt;Node11 -->
<g id="edge10" class="edge">
<title>Node7&#45;&gt;Node11</title>
<path fill="none" stroke="#63b8ff" d="M293.83,-291.63C290.79,-290.37 287.83,-288.99 285,-287.5 266.07,-277.5 267.05,-267.01 249,-255.5 240.41,-250.03 230.36,-245.26 221.2,-241.44"/>
<polygon fill="#63b8ff" stroke="#63b8ff" points="292.36,-294.82 302.95,-294.99 294.77,-288.25 292.36,-294.82"/>
</g>
<!-- Node9&#45;&gt;Node10 -->
<g id="edge9" class="edge">
<title>Node9&#45;&gt;Node10</title>
<path fill="none" stroke="#63b8ff" d="M124.27,-298.41C116.22,-297.32 108.11,-296.22 100.38,-295.18"/>
<polygon fill="#63b8ff" stroke="#63b8ff" points="123.69,-301.86 134.07,-299.73 124.63,-294.92 123.69,-301.86"/>
</g>
<!-- Node13&#45;&gt;Node11 -->
<g id="edge14" class="edge">
<title>Node13&#45;&gt;Node11</title>
<path fill="none" stroke="#63b8ff" d="M277.64,-231.5C265.13,-231.5 252.54,-231.5 241.04,-231.5"/>
<polygon fill="#63b8ff" stroke="#63b8ff" points="277.57,-235 287.57,-231.5 277.57,-228 277.57,-235"/>
</g>
</g>
</svg>
