<?xml version="1.0" encoding="UTF-8" standalone="no"?>
<!DOCTYPE svg PUBLIC "-//W3C//DTD SVG 1.1//EN"
 "http://www.w3.org/Graphics/SVG/1.1/DTD/svg11.dtd">
<!-- Generated by graphviz version 7.1.0 (20230121.1956)
 -->
<!-- Title: FMC_printBrightWhiteText Pages: 1 -->
<svg width="323pt" height="76pt"
 viewBox="0.00 0.00 323.00 75.50" xmlns="http://www.w3.org/2000/svg" xmlns:xlink="http://www.w3.org/1999/xlink">
<g id="graph0" class="graph" transform="scale(1 1) rotate(0) translate(4 71.5)">
<title>FMC_printBrightWhiteText</title>
<!-- Node1 -->
<g id="node1" class="node">
<title>Node1</title>
<g id="a_node1"><a xlink:title=" ">
<polygon fill="#999999" stroke="#666666" points="131,-40 0,-40 0,-21 131,-21 131,-40"/>
<text text-anchor="middle" x="65.5" y="-28" font-family="Helvetica,sans-Serif" font-size="10.00">FMC_printBrightWhiteText</text>
</a>
</g>
</g>
<!-- Node2 -->
<g id="node2" class="node">
<title>Node2</title>
<g id="a_node2"><a xlink:href="../../dc/de1/_f_m_c__errors_8h.html#a688870ccf4e322ce9dcf56cd9a1011dc" target="_top" xlink:title=" ">
<polygon fill="white" stroke="#666666" points="314.5,-67.5 167.5,-67.5 167.5,-37.5 314.5,-37.5 314.5,-67.5"/>
<text text-anchor="start" x="175.5" y="-55.5" font-family="Helvetica,sans-Serif" font-size="10.00">FMC_changeStreamTextColor</text>
<text text-anchor="middle" x="241" y="-44.5" font-family="Helvetica,sans-Serif" font-size="10.00">ToBrightWhite</text>
</a>
</g>
</g>
<!-- Node1&#45;&gt;Node2 -->
<g id="edge1" class="edge">
<title>Node1&#45;&gt;Node2</title>
<path fill="none" stroke="#63b8ff" d="M131.1,-38.69C139.19,-39.72 147.54,-40.78 155.87,-41.83"/>
<polygon fill="#63b8ff" stroke="#63b8ff" points="155.3,-45.29 165.67,-43.07 156.18,-38.34 155.3,-45.29"/>
</g>
<!-- Node3 -->
<g id="node3" class="node">
<title>Node3</title>
<g id="a_node3"><a xlink:href="../../dc/de1/_f_m_c__errors_8h.html#a5dac1ddff314ba7b3bed3d87eb3f19f5" target="_top" xlink:title=" ">
<polygon fill="white" stroke="#666666" points="315,-19 167,-19 167,0 315,0 315,-19"/>
<text text-anchor="middle" x="241" y="-7" font-family="Helvetica,sans-Serif" font-size="10.00">FMC_resetStreamOutputStyle</text>
</a>
</g>
</g>
<!-- Node1&#45;&gt;Node3 -->
<g id="edge2" class="edge">
<title>Node1&#45;&gt;Node3</title>
<path fill="none" stroke="#63b8ff" d="M131.1,-22.68C138.96,-21.73 147.08,-20.75 155.18,-19.77"/>
<polygon fill="#63b8ff" stroke="#63b8ff" points="155.57,-23.25 165.07,-18.57 154.73,-16.3 155.57,-23.25"/>
</g>
</g>
</svg>
