<?xml version="1.0" encoding="UTF-8" standalone="no"?>
<!DOCTYPE svg PUBLIC "-//W3C//DTD SVG 1.1//EN"
 "http://www.w3.org/Graphics/SVG/1.1/DTD/svg11.dtd">
<!-- Generated by graphviz version 7.1.0 (20230121.1956)
 -->
<!-- Title: FMC_changeStreamTextColorToRed Pages: 1 -->
<svg width="291pt" height="64pt"
 viewBox="0.00 0.00 291.00 64.00" xmlns="http://www.w3.org/2000/svg" xmlns:xlink="http://www.w3.org/1999/xlink">
<g id="graph0" class="graph" transform="scale(1 1) rotate(0) translate(4 60)">
<title>FMC_changeStreamTextColorToRed</title>
<!-- Node1 -->
<g id="node1" class="node">
<title>Node1</title>
<g id="a_node1"><a xlink:title=" ">
<polygon fill="#999999" stroke="#666666" points="283,-42.5 136,-42.5 136,-12.5 283,-12.5 283,-42.5"/>
<text text-anchor="start" x="144" y="-30.5" font-family="Helvetica,sans-Serif" font-size="10.00">FMC_changeStreamTextColor</text>
<text text-anchor="middle" x="209.5" y="-19.5" font-family="Helvetica,sans-Serif" font-size="10.00">ToRed</text>
</a>
</g>
</g>
<!-- Node2 -->
<g id="node2" class="node">
<title>Node2</title>
<g id="a_node2"><a xlink:href="../../dc/de1/_f_m_c__errors_8h.html#a7e1dc9f65cdc87f4553b3df4e8a886d6" target="_top" xlink:title=" ">
<polygon fill="white" stroke="#666666" points="100,-56 0,-56 0,-37 100,-37 100,-56"/>
<text text-anchor="middle" x="50" y="-44" font-family="Helvetica,sans-Serif" font-size="10.00">FMC_printRedError</text>
</a>
</g>
</g>
<!-- Node1&#45;&gt;Node2 -->
<g id="edge1" class="edge">
<title>Node1&#45;&gt;Node2</title>
<path fill="none" stroke="#63b8ff" d="M124.39,-37.65C116.07,-38.65 107.84,-39.64 100.05,-40.58"/>
<polygon fill="#63b8ff" stroke="#63b8ff" points="124.73,-41.13 134.24,-36.46 123.89,-34.18 124.73,-41.13"/>
</g>
<!-- Node3 -->
<g id="node3" class="node">
<title>Node3</title>
<g id="a_node3"><a xlink:href="../../dc/de1/_f_m_c__errors_8h.html#ae3c3c0d47d890c38b0930fe0afc0e011" target="_top" xlink:title=" ">
<polygon fill="white" stroke="#666666" points="99,-19 1,-19 1,0 99,0 99,-19"/>
<text text-anchor="middle" x="50" y="-7" font-family="Helvetica,sans-Serif" font-size="10.00">FMC_printRedText</text>
</a>
</g>
</g>
<!-- Node1&#45;&gt;Node3 -->
<g id="edge2" class="edge">
<title>Node1&#45;&gt;Node3</title>
<path fill="none" stroke="#63b8ff" d="M124.38,-17.89C115.74,-16.9 107.19,-15.92 99.15,-15"/>
<polygon fill="#63b8ff" stroke="#63b8ff" points="123.91,-21.35 134.24,-19.01 124.7,-14.4 123.91,-21.35"/>
</g>
</g>
</svg>
