<?xml version="1.0" encoding="UTF-8" standalone="no"?>
<!DOCTYPE svg PUBLIC "-//W3C//DTD SVG 1.1//EN"
 "http://www.w3.org/Graphics/SVG/1.1/DTD/svg11.dtd">
<!-- Generated by graphviz version 7.1.0 (20230121.1956)
 -->
<!-- Title: FMC_printYellowText Pages: 1 -->
<svg width="301pt" height="76pt"
 viewBox="0.00 0.00 301.00 75.50" xmlns="http://www.w3.org/2000/svg" xmlns:xlink="http://www.w3.org/1999/xlink">
<g id="graph0" class="graph" transform="scale(1 1) rotate(0) translate(4 71.5)">
<title>FMC_printYellowText</title>
<!-- Node1 -->
<g id="node1" class="node">
<title>Node1</title>
<g id="a_node1"><a xlink:title=" ">
<polygon fill="#999999" stroke="#666666" points="109,-40 0,-40 0,-21 109,-21 109,-40"/>
<text text-anchor="middle" x="54.5" y="-28" font-family="Helvetica,sans-Serif" font-size="10.00">FMC_printYellowText</text>
</a>
</g>
</g>
<!-- Node2 -->
<g id="node2" class="node">
<title>Node2</title>
<g id="a_node2"><a xlink:href="../../dc/de1/_f_m_c__errors_8h.html#a3431d465d8b2f51b97c972c23218e7dd" target="_top" xlink:title=" ">
<polygon fill="white" stroke="#666666" points="292.5,-67.5 145.5,-67.5 145.5,-37.5 292.5,-37.5 292.5,-67.5"/>
<text text-anchor="start" x="153.5" y="-55.5" font-family="Helvetica,sans-Serif" font-size="10.00">FMC_changeStreamTextColor</text>
<text text-anchor="middle" x="219" y="-44.5" font-family="Helvetica,sans-Serif" font-size="10.00">ToYellow</text>
</a>
</g>
</g>
<!-- Node1&#45;&gt;Node2 -->
<g id="edge1" class="edge">
<title>Node1&#45;&gt;Node2</title>
<path fill="none" stroke="#63b8ff" d="M109.16,-37.76C117.19,-38.85 125.64,-40 134.12,-41.14"/>
<polygon fill="#63b8ff" stroke="#63b8ff" points="133.38,-44.58 143.76,-42.45 134.32,-37.64 133.38,-44.58"/>
</g>
<!-- Node3 -->
<g id="node3" class="node">
<title>Node3</title>
<g id="a_node3"><a xlink:href="../../dc/de1/_f_m_c__errors_8h.html#a5dac1ddff314ba7b3bed3d87eb3f19f5" target="_top" xlink:title=" ">
<polygon fill="white" stroke="#666666" points="293,-19 145,-19 145,0 293,0 293,-19"/>
<text text-anchor="middle" x="219" y="-7" font-family="Helvetica,sans-Serif" font-size="10.00">FMC_resetStreamOutputStyle</text>
</a>
</g>
</g>
<!-- Node1&#45;&gt;Node3 -->
<g id="edge2" class="edge">
<title>Node1&#45;&gt;Node3</title>
<path fill="none" stroke="#63b8ff" d="M109.16,-23.57C116.98,-22.56 125.18,-21.5 133.43,-20.43"/>
<polygon fill="#63b8ff" stroke="#63b8ff" points="133.71,-23.92 143.18,-19.17 132.81,-16.98 133.71,-23.92"/>
</g>
</g>
</svg>
