<?xml version="1.0" encoding="UTF-8" standalone="no"?>
<!DOCTYPE svg PUBLIC "-//W3C//DTD SVG 1.1//EN"
 "http://www.w3.org/Graphics/SVG/1.1/DTD/svg11.dtd">
<!-- Generated by graphviz version 7.1.0 (20230121.1956)
 -->
<!-- Title: FMC_printBrightRedError Pages: 1 -->
<svg width="418pt" height="140pt"
 viewBox="0.00 0.00 418.00 140.00" xmlns="http://www.w3.org/2000/svg" xmlns:xlink="http://www.w3.org/1999/xlink">
<g id="graph0" class="graph" transform="scale(1 1) rotate(0) translate(4 136)">
<title>FMC_printBrightRedError</title>
<!-- Node1 -->
<g id="node1" class="node">
<title>Node1</title>
<g id="a_node1"><a xlink:title=" ">
<polygon fill="#999999" stroke="#666666" points="410,-76 285,-76 285,-57 410,-57 410,-76"/>
<text text-anchor="middle" x="347.5" y="-64" font-family="Helvetica,sans-Serif" font-size="10.00">FMC_printBrightRedError</text>
</a>
</g>
</g>
<!-- Node2 -->
<g id="node2" class="node">
<title>Node2</title>
<g id="a_node2"><a xlink:href="../../da/d92/_f_m_c__paths_8c.html#a93ee980e87b59d6a3af6e5d4f1ec7ac0" target="_top" xlink:title=" ">
<polygon fill="white" stroke="#666666" points="240.5,-132 144.5,-132 144.5,-113 240.5,-113 240.5,-132"/>
<text text-anchor="middle" x="192.5" y="-120" font-family="Helvetica,sans-Serif" font-size="10.00">FMC_cutFilename</text>
</a>
</g>
</g>
<!-- Node1&#45;&gt;Node2 -->
<g id="edge1" class="edge">
<title>Node1&#45;&gt;Node2</title>
<path fill="none" stroke="#63b8ff" d="M311.62,-80.66C293.11,-88.03 269.93,-97.03 249,-104.5 241.37,-107.22 233.09,-110 225.3,-112.54"/>
<polygon fill="#63b8ff" stroke="#63b8ff" points="312.82,-83.95 320.8,-76.98 310.22,-77.45 312.82,-83.95"/>
</g>
<!-- Node3 -->
<g id="node3" class="node">
<title>Node3</title>
<g id="a_node3"><a xlink:href="../../da/d92/_f_m_c__paths_8c.html#a1fa62fd52b6e1fa12794f480d51ba683" target="_top" xlink:title="Gets the filename from a complete path.">
<polygon fill="white" stroke="#666666" points="249,-95 136,-95 136,-76 249,-76 249,-95"/>
<text text-anchor="middle" x="192.5" y="-83" font-family="Helvetica,sans-Serif" font-size="10.00">FMC_extractFilename</text>
</a>
</g>
</g>
<!-- Node1&#45;&gt;Node3 -->
<g id="edge2" class="edge">
<title>Node1&#45;&gt;Node3</title>
<path fill="none" stroke="#63b8ff" d="M273.56,-75.56C265.34,-76.58 257.06,-77.61 249.1,-78.6"/>
<polygon fill="#63b8ff" stroke="#63b8ff" points="273.72,-79.07 283.21,-74.36 272.85,-72.12 273.72,-79.07"/>
</g>
<!-- Node4 -->
<g id="node4" class="node">
<title>Node4</title>
<g id="a_node4"><a xlink:href="../../da/d92/_f_m_c__paths_8c.html#ab8632eb234af95cea6075bc166278cff" target="_top" xlink:title=" ">
<polygon fill="white" stroke="#666666" points="100,-76 0,-76 0,-57 100,-57 100,-76"/>
<text text-anchor="middle" x="50" y="-64" font-family="Helvetica,sans-Serif" font-size="10.00">FMC_getExtension</text>
</a>
</g>
</g>
<!-- Node1&#45;&gt;Node4 -->
<g id="edge5" class="edge">
<title>Node1&#45;&gt;Node4</title>
<path fill="none" stroke="#63b8ff" d="M273.33,-66.5C219.36,-66.5 147.4,-66.5 100.16,-66.5"/>
<polygon fill="#63b8ff" stroke="#63b8ff" points="273.04,-70 283.04,-66.5 273.04,-63 273.04,-70"/>
</g>
<!-- Node5 -->
<g id="node5" class="node">
<title>Node5</title>
<g id="a_node5"><a xlink:href="../../da/da9/_f_m_c__encodings_8c.html#ac43872885563da059b7870132977db9d" target="_top" xlink:title=" ">
<polygon fill="white" stroke="#666666" points="241,-19 144,-19 144,0 241,0 241,-19"/>
<text text-anchor="middle" x="192.5" y="-7" font-family="Helvetica,sans-Serif" font-size="10.00">FMC_getEncoding</text>
</a>
</g>
</g>
<!-- Node1&#45;&gt;Node5 -->
<g id="edge4" class="edge">
<title>Node1&#45;&gt;Node5</title>
<path fill="none" stroke="#63b8ff" d="M309.41,-52.68C281.81,-42.4 244.8,-28.61 220.1,-19.41"/>
<polygon fill="#63b8ff" stroke="#63b8ff" points="307.84,-55.83 318.43,-56.04 310.28,-49.27 307.84,-55.83"/>
</g>
<!-- Node3&#45;&gt;Node4 -->
<g id="edge3" class="edge">
<title>Node3&#45;&gt;Node4</title>
<path fill="none" stroke="#63b8ff" d="M124.27,-76.41C116.22,-75.32 108.11,-74.22 100.38,-73.18"/>
<polygon fill="#63b8ff" stroke="#63b8ff" points="123.69,-79.86 134.07,-77.73 124.63,-72.92 123.69,-79.86"/>
</g>
</g>
</svg>
