<?xml version="1.0" encoding="UTF-8" standalone="no"?>
<!DOCTYPE svg PUBLIC "-//W3C//DTD SVG 1.1//EN"
 "http://www.w3.org/Graphics/SVG/1.1/DTD/svg11.dtd">
<!-- Generated by graphviz version 7.1.0 (20230121.1956)
 -->
<!-- Title: FMC_printBrightGreenError Pages: 1 -->
<svg width="326pt" height="113pt"
 viewBox="0.00 0.00 326.00 112.50" xmlns="http://www.w3.org/2000/svg" xmlns:xlink="http://www.w3.org/1999/xlink">
<g id="graph0" class="graph" transform="scale(1 1) rotate(0) translate(4 108.5)">
<title>FMC_printBrightGreenError</title>
<!-- Node1 -->
<g id="node1" class="node">
<title>Node1</title>
<g id="a_node1"><a xlink:title=" ">
<polygon fill="#999999" stroke="#666666" points="134,-56 0,-56 0,-37 134,-37 134,-56"/>
<text text-anchor="middle" x="67" y="-44" font-family="Helvetica,sans-Serif" font-size="10.00">FMC_printBrightGreenError</text>
</a>
</g>
</g>
<!-- Node2 -->
<g id="node2" class="node">
<title>Node2</title>
<g id="a_node2"><a xlink:href="../../dc/de1/_f_m_c__errors_8h.html#aaa9ba0e7a25ccb25481bf9b9826917b0" target="_top" xlink:title=" ">
<polygon fill="white" stroke="#666666" points="317.5,-104.5 170.5,-104.5 170.5,-74.5 317.5,-74.5 317.5,-104.5"/>
<text text-anchor="start" x="178.5" y="-92.5" font-family="Helvetica,sans-Serif" font-size="10.00">FMC_changeStreamTextColor</text>
<text text-anchor="middle" x="244" y="-81.5" font-family="Helvetica,sans-Serif" font-size="10.00">ToBrightGreen</text>
</a>
</g>
</g>
<!-- Node1&#45;&gt;Node2 -->
<g id="edge1" class="edge">
<title>Node1&#45;&gt;Node2</title>
<path fill="none" stroke="#63b8ff" d="M108.59,-56.47C126.56,-60.89 148.28,-66.23 168.98,-71.31"/>
<polygon fill="#63b8ff" stroke="#63b8ff" points="167.99,-74.67 178.54,-73.66 169.66,-67.88 167.99,-74.67"/>
</g>
<!-- Node3 -->
<g id="node3" class="node">
<title>Node3</title>
<g id="a_node3"><a xlink:href="../../dc/de1/_f_m_c__errors_8h.html#a5dac1ddff314ba7b3bed3d87eb3f19f5" target="_top" xlink:title=" ">
<polygon fill="white" stroke="#666666" points="318,-56 170,-56 170,-37 318,-37 318,-56"/>
<text text-anchor="middle" x="244" y="-44" font-family="Helvetica,sans-Serif" font-size="10.00">FMC_resetStreamOutputStyle</text>
</a>
</g>
</g>
<!-- Node1&#45;&gt;Node3 -->
<g id="edge2" class="edge">
<title>Node1&#45;&gt;Node3</title>
<path fill="none" stroke="#63b8ff" d="M134.16,-46.5C142.05,-46.5 150.2,-46.5 158.31,-46.5"/>
<polygon fill="#63b8ff" stroke="#63b8ff" points="158.21,-50 168.21,-46.5 158.21,-43 158.21,-50"/>
</g>
<!-- Node4 -->
<g id="node4" class="node">
<title>Node4</title>
<g id="a_node4"><a xlink:href="../../dc/de1/_f_m_c__errors_8h.html#ad65d0a387448c0139270e9c628cf4126" target="_top" xlink:title=" ">
<polygon fill="white" stroke="#666666" points="308,-19 180,-19 180,0 308,0 308,-19"/>
<text text-anchor="middle" x="244" y="-7" font-family="Helvetica,sans-Serif" font-size="10.00">FMC_setTextStyleToBold</text>
</a>
</g>
</g>
<!-- Node1&#45;&gt;Node4 -->
<g id="edge3" class="edge">
<title>Node1&#45;&gt;Node4</title>
<path fill="none" stroke="#63b8ff" d="M114.9,-36.58C136.38,-32.04 162.05,-26.62 184.75,-21.81"/>
<polygon fill="#63b8ff" stroke="#63b8ff" points="185.43,-25.25 194.49,-19.76 183.99,-18.4 185.43,-25.25"/>
</g>
</g>
</svg>
