<?xml version="1.0" encoding="UTF-8" standalone="no"?>
<!DOCTYPE svg PUBLIC "-//W3C//DTD SVG 1.1//EN"
 "http://www.w3.org/Graphics/SVG/1.1/DTD/svg11.dtd">
<!-- Generated by graphviz version 7.1.0 (20230121.1956)
 -->
<!-- Title: FMC_printBrightYellowText Pages: 1 -->
<svg width="326pt" height="76pt"
 viewBox="0.00 0.00 326.00 75.50" xmlns="http://www.w3.org/2000/svg" xmlns:xlink="http://www.w3.org/1999/xlink">
<g id="graph0" class="graph" transform="scale(1 1) rotate(0) translate(4 71.5)">
<title>FMC_printBrightYellowText</title>
<!-- Node1 -->
<g id="node1" class="node">
<title>Node1</title>
<g id="a_node1"><a xlink:title=" ">
<polygon fill="#999999" stroke="#666666" points="134,-40 0,-40 0,-21 134,-21 134,-40"/>
<text text-anchor="middle" x="67" y="-28" font-family="Helvetica,sans-Serif" font-size="10.00">FMC_printBrightYellowText</text>
</a>
</g>
</g>
<!-- Node2 -->
<g id="node2" class="node">
<title>Node2</title>
<g id="a_node2"><a xlink:href="../../dc/de1/_f_m_c__errors_8h.html#ae7a53e0773baed28896abfe5743a3a68" target="_top" xlink:title=" ">
<polygon fill="white" stroke="#666666" points="317.5,-67.5 170.5,-67.5 170.5,-37.5 317.5,-37.5 317.5,-67.5"/>
<text text-anchor="start" x="178.5" y="-55.5" font-family="Helvetica,sans-Serif" font-size="10.00">FMC_changeStreamTextColor</text>
<text text-anchor="middle" x="244" y="-44.5" font-family="Helvetica,sans-Serif" font-size="10.00">ToBrightYellow</text>
</a>
</g>
</g>
<!-- Node1&#45;&gt;Node2 -->
<g id="edge1" class="edge">
<title>Node1&#45;&gt;Node2</title>
<path fill="none" stroke="#63b8ff" d="M134.16,-38.82C142.21,-39.83 150.52,-40.87 158.79,-41.91"/>
<polygon fill="#63b8ff" stroke="#63b8ff" points="158.15,-45.36 168.51,-43.14 159.03,-38.42 158.15,-45.36"/>
</g>
<!-- Node3 -->
<g id="node3" class="node">
<title>Node3</title>
<g id="a_node3"><a xlink:href="../../dc/de1/_f_m_c__errors_8h.html#a5dac1ddff314ba7b3bed3d87eb3f19f5" target="_top" xlink:title=" ">
<polygon fill="white" stroke="#666666" points="318,-19 170,-19 170,0 318,0 318,-19"/>
<text text-anchor="middle" x="244" y="-7" font-family="Helvetica,sans-Serif" font-size="10.00">FMC_resetStreamOutputStyle</text>
</a>
</g>
</g>
<!-- Node1&#45;&gt;Node3 -->
<g id="edge2" class="edge">
<title>Node1&#45;&gt;Node3</title>
<path fill="none" stroke="#63b8ff" d="M134.16,-22.56C142.05,-21.61 150.2,-20.64 158.31,-19.66"/>
<polygon fill="#63b8ff" stroke="#63b8ff" points="158.7,-23.14 168.22,-18.47 157.87,-16.19 158.7,-23.14"/>
</g>
</g>
</svg>
