<?xml version="1.0" encoding="UTF-8" standalone="no"?>
<!DOCTYPE svg PUBLIC "-//W3C//DTD SVG 1.1//EN"
 "http://www.w3.org/Graphics/SVG/1.1/DTD/svg11.dtd">
<!-- Generated by graphviz version 7.1.0 (20230121.1956)
 -->
<!-- Title: FMC_changeStreamTextColorToWhite Pages: 1 -->
<svg width="299pt" height="64pt"
 viewBox="0.00 0.00 299.00 64.00" xmlns="http://www.w3.org/2000/svg" xmlns:xlink="http://www.w3.org/1999/xlink">
<g id="graph0" class="graph" transform="scale(1 1) rotate(0) translate(4 60)">
<title>FMC_changeStreamTextColorToWhite</title>
<!-- Node1 -->
<g id="node1" class="node">
<title>Node1</title>
<g id="a_node1"><a xlink:title=" ">
<polygon fill="#999999" stroke="#666666" points="291,-42.5 144,-42.5 144,-12.5 291,-12.5 291,-42.5"/>
<text text-anchor="start" x="152" y="-30.5" font-family="Helvetica,sans-Serif" font-size="10.00">FMC_changeStreamTextColor</text>
<text text-anchor="middle" x="217.5" y="-19.5" font-family="Helvetica,sans-Serif" font-size="10.00">ToWhite</text>
</a>
</g>
</g>
<!-- Node2 -->
<g id="node2" class="node">
<title>Node2</title>
<g id="a_node2"><a xlink:href="../../dc/de1/_f_m_c__errors_8h.html#a1e2616f3954e78e99866f2d3c12303c6" target="_top" xlink:title=" ">
<polygon fill="white" stroke="#666666" points="108,-56 0,-56 0,-37 108,-37 108,-56"/>
<text text-anchor="middle" x="54" y="-44" font-family="Helvetica,sans-Serif" font-size="10.00">FMC_printWhiteError</text>
</a>
</g>
</g>
<!-- Node1&#45;&gt;Node2 -->
<g id="edge1" class="edge">
<title>Node1&#45;&gt;Node2</title>
<path fill="none" stroke="#63b8ff" d="M132.6,-37.37C124.4,-38.34 116.23,-39.3 108.46,-40.21"/>
<polygon fill="#63b8ff" stroke="#63b8ff" points="132.76,-40.88 142.28,-36.23 131.94,-33.92 132.76,-40.88"/>
</g>
<!-- Node3 -->
<g id="node3" class="node">
<title>Node3</title>
<g id="a_node3"><a xlink:href="../../dc/de1/_f_m_c__errors_8h.html#ad08b9bd97a59064bdc4350050bc04631" target="_top" xlink:title=" ">
<polygon fill="white" stroke="#666666" points="107,-19 1,-19 1,0 107,0 107,-19"/>
<text text-anchor="middle" x="54" y="-7" font-family="Helvetica,sans-Serif" font-size="10.00">FMC_printWhiteText</text>
</a>
</g>
</g>
<!-- Node1&#45;&gt;Node3 -->
<g id="edge2" class="edge">
<title>Node1&#45;&gt;Node3</title>
<path fill="none" stroke="#63b8ff" d="M132.42,-18.13C123.77,-17.16 115.17,-16.21 107.03,-15.3"/>
<polygon fill="#63b8ff" stroke="#63b8ff" points="131.95,-21.6 142.28,-19.23 132.73,-14.64 131.95,-21.6"/>
</g>
</g>
</svg>
