<?xml version="1.0" encoding="UTF-8" standalone="no"?>
<!DOCTYPE svg PUBLIC "-//W3C//DTD SVG 1.1//EN"
 "http://www.w3.org/Graphics/SVG/1.1/DTD/svg11.dtd">
<!-- Generated by graphviz version 7.1.0 (20230121.1956)
 -->
<!-- Title: FMC_printBlueError Pages: 1 -->
<svg width="294pt" height="113pt"
 viewBox="0.00 0.00 294.00 112.50" xmlns="http://www.w3.org/2000/svg" xmlns:xlink="http://www.w3.org/1999/xlink">
<g id="graph0" class="graph" transform="scale(1 1) rotate(0) translate(4 108.5)">
<title>FMC_printBlueError</title>
<!-- Node1 -->
<g id="node1" class="node">
<title>Node1</title>
<g id="a_node1"><a xlink:title=" ">
<polygon fill="#999999" stroke="#666666" points="102,-56 0,-56 0,-37 102,-37 102,-56"/>
<text text-anchor="middle" x="51" y="-44" font-family="Helvetica,sans-Serif" font-size="10.00">FMC_printBlueError</text>
</a>
</g>
</g>
<!-- Node2 -->
<g id="node2" class="node">
<title>Node2</title>
<g id="a_node2"><a xlink:href="../../dc/de1/_f_m_c__errors_8h.html#a2f277c20b9b007eefd048b8491cae6cf" target="_top" xlink:title=" ">
<polygon fill="white" stroke="#666666" points="285.5,-104.5 138.5,-104.5 138.5,-74.5 285.5,-74.5 285.5,-104.5"/>
<text text-anchor="start" x="146.5" y="-92.5" font-family="Helvetica,sans-Serif" font-size="10.00">FMC_changeStreamTextColor</text>
<text text-anchor="middle" x="212" y="-81.5" font-family="Helvetica,sans-Serif" font-size="10.00">ToBlue</text>
</a>
</g>
</g>
<!-- Node1&#45;&gt;Node2 -->
<g id="edge1" class="edge">
<title>Node1&#45;&gt;Node2</title>
<path fill="none" stroke="#63b8ff" d="M88.88,-56.47C104.91,-60.81 124.22,-66.03 142.7,-71.03"/>
<polygon fill="#63b8ff" stroke="#63b8ff" points="141.74,-74.39 152.3,-73.63 143.57,-67.64 141.74,-74.39"/>
</g>
<!-- Node3 -->
<g id="node3" class="node">
<title>Node3</title>
<g id="a_node3"><a xlink:href="../../dc/de1/_f_m_c__errors_8h.html#a5dac1ddff314ba7b3bed3d87eb3f19f5" target="_top" xlink:title=" ">
<polygon fill="white" stroke="#666666" points="286,-56 138,-56 138,-37 286,-37 286,-56"/>
<text text-anchor="middle" x="212" y="-44" font-family="Helvetica,sans-Serif" font-size="10.00">FMC_resetStreamOutputStyle</text>
</a>
</g>
</g>
<!-- Node1&#45;&gt;Node3 -->
<g id="edge2" class="edge">
<title>Node1&#45;&gt;Node3</title>
<path fill="none" stroke="#63b8ff" d="M102.31,-46.5C110.06,-46.5 118.25,-46.5 126.51,-46.5"/>
<polygon fill="#63b8ff" stroke="#63b8ff" points="126.27,-50 136.27,-46.5 126.27,-43 126.27,-50"/>
</g>
<!-- Node4 -->
<g id="node4" class="node">
<title>Node4</title>
<g id="a_node4"><a xlink:href="../../dc/de1/_f_m_c__errors_8h.html#ad65d0a387448c0139270e9c628cf4126" target="_top" xlink:title=" ">
<polygon fill="white" stroke="#666666" points="276,-19 148,-19 148,0 276,0 276,-19"/>
<text text-anchor="middle" x="212" y="-7" font-family="Helvetica,sans-Serif" font-size="10.00">FMC_setTextStyleToBold</text>
</a>
</g>
</g>
<!-- Node1&#45;&gt;Node4 -->
<g id="edge3" class="edge">
<title>Node1&#45;&gt;Node4</title>
<path fill="none" stroke="#63b8ff" d="M94.61,-36.58C113.86,-32.11 136.81,-26.76 157.23,-22.01"/>
<polygon fill="#63b8ff" stroke="#63b8ff" points="157.85,-25.46 166.8,-19.79 156.27,-18.64 157.85,-25.46"/>
</g>
</g>
</svg>
