<?xml version="1.0" encoding="UTF-8" standalone="no"?>
<!DOCTYPE svg PUBLIC "-//W3C//DTD SVG 1.1//EN"
 "http://www.w3.org/Graphics/SVG/1.1/DTD/svg11.dtd">
<!-- Generated by graphviz version 7.1.0 (20230121.1956)
 -->
<!-- Title: FMC_changeStreamTextColorToGreen Pages: 1 -->
<svg width="300pt" height="64pt"
 viewBox="0.00 0.00 300.00 64.00" xmlns="http://www.w3.org/2000/svg" xmlns:xlink="http://www.w3.org/1999/xlink">
<g id="graph0" class="graph" transform="scale(1 1) rotate(0) translate(4 60)">
<title>FMC_changeStreamTextColorToGreen</title>
<!-- Node1 -->
<g id="node1" class="node">
<title>Node1</title>
<g id="a_node1"><a xlink:title=" ">
<polygon fill="#999999" stroke="#666666" points="292,-42.5 145,-42.5 145,-12.5 292,-12.5 292,-42.5"/>
<text text-anchor="start" x="153" y="-30.5" font-family="Helvetica,sans-Serif" font-size="10.00">FMC_changeStreamTextColor</text>
<text text-anchor="middle" x="218.5" y="-19.5" font-family="Helvetica,sans-Serif" font-size="10.00">ToGreen</text>
</a>
</g>
</g>
<!-- Node2 -->
<g id="node2" class="node">
<title>Node2</title>
<g id="a_node2"><a xlink:href="../../dc/de1/_f_m_c__errors_8h.html#a3c06d7ced3399b1c6908f9d7fb1a3001" target="_top" xlink:title=" ">
<polygon fill="white" stroke="#666666" points="109,-56 0,-56 0,-37 109,-37 109,-56"/>
<text text-anchor="middle" x="54.5" y="-44" font-family="Helvetica,sans-Serif" font-size="10.00">FMC_printGreenError</text>
</a>
</g>
</g>
<!-- Node1&#45;&gt;Node2 -->
<g id="edge1" class="edge">
<title>Node1&#45;&gt;Node2</title>
<path fill="none" stroke="#63b8ff" d="M133.34,-37.37C125.11,-38.34 116.92,-39.3 109.12,-40.21"/>
<polygon fill="#63b8ff" stroke="#63b8ff" points="133.53,-40.87 143.05,-36.23 132.71,-33.92 133.53,-40.87"/>
</g>
<!-- Node3 -->
<g id="node3" class="node">
<title>Node3</title>
<g id="a_node3"><a xlink:href="../../dc/de1/_f_m_c__errors_8h.html#aca146d0de6fca1c0f6293eb08cea1dfa" target="_top" xlink:title=" ">
<polygon fill="white" stroke="#666666" points="108,-19 1,-19 1,0 108,0 108,-19"/>
<text text-anchor="middle" x="54.5" y="-7" font-family="Helvetica,sans-Serif" font-size="10.00">FMC_printGreenText</text>
</a>
</g>
</g>
<!-- Node1&#45;&gt;Node3 -->
<g id="edge2" class="edge">
<title>Node1&#45;&gt;Node3</title>
<path fill="none" stroke="#63b8ff" d="M133.31,-18.15C124.75,-17.19 116.24,-16.25 108.16,-15.35"/>
<polygon fill="#63b8ff" stroke="#63b8ff" points="132.73,-21.6 143.05,-19.23 133.5,-14.65 132.73,-21.6"/>
</g>
</g>
</svg>
