<?xml version="1.0" encoding="UTF-8" standalone="no"?>
<!DOCTYPE svg PUBLIC "-//W3C//DTD SVG 1.1//EN"
 "http://www.w3.org/Graphics/SVG/1.1/DTD/svg11.dtd">
<!-- Generated by graphviz version 7.1.0 (20230121.1956)
 -->
<!-- Title: FMC_printBrightMagentaText Pages: 1 -->
<svg width="335pt" height="76pt"
 viewBox="0.00 0.00 335.00 75.50" xmlns="http://www.w3.org/2000/svg" xmlns:xlink="http://www.w3.org/1999/xlink">
<g id="graph0" class="graph" transform="scale(1 1) rotate(0) translate(4 71.5)">
<title>FMC_printBrightMagentaText</title>
<!-- Node1 -->
<g id="node1" class="node">
<title>Node1</title>
<g id="a_node1"><a xlink:title=" ">
<polygon fill="#999999" stroke="#666666" points="143,-40 0,-40 0,-21 143,-21 143,-40"/>
<text text-anchor="middle" x="71.5" y="-28" font-family="Helvetica,sans-Serif" font-size="10.00">FMC_printBrightMagentaText</text>
</a>
</g>
</g>
<!-- Node2 -->
<g id="node2" class="node">
<title>Node2</title>
<g id="a_node2"><a xlink:href="../../dc/de1/_f_m_c__errors_8h.html#ac66dd1b13b6e381601d4c37b3a3acb9f" target="_top" xlink:title=" ">
<polygon fill="white" stroke="#666666" points="326.5,-67.5 179.5,-67.5 179.5,-37.5 326.5,-37.5 326.5,-67.5"/>
<text text-anchor="start" x="187.5" y="-55.5" font-family="Helvetica,sans-Serif" font-size="10.00">FMC_changeStreamTextColor</text>
<text text-anchor="middle" x="253" y="-44.5" font-family="Helvetica,sans-Serif" font-size="10.00">ToBrightMagenta</text>
</a>
</g>
</g>
<!-- Node1&#45;&gt;Node2 -->
<g id="edge1" class="edge">
<title>Node1&#45;&gt;Node2</title>
<path fill="none" stroke="#63b8ff" d="M143.44,-39.19C151.53,-40.19 159.83,-41.2 168.06,-42.21"/>
<polygon fill="#63b8ff" stroke="#63b8ff" points="167.36,-45.65 177.71,-43.4 168.21,-38.7 167.36,-45.65"/>
</g>
<!-- Node3 -->
<g id="node3" class="node">
<title>Node3</title>
<g id="a_node3"><a xlink:href="../../dc/de1/_f_m_c__errors_8h.html#a5dac1ddff314ba7b3bed3d87eb3f19f5" target="_top" xlink:title=" ">
<polygon fill="white" stroke="#666666" points="327,-19 179,-19 179,0 327,0 327,-19"/>
<text text-anchor="middle" x="253" y="-7" font-family="Helvetica,sans-Serif" font-size="10.00">FMC_resetStreamOutputStyle</text>
</a>
</g>
</g>
<!-- Node1&#45;&gt;Node3 -->
<g id="edge2" class="edge">
<title>Node1&#45;&gt;Node3</title>
<path fill="none" stroke="#63b8ff" d="M143.44,-22.2C151.3,-21.28 159.36,-20.34 167.37,-19.4"/>
<polygon fill="#63b8ff" stroke="#63b8ff" points="167.6,-22.9 177.12,-18.26 166.78,-15.95 167.6,-22.9"/>
</g>
</g>
</svg>
