<?xml version="1.0" encoding="UTF-8" standalone="no"?>
<!DOCTYPE svg PUBLIC "-//W3C//DTD SVG 1.1//EN"
 "http://www.w3.org/Graphics/SVG/1.1/DTD/svg11.dtd">
<!-- Generated by graphviz version 7.1.0 (20230121.1956)
 -->
<!-- Title: FMC_printCyanError Pages: 1 -->
<svg width="297pt" height="113pt"
 viewBox="0.00 0.00 297.00 112.50" xmlns="http://www.w3.org/2000/svg" xmlns:xlink="http://www.w3.org/1999/xlink">
<g id="graph0" class="graph" transform="scale(1 1) rotate(0) translate(4 108.5)">
<title>FMC_printCyanError</title>
<!-- Node1 -->
<g id="node1" class="node">
<title>Node1</title>
<g id="a_node1"><a xlink:title=" ">
<polygon fill="#999999" stroke="#666666" points="105,-56 0,-56 0,-37 105,-37 105,-56"/>
<text text-anchor="middle" x="52.5" y="-44" font-family="Helvetica,sans-Serif" font-size="10.00">FMC_printCyanError</text>
</a>
</g>
</g>
<!-- Node2 -->
<g id="node2" class="node">
<title>Node2</title>
<g id="a_node2"><a xlink:href="../../dc/de1/_f_m_c__errors_8h.html#a783bb339d04854160955cc2af5d9b8f2" target="_top" xlink:title=" ">
<polygon fill="white" stroke="#666666" points="288.5,-104.5 141.5,-104.5 141.5,-74.5 288.5,-74.5 288.5,-104.5"/>
<text text-anchor="start" x="149.5" y="-92.5" font-family="Helvetica,sans-Serif" font-size="10.00">FMC_changeStreamTextColor</text>
<text text-anchor="middle" x="215" y="-81.5" font-family="Helvetica,sans-Serif" font-size="10.00">ToCyan</text>
</a>
</g>
</g>
<!-- Node1&#45;&gt;Node2 -->
<g id="edge1" class="edge">
<title>Node1&#45;&gt;Node2</title>
<path fill="none" stroke="#63b8ff" d="M90.73,-56.47C106.98,-60.83 126.58,-66.08 145.32,-71.1"/>
<polygon fill="#63b8ff" stroke="#63b8ff" points="144.2,-74.42 154.76,-73.63 146.01,-67.66 144.2,-74.42"/>
</g>
<!-- Node3 -->
<g id="node3" class="node">
<title>Node3</title>
<g id="a_node3"><a xlink:href="../../dc/de1/_f_m_c__errors_8h.html#a5dac1ddff314ba7b3bed3d87eb3f19f5" target="_top" xlink:title=" ">
<polygon fill="white" stroke="#666666" points="289,-56 141,-56 141,-37 289,-37 289,-56"/>
<text text-anchor="middle" x="215" y="-44" font-family="Helvetica,sans-Serif" font-size="10.00">FMC_resetStreamOutputStyle</text>
</a>
</g>
</g>
<!-- Node1&#45;&gt;Node3 -->
<g id="edge2" class="edge">
<title>Node1&#45;&gt;Node3</title>
<path fill="none" stroke="#63b8ff" d="M105.17,-46.5C112.83,-46.5 120.89,-46.5 129.01,-46.5"/>
<polygon fill="#63b8ff" stroke="#63b8ff" points="129,-50 139,-46.5 129,-43 129,-50"/>
</g>
<!-- Node4 -->
<g id="node4" class="node">
<title>Node4</title>
<g id="a_node4"><a xlink:href="../../dc/de1/_f_m_c__errors_8h.html#ad65d0a387448c0139270e9c628cf4126" target="_top" xlink:title=" ">
<polygon fill="white" stroke="#666666" points="279,-19 151,-19 151,0 279,0 279,-19"/>
<text text-anchor="middle" x="215" y="-7" font-family="Helvetica,sans-Serif" font-size="10.00">FMC_setTextStyleToBold</text>
</a>
</g>
</g>
<!-- Node1&#45;&gt;Node4 -->
<g id="edge3" class="edge">
<title>Node1&#45;&gt;Node4</title>
<path fill="none" stroke="#63b8ff" d="M96.51,-36.58C115.94,-32.11 139.11,-26.76 159.72,-22.01"/>
<polygon fill="#63b8ff" stroke="#63b8ff" points="160.44,-25.44 169.4,-19.78 158.86,-18.62 160.44,-25.44"/>
</g>
</g>
</svg>
