<?xml version="1.0" encoding="UTF-8" standalone="no"?>
<!DOCTYPE svg PUBLIC "-//W3C//DTD SVG 1.1//EN"
 "http://www.w3.org/Graphics/SVG/1.1/DTD/svg11.dtd">
<!-- Generated by graphviz version 7.1.0 (20230121.1956)
 -->
<!-- Title: FMC_printBlueText Pages: 1 -->
<svg width="292pt" height="76pt"
 viewBox="0.00 0.00 292.00 75.50" xmlns="http://www.w3.org/2000/svg" xmlns:xlink="http://www.w3.org/1999/xlink">
<g id="graph0" class="graph" transform="scale(1 1) rotate(0) translate(4 71.5)">
<title>FMC_printBlueText</title>
<!-- Node1 -->
<g id="node1" class="node">
<title>Node1</title>
<g id="a_node1"><a xlink:title=" ">
<polygon fill="#999999" stroke="#666666" points="100,-40 0,-40 0,-21 100,-21 100,-40"/>
<text text-anchor="middle" x="50" y="-28" font-family="Helvetica,sans-Serif" font-size="10.00">FMC_printBlueText</text>
</a>
</g>
</g>
<!-- Node2 -->
<g id="node2" class="node">
<title>Node2</title>
<g id="a_node2"><a xlink:href="../../dc/de1/_f_m_c__errors_8h.html#a2f277c20b9b007eefd048b8491cae6cf" target="_top" xlink:title=" ">
<polygon fill="white" stroke="#666666" points="283.5,-67.5 136.5,-67.5 136.5,-37.5 283.5,-37.5 283.5,-67.5"/>
<text text-anchor="start" x="144.5" y="-55.5" font-family="Helvetica,sans-Serif" font-size="10.00">FMC_changeStreamTextColor</text>
<text text-anchor="middle" x="210" y="-44.5" font-family="Helvetica,sans-Serif" font-size="10.00">ToBlue</text>
</a>
</g>
</g>
<!-- Node1&#45;&gt;Node2 -->
<g id="edge1" class="edge">
<title>Node1&#45;&gt;Node2</title>
<path fill="none" stroke="#63b8ff" d="M100.13,-37.34C108.06,-38.45 116.47,-39.62 124.96,-40.8"/>
<polygon fill="#63b8ff" stroke="#63b8ff" points="124.24,-44.23 134.63,-42.14 125.2,-37.3 124.24,-44.23"/>
</g>
<!-- Node3 -->
<g id="node3" class="node">
<title>Node3</title>
<g id="a_node3"><a xlink:href="../../dc/de1/_f_m_c__errors_8h.html#a5dac1ddff314ba7b3bed3d87eb3f19f5" target="_top" xlink:title=" ">
<polygon fill="white" stroke="#666666" points="284,-19 136,-19 136,0 284,0 284,-19"/>
<text text-anchor="middle" x="210" y="-7" font-family="Helvetica,sans-Serif" font-size="10.00">FMC_resetStreamOutputStyle</text>
</a>
</g>
</g>
<!-- Node1&#45;&gt;Node3 -->
<g id="edge2" class="edge">
<title>Node1&#45;&gt;Node3</title>
<path fill="none" stroke="#63b8ff" d="M100.13,-23.97C107.85,-22.94 116.02,-21.86 124.27,-20.76"/>
<polygon fill="#63b8ff" stroke="#63b8ff" points="124.59,-24.25 134.04,-19.46 123.67,-17.31 124.59,-24.25"/>
</g>
</g>
</svg>
