<?xml version="1.0" encoding="UTF-8" standalone="no"?>
<!DOCTYPE svg PUBLIC "-//W3C//DTD SVG 1.1//EN"
 "http://www.w3.org/Graphics/SVG/1.1/DTD/svg11.dtd">
<!-- Generated by graphviz version 2.43.0 (0)
 -->
<!-- Title: src/cpp/FMC_dir/FMC_dir.cpp Pages: 1 -->
<svg width="306pt" height="148pt"
 viewBox="0.00 0.00 305.50 148.00" xmlns="http://www.w3.org/2000/svg" xmlns:xlink="http://www.w3.org/1999/xlink">
<g id="graph0" class="graph" transform="scale(1 1) rotate(0) translate(4 144)">
<title>src/cpp/FMC_dir/FMC_dir.cpp</title>
<!-- Node1 -->
<g id="node1" class="node">
<title>Node1</title>
<g id="a_node1"><a xlink:title=" ">
<polygon fill="#999999" stroke="#666666" points="228,-140 109,-140 109,-110 228,-110 228,-140"/>
<text text-anchor="start" x="117" y="-128" font-family="Helvetica,sans-Serif" font-size="10.00">src/cpp/FMC_dir/FMC</text>
<text text-anchor="middle" x="168.5" y="-117" font-family="Helvetica,sans-Serif" font-size="10.00">_dir.cpp</text>
</a>
</g>
</g>
<!-- Node2 -->
<g id="node2" class="node">
<title>Node2</title>
<g id="a_node2"><a xlink:href="../../d8/d5e/FMC__dir_8hpp.html" target="_top" xlink:title=" ">
<polygon fill="white" stroke="#666666" points="77,-74 0,-74 0,-55 77,-55 77,-74"/>
<text text-anchor="middle" x="38.5" y="-62" font-family="Helvetica,sans-Serif" font-size="10.00">FMC_dir.hpp</text>
</a>
</g>
</g>
<!-- Node1&#45;&gt;Node2 -->
<g id="edge1" class="edge">
<title>Node1&#45;&gt;Node2</title>
<path fill="none" stroke="#63b8ff" d="M137.36,-109.99C115.96,-100.36 87.77,-87.67 66.97,-78.31"/>
<polygon fill="#63b8ff" stroke="#63b8ff" points="68.25,-75.05 57.7,-74.14 65.38,-81.43 68.25,-75.05"/>
</g>
<!-- Node4 -->
<g id="node4" class="node">
<title>Node4</title>
<g id="a_node4"><a xlink:title=" ">
<polygon fill="#e0e0e0" stroke="#999999" points="163.5,-74 95.5,-74 95.5,-55 163.5,-55 163.5,-74"/>
<text text-anchor="middle" x="129.5" y="-62" font-family="Helvetica,sans-Serif" font-size="10.00">filesystem</text>
</a>
</g>
</g>
<!-- Node1&#45;&gt;Node4 -->
<g id="edge3" class="edge">
<title>Node1&#45;&gt;Node4</title>
<path fill="none" stroke="#63b8ff" d="M159.06,-109.84C153.63,-101.69 146.77,-91.4 141.02,-82.78"/>
<polygon fill="#63b8ff" stroke="#63b8ff" points="143.8,-80.65 135.34,-74.27 137.98,-84.53 143.8,-80.65"/>
</g>
<!-- Node5 -->
<g id="node5" class="node">
<title>Node5</title>
<g id="a_node5"><a xlink:title=" ">
<polygon fill="#e0e0e0" stroke="#999999" points="235,-74 182,-74 182,-55 235,-55 235,-74"/>
<text text-anchor="middle" x="208.5" y="-62" font-family="Helvetica,sans-Serif" font-size="10.00">string.h</text>
</a>
</g>
</g>
<!-- Node1&#45;&gt;Node5 -->
<g id="edge4" class="edge">
<title>Node1&#45;&gt;Node5</title>
<path fill="none" stroke="#63b8ff" d="M178.18,-109.84C183.75,-101.69 190.79,-91.4 196.68,-82.78"/>
<polygon fill="#63b8ff" stroke="#63b8ff" points="199.75,-84.5 202.51,-74.27 193.97,-80.55 199.75,-84.5"/>
</g>
<!-- Node6 -->
<g id="node6" class="node">
<title>Node6</title>
<g id="a_node6"><a xlink:title=" ">
<polygon fill="#e0e0e0" stroke="#999999" points="297.5,-74 253.5,-74 253.5,-55 297.5,-55 297.5,-74"/>
<text text-anchor="middle" x="275.5" y="-62" font-family="Helvetica,sans-Serif" font-size="10.00">string</text>
</a>
</g>
</g>
<!-- Node1&#45;&gt;Node6 -->
<g id="edge5" class="edge">
<title>Node1&#45;&gt;Node6</title>
<path fill="none" stroke="#63b8ff" d="M194.13,-109.99C211.34,-100.58 233.9,-88.24 250.9,-78.95"/>
<polygon fill="#63b8ff" stroke="#63b8ff" points="252.6,-82.01 259.7,-74.14 249.25,-75.87 252.6,-82.01"/>
</g>
<!-- Node3 -->
<g id="node3" class="node">
<title>Node3</title>
<g id="a_node3"><a xlink:title=" ">
<polygon fill="#e0e0e0" stroke="#999999" points="65,-19 12,-19 12,0 65,0 65,-19"/>
<text text-anchor="middle" x="38.5" y="-7" font-family="Helvetica,sans-Serif" font-size="10.00">cstddef</text>
</a>
</g>
</g>
<!-- Node2&#45;&gt;Node3 -->
<g id="edge2" class="edge">
<title>Node2&#45;&gt;Node3</title>
<path fill="none" stroke="#63b8ff" d="M38.5,-54.75C38.5,-47.8 38.5,-37.85 38.5,-29.13"/>
<polygon fill="#63b8ff" stroke="#63b8ff" points="42,-29.09 38.5,-19.09 35,-29.09 42,-29.09"/>
</g>
</g>
</svg>
