<?xml version="1.0" encoding="UTF-8" standalone="no"?>
<!DOCTYPE svg PUBLIC "-//W3C//DTD SVG 1.1//EN"
 "http://www.w3.org/Graphics/SVG/1.1/DTD/svg11.dtd">
<!-- Generated by graphviz version 7.1.0 (20230121.1956)
 -->
<!-- Title: src/general/utils/FMC_deprecated.h Pages: 1 -->
<svg width="184pt" height="214pt"
 viewBox="0.00 0.00 183.50 214.00" xmlns="http://www.w3.org/2000/svg" xmlns:xlink="http://www.w3.org/1999/xlink">
<g id="graph0" class="graph" transform="scale(1 1) rotate(0) translate(4 210)">
<title>src/general/utils/FMC_deprecated.h</title>
<!-- Node1 -->
<g id="node1" class="node">
<title>Node1</title>
<g id="a_node1"><a xlink:title=" ">
<polygon fill="#999999" stroke="#666666" points="156,-206 46,-206 46,-176 156,-176 156,-206"/>
<text text-anchor="start" x="54" y="-194" font-family="Helvetica,sans-Serif" font-size="10.00">src/general/utils/FMC</text>
<text text-anchor="middle" x="101" y="-183" font-family="Helvetica,sans-Serif" font-size="10.00">_deprecated.h</text>
</a>
</g>
</g>
<!-- Node2 -->
<g id="node2" class="node">
<title>Node2</title>
<g id="a_node2"><a xlink:href="../../d4/d62/_f_m_c__attributes_8h.html" target="_top" xlink:title=" ">
<polygon fill="white" stroke="#666666" points="106,-140 0,-140 0,-110 106,-110 106,-140"/>
<text text-anchor="start" x="8" y="-128" font-family="Helvetica,sans-Serif" font-size="10.00">../preprocessor/FMC</text>
<text text-anchor="middle" x="53" y="-117" font-family="Helvetica,sans-Serif" font-size="10.00">_attributes.h</text>
</a>
</g>
</g>
<!-- Node1&#45;&gt;Node2 -->
<g id="edge1" class="edge">
<title>Node1&#45;&gt;Node2</title>
<path fill="none" stroke="#63b8ff" d="M90.35,-175.8C84.51,-168.01 77.12,-158.16 70.46,-149.28"/>
<polygon fill="#63b8ff" stroke="#63b8ff" points="73.33,-147.27 64.53,-141.37 67.73,-151.47 73.33,-147.27"/>
</g>
<!-- Node5 -->
<g id="node5" class="node">
<title>Node5</title>
<g id="a_node5"><a xlink:title=" ">
<polygon fill="#e0e0e0" stroke="#999999" points="175.5,-134.5 124.5,-134.5 124.5,-115.5 175.5,-115.5 175.5,-134.5"/>
<text text-anchor="middle" x="150" y="-122.5" font-family="Helvetica,sans-Serif" font-size="10.00">stddef.h</text>
</a>
</g>
</g>
<!-- Node1&#45;&gt;Node5 -->
<g id="edge5" class="edge">
<title>Node1&#45;&gt;Node5</title>
<path fill="none" stroke="#63b8ff" d="M111.87,-175.8C119.06,-166.41 128.55,-154.02 136.26,-143.95"/>
<polygon fill="#63b8ff" stroke="#63b8ff" points="139.01,-146.11 142.31,-136.05 133.45,-141.86 139.01,-146.11"/>
</g>
<!-- Node3 -->
<g id="node3" class="node">
<title>Node3</title>
<g id="a_node3"><a xlink:href="../../d0/d07/_f_m_c__macros_8h.html" target="_top" xlink:title=" ">
<polygon fill="white" stroke="#666666" points="94.5,-74 11.5,-74 11.5,-55 94.5,-55 94.5,-74"/>
<text text-anchor="middle" x="53" y="-62" font-family="Helvetica,sans-Serif" font-size="10.00">FMC_macros.h</text>
</a>
</g>
</g>
<!-- Node2&#45;&gt;Node3 -->
<g id="edge2" class="edge">
<title>Node2&#45;&gt;Node3</title>
<path fill="none" stroke="#63b8ff" d="M47.08,-109.54C46.19,-102.26 46.01,-93.31 46.57,-85.39"/>
<polygon fill="#63b8ff" stroke="#63b8ff" points="50.01,-86.05 47.84,-75.68 43.07,-85.14 50.01,-86.05"/>
</g>
<!-- Node3&#45;&gt;Node2 -->
<g id="edge4" class="edge">
<title>Node3&#45;&gt;Node2</title>
<path fill="none" stroke="#63b8ff" d="M57.96,-74.18C59.34,-80.58 59.92,-89.65 59.71,-98.3"/>
<polygon fill="#63b8ff" stroke="#63b8ff" points="56.23,-97.81 59.02,-108.03 63.21,-98.3 56.23,-97.81"/>
</g>
<!-- Node4 -->
<g id="node4" class="node">
<title>Node4</title>
<g id="a_node4"><a xlink:href="../../d0/dc4/_f_m_c__platform_8h.html" target="_top" xlink:title=" ">
<polygon fill="white" stroke="#666666" points="96,-19 10,-19 10,0 96,0 96,-19"/>
<text text-anchor="middle" x="53" y="-7" font-family="Helvetica,sans-Serif" font-size="10.00">FMC_platform.h</text>
</a>
</g>
</g>
<!-- Node3&#45;&gt;Node4 -->
<g id="edge3" class="edge">
<title>Node3&#45;&gt;Node4</title>
<path fill="none" stroke="#63b8ff" d="M53,-54.75C53,-48.27 53,-39.16 53,-30.9"/>
<polygon fill="#63b8ff" stroke="#63b8ff" points="56.5,-30.96 53,-20.96 49.5,-30.96 56.5,-30.96"/>
</g>
</g>
</svg>
