<?xml version="1.0" encoding="UTF-8" standalone="no"?>
<!DOCTYPE svg PUBLIC "-//W3C//DTD SVG 1.1//EN"
 "http://www.w3.org/Graphics/SVG/1.1/DTD/svg11.dtd">
<!-- Generated by graphviz version 2.43.0 (0)
 -->
<!-- Title: src/general/FMC_general.h Pages: 1 -->
<svg width="872pt" height="247pt"
 viewBox="0.00 0.00 872.00 247.00" xmlns="http://www.w3.org/2000/svg" xmlns:xlink="http://www.w3.org/1999/xlink">
<g id="graph0" class="graph" transform="scale(1 1) rotate(0) translate(4 243)">
<title>src/general/FMC_general.h</title>
<!-- Node1 -->
<g id="node1" class="node">
<title>Node1</title>
<g id="a_node1"><a xlink:title=" ">
<polygon fill="#999999" stroke="#666666" points="454.5,-239 308.5,-239 308.5,-220 454.5,-220 454.5,-239"/>
<text text-anchor="middle" x="381.5" y="-227" font-family="Helvetica,sans-Serif" font-size="10.00">src/general/FMC_general.h</text>
</a>
</g>
</g>
<!-- Node2 -->
<g id="node2" class="node">
<title>Node2</title>
<g id="a_node2"><a xlink:href="../../d0/d28/FMC__macros_8h.html" target="_top" xlink:title=" ">
<polygon fill="white" stroke="#666666" points="326,-74 171,-74 171,-55 326,-55 326,-74"/>
<text text-anchor="middle" x="248.5" y="-62" font-family="Helvetica,sans-Serif" font-size="10.00">preprocessor/FMC_macros.h</text>
</a>
</g>
</g>
<!-- Node1&#45;&gt;Node2 -->
<g id="edge1" class="edge">
<title>Node1&#45;&gt;Node2</title>
<path fill="none" stroke="#63b8ff" d="M308.35,-223.56C230.02,-217.31 111.57,-204.76 71.5,-184 41.63,-168.53 31.94,-160.26 19.5,-129 16.38,-121.15 14.13,-116.52 19.5,-110 37.48,-88.18 103.97,-76.93 160.7,-71.2"/>
<polygon fill="#63b8ff" stroke="#63b8ff" points="161.18,-74.67 170.8,-70.23 160.51,-67.7 161.18,-74.67"/>
</g>
<!-- Node3 -->
<g id="node3" class="node">
<title>Node3</title>
<g id="a_node3"><a xlink:href="../../d7/dff/FMC__platform_8h.html" target="_top" xlink:title=" ">
<polygon fill="white" stroke="#666666" points="95,-19 0,-19 0,0 95,0 95,-19"/>
<text text-anchor="middle" x="47.5" y="-7" font-family="Helvetica,sans-Serif" font-size="10.00">FMC_platform.h</text>
</a>
</g>
</g>
<!-- Node1&#45;&gt;Node3 -->
<g id="edge6" class="edge">
<title>Node1&#45;&gt;Node3</title>
<path fill="none" stroke="#63b8ff" d="M308.43,-227.09C220.74,-224.03 80.25,-214.39 38.5,-184 10.31,-163.49 6.63,-144.36 12.5,-110 17.57,-80.32 30.57,-47.71 39.22,-28.19"/>
<polygon fill="#63b8ff" stroke="#63b8ff" points="42.43,-29.57 43.39,-19.02 36.06,-26.67 42.43,-29.57"/>
</g>
<!-- Node6 -->
<g id="node6" class="node">
<title>Node6</title>
<g id="a_node6"><a xlink:href="../../da/dd3/FMC__consts_8h.html" target="_top" xlink:title=" ">
<polygon fill="white" stroke="#666666" points="426.5,-129 276.5,-129 276.5,-110 426.5,-110 426.5,-129"/>
<text text-anchor="middle" x="351.5" y="-117" font-family="Helvetica,sans-Serif" font-size="10.00">preprocessor/FMC_consts.h</text>
</a>
</g>
</g>
<!-- Node1&#45;&gt;Node6 -->
<g id="edge7" class="edge">
<title>Node1&#45;&gt;Node6</title>
<path fill="none" stroke="#63b8ff" d="M379.04,-219.66C374.16,-202.09 363.15,-162.45 356.63,-138.95"/>
<polygon fill="#63b8ff" stroke="#63b8ff" points="359.95,-137.86 353.91,-129.16 353.21,-139.73 359.95,-137.86"/>
</g>
<!-- Node7 -->
<g id="node7" class="node">
<title>Node7</title>
<g id="a_node7"><a xlink:href="../../d5/de5/FMC__structs_8h.html" target="_top" xlink:title=" ">
<polygon fill="white" stroke="#666666" points="210.5,-184 94.5,-184 94.5,-165 210.5,-165 210.5,-184"/>
<text text-anchor="middle" x="152.5" y="-172" font-family="Helvetica,sans-Serif" font-size="10.00">types/FMC_structs.h</text>
</a>
</g>
</g>
<!-- Node1&#45;&gt;Node7 -->
<g id="edge8" class="edge">
<title>Node1&#45;&gt;Node7</title>
<path fill="none" stroke="#63b8ff" d="M344.71,-219.98C305.26,-210.86 242.52,-196.33 199.52,-186.38"/>
<polygon fill="#63b8ff" stroke="#63b8ff" points="200.11,-182.93 189.58,-184.08 198.53,-189.75 200.11,-182.93"/>
</g>
<!-- Node9 -->
<g id="node9" class="node">
<title>Node9</title>
<g id="a_node9"><a xlink:href="../../d6/d25/FMC__enums_8h.html" target="_top" xlink:title=" ">
<polygon fill="white" stroke="#666666" points="114.5,-129 28.5,-129 28.5,-110 114.5,-110 114.5,-129"/>
<text text-anchor="middle" x="71.5" y="-117" font-family="Helvetica,sans-Serif" font-size="10.00">FMC_enums.h</text>
</a>
</g>
</g>
<!-- Node1&#45;&gt;Node9 -->
<g id="edge19" class="edge">
<title>Node1&#45;&gt;Node9</title>
<path fill="none" stroke="#63b8ff" d="M308.46,-226.76C231.43,-223.36 116.92,-213.36 85.5,-184 73.52,-172.81 70.63,-153.89 70.37,-139.6"/>
<polygon fill="#63b8ff" stroke="#63b8ff" points="73.87,-139.45 70.6,-129.38 66.87,-139.3 73.87,-139.45"/>
</g>
<!-- Node10 -->
<g id="node10" class="node">
<title>Node10</title>
<g id="a_node10"><a xlink:href="../../df/df8/FMC__typedefs_8h.html" target="_top" xlink:title=" ">
<polygon fill="white" stroke="#666666" points="540,-129 445,-129 445,-110 540,-110 540,-129"/>
<text text-anchor="middle" x="492.5" y="-117" font-family="Helvetica,sans-Serif" font-size="10.00">FMC_typedefs.h</text>
</a>
</g>
</g>
<!-- Node1&#45;&gt;Node10 -->
<g id="edge18" class="edge">
<title>Node1&#45;&gt;Node10</title>
<path fill="none" stroke="#63b8ff" d="M385.06,-219.81C390.77,-206.69 403.03,-181.6 419.5,-165 432.28,-152.12 449.49,-141.39 464,-133.7"/>
<polygon fill="#63b8ff" stroke="#63b8ff" points="465.74,-136.75 473.06,-129.09 462.56,-130.51 465.74,-136.75"/>
</g>
<!-- Node11 -->
<g id="node11" class="node">
<title>Node11</title>
<g id="a_node11"><a xlink:href="../../d2/d5e/FMC__flags_8h.html" target="_top" xlink:title=" ">
<polygon fill="white" stroke="#666666" points="782.5,-74 640.5,-74 640.5,-55 782.5,-55 782.5,-74"/>
<text text-anchor="middle" x="711.5" y="-62" font-family="Helvetica,sans-Serif" font-size="10.00">preprocessor/FMC_flags.h</text>
</a>
</g>
</g>
<!-- Node1&#45;&gt;Node11 -->
<g id="edge16" class="edge">
<title>Node1&#45;&gt;Node11</title>
<path fill="none" stroke="#63b8ff" d="M454.66,-228.35C537.95,-226.51 666.74,-218.04 699.5,-184 725.11,-157.4 720.83,-110.25 715.9,-84.16"/>
<polygon fill="#63b8ff" stroke="#63b8ff" points="719.26,-83.15 713.76,-74.1 712.42,-84.61 719.26,-83.15"/>
</g>
<!-- Node12 -->
<g id="node12" class="node">
<title>Node12</title>
<g id="a_node12"><a xlink:href="../../dd/ddf/FMC__errors_8h.html" target="_top" xlink:title=" ">
<polygon fill="white" stroke="#666666" points="334,-184 229,-184 229,-165 334,-165 334,-184"/>
<text text-anchor="middle" x="281.5" y="-172" font-family="Helvetica,sans-Serif" font-size="10.00">utils/FMC_errors.h</text>
</a>
</g>
</g>
<!-- Node1&#45;&gt;Node12 -->
<g id="edge20" class="edge">
<title>Node1&#45;&gt;Node12</title>
<path fill="none" stroke="#63b8ff" d="M365.43,-219.98C349.64,-211.61 325.28,-198.7 306.87,-188.95"/>
<polygon fill="#63b8ff" stroke="#63b8ff" points="308.33,-185.76 297.86,-184.17 305.06,-191.95 308.33,-185.76"/>
</g>
<!-- Node13 -->
<g id="node13" class="node">
<title>Node13</title>
<g id="a_node13"><a xlink:href="../../de/d86/FMC__globals_8h.html" target="_top" xlink:title=" ">
<polygon fill="white" stroke="#666666" points="540.5,-184 428.5,-184 428.5,-165 540.5,-165 540.5,-184"/>
<text text-anchor="middle" x="484.5" y="-172" font-family="Helvetica,sans-Serif" font-size="10.00">utils/FMC_globals.h</text>
</a>
</g>
</g>
<!-- Node1&#45;&gt;Node13 -->
<g id="edge24" class="edge">
<title>Node1&#45;&gt;Node13</title>
<path fill="none" stroke="#63b8ff" d="M398.05,-219.98C414.39,-211.57 439.63,-198.59 458.63,-188.81"/>
<polygon fill="#63b8ff" stroke="#63b8ff" points="460.36,-191.86 467.65,-184.17 457.16,-185.63 460.36,-191.86"/>
</g>
<!-- Node14 -->
<g id="node14" class="node">
<title>Node14</title>
<g id="a_node14"><a xlink:href="../../d4/d06/FMC__deprecated_8h.html" target="_top" xlink:title=" ">
<polygon fill="white" stroke="#666666" points="690,-184 559,-184 559,-165 690,-165 690,-184"/>
<text text-anchor="middle" x="624.5" y="-172" font-family="Helvetica,sans-Serif" font-size="10.00">utils/FMC_deprecated.h</text>
</a>
</g>
</g>
<!-- Node1&#45;&gt;Node14 -->
<g id="edge28" class="edge">
<title>Node1&#45;&gt;Node14</title>
<path fill="none" stroke="#63b8ff" d="M420.54,-219.98C462.58,-210.82 529.54,-196.21 575.18,-186.26"/>
<polygon fill="#63b8ff" stroke="#63b8ff" points="576.13,-189.63 585.15,-184.08 574.64,-182.79 576.13,-189.63"/>
</g>
<!-- Node16 -->
<g id="node16" class="node">
<title>Node16</title>
<g id="a_node16"><a xlink:href="../../da/d45/FMC__str__view_8h.html" target="_top" xlink:title=" ">
<polygon fill="white" stroke="#666666" points="864,-184 747,-184 747,-165 864,-165 864,-184"/>
<text text-anchor="middle" x="805.5" y="-172" font-family="Helvetica,sans-Serif" font-size="10.00">utils/FMC_str_view.h</text>
</a>
</g>
</g>
<!-- Node1&#45;&gt;Node16 -->
<g id="edge31" class="edge">
<title>Node1&#45;&gt;Node16</title>
<path fill="none" stroke="#63b8ff" d="M444.51,-219.98C522.88,-209.91 656.04,-193.27 736.91,-183.45"/>
<polygon fill="#63b8ff" stroke="#63b8ff" points="737.49,-186.91 746.99,-182.23 736.64,-179.96 737.49,-186.91"/>
</g>
<!-- Node2&#45;&gt;Node3 -->
<g id="edge2" class="edge">
<title>Node2&#45;&gt;Node3</title>
<path fill="none" stroke="#63b8ff" d="M216.21,-54.98C181.88,-45.93 127.44,-31.58 89.73,-21.64"/>
<polygon fill="#63b8ff" stroke="#63b8ff" points="90.61,-18.25 80.05,-19.08 88.82,-25.02 90.61,-18.25"/>
</g>
<!-- Node4 -->
<g id="node4" class="node">
<title>Node4</title>
<g id="a_node4"><a xlink:title=" ">
<polygon fill="#e0e0e0" stroke="#999999" points="573.5,-19 489.5,-19 489.5,0 573.5,0 573.5,-19"/>
<text text-anchor="middle" x="531.5" y="-7" font-family="Helvetica,sans-Serif" font-size="10.00">metalang99.h</text>
</a>
</g>
</g>
<!-- Node2&#45;&gt;Node4 -->
<g id="edge3" class="edge">
<title>Node2&#45;&gt;Node4</title>
<path fill="none" stroke="#63b8ff" d="M293.97,-54.98C344.61,-45.5 426.32,-30.2 479.47,-20.24"/>
<polygon fill="#63b8ff" stroke="#63b8ff" points="480.19,-23.67 489.38,-18.39 478.9,-16.79 480.19,-23.67"/>
</g>
<!-- Node5 -->
<g id="node5" class="node">
<title>Node5</title>
<g id="a_node5"><a xlink:href="../../d1/d2e/FMC__attributes_8h.html" target="_top" xlink:title=" ">
<polygon fill="white" stroke="#666666" points="298.5,-19 198.5,-19 198.5,0 298.5,0 298.5,-19"/>
<text text-anchor="middle" x="248.5" y="-7" font-family="Helvetica,sans-Serif" font-size="10.00">FMC_attributes.h</text>
</a>
</g>
</g>
<!-- Node2&#45;&gt;Node5 -->
<g id="edge4" class="edge">
<title>Node2&#45;&gt;Node5</title>
<path fill="none" stroke="#63b8ff" d="M243.33,-54.75C241.84,-47.8 241.4,-37.85 242.02,-29.13"/>
<polygon fill="#63b8ff" stroke="#63b8ff" points="245.51,-29.47 243.37,-19.09 238.57,-28.53 245.51,-29.47"/>
</g>
<!-- Node5&#45;&gt;Node2 -->
<g id="edge5" class="edge">
<title>Node5&#45;&gt;Node2</title>
<path fill="none" stroke="#63b8ff" d="M253.63,-19.09C255.14,-25.99 255.59,-35.93 254.99,-44.66"/>
<polygon fill="#63b8ff" stroke="#63b8ff" points="251.5,-44.38 253.67,-54.75 258.44,-45.29 251.5,-44.38"/>
</g>
<!-- Node7&#45;&gt;Node2 -->
<g id="edge11" class="edge">
<title>Node7&#45;&gt;Node2</title>
<path fill="none" stroke="#63b8ff" d="M151.37,-164.79C150.15,-151.63 149.74,-126.5 161.5,-110 172.29,-94.87 189.76,-84.54 206.23,-77.68"/>
<polygon fill="#63b8ff" stroke="#63b8ff" points="207.67,-80.87 215.76,-74.02 205.17,-74.34 207.67,-80.87"/>
</g>
<!-- Node7&#45;&gt;Node6 -->
<g id="edge10" class="edge">
<title>Node7&#45;&gt;Node6</title>
<path fill="none" stroke="#63b8ff" d="M184.47,-164.98C218.32,-155.97 271.9,-141.7 309.21,-131.76"/>
<polygon fill="#63b8ff" stroke="#63b8ff" points="310.51,-135.04 319.28,-129.08 308.71,-128.27 310.51,-135.04"/>
</g>
<!-- Node8 -->
<g id="node8" class="node">
<title>Node8</title>
<g id="a_node8"><a xlink:title=" ">
<polygon fill="#e0e0e0" stroke="#999999" points="220.5,-129 170.5,-129 170.5,-110 220.5,-110 220.5,-129"/>
<text text-anchor="middle" x="195.5" y="-117" font-family="Helvetica,sans-Serif" font-size="10.00">stdio.h</text>
</a>
</g>
</g>
<!-- Node7&#45;&gt;Node8 -->
<g id="edge9" class="edge">
<title>Node7&#45;&gt;Node8</title>
<path fill="none" stroke="#63b8ff" d="M159.6,-164.75C165.67,-157.26 174.59,-146.28 182.01,-137.13"/>
<polygon fill="#63b8ff" stroke="#63b8ff" points="184.95,-139.06 188.53,-129.09 179.51,-134.65 184.95,-139.06"/>
</g>
<!-- Node7&#45;&gt;Node9 -->
<g id="edge12" class="edge">
<title>Node7&#45;&gt;Node9</title>
<path fill="none" stroke="#63b8ff" d="M139.49,-164.98C127.04,-156.84 108.04,-144.41 93.29,-134.76"/>
<polygon fill="#63b8ff" stroke="#63b8ff" points="95.04,-131.72 84.75,-129.17 91.2,-137.57 95.04,-131.72"/>
</g>
<!-- Node7&#45;&gt;Node10 -->
<g id="edge14" class="edge">
<title>Node7&#45;&gt;Node10</title>
<path fill="none" stroke="#63b8ff" d="M207.13,-164.98C269.45,-155.27 370.95,-139.45 434.6,-129.52"/>
<polygon fill="#63b8ff" stroke="#63b8ff" points="435.53,-132.92 444.87,-127.92 434.45,-126.01 435.53,-132.92"/>
</g>
<!-- Node9&#45;&gt;Node2 -->
<g id="edge13" class="edge">
<title>Node9&#45;&gt;Node2</title>
<path fill="none" stroke="#63b8ff" d="M99.94,-109.98C129.78,-101.05 176.88,-86.94 210.03,-77.02"/>
<polygon fill="#63b8ff" stroke="#63b8ff" points="211.26,-80.3 219.84,-74.08 209.26,-73.6 211.26,-80.3"/>
</g>
<!-- Node10&#45;&gt;Node2 -->
<g id="edge15" class="edge">
<title>Node10&#45;&gt;Node2</title>
<path fill="none" stroke="#63b8ff" d="M453.3,-109.98C411.09,-100.82 343.85,-86.21 298.02,-76.26"/>
<polygon fill="#63b8ff" stroke="#63b8ff" points="298.53,-72.78 288.01,-74.08 297.04,-79.63 298.53,-72.78"/>
</g>
<!-- Node11&#45;&gt;Node4 -->
<g id="edge17" class="edge">
<title>Node11&#45;&gt;Node4</title>
<path fill="none" stroke="#63b8ff" d="M682.58,-54.98C652.23,-46.05 604.33,-31.94 570.62,-22.02"/>
<polygon fill="#63b8ff" stroke="#63b8ff" points="571.23,-18.55 560.65,-19.08 569.25,-25.26 571.23,-18.55"/>
</g>
<!-- Node12&#45;&gt;Node2 -->
<g id="edge23" class="edge">
<title>Node12&#45;&gt;Node2</title>
<path fill="none" stroke="#63b8ff" d="M278.78,-164.98C275.93,-156.03 271.35,-141.54 267.5,-129 262.85,-113.85 257.71,-96.63 253.95,-83.95"/>
<polygon fill="#63b8ff" stroke="#63b8ff" points="257.24,-82.74 251.04,-74.14 250.52,-84.72 257.24,-82.74"/>
</g>
<!-- Node12&#45;&gt;Node6 -->
<g id="edge22" class="edge">
<title>Node12&#45;&gt;Node6</title>
<path fill="none" stroke="#63b8ff" d="M292.75,-164.98C303.3,-157 319.3,-144.88 331.94,-135.31"/>
<polygon fill="#63b8ff" stroke="#63b8ff" points="334.19,-138 340.05,-129.17 329.96,-132.42 334.19,-138"/>
</g>
<!-- Node12&#45;&gt;Node8 -->
<g id="edge21" class="edge">
<title>Node12&#45;&gt;Node8</title>
<path fill="none" stroke="#63b8ff" d="M267.68,-164.98C254.35,-156.77 233.92,-144.18 218.19,-134.49"/>
<polygon fill="#63b8ff" stroke="#63b8ff" points="219.92,-131.44 209.57,-129.17 216.25,-137.4 219.92,-131.44"/>
</g>
<!-- Node13&#45;&gt;Node2 -->
<g id="edge26" class="edge">
<title>Node13&#45;&gt;Node2</title>
<path fill="none" stroke="#63b8ff" d="M504.89,-164.93C530.12,-153.15 567.64,-131.02 549.5,-110 522.41,-78.62 415.4,-68.99 336.64,-66.24"/>
<polygon fill="#63b8ff" stroke="#63b8ff" points="336.32,-62.72 326.22,-65.91 336.1,-69.72 336.32,-62.72"/>
</g>
<!-- Node13&#45;&gt;Node6 -->
<g id="edge27" class="edge">
<title>Node13&#45;&gt;Node6</title>
<path fill="none" stroke="#63b8ff" d="M463.13,-164.98C441.35,-156.3 407.34,-142.75 382.58,-132.88"/>
<polygon fill="#63b8ff" stroke="#63b8ff" points="383.84,-129.62 373.26,-129.17 381.25,-136.12 383.84,-129.62"/>
</g>
<!-- Node13&#45;&gt;Node10 -->
<g id="edge25" class="edge">
<title>Node13&#45;&gt;Node10</title>
<path fill="none" stroke="#63b8ff" d="M485.82,-164.75C486.87,-157.8 488.37,-147.85 489.69,-139.13"/>
<polygon fill="#63b8ff" stroke="#63b8ff" points="493.17,-139.5 491.2,-129.09 486.25,-138.45 493.17,-139.5"/>
</g>
<!-- Node14&#45;&gt;Node5 -->
<g id="edge29" class="edge">
<title>Node14&#45;&gt;Node5</title>
<path fill="none" stroke="#63b8ff" d="M618.68,-164.76C609.15,-151.12 588.91,-124.78 565.5,-110 484.54,-58.89 375.31,-32.23 308.49,-19.8"/>
<polygon fill="#63b8ff" stroke="#63b8ff" points="309.01,-16.34 298.55,-17.99 307.77,-23.22 309.01,-16.34"/>
</g>
<!-- Node15 -->
<g id="node15" class="node">
<title>Node15</title>
<g id="a_node15"><a xlink:title=" ">
<polygon fill="#e0e0e0" stroke="#999999" points="690.5,-129 634.5,-129 634.5,-110 690.5,-110 690.5,-129"/>
<text text-anchor="middle" x="662.5" y="-117" font-family="Helvetica,sans-Serif" font-size="10.00">stddef.h</text>
</a>
</g>
</g>
<!-- Node14&#45;&gt;Node15 -->
<g id="edge30" class="edge">
<title>Node14&#45;&gt;Node15</title>
<path fill="none" stroke="#63b8ff" d="M630.77,-164.75C636.09,-157.34 643.86,-146.5 650.38,-137.41"/>
<polygon fill="#63b8ff" stroke="#63b8ff" points="653.36,-139.26 656.34,-129.09 647.67,-135.18 653.36,-139.26"/>
</g>
<!-- Node16&#45;&gt;Node1 -->
<g id="edge32" class="edge">
<title>Node16&#45;&gt;Node1</title>
<path fill="none" stroke="#63b8ff" d="M746.7,-183.47C673.47,-192.9 548.04,-208.6 464.91,-218.74"/>
<polygon fill="#63b8ff" stroke="#63b8ff" points="464.24,-215.3 454.74,-219.98 465.09,-222.25 464.24,-215.3"/>
</g>
</g>
</svg>
