<?xml version="1.0" encoding="UTF-8" standalone="no"?>
<!DOCTYPE svg PUBLIC "-//W3C//DTD SVG 1.1//EN"
 "http://www.w3.org/Graphics/SVG/1.1/DTD/svg11.dtd">
<!-- Generated by graphviz version 7.1.0 (20230121.1956)
 -->
<!-- Title: src/files/FMC_paths.c Pages: 1 -->
<svg width="856pt" height="357pt"
 viewBox="0.00 0.00 855.99 357.00" xmlns="http://www.w3.org/2000/svg" xmlns:xlink="http://www.w3.org/1999/xlink">
<g id="graph0" class="graph" transform="scale(1 1) rotate(0) translate(4 353)">
<title>src/files/FMC_paths.c</title>
<!-- Node1 -->
<g id="node1" class="node">
<title>Node1</title>
<g id="a_node1"><a xlink:title=" ">
<polygon fill="#999999" stroke="#666666" points="204,-349 92,-349 92,-330 204,-330 204,-349"/>
<text text-anchor="middle" x="148" y="-337" font-family="Helvetica,sans-Serif" font-size="10.00">src/files/FMC_paths.c</text>
</a>
</g>
</g>
<!-- Node2 -->
<g id="node2" class="node">
<title>Node2</title>
<g id="a_node2"><a xlink:title=" ">
<polygon fill="#e0e0e0" stroke="#999999" points="119.5,-294 70.5,-294 70.5,-275 119.5,-275 119.5,-294"/>
<text text-anchor="middle" x="95" y="-282" font-family="Helvetica,sans-Serif" font-size="10.00">string.h</text>
</a>
</g>
</g>
<!-- Node1&#45;&gt;Node2 -->
<g id="edge1" class="edge">
<title>Node1&#45;&gt;Node2</title>
<path fill="none" stroke="#63b8ff" d="M139.25,-329.75C131.85,-322.35 121.04,-311.54 111.95,-302.45"/>
<polygon fill="#63b8ff" stroke="#63b8ff" points="114.56,-300.11 105.01,-295.51 109.61,-305.06 114.56,-300.11"/>
</g>
<!-- Node3 -->
<g id="node3" class="node">
<title>Node3</title>
<g id="a_node3"><a xlink:title=" ">
<polygon fill="#e0e0e0" stroke="#999999" points="324,-129 278,-129 278,-110 324,-110 324,-129"/>
<text text-anchor="middle" x="301" y="-117" font-family="Helvetica,sans-Serif" font-size="10.00">stdio.h</text>
</a>
</g>
</g>
<!-- Node1&#45;&gt;Node3 -->
<g id="edge2" class="edge">
<title>Node1&#45;&gt;Node3</title>
<path fill="none" stroke="#63b8ff" d="M150.72,-329.66C159.42,-302.49 188.79,-218.83 236,-165 246.53,-152.99 260.98,-142.68 273.58,-135.01"/>
<polygon fill="#63b8ff" stroke="#63b8ff" points="274.97,-138.25 281.87,-130.21 271.46,-132.2 274.97,-138.25"/>
</g>
<!-- Node4 -->
<g id="node4" class="node">
<title>Node4</title>
<g id="a_node4"><a xlink:href="../../d8/d29/_f_m_c__file__management_8h.html" target="_top" xlink:title=" ">
<polygon fill="white" stroke="#666666" points="407.5,-294 282.5,-294 282.5,-275 407.5,-275 407.5,-294"/>
<text text-anchor="middle" x="345" y="-282" font-family="Helvetica,sans-Serif" font-size="10.00">FMC_file_management.h</text>
</a>
</g>
</g>
<!-- Node1&#45;&gt;Node4 -->
<g id="edge3" class="edge">
<title>Node1&#45;&gt;Node4</title>
<path fill="none" stroke="#63b8ff" d="M181.42,-329.51C214.35,-320.65 264.84,-307.07 301.02,-297.33"/>
<polygon fill="#63b8ff" stroke="#63b8ff" points="301.54,-300.82 310.29,-294.84 299.72,-294.06 301.54,-300.82"/>
</g>
<!-- Node5 -->
<g id="node5" class="node">
<title>Node5</title>
<g id="a_node5"><a xlink:href="../../d2/db5/_f_m_c__general_8h.html" target="_top" xlink:title=" ">
<polygon fill="white" stroke="#666666" points="513,-239 387,-239 387,-220 513,-220 513,-239"/>
<text text-anchor="middle" x="450" y="-227" font-family="Helvetica,sans-Serif" font-size="10.00">../general/FMC_general.h</text>
</a>
</g>
</g>
<!-- Node4&#45;&gt;Node5 -->
<g id="edge4" class="edge">
<title>Node4&#45;&gt;Node5</title>
<path fill="none" stroke="#63b8ff" d="M362.81,-274.51C379.13,-266.27 403.53,-253.96 422.37,-244.45"/>
<polygon fill="#63b8ff" stroke="#63b8ff" points="423.75,-247.67 431.1,-240.04 420.6,-241.42 423.75,-247.67"/>
</g>
<!-- Node6 -->
<g id="node6" class="node">
<title>Node6</title>
<g id="a_node6"><a xlink:href="../../d0/d07/_f_m_c__macros_8h.html" target="_top" xlink:title=" ">
<polygon fill="white" stroke="#666666" points="653.5,-74 510.5,-74 510.5,-55 653.5,-55 653.5,-74"/>
<text text-anchor="middle" x="582" y="-62" font-family="Helvetica,sans-Serif" font-size="10.00">preprocessor/FMC_macros.h</text>
</a>
</g>
</g>
<!-- Node5&#45;&gt;Node6 -->
<g id="edge5" class="edge">
<title>Node5&#45;&gt;Node6</title>
<path fill="none" stroke="#63b8ff" d="M386.64,-224C330.54,-218.54 254.74,-207.04 236,-184 230.67,-177.45 233.75,-173.14 236,-165 243.61,-137.53 245.25,-125.76 269,-110 305.69,-85.66 419.35,-74.35 499.08,-69.3"/>
<polygon fill="#63b8ff" stroke="#63b8ff" points="498.81,-72.82 508.58,-68.72 498.38,-65.83 498.81,-72.82"/>
</g>
<!-- Node7 -->
<g id="node7" class="node">
<title>Node7</title>
<g id="a_node7"><a xlink:href="../../d0/dc4/_f_m_c__platform_8h.html" target="_top" xlink:title=" ">
<polygon fill="white" stroke="#666666" points="830,-19 744,-19 744,0 830,0 830,-19"/>
<text text-anchor="middle" x="787" y="-7" font-family="Helvetica,sans-Serif" font-size="10.00">FMC_platform.h</text>
</a>
</g>
</g>
<!-- Node5&#45;&gt;Node7 -->
<g id="edge9" class="edge">
<title>Node5&#45;&gt;Node7</title>
<path fill="none" stroke="#63b8ff" d="M513.36,-225.65C616.46,-220.35 811.22,-207.34 832,-184 872.11,-138.94 825.67,-62.63 800.76,-28.24"/>
<polygon fill="#63b8ff" stroke="#63b8ff" points="803.81,-26.48 795.02,-20.56 798.2,-30.67 803.81,-26.48"/>
</g>
<!-- Node9 -->
<g id="node9" class="node">
<title>Node9</title>
<g id="a_node9"><a xlink:href="../../d8/d6d/_f_m_c__consts_8h.html" target="_top" xlink:title=" ">
<polygon fill="white" stroke="#666666" points="520,-129 380,-129 380,-110 520,-110 520,-129"/>
<text text-anchor="middle" x="450" y="-117" font-family="Helvetica,sans-Serif" font-size="10.00">preprocessor/FMC_consts.h</text>
</a>
</g>
</g>
<!-- Node5&#45;&gt;Node9 -->
<g id="edge10" class="edge">
<title>Node5&#45;&gt;Node9</title>
<path fill="none" stroke="#63b8ff" d="M386.64,-223.41C332.88,-217.61 261.72,-205.96 244,-184 238.7,-177.43 238.7,-171.57 244,-165 259.78,-145.44 317.94,-134.06 368.45,-127.71"/>
<polygon fill="#63b8ff" stroke="#63b8ff" points="368.74,-131.2 378.25,-126.54 367.91,-124.25 368.74,-131.2"/>
</g>
<!-- Node10 -->
<g id="node10" class="node">
<title>Node10</title>
<g id="a_node10"><a xlink:href="../../d5/d7a/_f_m_c__structs_8h.html" target="_top" xlink:title=" ">
<polygon fill="white" stroke="#666666" points="625,-184 517,-184 517,-165 625,-165 625,-184"/>
<text text-anchor="middle" x="571" y="-172" font-family="Helvetica,sans-Serif" font-size="10.00">types/FMC_structs.h</text>
</a>
</g>
</g>
<!-- Node5&#45;&gt;Node10 -->
<g id="edge11" class="edge">
<title>Node5&#45;&gt;Node10</title>
<path fill="none" stroke="#63b8ff" d="M470.53,-219.51C489.68,-211.12 518.5,-198.5 540.37,-188.92"/>
<polygon fill="#63b8ff" stroke="#63b8ff" points="541.64,-192.18 549.39,-184.97 538.83,-185.77 541.64,-192.18"/>
</g>
<!-- Node11 -->
<g id="node11" class="node">
<title>Node11</title>
<g id="a_node11"><a xlink:href="../../d9/dab/_f_m_c__enums_8h.html" target="_top" xlink:title=" ">
<polygon fill="white" stroke="#666666" points="656,-129 576,-129 576,-110 656,-110 656,-129"/>
<text text-anchor="middle" x="616" y="-117" font-family="Helvetica,sans-Serif" font-size="10.00">FMC_enums.h</text>
</a>
</g>
</g>
<!-- Node5&#45;&gt;Node11 -->
<g id="edge21" class="edge">
<title>Node5&#45;&gt;Node11</title>
<path fill="none" stroke="#63b8ff" d="M513.06,-221.56C560.21,-214.92 619.01,-203.05 634,-184 644.28,-170.94 637.13,-152.3 629.01,-138.59"/>
<polygon fill="#63b8ff" stroke="#63b8ff" points="632.12,-136.95 623.71,-130.51 626.26,-140.79 632.12,-136.95"/>
</g>
<!-- Node12 -->
<g id="node12" class="node">
<title>Node12</title>
<g id="a_node12"><a xlink:href="../../df/dc3/_f_m_c__typedefs_8h.html" target="_top" xlink:title=" ">
<polygon fill="white" stroke="#666666" points="762,-129 674,-129 674,-110 762,-110 762,-129"/>
<text text-anchor="middle" x="718" y="-117" font-family="Helvetica,sans-Serif" font-size="10.00">FMC_typedefs.h</text>
</a>
</g>
</g>
<!-- Node5&#45;&gt;Node12 -->
<g id="edge20" class="edge">
<title>Node5&#45;&gt;Node12</title>
<path fill="none" stroke="#63b8ff" d="M513.33,-223.08C554.22,-217.54 607.52,-206.39 650,-184 671.57,-172.63 691.34,-152.6 703.94,-138.06"/>
<polygon fill="#63b8ff" stroke="#63b8ff" points="706.43,-140.54 710.16,-130.62 701.06,-136.05 706.43,-140.54"/>
</g>
<!-- Node13 -->
<g id="node13" class="node">
<title>Node13</title>
<g id="a_node13"><a xlink:href="../../de/d25/_f_m_c__flags_8h.html" target="_top" xlink:title=" ">
<polygon fill="white" stroke="#666666" points="383.5,-184 252.5,-184 252.5,-165 383.5,-165 383.5,-184"/>
<text text-anchor="middle" x="318" y="-172" font-family="Helvetica,sans-Serif" font-size="10.00">preprocessor/FMC_flags.h</text>
</a>
</g>
</g>
<!-- Node5&#45;&gt;Node13 -->
<g id="edge19" class="edge">
<title>Node5&#45;&gt;Node13</title>
<path fill="none" stroke="#63b8ff" d="M427.61,-219.51C406.43,-211.01 374.41,-198.15 350.44,-188.53"/>
<polygon fill="#63b8ff" stroke="#63b8ff" points="352.05,-185.4 341.47,-184.92 349.44,-191.9 352.05,-185.4"/>
</g>
<!-- Node14 -->
<g id="node14" class="node">
<title>Node14</title>
<g id="a_node14"><a xlink:href="../../dc/de1/_f_m_c__errors_8h.html" target="_top" xlink:title=" ">
<polygon fill="white" stroke="#666666" points="498.5,-184 401.5,-184 401.5,-165 498.5,-165 498.5,-184"/>
<text text-anchor="middle" x="450" y="-172" font-family="Helvetica,sans-Serif" font-size="10.00">utils/FMC_errors.h</text>
</a>
</g>
</g>
<!-- Node5&#45;&gt;Node14 -->
<g id="edge22" class="edge">
<title>Node5&#45;&gt;Node14</title>
<path fill="none" stroke="#63b8ff" d="M450,-219.75C450,-213.27 450,-204.16 450,-195.9"/>
<polygon fill="#63b8ff" stroke="#63b8ff" points="453.5,-195.96 450,-185.96 446.5,-195.96 453.5,-195.96"/>
</g>
<!-- Node15 -->
<g id="node15" class="node">
<title>Node15</title>
<g id="a_node15"><a xlink:href="../../de/d83/_f_m_c__globals_8h.html" target="_top" xlink:title=" ">
<polygon fill="white" stroke="#666666" points="822.5,-184 719.5,-184 719.5,-165 822.5,-165 822.5,-184"/>
<text text-anchor="middle" x="771" y="-172" font-family="Helvetica,sans-Serif" font-size="10.00">utils/FMC_globals.h</text>
</a>
</g>
</g>
<!-- Node5&#45;&gt;Node15 -->
<g id="edge26" class="edge">
<title>Node5&#45;&gt;Node15</title>
<path fill="none" stroke="#63b8ff" d="M504.45,-219.51C560.83,-210.2 648.81,-195.68 708.11,-185.88"/>
<polygon fill="#63b8ff" stroke="#63b8ff" points="708.42,-189.38 717.71,-184.3 707.28,-182.47 708.42,-189.38"/>
</g>
<!-- Node16 -->
<g id="node16" class="node">
<title>Node16</title>
<g id="a_node16"><a xlink:href="../../d8/d32/_f_m_c__deprecated_8h.html" target="_top" xlink:title=" ">
<polygon fill="white" stroke="#666666" points="120,-184 0,-184 0,-165 120,-165 120,-184"/>
<text text-anchor="middle" x="60" y="-172" font-family="Helvetica,sans-Serif" font-size="10.00">utils/FMC_deprecated.h</text>
</a>
</g>
</g>
<!-- Node5&#45;&gt;Node16 -->
<g id="edge29" class="edge">
<title>Node5&#45;&gt;Node16</title>
<path fill="none" stroke="#63b8ff" d="M386.91,-219.93C317.13,-210.44 204.92,-195.19 131.82,-185.26"/>
<polygon fill="#63b8ff" stroke="#63b8ff" points="132.32,-181.8 121.94,-183.92 131.37,-188.73 132.32,-181.8"/>
</g>
<!-- Node6&#45;&gt;Node7 -->
<g id="edge6" class="edge">
<title>Node6&#45;&gt;Node7</title>
<path fill="none" stroke="#63b8ff" d="M616.78,-54.51C651.19,-45.61 704.04,-31.95 741.72,-22.21"/>
<polygon fill="#63b8ff" stroke="#63b8ff" points="742.13,-25.72 750.93,-19.83 740.37,-18.94 742.13,-25.72"/>
</g>
<!-- Node8 -->
<g id="node8" class="node">
<title>Node8</title>
<g id="a_node8"><a xlink:href="../../d4/d62/_f_m_c__attributes_8h.html" target="_top" xlink:title=" ">
<polygon fill="white" stroke="#666666" points="628,-19 536,-19 536,0 628,0 628,-19"/>
<text text-anchor="middle" x="582" y="-7" font-family="Helvetica,sans-Serif" font-size="10.00">FMC_attributes.h</text>
</a>
</g>
</g>
<!-- Node6&#45;&gt;Node8 -->
<g id="edge7" class="edge">
<title>Node6&#45;&gt;Node8</title>
<path fill="none" stroke="#63b8ff" d="M576.83,-54.75C575.42,-48.19 574.96,-38.95 575.43,-30.6"/>
<polygon fill="#63b8ff" stroke="#63b8ff" points="578.87,-31.3 576.61,-20.94 571.92,-30.45 578.87,-31.3"/>
</g>
<!-- Node8&#45;&gt;Node6 -->
<g id="edge8" class="edge">
<title>Node8&#45;&gt;Node6</title>
<path fill="none" stroke="#63b8ff" d="M587.21,-19.44C588.58,-25.97 589.04,-35.1 588.57,-43.35"/>
<polygon fill="#63b8ff" stroke="#63b8ff" points="585.1,-42.89 587.35,-53.25 592.05,-43.75 585.1,-42.89"/>
</g>
<!-- Node10&#45;&gt;Node3 -->
<g id="edge12" class="edge">
<title>Node10&#45;&gt;Node3</title>
<path fill="none" stroke="#63b8ff" d="M525.2,-164.51C471.55,-153.98 383.87,-136.77 335.6,-127.29"/>
<polygon fill="#63b8ff" stroke="#63b8ff" points="336.47,-123.9 325.98,-125.4 335.12,-130.77 336.47,-123.9"/>
</g>
<!-- Node10&#45;&gt;Node6 -->
<g id="edge14" class="edge">
<title>Node10&#45;&gt;Node6</title>
<path fill="none" stroke="#63b8ff" d="M569.23,-164.81C566.99,-152.52 563.82,-129.4 567,-110 568.37,-101.66 571.09,-92.77 573.84,-85.15"/>
<polygon fill="#63b8ff" stroke="#63b8ff" points="577.08,-86.48 577.45,-75.89 570.56,-83.94 577.08,-86.48"/>
</g>
<!-- Node10&#45;&gt;Node9 -->
<g id="edge13" class="edge">
<title>Node10&#45;&gt;Node9</title>
<path fill="none" stroke="#63b8ff" d="M550.47,-164.51C531.32,-156.12 502.5,-143.5 480.63,-133.92"/>
<polygon fill="#63b8ff" stroke="#63b8ff" points="482.17,-130.77 471.61,-129.97 479.36,-137.18 482.17,-130.77"/>
</g>
<!-- Node10&#45;&gt;Node11 -->
<g id="edge15" class="edge">
<title>Node10&#45;&gt;Node11</title>
<path fill="none" stroke="#63b8ff" d="M578.43,-164.75C584.58,-157.5 593.51,-146.98 601.13,-138.02"/>
<polygon fill="#63b8ff" stroke="#63b8ff" points="603.62,-140.48 607.43,-130.6 598.29,-135.95 603.62,-140.48"/>
</g>
<!-- Node10&#45;&gt;Node12 -->
<g id="edge17" class="edge">
<title>Node10&#45;&gt;Node12</title>
<path fill="none" stroke="#63b8ff" d="M595.94,-164.51C619.84,-155.89 656.14,-142.8 682.95,-133.14"/>
<polygon fill="#63b8ff" stroke="#63b8ff" points="683.79,-136.56 692.01,-129.87 681.41,-129.97 683.79,-136.56"/>
</g>
<!-- Node11&#45;&gt;Node6 -->
<g id="edge16" class="edge">
<title>Node11&#45;&gt;Node6</title>
<path fill="none" stroke="#63b8ff" d="M610.39,-109.75C605.88,-102.73 599.41,-92.64 593.79,-83.87"/>
<polygon fill="#63b8ff" stroke="#63b8ff" points="596.9,-82.24 588.55,-75.72 591.01,-86.02 596.9,-82.24"/>
</g>
<!-- Node12&#45;&gt;Node6 -->
<g id="edge18" class="edge">
<title>Node12&#45;&gt;Node6</title>
<path fill="none" stroke="#63b8ff" d="M694.93,-109.51C673.11,-101.01 640.12,-88.15 615.42,-78.53"/>
<polygon fill="#63b8ff" stroke="#63b8ff" points="616.73,-75.28 606.14,-74.91 614.19,-81.8 616.73,-75.28"/>
</g>
<!-- Node14&#45;&gt;Node3 -->
<g id="edge23" class="edge">
<title>Node14&#45;&gt;Node3</title>
<path fill="none" stroke="#63b8ff" d="M424.72,-164.51C400.06,-155.74 362.36,-142.33 335.06,-132.62"/>
<polygon fill="#63b8ff" stroke="#63b8ff" points="336.45,-129.4 325.86,-129.34 334.11,-135.99 336.45,-129.4"/>
</g>
<!-- Node14&#45;&gt;Node6 -->
<g id="edge25" class="edge">
<title>Node14&#45;&gt;Node6</title>
<path fill="none" stroke="#63b8ff" d="M422.6,-164.58C392.94,-153.49 352.21,-133.16 371,-110 387.23,-89.99 447.01,-78.63 498.81,-72.41"/>
<polygon fill="#63b8ff" stroke="#63b8ff" points="499.03,-75.91 508.57,-71.29 498.23,-68.95 499.03,-75.91"/>
</g>
<!-- Node14&#45;&gt;Node9 -->
<g id="edge24" class="edge">
<title>Node14&#45;&gt;Node9</title>
<path fill="none" stroke="#63b8ff" d="M450,-164.75C450,-158.27 450,-149.16 450,-140.9"/>
<polygon fill="#63b8ff" stroke="#63b8ff" points="453.5,-140.96 450,-130.96 446.5,-140.96 453.5,-140.96"/>
</g>
<!-- Node15&#45;&gt;Node6 -->
<g id="edge28" class="edge">
<title>Node15&#45;&gt;Node6</title>
<path fill="none" stroke="#63b8ff" d="M774.12,-164.59C778.2,-151.19 783.46,-125.73 771,-110 757.47,-92.92 709.4,-81.74 665.13,-74.86"/>
<polygon fill="#63b8ff" stroke="#63b8ff" points="665.88,-71.43 655.47,-73.42 664.85,-78.35 665.88,-71.43"/>
</g>
<!-- Node15&#45;&gt;Node12 -->
<g id="edge27" class="edge">
<title>Node15&#45;&gt;Node12</title>
<path fill="none" stroke="#63b8ff" d="M762.25,-164.75C754.85,-157.35 744.04,-146.54 734.95,-137.45"/>
<polygon fill="#63b8ff" stroke="#63b8ff" points="737.56,-135.11 728.01,-130.51 732.61,-140.06 737.56,-135.11"/>
</g>
<!-- Node16&#45;&gt;Node8 -->
<g id="edge30" class="edge">
<title>Node16&#45;&gt;Node8</title>
<path fill="none" stroke="#63b8ff" d="M59.95,-164.64C60.37,-150.81 63.33,-124.24 79,-110 143.87,-51.04 406.62,-23.91 524.4,-14.53"/>
<polygon fill="#63b8ff" stroke="#63b8ff" points="524.46,-18.04 534.16,-13.77 523.92,-11.06 524.46,-18.04"/>
</g>
<!-- Node17 -->
<g id="node17" class="node">
<title>Node17</title>
<g id="a_node17"><a xlink:title=" ">
<polygon fill="#e0e0e0" stroke="#999999" points="139.5,-129 88.5,-129 88.5,-110 139.5,-110 139.5,-129"/>
<text text-anchor="middle" x="114" y="-117" font-family="Helvetica,sans-Serif" font-size="10.00">stddef.h</text>
</a>
</g>
</g>
<!-- Node16&#45;&gt;Node17 -->
<g id="edge31" class="edge">
<title>Node16&#45;&gt;Node17</title>
<path fill="none" stroke="#63b8ff" d="M68.92,-164.75C76.45,-157.35 87.47,-146.54 96.73,-137.45"/>
<polygon fill="#63b8ff" stroke="#63b8ff" points="99.12,-140 103.81,-130.5 94.22,-135.01 99.12,-140"/>
</g>
</g>
</svg>
