<?xml version="1.0" encoding="UTF-8" standalone="no"?>
<!DOCTYPE svg PUBLIC "-//W3C//DTD SVG 1.1//EN"
 "http://www.w3.org/Graphics/SVG/1.1/DTD/svg11.dtd">
<!-- Generated by graphviz version 2.43.0 (0)
 -->
<!-- Title: FManC_string Pages: 1 -->
<svg width="146pt" height="171pt"
 viewBox="0.00 0.00 145.50 171.00" xmlns="http://www.w3.org/2000/svg" xmlns:xlink="http://www.w3.org/1999/xlink">
<g id="graph0" class="graph" transform="scale(1 1) rotate(0) translate(4 167)">
<title>FManC_string</title>
<!-- Node1 -->
<g id="node1" class="node">
<title>Node1</title>
<g id="a_node1"><a xlink:title=" ">
<polygon fill="#999999" stroke="#666666" points="34.5,-0.5 34.5,-57.5 117.5,-57.5 117.5,-0.5 34.5,-0.5"/>
<text text-anchor="middle" x="76" y="-45.5" font-family="Helvetica,sans-Serif" font-size="10.00">FManC_string</text>
<polyline fill="none" stroke="#666666" points="34.5,-38.5 117.5,-38.5 "/>
<text text-anchor="middle" x="76" y="-26.5" font-family="Helvetica,sans-Serif" font-size="10.00"> </text>
<polyline fill="none" stroke="#666666" points="34.5,-19.5 117.5,-19.5 "/>
<text text-anchor="middle" x="76" y="-7.5" font-family="Helvetica,sans-Serif" font-size="10.00"> </text>
</a>
</g>
</g>
<!-- Node2 -->
<g id="node2" class="node">
<title>Node2</title>
<g id="a_node2"><a xlink:title=" ">
<polygon fill="white" stroke="#666666" points="0,-105.5 0,-162.5 74,-162.5 74,-105.5 0,-105.5"/>
<text text-anchor="middle" x="37" y="-150.5" font-family="Helvetica,sans-Serif" font-size="10.00">FMC_Char *</text>
<polyline fill="none" stroke="#666666" points="0,-143.5 74,-143.5 "/>
<text text-anchor="middle" x="37" y="-131.5" font-family="Helvetica,sans-Serif" font-size="10.00"> </text>
<polyline fill="none" stroke="#666666" points="0,-124.5 74,-124.5 "/>
<text text-anchor="middle" x="37" y="-112.5" font-family="Helvetica,sans-Serif" font-size="10.00"> </text>
</a>
</g>
</g>
<!-- Node2&#45;&gt;Node1 -->
<g id="edge1" class="edge">
<title>Node2&#45;&gt;Node1</title>
<path fill="none" stroke="#404040" d="M45.02,-105.22C47.93,-95.85 51.39,-85.4 55,-76 55.85,-73.79 56.76,-71.53 57.69,-69.26"/>
<polygon fill="none" stroke="#404040" points="57.81,-69 56.51,-61.91 62.56,-57.99 63.86,-65.08 57.81,-69"/>
<text text-anchor="middle" x="74" y="-79" font-family="Helvetica,sans-Serif" font-size="10.00"> +chars</text>
</g>
<!-- Node3 -->
<g id="node3" class="node">
<title>Node3</title>
<g id="a_node3"><a xlink:title=" ">
<polygon fill="white" stroke="#666666" points="92.5,-105.5 92.5,-162.5 137.5,-162.5 137.5,-105.5 92.5,-105.5"/>
<text text-anchor="middle" x="115" y="-150.5" font-family="Helvetica,sans-Serif" font-size="10.00">size_t</text>
<polyline fill="none" stroke="#666666" points="92.5,-143.5 137.5,-143.5 "/>
<text text-anchor="middle" x="115" y="-131.5" font-family="Helvetica,sans-Serif" font-size="10.00"> </text>
<polyline fill="none" stroke="#666666" points="92.5,-124.5 137.5,-124.5 "/>
<text text-anchor="middle" x="115" y="-112.5" font-family="Helvetica,sans-Serif" font-size="10.00"> </text>
</a>
</g>
</g>
<!-- Node3&#45;&gt;Node1 -->
<g id="edge2" class="edge">
<title>Node3&#45;&gt;Node1</title>
<path fill="none" stroke="#404040" d="M104.55,-105.4C100.31,-94.2 95.33,-81.06 90.74,-68.92"/>
<polygon fill="none" stroke="#404040" points="90.73,-68.9 84.86,-64.71 86.48,-57.68 92.35,-61.87 90.73,-68.9"/>
<text text-anchor="middle" x="111.5" y="-79" font-family="Helvetica,sans-Serif" font-size="10.00"> +size</text>
</g>
</g>
</svg>
