<?xml version="1.0" encoding="UTF-8" standalone="no"?>
<!DOCTYPE svg PUBLIC "-//W3C//DTD SVG 1.1//EN"
 "http://www.w3.org/Graphics/SVG/1.1/DTD/svg11.dtd">
<!-- Generated by graphviz version 2.43.0 (0)
 -->
<!-- Title: FManC_string Pages: 1 -->
<svg width="332pt" height="414pt"
 viewBox="0.00 0.00 332.00 414.00" xmlns="http://www.w3.org/2000/svg" xmlns:xlink="http://www.w3.org/1999/xlink">
<g id="graph0" class="graph" transform="scale(1 1) rotate(0) translate(4 410)">
<title>FManC_string</title>
<!-- Node1 -->
<g id="node1" class="node">
<title>Node1</title>
<g id="a_node1"><a xlink:title=" ">
<polygon fill="#999999" stroke="#666666" points="206.5,-0.5 206.5,-57.5 289.5,-57.5 289.5,-0.5 206.5,-0.5"/>
<text text-anchor="middle" x="248" y="-45.5" font-family="Helvetica,sans-Serif" font-size="10.00">FManC_string</text>
<polyline fill="none" stroke="#666666" points="206.5,-38.5 289.5,-38.5 "/>
<text text-anchor="middle" x="248" y="-26.5" font-family="Helvetica,sans-Serif" font-size="10.00"> </text>
<polyline fill="none" stroke="#666666" points="206.5,-19.5 289.5,-19.5 "/>
<text text-anchor="middle" x="248" y="-7.5" font-family="Helvetica,sans-Serif" font-size="10.00"> </text>
</a>
</g>
</g>
<!-- Node2 -->
<g id="node2" class="node">
<title>Node2</title>
<g id="a_node2"><a xlink:href="../../d5/de5/FMC__structs_8h.html#d8/dc1/structFManC__Char" target="_top" xlink:title=" ">
<polygon fill="white" stroke="#666666" points="169,-105.5 169,-162.5 247,-162.5 247,-105.5 169,-105.5"/>
<text text-anchor="middle" x="208" y="-150.5" font-family="Helvetica,sans-Serif" font-size="10.00">FManC_Char</text>
<polyline fill="none" stroke="#666666" points="169,-143.5 247,-143.5 "/>
<text text-anchor="middle" x="208" y="-131.5" font-family="Helvetica,sans-Serif" font-size="10.00"> </text>
<polyline fill="none" stroke="#666666" points="169,-124.5 247,-124.5 "/>
<text text-anchor="middle" x="208" y="-112.5" font-family="Helvetica,sans-Serif" font-size="10.00"> </text>
</a>
</g>
</g>
<!-- Node2&#45;&gt;Node1 -->
<g id="edge1" class="edge">
<title>Node2&#45;&gt;Node1</title>
<path fill="none" stroke="#404040" d="M217.26,-105.31C220.51,-95.95 224.29,-85.47 228,-76 228.92,-73.66 229.89,-71.26 230.88,-68.84"/>
<polygon fill="none" stroke="#404040" points="230.96,-68.65 229.6,-61.57 235.62,-57.59 236.97,-64.68 230.96,-68.65"/>
<text text-anchor="middle" x="247" y="-79" font-family="Helvetica,sans-Serif" font-size="10.00"> +chars</text>
</g>
<!-- Node3 -->
<g id="node3" class="node">
<title>Node3</title>
<g id="a_node3"><a xlink:title=" ">
<polygon fill="white" stroke="#666666" points="0,-210.5 0,-267.5 136,-267.5 136,-210.5 0,-210.5"/>
<text text-anchor="middle" x="68" y="-255.5" font-family="Helvetica,sans-Serif" font-size="10.00">enum FManC_Encodings</text>
<polyline fill="none" stroke="#666666" points="0,-248.5 136,-248.5 "/>
<text text-anchor="middle" x="68" y="-236.5" font-family="Helvetica,sans-Serif" font-size="10.00"> </text>
<polyline fill="none" stroke="#666666" points="0,-229.5 136,-229.5 "/>
<text text-anchor="middle" x="68" y="-217.5" font-family="Helvetica,sans-Serif" font-size="10.00"> </text>
</a>
</g>
</g>
<!-- Node3&#45;&gt;Node2 -->
<g id="edge2" class="edge">
<title>Node3&#45;&gt;Node2</title>
<path fill="none" stroke="#404040" d="M105.52,-210.4C122.47,-197.93 142.68,-183.06 160.66,-169.83"/>
<polygon fill="none" stroke="#404040" points="160.71,-169.79 163.18,-163.01 170.38,-162.68 167.92,-169.46 160.71,-169.79"/>
<text text-anchor="middle" x="171" y="-184" font-family="Helvetica,sans-Serif" font-size="10.00"> +encoding</text>
</g>
<!-- Node4 -->
<g id="node4" class="node">
<title>Node4</title>
<g id="a_node4"><a xlink:href="../../d5/de5/FMC__structs_8h.html#dc/d1a/structFManC__CharComp" target="_top" xlink:title=" ">
<polygon fill="white" stroke="#666666" points="154.5,-210.5 154.5,-267.5 261.5,-267.5 261.5,-210.5 154.5,-210.5"/>
<text text-anchor="middle" x="208" y="-255.5" font-family="Helvetica,sans-Serif" font-size="10.00">FManC_CharComp</text>
<polyline fill="none" stroke="#666666" points="154.5,-248.5 261.5,-248.5 "/>
<text text-anchor="middle" x="208" y="-236.5" font-family="Helvetica,sans-Serif" font-size="10.00"> </text>
<polyline fill="none" stroke="#666666" points="154.5,-229.5 261.5,-229.5 "/>
<text text-anchor="middle" x="208" y="-217.5" font-family="Helvetica,sans-Serif" font-size="10.00"> </text>
</a>
</g>
</g>
<!-- Node4&#45;&gt;Node2 -->
<g id="edge3" class="edge">
<title>Node4&#45;&gt;Node2</title>
<path fill="none" stroke="#404040" d="M208,-210.4C208,-199.55 208,-186.87 208,-175.05"/>
<polygon fill="none" stroke="#404040" points="208,-174.68 204,-168.68 208,-162.68 212,-168.68 208,-174.68"/>
<text text-anchor="middle" x="227.5" y="-184" font-family="Helvetica,sans-Serif" font-size="10.00"> +comp</text>
</g>
<!-- Node5 -->
<g id="node5" class="node">
<title>Node5</title>
<g id="a_node5"><a xlink:title=" ">
<polygon fill="white" stroke="#666666" points="169.5,-348.5 169.5,-405.5 246.5,-405.5 246.5,-348.5 169.5,-348.5"/>
<text text-anchor="middle" x="208" y="-393.5" font-family="Helvetica,sans-Serif" font-size="10.00">unsigned int</text>
<polyline fill="none" stroke="#666666" points="169.5,-386.5 246.5,-386.5 "/>
<text text-anchor="middle" x="208" y="-374.5" font-family="Helvetica,sans-Serif" font-size="10.00"> </text>
<polyline fill="none" stroke="#666666" points="169.5,-367.5 246.5,-367.5 "/>
<text text-anchor="middle" x="208" y="-355.5" font-family="Helvetica,sans-Serif" font-size="10.00"> </text>
</a>
</g>
</g>
<!-- Node5&#45;&gt;Node4 -->
<g id="edge4" class="edge">
<title>Node5&#45;&gt;Node4</title>
<path fill="none" stroke="#404040" d="M208,-348.48C208,-328.79 208,-301.99 208,-279.95"/>
<polygon fill="none" stroke="#404040" points="208,-279.95 204,-273.95 208,-267.95 212,-273.95 208,-279.95"/>
<text text-anchor="middle" x="242" y="-322" font-family="Helvetica,sans-Serif" font-size="10.00"> +middleLeft</text>
<text text-anchor="middle" x="242" y="-311" font-family="Helvetica,sans-Serif" font-size="10.00">+middleRight</text>
<text text-anchor="middle" x="242" y="-300" font-family="Helvetica,sans-Serif" font-size="10.00">+mostLeft</text>
<text text-anchor="middle" x="242" y="-289" font-family="Helvetica,sans-Serif" font-size="10.00">+mostRight</text>
</g>
<!-- Node6 -->
<g id="node6" class="node">
<title>Node6</title>
<g id="a_node6"><a xlink:title=" ">
<polygon fill="white" stroke="#666666" points="280,-210.5 280,-267.5 324,-267.5 324,-210.5 280,-210.5"/>
<text text-anchor="middle" x="302" y="-255.5" font-family="Helvetica,sans-Serif" font-size="10.00">_Bool</text>
<polyline fill="none" stroke="#666666" points="280,-248.5 324,-248.5 "/>
<text text-anchor="middle" x="302" y="-236.5" font-family="Helvetica,sans-Serif" font-size="10.00"> </text>
<polyline fill="none" stroke="#666666" points="280,-229.5 324,-229.5 "/>
<text text-anchor="middle" x="302" y="-217.5" font-family="Helvetica,sans-Serif" font-size="10.00"> </text>
</a>
</g>
</g>
<!-- Node6&#45;&gt;Node2 -->
<g id="edge5" class="edge">
<title>Node6&#45;&gt;Node2</title>
<path fill="none" stroke="#404040" d="M279.77,-212.92C270.88,-202.94 260.5,-191.39 251,-181 248.18,-177.92 245.25,-174.74 242.3,-171.55"/>
<polygon fill="none" stroke="#404040" points="242.19,-171.43 235.17,-169.76 234.02,-162.64 241.03,-164.31 242.19,-171.43"/>
<text text-anchor="middle" x="281" y="-184" font-family="Helvetica,sans-Serif" font-size="10.00"> +isNull</text>
</g>
<!-- Node7 -->
<g id="node7" class="node">
<title>Node7</title>
<g id="a_node7"><a xlink:title=" ">
<polygon fill="white" stroke="#666666" points="265.5,-105.5 265.5,-162.5 310.5,-162.5 310.5,-105.5 265.5,-105.5"/>
<text text-anchor="middle" x="288" y="-150.5" font-family="Helvetica,sans-Serif" font-size="10.00">size_t</text>
<polyline fill="none" stroke="#666666" points="265.5,-143.5 310.5,-143.5 "/>
<text text-anchor="middle" x="288" y="-131.5" font-family="Helvetica,sans-Serif" font-size="10.00"> </text>
<polyline fill="none" stroke="#666666" points="265.5,-124.5 310.5,-124.5 "/>
<text text-anchor="middle" x="288" y="-112.5" font-family="Helvetica,sans-Serif" font-size="10.00"> </text>
</a>
</g>
</g>
<!-- Node7&#45;&gt;Node1 -->
<g id="edge6" class="edge">
<title>Node7&#45;&gt;Node1</title>
<path fill="none" stroke="#404040" d="M277.4,-105.45C273.79,-96.1 269.73,-85.59 266,-76 265.1,-73.69 264.18,-71.31 263.24,-68.92"/>
<polygon fill="none" stroke="#404040" points="263.24,-68.9 257.33,-64.77 258.87,-57.72 264.78,-61.86 263.24,-68.9"/>
<text text-anchor="middle" x="286.5" y="-79" font-family="Helvetica,sans-Serif" font-size="10.00"> +size</text>
</g>
</g>
</svg>
