<?xml version="1.0" encoding="UTF-8" standalone="no"?>
<!DOCTYPE svg PUBLIC "-//W3C//DTD SVG 1.1//EN"
 "http://www.w3.org/Graphics/SVG/1.1/DTD/svg11.dtd">
<!-- Generated by graphviz version 2.43.0 (0)
 -->
<!-- Title: src/files/FMC_paths.c Pages: 1 -->
<svg width="1009pt" height="357pt"
 viewBox="0.00 0.00 1008.50 357.00" xmlns="http://www.w3.org/2000/svg" xmlns:xlink="http://www.w3.org/1999/xlink">
<g id="graph0" class="graph" transform="scale(1 1) rotate(0) translate(4 353)">
<title>src/files/FMC_paths.c</title>
<!-- Node1 -->
<g id="node1" class="node">
<title>Node1</title>
<g id="a_node1"><a xlink:title=" ">
<polygon fill="#999999" stroke="#666666" points="141,-349 22,-349 22,-330 141,-330 141,-349"/>
<text text-anchor="middle" x="81.5" y="-337" font-family="Helvetica,sans-Serif" font-size="10.00">src/files/FMC_paths.c</text>
</a>
</g>
</g>
<!-- Node2 -->
<g id="node2" class="node">
<title>Node2</title>
<g id="a_node2"><a xlink:title=" ">
<polygon fill="#e0e0e0" stroke="#999999" points="53,-294 0,-294 0,-275 53,-275 53,-294"/>
<text text-anchor="middle" x="26.5" y="-282" font-family="Helvetica,sans-Serif" font-size="10.00">string.h</text>
</a>
</g>
</g>
<!-- Node1&#45;&gt;Node2 -->
<g id="edge1" class="edge">
<title>Node1&#45;&gt;Node2</title>
<path fill="none" stroke="#63b8ff" d="M72.42,-329.75C64.41,-322.03 52.54,-310.6 42.88,-301.28"/>
<polygon fill="#63b8ff" stroke="#63b8ff" points="45.04,-298.51 35.41,-294.09 40.19,-303.55 45.04,-298.51"/>
</g>
<!-- Node3 -->
<g id="node3" class="node">
<title>Node3</title>
<g id="a_node3"><a xlink:title=" ">
<polygon fill="#e0e0e0" stroke="#999999" points="330.5,-129 280.5,-129 280.5,-110 330.5,-110 330.5,-129"/>
<text text-anchor="middle" x="305.5" y="-117" font-family="Helvetica,sans-Serif" font-size="10.00">stdio.h</text>
</a>
</g>
</g>
<!-- Node1&#45;&gt;Node3 -->
<g id="edge2" class="edge">
<title>Node1&#45;&gt;Node3</title>
<path fill="none" stroke="#63b8ff" d="M83.8,-329.85C91.69,-301.79 120.34,-212.4 176.5,-165 203.23,-142.44 242.03,-131.1 270.09,-125.54"/>
<polygon fill="#63b8ff" stroke="#63b8ff" points="271.07,-128.92 280.28,-123.69 269.81,-122.04 271.07,-128.92"/>
</g>
<!-- Node4 -->
<g id="node4" class="node">
<title>Node4</title>
<g id="a_node4"><a xlink:href="../../d2/deb/FMC__file__management_8h.html" target="_top" xlink:title=" ">
<polygon fill="white" stroke="#666666" points="363.5,-294 225.5,-294 225.5,-275 363.5,-275 363.5,-294"/>
<text text-anchor="middle" x="294.5" y="-282" font-family="Helvetica,sans-Serif" font-size="10.00">FMC_file_management.h</text>
</a>
</g>
</g>
<!-- Node1&#45;&gt;Node4 -->
<g id="edge3" class="edge">
<title>Node1&#45;&gt;Node4</title>
<path fill="none" stroke="#63b8ff" d="M115.72,-329.98C152.26,-320.89 210.28,-306.46 250.26,-296.51"/>
<polygon fill="#63b8ff" stroke="#63b8ff" points="251.15,-299.89 260.01,-294.08 249.46,-293.1 251.15,-299.89"/>
</g>
<!-- Node5 -->
<g id="node5" class="node">
<title>Node5</title>
<g id="a_node5"><a xlink:href="../../d9/de1/FMC__general_8h.html" target="_top" xlink:title=" ">
<polygon fill="white" stroke="#666666" points="479.5,-239 341.5,-239 341.5,-220 479.5,-220 479.5,-239"/>
<text text-anchor="middle" x="410.5" y="-227" font-family="Helvetica,sans-Serif" font-size="10.00">../general/FMC_general.h</text>
</a>
</g>
</g>
<!-- Node4&#45;&gt;Node5 -->
<g id="edge4" class="edge">
<title>Node4&#45;&gt;Node5</title>
<path fill="none" stroke="#63b8ff" d="M313.14,-274.98C331.8,-266.46 360.75,-253.23 382.24,-243.41"/>
<polygon fill="#63b8ff" stroke="#63b8ff" points="383.88,-246.51 391.52,-239.17 380.97,-240.14 383.88,-246.51"/>
</g>
<!-- Node6 -->
<g id="node6" class="node">
<title>Node6</title>
<g id="a_node6"><a xlink:href="../../d0/d28/FMC__macros_8h.html" target="_top" xlink:title=" ">
<polygon fill="white" stroke="#666666" points="474,-74 319,-74 319,-55 474,-55 474,-74"/>
<text text-anchor="middle" x="396.5" y="-62" font-family="Helvetica,sans-Serif" font-size="10.00">preprocessor/FMC_macros.h</text>
</a>
</g>
</g>
<!-- Node5&#45;&gt;Node6 -->
<g id="edge5" class="edge">
<title>Node5&#45;&gt;Node6</title>
<path fill="none" stroke="#63b8ff" d="M341.38,-223.29C239.24,-213.03 66.53,-184.33 129.5,-110 152.3,-83.09 240.17,-72.43 308.96,-68.23"/>
<polygon fill="#63b8ff" stroke="#63b8ff" points="309.18,-71.72 318.96,-67.65 308.77,-64.73 309.18,-71.72"/>
</g>
<!-- Node7 -->
<g id="node7" class="node">
<title>Node7</title>
<g id="a_node7"><a xlink:href="../../d7/dff/FMC__platform_8h.html" target="_top" xlink:title=" ">
<polygon fill="white" stroke="#666666" points="214,-19 119,-19 119,0 214,0 214,-19"/>
<text text-anchor="middle" x="166.5" y="-7" font-family="Helvetica,sans-Serif" font-size="10.00">FMC_platform.h</text>
</a>
</g>
</g>
<!-- Node5&#45;&gt;Node7 -->
<g id="edge10" class="edge">
<title>Node5&#45;&gt;Node7</title>
<path fill="none" stroke="#63b8ff" d="M341.3,-226.8C266.58,-223.46 154.24,-213.51 124.5,-184 81.28,-141.12 129.12,-61.88 153.72,-27.34"/>
<polygon fill="#63b8ff" stroke="#63b8ff" points="156.59,-29.34 159.68,-19.21 150.95,-25.21 156.59,-29.34"/>
</g>
<!-- Node10 -->
<g id="node10" class="node">
<title>Node10</title>
<g id="a_node10"><a xlink:href="../../da/dd3/FMC__consts_8h.html" target="_top" xlink:title=" ">
<polygon fill="white" stroke="#666666" points="650.5,-129 500.5,-129 500.5,-110 650.5,-110 650.5,-129"/>
<text text-anchor="middle" x="575.5" y="-117" font-family="Helvetica,sans-Serif" font-size="10.00">preprocessor/FMC_consts.h</text>
</a>
</g>
</g>
<!-- Node5&#45;&gt;Node10 -->
<g id="edge11" class="edge">
<title>Node5&#45;&gt;Node10</title>
<path fill="none" stroke="#63b8ff" d="M423.72,-219.84C452.08,-201.28 518.99,-157.49 553.72,-134.75"/>
<polygon fill="#63b8ff" stroke="#63b8ff" points="555.76,-137.6 562.21,-129.2 551.93,-131.74 555.76,-137.6"/>
</g>
<!-- Node11 -->
<g id="node11" class="node">
<title>Node11</title>
<g id="a_node11"><a xlink:href="../../d5/de5/FMC__structs_8h.html" target="_top" xlink:title=" ">
<polygon fill="white" stroke="#666666" points="301.5,-184 185.5,-184 185.5,-165 301.5,-165 301.5,-184"/>
<text text-anchor="middle" x="243.5" y="-172" font-family="Helvetica,sans-Serif" font-size="10.00">types/FMC_structs.h</text>
</a>
</g>
</g>
<!-- Node5&#45;&gt;Node11 -->
<g id="edge12" class="edge">
<title>Node5&#45;&gt;Node11</title>
<path fill="none" stroke="#63b8ff" d="M383.67,-219.98C355.63,-211.09 311.45,-197.07 280.2,-187.15"/>
<polygon fill="#63b8ff" stroke="#63b8ff" points="281.13,-183.77 270.54,-184.08 279.01,-190.44 281.13,-183.77"/>
</g>
<!-- Node12 -->
<g id="node12" class="node">
<title>Node12</title>
<g id="a_node12"><a xlink:href="../../d6/d25/FMC__enums_8h.html" target="_top" xlink:title=" ">
<polygon fill="white" stroke="#666666" points="224.5,-129 138.5,-129 138.5,-110 224.5,-110 224.5,-129"/>
<text text-anchor="middle" x="181.5" y="-117" font-family="Helvetica,sans-Serif" font-size="10.00">FMC_enums.h</text>
</a>
</g>
</g>
<!-- Node5&#45;&gt;Node12 -->
<g id="edge23" class="edge">
<title>Node5&#45;&gt;Node12</title>
<path fill="none" stroke="#63b8ff" d="M341.28,-224.86C279.99,-220.01 197.13,-208.93 176.5,-184 166.16,-171.51 169.31,-152.5 173.88,-138.53"/>
<polygon fill="#63b8ff" stroke="#63b8ff" points="177.21,-139.62 177.46,-129.02 170.66,-137.15 177.21,-139.62"/>
</g>
<!-- Node13 -->
<g id="node13" class="node">
<title>Node13</title>
<g id="a_node13"><a xlink:href="../../df/df8/FMC__typedefs_8h.html" target="_top" xlink:title=" ">
<polygon fill="white" stroke="#666666" points="444,-129 349,-129 349,-110 444,-110 444,-129"/>
<text text-anchor="middle" x="396.5" y="-117" font-family="Helvetica,sans-Serif" font-size="10.00">FMC_typedefs.h</text>
</a>
</g>
</g>
<!-- Node5&#45;&gt;Node13 -->
<g id="edge22" class="edge">
<title>Node5&#45;&gt;Node13</title>
<path fill="none" stroke="#63b8ff" d="M390.3,-219.91C376.03,-212.64 357.99,-200.71 349.5,-184 340.24,-165.78 357.69,-147.25 373.89,-134.95"/>
<polygon fill="#63b8ff" stroke="#63b8ff" points="375.97,-137.77 382.1,-129.12 371.92,-132.06 375.97,-137.77"/>
</g>
<!-- Node14 -->
<g id="node14" class="node">
<title>Node14</title>
<g id="a_node14"><a xlink:href="../../d2/d5e/FMC__flags_8h.html" target="_top" xlink:title=" ">
<polygon fill="white" stroke="#666666" points="1000.5,-74 858.5,-74 858.5,-55 1000.5,-55 1000.5,-74"/>
<text text-anchor="middle" x="929.5" y="-62" font-family="Helvetica,sans-Serif" font-size="10.00">preprocessor/FMC_flags.h</text>
</a>
</g>
</g>
<!-- Node5&#45;&gt;Node14 -->
<g id="edge20" class="edge">
<title>Node5&#45;&gt;Node14</title>
<path fill="none" stroke="#63b8ff" d="M479.57,-227.56C613.16,-225.02 896.48,-215.9 926.5,-184 951.8,-157.12 943.12,-109.73 935.65,-83.77"/>
<polygon fill="#63b8ff" stroke="#63b8ff" points="938.95,-82.58 932.63,-74.08 932.27,-84.67 938.95,-82.58"/>
</g>
<!-- Node15 -->
<g id="node15" class="node">
<title>Node15</title>
<g id="a_node15"><a xlink:href="../../dd/ddf/FMC__errors_8h.html" target="_top" xlink:title=" ">
<polygon fill="white" stroke="#666666" points="463,-184 358,-184 358,-165 463,-165 463,-184"/>
<text text-anchor="middle" x="410.5" y="-172" font-family="Helvetica,sans-Serif" font-size="10.00">utils/FMC_errors.h</text>
</a>
</g>
</g>
<!-- Node5&#45;&gt;Node15 -->
<g id="edge24" class="edge">
<title>Node5&#45;&gt;Node15</title>
<path fill="none" stroke="#63b8ff" d="M410.5,-219.75C410.5,-212.8 410.5,-202.85 410.5,-194.13"/>
<polygon fill="#63b8ff" stroke="#63b8ff" points="414,-194.09 410.5,-184.09 407,-194.09 414,-194.09"/>
</g>
<!-- Node16 -->
<g id="node16" class="node">
<title>Node16</title>
<g id="a_node16"><a xlink:href="../../de/d86/FMC__globals_8h.html" target="_top" xlink:title=" ">
<polygon fill="white" stroke="#666666" points="767.5,-184 655.5,-184 655.5,-165 767.5,-165 767.5,-184"/>
<text text-anchor="middle" x="711.5" y="-172" font-family="Helvetica,sans-Serif" font-size="10.00">utils/FMC_globals.h</text>
</a>
</g>
</g>
<!-- Node5&#45;&gt;Node16 -->
<g id="edge28" class="edge">
<title>Node5&#45;&gt;Node16</title>
<path fill="none" stroke="#63b8ff" d="M458.86,-219.98C511.69,-210.68 596.32,-195.78 652.89,-185.82"/>
<polygon fill="#63b8ff" stroke="#63b8ff" points="653.52,-189.26 662.76,-184.08 652.3,-182.37 653.52,-189.26"/>
</g>
<!-- Node17 -->
<g id="node17" class="node">
<title>Node17</title>
<g id="a_node17"><a xlink:href="../../d4/d06/FMC__deprecated_8h.html" target="_top" xlink:title=" ">
<polygon fill="white" stroke="#666666" points="917,-184 786,-184 786,-165 917,-165 917,-184"/>
<text text-anchor="middle" x="851.5" y="-172" font-family="Helvetica,sans-Serif" font-size="10.00">utils/FMC_deprecated.h</text>
</a>
</g>
</g>
<!-- Node5&#45;&gt;Node17 -->
<g id="edge32" class="edge">
<title>Node5&#45;&gt;Node17</title>
<path fill="none" stroke="#63b8ff" d="M479.89,-220.16C560.34,-210.49 692.5,-194.61 775.62,-184.62"/>
<polygon fill="#63b8ff" stroke="#63b8ff" points="776.24,-188.07 785.75,-183.4 775.41,-181.12 776.24,-188.07"/>
</g>
<!-- Node19 -->
<g id="node19" class="node">
<title>Node19</title>
<g id="a_node19"><a xlink:href="../../da/d45/FMC__str__view_8h.html" target="_top" xlink:title=" ">
<polygon fill="white" stroke="#666666" points="637,-184 520,-184 520,-165 637,-165 637,-184"/>
<text text-anchor="middle" x="578.5" y="-172" font-family="Helvetica,sans-Serif" font-size="10.00">utils/FMC_str_view.h</text>
</a>
</g>
</g>
<!-- Node5&#45;&gt;Node19 -->
<g id="edge35" class="edge">
<title>Node5&#45;&gt;Node19</title>
<path fill="none" stroke="#63b8ff" d="M432.38,-219.98C458.73,-211.05 503.25,-196.94 536.31,-187.02"/>
<polygon fill="#63b8ff" stroke="#63b8ff" points="537.58,-190.29 546.17,-184.08 535.58,-183.58 537.58,-190.29"/>
</g>
<!-- Node6&#45;&gt;Node7 -->
<g id="edge6" class="edge">
<title>Node6&#45;&gt;Node7</title>
<path fill="none" stroke="#63b8ff" d="M359.55,-54.98C319.93,-45.86 256.91,-31.33 213.73,-21.38"/>
<polygon fill="#63b8ff" stroke="#63b8ff" points="214.27,-17.92 203.74,-19.08 212.7,-24.74 214.27,-17.92"/>
</g>
<!-- Node8 -->
<g id="node8" class="node">
<title>Node8</title>
<g id="a_node8"><a xlink:title=" ">
<polygon fill="#e0e0e0" stroke="#999999" points="702.5,-19 618.5,-19 618.5,0 702.5,0 702.5,-19"/>
<text text-anchor="middle" x="660.5" y="-7" font-family="Helvetica,sans-Serif" font-size="10.00">metalang99.h</text>
</a>
</g>
</g>
<!-- Node6&#45;&gt;Node8 -->
<g id="edge7" class="edge">
<title>Node6&#45;&gt;Node8</title>
<path fill="none" stroke="#63b8ff" d="M438.92,-54.98C485.01,-45.73 558.69,-30.94 608.3,-20.98"/>
<polygon fill="#63b8ff" stroke="#63b8ff" points="609.07,-24.39 618.19,-18.99 607.7,-17.53 609.07,-24.39"/>
</g>
<!-- Node9 -->
<g id="node9" class="node">
<title>Node9</title>
<g id="a_node9"><a xlink:href="../../d1/d2e/FMC__attributes_8h.html" target="_top" xlink:title=" ">
<polygon fill="white" stroke="#666666" points="446.5,-19 346.5,-19 346.5,0 446.5,0 446.5,-19"/>
<text text-anchor="middle" x="396.5" y="-7" font-family="Helvetica,sans-Serif" font-size="10.00">FMC_attributes.h</text>
</a>
</g>
</g>
<!-- Node6&#45;&gt;Node9 -->
<g id="edge8" class="edge">
<title>Node6&#45;&gt;Node9</title>
<path fill="none" stroke="#63b8ff" d="M391.33,-54.75C389.84,-47.8 389.4,-37.85 390.02,-29.13"/>
<polygon fill="#63b8ff" stroke="#63b8ff" points="393.51,-29.47 391.37,-19.09 386.57,-28.53 393.51,-29.47"/>
</g>
<!-- Node9&#45;&gt;Node6 -->
<g id="edge9" class="edge">
<title>Node9&#45;&gt;Node6</title>
<path fill="none" stroke="#63b8ff" d="M401.63,-19.09C403.14,-25.99 403.59,-35.93 402.99,-44.66"/>
<polygon fill="#63b8ff" stroke="#63b8ff" points="399.5,-44.38 401.67,-54.75 406.44,-45.29 399.5,-44.38"/>
</g>
<!-- Node11&#45;&gt;Node3 -->
<g id="edge13" class="edge">
<title>Node11&#45;&gt;Node3</title>
<path fill="none" stroke="#63b8ff" d="M253.46,-164.98C262.63,-157.15 276.44,-145.34 287.53,-135.86"/>
<polygon fill="#63b8ff" stroke="#63b8ff" points="290.03,-138.33 295.36,-129.17 285.48,-133.01 290.03,-138.33"/>
</g>
<!-- Node11&#45;&gt;Node6 -->
<g id="edge15" class="edge">
<title>Node11&#45;&gt;Node6</title>
<path fill="none" stroke="#63b8ff" d="M245.04,-164.84C247.9,-151.29 255.26,-125.09 271.5,-110 288.99,-93.75 312.81,-83.36 334.97,-76.75"/>
<polygon fill="#63b8ff" stroke="#63b8ff" points="335.97,-80.11 344.67,-74.06 334.1,-73.36 335.97,-80.11"/>
</g>
<!-- Node11&#45;&gt;Node10 -->
<g id="edge14" class="edge">
<title>Node11&#45;&gt;Node10</title>
<path fill="none" stroke="#63b8ff" d="M296.84,-164.98C355.44,-155.63 449.51,-140.61 511.9,-130.65"/>
<polygon fill="#63b8ff" stroke="#63b8ff" points="512.69,-134.07 522.02,-129.04 511.59,-127.16 512.69,-134.07"/>
</g>
<!-- Node11&#45;&gt;Node12 -->
<g id="edge16" class="edge">
<title>Node11&#45;&gt;Node12</title>
<path fill="none" stroke="#63b8ff" d="M233.54,-164.98C224.37,-157.15 210.56,-145.34 199.47,-135.86"/>
<polygon fill="#63b8ff" stroke="#63b8ff" points="201.52,-133.01 191.64,-129.17 196.97,-138.33 201.52,-133.01"/>
</g>
<!-- Node11&#45;&gt;Node13 -->
<g id="edge18" class="edge">
<title>Node11&#45;&gt;Node13</title>
<path fill="none" stroke="#63b8ff" d="M268.08,-164.98C293.55,-156.16 333.54,-142.31 362.13,-132.41"/>
<polygon fill="#63b8ff" stroke="#63b8ff" points="363.42,-135.66 371.73,-129.08 361.13,-129.05 363.42,-135.66"/>
</g>
<!-- Node12&#45;&gt;Node6 -->
<g id="edge17" class="edge">
<title>Node12&#45;&gt;Node6</title>
<path fill="none" stroke="#63b8ff" d="M216.04,-109.98C252.92,-100.89 311.49,-86.46 351.84,-76.51"/>
<polygon fill="#63b8ff" stroke="#63b8ff" points="352.81,-79.87 361.69,-74.08 351.14,-73.08 352.81,-79.87"/>
</g>
<!-- Node13&#45;&gt;Node6 -->
<g id="edge19" class="edge">
<title>Node13&#45;&gt;Node6</title>
<path fill="none" stroke="#63b8ff" d="M396.5,-109.75C396.5,-102.8 396.5,-92.85 396.5,-84.13"/>
<polygon fill="#63b8ff" stroke="#63b8ff" points="400,-84.09 396.5,-74.09 393,-84.09 400,-84.09"/>
</g>
<!-- Node14&#45;&gt;Node8 -->
<g id="edge21" class="edge">
<title>Node14&#45;&gt;Node8</title>
<path fill="none" stroke="#63b8ff" d="M886.28,-54.98C839.04,-45.68 763.35,-30.76 712.8,-20.8"/>
<polygon fill="#63b8ff" stroke="#63b8ff" points="713.21,-17.32 702.73,-18.82 711.86,-24.19 713.21,-17.32"/>
</g>
<!-- Node15&#45;&gt;Node3 -->
<g id="edge25" class="edge">
<title>Node15&#45;&gt;Node3</title>
<path fill="none" stroke="#63b8ff" d="M393.63,-164.98C376.89,-156.54 351,-143.47 331.61,-133.68"/>
<polygon fill="#63b8ff" stroke="#63b8ff" points="333.18,-130.55 322.68,-129.17 330.03,-136.8 333.18,-130.55"/>
</g>
<!-- Node15&#45;&gt;Node6 -->
<g id="edge27" class="edge">
<title>Node15&#45;&gt;Node6</title>
<path fill="none" stroke="#63b8ff" d="M423.48,-164.94C439.6,-153.18 463.78,-131.06 453.5,-110 447.2,-97.09 435.15,-86.83 423.74,-79.43"/>
<polygon fill="#63b8ff" stroke="#63b8ff" points="425.23,-76.25 414.85,-74.12 421.64,-82.25 425.23,-76.25"/>
</g>
<!-- Node15&#45;&gt;Node10 -->
<g id="edge26" class="edge">
<title>Node15&#45;&gt;Node10</title>
<path fill="none" stroke="#63b8ff" d="M437.01,-164.98C464.71,-156.09 508.36,-142.07 539.24,-132.15"/>
<polygon fill="#63b8ff" stroke="#63b8ff" points="540.33,-135.47 548.78,-129.08 538.19,-128.81 540.33,-135.47"/>
</g>
<!-- Node16&#45;&gt;Node6 -->
<g id="edge30" class="edge">
<title>Node16&#45;&gt;Node6</title>
<path fill="none" stroke="#63b8ff" d="M707.1,-164.84C699.48,-150.8 682.42,-123.31 659.5,-110 630.28,-93.03 548.9,-80.95 484.33,-73.69"/>
<polygon fill="#63b8ff" stroke="#63b8ff" points="484.44,-70.18 474.12,-72.57 483.68,-77.14 484.44,-70.18"/>
</g>
<!-- Node16&#45;&gt;Node10 -->
<g id="edge31" class="edge">
<title>Node16&#45;&gt;Node10</title>
<path fill="none" stroke="#63b8ff" d="M689.65,-164.98C667.38,-156.3 632.6,-142.75 607.28,-132.88"/>
<polygon fill="#63b8ff" stroke="#63b8ff" points="608.34,-129.54 597.75,-129.17 605.79,-136.06 608.34,-129.54"/>
</g>
<!-- Node16&#45;&gt;Node13 -->
<g id="edge29" class="edge">
<title>Node16&#45;&gt;Node13</title>
<path fill="none" stroke="#63b8ff" d="M660.89,-164.98C604.42,-155.48 513.23,-140.14 454.08,-130.19"/>
<polygon fill="#63b8ff" stroke="#63b8ff" points="454.59,-126.72 444.15,-128.52 453.43,-133.63 454.59,-126.72"/>
</g>
<!-- Node17&#45;&gt;Node9 -->
<g id="edge33" class="edge">
<title>Node17&#45;&gt;Node9</title>
<path fill="none" stroke="#63b8ff" d="M829.7,-164.96C797.89,-152.57 736.84,-128.99 684.5,-110 593.68,-77.05 485.86,-40.47 431.53,-22.21"/>
<polygon fill="#63b8ff" stroke="#63b8ff" points="432.61,-18.89 422.02,-19.02 430.39,-25.52 432.61,-18.89"/>
</g>
<!-- Node18 -->
<g id="node18" class="node">
<title>Node18</title>
<g id="a_node18"><a xlink:title=" ">
<polygon fill="#e0e0e0" stroke="#999999" points="879.5,-129 823.5,-129 823.5,-110 879.5,-110 879.5,-129"/>
<text text-anchor="middle" x="851.5" y="-117" font-family="Helvetica,sans-Serif" font-size="10.00">stddef.h</text>
</a>
</g>
</g>
<!-- Node17&#45;&gt;Node18 -->
<g id="edge34" class="edge">
<title>Node17&#45;&gt;Node18</title>
<path fill="none" stroke="#63b8ff" d="M851.5,-164.75C851.5,-157.8 851.5,-147.85 851.5,-139.13"/>
<polygon fill="#63b8ff" stroke="#63b8ff" points="855,-139.09 851.5,-129.09 848,-139.09 855,-139.09"/>
</g>
<!-- Node19&#45;&gt;Node5 -->
<g id="edge36" class="edge">
<title>Node19&#45;&gt;Node5</title>
<path fill="none" stroke="#63b8ff" d="M556.43,-184.08C529.98,-193.04 485.45,-207.15 452.45,-217.06"/>
<polygon fill="#63b8ff" stroke="#63b8ff" points="451.19,-213.78 442.61,-219.98 453.19,-220.49 451.19,-213.78"/>
</g>
</g>
</svg>
