<?xml version="1.0" encoding="UTF-8" standalone="no"?>
<!DOCTYPE svg PUBLIC "-//W3C//DTD SVG 1.1//EN"
 "http://www.w3.org/Graphics/SVG/1.1/DTD/svg11.dtd">
<!-- Generated by graphviz version 2.43.0 (0)
 -->
<!-- Title: src/files/FMC_paths.c Pages: 1 -->
<svg width="902pt" height="357pt"
 viewBox="0.00 0.00 902.37 357.00" xmlns="http://www.w3.org/2000/svg" xmlns:xlink="http://www.w3.org/1999/xlink">
<g id="graph0" class="graph" transform="scale(1 1) rotate(0) translate(4 353)">
<title>src/files/FMC_paths.c</title>
<!-- Node1 -->
<g id="node1" class="node">
<title>Node1</title>
<g id="a_node1"><a xlink:title=" ">
<polygon fill="#999999" stroke="#666666" points="219,-349 100,-349 100,-330 219,-330 219,-349"/>
<text text-anchor="middle" x="159.5" y="-337" font-family="Helvetica,sans-Serif" font-size="10.00">src/files/FMC_paths.c</text>
</a>
</g>
</g>
<!-- Node2 -->
<g id="node2" class="node">
<title>Node2</title>
<g id="a_node2"><a xlink:title=" ">
<polygon fill="#e0e0e0" stroke="#999999" points="131,-294 78,-294 78,-275 131,-275 131,-294"/>
<text text-anchor="middle" x="104.5" y="-282" font-family="Helvetica,sans-Serif" font-size="10.00">string.h</text>
</a>
</g>
</g>
<!-- Node1&#45;&gt;Node2 -->
<g id="edge1" class="edge">
<title>Node1&#45;&gt;Node2</title>
<path fill="none" stroke="#63b8ff" d="M150.42,-329.75C142.41,-322.03 130.54,-310.6 120.88,-301.28"/>
<polygon fill="#63b8ff" stroke="#63b8ff" points="123.04,-298.51 113.41,-294.09 118.19,-303.55 123.04,-298.51"/>
</g>
<!-- Node3 -->
<g id="node3" class="node">
<title>Node3</title>
<g id="a_node3"><a xlink:title=" ">
<polygon fill="#e0e0e0" stroke="#999999" points="345.5,-129 295.5,-129 295.5,-110 345.5,-110 345.5,-129"/>
<text text-anchor="middle" x="320.5" y="-117" font-family="Helvetica,sans-Serif" font-size="10.00">stdio.h</text>
</a>
</g>
</g>
<!-- Node1&#45;&gt;Node3 -->
<g id="edge2" class="edge">
<title>Node1&#45;&gt;Node3</title>
<path fill="none" stroke="#63b8ff" d="M161.84,-329.9C169.61,-302.75 196.81,-217.51 245.5,-165 257.83,-151.7 275.04,-141.11 289.86,-133.6"/>
<polygon fill="#63b8ff" stroke="#63b8ff" points="291.69,-136.6 299.18,-129.11 288.66,-130.29 291.69,-136.6"/>
</g>
<!-- Node4 -->
<g id="node4" class="node">
<title>Node4</title>
<g id="a_node4"><a xlink:href="../../d2/deb/FMC__file__management_8h.html" target="_top" xlink:title=" ">
<polygon fill="white" stroke="#666666" points="435.5,-294 297.5,-294 297.5,-275 435.5,-275 435.5,-294"/>
<text text-anchor="middle" x="366.5" y="-282" font-family="Helvetica,sans-Serif" font-size="10.00">FMC_file_management.h</text>
</a>
</g>
</g>
<!-- Node1&#45;&gt;Node4 -->
<g id="edge3" class="edge">
<title>Node1&#45;&gt;Node4</title>
<path fill="none" stroke="#63b8ff" d="M192.76,-329.98C228.11,-320.93 284.17,-306.58 323.01,-296.64"/>
<polygon fill="#63b8ff" stroke="#63b8ff" points="324.16,-299.95 332.98,-294.08 322.43,-293.17 324.16,-299.95"/>
</g>
<!-- Node5 -->
<g id="node5" class="node">
<title>Node5</title>
<g id="a_node5"><a xlink:href="../../d9/de1/FMC__general_8h.html" target="_top" xlink:title=" ">
<polygon fill="white" stroke="#666666" points="545.5,-239 407.5,-239 407.5,-220 545.5,-220 545.5,-239"/>
<text text-anchor="middle" x="476.5" y="-227" font-family="Helvetica,sans-Serif" font-size="10.00">../general/FMC_general.h</text>
</a>
</g>
</g>
<!-- Node4&#45;&gt;Node5 -->
<g id="edge4" class="edge">
<title>Node4&#45;&gt;Node5</title>
<path fill="none" stroke="#63b8ff" d="M384.17,-274.98C401.79,-266.5 429.08,-253.35 449.43,-243.54"/>
<polygon fill="#63b8ff" stroke="#63b8ff" points="451.02,-246.66 458.51,-239.17 447.98,-240.36 451.02,-246.66"/>
</g>
<!-- Node6 -->
<g id="node6" class="node">
<title>Node6</title>
<g id="a_node6"><a xlink:href="../../d0/d28/FMC__macros_8h.html" target="_top" xlink:title=" ">
<polygon fill="white" stroke="#666666" points="692,-74 537,-74 537,-55 692,-55 692,-74"/>
<text text-anchor="middle" x="614.5" y="-62" font-family="Helvetica,sans-Serif" font-size="10.00">preprocessor/FMC_macros.h</text>
</a>
</g>
</g>
<!-- Node5&#45;&gt;Node6 -->
<g id="edge5" class="edge">
<title>Node5&#45;&gt;Node6</title>
<path fill="none" stroke="#63b8ff" d="M407.29,-224.66C346.87,-219.68 265.75,-208.52 245.5,-184 240.12,-177.49 242.84,-173.01 245.5,-165 255.1,-136.06 260.23,-125.48 286.5,-110 326.01,-86.72 443.73,-75.17 526.79,-69.77"/>
<polygon fill="#63b8ff" stroke="#63b8ff" points="527.24,-73.25 537,-69.13 526.8,-66.27 527.24,-73.25"/>
</g>
<!-- Node7 -->
<g id="node7" class="node">
<title>Node7</title>
<g id="a_node7"><a xlink:href="../../d7/dff/FMC__platform_8h.html" target="_top" xlink:title=" ">
<polygon fill="white" stroke="#666666" points="879,-19 784,-19 784,0 879,0 879,-19"/>
<text text-anchor="middle" x="831.5" y="-7" font-family="Helvetica,sans-Serif" font-size="10.00">FMC_platform.h</text>
</a>
</g>
</g>
<!-- Node5&#45;&gt;Node7 -->
<g id="edge9" class="edge">
<title>Node5&#45;&gt;Node7</title>
<path fill="none" stroke="#63b8ff" d="M545.79,-225.77C654.92,-220.76 856.75,-208.29 878.5,-184 919.2,-138.54 870.31,-61.31 844.94,-27.36"/>
<polygon fill="#63b8ff" stroke="#63b8ff" points="847.65,-25.15 838.79,-19.35 842.1,-29.41 847.65,-25.15"/>
</g>
<!-- Node9 -->
<g id="node9" class="node">
<title>Node9</title>
<g id="a_node9"><a xlink:href="../../da/dd3/FMC__consts_8h.html" target="_top" xlink:title=" ">
<polygon fill="white" stroke="#666666" points="551.5,-129 401.5,-129 401.5,-110 551.5,-110 551.5,-129"/>
<text text-anchor="middle" x="476.5" y="-117" font-family="Helvetica,sans-Serif" font-size="10.00">preprocessor/FMC_consts.h</text>
</a>
</g>
</g>
<!-- Node5&#45;&gt;Node9 -->
<g id="edge10" class="edge">
<title>Node5&#45;&gt;Node9</title>
<path fill="none" stroke="#63b8ff" d="M407.43,-224.03C349.63,-218.69 273.62,-207.34 254.5,-184 249.15,-177.47 249.15,-171.53 254.5,-165 271.89,-143.78 336.3,-132.47 391.29,-126.58"/>
<polygon fill="#63b8ff" stroke="#63b8ff" points="391.84,-130.04 401.44,-125.54 391.13,-123.07 391.84,-130.04"/>
</g>
<!-- Node10 -->
<g id="node10" class="node">
<title>Node10</title>
<g id="a_node10"><a xlink:href="../../d5/de5/FMC__structs_8h.html" target="_top" xlink:title=" ">
<polygon fill="white" stroke="#666666" points="663.5,-184 547.5,-184 547.5,-165 663.5,-165 663.5,-184"/>
<text text-anchor="middle" x="605.5" y="-172" font-family="Helvetica,sans-Serif" font-size="10.00">types/FMC_structs.h</text>
</a>
</g>
</g>
<!-- Node5&#45;&gt;Node10 -->
<g id="edge11" class="edge">
<title>Node5&#45;&gt;Node10</title>
<path fill="none" stroke="#63b8ff" d="M497.23,-219.98C518.26,-211.34 551.05,-197.87 575.04,-188.02"/>
<polygon fill="#63b8ff" stroke="#63b8ff" points="576.48,-191.21 584.4,-184.17 573.82,-184.73 576.48,-191.21"/>
</g>
<!-- Node11 -->
<g id="node11" class="node">
<title>Node11</title>
<g id="a_node11"><a xlink:href="../../d6/d25/FMC__enums_8h.html" target="_top" xlink:title=" ">
<polygon fill="white" stroke="#666666" points="693.5,-129 607.5,-129 607.5,-110 693.5,-110 693.5,-129"/>
<text text-anchor="middle" x="650.5" y="-117" font-family="Helvetica,sans-Serif" font-size="10.00">FMC_enums.h</text>
</a>
</g>
</g>
<!-- Node5&#45;&gt;Node11 -->
<g id="edge21" class="edge">
<title>Node5&#45;&gt;Node11</title>
<path fill="none" stroke="#63b8ff" d="M545.67,-221.87C595.51,-215.5 656.66,-203.84 672.5,-184 683.37,-170.39 674.08,-151.06 664.44,-137.3"/>
<polygon fill="#63b8ff" stroke="#63b8ff" points="667.11,-135.03 658.27,-129.19 661.54,-139.27 667.11,-135.03"/>
</g>
<!-- Node12 -->
<g id="node12" class="node">
<title>Node12</title>
<g id="a_node12"><a xlink:href="../../df/df8/FMC__typedefs_8h.html" target="_top" xlink:title=" ">
<polygon fill="white" stroke="#666666" points="807,-129 712,-129 712,-110 807,-110 807,-129"/>
<text text-anchor="middle" x="759.5" y="-117" font-family="Helvetica,sans-Serif" font-size="10.00">FMC_typedefs.h</text>
</a>
</g>
</g>
<!-- Node5&#45;&gt;Node12 -->
<g id="edge20" class="edge">
<title>Node5&#45;&gt;Node12</title>
<path fill="none" stroke="#63b8ff" d="M545.87,-223.13C588.81,-217.62 644.03,-206.49 688.5,-184 711.44,-172.39 732.71,-151.46 745.87,-136.81"/>
<polygon fill="#63b8ff" stroke="#63b8ff" points="748.71,-138.88 752.63,-129.03 743.43,-134.28 748.71,-138.88"/>
</g>
<!-- Node13 -->
<g id="node13" class="node">
<title>Node13</title>
<g id="a_node13"><a xlink:href="../../d2/d5e/FMC__flags_8h.html" target="_top" xlink:title=" ">
<polygon fill="white" stroke="#666666" points="405.5,-184 263.5,-184 263.5,-165 405.5,-165 405.5,-184"/>
<text text-anchor="middle" x="334.5" y="-172" font-family="Helvetica,sans-Serif" font-size="10.00">preprocessor/FMC_flags.h</text>
</a>
</g>
</g>
<!-- Node5&#45;&gt;Node13 -->
<g id="edge19" class="edge">
<title>Node5&#45;&gt;Node13</title>
<path fill="none" stroke="#63b8ff" d="M453.69,-219.98C430.33,-211.27 393.8,-197.63 367.33,-187.75"/>
<polygon fill="#63b8ff" stroke="#63b8ff" points="368.32,-184.39 357.73,-184.17 365.87,-190.95 368.32,-184.39"/>
</g>
<!-- Node14 -->
<g id="node14" class="node">
<title>Node14</title>
<g id="a_node14"><a xlink:href="../../dd/ddf/FMC__errors_8h.html" target="_top" xlink:title=" ">
<polygon fill="white" stroke="#666666" points="529,-184 424,-184 424,-165 529,-165 529,-184"/>
<text text-anchor="middle" x="476.5" y="-172" font-family="Helvetica,sans-Serif" font-size="10.00">utils/FMC_errors.h</text>
</a>
</g>
</g>
<!-- Node5&#45;&gt;Node14 -->
<g id="edge22" class="edge">
<title>Node5&#45;&gt;Node14</title>
<path fill="none" stroke="#63b8ff" d="M476.5,-219.75C476.5,-212.8 476.5,-202.85 476.5,-194.13"/>
<polygon fill="#63b8ff" stroke="#63b8ff" points="480,-194.09 476.5,-184.09 473,-194.09 480,-194.09"/>
</g>
<!-- Node15 -->
<g id="node15" class="node">
<title>Node15</title>
<g id="a_node15"><a xlink:href="../../de/d86/FMC__globals_8h.html" target="_top" xlink:title=" ">
<polygon fill="white" stroke="#666666" points="869.5,-184 757.5,-184 757.5,-165 869.5,-165 869.5,-184"/>
<text text-anchor="middle" x="813.5" y="-172" font-family="Helvetica,sans-Serif" font-size="10.00">utils/FMC_globals.h</text>
</a>
</g>
</g>
<!-- Node5&#45;&gt;Node15 -->
<g id="edge26" class="edge">
<title>Node5&#45;&gt;Node15</title>
<path fill="none" stroke="#63b8ff" d="M530.64,-219.98C590.13,-210.63 685.61,-195.61 748.94,-185.65"/>
<polygon fill="#63b8ff" stroke="#63b8ff" points="749.88,-189.05 759.21,-184.04 748.79,-182.13 749.88,-189.05"/>
</g>
<!-- Node16 -->
<g id="node16" class="node">
<title>Node16</title>
<g id="a_node16"><a xlink:href="../../d4/d06/FMC__deprecated_8h.html" target="_top" xlink:title=" ">
<polygon fill="white" stroke="#666666" points="131,-184 0,-184 0,-165 131,-165 131,-184"/>
<text text-anchor="middle" x="65.5" y="-172" font-family="Helvetica,sans-Serif" font-size="10.00">utils/FMC_deprecated.h</text>
</a>
</g>
</g>
<!-- Node5&#45;&gt;Node16 -->
<g id="edge29" class="edge">
<title>Node5&#45;&gt;Node16</title>
<path fill="none" stroke="#63b8ff" d="M410.47,-219.98C336.96,-210.51 218.37,-195.21 141.17,-185.26"/>
<polygon fill="#63b8ff" stroke="#63b8ff" points="141.4,-181.76 131.03,-183.95 140.5,-188.7 141.4,-181.76"/>
</g>
<!-- Node6&#45;&gt;Node7 -->
<g id="edge6" class="edge">
<title>Node6&#45;&gt;Node7</title>
<path fill="none" stroke="#63b8ff" d="M649.36,-54.98C686.59,-45.89 745.7,-31.46 786.43,-21.51"/>
<polygon fill="#63b8ff" stroke="#63b8ff" points="787.48,-24.85 796.36,-19.08 785.82,-18.05 787.48,-24.85"/>
</g>
<!-- Node8 -->
<g id="node8" class="node">
<title>Node8</title>
<g id="a_node8"><a xlink:href="../../d1/d2e/FMC__attributes_8h.html" target="_top" xlink:title=" ">
<polygon fill="white" stroke="#666666" points="664.5,-19 564.5,-19 564.5,0 664.5,0 664.5,-19"/>
<text text-anchor="middle" x="614.5" y="-7" font-family="Helvetica,sans-Serif" font-size="10.00">FMC_attributes.h</text>
</a>
</g>
</g>
<!-- Node6&#45;&gt;Node8 -->
<g id="edge7" class="edge">
<title>Node6&#45;&gt;Node8</title>
<path fill="none" stroke="#63b8ff" d="M609.33,-54.75C607.84,-47.8 607.4,-37.85 608.02,-29.13"/>
<polygon fill="#63b8ff" stroke="#63b8ff" points="611.51,-29.47 609.37,-19.09 604.57,-28.53 611.51,-29.47"/>
</g>
<!-- Node8&#45;&gt;Node6 -->
<g id="edge8" class="edge">
<title>Node8&#45;&gt;Node6</title>
<path fill="none" stroke="#63b8ff" d="M619.63,-19.09C621.14,-25.99 621.59,-35.93 620.99,-44.66"/>
<polygon fill="#63b8ff" stroke="#63b8ff" points="617.5,-44.38 619.67,-54.75 624.44,-45.29 617.5,-44.38"/>
</g>
<!-- Node10&#45;&gt;Node3 -->
<g id="edge12" class="edge">
<title>Node10&#45;&gt;Node3</title>
<path fill="none" stroke="#63b8ff" d="M559.71,-164.98C502.89,-154.42 407.22,-136.63 355.77,-127.06"/>
<polygon fill="#63b8ff" stroke="#63b8ff" points="356.27,-123.59 345.8,-125.2 354.99,-130.47 356.27,-123.59"/>
</g>
<!-- Node10&#45;&gt;Node6 -->
<g id="edge14" class="edge">
<title>Node10&#45;&gt;Node6</title>
<path fill="none" stroke="#63b8ff" d="M603,-164.82C599.82,-152.55 595.11,-129.45 598.5,-110 600.07,-101 603.3,-91.42 606.44,-83.46"/>
<polygon fill="#63b8ff" stroke="#63b8ff" points="609.72,-84.69 610.39,-74.12 603.27,-81.97 609.72,-84.69"/>
</g>
<!-- Node10&#45;&gt;Node9 -->
<g id="edge13" class="edge">
<title>Node10&#45;&gt;Node9</title>
<path fill="none" stroke="#63b8ff" d="M584.77,-164.98C563.74,-156.34 530.95,-142.87 506.96,-133.02"/>
<polygon fill="#63b8ff" stroke="#63b8ff" points="508.18,-129.73 497.6,-129.17 505.52,-136.21 508.18,-129.73"/>
</g>
<!-- Node10&#45;&gt;Node11 -->
<g id="edge15" class="edge">
<title>Node10&#45;&gt;Node11</title>
<path fill="none" stroke="#63b8ff" d="M612.93,-164.75C619.35,-157.18 628.81,-146.05 636.62,-136.84"/>
<polygon fill="#63b8ff" stroke="#63b8ff" points="639.4,-138.98 643.21,-129.09 634.07,-134.45 639.4,-138.98"/>
</g>
<!-- Node10&#45;&gt;Node12 -->
<g id="edge17" class="edge">
<title>Node10&#45;&gt;Node12</title>
<path fill="none" stroke="#63b8ff" d="M630.24,-164.98C655.87,-156.16 696.13,-142.31 724.91,-132.41"/>
<polygon fill="#63b8ff" stroke="#63b8ff" points="726.25,-135.65 734.56,-129.08 723.97,-129.03 726.25,-135.65"/>
</g>
<!-- Node11&#45;&gt;Node6 -->
<g id="edge16" class="edge">
<title>Node11&#45;&gt;Node6</title>
<path fill="none" stroke="#63b8ff" d="M644.56,-109.75C639.52,-102.34 632.16,-91.5 625.99,-82.41"/>
<polygon fill="#63b8ff" stroke="#63b8ff" points="628.85,-80.39 620.33,-74.09 623.06,-84.33 628.85,-80.39"/>
</g>
<!-- Node12&#45;&gt;Node6 -->
<g id="edge18" class="edge">
<title>Node12&#45;&gt;Node6</title>
<path fill="none" stroke="#63b8ff" d="M736.2,-109.98C712.25,-101.23 674.72,-87.51 647.67,-77.62"/>
<polygon fill="#63b8ff" stroke="#63b8ff" points="648.81,-74.32 638.22,-74.17 646.41,-80.89 648.81,-74.32"/>
</g>
<!-- Node14&#45;&gt;Node3 -->
<g id="edge23" class="edge">
<title>Node14&#45;&gt;Node3</title>
<path fill="none" stroke="#63b8ff" d="M451.44,-164.98C425.39,-156.14 384.45,-142.23 355.28,-132.32"/>
<polygon fill="#63b8ff" stroke="#63b8ff" points="356.1,-128.9 345.5,-128.99 353.84,-135.53 356.1,-128.9"/>
</g>
<!-- Node14&#45;&gt;Node6 -->
<g id="edge25" class="edge">
<title>Node14&#45;&gt;Node6</title>
<path fill="none" stroke="#63b8ff" d="M447.76,-164.95C416.31,-154.15 372.8,-134.04 392.5,-110 409.62,-89.11 472.35,-77.82 526.78,-71.85"/>
<polygon fill="#63b8ff" stroke="#63b8ff" points="527.25,-75.32 536.83,-70.79 526.52,-68.36 527.25,-75.32"/>
</g>
<!-- Node14&#45;&gt;Node9 -->
<g id="edge24" class="edge">
<title>Node14&#45;&gt;Node9</title>
<path fill="none" stroke="#63b8ff" d="M476.5,-164.75C476.5,-157.8 476.5,-147.85 476.5,-139.13"/>
<polygon fill="#63b8ff" stroke="#63b8ff" points="480,-139.09 476.5,-129.09 473,-139.09 480,-139.09"/>
</g>
<!-- Node15&#45;&gt;Node6 -->
<g id="edge28" class="edge">
<title>Node15&#45;&gt;Node6</title>
<path fill="none" stroke="#63b8ff" d="M817.26,-164.57C822.26,-151.15 829.08,-125.66 816.5,-110 801.85,-91.77 749.83,-80.57 702.25,-73.97"/>
<polygon fill="#63b8ff" stroke="#63b8ff" points="702.55,-70.48 692.18,-72.63 701.63,-77.42 702.55,-70.48"/>
</g>
<!-- Node15&#45;&gt;Node12 -->
<g id="edge27" class="edge">
<title>Node15&#45;&gt;Node12</title>
<path fill="none" stroke="#63b8ff" d="M804.58,-164.75C796.72,-157.03 785.07,-145.6 775.58,-136.28"/>
<polygon fill="#63b8ff" stroke="#63b8ff" points="777.84,-133.6 768.25,-129.09 772.94,-138.59 777.84,-133.6"/>
</g>
<!-- Node16&#45;&gt;Node8 -->
<g id="edge30" class="edge">
<title>Node16&#45;&gt;Node8</title>
<path fill="none" stroke="#63b8ff" d="M65.43,-164.62C65.83,-150.77 68.76,-124.16 84.5,-110 153.12,-48.25 430.53,-22.59 554.33,-14.06"/>
<polygon fill="#63b8ff" stroke="#63b8ff" points="554.66,-17.55 564.4,-13.38 554.19,-10.56 554.66,-17.55"/>
</g>
<!-- Node17 -->
<g id="node17" class="node">
<title>Node17</title>
<g id="a_node17"><a xlink:title=" ">
<polygon fill="#e0e0e0" stroke="#999999" points="149.5,-129 93.5,-129 93.5,-110 149.5,-110 149.5,-129"/>
<text text-anchor="middle" x="121.5" y="-117" font-family="Helvetica,sans-Serif" font-size="10.00">stddef.h</text>
</a>
</g>
</g>
<!-- Node16&#45;&gt;Node17 -->
<g id="edge31" class="edge">
<title>Node16&#45;&gt;Node17</title>
<path fill="none" stroke="#63b8ff" d="M74.5,-164.98C82.69,-157.23 95.01,-145.58 104.97,-136.14"/>
<polygon fill="#63b8ff" stroke="#63b8ff" points="107.48,-138.59 112.34,-129.17 102.67,-133.5 107.48,-138.59"/>
</g>
</g>
</svg>
