<?xml version="1.0" encoding="UTF-8" standalone="no"?>
<!DOCTYPE svg PUBLIC "-//W3C//DTD SVG 1.1//EN"
 "http://www.w3.org/Graphics/SVG/1.1/DTD/svg11.dtd">
<!-- Generated by graphviz version 2.43.0 (0)
 -->
<!-- Title: src/files/FMC_paths.c Pages: 1 -->
<!--zoomable 412 -->
<svg id="main" version="1.1" xmlns="http://www.w3.org/2000/svg" xmlns:xlink="http://www.w3.org/1999/xlink" xml:space="preserve" onload="init(evt)">
<style type="text/css"><![CDATA[
.edge:hover path { stroke: red; }
.edge:hover polygon { stroke: red; fill: red; }
]]></style>
<script type="text/javascript"><![CDATA[
var edges = document.getElementsByTagName('g');
if (edges && edges.length) {
  for (var i=0;i<edges.length;i++) {
    if (edges[i].id.substr(0,4)=='edge') {
      edges[i].setAttribute('class','edge');
    }
  }
}
]]></script>
        <defs>
                <circle id="rim" cx="0" cy="0" r="7"/>
                <circle id="rim2" cx="0" cy="0" r="3.5"/>
                <g id="zoomPlus">
                        <use xlink:href="#rim" fill="#404040">
                                <set attributeName="fill" to="#808080" begin="zoomplus.mouseover" end="zoomplus.mouseout"/>
                        </use>
                        <path d="M-4,0h8M0,-4v8" fill="none" stroke="white" stroke-width="1.5" pointer-events="none"/>
                </g>
                <g id="zoomMin">
                        <use xlink:href="#rim" fill="#404040">
                                <set attributeName="fill" to="#808080" begin="zoomminus.mouseover" end="zoomminus.mouseout"/>
                        </use>
                        <path d="M-4,0h8" fill="none" stroke="white" stroke-width="1.5" pointer-events="none"/>
                </g>
                <g id="dirArrow">
                        <path fill="none" stroke="white" stroke-width="1.5" d="M0,-3.0v7 M-2.5,-0.5L0,-3.0L2.5,-0.5"/>
                </g>
               <g id="resetDef">
                       <use xlink:href="#rim2" fill="#404040">
                               <set attributeName="fill" to="#808080" begin="reset.mouseover" end="reset.mouseout"/>
                       </use>
               </g>
        </defs>

<script type="text/javascript">
var viewWidth = 828;
var viewHeight = 412;
var sectionId = 'dynsection-0';
</script>
<script xlink:href="../../svgpan.js"/>
<svg id="graph" class="graph">
<g id="viewport">
<title>src/files/FMC_paths.c</title>
<!-- Node1 -->
<g id="node1" class="node">
<title>Node1</title>
<g id="a_node1"><a xlink:title=" ">
<polygon fill="#999999" stroke="#666666" points="141,-404 22,-404 22,-385 141,-385 141,-404"/>
<text text-anchor="middle" x="81.5" y="-392" font-family="Helvetica,sans-Serif" font-size="10.00">src/files/FMC_paths.c</text>
</a>
</g>
</g>
<!-- Node2 -->
<g id="node2" class="node">
<title>Node2</title>
<g id="a_node2"><a xlink:title=" ">
<polygon fill="#e0e0e0" stroke="#999999" points="53,-349 0,-349 0,-330 53,-330 53,-349"/>
<text text-anchor="middle" x="26.5" y="-337" font-family="Helvetica,sans-Serif" font-size="10.00">string.h</text>
</a>
</g>
</g>
<!-- Node1&#45;&gt;Node2 -->
<g id="edge1" class="edge">
<title>Node1&#45;&gt;Node2</title>
<path fill="none" stroke="#63b8ff" d="M72.42,-384.75C64.41,-377.03 52.54,-365.6 42.88,-356.28"/>
<polygon fill="#63b8ff" stroke="#63b8ff" points="45.04,-353.51 35.41,-349.09 40.19,-358.55 45.04,-353.51"/>
</g>
<!-- Node3 -->
<g id="node3" class="node">
<title>Node3</title>
<g id="a_node3"><a xlink:title=" ">
<polygon fill="#e0e0e0" stroke="#999999" points="134.5,-184 84.5,-184 84.5,-165 134.5,-165 134.5,-184"/>
<text text-anchor="middle" x="109.5" y="-172" font-family="Helvetica,sans-Serif" font-size="10.00">stdio.h</text>
</a>
</g>
</g>
<!-- Node1&#45;&gt;Node3 -->
<g id="edge2" class="edge">
<title>Node1&#45;&gt;Node3</title>
<path fill="none" stroke="#63b8ff" d="M82.17,-384.8C84.2,-359.35 90.72,-282.88 100.5,-220 101.82,-211.53 103.64,-202.23 105.3,-194.32"/>
<polygon fill="#63b8ff" stroke="#63b8ff" points="108.77,-194.84 107.47,-184.32 101.93,-193.35 108.77,-194.84"/>
</g>
<!-- Node4 -->
<g id="node4" class="node">
<title>Node4</title>
<g id="a_node4"><a xlink:href="../../d2/deb/FMC__file__management_8h.html" target="_top" xlink:title=" ">
<polygon fill="white" stroke="#666666" points="390.5,-349 252.5,-349 252.5,-330 390.5,-330 390.5,-349"/>
<text text-anchor="middle" x="321.5" y="-337" font-family="Helvetica,sans-Serif" font-size="10.00">FMC_file_management.h</text>
</a>
</g>
</g>
<!-- Node1&#45;&gt;Node4 -->
<g id="edge3" class="edge">
<title>Node1&#45;&gt;Node4</title>
<path fill="none" stroke="#63b8ff" d="M120.06,-384.98C161.57,-375.82 227.71,-361.21 272.79,-351.26"/>
<polygon fill="#63b8ff" stroke="#63b8ff" points="273.63,-354.66 282.64,-349.08 272.12,-347.82 273.63,-354.66"/>
</g>
<!-- Node5 -->
<g id="node5" class="node">
<title>Node5</title>
<g id="a_node5"><a xlink:href="../../d9/de1/FMC__general_8h.html" target="_top" xlink:title=" ">
<polygon fill="white" stroke="#666666" points="533.5,-294 395.5,-294 395.5,-275 533.5,-275 533.5,-294"/>
<text text-anchor="middle" x="464.5" y="-282" font-family="Helvetica,sans-Serif" font-size="10.00">../general/FMC_general.h</text>
</a>
</g>
</g>
<!-- Node4&#45;&gt;Node5 -->
<g id="edge4" class="edge">
<title>Node4&#45;&gt;Node5</title>
<path fill="none" stroke="#63b8ff" d="M344.48,-329.98C368,-321.27 404.79,-307.63 431.44,-297.75"/>
<polygon fill="#63b8ff" stroke="#63b8ff" points="432.95,-300.93 441.11,-294.17 430.51,-294.36 432.95,-300.93"/>
</g>
<!-- Node6 -->
<g id="node6" class="node">
<title>Node6</title>
<g id="a_node6"><a xlink:href="../../d0/d28/FMC__macros_8h.html" target="_top" xlink:title=" ">
<polygon fill="white" stroke="#666666" points="599,-129 444,-129 444,-110 599,-110 599,-129"/>
<text text-anchor="middle" x="521.5" y="-117" font-family="Helvetica,sans-Serif" font-size="10.00">preprocessor/FMC_macros.h</text>
</a>
</g>
</g>
<!-- Node5&#45;&gt;Node6 -->
<g id="edge5" class="edge">
<title>Node5&#45;&gt;Node6</title>
<path fill="none" stroke="#63b8ff" d="M533.74,-282.26C606.92,-279.32 715.32,-269.72 741.5,-239 791.02,-180.89 668.5,-146.68 587.07,-130.97"/>
<polygon fill="#63b8ff" stroke="#63b8ff" points="587.34,-127.45 576.86,-129.05 586.05,-134.33 587.34,-127.45"/>
</g>
<!-- Node7 -->
<g id="node7" class="node">
<title>Node7</title>
<g id="a_node7"><a xlink:href="../../d7/dff/FMC__platform_8h.html" target="_top" xlink:title=" ">
<polygon fill="white" stroke="#666666" points="647,-19 552,-19 552,0 647,0 647,-19"/>
<text text-anchor="middle" x="599.5" y="-7" font-family="Helvetica,sans-Serif" font-size="10.00">FMC_platform.h</text>
</a>
</g>
</g>
<!-- Node5&#45;&gt;Node7 -->
<g id="edge10" class="edge">
<title>Node5&#45;&gt;Node7</title>
<path fill="none" stroke="#63b8ff" d="M533.71,-278.39C608.54,-271.94 722.24,-259.19 760.5,-239 794.57,-221.02 819.5,-214.02 819.5,-175.5 819.5,-175.5 819.5,-175.5 819.5,-118.5 819.5,-46.21 722.59,-22.3 657.41,-14.4"/>
<polygon fill="#63b8ff" stroke="#63b8ff" points="657.56,-10.9 647.24,-13.26 656.79,-17.85 657.56,-10.9"/>
</g>
<!-- Node9 -->
<g id="node9" class="node">
<title>Node9</title>
<g id="a_node9"><a xlink:href="../../da/dd3/FMC__consts_8h.html" target="_top" xlink:title=" ">
<polygon fill="white" stroke="#666666" points="340.5,-184 190.5,-184 190.5,-165 340.5,-165 340.5,-184"/>
<text text-anchor="middle" x="265.5" y="-172" font-family="Helvetica,sans-Serif" font-size="10.00">preprocessor/FMC_consts.h</text>
</a>
</g>
</g>
<!-- Node5&#45;&gt;Node9 -->
<g id="edge11" class="edge">
<title>Node5&#45;&gt;Node9</title>
<path fill="none" stroke="#63b8ff" d="M395.34,-277.42C343.62,-271.27 279.09,-259.64 262.5,-239 252.57,-226.65 254.73,-208.17 258.53,-194.33"/>
<polygon fill="#63b8ff" stroke="#63b8ff" points="261.99,-195.02 261.74,-184.43 255.33,-192.86 261.99,-195.02"/>
</g>
<!-- Node10 -->
<g id="node10" class="node">
<title>Node10</title>
<g id="a_node10"><a xlink:href="../../d5/de5/FMC__structs_8h.html" target="_top" xlink:title=" ">
<polygon fill="white" stroke="#666666" points="387.5,-239 271.5,-239 271.5,-220 387.5,-220 387.5,-239"/>
<text text-anchor="middle" x="329.5" y="-227" font-family="Helvetica,sans-Serif" font-size="10.00">types/FMC_structs.h</text>
</a>
</g>
</g>
<!-- Node5&#45;&gt;Node10 -->
<g id="edge12" class="edge">
<title>Node5&#45;&gt;Node10</title>
<path fill="none" stroke="#63b8ff" d="M442.81,-274.98C420.7,-266.3 386.18,-252.75 361.05,-242.88"/>
<polygon fill="#63b8ff" stroke="#63b8ff" points="362.17,-239.57 351.58,-239.17 359.61,-246.08 362.17,-239.57"/>
</g>
<!-- Node11 -->
<g id="node11" class="node">
<title>Node11</title>
<g id="a_node11"><a xlink:href="../../d6/d25/FMC__enums_8h.html" target="_top" xlink:title=" ">
<polygon fill="white" stroke="#666666" points="482.5,-184 396.5,-184 396.5,-165 482.5,-165 482.5,-184"/>
<text text-anchor="middle" x="439.5" y="-172" font-family="Helvetica,sans-Serif" font-size="10.00">FMC_enums.h</text>
</a>
</g>
</g>
<!-- Node5&#45;&gt;Node11 -->
<g id="edge22" class="edge">
<title>Node5&#45;&gt;Node11</title>
<path fill="none" stroke="#63b8ff" d="M456.29,-274.8C448.96,-266.38 438.75,-252.9 434.5,-239 430.05,-224.44 431.83,-207.18 434.43,-194.33"/>
<polygon fill="#63b8ff" stroke="#63b8ff" points="437.89,-194.89 436.79,-184.35 431.08,-193.28 437.89,-194.89"/>
</g>
<!-- Node12 -->
<g id="node12" class="node">
<title>Node12</title>
<g id="a_node12"><a xlink:href="../../df/df8/FMC__typedefs_8h.html" target="_top" xlink:title=" ">
<polygon fill="white" stroke="#666666" points="651,-184 556,-184 556,-165 651,-165 651,-184"/>
<text text-anchor="middle" x="603.5" y="-172" font-family="Helvetica,sans-Serif" font-size="10.00">FMC_typedefs.h</text>
</a>
</g>
</g>
<!-- Node5&#45;&gt;Node12 -->
<g id="edge21" class="edge">
<title>Node5&#45;&gt;Node12</title>
<path fill="none" stroke="#63b8ff" d="M533.61,-281.41C602.22,-277.71 700.51,-267.44 724.5,-239 747.3,-211.97 702.53,-194.89 661.15,-185.34"/>
<polygon fill="#63b8ff" stroke="#63b8ff" points="661.81,-181.9 651.3,-183.18 660.32,-188.74 661.81,-181.9"/>
</g>
<!-- Node13 -->
<g id="node13" class="node">
<title>Node13</title>
<g id="a_node13"><a xlink:href="../../d2/d5e/FMC__flags_8h.html" target="_top" xlink:title=" ">
<polygon fill="white" stroke="#666666" points="585.5,-239 443.5,-239 443.5,-220 585.5,-220 585.5,-239"/>
<text text-anchor="middle" x="514.5" y="-227" font-family="Helvetica,sans-Serif" font-size="10.00">preprocessor/FMC_flags.h</text>
</a>
</g>
</g>
<!-- Node5&#45;&gt;Node13 -->
<g id="edge20" class="edge">
<title>Node5&#45;&gt;Node13</title>
<path fill="none" stroke="#63b8ff" d="M472.76,-274.75C479.96,-267.11 490.61,-255.82 499.35,-246.56"/>
<polygon fill="#63b8ff" stroke="#63b8ff" points="502.08,-248.76 506.4,-239.09 496.99,-243.96 502.08,-248.76"/>
</g>
<!-- Node14 -->
<g id="node14" class="node">
<title>Node14</title>
<g id="a_node14"><a xlink:href="../../dd/ddf/FMC__errors_8h.html" target="_top" xlink:title=" ">
<polygon fill="white" stroke="#666666" points="215,-239 110,-239 110,-220 215,-220 215,-239"/>
<text text-anchor="middle" x="162.5" y="-227" font-family="Helvetica,sans-Serif" font-size="10.00">utils/FMC_errors.h</text>
</a>
</g>
</g>
<!-- Node5&#45;&gt;Node14 -->
<g id="edge23" class="edge">
<title>Node5&#45;&gt;Node14</title>
<path fill="none" stroke="#63b8ff" d="M415.98,-274.98C362.89,-265.67 277.81,-250.74 221.06,-240.78"/>
<polygon fill="#63b8ff" stroke="#63b8ff" points="221.61,-237.32 211.15,-239.04 220.4,-244.21 221.61,-237.32"/>
</g>
<!-- Node15 -->
<g id="node15" class="node">
<title>Node15</title>
<g id="a_node15"><a xlink:href="../../de/d86/FMC__globals_8h.html" target="_top" xlink:title=" ">
<polygon fill="white" stroke="#666666" points="715.5,-239 603.5,-239 603.5,-220 715.5,-220 715.5,-239"/>
<text text-anchor="middle" x="659.5" y="-227" font-family="Helvetica,sans-Serif" font-size="10.00">utils/FMC_globals.h</text>
</a>
</g>
</g>
<!-- Node5&#45;&gt;Node15 -->
<g id="edge27" class="edge">
<title>Node5&#45;&gt;Node15</title>
<path fill="none" stroke="#63b8ff" d="M495.83,-274.98C528.99,-265.97 581.5,-251.7 618.06,-241.76"/>
<polygon fill="#63b8ff" stroke="#63b8ff" points="619.19,-245.08 627.92,-239.08 617.36,-238.33 619.19,-245.08"/>
</g>
<!-- Node6&#45;&gt;Node7 -->
<g id="edge6" class="edge">
<title>Node6&#45;&gt;Node7</title>
<path fill="none" stroke="#63b8ff" d="M538.09,-109.9C551.39,-102.19 569.59,-89.69 580.5,-74 589.84,-60.57 594.67,-42.47 597.11,-29.03"/>
<polygon fill="#63b8ff" stroke="#63b8ff" points="600.59,-29.46 598.65,-19.04 593.67,-28.39 600.59,-29.46"/>
</g>
<!-- Node8 -->
<g id="node8" class="node">
<title>Node8</title>
<g id="a_node8"><a xlink:href="../../d1/d2e/FMC__attributes_8h.html" target="_top" xlink:title=" ">
<polygon fill="white" stroke="#666666" points="571.5,-74 471.5,-74 471.5,-55 571.5,-55 571.5,-74"/>
<text text-anchor="middle" x="521.5" y="-62" font-family="Helvetica,sans-Serif" font-size="10.00">FMC_attributes.h</text>
</a>
</g>
</g>
<!-- Node6&#45;&gt;Node8 -->
<g id="edge7" class="edge">
<title>Node6&#45;&gt;Node8</title>
<path fill="none" stroke="#63b8ff" d="M516.33,-109.75C514.84,-102.8 514.4,-92.85 515.02,-84.13"/>
<polygon fill="#63b8ff" stroke="#63b8ff" points="518.51,-84.47 516.37,-74.09 511.57,-83.53 518.51,-84.47"/>
</g>
<!-- Node8&#45;&gt;Node6 -->
<g id="edge9" class="edge">
<title>Node8&#45;&gt;Node6</title>
<path fill="none" stroke="#63b8ff" d="M526.63,-74.09C528.14,-80.99 528.59,-90.93 527.99,-99.66"/>
<polygon fill="#63b8ff" stroke="#63b8ff" points="524.5,-99.38 526.67,-109.75 531.44,-100.29 524.5,-99.38"/>
</g>
<!-- Node8&#45;&gt;Node7 -->
<g id="edge8" class="edge">
<title>Node8&#45;&gt;Node7</title>
<path fill="none" stroke="#63b8ff" d="M534.03,-54.98C545.9,-46.92 563.96,-34.65 578.11,-25.03"/>
<polygon fill="#63b8ff" stroke="#63b8ff" points="580.44,-27.69 586.74,-19.17 576.5,-21.9 580.44,-27.69"/>
</g>
<!-- Node10&#45;&gt;Node3 -->
<g id="edge13" class="edge">
<title>Node10&#45;&gt;Node3</title>
<path fill="none" stroke="#63b8ff" d="M294.15,-219.98C253.06,-210.08 185.65,-193.84 144.64,-183.97"/>
<polygon fill="#63b8ff" stroke="#63b8ff" points="145.36,-180.54 134.82,-181.6 143.72,-187.34 145.36,-180.54"/>
</g>
<!-- Node10&#45;&gt;Node6 -->
<g id="edge15" class="edge">
<title>Node10&#45;&gt;Node6</title>
<path fill="none" stroke="#63b8ff" d="M335.21,-219.81C344.57,-206.22 364.45,-179.96 387.5,-165 411.83,-149.21 442.28,-138.52 468.01,-131.57"/>
<polygon fill="#63b8ff" stroke="#63b8ff" points="469.17,-134.89 477.98,-129 467.42,-128.11 469.17,-134.89"/>
</g>
<!-- Node10&#45;&gt;Node9 -->
<g id="edge14" class="edge">
<title>Node10&#45;&gt;Node9</title>
<path fill="none" stroke="#63b8ff" d="M319.22,-219.98C309.66,-212.07 295.22,-200.11 283.72,-190.58"/>
<polygon fill="#63b8ff" stroke="#63b8ff" points="285.9,-187.85 275.97,-184.17 281.44,-193.24 285.9,-187.85"/>
</g>
<!-- Node10&#45;&gt;Node11 -->
<g id="edge16" class="edge">
<title>Node10&#45;&gt;Node11</title>
<path fill="none" stroke="#63b8ff" d="M347.17,-219.98C364.79,-211.5 392.08,-198.35 412.43,-188.54"/>
<polygon fill="#63b8ff" stroke="#63b8ff" points="414.02,-191.66 421.51,-184.17 410.98,-185.36 414.02,-191.66"/>
</g>
<!-- Node10&#45;&gt;Node12 -->
<g id="edge18" class="edge">
<title>Node10&#45;&gt;Node12</title>
<path fill="none" stroke="#63b8ff" d="M373.52,-219.98C421.32,-210.74 497.7,-195.97 549.18,-186.01"/>
<polygon fill="#63b8ff" stroke="#63b8ff" points="549.98,-189.42 559.13,-184.08 548.65,-182.54 549.98,-189.42"/>
</g>
<!-- Node11&#45;&gt;Node6 -->
<g id="edge17" class="edge">
<title>Node11&#45;&gt;Node6</title>
<path fill="none" stroke="#63b8ff" d="M452.67,-164.98C465.27,-156.84 484.5,-144.41 499.44,-134.76"/>
<polygon fill="#63b8ff" stroke="#63b8ff" points="501.59,-137.54 508.09,-129.17 497.79,-131.66 501.59,-137.54"/>
</g>
<!-- Node12&#45;&gt;Node6 -->
<g id="edge19" class="edge">
<title>Node12&#45;&gt;Node6</title>
<path fill="none" stroke="#63b8ff" d="M590.33,-164.98C577.73,-156.84 558.5,-144.41 543.56,-134.76"/>
<polygon fill="#63b8ff" stroke="#63b8ff" points="545.21,-131.66 534.91,-129.17 541.41,-137.54 545.21,-131.66"/>
</g>
<!-- Node14&#45;&gt;Node3 -->
<g id="edge24" class="edge">
<title>Node14&#45;&gt;Node3</title>
<path fill="none" stroke="#63b8ff" d="M153.75,-219.75C146.03,-212.03 134.6,-200.6 125.28,-191.28"/>
<polygon fill="#63b8ff" stroke="#63b8ff" points="127.64,-188.69 118.09,-184.09 122.69,-193.64 127.64,-188.69"/>
</g>
<!-- Node14&#45;&gt;Node6 -->
<g id="edge26" class="edge">
<title>Node14&#45;&gt;Node6</title>
<path fill="none" stroke="#63b8ff" d="M162.33,-219.96C162.56,-206.11 165.2,-178.87 181.5,-165 218.35,-133.64 345.5,-124.16 433.41,-121.42"/>
<polygon fill="#63b8ff" stroke="#63b8ff" points="433.76,-124.92 443.66,-121.13 433.56,-117.92 433.76,-124.92"/>
</g>
<!-- Node14&#45;&gt;Node9 -->
<g id="edge25" class="edge">
<title>Node14&#45;&gt;Node9</title>
<path fill="none" stroke="#63b8ff" d="M179.05,-219.98C195.39,-211.57 220.63,-198.59 239.63,-188.81"/>
<polygon fill="#63b8ff" stroke="#63b8ff" points="241.36,-191.86 248.65,-184.17 238.16,-185.63 241.36,-191.86"/>
</g>
<!-- Node15&#45;&gt;Node12 -->
<g id="edge28" class="edge">
<title>Node15&#45;&gt;Node12</title>
<path fill="none" stroke="#63b8ff" d="M650.5,-219.98C642.31,-212.23 629.99,-200.58 620.03,-191.14"/>
<polygon fill="#63b8ff" stroke="#63b8ff" points="622.33,-188.5 612.66,-184.17 617.52,-193.59 622.33,-188.5"/>
</g>
</g>
</svg>
        <g id="navigator" transform="translate(0 0)" fill="#404254">
                <rect fill="#f2f5e9" fill-opacity="0.5" stroke="#606060" stroke-width=".5" x="0" y="0" width="60" height="60"/>
                <use id="zoomplus" xlink:href="#zoomPlus" x="17" y="9" onmousedown="handleZoom(evt,'in')"/>
                <use id="zoomminus" xlink:href="#zoomMin" x="42" y="9" onmousedown="handleZoom(evt,'out')"/>
                <use id="reset" xlink:href="#resetDef" x="30" y="36" onmousedown="handleReset()"/>
                <g id="arrowUp" xlink:href="#dirArrow" transform="translate(30 24)" onmousedown="handlePan(0,-1)">
                  <use xlink:href="#rim" fill="#404040">
                        <set attributeName="fill" to="#808080" begin="arrowUp.mouseover" end="arrowUp.mouseout"/>
                  </use>
                  <path fill="none" stroke="white" stroke-width="1.5" d="M0,-3.0v7 M-2.5,-0.5L0,-3.0L2.5,-0.5"/>
                </g>
                <g id="arrowRight" xlink:href="#dirArrow" transform="rotate(90) translate(36 -43)" onmousedown="handlePan(1,0)">
                  <use xlink:href="#rim" fill="#404040">
                        <set attributeName="fill" to="#808080" begin="arrowRight.mouseover" end="arrowRight.mouseout"/>
                  </use>
                  <path fill="none" stroke="white" stroke-width="1.5" d="M0,-3.0v7 M-2.5,-0.5L0,-3.0L2.5,-0.5"/>
                </g>
                <g id="arrowDown" xlink:href="#dirArrow" transform="rotate(180) translate(-30 -48)" onmousedown="handlePan(0,1)">
                  <use xlink:href="#rim" fill="#404040">
                        <set attributeName="fill" to="#808080" begin="arrowDown.mouseover" end="arrowDown.mouseout"/>
                  </use>
                  <path fill="none" stroke="white" stroke-width="1.5" d="M0,-3.0v7 M-2.5,-0.5L0,-3.0L2.5,-0.5"/>
                </g>
                <g id="arrowLeft" xlink:href="#dirArrow" transform="rotate(270) translate(-36 17)" onmousedown="handlePan(-1,0)">
                  <use xlink:href="#rim" fill="#404040">
                        <set attributeName="fill" to="#808080" begin="arrowLeft.mouseover" end="arrowLeft.mouseout"/>
                  </use>
                  <path fill="none" stroke="white" stroke-width="1.5" d="M0,-3.0v7 M-2.5,-0.5L0,-3.0L2.5,-0.5"/>
                </g>
        </g>
        <svg viewBox="0 0 15 15" width="100%" height="30px" preserveAspectRatio="xMaxYMin meet">
         <g id="arrow_out" transform="scale(0.3 0.3)">
          <a xlink:href="FMC__paths_8c__incl_org.svg" target="_base">
           <rect id="button" ry="5" rx="5" y="6" x="6" height="38" width="38"
                fill="#f2f5e9" fill-opacity="0.5" stroke="#606060" stroke-width="1.0"/>
           <path id="arrow"
             d="M 11.500037,31.436501 C 11.940474,20.09759 22.043105,11.32322 32.158766,21.979434 L 37.068811,17.246167 C 37.068811,17.246167 37.088388,32 37.088388,32 L 22.160133,31.978069 C 22.160133,31.978069 26.997745,27.140456 26.997745,27.140456 C 18.528582,18.264221 13.291696,25.230495 11.500037,31.436501 z"
             style="fill:#404040;"/>
          </a>
         </g>
        </svg>
</svg>
