<?xml version="1.0" encoding="UTF-8" standalone="no"?>
<!DOCTYPE svg PUBLIC "-//W3C//DTD SVG 1.1//EN"
 "http://www.w3.org/Graphics/SVG/1.1/DTD/svg11.dtd">
<!-- Generated by graphviz version 2.43.0 (0)
 -->
<!-- Title: src/files/FMC_paths.c Pages: 1 -->
<!--zoomable 357 -->
<svg id="main" version="1.1" xmlns="http://www.w3.org/2000/svg" xmlns:xlink="http://www.w3.org/1999/xlink" xml:space="preserve" onload="init(evt)">
<style type="text/css"><![CDATA[
.edge:hover path { stroke: red; }
.edge:hover polygon { stroke: red; fill: red; }
]]></style>
<script type="text/javascript"><![CDATA[
var edges = document.getElementsByTagName('g');
if (edges && edges.length) {
  for (var i=0;i<edges.length;i++) {
    if (edges[i].id.substr(0,4)=='edge') {
      edges[i].setAttribute('class','edge');
    }
  }
}
]]></script>
        <defs>
                <circle id="rim" cx="0" cy="0" r="7"/>
                <circle id="rim2" cx="0" cy="0" r="3.5"/>
                <g id="zoomPlus">
                        <use xlink:href="#rim" fill="#404040">
                                <set attributeName="fill" to="#808080" begin="zoomplus.mouseover" end="zoomplus.mouseout"/>
                        </use>
                        <path d="M-4,0h8M0,-4v8" fill="none" stroke="white" stroke-width="1.5" pointer-events="none"/>
                </g>
                <g id="zoomMin">
                        <use xlink:href="#rim" fill="#404040">
                                <set attributeName="fill" to="#808080" begin="zoomminus.mouseover" end="zoomminus.mouseout"/>
                        </use>
                        <path d="M-4,0h8" fill="none" stroke="white" stroke-width="1.5" pointer-events="none"/>
                </g>
                <g id="dirArrow">
                        <path fill="none" stroke="white" stroke-width="1.5" d="M0,-3.0v7 M-2.5,-0.5L0,-3.0L2.5,-0.5"/>
                </g>
               <g id="resetDef">
                       <use xlink:href="#rim2" fill="#404040">
                               <set attributeName="fill" to="#808080" begin="reset.mouseover" end="reset.mouseout"/>
                       </use>
               </g>
        </defs>

<script type="text/javascript">
var viewWidth = 972;
var viewHeight = 357;
var sectionId = 'dynsection-0';
</script>
<script xlink:href="../../svgpan.js"/>
<svg id="graph" class="graph">
<g id="viewport">
<title>src/files/FMC_paths.c</title>
<!-- Node1 -->
<g id="node1" class="node">
<title>Node1</title>
<g id="a_node1"><a xlink:title=" ">
<polygon fill="#999999" stroke="#666666" points="141,-349 22,-349 22,-330 141,-330 141,-349"/>
<text text-anchor="middle" x="81.5" y="-337" font-family="Helvetica,sans-Serif" font-size="10.00">src/files/FMC_paths.c</text>
</a>
</g>
</g>
<!-- Node2 -->
<g id="node2" class="node">
<title>Node2</title>
<g id="a_node2"><a xlink:title=" ">
<polygon fill="#e0e0e0" stroke="#999999" points="53,-294 0,-294 0,-275 53,-275 53,-294"/>
<text text-anchor="middle" x="26.5" y="-282" font-family="Helvetica,sans-Serif" font-size="10.00">string.h</text>
</a>
</g>
</g>
<!-- Node1&#45;&gt;Node2 -->
<g id="edge1" class="edge">
<title>Node1&#45;&gt;Node2</title>
<path fill="none" stroke="#63b8ff" d="M72.42,-329.75C64.41,-322.03 52.54,-310.6 42.88,-301.28"/>
<polygon fill="#63b8ff" stroke="#63b8ff" points="45.04,-298.51 35.41,-294.09 40.19,-303.55 45.04,-298.51"/>
</g>
<!-- Node3 -->
<g id="node3" class="node">
<title>Node3</title>
<g id="a_node3"><a xlink:title=" ">
<polygon fill="#e0e0e0" stroke="#999999" points="214.5,-129 164.5,-129 164.5,-110 214.5,-110 214.5,-129"/>
<text text-anchor="middle" x="189.5" y="-117" font-family="Helvetica,sans-Serif" font-size="10.00">stdio.h</text>
</a>
</g>
</g>
<!-- Node1&#45;&gt;Node3 -->
<g id="edge2" class="edge">
<title>Node1&#45;&gt;Node3</title>
<path fill="none" stroke="#63b8ff" d="M79.81,-329.94C74.96,-302.91 63.63,-217.97 100.5,-165 113.19,-146.77 135.59,-135.63 154.74,-129.05"/>
<polygon fill="#63b8ff" stroke="#63b8ff" points="155.9,-132.35 164.39,-126.01 153.8,-125.68 155.9,-132.35"/>
</g>
<!-- Node4 -->
<g id="node4" class="node">
<title>Node4</title>
<g id="a_node4"><a xlink:href="../../d2/deb/FMC__file__management_8h.html" target="_top" xlink:title=" ">
<polygon fill="white" stroke="#666666" points="422.5,-294 284.5,-294 284.5,-275 422.5,-275 422.5,-294"/>
<text text-anchor="middle" x="353.5" y="-282" font-family="Helvetica,sans-Serif" font-size="10.00">FMC_file_management.h</text>
</a>
</g>
</g>
<!-- Node1&#45;&gt;Node4 -->
<g id="edge3" class="edge">
<title>Node1&#45;&gt;Node4</title>
<path fill="none" stroke="#63b8ff" d="M125.2,-329.98C172.65,-320.74 248.47,-305.97 299.58,-296.01"/>
<polygon fill="#63b8ff" stroke="#63b8ff" points="300.31,-299.43 309.46,-294.08 298.97,-292.56 300.31,-299.43"/>
</g>
<!-- Node5 -->
<g id="node5" class="node">
<title>Node5</title>
<g id="a_node5"><a xlink:href="../../d9/de1/FMC__general_8h.html" target="_top" xlink:title=" ">
<polygon fill="white" stroke="#666666" points="596.5,-239 458.5,-239 458.5,-220 596.5,-220 596.5,-239"/>
<text text-anchor="middle" x="527.5" y="-227" font-family="Helvetica,sans-Serif" font-size="10.00">../general/FMC_general.h</text>
</a>
</g>
</g>
<!-- Node4&#45;&gt;Node5 -->
<g id="edge4" class="edge">
<title>Node4&#45;&gt;Node5</title>
<path fill="none" stroke="#63b8ff" d="M381.46,-274.98C410.8,-266.05 457.1,-251.94 489.69,-242.02"/>
<polygon fill="#63b8ff" stroke="#63b8ff" points="490.78,-245.34 499.32,-239.08 488.74,-238.65 490.78,-245.34"/>
</g>
<!-- Node6 -->
<g id="node6" class="node">
<title>Node6</title>
<g id="a_node6"><a xlink:href="../../d0/d28/FMC__macros_8h.html" target="_top" xlink:title=" ">
<polygon fill="white" stroke="#666666" points="671,-74 516,-74 516,-55 671,-55 671,-74"/>
<text text-anchor="middle" x="593.5" y="-62" font-family="Helvetica,sans-Serif" font-size="10.00">preprocessor/FMC_macros.h</text>
</a>
</g>
</g>
<!-- Node5&#45;&gt;Node6 -->
<g id="edge5" class="edge">
<title>Node5&#45;&gt;Node6</title>
<path fill="none" stroke="#63b8ff" d="M505.47,-219.94C481.71,-209.26 448.75,-189.4 460.5,-165 481.03,-122.39 529.85,-93.53 562.29,-78.3"/>
<polygon fill="#63b8ff" stroke="#63b8ff" points="564.1,-81.32 571.77,-74.01 561.22,-74.94 564.1,-81.32"/>
</g>
<!-- Node7 -->
<g id="node7" class="node">
<title>Node7</title>
<g id="a_node7"><a xlink:href="../../d7/dff/FMC__platform_8h.html" target="_top" xlink:title=" ">
<polygon fill="white" stroke="#666666" points="889,-19 794,-19 794,0 889,0 889,-19"/>
<text text-anchor="middle" x="841.5" y="-7" font-family="Helvetica,sans-Serif" font-size="10.00">FMC_platform.h</text>
</a>
</g>
</g>
<!-- Node5&#45;&gt;Node7 -->
<g id="edge9" class="edge">
<title>Node5&#45;&gt;Node7</title>
<path fill="none" stroke="#63b8ff" d="M596.72,-226.19C710.61,-221.67 927.31,-209.76 950.5,-184 997.71,-131.57 906.34,-56.24 862.79,-24.96"/>
<polygon fill="#63b8ff" stroke="#63b8ff" points="864.72,-22.04 854.52,-19.15 860.69,-27.77 864.72,-22.04"/>
</g>
<!-- Node9 -->
<g id="node9" class="node">
<title>Node9</title>
<g id="a_node9"><a xlink:href="../../da/dd3/FMC__consts_8h.html" target="_top" xlink:title=" ">
<polygon fill="white" stroke="#666666" points="382.5,-129 232.5,-129 232.5,-110 382.5,-110 382.5,-129"/>
<text text-anchor="middle" x="307.5" y="-117" font-family="Helvetica,sans-Serif" font-size="10.00">preprocessor/FMC_consts.h</text>
</a>
</g>
</g>
<!-- Node5&#45;&gt;Node9 -->
<g id="edge10" class="edge">
<title>Node5&#45;&gt;Node9</title>
<path fill="none" stroke="#63b8ff" d="M458.36,-226.67C388.4,-223.19 287.13,-213.11 262.5,-184 249,-168.04 268.24,-148.19 285.59,-134.97"/>
<polygon fill="#63b8ff" stroke="#63b8ff" points="287.73,-137.74 293.8,-129.06 283.64,-132.06 287.73,-137.74"/>
</g>
<!-- Node10 -->
<g id="node10" class="node">
<title>Node10</title>
<g id="a_node10"><a xlink:href="../../d5/de5/FMC__structs_8h.html" target="_top" xlink:title=" ">
<polygon fill="white" stroke="#666666" points="585.5,-184 469.5,-184 469.5,-165 585.5,-165 585.5,-184"/>
<text text-anchor="middle" x="527.5" y="-172" font-family="Helvetica,sans-Serif" font-size="10.00">types/FMC_structs.h</text>
</a>
</g>
</g>
<!-- Node5&#45;&gt;Node10 -->
<g id="edge11" class="edge">
<title>Node5&#45;&gt;Node10</title>
<path fill="none" stroke="#63b8ff" d="M527.5,-219.75C527.5,-212.8 527.5,-202.85 527.5,-194.13"/>
<polygon fill="#63b8ff" stroke="#63b8ff" points="531,-194.09 527.5,-184.09 524,-194.09 531,-194.09"/>
</g>
<!-- Node11 -->
<g id="node11" class="node">
<title>Node11</title>
<g id="a_node11"><a xlink:href="../../d6/d25/FMC__enums_8h.html" target="_top" xlink:title=" ">
<polygon fill="white" stroke="#666666" points="636.5,-129 550.5,-129 550.5,-110 636.5,-110 636.5,-129"/>
<text text-anchor="middle" x="593.5" y="-117" font-family="Helvetica,sans-Serif" font-size="10.00">FMC_enums.h</text>
</a>
</g>
</g>
<!-- Node5&#45;&gt;Node11 -->
<g id="edge21" class="edge">
<title>Node5&#45;&gt;Node11</title>
<path fill="none" stroke="#63b8ff" d="M550.61,-219.98C566.09,-212.92 585.26,-201.23 594.5,-184 601.83,-170.34 600.8,-152.52 598.39,-139.24"/>
<polygon fill="#63b8ff" stroke="#63b8ff" points="601.78,-138.35 596.19,-129.34 594.94,-139.86 601.78,-138.35"/>
</g>
<!-- Node12 -->
<g id="node12" class="node">
<title>Node12</title>
<g id="a_node12"><a xlink:href="../../df/df8/FMC__typedefs_8h.html" target="_top" xlink:title=" ">
<polygon fill="white" stroke="#666666" points="750,-129 655,-129 655,-110 750,-110 750,-129"/>
<text text-anchor="middle" x="702.5" y="-117" font-family="Helvetica,sans-Serif" font-size="10.00">FMC_typedefs.h</text>
</a>
</g>
</g>
<!-- Node5&#45;&gt;Node12 -->
<g id="edge20" class="edge">
<title>Node5&#45;&gt;Node12</title>
<path fill="none" stroke="#63b8ff" d="M596.72,-224.92C658.3,-220.12 741.74,-209.06 762.5,-184 777.55,-165.83 752.15,-146.29 729.91,-133.76"/>
<polygon fill="#63b8ff" stroke="#63b8ff" points="731.48,-130.63 721.01,-129 728.18,-136.8 731.48,-130.63"/>
</g>
<!-- Node13 -->
<g id="node13" class="node">
<title>Node13</title>
<g id="a_node13"><a xlink:href="../../d2/d5e/FMC__flags_8h.html" target="_top" xlink:title=" ">
<polygon fill="white" stroke="#666666" points="413.5,-184 271.5,-184 271.5,-165 413.5,-165 413.5,-184"/>
<text text-anchor="middle" x="342.5" y="-172" font-family="Helvetica,sans-Serif" font-size="10.00">preprocessor/FMC_flags.h</text>
</a>
</g>
</g>
<!-- Node5&#45;&gt;Node13 -->
<g id="edge19" class="edge">
<title>Node5&#45;&gt;Node13</title>
<path fill="none" stroke="#63b8ff" d="M497.78,-219.98C466.45,-211.01 416.93,-196.82 382.26,-186.89"/>
<polygon fill="#63b8ff" stroke="#63b8ff" points="383.03,-183.47 372.46,-184.08 381.11,-190.2 383.03,-183.47"/>
</g>
<!-- Node14 -->
<g id="node14" class="node">
<title>Node14</title>
<g id="a_node14"><a xlink:href="../../dd/ddf/FMC__errors_8h.html" target="_top" xlink:title=" ">
<polygon fill="white" stroke="#666666" points="215,-184 110,-184 110,-165 215,-165 215,-184"/>
<text text-anchor="middle" x="162.5" y="-172" font-family="Helvetica,sans-Serif" font-size="10.00">utils/FMC_errors.h</text>
</a>
</g>
</g>
<!-- Node5&#45;&gt;Node14 -->
<g id="edge22" class="edge">
<title>Node5&#45;&gt;Node14</title>
<path fill="none" stroke="#63b8ff" d="M468.86,-219.98C402.15,-210.3 293.65,-194.54 225.28,-184.62"/>
<polygon fill="#63b8ff" stroke="#63b8ff" points="225.47,-181.11 215.07,-183.13 224.47,-188.03 225.47,-181.11"/>
</g>
<!-- Node15 -->
<g id="node15" class="node">
<title>Node15</title>
<g id="a_node15"><a xlink:href="../../de/d86/FMC__globals_8h.html" target="_top" xlink:title=" ">
<polygon fill="white" stroke="#666666" points="753.5,-184 641.5,-184 641.5,-165 753.5,-165 753.5,-184"/>
<text text-anchor="middle" x="697.5" y="-172" font-family="Helvetica,sans-Serif" font-size="10.00">utils/FMC_globals.h</text>
</a>
</g>
</g>
<!-- Node5&#45;&gt;Node15 -->
<g id="edge26" class="edge">
<title>Node5&#45;&gt;Node15</title>
<path fill="none" stroke="#63b8ff" d="M554.81,-219.98C583.35,-211.09 628.33,-197.07 660.14,-187.15"/>
<polygon fill="#63b8ff" stroke="#63b8ff" points="661.47,-190.4 669.97,-184.08 659.38,-183.72 661.47,-190.4"/>
</g>
<!-- Node16 -->
<g id="node16" class="node">
<title>Node16</title>
<g id="a_node16"><a xlink:href="../../d4/d06/FMC__deprecated_8h.html" target="_top" xlink:title=" ">
<polygon fill="white" stroke="#666666" points="941,-184 810,-184 810,-165 941,-165 941,-184"/>
<text text-anchor="middle" x="875.5" y="-172" font-family="Helvetica,sans-Serif" font-size="10.00">utils/FMC_deprecated.h</text>
</a>
</g>
</g>
<!-- Node5&#45;&gt;Node16 -->
<g id="edge28" class="edge">
<title>Node5&#45;&gt;Node16</title>
<path fill="none" stroke="#63b8ff" d="M583.41,-219.98C644.96,-210.61 743.84,-195.55 809.24,-185.59"/>
<polygon fill="#63b8ff" stroke="#63b8ff" points="810.08,-189 819.44,-184.04 809.03,-182.08 810.08,-189"/>
</g>
<!-- Node6&#45;&gt;Node7 -->
<g id="edge6" class="edge">
<title>Node6&#45;&gt;Node7</title>
<path fill="none" stroke="#63b8ff" d="M633.35,-54.98C676.33,-45.8 744.87,-31.15 791.46,-21.19"/>
<polygon fill="#63b8ff" stroke="#63b8ff" points="792.29,-24.59 801.34,-19.08 790.83,-17.75 792.29,-24.59"/>
</g>
<!-- Node8 -->
<g id="node8" class="node">
<title>Node8</title>
<g id="a_node8"><a xlink:href="../../d1/d2e/FMC__attributes_8h.html" target="_top" xlink:title=" ">
<polygon fill="white" stroke="#666666" points="643.5,-19 543.5,-19 543.5,0 643.5,0 643.5,-19"/>
<text text-anchor="middle" x="593.5" y="-7" font-family="Helvetica,sans-Serif" font-size="10.00">FMC_attributes.h</text>
</a>
</g>
</g>
<!-- Node6&#45;&gt;Node8 -->
<g id="edge7" class="edge">
<title>Node6&#45;&gt;Node8</title>
<path fill="none" stroke="#63b8ff" d="M588.33,-54.75C586.84,-47.8 586.4,-37.85 587.02,-29.13"/>
<polygon fill="#63b8ff" stroke="#63b8ff" points="590.51,-29.47 588.37,-19.09 583.57,-28.53 590.51,-29.47"/>
</g>
<!-- Node8&#45;&gt;Node6 -->
<g id="edge8" class="edge">
<title>Node8&#45;&gt;Node6</title>
<path fill="none" stroke="#63b8ff" d="M598.63,-19.09C600.14,-25.99 600.59,-35.93 599.99,-44.66"/>
<polygon fill="#63b8ff" stroke="#63b8ff" points="596.5,-44.38 598.67,-54.75 603.44,-45.29 596.5,-44.38"/>
</g>
<!-- Node10&#45;&gt;Node3 -->
<g id="edge12" class="edge">
<title>Node10&#45;&gt;Node3</title>
<path fill="none" stroke="#63b8ff" d="M469.49,-166.75C410.26,-159.47 315.49,-146.74 224.61,-129.05"/>
<polygon fill="#63b8ff" stroke="#63b8ff" points="225.18,-125.59 214.69,-127.09 223.82,-132.46 225.18,-125.59"/>
</g>
<!-- Node10&#45;&gt;Node6 -->
<g id="edge14" class="edge">
<title>Node10&#45;&gt;Node6</title>
<path fill="none" stroke="#63b8ff" d="M527.71,-164.64C528.38,-151.74 531.05,-127.43 541.5,-110 548.66,-98.06 560.16,-87.72 570.53,-80.03"/>
<polygon fill="#63b8ff" stroke="#63b8ff" points="572.66,-82.81 578.85,-74.21 568.65,-77.07 572.66,-82.81"/>
</g>
<!-- Node10&#45;&gt;Node9 -->
<g id="edge13" class="edge">
<title>Node10&#45;&gt;Node9</title>
<path fill="none" stroke="#63b8ff" d="M492.15,-164.98C454.34,-155.87 394.24,-141.4 352.93,-131.45"/>
<polygon fill="#63b8ff" stroke="#63b8ff" points="353.67,-128.02 343.12,-129.08 352.03,-134.83 353.67,-128.02"/>
</g>
<!-- Node10&#45;&gt;Node11 -->
<g id="edge15" class="edge">
<title>Node10&#45;&gt;Node11</title>
<path fill="none" stroke="#63b8ff" d="M538.1,-164.98C547.96,-157.07 562.85,-145.11 574.72,-135.58"/>
<polygon fill="#63b8ff" stroke="#63b8ff" points="577.1,-138.16 582.7,-129.17 572.71,-132.7 577.1,-138.16"/>
</g>
<!-- Node10&#45;&gt;Node12 -->
<g id="edge17" class="edge">
<title>Node10&#45;&gt;Node12</title>
<path fill="none" stroke="#63b8ff" d="M555.62,-164.98C585.12,-156.05 631.69,-141.94 664.47,-132.02"/>
<polygon fill="#63b8ff" stroke="#63b8ff" points="665.61,-135.33 674.16,-129.08 663.58,-128.63 665.61,-135.33"/>
</g>
<!-- Node11&#45;&gt;Node6 -->
<g id="edge16" class="edge">
<title>Node11&#45;&gt;Node6</title>
<path fill="none" stroke="#63b8ff" d="M593.5,-109.75C593.5,-102.8 593.5,-92.85 593.5,-84.13"/>
<polygon fill="#63b8ff" stroke="#63b8ff" points="597,-84.09 593.5,-74.09 590,-84.09 597,-84.09"/>
</g>
<!-- Node12&#45;&gt;Node6 -->
<g id="edge18" class="edge">
<title>Node12&#45;&gt;Node6</title>
<path fill="none" stroke="#63b8ff" d="M684.99,-109.98C667.53,-101.5 640.49,-88.35 620.33,-78.54"/>
<polygon fill="#63b8ff" stroke="#63b8ff" points="621.86,-75.4 611.33,-74.17 618.79,-81.69 621.86,-75.4"/>
</g>
<!-- Node14&#45;&gt;Node3 -->
<g id="edge23" class="edge">
<title>Node14&#45;&gt;Node3</title>
<path fill="none" stroke="#63b8ff" d="M166.96,-164.75C170.62,-157.57 175.91,-147.18 180.45,-138.27"/>
<polygon fill="#63b8ff" stroke="#63b8ff" points="183.7,-139.59 185.12,-129.09 177.47,-136.41 183.7,-139.59"/>
</g>
<!-- Node14&#45;&gt;Node6 -->
<g id="edge25" class="edge">
<title>Node14&#45;&gt;Node6</title>
<path fill="none" stroke="#63b8ff" d="M157.9,-164.85C151.42,-151.32 141.82,-125.14 155.5,-110 178.49,-84.56 384.48,-72.92 505.61,-68.23"/>
<polygon fill="#63b8ff" stroke="#63b8ff" points="505.76,-71.73 515.62,-67.85 505.49,-64.73 505.76,-71.73"/>
</g>
<!-- Node14&#45;&gt;Node9 -->
<g id="edge24" class="edge">
<title>Node14&#45;&gt;Node9</title>
<path fill="none" stroke="#63b8ff" d="M185.8,-164.98C209.75,-156.23 247.28,-142.51 274.33,-132.62"/>
<polygon fill="#63b8ff" stroke="#63b8ff" points="275.59,-135.89 283.78,-129.17 273.19,-129.32 275.59,-135.89"/>
</g>
<!-- Node15&#45;&gt;Node12 -->
<g id="edge27" class="edge">
<title>Node15&#45;&gt;Node12</title>
<path fill="none" stroke="#63b8ff" d="M698.33,-164.75C698.98,-157.8 699.92,-147.85 700.74,-139.13"/>
<polygon fill="#63b8ff" stroke="#63b8ff" points="704.23,-139.37 701.69,-129.09 697.27,-138.72 704.23,-139.37"/>
</g>
<!-- Node16&#45;&gt;Node8 -->
<g id="edge29" class="edge">
<title>Node16&#45;&gt;Node8</title>
<path fill="none" stroke="#63b8ff" d="M875.26,-164.93C874.43,-151.52 870.93,-125.49 856.5,-110 803.11,-52.68 713.32,-28.12 653.73,-17.78"/>
<polygon fill="#63b8ff" stroke="#63b8ff" points="654.15,-14.3 643.71,-16.12 653.01,-21.21 654.15,-14.3"/>
</g>
<!-- Node17 -->
<g id="node17" class="node">
<title>Node17</title>
<g id="a_node17"><a xlink:title=" ">
<polygon fill="#e0e0e0" stroke="#999999" points="847.5,-129 791.5,-129 791.5,-110 847.5,-110 847.5,-129"/>
<text text-anchor="middle" x="819.5" y="-117" font-family="Helvetica,sans-Serif" font-size="10.00">stddef.h</text>
</a>
</g>
</g>
<!-- Node16&#45;&gt;Node17 -->
<g id="edge30" class="edge">
<title>Node16&#45;&gt;Node17</title>
<path fill="none" stroke="#63b8ff" d="M866.5,-164.98C858.31,-157.23 845.99,-145.58 836.03,-136.14"/>
<polygon fill="#63b8ff" stroke="#63b8ff" points="838.33,-133.5 828.66,-129.17 833.52,-138.59 838.33,-133.5"/>
</g>
</g>
</svg>
        <g id="navigator" transform="translate(0 0)" fill="#404254">
                <rect fill="#f2f5e9" fill-opacity="0.5" stroke="#606060" stroke-width=".5" x="0" y="0" width="60" height="60"/>
                <use id="zoomplus" xlink:href="#zoomPlus" x="17" y="9" onmousedown="handleZoom(evt,'in')"/>
                <use id="zoomminus" xlink:href="#zoomMin" x="42" y="9" onmousedown="handleZoom(evt,'out')"/>
                <use id="reset" xlink:href="#resetDef" x="30" y="36" onmousedown="handleReset()"/>
                <g id="arrowUp" xlink:href="#dirArrow" transform="translate(30 24)" onmousedown="handlePan(0,-1)">
                  <use xlink:href="#rim" fill="#404040">
                        <set attributeName="fill" to="#808080" begin="arrowUp.mouseover" end="arrowUp.mouseout"/>
                  </use>
                  <path fill="none" stroke="white" stroke-width="1.5" d="M0,-3.0v7 M-2.5,-0.5L0,-3.0L2.5,-0.5"/>
                </g>
                <g id="arrowRight" xlink:href="#dirArrow" transform="rotate(90) translate(36 -43)" onmousedown="handlePan(1,0)">
                  <use xlink:href="#rim" fill="#404040">
                        <set attributeName="fill" to="#808080" begin="arrowRight.mouseover" end="arrowRight.mouseout"/>
                  </use>
                  <path fill="none" stroke="white" stroke-width="1.5" d="M0,-3.0v7 M-2.5,-0.5L0,-3.0L2.5,-0.5"/>
                </g>
                <g id="arrowDown" xlink:href="#dirArrow" transform="rotate(180) translate(-30 -48)" onmousedown="handlePan(0,1)">
                  <use xlink:href="#rim" fill="#404040">
                        <set attributeName="fill" to="#808080" begin="arrowDown.mouseover" end="arrowDown.mouseout"/>
                  </use>
                  <path fill="none" stroke="white" stroke-width="1.5" d="M0,-3.0v7 M-2.5,-0.5L0,-3.0L2.5,-0.5"/>
                </g>
                <g id="arrowLeft" xlink:href="#dirArrow" transform="rotate(270) translate(-36 17)" onmousedown="handlePan(-1,0)">
                  <use xlink:href="#rim" fill="#404040">
                        <set attributeName="fill" to="#808080" begin="arrowLeft.mouseover" end="arrowLeft.mouseout"/>
                  </use>
                  <path fill="none" stroke="white" stroke-width="1.5" d="M0,-3.0v7 M-2.5,-0.5L0,-3.0L2.5,-0.5"/>
                </g>
        </g>
        <svg viewBox="0 0 15 15" width="100%" height="30px" preserveAspectRatio="xMaxYMin meet">
         <g id="arrow_out" transform="scale(0.3 0.3)">
          <a xlink:href="FMC__paths_8c__incl_org.svg" target="_base">
           <rect id="button" ry="5" rx="5" y="6" x="6" height="38" width="38"
                fill="#f2f5e9" fill-opacity="0.5" stroke="#606060" stroke-width="1.0"/>
           <path id="arrow"
             d="M 11.500037,31.436501 C 11.940474,20.09759 22.043105,11.32322 32.158766,21.979434 L 37.068811,17.246167 C 37.068811,17.246167 37.088388,32 37.088388,32 L 22.160133,31.978069 C 22.160133,31.978069 26.997745,27.140456 26.997745,27.140456 C 18.528582,18.264221 13.291696,25.230495 11.500037,31.436501 z"
             style="fill:#404040;"/>
          </a>
         </g>
        </svg>
</svg>
