<?xml version="1.0" encoding="UTF-8" standalone="no"?>
<!DOCTYPE svg PUBLIC "-//W3C//DTD SVG 1.1//EN"
 "http://www.w3.org/Graphics/SVG/1.1/DTD/svg11.dtd">
<!-- Generated by graphviz version 2.43.0 (0)
 -->
<!-- Title: src/files/FMC_paths.c Pages: 1 -->
<!--zoomable 357 -->
<svg id="main" version="1.1" xmlns="http://www.w3.org/2000/svg" xmlns:xlink="http://www.w3.org/1999/xlink" xml:space="preserve" onload="init(evt)">
<style type="text/css"><![CDATA[
.edge:hover path { stroke: red; }
.edge:hover polygon { stroke: red; fill: red; }
]]></style>
<script type="text/javascript"><![CDATA[
var edges = document.getElementsByTagName('g');
if (edges && edges.length) {
  for (var i=0;i<edges.length;i++) {
    if (edges[i].id.substr(0,4)=='edge') {
      edges[i].setAttribute('class','edge');
    }
  }
}
]]></script>
        <defs>
                <circle id="rim" cx="0" cy="0" r="7"/>
                <circle id="rim2" cx="0" cy="0" r="3.5"/>
                <g id="zoomPlus">
                        <use xlink:href="#rim" fill="#404040">
                                <set attributeName="fill" to="#808080" begin="zoomplus.mouseover" end="zoomplus.mouseout"/>
                        </use>
                        <path d="M-4,0h8M0,-4v8" fill="none" stroke="white" stroke-width="1.5" pointer-events="none"/>
                </g>
                <g id="zoomMin">
                        <use xlink:href="#rim" fill="#404040">
                                <set attributeName="fill" to="#808080" begin="zoomminus.mouseover" end="zoomminus.mouseout"/>
                        </use>
                        <path d="M-4,0h8" fill="none" stroke="white" stroke-width="1.5" pointer-events="none"/>
                </g>
                <g id="dirArrow">
                        <path fill="none" stroke="white" stroke-width="1.5" d="M0,-3.0v7 M-2.5,-0.5L0,-3.0L2.5,-0.5"/>
                </g>
               <g id="resetDef">
                       <use xlink:href="#rim2" fill="#404040">
                               <set attributeName="fill" to="#808080" begin="reset.mouseover" end="reset.mouseout"/>
                       </use>
               </g>
        </defs>

<script type="text/javascript">
var viewWidth = 784;
var viewHeight = 357;
var sectionId = 'dynsection-0';
</script>
<script xlink:href="../../svgpan.js"/>
<svg id="graph" class="graph">
<g id="viewport">
<title>src/files/FMC_paths.c</title>
<!-- Node1 -->
<g id="node1" class="node">
<title>Node1</title>
<g id="a_node1"><a xlink:title=" ">
<polygon fill="#999999" stroke="#666666" points="141,-349 22,-349 22,-330 141,-330 141,-349"/>
<text text-anchor="middle" x="81.5" y="-337" font-family="Helvetica,sans-Serif" font-size="10.00">src/files/FMC_paths.c</text>
</a>
</g>
</g>
<!-- Node2 -->
<g id="node2" class="node">
<title>Node2</title>
<g id="a_node2"><a xlink:title=" ">
<polygon fill="#e0e0e0" stroke="#999999" points="53,-294 0,-294 0,-275 53,-275 53,-294"/>
<text text-anchor="middle" x="26.5" y="-282" font-family="Helvetica,sans-Serif" font-size="10.00">string.h</text>
</a>
</g>
</g>
<!-- Node1&#45;&gt;Node2 -->
<g id="edge1" class="edge">
<title>Node1&#45;&gt;Node2</title>
<path fill="none" stroke="#63b8ff" d="M72.42,-329.75C64.41,-322.03 52.54,-310.6 42.88,-301.28"/>
<polygon fill="#63b8ff" stroke="#63b8ff" points="45.04,-298.51 35.41,-294.09 40.19,-303.55 45.04,-298.51"/>
</g>
<!-- Node3 -->
<g id="node3" class="node">
<title>Node3</title>
<g id="a_node3"><a xlink:title=" ">
<polygon fill="#e0e0e0" stroke="#999999" points="134.5,-129 84.5,-129 84.5,-110 134.5,-110 134.5,-129"/>
<text text-anchor="middle" x="109.5" y="-117" font-family="Helvetica,sans-Serif" font-size="10.00">stdio.h</text>
</a>
</g>
</g>
<!-- Node1&#45;&gt;Node3 -->
<g id="edge2" class="edge">
<title>Node1&#45;&gt;Node3</title>
<path fill="none" stroke="#63b8ff" d="M82.17,-329.8C84.2,-304.35 90.72,-227.88 100.5,-165 101.82,-156.53 103.64,-147.23 105.3,-139.32"/>
<polygon fill="#63b8ff" stroke="#63b8ff" points="108.77,-139.84 107.47,-129.32 101.93,-138.35 108.77,-139.84"/>
</g>
<!-- Node4 -->
<g id="node4" class="node">
<title>Node4</title>
<g id="a_node4"><a xlink:href="../../d2/deb/FMC__file__management_8h.html" target="_top" xlink:title=" ">
<polygon fill="white" stroke="#666666" points="415.5,-294 277.5,-294 277.5,-275 415.5,-275 415.5,-294"/>
<text text-anchor="middle" x="346.5" y="-282" font-family="Helvetica,sans-Serif" font-size="10.00">FMC_file_management.h</text>
</a>
</g>
</g>
<!-- Node1&#45;&gt;Node4 -->
<g id="edge3" class="edge">
<title>Node1&#45;&gt;Node4</title>
<path fill="none" stroke="#63b8ff" d="M124.08,-329.98C170.2,-320.76 243.86,-306.03 293.66,-296.07"/>
<polygon fill="#63b8ff" stroke="#63b8ff" points="294.47,-299.48 303.59,-294.08 293.1,-292.61 294.47,-299.48"/>
</g>
<!-- Node5 -->
<g id="node5" class="node">
<title>Node5</title>
<g id="a_node5"><a xlink:href="../../d9/de1/FMC__general_8h.html" target="_top" xlink:title=" ">
<polygon fill="white" stroke="#666666" points="533.5,-239 395.5,-239 395.5,-220 533.5,-220 533.5,-239"/>
<text text-anchor="middle" x="464.5" y="-227" font-family="Helvetica,sans-Serif" font-size="10.00">../general/FMC_general.h</text>
</a>
</g>
</g>
<!-- Node4&#45;&gt;Node5 -->
<g id="edge4" class="edge">
<title>Node4&#45;&gt;Node5</title>
<path fill="none" stroke="#63b8ff" d="M365.46,-274.98C384.53,-266.42 414.16,-253.11 436.05,-243.28"/>
<polygon fill="#63b8ff" stroke="#63b8ff" points="437.51,-246.46 445.2,-239.17 434.64,-240.07 437.51,-246.46"/>
</g>
<!-- Node6 -->
<g id="node6" class="node">
<title>Node6</title>
<g id="a_node6"><a xlink:href="../../d0/d28/FMC__macros_8h.html" target="_top" xlink:title=" ">
<polygon fill="white" stroke="#666666" points="571,-74 416,-74 416,-55 571,-55 571,-74"/>
<text text-anchor="middle" x="493.5" y="-62" font-family="Helvetica,sans-Serif" font-size="10.00">preprocessor/FMC_macros.h</text>
</a>
</g>
</g>
<!-- Node5&#45;&gt;Node6 -->
<g id="edge5" class="edge">
<title>Node5&#45;&gt;Node6</title>
<path fill="none" stroke="#63b8ff" d="M533.74,-227.26C606.92,-224.32 715.32,-214.72 741.5,-184 794.3,-122.04 666.59,-90.03 575.5,-75.58"/>
<polygon fill="#63b8ff" stroke="#63b8ff" points="575.84,-72.09 565.43,-74.02 574.78,-79.01 575.84,-72.09"/>
</g>
<!-- Node7 -->
<g id="node7" class="node">
<title>Node7</title>
<g id="a_node7"><a xlink:href="../../d7/dff/FMC__platform_8h.html" target="_top" xlink:title=" ">
<polygon fill="white" stroke="#666666" points="762,-19 667,-19 667,0 762,0 762,-19"/>
<text text-anchor="middle" x="714.5" y="-7" font-family="Helvetica,sans-Serif" font-size="10.00">FMC_platform.h</text>
</a>
</g>
</g>
<!-- Node5&#45;&gt;Node7 -->
<g id="edge9" class="edge">
<title>Node5&#45;&gt;Node7</title>
<path fill="none" stroke="#63b8ff" d="M533.55,-228.11C611.67,-226.04 731.81,-217.33 760.5,-184 800.08,-138.02 752.85,-61.63 727.96,-27.67"/>
<polygon fill="#63b8ff" stroke="#63b8ff" points="730.44,-25.15 721.62,-19.28 724.86,-29.37 730.44,-25.15"/>
</g>
<!-- Node9 -->
<g id="node9" class="node">
<title>Node9</title>
<g id="a_node9"><a xlink:href="../../da/dd3/FMC__consts_8h.html" target="_top" xlink:title=" ">
<polygon fill="white" stroke="#666666" points="340.5,-129 190.5,-129 190.5,-110 340.5,-110 340.5,-129"/>
<text text-anchor="middle" x="265.5" y="-117" font-family="Helvetica,sans-Serif" font-size="10.00">preprocessor/FMC_consts.h</text>
</a>
</g>
</g>
<!-- Node5&#45;&gt;Node9 -->
<g id="edge10" class="edge">
<title>Node5&#45;&gt;Node9</title>
<path fill="none" stroke="#63b8ff" d="M395.34,-222.42C343.62,-216.27 279.09,-204.64 262.5,-184 252.57,-171.65 254.73,-153.17 258.53,-139.33"/>
<polygon fill="#63b8ff" stroke="#63b8ff" points="261.99,-140.02 261.74,-129.43 255.33,-137.86 261.99,-140.02"/>
</g>
<!-- Node10 -->
<g id="node10" class="node">
<title>Node10</title>
<g id="a_node10"><a xlink:href="../../d5/de5/FMC__structs_8h.html" target="_top" xlink:title=" ">
<polygon fill="white" stroke="#666666" points="387.5,-184 271.5,-184 271.5,-165 387.5,-165 387.5,-184"/>
<text text-anchor="middle" x="329.5" y="-172" font-family="Helvetica,sans-Serif" font-size="10.00">types/FMC_structs.h</text>
</a>
</g>
</g>
<!-- Node5&#45;&gt;Node10 -->
<g id="edge11" class="edge">
<title>Node5&#45;&gt;Node10</title>
<path fill="none" stroke="#63b8ff" d="M442.81,-219.98C420.7,-211.3 386.18,-197.75 361.05,-187.88"/>
<polygon fill="#63b8ff" stroke="#63b8ff" points="362.17,-184.57 351.58,-184.17 359.61,-191.08 362.17,-184.57"/>
</g>
<!-- Node11 -->
<g id="node11" class="node">
<title>Node11</title>
<g id="a_node11"><a xlink:href="../../d6/d25/FMC__enums_8h.html" target="_top" xlink:title=" ">
<polygon fill="white" stroke="#666666" points="482.5,-129 396.5,-129 396.5,-110 482.5,-110 482.5,-129"/>
<text text-anchor="middle" x="439.5" y="-117" font-family="Helvetica,sans-Serif" font-size="10.00">FMC_enums.h</text>
</a>
</g>
</g>
<!-- Node5&#45;&gt;Node11 -->
<g id="edge21" class="edge">
<title>Node5&#45;&gt;Node11</title>
<path fill="none" stroke="#63b8ff" d="M456.29,-219.8C448.96,-211.38 438.75,-197.9 434.5,-184 430.05,-169.44 431.83,-152.18 434.43,-139.33"/>
<polygon fill="#63b8ff" stroke="#63b8ff" points="437.89,-139.89 436.79,-129.35 431.08,-138.28 437.89,-139.89"/>
</g>
<!-- Node12 -->
<g id="node12" class="node">
<title>Node12</title>
<g id="a_node12"><a xlink:href="../../df/df8/FMC__typedefs_8h.html" target="_top" xlink:title=" ">
<polygon fill="white" stroke="#666666" points="651,-129 556,-129 556,-110 651,-110 651,-129"/>
<text text-anchor="middle" x="603.5" y="-117" font-family="Helvetica,sans-Serif" font-size="10.00">FMC_typedefs.h</text>
</a>
</g>
</g>
<!-- Node5&#45;&gt;Node12 -->
<g id="edge20" class="edge">
<title>Node5&#45;&gt;Node12</title>
<path fill="none" stroke="#63b8ff" d="M533.61,-226.41C602.22,-222.71 700.51,-212.44 724.5,-184 747.3,-156.97 702.53,-139.89 661.15,-130.34"/>
<polygon fill="#63b8ff" stroke="#63b8ff" points="661.81,-126.9 651.3,-128.18 660.32,-133.74 661.81,-126.9"/>
</g>
<!-- Node13 -->
<g id="node13" class="node">
<title>Node13</title>
<g id="a_node13"><a xlink:href="../../d2/d5e/FMC__flags_8h.html" target="_top" xlink:title=" ">
<polygon fill="white" stroke="#666666" points="585.5,-184 443.5,-184 443.5,-165 585.5,-165 585.5,-184"/>
<text text-anchor="middle" x="514.5" y="-172" font-family="Helvetica,sans-Serif" font-size="10.00">preprocessor/FMC_flags.h</text>
</a>
</g>
</g>
<!-- Node5&#45;&gt;Node13 -->
<g id="edge19" class="edge">
<title>Node5&#45;&gt;Node13</title>
<path fill="none" stroke="#63b8ff" d="M472.76,-219.75C479.96,-212.11 490.61,-200.82 499.35,-191.56"/>
<polygon fill="#63b8ff" stroke="#63b8ff" points="502.08,-193.76 506.4,-184.09 496.99,-188.96 502.08,-193.76"/>
</g>
<!-- Node14 -->
<g id="node14" class="node">
<title>Node14</title>
<g id="a_node14"><a xlink:href="../../dd/ddf/FMC__errors_8h.html" target="_top" xlink:title=" ">
<polygon fill="white" stroke="#666666" points="215,-184 110,-184 110,-165 215,-165 215,-184"/>
<text text-anchor="middle" x="162.5" y="-172" font-family="Helvetica,sans-Serif" font-size="10.00">utils/FMC_errors.h</text>
</a>
</g>
</g>
<!-- Node5&#45;&gt;Node14 -->
<g id="edge22" class="edge">
<title>Node5&#45;&gt;Node14</title>
<path fill="none" stroke="#63b8ff" d="M415.98,-219.98C362.89,-210.67 277.81,-195.74 221.06,-185.78"/>
<polygon fill="#63b8ff" stroke="#63b8ff" points="221.61,-182.32 211.15,-184.04 220.4,-189.21 221.61,-182.32"/>
</g>
<!-- Node15 -->
<g id="node15" class="node">
<title>Node15</title>
<g id="a_node15"><a xlink:href="../../de/d86/FMC__globals_8h.html" target="_top" xlink:title=" ">
<polygon fill="white" stroke="#666666" points="715.5,-184 603.5,-184 603.5,-165 715.5,-165 715.5,-184"/>
<text text-anchor="middle" x="659.5" y="-172" font-family="Helvetica,sans-Serif" font-size="10.00">utils/FMC_globals.h</text>
</a>
</g>
</g>
<!-- Node5&#45;&gt;Node15 -->
<g id="edge26" class="edge">
<title>Node5&#45;&gt;Node15</title>
<path fill="none" stroke="#63b8ff" d="M495.83,-219.98C528.99,-210.97 581.5,-196.7 618.06,-186.76"/>
<polygon fill="#63b8ff" stroke="#63b8ff" points="619.19,-190.08 627.92,-184.08 617.36,-183.33 619.19,-190.08"/>
</g>
<!-- Node6&#45;&gt;Node7 -->
<g id="edge6" class="edge">
<title>Node6&#45;&gt;Node7</title>
<path fill="none" stroke="#63b8ff" d="M529.01,-54.98C566.99,-45.87 627.37,-31.4 668.86,-21.45"/>
<polygon fill="#63b8ff" stroke="#63b8ff" points="669.81,-24.82 678.71,-19.08 668.17,-18.01 669.81,-24.82"/>
</g>
<!-- Node8 -->
<g id="node8" class="node">
<title>Node8</title>
<g id="a_node8"><a xlink:href="../../d1/d2e/FMC__attributes_8h.html" target="_top" xlink:title=" ">
<polygon fill="white" stroke="#666666" points="543.5,-19 443.5,-19 443.5,0 543.5,0 543.5,-19"/>
<text text-anchor="middle" x="493.5" y="-7" font-family="Helvetica,sans-Serif" font-size="10.00">FMC_attributes.h</text>
</a>
</g>
</g>
<!-- Node6&#45;&gt;Node8 -->
<g id="edge7" class="edge">
<title>Node6&#45;&gt;Node8</title>
<path fill="none" stroke="#63b8ff" d="M488.33,-54.75C486.84,-47.8 486.4,-37.85 487.02,-29.13"/>
<polygon fill="#63b8ff" stroke="#63b8ff" points="490.51,-29.47 488.37,-19.09 483.57,-28.53 490.51,-29.47"/>
</g>
<!-- Node8&#45;&gt;Node6 -->
<g id="edge8" class="edge">
<title>Node8&#45;&gt;Node6</title>
<path fill="none" stroke="#63b8ff" d="M498.63,-19.09C500.14,-25.99 500.59,-35.93 499.99,-44.66"/>
<polygon fill="#63b8ff" stroke="#63b8ff" points="496.5,-44.38 498.67,-54.75 503.44,-45.29 496.5,-44.38"/>
</g>
<!-- Node10&#45;&gt;Node3 -->
<g id="edge12" class="edge">
<title>Node10&#45;&gt;Node3</title>
<path fill="none" stroke="#63b8ff" d="M294.15,-164.98C253.06,-155.08 185.65,-138.84 144.64,-128.97"/>
<polygon fill="#63b8ff" stroke="#63b8ff" points="145.36,-125.54 134.82,-126.6 143.72,-132.34 145.36,-125.54"/>
</g>
<!-- Node10&#45;&gt;Node6 -->
<g id="edge14" class="edge">
<title>Node10&#45;&gt;Node6</title>
<path fill="none" stroke="#63b8ff" d="M335.67,-164.57C345.34,-151.15 365.29,-125.66 387.5,-110 407.78,-95.7 433.36,-84.8 454.31,-77.36"/>
<polygon fill="#63b8ff" stroke="#63b8ff" points="455.55,-80.64 463.87,-74.09 453.28,-74.02 455.55,-80.64"/>
</g>
<!-- Node10&#45;&gt;Node9 -->
<g id="edge13" class="edge">
<title>Node10&#45;&gt;Node9</title>
<path fill="none" stroke="#63b8ff" d="M319.22,-164.98C309.66,-157.07 295.22,-145.11 283.72,-135.58"/>
<polygon fill="#63b8ff" stroke="#63b8ff" points="285.9,-132.85 275.97,-129.17 281.44,-138.24 285.9,-132.85"/>
</g>
<!-- Node10&#45;&gt;Node11 -->
<g id="edge15" class="edge">
<title>Node10&#45;&gt;Node11</title>
<path fill="none" stroke="#63b8ff" d="M347.17,-164.98C364.79,-156.5 392.08,-143.35 412.43,-133.54"/>
<polygon fill="#63b8ff" stroke="#63b8ff" points="414.02,-136.66 421.51,-129.17 410.98,-130.36 414.02,-136.66"/>
</g>
<!-- Node10&#45;&gt;Node12 -->
<g id="edge17" class="edge">
<title>Node10&#45;&gt;Node12</title>
<path fill="none" stroke="#63b8ff" d="M373.52,-164.98C421.32,-155.74 497.7,-140.97 549.18,-131.01"/>
<polygon fill="#63b8ff" stroke="#63b8ff" points="549.98,-134.42 559.13,-129.08 548.65,-127.54 549.98,-134.42"/>
</g>
<!-- Node11&#45;&gt;Node6 -->
<g id="edge16" class="edge">
<title>Node11&#45;&gt;Node6</title>
<path fill="none" stroke="#63b8ff" d="M448.42,-109.75C456.28,-102.03 467.93,-90.6 477.42,-81.28"/>
<polygon fill="#63b8ff" stroke="#63b8ff" points="480.06,-83.59 484.75,-74.09 475.16,-78.6 480.06,-83.59"/>
</g>
<!-- Node12&#45;&gt;Node6 -->
<g id="edge18" class="edge">
<title>Node12&#45;&gt;Node6</title>
<path fill="none" stroke="#63b8ff" d="M585.83,-109.98C568.21,-101.5 540.92,-88.35 520.57,-78.54"/>
<polygon fill="#63b8ff" stroke="#63b8ff" points="522.02,-75.36 511.49,-74.17 518.98,-81.66 522.02,-75.36"/>
</g>
<!-- Node14&#45;&gt;Node3 -->
<g id="edge23" class="edge">
<title>Node14&#45;&gt;Node3</title>
<path fill="none" stroke="#63b8ff" d="M153.75,-164.75C146.03,-157.03 134.6,-145.6 125.28,-136.28"/>
<polygon fill="#63b8ff" stroke="#63b8ff" points="127.64,-133.69 118.09,-129.09 122.69,-138.64 127.64,-133.69"/>
</g>
<!-- Node14&#45;&gt;Node6 -->
<g id="edge25" class="edge">
<title>Node14&#45;&gt;Node6</title>
<path fill="none" stroke="#63b8ff" d="M162.35,-164.99C162.6,-151.16 165.28,-123.97 181.5,-110 214.25,-81.8 325.42,-71.46 405.73,-67.67"/>
<polygon fill="#63b8ff" stroke="#63b8ff" points="406.02,-71.16 415.86,-67.22 405.71,-64.17 406.02,-71.16"/>
</g>
<!-- Node14&#45;&gt;Node9 -->
<g id="edge24" class="edge">
<title>Node14&#45;&gt;Node9</title>
<path fill="none" stroke="#63b8ff" d="M179.05,-164.98C195.39,-156.57 220.63,-143.59 239.63,-133.81"/>
<polygon fill="#63b8ff" stroke="#63b8ff" points="241.36,-136.86 248.65,-129.17 238.16,-130.63 241.36,-136.86"/>
</g>
<!-- Node15&#45;&gt;Node12 -->
<g id="edge27" class="edge">
<title>Node15&#45;&gt;Node12</title>
<path fill="none" stroke="#63b8ff" d="M650.5,-164.98C642.31,-157.23 629.99,-145.58 620.03,-136.14"/>
<polygon fill="#63b8ff" stroke="#63b8ff" points="622.33,-133.5 612.66,-129.17 617.52,-138.59 622.33,-133.5"/>
</g>
</g>
</svg>
        <g id="navigator" transform="translate(0 0)" fill="#404254">
                <rect fill="#f2f5e9" fill-opacity="0.5" stroke="#606060" stroke-width=".5" x="0" y="0" width="60" height="60"/>
                <use id="zoomplus" xlink:href="#zoomPlus" x="17" y="9" onmousedown="handleZoom(evt,'in')"/>
                <use id="zoomminus" xlink:href="#zoomMin" x="42" y="9" onmousedown="handleZoom(evt,'out')"/>
                <use id="reset" xlink:href="#resetDef" x="30" y="36" onmousedown="handleReset()"/>
                <g id="arrowUp" xlink:href="#dirArrow" transform="translate(30 24)" onmousedown="handlePan(0,-1)">
                  <use xlink:href="#rim" fill="#404040">
                        <set attributeName="fill" to="#808080" begin="arrowUp.mouseover" end="arrowUp.mouseout"/>
                  </use>
                  <path fill="none" stroke="white" stroke-width="1.5" d="M0,-3.0v7 M-2.5,-0.5L0,-3.0L2.5,-0.5"/>
                </g>
                <g id="arrowRight" xlink:href="#dirArrow" transform="rotate(90) translate(36 -43)" onmousedown="handlePan(1,0)">
                  <use xlink:href="#rim" fill="#404040">
                        <set attributeName="fill" to="#808080" begin="arrowRight.mouseover" end="arrowRight.mouseout"/>
                  </use>
                  <path fill="none" stroke="white" stroke-width="1.5" d="M0,-3.0v7 M-2.5,-0.5L0,-3.0L2.5,-0.5"/>
                </g>
                <g id="arrowDown" xlink:href="#dirArrow" transform="rotate(180) translate(-30 -48)" onmousedown="handlePan(0,1)">
                  <use xlink:href="#rim" fill="#404040">
                        <set attributeName="fill" to="#808080" begin="arrowDown.mouseover" end="arrowDown.mouseout"/>
                  </use>
                  <path fill="none" stroke="white" stroke-width="1.5" d="M0,-3.0v7 M-2.5,-0.5L0,-3.0L2.5,-0.5"/>
                </g>
                <g id="arrowLeft" xlink:href="#dirArrow" transform="rotate(270) translate(-36 17)" onmousedown="handlePan(-1,0)">
                  <use xlink:href="#rim" fill="#404040">
                        <set attributeName="fill" to="#808080" begin="arrowLeft.mouseover" end="arrowLeft.mouseout"/>
                  </use>
                  <path fill="none" stroke="white" stroke-width="1.5" d="M0,-3.0v7 M-2.5,-0.5L0,-3.0L2.5,-0.5"/>
                </g>
        </g>
        <svg viewBox="0 0 15 15" width="100%" height="30px" preserveAspectRatio="xMaxYMin meet">
         <g id="arrow_out" transform="scale(0.3 0.3)">
          <a xlink:href="FMC__paths_8c__incl_org.svg" target="_base">
           <rect id="button" ry="5" rx="5" y="6" x="6" height="38" width="38"
                fill="#f2f5e9" fill-opacity="0.5" stroke="#606060" stroke-width="1.0"/>
           <path id="arrow"
             d="M 11.500037,31.436501 C 11.940474,20.09759 22.043105,11.32322 32.158766,21.979434 L 37.068811,17.246167 C 37.068811,17.246167 37.088388,32 37.088388,32 L 22.160133,31.978069 C 22.160133,31.978069 26.997745,27.140456 26.997745,27.140456 C 18.528582,18.264221 13.291696,25.230495 11.500037,31.436501 z"
             style="fill:#404040;"/>
          </a>
         </g>
        </svg>
</svg>
