<?xml version="1.0" encoding="UTF-8" standalone="no"?>
<!DOCTYPE svg PUBLIC "-//W3C//DTD SVG 1.1//EN"
 "http://www.w3.org/Graphics/SVG/1.1/DTD/svg11.dtd">
<!-- Generated by graphviz version 2.43.0 (0)
 -->
<!-- Title: src/files/FMC_paths.c Pages: 1 -->
<!--zoomable 357 -->
<svg id="main" version="1.1" xmlns="http://www.w3.org/2000/svg" xmlns:xlink="http://www.w3.org/1999/xlink" xml:space="preserve" onload="init(evt)">
<style type="text/css"><![CDATA[
.edge:hover path { stroke: red; }
.edge:hover polygon { stroke: red; fill: red; }
]]></style>
<script type="text/javascript"><![CDATA[
var edges = document.getElementsByTagName('g');
if (edges && edges.length) {
  for (var i=0;i<edges.length;i++) {
    if (edges[i].id.substr(0,4)=='edge') {
      edges[i].setAttribute('class','edge');
    }
  }
}
]]></script>
        <defs>
                <circle id="rim" cx="0" cy="0" r="7"/>
                <circle id="rim2" cx="0" cy="0" r="3.5"/>
                <g id="zoomPlus">
                        <use xlink:href="#rim" fill="#404040">
                                <set attributeName="fill" to="#808080" begin="zoomplus.mouseover" end="zoomplus.mouseout"/>
                        </use>
                        <path d="M-4,0h8M0,-4v8" fill="none" stroke="white" stroke-width="1.5" pointer-events="none"/>
                </g>
                <g id="zoomMin">
                        <use xlink:href="#rim" fill="#404040">
                                <set attributeName="fill" to="#808080" begin="zoomminus.mouseover" end="zoomminus.mouseout"/>
                        </use>
                        <path d="M-4,0h8" fill="none" stroke="white" stroke-width="1.5" pointer-events="none"/>
                </g>
                <g id="dirArrow">
                        <path fill="none" stroke="white" stroke-width="1.5" d="M0,-3.0v7 M-2.5,-0.5L0,-3.0L2.5,-0.5"/>
                </g>
               <g id="resetDef">
                       <use xlink:href="#rim2" fill="#404040">
                               <set attributeName="fill" to="#808080" begin="reset.mouseover" end="reset.mouseout"/>
                       </use>
               </g>
        </defs>

<script type="text/javascript">
var viewWidth = 1108;
var viewHeight = 357;
var sectionId = 'dynsection-0';
</script>
<script xlink:href="../../svgpan.js"/>
<svg id="graph" class="graph">
<g id="viewport">
<title>src/files/FMC_paths.c</title>
<!-- Node1 -->
<g id="node1" class="node">
<title>Node1</title>
<g id="a_node1"><a xlink:title=" ">
<polygon fill="#999999" stroke="#666666" points="141,-349 22,-349 22,-330 141,-330 141,-349"/>
<text text-anchor="middle" x="81.5" y="-337" font-family="Helvetica,sans-Serif" font-size="10.00">src/files/FMC_paths.c</text>
</a>
</g>
</g>
<!-- Node2 -->
<g id="node2" class="node">
<title>Node2</title>
<g id="a_node2"><a xlink:title=" ">
<polygon fill="#e0e0e0" stroke="#999999" points="53,-294 0,-294 0,-275 53,-275 53,-294"/>
<text text-anchor="middle" x="26.5" y="-282" font-family="Helvetica,sans-Serif" font-size="10.00">string.h</text>
</a>
</g>
</g>
<!-- Node1&#45;&gt;Node2 -->
<g id="edge1" class="edge">
<title>Node1&#45;&gt;Node2</title>
<path fill="none" stroke="#63b8ff" d="M72.42,-329.75C64.41,-322.03 52.54,-310.6 42.88,-301.28"/>
<polygon fill="#63b8ff" stroke="#63b8ff" points="45.04,-298.51 35.41,-294.09 40.19,-303.55 45.04,-298.51"/>
</g>
<!-- Node3 -->
<g id="node3" class="node">
<title>Node3</title>
<g id="a_node3"><a xlink:title=" ">
<polygon fill="#e0e0e0" stroke="#999999" points="276.5,-129 226.5,-129 226.5,-110 276.5,-110 276.5,-129"/>
<text text-anchor="middle" x="251.5" y="-117" font-family="Helvetica,sans-Serif" font-size="10.00">stdio.h</text>
</a>
</g>
</g>
<!-- Node1&#45;&gt;Node3 -->
<g id="edge2" class="edge">
<title>Node1&#45;&gt;Node3</title>
<path fill="none" stroke="#63b8ff" d="M81.86,-329.62C83.47,-301.61 92.15,-214.11 138.5,-165 159.11,-143.17 191.75,-131.86 216.66,-126.11"/>
<polygon fill="#63b8ff" stroke="#63b8ff" points="217.4,-129.54 226.47,-124.05 215.96,-122.69 217.4,-129.54"/>
</g>
<!-- Node4 -->
<g id="node4" class="node">
<title>Node4</title>
<g id="a_node4"><a xlink:href="../../d2/deb/FMC__file__management_8h.html" target="_top" xlink:title=" ">
<polygon fill="white" stroke="#666666" points="465.5,-294 327.5,-294 327.5,-275 465.5,-275 465.5,-294"/>
<text text-anchor="middle" x="396.5" y="-282" font-family="Helvetica,sans-Serif" font-size="10.00">FMC_file_management.h</text>
</a>
</g>
</g>
<!-- Node1&#45;&gt;Node4 -->
<g id="edge3" class="edge">
<title>Node1&#45;&gt;Node4</title>
<path fill="none" stroke="#63b8ff" d="M132.11,-329.98C187.6,-320.65 276.59,-305.67 335.79,-295.71"/>
<polygon fill="#63b8ff" stroke="#63b8ff" points="336.47,-299.15 345.75,-294.04 335.31,-292.25 336.47,-299.15"/>
</g>
<!-- Node5 -->
<g id="node5" class="node">
<title>Node5</title>
<g id="a_node5"><a xlink:href="../../d9/de1/FMC__general_8h.html" target="_top" xlink:title=" ">
<polygon fill="white" stroke="#666666" points="682.5,-239 544.5,-239 544.5,-220 682.5,-220 682.5,-239"/>
<text text-anchor="middle" x="613.5" y="-227" font-family="Helvetica,sans-Serif" font-size="10.00">../general/FMC_general.h</text>
</a>
</g>
</g>
<!-- Node4&#45;&gt;Node5 -->
<g id="edge4" class="edge">
<title>Node4&#45;&gt;Node5</title>
<path fill="none" stroke="#63b8ff" d="M431.36,-274.98C468.59,-265.89 527.7,-251.46 568.43,-241.51"/>
<polygon fill="#63b8ff" stroke="#63b8ff" points="569.48,-244.85 578.36,-239.08 567.82,-238.05 569.48,-244.85"/>
</g>
<!-- Node6 -->
<g id="node6" class="node">
<title>Node6</title>
<g id="a_node6"><a xlink:href="../../d0/d28/FMC__macros_8h.html" target="_top" xlink:title=" ">
<polygon fill="white" stroke="#666666" points="608,-74 453,-74 453,-55 608,-55 608,-74"/>
<text text-anchor="middle" x="530.5" y="-62" font-family="Helvetica,sans-Serif" font-size="10.00">preprocessor/FMC_macros.h</text>
</a>
</g>
</g>
<!-- Node5&#45;&gt;Node6 -->
<g id="edge5" class="edge">
<title>Node5&#45;&gt;Node6</title>
<path fill="none" stroke="#63b8ff" d="M544.3,-227.06C419.07,-223.73 165.27,-213.39 138.5,-184 48.66,-85.35 301.23,-67.65 442.44,-65.24"/>
<polygon fill="#63b8ff" stroke="#63b8ff" points="442.88,-68.73 452.83,-65.08 442.78,-61.73 442.88,-68.73"/>
</g>
<!-- Node7 -->
<g id="node7" class="node">
<title>Node7</title>
<g id="a_node7"><a xlink:href="../../d7/dff/FMC__platform_8h.html" target="_top" xlink:title=" ">
<polygon fill="white" stroke="#666666" points="923,-19 828,-19 828,0 923,0 923,-19"/>
<text text-anchor="middle" x="875.5" y="-7" font-family="Helvetica,sans-Serif" font-size="10.00">FMC_platform.h</text>
</a>
</g>
</g>
<!-- Node5&#45;&gt;Node7 -->
<g id="edge9" class="edge">
<title>Node5&#45;&gt;Node7</title>
<path fill="none" stroke="#63b8ff" d="M682.75,-227.01C807.36,-223.61 1058.94,-213.18 1085.5,-184 1148.71,-114.55 987.49,-48.44 911.99,-22.29"/>
<polygon fill="#63b8ff" stroke="#63b8ff" points="912.96,-18.92 902.37,-19.01 910.71,-25.55 912.96,-18.92"/>
</g>
<!-- Node9 -->
<g id="node9" class="node">
<title>Node9</title>
<g id="a_node9"><a xlink:href="../../da/dd3/FMC__consts_8h.html" target="_top" xlink:title=" ">
<polygon fill="white" stroke="#666666" points="586.5,-129 436.5,-129 436.5,-110 586.5,-110 586.5,-129"/>
<text text-anchor="middle" x="511.5" y="-117" font-family="Helvetica,sans-Serif" font-size="10.00">preprocessor/FMC_consts.h</text>
</a>
</g>
</g>
<!-- Node5&#45;&gt;Node9 -->
<g id="edge10" class="edge">
<title>Node5&#45;&gt;Node9</title>
<path fill="none" stroke="#63b8ff" d="M612.98,-219.72C611.76,-206.47 607.75,-181.22 594.5,-165 582.57,-150.39 564.54,-139.91 548.33,-132.81"/>
<polygon fill="#63b8ff" stroke="#63b8ff" points="549.63,-129.56 539.05,-129.01 546.98,-136.04 549.63,-129.56"/>
</g>
<!-- Node10 -->
<g id="node10" class="node">
<title>Node10</title>
<g id="a_node10"><a xlink:href="../../d5/de5/FMC__structs_8h.html" target="_top" xlink:title=" ">
<polygon fill="white" stroke="#666666" points="425.5,-184 309.5,-184 309.5,-165 425.5,-165 425.5,-184"/>
<text text-anchor="middle" x="367.5" y="-172" font-family="Helvetica,sans-Serif" font-size="10.00">types/FMC_structs.h</text>
</a>
</g>
</g>
<!-- Node5&#45;&gt;Node10 -->
<g id="edge11" class="edge">
<title>Node5&#45;&gt;Node10</title>
<path fill="none" stroke="#63b8ff" d="M573.98,-219.98C531.33,-210.8 463.35,-196.15 417.14,-186.19"/>
<polygon fill="#63b8ff" stroke="#63b8ff" points="417.85,-182.77 407.33,-184.08 416.37,-189.61 417.85,-182.77"/>
</g>
<!-- Node11 -->
<g id="node11" class="node">
<title>Node11</title>
<g id="a_node11"><a xlink:href="../../d6/d25/FMC__enums_8h.html" target="_top" xlink:title=" ">
<polygon fill="white" stroke="#666666" points="380.5,-129 294.5,-129 294.5,-110 380.5,-110 380.5,-129"/>
<text text-anchor="middle" x="337.5" y="-117" font-family="Helvetica,sans-Serif" font-size="10.00">FMC_enums.h</text>
</a>
</g>
</g>
<!-- Node5&#45;&gt;Node11 -->
<g id="edge21" class="edge">
<title>Node5&#45;&gt;Node11</title>
<path fill="none" stroke="#63b8ff" d="M544.15,-228.78C461.72,-227.46 331.39,-219.6 300.5,-184 287.73,-169.28 303.36,-149.53 318.06,-135.98"/>
<polygon fill="#63b8ff" stroke="#63b8ff" points="320.66,-138.35 325.94,-129.17 316.08,-133.06 320.66,-138.35"/>
</g>
<!-- Node12 -->
<g id="node12" class="node">
<title>Node12</title>
<g id="a_node12"><a xlink:href="../../df/df8/FMC__typedefs_8h.html" target="_top" xlink:title=" ">
<polygon fill="white" stroke="#666666" points="700,-129 605,-129 605,-110 700,-110 700,-129"/>
<text text-anchor="middle" x="652.5" y="-117" font-family="Helvetica,sans-Serif" font-size="10.00">FMC_typedefs.h</text>
</a>
</g>
</g>
<!-- Node5&#45;&gt;Node12 -->
<g id="edge20" class="edge">
<title>Node5&#45;&gt;Node12</title>
<path fill="none" stroke="#63b8ff" d="M616.69,-219.66C623.07,-202.01 637.48,-162.09 645.95,-138.64"/>
<polygon fill="#63b8ff" stroke="#63b8ff" points="649.27,-139.75 649.37,-129.16 642.68,-137.38 649.27,-139.75"/>
</g>
<!-- Node13 -->
<g id="node13" class="node">
<title>Node13</title>
<g id="a_node13"><a xlink:href="../../d2/d5e/FMC__flags_8h.html" target="_top" xlink:title=" ">
<polygon fill="white" stroke="#666666" points="585.5,-184 443.5,-184 443.5,-165 585.5,-165 585.5,-184"/>
<text text-anchor="middle" x="514.5" y="-172" font-family="Helvetica,sans-Serif" font-size="10.00">preprocessor/FMC_flags.h</text>
</a>
</g>
</g>
<!-- Node5&#45;&gt;Node13 -->
<g id="edge19" class="edge">
<title>Node5&#45;&gt;Node13</title>
<path fill="none" stroke="#63b8ff" d="M597.59,-219.98C581.95,-211.61 557.84,-198.7 539.62,-188.95"/>
<polygon fill="#63b8ff" stroke="#63b8ff" points="541.16,-185.8 530.7,-184.17 537.86,-191.98 541.16,-185.8"/>
</g>
<!-- Node14 -->
<g id="node14" class="node">
<title>Node14</title>
<g id="a_node14"><a xlink:href="../../dd/ddf/FMC__errors_8h.html" target="_top" xlink:title=" ">
<polygon fill="white" stroke="#666666" points="253,-184 148,-184 148,-165 253,-165 253,-184"/>
<text text-anchor="middle" x="200.5" y="-172" font-family="Helvetica,sans-Serif" font-size="10.00">utils/FMC_errors.h</text>
</a>
</g>
</g>
<!-- Node5&#45;&gt;Node14 -->
<g id="edge22" class="edge">
<title>Node5&#45;&gt;Node14</title>
<path fill="none" stroke="#63b8ff" d="M547.14,-219.98C468.91,-209.95 339.87,-193.39 263.24,-183.55"/>
<polygon fill="#63b8ff" stroke="#63b8ff" points="263.61,-180.07 253.25,-182.27 262.72,-187.01 263.61,-180.07"/>
</g>
<!-- Node15 -->
<g id="node15" class="node">
<title>Node15</title>
<g id="a_node15"><a xlink:href="../../de/d86/FMC__globals_8h.html" target="_top" xlink:title=" ">
<polygon fill="white" stroke="#666666" points="791.5,-184 679.5,-184 679.5,-165 791.5,-165 791.5,-184"/>
<text text-anchor="middle" x="735.5" y="-172" font-family="Helvetica,sans-Serif" font-size="10.00">utils/FMC_globals.h</text>
</a>
</g>
</g>
<!-- Node5&#45;&gt;Node15 -->
<g id="edge26" class="edge">
<title>Node5&#45;&gt;Node15</title>
<path fill="none" stroke="#63b8ff" d="M633.1,-219.98C652.82,-211.42 683.45,-198.11 706.08,-188.28"/>
<polygon fill="#63b8ff" stroke="#63b8ff" points="707.76,-191.37 715.54,-184.17 704.98,-184.94 707.76,-191.37"/>
</g>
<!-- Node16 -->
<g id="node16" class="node">
<title>Node16</title>
<g id="a_node16"><a xlink:href="../../d4/d06/FMC__deprecated_8h.html" target="_top" xlink:title=" ">
<polygon fill="white" stroke="#666666" points="1076,-184 945,-184 945,-165 1076,-165 1076,-184"/>
<text text-anchor="middle" x="1010.5" y="-172" font-family="Helvetica,sans-Serif" font-size="10.00">utils/FMC_deprecated.h</text>
</a>
</g>
</g>
<!-- Node5&#45;&gt;Node16 -->
<g id="edge30" class="edge">
<title>Node5&#45;&gt;Node16</title>
<path fill="none" stroke="#63b8ff" d="M677.28,-219.98C747.94,-210.55 861.7,-195.36 936.29,-185.41"/>
<polygon fill="#63b8ff" stroke="#63b8ff" points="937.1,-188.83 946.54,-184.04 936.17,-181.89 937.1,-188.83"/>
</g>
<!-- Node18 -->
<g id="node18" class="node">
<title>Node18</title>
<g id="a_node18"><a xlink:href="../../da/d45/FMC__str__view_8h.html" target="_top" xlink:title=" ">
<polygon fill="white" stroke="#666666" points="927,-184 810,-184 810,-165 927,-165 927,-184"/>
<text text-anchor="middle" x="868.5" y="-172" font-family="Helvetica,sans-Serif" font-size="10.00">utils/FMC_str_view.h</text>
</a>
</g>
</g>
<!-- Node5&#45;&gt;Node18 -->
<g id="edge33" class="edge">
<title>Node5&#45;&gt;Node18</title>
<path fill="none" stroke="#63b8ff" d="M649.36,-219.98C691.71,-210.76 762.45,-196.03 812.13,-186.07"/>
<polygon fill="#63b8ff" stroke="#63b8ff" points="812.96,-189.47 822.08,-184.08 811.59,-182.61 812.96,-189.47"/>
</g>
<!-- Node6&#45;&gt;Node7 -->
<g id="edge6" class="edge">
<title>Node6&#45;&gt;Node7</title>
<path fill="none" stroke="#63b8ff" d="M585.93,-54.98C649.57,-45.21 753.47,-29.25 817.98,-19.34"/>
<polygon fill="#63b8ff" stroke="#63b8ff" points="818.63,-22.78 827.98,-17.8 817.57,-15.86 818.63,-22.78"/>
</g>
<!-- Node8 -->
<g id="node8" class="node">
<title>Node8</title>
<g id="a_node8"><a xlink:href="../../d1/d2e/FMC__attributes_8h.html" target="_top" xlink:title=" ">
<polygon fill="white" stroke="#666666" points="580.5,-19 480.5,-19 480.5,0 580.5,0 580.5,-19"/>
<text text-anchor="middle" x="530.5" y="-7" font-family="Helvetica,sans-Serif" font-size="10.00">FMC_attributes.h</text>
</a>
</g>
</g>
<!-- Node6&#45;&gt;Node8 -->
<g id="edge7" class="edge">
<title>Node6&#45;&gt;Node8</title>
<path fill="none" stroke="#63b8ff" d="M525.33,-54.75C523.84,-47.8 523.4,-37.85 524.02,-29.13"/>
<polygon fill="#63b8ff" stroke="#63b8ff" points="527.51,-29.47 525.37,-19.09 520.57,-28.53 527.51,-29.47"/>
</g>
<!-- Node8&#45;&gt;Node6 -->
<g id="edge8" class="edge">
<title>Node8&#45;&gt;Node6</title>
<path fill="none" stroke="#63b8ff" d="M535.63,-19.09C537.14,-25.99 537.59,-35.93 536.99,-44.66"/>
<polygon fill="#63b8ff" stroke="#63b8ff" points="533.5,-44.38 535.67,-54.75 540.44,-45.29 533.5,-44.38"/>
</g>
<!-- Node10&#45;&gt;Node3 -->
<g id="edge12" class="edge">
<title>Node10&#45;&gt;Node3</title>
<path fill="none" stroke="#63b8ff" d="M348.86,-164.98C330.2,-156.46 301.25,-143.23 279.76,-133.41"/>
<polygon fill="#63b8ff" stroke="#63b8ff" points="281.03,-130.14 270.48,-129.17 278.12,-136.51 281.03,-130.14"/>
</g>
<!-- Node10&#45;&gt;Node6 -->
<g id="edge14" class="edge">
<title>Node10&#45;&gt;Node6</title>
<path fill="none" stroke="#63b8ff" d="M373.97,-164.62C384.1,-151.25 404.89,-125.83 427.5,-110 447.52,-95.98 472.66,-85.02 493.09,-77.48"/>
<polygon fill="#63b8ff" stroke="#63b8ff" points="494.45,-80.71 502.7,-74.05 492.1,-74.11 494.45,-80.71"/>
</g>
<!-- Node10&#45;&gt;Node9 -->
<g id="edge13" class="edge">
<title>Node10&#45;&gt;Node9</title>
<path fill="none" stroke="#63b8ff" d="M390.64,-164.98C414.32,-156.27 451.37,-142.63 478.21,-132.75"/>
<polygon fill="#63b8ff" stroke="#63b8ff" points="479.77,-135.91 487.94,-129.17 477.35,-129.34 479.77,-135.91"/>
</g>
<!-- Node10&#45;&gt;Node11 -->
<g id="edge15" class="edge">
<title>Node10&#45;&gt;Node11</title>
<path fill="none" stroke="#63b8ff" d="M362.55,-164.75C358.44,-157.49 352.47,-146.95 347.4,-137.98"/>
<polygon fill="#63b8ff" stroke="#63b8ff" points="350.33,-136.07 342.36,-129.09 344.24,-139.52 350.33,-136.07"/>
</g>
<!-- Node10&#45;&gt;Node12 -->
<g id="edge17" class="edge">
<title>Node10&#45;&gt;Node12</title>
<path fill="none" stroke="#63b8ff" d="M413.29,-164.98C463.11,-155.72 542.78,-140.9 596.34,-130.94"/>
<polygon fill="#63b8ff" stroke="#63b8ff" points="597.16,-134.35 606.35,-129.08 595.88,-127.47 597.16,-134.35"/>
</g>
<!-- Node11&#45;&gt;Node6 -->
<g id="edge16" class="edge">
<title>Node11&#45;&gt;Node6</title>
<path fill="none" stroke="#63b8ff" d="M368.51,-109.98C401.33,-100.97 453.3,-86.7 489.49,-76.76"/>
<polygon fill="#63b8ff" stroke="#63b8ff" points="490.53,-80.11 499.25,-74.08 488.68,-73.36 490.53,-80.11"/>
</g>
<!-- Node12&#45;&gt;Node6 -->
<g id="edge18" class="edge">
<title>Node12&#45;&gt;Node6</title>
<path fill="none" stroke="#63b8ff" d="M632.9,-109.98C613.18,-101.42 582.55,-88.11 559.92,-78.28"/>
<polygon fill="#63b8ff" stroke="#63b8ff" points="561.02,-74.94 550.46,-74.17 558.24,-81.37 561.02,-74.94"/>
</g>
<!-- Node14&#45;&gt;Node3 -->
<g id="edge23" class="edge">
<title>Node14&#45;&gt;Node3</title>
<path fill="none" stroke="#63b8ff" d="M208.92,-164.75C216.27,-157.11 227.13,-145.82 236.04,-136.56"/>
<polygon fill="#63b8ff" stroke="#63b8ff" points="238.82,-138.72 243.24,-129.09 233.78,-133.87 238.82,-138.72"/>
</g>
<!-- Node14&#45;&gt;Node6 -->
<g id="edge25" class="edge">
<title>Node14&#45;&gt;Node6</title>
<path fill="none" stroke="#63b8ff" d="M200.05,-164.56C199.88,-150.64 201.79,-123.93 217.5,-110 250,-81.2 361.9,-71 442.63,-67.41"/>
<polygon fill="#63b8ff" stroke="#63b8ff" points="442.97,-70.9 452.81,-66.99 442.68,-63.91 442.97,-70.9"/>
</g>
<!-- Node14&#45;&gt;Node9 -->
<g id="edge24" class="edge">
<title>Node14&#45;&gt;Node9</title>
<path fill="none" stroke="#63b8ff" d="M250.47,-164.98C305.14,-155.67 392.75,-140.74 451.2,-130.78"/>
<polygon fill="#63b8ff" stroke="#63b8ff" points="452.13,-134.17 461.4,-129.04 450.95,-127.27 452.13,-134.17"/>
</g>
<!-- Node15&#45;&gt;Node6 -->
<g id="edge28" class="edge">
<title>Node15&#45;&gt;Node6</title>
<path fill="none" stroke="#63b8ff" d="M734.42,-164.66C732.26,-150.87 726.08,-124.34 709.5,-110 684.36,-88.27 650.19,-76.84 618.44,-70.94"/>
<polygon fill="#63b8ff" stroke="#63b8ff" points="618.68,-67.43 608.24,-69.21 617.51,-74.33 618.68,-67.43"/>
</g>
<!-- Node15&#45;&gt;Node9 -->
<g id="edge29" class="edge">
<title>Node15&#45;&gt;Node9</title>
<path fill="none" stroke="#63b8ff" d="M699.51,-164.98C661.01,-155.87 599.81,-141.4 557.76,-131.45"/>
<polygon fill="#63b8ff" stroke="#63b8ff" points="558.31,-127.98 547.77,-129.08 556.7,-134.79 558.31,-127.98"/>
</g>
<!-- Node15&#45;&gt;Node12 -->
<g id="edge27" class="edge">
<title>Node15&#45;&gt;Node12</title>
<path fill="none" stroke="#63b8ff" d="M722.16,-164.98C709.41,-156.84 689.95,-144.41 674.83,-134.76"/>
<polygon fill="#63b8ff" stroke="#63b8ff" points="676.39,-131.6 666.08,-129.17 672.62,-137.5 676.39,-131.6"/>
</g>
<!-- Node16&#45;&gt;Node8 -->
<g id="edge31" class="edge">
<title>Node16&#45;&gt;Node8</title>
<path fill="none" stroke="#63b8ff" d="M1010.53,-164.67C1010.06,-150.89 1007.05,-124.38 991.5,-110 933.64,-56.5 702.15,-27.2 590.86,-15.95"/>
<polygon fill="#63b8ff" stroke="#63b8ff" points="591.09,-12.46 580.79,-14.95 590.4,-19.43 591.09,-12.46"/>
</g>
<!-- Node17 -->
<g id="node17" class="node">
<title>Node17</title>
<g id="a_node17"><a xlink:title=" ">
<polygon fill="#e0e0e0" stroke="#999999" points="982.5,-129 926.5,-129 926.5,-110 982.5,-110 982.5,-129"/>
<text text-anchor="middle" x="954.5" y="-117" font-family="Helvetica,sans-Serif" font-size="10.00">stddef.h</text>
</a>
</g>
</g>
<!-- Node16&#45;&gt;Node17 -->
<g id="edge32" class="edge">
<title>Node16&#45;&gt;Node17</title>
<path fill="none" stroke="#63b8ff" d="M1001.5,-164.98C993.31,-157.23 980.99,-145.58 971.03,-136.14"/>
<polygon fill="#63b8ff" stroke="#63b8ff" points="973.33,-133.5 963.66,-129.17 968.52,-138.59 973.33,-133.5"/>
</g>
<!-- Node18&#45;&gt;Node5 -->
<g id="edge34" class="edge">
<title>Node18&#45;&gt;Node5</title>
<path fill="none" stroke="#63b8ff" d="M832.34,-184.08C789.85,-193.33 719.09,-208.07 669.51,-218"/>
<polygon fill="#63b8ff" stroke="#63b8ff" points="668.71,-214.59 659.58,-219.98 670.08,-221.46 668.71,-214.59"/>
</g>
</g>
</svg>
        <g id="navigator" transform="translate(0 0)" fill="#404254">
                <rect fill="#f2f5e9" fill-opacity="0.5" stroke="#606060" stroke-width=".5" x="0" y="0" width="60" height="60"/>
                <use id="zoomplus" xlink:href="#zoomPlus" x="17" y="9" onmousedown="handleZoom(evt,'in')"/>
                <use id="zoomminus" xlink:href="#zoomMin" x="42" y="9" onmousedown="handleZoom(evt,'out')"/>
                <use id="reset" xlink:href="#resetDef" x="30" y="36" onmousedown="handleReset()"/>
                <g id="arrowUp" xlink:href="#dirArrow" transform="translate(30 24)" onmousedown="handlePan(0,-1)">
                  <use xlink:href="#rim" fill="#404040">
                        <set attributeName="fill" to="#808080" begin="arrowUp.mouseover" end="arrowUp.mouseout"/>
                  </use>
                  <path fill="none" stroke="white" stroke-width="1.5" d="M0,-3.0v7 M-2.5,-0.5L0,-3.0L2.5,-0.5"/>
                </g>
                <g id="arrowRight" xlink:href="#dirArrow" transform="rotate(90) translate(36 -43)" onmousedown="handlePan(1,0)">
                  <use xlink:href="#rim" fill="#404040">
                        <set attributeName="fill" to="#808080" begin="arrowRight.mouseover" end="arrowRight.mouseout"/>
                  </use>
                  <path fill="none" stroke="white" stroke-width="1.5" d="M0,-3.0v7 M-2.5,-0.5L0,-3.0L2.5,-0.5"/>
                </g>
                <g id="arrowDown" xlink:href="#dirArrow" transform="rotate(180) translate(-30 -48)" onmousedown="handlePan(0,1)">
                  <use xlink:href="#rim" fill="#404040">
                        <set attributeName="fill" to="#808080" begin="arrowDown.mouseover" end="arrowDown.mouseout"/>
                  </use>
                  <path fill="none" stroke="white" stroke-width="1.5" d="M0,-3.0v7 M-2.5,-0.5L0,-3.0L2.5,-0.5"/>
                </g>
                <g id="arrowLeft" xlink:href="#dirArrow" transform="rotate(270) translate(-36 17)" onmousedown="handlePan(-1,0)">
                  <use xlink:href="#rim" fill="#404040">
                        <set attributeName="fill" to="#808080" begin="arrowLeft.mouseover" end="arrowLeft.mouseout"/>
                  </use>
                  <path fill="none" stroke="white" stroke-width="1.5" d="M0,-3.0v7 M-2.5,-0.5L0,-3.0L2.5,-0.5"/>
                </g>
        </g>
        <svg viewBox="0 0 15 15" width="100%" height="30px" preserveAspectRatio="xMaxYMin meet">
         <g id="arrow_out" transform="scale(0.3 0.3)">
          <a xlink:href="FMC__paths_8c__incl_org.svg" target="_base">
           <rect id="button" ry="5" rx="5" y="6" x="6" height="38" width="38"
                fill="#f2f5e9" fill-opacity="0.5" stroke="#606060" stroke-width="1.0"/>
           <path id="arrow"
             d="M 11.500037,31.436501 C 11.940474,20.09759 22.043105,11.32322 32.158766,21.979434 L 37.068811,17.246167 C 37.068811,17.246167 37.088388,32 37.088388,32 L 22.160133,31.978069 C 22.160133,31.978069 26.997745,27.140456 26.997745,27.140456 C 18.528582,18.264221 13.291696,25.230495 11.500037,31.436501 z"
             style="fill:#404040;"/>
          </a>
         </g>
        </svg>
</svg>
