<?xml version="1.0" encoding="UTF-8" standalone="no"?>
<!DOCTYPE svg PUBLIC "-//W3C//DTD SVG 1.1//EN"
 "http://www.w3.org/Graphics/SVG/1.1/DTD/svg11.dtd">
<!-- Generated by graphviz version 2.43.0 (0)
 -->
<!-- Title: src/general/utils/FMC_errors.c Pages: 1 -->
<svg width="358pt" height="269pt"
 viewBox="0.00 0.00 357.50 269.00" xmlns="http://www.w3.org/2000/svg" xmlns:xlink="http://www.w3.org/1999/xlink">
<g id="graph0" class="graph" transform="scale(1 1) rotate(0) translate(4 265)">
<title>src/general/utils/FMC_errors.c</title>
<!-- Node1 -->
<g id="node1" class="node">
<title>Node1</title>
<g id="a_node1"><a xlink:title=" ">
<polygon fill="#999999" stroke="#666666" points="253.5,-261 134.5,-261 134.5,-231 253.5,-231 253.5,-261"/>
<text text-anchor="start" x="142.5" y="-249" font-family="Helvetica,sans-Serif" font-size="10.00">src/general/utils/FMC</text>
<text text-anchor="middle" x="194" y="-238" font-family="Helvetica,sans-Serif" font-size="10.00">_errors.c</text>
</a>
</g>
</g>
<!-- Node2 -->
<g id="node2" class="node">
<title>Node2</title>
<g id="a_node2"><a xlink:href="../../dd/ddf/FMC__errors_8h.html" target="_top" xlink:title=" ">
<polygon fill="white" stroke="#666666" points="165.5,-195 84.5,-195 84.5,-176 165.5,-176 165.5,-195"/>
<text text-anchor="middle" x="125" y="-183" font-family="Helvetica,sans-Serif" font-size="10.00">FMC_errors.h</text>
</a>
</g>
</g>
<!-- Node1&#45;&gt;Node2 -->
<g id="edge1" class="edge">
<title>Node1&#45;&gt;Node2</title>
<path fill="none" stroke="#63b8ff" d="M177.3,-230.84C166.97,-222.09 153.72,-210.85 143.14,-201.88"/>
<polygon fill="#63b8ff" stroke="#63b8ff" points="145.23,-199.06 135.34,-195.27 140.7,-204.4 145.23,-199.06"/>
</g>
<!-- Node3 -->
<g id="node3" class="node">
<title>Node3</title>
<g id="a_node3"><a xlink:title=" ">
<polygon fill="#e0e0e0" stroke="#999999" points="50,-134.5 0,-134.5 0,-115.5 50,-115.5 50,-134.5"/>
<text text-anchor="middle" x="25" y="-122.5" font-family="Helvetica,sans-Serif" font-size="10.00">stdio.h</text>
</a>
</g>
</g>
<!-- Node1&#45;&gt;Node3 -->
<g id="edge10" class="edge">
<title>Node1&#45;&gt;Node3</title>
<path fill="none" stroke="#63b8ff" d="M144.43,-230.99C121.71,-222.94 95.36,-211.16 75,-195 57.32,-180.97 42.95,-159.15 34.23,-143.82"/>
<polygon fill="#63b8ff" stroke="#63b8ff" points="37.19,-141.93 29.34,-134.82 31.04,-145.28 37.19,-141.93"/>
</g>
<!-- Node5 -->
<g id="node5" class="node">
<title>Node5</title>
<g id="a_node5"><a xlink:href="../../d0/d28/FMC__macros_8h.html" target="_top" xlink:title=" ">
<polygon fill="white" stroke="#666666" points="312.5,-140 199.5,-140 199.5,-110 312.5,-110 312.5,-140"/>
<text text-anchor="start" x="207.5" y="-128" font-family="Helvetica,sans-Serif" font-size="10.00">../preprocessor/FMC</text>
<text text-anchor="middle" x="256" y="-117" font-family="Helvetica,sans-Serif" font-size="10.00">_macros.h</text>
</a>
</g>
</g>
<!-- Node1&#45;&gt;Node5 -->
<g id="edge9" class="edge">
<title>Node1&#45;&gt;Node5</title>
<path fill="none" stroke="#63b8ff" d="M196.02,-230.84C198.5,-216.39 203.59,-193.66 213,-176 218.47,-165.74 226.36,-155.75 233.9,-147.43"/>
<polygon fill="#63b8ff" stroke="#63b8ff" points="236.59,-149.68 240.93,-140.02 231.51,-144.87 236.59,-149.68"/>
</g>
<!-- Node8 -->
<g id="node8" class="node">
<title>Node8</title>
<g id="a_node8"><a xlink:title=" ">
<polygon fill="#e0e0e0" stroke="#999999" points="278,-195 222,-195 222,-176 278,-176 278,-195"/>
<text text-anchor="middle" x="250" y="-183" font-family="Helvetica,sans-Serif" font-size="10.00">stdarg.h</text>
</a>
</g>
</g>
<!-- Node1&#45;&gt;Node8 -->
<g id="edge11" class="edge">
<title>Node1&#45;&gt;Node8</title>
<path fill="none" stroke="#63b8ff" d="M207.56,-230.84C215.68,-222.35 226.05,-211.52 234.5,-202.69"/>
<polygon fill="#63b8ff" stroke="#63b8ff" points="237.22,-204.91 241.61,-195.27 232.17,-200.07 237.22,-204.91"/>
</g>
<!-- Node9 -->
<g id="node9" class="node">
<title>Node9</title>
<g id="a_node9"><a xlink:title=" ">
<polygon fill="#e0e0e0" stroke="#999999" points="349.5,-195 296.5,-195 296.5,-176 349.5,-176 349.5,-195"/>
<text text-anchor="middle" x="323" y="-183" font-family="Helvetica,sans-Serif" font-size="10.00">string.h</text>
</a>
</g>
</g>
<!-- Node1&#45;&gt;Node9 -->
<g id="edge12" class="edge">
<title>Node1&#45;&gt;Node9</title>
<path fill="none" stroke="#63b8ff" d="M224.9,-230.99C246.13,-221.36 274.11,-208.67 294.75,-199.31"/>
<polygon fill="#63b8ff" stroke="#63b8ff" points="296.29,-202.46 303.95,-195.14 293.4,-196.08 296.29,-202.46"/>
</g>
<!-- Node2&#45;&gt;Node3 -->
<g id="edge2" class="edge">
<title>Node2&#45;&gt;Node3</title>
<path fill="none" stroke="#63b8ff" d="M110.24,-175.87C94,-166.36 67.65,-150.95 48.54,-139.77"/>
<polygon fill="#63b8ff" stroke="#63b8ff" points="50.21,-136.7 39.82,-134.67 46.68,-142.74 50.21,-136.7"/>
</g>
<!-- Node4 -->
<g id="node4" class="node">
<title>Node4</title>
<g id="a_node4"><a xlink:href="../../da/dd3/FMC__consts_8h.html" target="_top" xlink:title=" ">
<polygon fill="white" stroke="#666666" points="181.5,-140 68.5,-140 68.5,-110 181.5,-110 181.5,-140"/>
<text text-anchor="start" x="76.5" y="-128" font-family="Helvetica,sans-Serif" font-size="10.00">../preprocessor/FMC</text>
<text text-anchor="middle" x="125" y="-117" font-family="Helvetica,sans-Serif" font-size="10.00">_consts.h</text>
</a>
</g>
</g>
<!-- Node2&#45;&gt;Node4 -->
<g id="edge3" class="edge">
<title>Node2&#45;&gt;Node4</title>
<path fill="none" stroke="#63b8ff" d="M125,-175.87C125,-169.11 125,-159.35 125,-150.26"/>
<polygon fill="#63b8ff" stroke="#63b8ff" points="128.5,-150.11 125,-140.11 121.5,-150.11 128.5,-150.11"/>
</g>
<!-- Node2&#45;&gt;Node5 -->
<g id="edge4" class="edge">
<title>Node2&#45;&gt;Node5</title>
<path fill="none" stroke="#63b8ff" d="M144.05,-175.99C162.65,-167.68 191.56,-154.78 215.34,-144.16"/>
<polygon fill="#63b8ff" stroke="#63b8ff" points="216.8,-147.34 224.51,-140.06 213.95,-140.95 216.8,-147.34"/>
</g>
<!-- Node6 -->
<g id="node6" class="node">
<title>Node6</title>
<g id="a_node6"><a xlink:href="../../d7/dff/FMC__platform_8h.html" target="_top" xlink:title=" ">
<polygon fill="white" stroke="#666666" points="264.5,-19 169.5,-19 169.5,0 264.5,0 264.5,-19"/>
<text text-anchor="middle" x="217" y="-7" font-family="Helvetica,sans-Serif" font-size="10.00">FMC_platform.h</text>
</a>
</g>
</g>
<!-- Node5&#45;&gt;Node6 -->
<g id="edge5" class="edge">
<title>Node5&#45;&gt;Node6</title>
<path fill="none" stroke="#63b8ff" d="M230.7,-109.88C218.06,-101.31 204,-89.11 197,-74 190.04,-58.98 197.13,-40.89 204.73,-27.86"/>
<polygon fill="#63b8ff" stroke="#63b8ff" points="207.71,-29.7 210.15,-19.39 201.81,-25.93 207.71,-29.7"/>
</g>
<!-- Node7 -->
<g id="node7" class="node">
<title>Node7</title>
<g id="a_node7"><a xlink:href="../../d1/d2e/FMC__attributes_8h.html" target="_top" xlink:title=" ">
<polygon fill="white" stroke="#666666" points="306,-74 206,-74 206,-55 306,-55 306,-74"/>
<text text-anchor="middle" x="256" y="-62" font-family="Helvetica,sans-Serif" font-size="10.00">FMC_attributes.h</text>
</a>
</g>
</g>
<!-- Node5&#45;&gt;Node7 -->
<g id="edge6" class="edge">
<title>Node5&#45;&gt;Node7</title>
<path fill="none" stroke="#63b8ff" d="M250.12,-109.84C249.15,-102.21 248.99,-92.7 249.64,-84.45"/>
<polygon fill="#63b8ff" stroke="#63b8ff" points="253.14,-84.65 251.02,-74.27 246.21,-83.71 253.14,-84.65"/>
</g>
<!-- Node7&#45;&gt;Node5 -->
<g id="edge8" class="edge">
<title>Node7&#45;&gt;Node5</title>
<path fill="none" stroke="#63b8ff" d="M260.98,-74.27C262.42,-81.03 262.98,-90.72 262.66,-99.75"/>
<polygon fill="#63b8ff" stroke="#63b8ff" points="259.16,-99.6 261.88,-109.84 266.14,-100.14 259.16,-99.6"/>
</g>
<!-- Node7&#45;&gt;Node6 -->
<g id="edge7" class="edge">
<title>Node7&#45;&gt;Node6</title>
<path fill="none" stroke="#63b8ff" d="M249.56,-54.75C244.11,-47.34 236.14,-36.5 229.44,-27.41"/>
<polygon fill="#63b8ff" stroke="#63b8ff" points="232.07,-25.07 223.32,-19.09 226.43,-29.22 232.07,-25.07"/>
</g>
</g>
</svg>
