<?xml version="1.0" encoding="UTF-8" standalone="no"?>
<!DOCTYPE svg PUBLIC "-//W3C//DTD SVG 1.1//EN"
 "http://www.w3.org/Graphics/SVG/1.1/DTD/svg11.dtd">
<!-- Generated by graphviz version 2.43.0 (0)
 -->
<!-- Title: src/general/utils/FMC_errors.c Pages: 1 -->
<svg width="358pt" height="214pt"
 viewBox="0.00 0.00 357.50 214.00" xmlns="http://www.w3.org/2000/svg" xmlns:xlink="http://www.w3.org/1999/xlink">
<g id="graph0" class="graph" transform="scale(1 1) rotate(0) translate(4 210)">
<title>src/general/utils/FMC_errors.c</title>
<!-- Node1 -->
<g id="node1" class="node">
<title>Node1</title>
<g id="a_node1"><a xlink:title=" ">
<polygon fill="#999999" stroke="#666666" points="253.5,-206 134.5,-206 134.5,-176 253.5,-176 253.5,-206"/>
<text text-anchor="start" x="142.5" y="-194" font-family="Helvetica,sans-Serif" font-size="10.00">src/general/utils/FMC</text>
<text text-anchor="middle" x="194" y="-183" font-family="Helvetica,sans-Serif" font-size="10.00">_errors.c</text>
</a>
</g>
</g>
<!-- Node2 -->
<g id="node2" class="node">
<title>Node2</title>
<g id="a_node2"><a xlink:href="../../dd/ddf/FMC__errors_8h.html" target="_top" xlink:title=" ">
<polygon fill="white" stroke="#666666" points="165.5,-140 84.5,-140 84.5,-121 165.5,-121 165.5,-140"/>
<text text-anchor="middle" x="125" y="-128" font-family="Helvetica,sans-Serif" font-size="10.00">FMC_errors.h</text>
</a>
</g>
</g>
<!-- Node1&#45;&gt;Node2 -->
<g id="edge1" class="edge">
<title>Node1&#45;&gt;Node2</title>
<path fill="none" stroke="#63b8ff" d="M177.3,-175.84C166.97,-167.09 153.72,-155.85 143.14,-146.88"/>
<polygon fill="#63b8ff" stroke="#63b8ff" points="145.23,-144.06 135.34,-140.27 140.7,-149.4 145.23,-144.06"/>
</g>
<!-- Node3 -->
<g id="node3" class="node">
<title>Node3</title>
<g id="a_node3"><a xlink:title=" ">
<polygon fill="#e0e0e0" stroke="#999999" points="50,-79.5 0,-79.5 0,-60.5 50,-60.5 50,-79.5"/>
<text text-anchor="middle" x="25" y="-67.5" font-family="Helvetica,sans-Serif" font-size="10.00">stdio.h</text>
</a>
</g>
</g>
<!-- Node1&#45;&gt;Node3 -->
<g id="edge9" class="edge">
<title>Node1&#45;&gt;Node3</title>
<path fill="none" stroke="#63b8ff" d="M144.43,-175.99C121.71,-167.94 95.36,-156.16 75,-140 57.32,-125.97 42.95,-104.15 34.23,-88.82"/>
<polygon fill="#63b8ff" stroke="#63b8ff" points="37.19,-86.93 29.34,-79.82 31.04,-90.28 37.19,-86.93"/>
</g>
<!-- Node5 -->
<g id="node5" class="node">
<title>Node5</title>
<g id="a_node5"><a xlink:href="../../d0/d28/FMC__macros_8h.html" target="_top" xlink:title=" ">
<polygon fill="white" stroke="#666666" points="312.5,-85 199.5,-85 199.5,-55 312.5,-55 312.5,-85"/>
<text text-anchor="start" x="207.5" y="-73" font-family="Helvetica,sans-Serif" font-size="10.00">../preprocessor/FMC</text>
<text text-anchor="middle" x="256" y="-62" font-family="Helvetica,sans-Serif" font-size="10.00">_macros.h</text>
</a>
</g>
</g>
<!-- Node1&#45;&gt;Node5 -->
<g id="edge8" class="edge">
<title>Node1&#45;&gt;Node5</title>
<path fill="none" stroke="#63b8ff" d="M196.02,-175.84C198.5,-161.39 203.59,-138.66 213,-121 218.47,-110.74 226.36,-100.75 233.9,-92.43"/>
<polygon fill="#63b8ff" stroke="#63b8ff" points="236.59,-94.68 240.93,-85.02 231.51,-89.87 236.59,-94.68"/>
</g>
<!-- Node8 -->
<g id="node8" class="node">
<title>Node8</title>
<g id="a_node8"><a xlink:title=" ">
<polygon fill="#e0e0e0" stroke="#999999" points="278,-140 222,-140 222,-121 278,-121 278,-140"/>
<text text-anchor="middle" x="250" y="-128" font-family="Helvetica,sans-Serif" font-size="10.00">stdarg.h</text>
</a>
</g>
</g>
<!-- Node1&#45;&gt;Node8 -->
<g id="edge10" class="edge">
<title>Node1&#45;&gt;Node8</title>
<path fill="none" stroke="#63b8ff" d="M207.56,-175.84C215.68,-167.35 226.05,-156.52 234.5,-147.69"/>
<polygon fill="#63b8ff" stroke="#63b8ff" points="237.22,-149.91 241.61,-140.27 232.17,-145.07 237.22,-149.91"/>
</g>
<!-- Node9 -->
<g id="node9" class="node">
<title>Node9</title>
<g id="a_node9"><a xlink:title=" ">
<polygon fill="#e0e0e0" stroke="#999999" points="349.5,-140 296.5,-140 296.5,-121 349.5,-121 349.5,-140"/>
<text text-anchor="middle" x="323" y="-128" font-family="Helvetica,sans-Serif" font-size="10.00">string.h</text>
</a>
</g>
</g>
<!-- Node1&#45;&gt;Node9 -->
<g id="edge11" class="edge">
<title>Node1&#45;&gt;Node9</title>
<path fill="none" stroke="#63b8ff" d="M224.9,-175.99C246.13,-166.36 274.11,-153.67 294.75,-144.31"/>
<polygon fill="#63b8ff" stroke="#63b8ff" points="296.29,-147.46 303.95,-140.14 293.4,-141.08 296.29,-147.46"/>
</g>
<!-- Node2&#45;&gt;Node3 -->
<g id="edge2" class="edge">
<title>Node2&#45;&gt;Node3</title>
<path fill="none" stroke="#63b8ff" d="M110.24,-120.87C94,-111.36 67.65,-95.95 48.54,-84.77"/>
<polygon fill="#63b8ff" stroke="#63b8ff" points="50.21,-81.7 39.82,-79.67 46.68,-87.74 50.21,-81.7"/>
</g>
<!-- Node4 -->
<g id="node4" class="node">
<title>Node4</title>
<g id="a_node4"><a xlink:href="../../da/dd3/FMC__consts_8h.html" target="_top" xlink:title=" ">
<polygon fill="white" stroke="#666666" points="181.5,-85 68.5,-85 68.5,-55 181.5,-55 181.5,-85"/>
<text text-anchor="start" x="76.5" y="-73" font-family="Helvetica,sans-Serif" font-size="10.00">../preprocessor/FMC</text>
<text text-anchor="middle" x="125" y="-62" font-family="Helvetica,sans-Serif" font-size="10.00">_consts.h</text>
</a>
</g>
</g>
<!-- Node2&#45;&gt;Node4 -->
<g id="edge3" class="edge">
<title>Node2&#45;&gt;Node4</title>
<path fill="none" stroke="#63b8ff" d="M125,-120.87C125,-114.11 125,-104.35 125,-95.26"/>
<polygon fill="#63b8ff" stroke="#63b8ff" points="128.5,-95.11 125,-85.11 121.5,-95.11 128.5,-95.11"/>
</g>
<!-- Node2&#45;&gt;Node5 -->
<g id="edge4" class="edge">
<title>Node2&#45;&gt;Node5</title>
<path fill="none" stroke="#63b8ff" d="M144.05,-120.99C162.65,-112.68 191.56,-99.78 215.34,-89.16"/>
<polygon fill="#63b8ff" stroke="#63b8ff" points="216.8,-92.34 224.51,-85.06 213.95,-85.95 216.8,-92.34"/>
</g>
<!-- Node6 -->
<g id="node6" class="node">
<title>Node6</title>
<g id="a_node6"><a xlink:href="../../d7/dff/FMC__platform_8h.html" target="_top" xlink:title=" ">
<polygon fill="white" stroke="#666666" points="187.5,-19 92.5,-19 92.5,0 187.5,0 187.5,-19"/>
<text text-anchor="middle" x="140" y="-7" font-family="Helvetica,sans-Serif" font-size="10.00">FMC_platform.h</text>
</a>
</g>
</g>
<!-- Node5&#45;&gt;Node6 -->
<g id="edge5" class="edge">
<title>Node5&#45;&gt;Node6</title>
<path fill="none" stroke="#63b8ff" d="M228.22,-54.99C209.38,-45.49 184.65,-33.02 166.16,-23.69"/>
<polygon fill="#63b8ff" stroke="#63b8ff" points="167.64,-20.52 157.13,-19.14 164.48,-26.77 167.64,-20.52"/>
</g>
<!-- Node7 -->
<g id="node7" class="node">
<title>Node7</title>
<g id="a_node7"><a xlink:href="../../d1/d2e/FMC__attributes_8h.html" target="_top" xlink:title=" ">
<polygon fill="white" stroke="#666666" points="306,-19 206,-19 206,0 306,0 306,-19"/>
<text text-anchor="middle" x="256" y="-7" font-family="Helvetica,sans-Serif" font-size="10.00">FMC_attributes.h</text>
</a>
</g>
</g>
<!-- Node5&#45;&gt;Node7 -->
<g id="edge6" class="edge">
<title>Node5&#45;&gt;Node7</title>
<path fill="none" stroke="#63b8ff" d="M250.12,-54.84C249.15,-47.21 248.99,-37.7 249.64,-29.45"/>
<polygon fill="#63b8ff" stroke="#63b8ff" points="253.14,-29.65 251.02,-19.27 246.21,-28.71 253.14,-29.65"/>
</g>
<!-- Node7&#45;&gt;Node5 -->
<g id="edge7" class="edge">
<title>Node7&#45;&gt;Node5</title>
<path fill="none" stroke="#63b8ff" d="M260.98,-19.27C262.42,-26.03 262.98,-35.72 262.66,-44.75"/>
<polygon fill="#63b8ff" stroke="#63b8ff" points="259.16,-44.6 261.88,-54.84 266.14,-45.14 259.16,-44.6"/>
</g>
</g>
</svg>
