<?xml version="1.0" encoding="UTF-8" standalone="no"?>
<!DOCTYPE svg PUBLIC "-//W3C//DTD SVG 1.1//EN"
 "http://www.w3.org/Graphics/SVG/1.1/DTD/svg11.dtd">
<!-- Generated by graphviz version 2.43.0 (0)
 -->
<!-- Title: FManC_File Pages: 1 -->
<svg width="348pt" height="193pt"
 viewBox="0.00 0.00 347.50 193.00" xmlns="http://www.w3.org/2000/svg" xmlns:xlink="http://www.w3.org/1999/xlink">
<g id="graph0" class="graph" transform="scale(1 1) rotate(0) translate(4 189)">
<title>FManC_File</title>
<!-- Node1 -->
<g id="node1" class="node">
<title>Node1</title>
<g id="a_node1"><a xlink:title=" ">
<polygon fill="#999999" stroke="#666666" points="89,-0.5 89,-57.5 162,-57.5 162,-0.5 89,-0.5"/>
<text text-anchor="middle" x="125.5" y="-45.5" font-family="Helvetica,sans-Serif" font-size="10.00">FManC_File</text>
<polyline fill="none" stroke="#666666" points="89,-38.5 162,-38.5 "/>
<text text-anchor="middle" x="125.5" y="-26.5" font-family="Helvetica,sans-Serif" font-size="10.00"> </text>
<polyline fill="none" stroke="#666666" points="89,-19.5 162,-19.5 "/>
<text text-anchor="middle" x="125.5" y="-7.5" font-family="Helvetica,sans-Serif" font-size="10.00"> </text>
</a>
</g>
</g>
<!-- Node2 -->
<g id="node2" class="node">
<title>Node2</title>
<g id="a_node2"><a xlink:title=" ">
<polygon fill="white" stroke="#666666" points="0,-127.5 0,-184.5 45,-184.5 45,-127.5 0,-127.5"/>
<text text-anchor="middle" x="22.5" y="-172.5" font-family="Helvetica,sans-Serif" font-size="10.00">FILE *</text>
<polyline fill="none" stroke="#666666" points="0,-165.5 45,-165.5 "/>
<text text-anchor="middle" x="22.5" y="-153.5" font-family="Helvetica,sans-Serif" font-size="10.00"> </text>
<polyline fill="none" stroke="#666666" points="0,-146.5 45,-146.5 "/>
<text text-anchor="middle" x="22.5" y="-134.5" font-family="Helvetica,sans-Serif" font-size="10.00"> </text>
</a>
</g>
</g>
<!-- Node2&#45;&gt;Node1 -->
<g id="edge1" class="edge">
<title>Node2&#45;&gt;Node1</title>
<path fill="none" stroke="#404040" d="M27.01,-127.47C30.8,-111.13 37.59,-90.79 49.5,-76 57.26,-66.36 67.63,-58.24 78.2,-51.64"/>
<polygon fill="none" stroke="#404040" points="78.36,-51.55 81.55,-45.08 88.75,-45.55 85.56,-52.01 78.36,-51.55"/>
<text text-anchor="middle" x="63" y="-90" font-family="Helvetica,sans-Serif" font-size="10.00"> +file</text>
</g>
<!-- Node3 -->
<g id="node3" class="node">
<title>Node3</title>
<g id="a_node3"><a xlink:title=" ">
<polygon fill="white" stroke="#666666" points="63.5,-127.5 63.5,-184.5 107.5,-184.5 107.5,-127.5 63.5,-127.5"/>
<text text-anchor="middle" x="85.5" y="-172.5" font-family="Helvetica,sans-Serif" font-size="10.00">_Bool</text>
<polyline fill="none" stroke="#666666" points="63.5,-165.5 107.5,-165.5 "/>
<text text-anchor="middle" x="85.5" y="-153.5" font-family="Helvetica,sans-Serif" font-size="10.00"> </text>
<polyline fill="none" stroke="#666666" points="63.5,-146.5 107.5,-146.5 "/>
<text text-anchor="middle" x="85.5" y="-134.5" font-family="Helvetica,sans-Serif" font-size="10.00"> </text>
</a>
</g>
</g>
<!-- Node3&#45;&gt;Node1 -->
<g id="edge2" class="edge">
<title>Node3&#45;&gt;Node1</title>
<path fill="none" stroke="#404040" d="M81.36,-127.47C80.1,-111.89 80.4,-92.32 86.5,-76 87.52,-73.27 88.78,-70.59 90.22,-67.98"/>
<polygon fill="none" stroke="#404040" points="90.37,-67.75 90.31,-60.54 96.94,-57.71 97,-64.92 90.37,-67.75"/>
<text text-anchor="middle" x="115.5" y="-90" font-family="Helvetica,sans-Serif" font-size="10.00"> +isOpened</text>
</g>
<!-- Node4 -->
<g id="node4" class="node">
<title>Node4</title>
<g id="a_node4"><a xlink:title=" ">
<polygon fill="white" stroke="#666666" points="147.5,-127.5 147.5,-184.5 185.5,-184.5 185.5,-127.5 147.5,-127.5"/>
<text text-anchor="middle" x="166.5" y="-172.5" font-family="Helvetica,sans-Serif" font-size="10.00">char</text>
<polyline fill="none" stroke="#666666" points="147.5,-165.5 185.5,-165.5 "/>
<text text-anchor="middle" x="166.5" y="-153.5" font-family="Helvetica,sans-Serif" font-size="10.00"> </text>
<polyline fill="none" stroke="#666666" points="147.5,-146.5 185.5,-146.5 "/>
<text text-anchor="middle" x="166.5" y="-134.5" font-family="Helvetica,sans-Serif" font-size="10.00"> </text>
</a>
</g>
</g>
<!-- Node4&#45;&gt;Node1 -->
<g id="edge3" class="edge">
<title>Node4&#45;&gt;Node1</title>
<path fill="none" stroke="#404040" d="M159.67,-127.33C155.68,-112.06 150.29,-92.83 144.5,-76 143.69,-73.64 142.81,-71.22 141.91,-68.8"/>
<polygon fill="none" stroke="#404040" points="141.87,-68.7 135.96,-64.57 137.5,-57.52 143.41,-61.65 141.87,-68.7"/>
<text text-anchor="middle" x="183.5" y="-101" font-family="Helvetica,sans-Serif" font-size="10.00"> +extension</text>
<text text-anchor="middle" x="183.5" y="-90" font-family="Helvetica,sans-Serif" font-size="10.00">+name</text>
<text text-anchor="middle" x="183.5" y="-79" font-family="Helvetica,sans-Serif" font-size="10.00">+path</text>
</g>
<!-- Node5 -->
<g id="node5" class="node">
<title>Node5</title>
<g id="a_node5"><a xlink:title=" ">
<polygon fill="white" stroke="#666666" points="203.5,-127.5 203.5,-184.5 339.5,-184.5 339.5,-127.5 203.5,-127.5"/>
<text text-anchor="middle" x="271.5" y="-172.5" font-family="Helvetica,sans-Serif" font-size="10.00">enum FManC_Encodings</text>
<polyline fill="none" stroke="#666666" points="203.5,-165.5 339.5,-165.5 "/>
<text text-anchor="middle" x="271.5" y="-153.5" font-family="Helvetica,sans-Serif" font-size="10.00"> </text>
<polyline fill="none" stroke="#666666" points="203.5,-146.5 339.5,-146.5 "/>
<text text-anchor="middle" x="271.5" y="-134.5" font-family="Helvetica,sans-Serif" font-size="10.00"> </text>
</a>
</g>
</g>
<!-- Node5&#45;&gt;Node1 -->
<g id="edge4" class="edge">
<title>Node5&#45;&gt;Node1</title>
<path fill="none" stroke="#404040" d="M257.4,-127.5C247.86,-110.97 234.02,-90.42 217.5,-76 204.63,-64.77 188.54,-55.52 173.43,-48.32"/>
<polygon fill="none" stroke="#404040" points="173.07,-48.16 165.96,-49.34 162.14,-43.23 169.25,-42.05 173.07,-48.16"/>
<text text-anchor="middle" x="272.5" y="-90" font-family="Helvetica,sans-Serif" font-size="10.00"> +encoding</text>
</g>
</g>
</svg>
