<?xml version="1.0" encoding="UTF-8" standalone="no"?>
<!DOCTYPE svg PUBLIC "-//W3C//DTD SVG 1.1//EN"
 "http://www.w3.org/Graphics/SVG/1.1/DTD/svg11.dtd">
<!-- Generated by graphviz version 2.43.0 (0)
 -->
<!-- Title: FManC_File Pages: 1 -->
<svg width="364pt" height="204pt"
 viewBox="0.00 0.00 363.50 204.00" xmlns="http://www.w3.org/2000/svg" xmlns:xlink="http://www.w3.org/1999/xlink">
<g id="graph0" class="graph" transform="scale(1 1) rotate(0) translate(4 200)">
<title>FManC_File</title>
<!-- Node1 -->
<g id="node1" class="node">
<title>Node1</title>
<g id="a_node1"><a xlink:title=" ">
<polygon fill="#999999" stroke="#666666" points="89,-0.5 89,-57.5 162,-57.5 162,-0.5 89,-0.5"/>
<text text-anchor="middle" x="125.5" y="-45.5" font-family="Helvetica,sans-Serif" font-size="10.00">FManC_File</text>
<polyline fill="none" stroke="#666666" points="89,-38.5 162,-38.5 "/>
<text text-anchor="middle" x="125.5" y="-26.5" font-family="Helvetica,sans-Serif" font-size="10.00"> </text>
<polyline fill="none" stroke="#666666" points="89,-19.5 162,-19.5 "/>
<text text-anchor="middle" x="125.5" y="-7.5" font-family="Helvetica,sans-Serif" font-size="10.00"> </text>
</a>
</g>
</g>
<!-- Node2 -->
<g id="node2" class="node">
<title>Node2</title>
<g id="a_node2"><a xlink:title=" ">
<polygon fill="white" stroke="#666666" points="0,-133 0,-190 45,-190 45,-133 0,-133"/>
<text text-anchor="middle" x="22.5" y="-178" font-family="Helvetica,sans-Serif" font-size="10.00">FILE *</text>
<polyline fill="none" stroke="#666666" points="0,-171 45,-171 "/>
<text text-anchor="middle" x="22.5" y="-159" font-family="Helvetica,sans-Serif" font-size="10.00"> </text>
<polyline fill="none" stroke="#666666" points="0,-152 45,-152 "/>
<text text-anchor="middle" x="22.5" y="-140" font-family="Helvetica,sans-Serif" font-size="10.00"> </text>
</a>
</g>
</g>
<!-- Node2&#45;&gt;Node1 -->
<g id="edge1" class="edge">
<title>Node2&#45;&gt;Node1</title>
<path fill="none" stroke="#404040" d="M26.26,-132.65C29.82,-114.93 36.62,-92.32 49.5,-76 57.17,-66.28 67.49,-58.14 78.06,-51.53"/>
<polygon fill="none" stroke="#404040" points="78.23,-51.44 81.42,-44.98 88.62,-45.44 85.42,-51.9 78.23,-51.44"/>
<text text-anchor="middle" x="63" y="-90" font-family="Helvetica,sans-Serif" font-size="10.00"> +file</text>
</g>
<!-- Node3 -->
<g id="node3" class="node">
<title>Node3</title>
<g id="a_node3"><a xlink:title=" ">
<polygon fill="white" stroke="#666666" points="63.5,-133 63.5,-190 107.5,-190 107.5,-133 63.5,-133"/>
<text text-anchor="middle" x="85.5" y="-178" font-family="Helvetica,sans-Serif" font-size="10.00">_Bool</text>
<polyline fill="none" stroke="#666666" points="63.5,-171 107.5,-171 "/>
<text text-anchor="middle" x="85.5" y="-159" font-family="Helvetica,sans-Serif" font-size="10.00"> </text>
<polyline fill="none" stroke="#666666" points="63.5,-152 107.5,-152 "/>
<text text-anchor="middle" x="85.5" y="-140" font-family="Helvetica,sans-Serif" font-size="10.00"> </text>
</a>
</g>
</g>
<!-- Node3&#45;&gt;Node1 -->
<g id="edge2" class="edge">
<title>Node3&#45;&gt;Node1</title>
<path fill="none" stroke="#404040" d="M81.21,-133C79.67,-116.04 79.72,-94.14 86.5,-76 87.52,-73.27 88.78,-70.59 90.21,-67.98"/>
<polygon fill="none" stroke="#404040" points="90.37,-67.75 90.3,-60.54 96.94,-57.71 97,-64.92 90.37,-67.75"/>
<text text-anchor="middle" x="115.5" y="-90" font-family="Helvetica,sans-Serif" font-size="10.00"> +isOpened</text>
</g>
<!-- Node4 -->
<g id="node4" class="node">
<title>Node4</title>
<g id="a_node4"><a xlink:title=" ">
<polygon fill="white" stroke="#666666" points="147.5,-133 147.5,-190 185.5,-190 185.5,-133 147.5,-133"/>
<text text-anchor="middle" x="166.5" y="-178" font-family="Helvetica,sans-Serif" font-size="10.00">char</text>
<polyline fill="none" stroke="#666666" points="147.5,-171 185.5,-171 "/>
<text text-anchor="middle" x="166.5" y="-159" font-family="Helvetica,sans-Serif" font-size="10.00"> </text>
<polyline fill="none" stroke="#666666" points="147.5,-152 185.5,-152 "/>
<text text-anchor="middle" x="166.5" y="-140" font-family="Helvetica,sans-Serif" font-size="10.00"> </text>
</a>
</g>
</g>
<!-- Node4&#45;&gt;Node1 -->
<g id="edge3" class="edge">
<title>Node4&#45;&gt;Node1</title>
<path fill="none" stroke="#404040" d="M160.31,-132.82C156.33,-116.18 150.76,-94.69 144.5,-76 143.76,-73.79 142.96,-71.53 142.13,-69.26"/>
<polygon fill="none" stroke="#404040" points="142.1,-69.18 136.21,-65.03 137.77,-57.99 143.67,-62.14 142.1,-69.18"/>
<text text-anchor="middle" x="183.5" y="-101" font-family="Helvetica,sans-Serif" font-size="10.00"> +extension</text>
<text text-anchor="middle" x="183.5" y="-90" font-family="Helvetica,sans-Serif" font-size="10.00">+name</text>
<text text-anchor="middle" x="183.5" y="-79" font-family="Helvetica,sans-Serif" font-size="10.00">+path</text>
</g>
<!-- Node5 -->
<g id="node5" class="node">
<title>Node5</title>
<g id="a_node5"><a xlink:title=" ">
<polygon fill="white" stroke="#666666" points="203.5,-127.5 203.5,-195.5 355.5,-195.5 355.5,-127.5 203.5,-127.5"/>
<text text-anchor="start" x="211.5" y="-183.5" font-family="Helvetica,sans-Serif" font-size="10.00">typedefFMC_SHARED enum</text>
<text text-anchor="middle" x="279.5" y="-172.5" font-family="Helvetica,sans-Serif" font-size="10.00"> FManC_Encodings</text>
<polyline fill="none" stroke="#666666" points="203.5,-165.5 355.5,-165.5 "/>
<text text-anchor="middle" x="279.5" y="-153.5" font-family="Helvetica,sans-Serif" font-size="10.00"> </text>
<polyline fill="none" stroke="#666666" points="203.5,-146.5 355.5,-146.5 "/>
<text text-anchor="middle" x="279.5" y="-134.5" font-family="Helvetica,sans-Serif" font-size="10.00"> </text>
</a>
</g>
</g>
<!-- Node5&#45;&gt;Node1 -->
<g id="edge4" class="edge">
<title>Node5&#45;&gt;Node1</title>
<path fill="none" stroke="#404040" d="M260.54,-127.46C249.59,-110.5 234.61,-90.43 217.5,-76 204.56,-65.08 188.58,-55.94 173.59,-48.76"/>
<polygon fill="none" stroke="#404040" points="173.31,-48.63 166.19,-49.78 162.39,-43.65 169.51,-42.5 173.31,-48.63"/>
<text text-anchor="middle" x="274.5" y="-90" font-family="Helvetica,sans-Serif" font-size="10.00"> +encoding</text>
</g>
</g>
</svg>
