<?xml version="1.0" encoding="UTF-8" standalone="no"?>
<!DOCTYPE svg PUBLIC "-//W3C//DTD SVG 1.1//EN"
 "http://www.w3.org/Graphics/SVG/1.1/DTD/svg11.dtd">
<!-- Generated by graphviz version 7.1.0 (20230121.1956)
 -->
<!-- Title: src Pages: 1 -->
<svg width="452pt" height="397pt"
 viewBox="0.00 0.00 452.00 397.00" xmlns="http://www.w3.org/2000/svg" xmlns:xlink="http://www.w3.org/1999/xlink">
<g id="graph0" class="graph" transform="scale(1 1) rotate(0) translate(4 393)">
<title>src</title>
<g id="clust1" class="cluster">
<title>clusterdir_68267d1309a1af8e8297ef4c3efbcdba</title>
<g id="a_clust1"><a xlink:href="dir_68267d1309a1af8e8297ef4c3efbcdba.html" target="_top">
<polygon fill="#ededf7" stroke="#404040" stroke-width="2" points="8,-8 8,-381 436,-381 436,-8 8,-8"/>
</a>
</g>
</g>
<g id="clust2" class="cluster">
<title>clusterdir_dfdbda394c3f7a3aa55229f33a559c41</title>
<g id="a_clust2"><a xlink:href="dir_dfdbda394c3f7a3aa55229f33a559c41.html" target="_top">
<polygon fill="#e6e6f4" stroke="#404040" points="16,-291 16,-326 136,-326 136,-291 16,-291"/>
</a>
</g>
</g>
<g id="clust3" class="cluster">
<title>clusterdir_c1a212d0c0bddfcb10e4961fdd534e6f</title>
<g id="a_clust3"><a xlink:href="dir_c1a212d0c0bddfcb10e4961fdd534e6f.html" target="_top">
<polygon fill="#e6e6f4" stroke="#404040" points="144,-236 144,-326 286,-326 286,-236 144,-236"/>
</a>
</g>
</g>
<g id="clust4" class="cluster">
<title>clusterdir_0ef45b72fea5c9869a86802e135ecac6</title>
<g id="a_clust4"><a xlink:href="dir_0ef45b72fea5c9869a86802e135ecac6.html" target="_top">
<polygon fill="#e6e6f4" stroke="#404040" points="229,-16 229,-216 327,-216 327,-16 229,-16"/>
</a>
</g>
</g>
<!-- dir_68267d1309a1af8e8297ef4c3efbcdba -->
<g id="node1" class="node">
<title>dir_68267d1309a1af8e8297ef4c3efbcdba</title>
<text text-anchor="middle" x="311" y="-361" font-family="Helvetica,sans-Serif" font-size="10.00">src</text>
</g>
<!-- dir_1a4c3eba48dd221f0ca8224765442bb6 -->
<g id="node2" class="node">
<title>dir_1a4c3eba48dd221f0ca8224765442bb6</title>
<g id="a_node2"><a xlink:href="dir_1a4c3eba48dd221f0ca8224765442bb6.html" target="_top" xlink:title="code_utils">
<polygon fill="#e6e6f4" stroke="#404040" points="427.5,-318 366.5,-318 366.5,-299 427.5,-299 427.5,-318"/>
<text text-anchor="middle" x="397" y="-306" font-family="Helvetica,sans-Serif" font-size="10.00">code_utils</text>
</a>
</g>
</g>
<!-- dir_68267d1309a1af8e8297ef4c3efbcdba&#45;&gt;dir_1a4c3eba48dd221f0ca8224765442bb6 -->
<g id="edge2" class="edge">
<title>dir_68267d1309a1af8e8297ef4c3efbcdba&#45;&gt;dir_1a4c3eba48dd221f0ca8224765442bb6</title>
<path fill="none" stroke="#63b8ff" d="M324.44,-354.22C337.38,-346.24 357.25,-334 372.93,-324.34"/>
<polygon fill="#63b8ff" stroke="#63b8ff" points="374.54,-327.45 381.22,-319.22 370.87,-321.49 374.54,-327.45"/>
<g id="a_edge2&#45;headlabel"><a xlink:href="dir_000010_000000.html" target="_top" xlink:title="1">
<text text-anchor="middle" x="374.26" y="-328.46" font-family="Helvetica,sans-Serif" font-size="10.00" fill="#63b8ff">1</text>
</a>
</g>
</g>
<!-- dir_dfdbda394c3f7a3aa55229f33a559c41 -->
<g id="node3" class="node">
<title>dir_dfdbda394c3f7a3aa55229f33a559c41</title>
<text text-anchor="middle" x="112" y="-306" font-family="Helvetica,sans-Serif" font-size="10.00">cpp</text>
</g>
<!-- dir_68267d1309a1af8e8297ef4c3efbcdba&#45;&gt;dir_dfdbda394c3f7a3aa55229f33a559c41 -->
<g id="edge5" class="edge">
<title>dir_68267d1309a1af8e8297ef4c3efbcdba&#45;&gt;dir_dfdbda394c3f7a3aa55229f33a559c41</title>
<path fill="none" stroke="#63b8ff" d="M296.36,-360.98C266.23,-357.52 195.44,-347.59 140,-326 138.16,-325.28 136.29,-324.45 134.45,-323.55"/>
<polygon fill="#63b8ff" stroke="#63b8ff" points="136.15,-320.49 125.71,-318.7 132.75,-326.61 136.15,-320.49"/>
<g id="a_edge5&#45;headlabel"><a xlink:href="dir_000010_000001.html" target="_top" xlink:title="1">
<text text-anchor="middle" x="139.35" y="-316.52" font-family="Helvetica,sans-Serif" font-size="10.00" fill="#63b8ff">1</text>
</a>
</g>
</g>
<!-- dir_c1a212d0c0bddfcb10e4961fdd534e6f -->
<g id="node5" class="node">
<title>dir_c1a212d0c0bddfcb10e4961fdd534e6f</title>
<text text-anchor="middle" x="239" y="-306" font-family="Helvetica,sans-Serif" font-size="10.00">data_analyze</text>
</g>
<!-- dir_68267d1309a1af8e8297ef4c3efbcdba&#45;&gt;dir_c1a212d0c0bddfcb10e4961fdd534e6f -->
<g id="edge4" class="edge">
<title>dir_68267d1309a1af8e8297ef4c3efbcdba&#45;&gt;dir_c1a212d0c0bddfcb10e4961fdd534e6f</title>
<path fill="none" stroke="#63b8ff" d="M299.75,-354.22C289.03,-346.33 272.65,-334.27 259.59,-324.66"/>
<polygon fill="#63b8ff" stroke="#63b8ff" points="261.76,-321.9 251.63,-318.8 257.61,-327.54 261.76,-321.9"/>
<g id="a_edge4&#45;headlabel"><a xlink:href="dir_000010_000002.html" target="_top" xlink:title="3">
<text text-anchor="middle" x="265.11" y="-318.35" font-family="Helvetica,sans-Serif" font-size="10.00" fill="#63b8ff">3</text>
</a>
</g>
</g>
<!-- dir_251697ed71d3107a084c4be76de6bea7 -->
<g id="node8" class="node">
<title>dir_251697ed71d3107a084c4be76de6bea7</title>
<g id="a_node8"><a xlink:href="dir_251697ed71d3107a084c4be76de6bea7.html" target="_top" xlink:title="files">
<polygon fill="#e6e6f4" stroke="#404040" points="328,-318 294,-318 294,-299 328,-299 328,-318"/>
<text text-anchor="middle" x="311" y="-306" font-family="Helvetica,sans-Serif" font-size="10.00">files</text>
</a>
</g>
</g>
<!-- dir_68267d1309a1af8e8297ef4c3efbcdba&#45;&gt;dir_251697ed71d3107a084c4be76de6bea7 -->
<g id="edge3" class="edge">
<title>dir_68267d1309a1af8e8297ef4c3efbcdba&#45;&gt;dir_251697ed71d3107a084c4be76de6bea7</title>
<path fill="none" stroke="#63b8ff" d="M311,-354.22C311,-347.65 311,-338.18 311,-329.64"/>
<polygon fill="#63b8ff" stroke="#63b8ff" points="314.5,-329.77 311,-319.77 307.5,-329.77 314.5,-329.77"/>
<g id="a_edge3&#45;headlabel"><a xlink:href="dir_000010_000006.html" target="_top" xlink:title="1">
<text text-anchor="middle" x="317.34" y="-329.35" font-family="Helvetica,sans-Serif" font-size="10.00" fill="#63b8ff">1</text>
</a>
</g>
</g>
<!-- dir_0ef45b72fea5c9869a86802e135ecac6 -->
<g id="node9" class="node">
<title>dir_0ef45b72fea5c9869a86802e135ecac6</title>
<text text-anchor="middle" x="279" y="-196" font-family="Helvetica,sans-Serif" font-size="10.00">general</text>
</g>
<!-- dir_68267d1309a1af8e8297ef4c3efbcdba&#45;&gt;dir_0ef45b72fea5c9869a86802e135ecac6 -->
<g id="edge1" class="edge">
<title>dir_68267d1309a1af8e8297ef4c3efbcdba&#45;&gt;dir_0ef45b72fea5c9869a86802e135ecac6</title>
<path fill="none" stroke="#63b8ff" d="M319.36,-354.07C325.57,-347.17 333.54,-336.82 337,-326 341.74,-311.18 341.34,-305.94 337,-291 328.6,-262.04 307.97,-233.47 293.73,-216.16"/>
<polygon fill="#63b8ff" stroke="#63b8ff" points="296.72,-214.27 287.57,-208.92 291.39,-218.8 296.72,-214.27"/>
<g id="a_edge1&#45;headlabel"><a xlink:href="dir_000010_000008.html" target="_top" xlink:title="26">
<text text-anchor="middle" x="300.23" y="-211.51" font-family="Helvetica,sans-Serif" font-size="10.00" fill="#63b8ff">26</text>
</a>
</g>
</g>
<!-- dir_1a4c3eba48dd221f0ca8224765442bb6&#45;&gt;dir_0ef45b72fea5c9869a86802e135ecac6 -->
<g id="edge6" class="edge">
<title>dir_1a4c3eba48dd221f0ca8224765442bb6&#45;&gt;dir_0ef45b72fea5c9869a86802e135ecac6</title>
<path fill="none" stroke="#63b8ff" d="M393.49,-298.97C387.12,-284.4 372.43,-254.52 352,-236 340.85,-225.89 326.38,-217.88 313.26,-211.98"/>
<polygon fill="#63b8ff" stroke="#63b8ff" points="314.64,-208.76 304.07,-208.1 311.92,-215.21 314.64,-208.76"/>
<g id="a_edge6&#45;headlabel"><a xlink:href="dir_000000_000008.html" target="_top" xlink:title="1">
<text text-anchor="middle" x="317.66" y="-204.45" font-family="Helvetica,sans-Serif" font-size="10.00" fill="#63b8ff">1</text>
</a>
</g>
</g>
<!-- dir_2f601d846e8e89e376af36b1a1fc90a5 -->
<g id="node10" class="node">
<title>dir_2f601d846e8e89e376af36b1a1fc90a5</title>
<g id="a_node10"><a xlink:href="dir_2f601d846e8e89e376af36b1a1fc90a5.html" target="_top" xlink:title="preprocessor">
<polygon fill="#dfdff1" stroke="#404040" points="312.5,-43 239.5,-43 239.5,-24 312.5,-24 312.5,-43"/>
<text text-anchor="middle" x="276" y="-31" font-family="Helvetica,sans-Serif" font-size="10.00">preprocessor</text>
</a>
</g>
</g>
<!-- dir_dfdbda394c3f7a3aa55229f33a559c41&#45;&gt;dir_2f601d846e8e89e376af36b1a1fc90a5 -->
<g id="edge7" class="edge">
<title>dir_dfdbda394c3f7a3aa55229f33a559c41&#45;&gt;dir_2f601d846e8e89e376af36b1a1fc90a5</title>
<path fill="none" stroke="#63b8ff" d="M113.31,-299.12C116.02,-281 122,-236.78 122,-199.5 122,-199.5 122,-199.5 122,-142.5 122,-89.86 183.07,-60.69 228.29,-46.3"/>
<polygon fill="#63b8ff" stroke="#63b8ff" points="229.1,-49.72 237.66,-43.48 227.08,-43.01 229.1,-49.72"/>
<g id="a_edge7&#45;headlabel"><a xlink:href="dir_000001_000009.html" target="_top" xlink:title="1">
<text text-anchor="middle" x="227.93" y="-50.53" font-family="Helvetica,sans-Serif" font-size="10.00" fill="#63b8ff">1</text>
</a>
</g>
</g>
<!-- dir_5750ed1ae22948c14f9a6055985347e9 -->
<g id="node4" class="node">
<title>dir_5750ed1ae22948c14f9a6055985347e9</title>
<g id="a_node4"><a xlink:href="dir_5750ed1ae22948c14f9a6055985347e9.html" target="_top" xlink:title="FMC_dir">
<polygon fill="#dfdff1" stroke="#404040" points="77.5,-318 24.5,-318 24.5,-299 77.5,-299 77.5,-318"/>
<text text-anchor="middle" x="51" y="-306" font-family="Helvetica,sans-Serif" font-size="10.00">FMC_dir</text>
</a>
</g>
</g>
<!-- dir_ca56c180fed0fc7bbd2d0f8f23b95c0a -->
<g id="node6" class="node">
<title>dir_ca56c180fed0fc7bbd2d0f8f23b95c0a</title>
<g id="a_node6"><a xlink:href="dir_ca56c180fed0fc7bbd2d0f8f23b95c0a.html" target="_top" xlink:title="encodings">
<polygon fill="#dfdff1" stroke="#404040" points="213.5,-263 152.5,-263 152.5,-244 213.5,-244 213.5,-263"/>
<text text-anchor="middle" x="183" y="-251" font-family="Helvetica,sans-Serif" font-size="10.00">encodings</text>
</a>
</g>
</g>
<!-- dir_c1a212d0c0bddfcb10e4961fdd534e6f&#45;&gt;dir_ca56c180fed0fc7bbd2d0f8f23b95c0a -->
<g id="edge8" class="edge">
<title>dir_c1a212d0c0bddfcb10e4961fdd534e6f&#45;&gt;dir_ca56c180fed0fc7bbd2d0f8f23b95c0a</title>
<path fill="none" stroke="#63b8ff" d="M230.25,-299.22C222.34,-291.73 210.45,-280.48 200.57,-271.13"/>
<polygon fill="#63b8ff" stroke="#63b8ff" points="203.02,-268.62 193.35,-264.29 198.2,-273.71 203.02,-268.62"/>
<g id="a_edge8&#45;headlabel"><a xlink:href="dir_000002_000005.html" target="_top" xlink:title="1">
<text text-anchor="middle" x="206.48" y="-265.49" font-family="Helvetica,sans-Serif" font-size="10.00" fill="#63b8ff">1</text>
</a>
</g>
</g>
<!-- dir_cf8f0c2fafaf5855337ba759d356abe1 -->
<g id="node7" class="node">
<title>dir_cf8f0c2fafaf5855337ba759d356abe1</title>
<g id="a_node7"><a xlink:href="dir_cf8f0c2fafaf5855337ba759d356abe1.html" target="_top" xlink:title="strings">
<polygon fill="#dfdff1" stroke="#404040" points="278,-263 232,-263 232,-244 278,-244 278,-263"/>
<text text-anchor="middle" x="255" y="-251" font-family="Helvetica,sans-Serif" font-size="10.00">strings</text>
</a>
</g>
</g>
<!-- dir_c1a212d0c0bddfcb10e4961fdd534e6f&#45;&gt;dir_cf8f0c2fafaf5855337ba759d356abe1 -->
<g id="edge9" class="edge">
<title>dir_c1a212d0c0bddfcb10e4961fdd534e6f&#45;&gt;dir_cf8f0c2fafaf5855337ba759d356abe1</title>
<path fill="none" stroke="#63b8ff" d="M241.5,-299.22C243.53,-292.49 246.48,-282.73 249.1,-274.05"/>
<polygon fill="#63b8ff" stroke="#63b8ff" points="252.38,-275.29 251.92,-264.7 245.68,-273.26 252.38,-275.29"/>
<g id="a_edge9&#45;headlabel"><a xlink:href="dir_000002_000011.html" target="_top" xlink:title="1">
<text text-anchor="middle" x="254.5" y="-275.6" font-family="Helvetica,sans-Serif" font-size="10.00" fill="#63b8ff">1</text>
</a>
</g>
</g>
<!-- dir_ca56c180fed0fc7bbd2d0f8f23b95c0a&#45;&gt;dir_0ef45b72fea5c9869a86802e135ecac6 -->
<g id="edge10" class="edge">
<title>dir_ca56c180fed0fc7bbd2d0f8f23b95c0a&#45;&gt;dir_0ef45b72fea5c9869a86802e135ecac6</title>
<path fill="none" stroke="#63b8ff" d="M199.29,-243.51C214.26,-235.24 236.68,-222.86 253.94,-213.34"/>
<polygon fill="#63b8ff" stroke="#63b8ff" points="255.51,-216.46 262.58,-208.57 252.13,-210.34 255.51,-216.46"/>
<g id="a_edge10&#45;headlabel"><a xlink:href="dir_000005_000008.html" target="_top" xlink:title="1">
<text text-anchor="middle" x="255.07" y="-217.46" font-family="Helvetica,sans-Serif" font-size="10.00" fill="#63b8ff">1</text>
</a>
</g>
</g>
<!-- dir_cf8f0c2fafaf5855337ba759d356abe1&#45;&gt;dir_0ef45b72fea5c9869a86802e135ecac6 -->
<g id="edge11" class="edge">
<title>dir_cf8f0c2fafaf5855337ba759d356abe1&#45;&gt;dir_0ef45b72fea5c9869a86802e135ecac6</title>
<path fill="none" stroke="#63b8ff" d="M258.96,-243.75C262.11,-236.8 266.62,-226.83 270.57,-218.12"/>
<polygon fill="#63b8ff" stroke="#63b8ff" points="273.71,-219.67 274.64,-209.12 267.33,-216.79 273.71,-219.67"/>
<g id="a_edge11&#45;headlabel"><a xlink:href="dir_000011_000008.html" target="_top" xlink:title="1">
<text text-anchor="middle" x="275.44" y="-220.24" font-family="Helvetica,sans-Serif" font-size="10.00" fill="#63b8ff">1</text>
</a>
</g>
</g>
<!-- dir_251697ed71d3107a084c4be76de6bea7&#45;&gt;dir_0ef45b72fea5c9869a86802e135ecac6 -->
<g id="edge12" class="edge">
<title>dir_251697ed71d3107a084c4be76de6bea7&#45;&gt;dir_0ef45b72fea5c9869a86802e135ecac6</title>
<path fill="none" stroke="#63b8ff" d="M308.43,-298.69C304.5,-285.19 296.71,-258.57 290,-236 288.34,-230.43 286.53,-224.38 284.86,-218.84"/>
<polygon fill="#63b8ff" stroke="#63b8ff" points="288.23,-217.91 281.99,-209.35 281.53,-219.94 288.23,-217.91"/>
<g id="a_edge12&#45;headlabel"><a xlink:href="dir_000006_000008.html" target="_top" xlink:title="1">
<text text-anchor="middle" x="291.55" y="-216.58" font-family="Helvetica,sans-Serif" font-size="10.00" fill="#63b8ff">1</text>
</a>
</g>
</g>
<!-- dir_0ef45b72fea5c9869a86802e135ecac6&#45;&gt;dir_2f601d846e8e89e376af36b1a1fc90a5 -->
<g id="edge13" class="edge">
<title>dir_0ef45b72fea5c9869a86802e135ecac6&#45;&gt;dir_2f601d846e8e89e376af36b1a1fc90a5</title>
<path fill="none" stroke="#63b8ff" d="M273.85,-189.13C262.56,-169.7 237.51,-120.08 249,-79 251.61,-69.67 256.77,-60.34 261.89,-52.66"/>
<polygon fill="#63b8ff" stroke="#63b8ff" points="264.71,-54.74 267.71,-44.58 259.03,-50.65 264.71,-54.74"/>
<g id="a_edge13&#45;headlabel"><a xlink:href="dir_000008_000009.html" target="_top" xlink:title="13">
<text text-anchor="middle" x="265.79" y="-55.59" font-family="Helvetica,sans-Serif" font-size="10.00" fill="#63b8ff">13</text>
</a>
</g>
</g>
<!-- dir_b54a0349da47a31968b20ffcc6408a68 -->
<g id="node11" class="node">
<title>dir_b54a0349da47a31968b20ffcc6408a68</title>
<g id="a_node11"><a xlink:href="dir_b54a0349da47a31968b20ffcc6408a68.html" target="_top" xlink:title="types">
<polygon fill="#dfdff1" stroke="#404040" points="298.5,-98 257.5,-98 257.5,-79 298.5,-79 298.5,-98"/>
<text text-anchor="middle" x="278" y="-86" font-family="Helvetica,sans-Serif" font-size="10.00">types</text>
</a>
</g>
</g>
<!-- dir_0ef45b72fea5c9869a86802e135ecac6&#45;&gt;dir_b54a0349da47a31968b20ffcc6408a68 -->
<g id="edge15" class="edge">
<title>dir_0ef45b72fea5c9869a86802e135ecac6&#45;&gt;dir_b54a0349da47a31968b20ffcc6408a68</title>
<path fill="none" stroke="#63b8ff" d="M278.04,-189.31C277.05,-180.4 275.57,-165.71 275,-153 274.35,-138.43 275.17,-121.99 276.11,-109.49"/>
<polygon fill="#63b8ff" stroke="#63b8ff" points="279.59,-109.9 276.96,-99.63 272.62,-109.3 279.59,-109.9"/>
<g id="a_edge15&#45;headlabel"><a xlink:href="dir_000008_000012.html" target="_top" xlink:title="4">
<text text-anchor="middle" x="282.24" y="-109.71" font-family="Helvetica,sans-Serif" font-size="10.00" fill="#63b8ff">4</text>
</a>
</g>
</g>
<!-- dir_70a81ec388f1d1f75a6a48d933a79dd6 -->
<g id="node12" class="node">
<title>dir_70a81ec388f1d1f75a6a48d933a79dd6</title>
<g id="a_node12"><a xlink:href="dir_70a81ec388f1d1f75a6a48d933a79dd6.html" target="_top" xlink:title="utils">
<polygon fill="#dfdff1" stroke="#404040" points="318.5,-153 283.5,-153 283.5,-134 318.5,-134 318.5,-153"/>
<text text-anchor="middle" x="301" y="-141" font-family="Helvetica,sans-Serif" font-size="10.00">utils</text>
</a>
</g>
</g>
<!-- dir_0ef45b72fea5c9869a86802e135ecac6&#45;&gt;dir_70a81ec388f1d1f75a6a48d933a79dd6 -->
<g id="edge14" class="edge">
<title>dir_0ef45b72fea5c9869a86802e135ecac6&#45;&gt;dir_70a81ec388f1d1f75a6a48d933a79dd6</title>
<path fill="none" stroke="#63b8ff" d="M282.44,-189.22C285.26,-182.42 289.37,-172.51 293.01,-163.75"/>
<polygon fill="#63b8ff" stroke="#63b8ff" points="296.19,-165.23 296.79,-154.65 289.72,-162.54 296.19,-165.23"/>
<g id="a_edge14&#45;headlabel"><a xlink:href="dir_000008_000013.html" target="_top" xlink:title="3">
<text text-anchor="middle" x="298.01" y="-165.74" font-family="Helvetica,sans-Serif" font-size="10.00" fill="#63b8ff">3</text>
</a>
</g>
</g>
<!-- dir_b54a0349da47a31968b20ffcc6408a68&#45;&gt;dir_2f601d846e8e89e376af36b1a1fc90a5 -->
<g id="edge16" class="edge">
<title>dir_b54a0349da47a31968b20ffcc6408a68&#45;&gt;dir_2f601d846e8e89e376af36b1a1fc90a5</title>
<path fill="none" stroke="#63b8ff" d="M277.67,-78.75C277.43,-72.27 277.08,-63.16 276.77,-54.9"/>
<polygon fill="#63b8ff" stroke="#63b8ff" points="280.27,-54.82 276.39,-44.95 273.27,-55.08 280.27,-54.82"/>
<g id="a_edge16&#45;headlabel"><a xlink:href="dir_000012_000009.html" target="_top" xlink:title="4">
<text text-anchor="middle" x="283.18" y="-54.29" font-family="Helvetica,sans-Serif" font-size="10.00" fill="#63b8ff">4</text>
</a>
</g>
</g>
<!-- dir_70a81ec388f1d1f75a6a48d933a79dd6&#45;&gt;dir_2f601d846e8e89e376af36b1a1fc90a5 -->
<g id="edge17" class="edge">
<title>dir_70a81ec388f1d1f75a6a48d933a79dd6&#45;&gt;dir_2f601d846e8e89e376af36b1a1fc90a5</title>
<path fill="none" stroke="#63b8ff" d="M304.24,-133.64C308.31,-121.15 314.05,-97.79 308,-79 304.84,-69.19 298.63,-59.72 292.51,-52.05"/>
<polygon fill="#63b8ff" stroke="#63b8ff" points="295.23,-49.84 286.04,-44.57 289.93,-54.42 295.23,-49.84"/>
<g id="a_edge17&#45;headlabel"><a xlink:href="dir_000013_000009.html" target="_top" xlink:title="5">
<text text-anchor="middle" x="298.74" y="-47.06" font-family="Helvetica,sans-Serif" font-size="10.00" fill="#63b8ff">5</text>
</a>
</g>
</g>
<!-- dir_70a81ec388f1d1f75a6a48d933a79dd6&#45;&gt;dir_b54a0349da47a31968b20ffcc6408a68 -->
<g id="edge18" class="edge">
<title>dir_70a81ec388f1d1f75a6a48d933a79dd6&#45;&gt;dir_b54a0349da47a31968b20ffcc6408a68</title>
<path fill="none" stroke="#63b8ff" d="M297.2,-133.75C294.26,-126.96 290.06,-117.3 286.35,-108.73"/>
<polygon fill="#63b8ff" stroke="#63b8ff" points="289.67,-107.61 282.48,-99.83 283.25,-110.4 289.67,-107.61"/>
<g id="a_edge18&#45;headlabel"><a xlink:href="dir_000013_000012.html" target="_top" xlink:title="1">
<text text-anchor="middle" x="293.11" y="-105.89" font-family="Helvetica,sans-Serif" font-size="10.00" fill="#63b8ff">1</text>
</a>
</g>
</g>
</g>
</svg>
