<?xml version="1.0" encoding="UTF-8" standalone="no"?>
<!DOCTYPE svg PUBLIC "-//W3C//DTD SVG 1.1//EN"
 "http://www.w3.org/Graphics/SVG/1.1/DTD/svg11.dtd">
<!-- Generated by graphviz version 7.1.0 (20230121.1956)
 -->
<!-- Title: src/general Pages: 1 -->
<svg width="138pt" height="259pt"
 viewBox="0.00 0.00 138.00 259.00" xmlns="http://www.w3.org/2000/svg" xmlns:xlink="http://www.w3.org/1999/xlink">
<g id="graph0" class="graph" transform="scale(1 1) rotate(0) translate(4 255)">
<title>src/general</title>
<g id="clust1" class="cluster">
<title>clusterdir_68267d1309a1af8e8297ef4c3efbcdba</title>
<g id="a_clust1"><a xlink:href="dir_68267d1309a1af8e8297ef4c3efbcdba.html" target="_top" xlink:title="src">
<polygon fill="#ededf7" stroke="#404040" stroke-dasharray="5,2" points="8,-8 8,-243 122,-243 122,-8 8,-8"/>
<text text-anchor="middle" x="65" y="-231" font-family="Helvetica,sans-Serif" font-size="10.00">src</text>
</a>
</g>
</g>
<g id="clust2" class="cluster">
<title>clusterdir_0ef45b72fea5c9869a86802e135ecac6</title>
<g id="a_clust2"><a xlink:href="dir_0ef45b72fea5c9869a86802e135ecac6.html" target="_top">
<polygon fill="#ededf7" stroke="#404040" stroke-width="2" points="16,-16 16,-216 114,-216 114,-16 16,-16"/>
</a>
</g>
</g>
<!-- dir_0ef45b72fea5c9869a86802e135ecac6 -->
<g id="node1" class="node">
<title>dir_0ef45b72fea5c9869a86802e135ecac6</title>
<text text-anchor="middle" x="49" y="-196" font-family="Helvetica,sans-Serif" font-size="10.00">general</text>
</g>
<!-- dir_2f601d846e8e89e376af36b1a1fc90a5 -->
<g id="node2" class="node">
<title>dir_2f601d846e8e89e376af36b1a1fc90a5</title>
<g id="a_node2"><a xlink:href="dir_2f601d846e8e89e376af36b1a1fc90a5.html" target="_top" xlink:title="preprocessor">
<polygon fill="#e6e6f4" stroke="#404040" points="101.5,-43 28.5,-43 28.5,-24 101.5,-24 101.5,-43"/>
<text text-anchor="middle" x="65" y="-31" font-family="Helvetica,sans-Serif" font-size="10.00">preprocessor</text>
</a>
</g>
</g>
<!-- dir_0ef45b72fea5c9869a86802e135ecac6&#45;&gt;dir_2f601d846e8e89e376af36b1a1fc90a5 -->
<g id="edge1" class="edge">
<title>dir_0ef45b72fea5c9869a86802e135ecac6&#45;&gt;dir_2f601d846e8e89e376af36b1a1fc90a5</title>
<path fill="none" stroke="#63b8ff" d="M45.76,-189.25C38.56,-169.66 22.77,-119.02 35,-79 37.99,-69.23 43.92,-59.66 49.73,-51.91"/>
<polygon fill="#63b8ff" stroke="#63b8ff" points="52.26,-54.35 55.84,-44.38 46.82,-49.95 52.26,-54.35"/>
<g id="a_edge1&#45;headlabel"><a xlink:href="dir_000006_000007.html" target="_top" xlink:title="13">
<text text-anchor="middle" x="53.16" y="-55.26" font-family="Helvetica,sans-Serif" font-size="10.00" fill="#63b8ff">13</text>
</a>
</g>
</g>
<!-- dir_b54a0349da47a31968b20ffcc6408a68 -->
<g id="node3" class="node">
<title>dir_b54a0349da47a31968b20ffcc6408a68</title>
<g id="a_node3"><a xlink:href="dir_b54a0349da47a31968b20ffcc6408a68.html" target="_top" xlink:title="types">
<polygon fill="#e6e6f4" stroke="#404040" points="85.5,-98 44.5,-98 44.5,-79 85.5,-79 85.5,-98"/>
<text text-anchor="middle" x="65" y="-86" font-family="Helvetica,sans-Serif" font-size="10.00">types</text>
</a>
</g>
</g>
<!-- dir_0ef45b72fea5c9869a86802e135ecac6&#45;&gt;dir_b54a0349da47a31968b20ffcc6408a68 -->
<g id="edge3" class="edge">
<title>dir_0ef45b72fea5c9869a86802e135ecac6&#45;&gt;dir_b54a0349da47a31968b20ffcc6408a68</title>
<path fill="none" stroke="#63b8ff" d="M50.26,-189.03C52.78,-172 58.52,-133.22 62.05,-109.41"/>
<polygon fill="#63b8ff" stroke="#63b8ff" points="65.48,-110.14 63.48,-99.73 58.56,-109.11 65.48,-110.14"/>
<g id="a_edge3&#45;headlabel"><a xlink:href="dir_000006_000010.html" target="_top" xlink:title="4">
<text text-anchor="middle" x="67.98" y="-110.11" font-family="Helvetica,sans-Serif" font-size="10.00" fill="#63b8ff">4</text>
</a>
</g>
</g>
<!-- dir_70a81ec388f1d1f75a6a48d933a79dd6 -->
<g id="node4" class="node">
<title>dir_70a81ec388f1d1f75a6a48d933a79dd6</title>
<g id="a_node4"><a xlink:href="dir_70a81ec388f1d1f75a6a48d933a79dd6.html" target="_top" xlink:title="utils">
<polygon fill="#e6e6f4" stroke="#404040" points="103.5,-153 68.5,-153 68.5,-134 103.5,-134 103.5,-153"/>
<text text-anchor="middle" x="86" y="-141" font-family="Helvetica,sans-Serif" font-size="10.00">utils</text>
</a>
</g>
</g>
<!-- dir_0ef45b72fea5c9869a86802e135ecac6&#45;&gt;dir_70a81ec388f1d1f75a6a48d933a79dd6 -->
<g id="edge2" class="edge">
<title>dir_0ef45b72fea5c9869a86802e135ecac6&#45;&gt;dir_70a81ec388f1d1f75a6a48d933a79dd6</title>
<path fill="none" stroke="#63b8ff" d="M54.78,-189.22C59.74,-182.11 67.07,-171.62 73.38,-162.58"/>
<polygon fill="#63b8ff" stroke="#63b8ff" points="76.17,-164.7 79.02,-154.49 70.43,-160.69 76.17,-164.7"/>
<g id="a_edge2&#45;headlabel"><a xlink:href="dir_000006_000011.html" target="_top" xlink:title="3">
<text text-anchor="middle" x="77.31" y="-165.53" font-family="Helvetica,sans-Serif" font-size="10.00" fill="#63b8ff">3</text>
</a>
</g>
</g>
<!-- dir_b54a0349da47a31968b20ffcc6408a68&#45;&gt;dir_2f601d846e8e89e376af36b1a1fc90a5 -->
<g id="edge4" class="edge">
<title>dir_b54a0349da47a31968b20ffcc6408a68&#45;&gt;dir_2f601d846e8e89e376af36b1a1fc90a5</title>
<path fill="none" stroke="#63b8ff" d="M65,-78.75C65,-72.27 65,-63.16 65,-54.9"/>
<polygon fill="#63b8ff" stroke="#63b8ff" points="68.5,-54.96 65,-44.96 61.5,-54.96 68.5,-54.96"/>
<g id="a_edge4&#45;headlabel"><a xlink:href="dir_000010_000007.html" target="_top" xlink:title="4">
<text text-anchor="middle" x="71.34" y="-54.54" font-family="Helvetica,sans-Serif" font-size="10.00" fill="#63b8ff">4</text>
</a>
</g>
</g>
<!-- dir_70a81ec388f1d1f75a6a48d933a79dd6&#45;&gt;dir_2f601d846e8e89e376af36b1a1fc90a5 -->
<g id="edge5" class="edge">
<title>dir_70a81ec388f1d1f75a6a48d933a79dd6&#45;&gt;dir_2f601d846e8e89e376af36b1a1fc90a5</title>
<path fill="none" stroke="#63b8ff" d="M89.61,-133.69C94.18,-121.25 100.79,-97.95 95,-79 92.01,-69.23 86.08,-59.66 80.27,-51.91"/>
<polygon fill="#63b8ff" stroke="#63b8ff" points="83.18,-49.95 74.16,-44.38 77.74,-54.35 83.18,-49.95"/>
<g id="a_edge5&#45;headlabel"><a xlink:href="dir_000011_000007.html" target="_top" xlink:title="5">
<text text-anchor="middle" x="86.7" y="-47.28" font-family="Helvetica,sans-Serif" font-size="10.00" fill="#63b8ff">5</text>
</a>
</g>
</g>
<!-- dir_70a81ec388f1d1f75a6a48d933a79dd6&#45;&gt;dir_b54a0349da47a31968b20ffcc6408a68 -->
<g id="edge6" class="edge">
<title>dir_70a81ec388f1d1f75a6a48d933a79dd6&#45;&gt;dir_b54a0349da47a31968b20ffcc6408a68</title>
<path fill="none" stroke="#63b8ff" d="M82.53,-133.75C79.87,-127.04 76.1,-117.52 72.74,-109.02"/>
<polygon fill="#63b8ff" stroke="#63b8ff" points="76.04,-107.86 69.1,-99.85 69.53,-110.44 76.04,-107.86"/>
<g id="a_edge6&#45;headlabel"><a xlink:href="dir_000011_000010.html" target="_top" xlink:title="1">
<text text-anchor="middle" x="79.44" y="-106.25" font-family="Helvetica,sans-Serif" font-size="10.00" fill="#63b8ff">1</text>
</a>
</g>
</g>
</g>
</svg>
