<?xml version="1.0" encoding="UTF-8" standalone="no"?>
<!DOCTYPE svg PUBLIC "-//W3C//DTD SVG 1.1//EN"
 "http://www.w3.org/Graphics/SVG/1.1/DTD/svg11.dtd">
<!-- Generated by graphviz version 7.1.0 (20230121.1956)
 -->
<!-- Title: src/data_analyze Pages: 1 -->
<svg width="182pt" height="196pt"
 viewBox="0.00 0.00 182.00 196.00" xmlns="http://www.w3.org/2000/svg" xmlns:xlink="http://www.w3.org/1999/xlink">
<g id="graph0" class="graph" transform="scale(1 1) rotate(0) translate(4 192)">
<title>src/data_analyze</title>
<g id="clust1" class="cluster">
<title>clusterdir_68267d1309a1af8e8297ef4c3efbcdba</title>
<g id="a_clust1"><a xlink:href="dir_68267d1309a1af8e8297ef4c3efbcdba.html" target="_top" xlink:title="src">
<polygon fill="#ededf7" stroke="#404040" stroke-dasharray="5,2" points="8,-8 8,-180 166,-180 166,-8 8,-8"/>
<text text-anchor="middle" x="87" y="-168" font-family="Helvetica,sans-Serif" font-size="10.00">src</text>
</a>
</g>
</g>
<g id="clust2" class="cluster">
<title>clusterdir_c1a212d0c0bddfcb10e4961fdd534e6f</title>
<g id="a_clust2"><a xlink:href="dir_c1a212d0c0bddfcb10e4961fdd534e6f.html" target="_top">
<polygon fill="#ededf7" stroke="#404040" stroke-width="2" points="16,-63 16,-153 158,-153 158,-63 16,-63"/>
</a>
</g>
</g>
<!-- dir_0ef45b72fea5c9869a86802e135ecac6 -->
<g id="node1" class="node">
<title>dir_0ef45b72fea5c9869a86802e135ecac6</title>
<g id="a_node1"><a xlink:href="dir_0ef45b72fea5c9869a86802e135ecac6.html" target="_top" xlink:title="general">
<polygon fill="#e6e6f4" stroke="red" points="115,-35 67,-35 67,-16 115,-16 115,-35"/>
<text text-anchor="middle" x="91" y="-23" font-family="Helvetica,sans-Serif" font-size="10.00">general</text>
</a>
</g>
</g>
<!-- dir_c1a212d0c0bddfcb10e4961fdd534e6f -->
<g id="node2" class="node">
<title>dir_c1a212d0c0bddfcb10e4961fdd534e6f</title>
<text text-anchor="middle" x="87" y="-133" font-family="Helvetica,sans-Serif" font-size="10.00">data_analyze</text>
</g>
<!-- dir_ca56c180fed0fc7bbd2d0f8f23b95c0a -->
<g id="node3" class="node">
<title>dir_ca56c180fed0fc7bbd2d0f8f23b95c0a</title>
<g id="a_node3"><a xlink:href="dir_ca56c180fed0fc7bbd2d0f8f23b95c0a.html" target="_top" xlink:title="encodings">
<polygon fill="#e6e6f4" stroke="#404040" points="85.5,-90 24.5,-90 24.5,-71 85.5,-71 85.5,-90"/>
<text text-anchor="middle" x="55" y="-78" font-family="Helvetica,sans-Serif" font-size="10.00">encodings</text>
</a>
</g>
</g>
<!-- dir_c1a212d0c0bddfcb10e4961fdd534e6f&#45;&gt;dir_ca56c180fed0fc7bbd2d0f8f23b95c0a -->
<g id="edge1" class="edge">
<title>dir_c1a212d0c0bddfcb10e4961fdd534e6f&#45;&gt;dir_ca56c180fed0fc7bbd2d0f8f23b95c0a</title>
<path fill="none" stroke="#63b8ff" d="M82,-126.22C77.75,-119.19 71.51,-108.84 66.09,-99.87"/>
<polygon fill="#63b8ff" stroke="#63b8ff" points="69.23,-98.3 61.07,-91.55 63.24,-101.92 69.23,-98.3"/>
<g id="a_edge1&#45;headlabel"><a xlink:href="dir_000002_000003.html" target="_top" xlink:title="1">
<text text-anchor="middle" x="72.74" y="-96.11" font-family="Helvetica,sans-Serif" font-size="10.00" fill="#63b8ff">1</text>
</a>
</g>
</g>
<!-- dir_cf8f0c2fafaf5855337ba759d356abe1 -->
<g id="node4" class="node">
<title>dir_cf8f0c2fafaf5855337ba759d356abe1</title>
<g id="a_node4"><a xlink:href="dir_cf8f0c2fafaf5855337ba759d356abe1.html" target="_top" xlink:title="strings">
<polygon fill="#e6e6f4" stroke="#404040" points="150,-90 104,-90 104,-71 150,-71 150,-90"/>
<text text-anchor="middle" x="127" y="-78" font-family="Helvetica,sans-Serif" font-size="10.00">strings</text>
</a>
</g>
</g>
<!-- dir_c1a212d0c0bddfcb10e4961fdd534e6f&#45;&gt;dir_cf8f0c2fafaf5855337ba759d356abe1 -->
<g id="edge2" class="edge">
<title>dir_c1a212d0c0bddfcb10e4961fdd534e6f&#45;&gt;dir_cf8f0c2fafaf5855337ba759d356abe1</title>
<path fill="none" stroke="#63b8ff" d="M93.25,-126.22C98.67,-119.03 106.71,-108.39 113.58,-99.29"/>
<polygon fill="#63b8ff" stroke="#63b8ff" points="116.25,-101.55 119.48,-91.46 110.67,-97.33 116.25,-101.55"/>
<g id="a_edge2&#45;headlabel"><a xlink:href="dir_000002_000009.html" target="_top" xlink:title="1">
<text text-anchor="middle" x="117.27" y="-102.42" font-family="Helvetica,sans-Serif" font-size="10.00" fill="#63b8ff">1</text>
</a>
</g>
</g>
<!-- dir_ca56c180fed0fc7bbd2d0f8f23b95c0a&#45;&gt;dir_0ef45b72fea5c9869a86802e135ecac6 -->
<g id="edge3" class="edge">
<title>dir_ca56c180fed0fc7bbd2d0f8f23b95c0a&#45;&gt;dir_0ef45b72fea5c9869a86802e135ecac6</title>
<path fill="none" stroke="#63b8ff" d="M60.94,-70.75C65.71,-63.73 72.56,-53.64 78.52,-44.87"/>
<polygon fill="#63b8ff" stroke="#63b8ff" points="81.35,-46.93 84.08,-36.69 75.56,-43 81.35,-46.93"/>
<g id="a_edge3&#45;headlabel"><a xlink:href="dir_000003_000006.html" target="_top" xlink:title="1">
<text text-anchor="middle" x="82.53" y="-47.75" font-family="Helvetica,sans-Serif" font-size="10.00" fill="#63b8ff">1</text>
</a>
</g>
</g>
<!-- dir_cf8f0c2fafaf5855337ba759d356abe1&#45;&gt;dir_0ef45b72fea5c9869a86802e135ecac6 -->
<g id="edge4" class="edge">
<title>dir_cf8f0c2fafaf5855337ba759d356abe1&#45;&gt;dir_0ef45b72fea5c9869a86802e135ecac6</title>
<path fill="none" stroke="#63b8ff" d="M121.06,-70.75C116.29,-63.73 109.44,-53.64 103.48,-44.87"/>
<polygon fill="#63b8ff" stroke="#63b8ff" points="106.44,-43 97.92,-36.69 100.65,-46.93 106.44,-43"/>
<g id="a_edge4&#45;headlabel"><a xlink:href="dir_000009_000006.html" target="_top" xlink:title="1">
<text text-anchor="middle" x="109.96" y="-40.63" font-family="Helvetica,sans-Serif" font-size="10.00" fill="#63b8ff">1</text>
</a>
</g>
</g>
</g>
</svg>
