<?xml version="1.0" encoding="UTF-8" standalone="no"?>
<!DOCTYPE svg PUBLIC "-//W3C//DTD SVG 1.1//EN"
 "http://www.w3.org/Graphics/SVG/1.1/DTD/svg11.dtd">
<!-- Generated by graphviz version 2.43.0 (0)
 -->
<!-- Title: src/data_analyze Pages: 1 -->
<svg width="190pt" height="196pt"
 viewBox="0.00 0.00 190.00 196.00" xmlns="http://www.w3.org/2000/svg" xmlns:xlink="http://www.w3.org/1999/xlink">
<g id="graph0" class="graph" transform="scale(1 1) rotate(0) translate(4 192)">
<title>src/data_analyze</title>
<g id="clust1" class="cluster">
<title>clusterdir_68267d1309a1af8e8297ef4c3efbcdba</title>
<g id="a_clust1"><a xlink:href="dir_68267d1309a1af8e8297ef4c3efbcdba.html" target="_top" xlink:title="src">
<polygon fill="#ededf7" stroke="#404040" stroke-dasharray="5,2" points="8,-8 8,-180 174,-180 174,-8 8,-8"/>
<text text-anchor="middle" x="91" y="-168" font-family="Helvetica,sans-Serif" font-size="10.00">src</text>
</a>
</g>
</g>
<g id="clust2" class="cluster">
<title>clusterdir_c1a212d0c0bddfcb10e4961fdd534e6f</title>
<g id="a_clust2"><a xlink:href="dir_c1a212d0c0bddfcb10e4961fdd534e6f.html" target="_top">
<polygon fill="#ededf7" stroke="#404040" stroke-width="2" points="16,-63 16,-153 166,-153 166,-63 16,-63"/>
</a>
</g>
</g>
<!-- dir_0ef45b72fea5c9869a86802e135ecac6 -->
<g id="node1" class="node">
<title>dir_0ef45b72fea5c9869a86802e135ecac6</title>
<g id="a_node1"><a xlink:href="dir_0ef45b72fea5c9869a86802e135ecac6.html" target="_top" xlink:title="general">
<polygon fill="#e6e6f4" stroke="red" points="121.5,-35 68.5,-35 68.5,-16 121.5,-16 121.5,-35"/>
<text text-anchor="middle" x="95" y="-23" font-family="Helvetica,sans-Serif" font-size="10.00">general</text>
</a>
</g>
</g>
<!-- dir_c1a212d0c0bddfcb10e4961fdd534e6f -->
<g id="node2" class="node">
<title>dir_c1a212d0c0bddfcb10e4961fdd534e6f</title>
<text text-anchor="middle" x="91" y="-133" font-family="Helvetica,sans-Serif" font-size="10.00">data_analyze</text>
</g>
<!-- dir_ca56c180fed0fc7bbd2d0f8f23b95c0a -->
<g id="node3" class="node">
<title>dir_ca56c180fed0fc7bbd2d0f8f23b95c0a</title>
<g id="a_node3"><a xlink:href="dir_ca56c180fed0fc7bbd2d0f8f23b95c0a.html" target="_top" xlink:title="encodings">
<polygon fill="#e6e6f4" stroke="#404040" points="90,-90 24,-90 24,-71 90,-71 90,-90"/>
<text text-anchor="middle" x="57" y="-78" font-family="Helvetica,sans-Serif" font-size="10.00">encodings</text>
</a>
</g>
</g>
<!-- dir_c1a212d0c0bddfcb10e4961fdd534e6f&#45;&gt;dir_ca56c180fed0fc7bbd2d0f8f23b95c0a -->
<g id="edge1" class="edge">
<title>dir_c1a212d0c0bddfcb10e4961fdd534e6f&#45;&gt;dir_ca56c180fed0fc7bbd2d0f8f23b95c0a</title>
<path fill="none" stroke="#63b8ff" d="M85.39,-125.75C80.68,-118.42 73.83,-107.73 68.03,-98.7"/>
<polygon fill="#63b8ff" stroke="#63b8ff" points="70.86,-96.62 62.51,-90.09 64.96,-100.4 70.86,-96.62"/>
<g id="a_edge1&#45;headlabel"><a xlink:href="dir_000002_000005.html" target="_top" xlink:title="1">
<text text-anchor="middle" x="75.19" y="-95.61" font-family="Helvetica,sans-Serif" font-size="10.00" fill="#63b8ff">1</text>
</a>
</g>
</g>
<!-- dir_cf8f0c2fafaf5855337ba759d356abe1 -->
<g id="node4" class="node">
<title>dir_cf8f0c2fafaf5855337ba759d356abe1</title>
<g id="a_node4"><a xlink:href="dir_cf8f0c2fafaf5855337ba759d356abe1.html" target="_top" xlink:title="strings">
<polygon fill="#e6e6f4" stroke="#404040" points="158,-90 108,-90 108,-71 158,-71 158,-90"/>
<text text-anchor="middle" x="133" y="-78" font-family="Helvetica,sans-Serif" font-size="10.00">strings</text>
</a>
</g>
</g>
<!-- dir_c1a212d0c0bddfcb10e4961fdd534e6f&#45;&gt;dir_cf8f0c2fafaf5855337ba759d356abe1 -->
<g id="edge2" class="edge">
<title>dir_c1a212d0c0bddfcb10e4961fdd534e6f&#45;&gt;dir_cf8f0c2fafaf5855337ba759d356abe1</title>
<path fill="none" stroke="#63b8ff" d="M97.94,-125.75C103.87,-118.26 112.57,-107.28 119.82,-98.13"/>
<polygon fill="#63b8ff" stroke="#63b8ff" points="122.73,-100.1 126.19,-90.09 117.24,-95.75 122.73,-100.1"/>
<g id="a_edge2&#45;headlabel"><a xlink:href="dir_000002_000011.html" target="_top" xlink:title="1">
<text text-anchor="middle" x="122.72" y="-102.18" font-family="Helvetica,sans-Serif" font-size="10.00" fill="#63b8ff">1</text>
</a>
</g>
</g>
<!-- dir_ca56c180fed0fc7bbd2d0f8f23b95c0a&#45;&gt;dir_0ef45b72fea5c9869a86802e135ecac6 -->
<g id="edge3" class="edge">
<title>dir_ca56c180fed0fc7bbd2d0f8f23b95c0a&#45;&gt;dir_0ef45b72fea5c9869a86802e135ecac6</title>
<path fill="none" stroke="#63b8ff" d="M63.27,-70.75C68.59,-63.34 76.36,-52.5 82.88,-43.41"/>
<polygon fill="#63b8ff" stroke="#63b8ff" points="85.86,-45.26 88.84,-35.09 80.17,-41.18 85.86,-45.26"/>
<g id="a_edge3&#45;headlabel"><a xlink:href="dir_000005_000008.html" target="_top" xlink:title="1">
<text text-anchor="middle" x="86.07" y="-47.33" font-family="Helvetica,sans-Serif" font-size="10.00" fill="#63b8ff">1</text>
</a>
</g>
</g>
<!-- dir_cf8f0c2fafaf5855337ba759d356abe1&#45;&gt;dir_0ef45b72fea5c9869a86802e135ecac6 -->
<g id="edge4" class="edge">
<title>dir_cf8f0c2fafaf5855337ba759d356abe1&#45;&gt;dir_0ef45b72fea5c9869a86802e135ecac6</title>
<path fill="none" stroke="#63b8ff" d="M126.73,-70.75C121.41,-63.34 113.64,-52.5 107.12,-43.41"/>
<polygon fill="#63b8ff" stroke="#63b8ff" points="109.83,-41.18 101.16,-35.09 104.14,-45.26 109.83,-41.18"/>
<g id="a_edge4&#45;headlabel"><a xlink:href="dir_000011_000008.html" target="_top" xlink:title="1">
<text text-anchor="middle" x="114.23" y="-39.94" font-family="Helvetica,sans-Serif" font-size="10.00" fill="#63b8ff">1</text>
</a>
</g>
</g>
</g>
</svg>
