<?xml version="1.0" encoding="UTF-8" standalone="no"?>
<!DOCTYPE svg PUBLIC "-//W3C//DTD SVG 1.1//EN"
 "http://www.w3.org/Graphics/SVG/1.1/DTD/svg11.dtd">
<!-- Generated by graphviz version 2.43.0 (0)
 -->
<!-- Title: src/general Pages: 1 -->
<svg width="140pt" height="259pt"
 viewBox="0.00 0.00 140.00 259.00" xmlns="http://www.w3.org/2000/svg" xmlns:xlink="http://www.w3.org/1999/xlink">
<g id="graph0" class="graph" transform="scale(1 1) rotate(0) translate(4 255)">
<title>src/general</title>
<g id="clust1" class="cluster">
<title>clusterdir_68267d1309a1af8e8297ef4c3efbcdba</title>
<g id="a_clust1"><a xlink:href="dir_68267d1309a1af8e8297ef4c3efbcdba.html" target="_top" xlink:title="src">
<polygon fill="#ededf7" stroke="#404040" stroke-dasharray="5,2" points="8,-8 8,-243 124,-243 124,-8 8,-8"/>
<text text-anchor="middle" x="66" y="-231" font-family="Helvetica,sans-Serif" font-size="10.00">src</text>
</a>
</g>
</g>
<g id="clust2" class="cluster">
<title>clusterdir_0ef45b72fea5c9869a86802e135ecac6</title>
<g id="a_clust2"><a xlink:href="dir_0ef45b72fea5c9869a86802e135ecac6.html" target="_top">
<polygon fill="#ededf7" stroke="#404040" stroke-width="2" points="16,-16 16,-216 116,-216 116,-16 16,-16"/>
</a>
</g>
</g>
<!-- dir_0ef45b72fea5c9869a86802e135ecac6 -->
<g id="node1" class="node">
<title>dir_0ef45b72fea5c9869a86802e135ecac6</title>
<text text-anchor="middle" x="51" y="-196" font-family="Helvetica,sans-Serif" font-size="10.00">general</text>
</g>
<!-- dir_2f601d846e8e89e376af36b1a1fc90a5 -->
<g id="node2" class="node">
<title>dir_2f601d846e8e89e376af36b1a1fc90a5</title>
<g id="a_node2"><a xlink:href="dir_2f601d846e8e89e376af36b1a1fc90a5.html" target="_top" xlink:title="preprocessor">
<polygon fill="#e6e6f4" stroke="#404040" points="106,-43 26,-43 26,-24 106,-24 106,-43"/>
<text text-anchor="middle" x="66" y="-31" font-family="Helvetica,sans-Serif" font-size="10.00">preprocessor</text>
</a>
</g>
</g>
<!-- dir_0ef45b72fea5c9869a86802e135ecac6&#45;&gt;dir_2f601d846e8e89e376af36b1a1fc90a5 -->
<g id="edge1" class="edge">
<title>dir_0ef45b72fea5c9869a86802e135ecac6&#45;&gt;dir_2f601d846e8e89e376af36b1a1fc90a5</title>
<path fill="none" stroke="#63b8ff" d="M47.37,-188.95C39.49,-169.16 22.5,-118.81 35,-79 38.23,-68.71 44.78,-58.72 51.03,-50.82"/>
<polygon fill="#63b8ff" stroke="#63b8ff" points="53.73,-53.04 57.52,-43.15 48.39,-48.52 53.73,-53.04"/>
<g id="a_edge1&#45;headlabel"><a xlink:href="dir_000008_000009.html" target="_top" xlink:title="12">
<text text-anchor="middle" x="53.57" y="-55.12" font-family="Helvetica,sans-Serif" font-size="10.00" fill="#63b8ff">12</text>
</a>
</g>
</g>
<!-- dir_b54a0349da47a31968b20ffcc6408a68 -->
<g id="node3" class="node">
<title>dir_b54a0349da47a31968b20ffcc6408a68</title>
<g id="a_node3"><a xlink:href="dir_b54a0349da47a31968b20ffcc6408a68.html" target="_top" xlink:title="types">
<polygon fill="#e6e6f4" stroke="#404040" points="88,-98 44,-98 44,-79 88,-79 88,-98"/>
<text text-anchor="middle" x="66" y="-86" font-family="Helvetica,sans-Serif" font-size="10.00">types</text>
</a>
</g>
</g>
<!-- dir_0ef45b72fea5c9869a86802e135ecac6&#45;&gt;dir_b54a0349da47a31968b20ffcc6408a68 -->
<g id="edge3" class="edge">
<title>dir_0ef45b72fea5c9869a86802e135ecac6&#45;&gt;dir_b54a0349da47a31968b20ffcc6408a68</title>
<path fill="none" stroke="#63b8ff" d="M52.23,-188.66C54.66,-171.17 60.12,-131.8 63.39,-108.27"/>
<polygon fill="#63b8ff" stroke="#63b8ff" points="66.89,-108.54 64.8,-98.16 59.95,-107.58 66.89,-108.54"/>
<g id="a_edge3&#45;headlabel"><a xlink:href="dir_000008_000012.html" target="_top" xlink:title="4">
<text text-anchor="middle" x="69.21" y="-110" font-family="Helvetica,sans-Serif" font-size="10.00" fill="#63b8ff">4</text>
</a>
</g>
</g>
<!-- dir_70a81ec388f1d1f75a6a48d933a79dd6 -->
<g id="node4" class="node">
<title>dir_70a81ec388f1d1f75a6a48d933a79dd6</title>
<g id="a_node4"><a xlink:href="dir_70a81ec388f1d1f75a6a48d933a79dd6.html" target="_top" xlink:title="utils">
<polygon fill="#e6e6f4" stroke="#404040" points="108,-153 70,-153 70,-134 108,-134 108,-153"/>
<text text-anchor="middle" x="89" y="-141" font-family="Helvetica,sans-Serif" font-size="10.00">utils</text>
</a>
</g>
</g>
<!-- dir_0ef45b72fea5c9869a86802e135ecac6&#45;&gt;dir_70a81ec388f1d1f75a6a48d933a79dd6 -->
<g id="edge2" class="edge">
<title>dir_0ef45b72fea5c9869a86802e135ecac6&#45;&gt;dir_70a81ec388f1d1f75a6a48d933a79dd6</title>
<path fill="none" stroke="#63b8ff" d="M57.27,-188.75C62.59,-181.34 70.36,-170.5 76.88,-161.41"/>
<polygon fill="#63b8ff" stroke="#63b8ff" points="79.86,-163.26 82.84,-153.09 74.17,-159.18 79.86,-163.26"/>
<g id="a_edge2&#45;headlabel"><a xlink:href="dir_000008_000013.html" target="_top" xlink:title="3">
<text text-anchor="middle" x="80.07" y="-165.33" font-family="Helvetica,sans-Serif" font-size="10.00" fill="#63b8ff">3</text>
</a>
</g>
</g>
<!-- dir_b54a0349da47a31968b20ffcc6408a68&#45;&gt;dir_2f601d846e8e89e376af36b1a1fc90a5 -->
<g id="edge4" class="edge">
<title>dir_b54a0349da47a31968b20ffcc6408a68&#45;&gt;dir_2f601d846e8e89e376af36b1a1fc90a5</title>
<path fill="none" stroke="#63b8ff" d="M66,-78.75C66,-71.8 66,-61.85 66,-53.13"/>
<polygon fill="#63b8ff" stroke="#63b8ff" points="69.5,-53.09 66,-43.09 62.5,-53.09 69.5,-53.09"/>
<g id="a_edge4&#45;headlabel"><a xlink:href="dir_000012_000009.html" target="_top" xlink:title="4">
<text text-anchor="middle" x="72.34" y="-54.18" font-family="Helvetica,sans-Serif" font-size="10.00" fill="#63b8ff">4</text>
</a>
</g>
</g>
<!-- dir_70a81ec388f1d1f75a6a48d933a79dd6&#45;&gt;dir_2f601d846e8e89e376af36b1a1fc90a5 -->
<g id="edge5" class="edge">
<title>dir_70a81ec388f1d1f75a6a48d933a79dd6&#45;&gt;dir_2f601d846e8e89e376af36b1a1fc90a5</title>
<path fill="none" stroke="#63b8ff" d="M92.43,-133.66C96.74,-121.2 102.92,-97.87 97,-79 93.77,-68.71 87.22,-58.72 80.97,-50.82"/>
<polygon fill="#63b8ff" stroke="#63b8ff" points="83.61,-48.52 74.48,-43.15 78.27,-53.04 83.61,-48.52"/>
<g id="a_edge5&#45;headlabel"><a xlink:href="dir_000013_000009.html" target="_top" xlink:title="4">
<text text-anchor="middle" x="88.1" y="-46.93" font-family="Helvetica,sans-Serif" font-size="10.00" fill="#63b8ff">4</text>
</a>
</g>
</g>
<!-- dir_70a81ec388f1d1f75a6a48d933a79dd6&#45;&gt;dir_b54a0349da47a31968b20ffcc6408a68 -->
<g id="edge6" class="edge">
<title>dir_70a81ec388f1d1f75a6a48d933a79dd6&#45;&gt;dir_b54a0349da47a31968b20ffcc6408a68</title>
<path fill="none" stroke="#63b8ff" d="M85.2,-133.75C82.09,-126.57 77.58,-116.18 73.71,-107.27"/>
<polygon fill="#63b8ff" stroke="#63b8ff" points="76.92,-105.87 69.73,-98.09 70.5,-108.66 76.92,-105.87"/>
<g id="a_edge6&#45;headlabel"><a xlink:href="dir_000013_000012.html" target="_top" xlink:title="1">
<text text-anchor="middle" x="80.95" y="-105.54" font-family="Helvetica,sans-Serif" font-size="10.00" fill="#63b8ff">1</text>
</a>
</g>
</g>
</g>
</svg>
