<?xml version="1.0" encoding="UTF-8" standalone="no"?>
<!DOCTYPE svg PUBLIC "-//W3C//DTD SVG 1.1//EN"
 "http://www.w3.org/Graphics/SVG/1.1/DTD/svg11.dtd">
<!-- Generated by graphviz version 2.43.0 (0)
 -->
<!-- Title: src Pages: 1 -->
<svg width="472pt" height="397pt"
 viewBox="0.00 0.00 472.00 397.00" xmlns="http://www.w3.org/2000/svg" xmlns:xlink="http://www.w3.org/1999/xlink">
<g id="graph0" class="graph" transform="scale(1 1) rotate(0) translate(4 393)">
<title>src</title>
<g id="clust1" class="cluster">
<title>clusterdir_68267d1309a1af8e8297ef4c3efbcdba</title>
<g id="a_clust1"><a xlink:href="dir_68267d1309a1af8e8297ef4c3efbcdba.html" target="_top">
<polygon fill="#ededf7" stroke="#404040" stroke-width="2" points="8,-8 8,-381 456,-381 456,-8 8,-8"/>
</a>
</g>
</g>
<g id="clust2" class="cluster">
<title>clusterdir_dfdbda394c3f7a3aa55229f33a559c41</title>
<g id="a_clust2"><a xlink:href="dir_dfdbda394c3f7a3aa55229f33a559c41.html" target="_top">
<polygon fill="#e6e6f4" stroke="#404040" points="16,-291 16,-326 140,-326 140,-291 16,-291"/>
</a>
</g>
</g>
<g id="clust3" class="cluster">
<title>clusterdir_c1a212d0c0bddfcb10e4961fdd534e6f</title>
<g id="a_clust3"><a xlink:href="dir_c1a212d0c0bddfcb10e4961fdd534e6f.html" target="_top">
<polygon fill="#e6e6f4" stroke="#404040" points="148,-236 148,-326 298,-326 298,-236 148,-236"/>
</a>
</g>
</g>
<g id="clust4" class="cluster">
<title>clusterdir_0ef45b72fea5c9869a86802e135ecac6</title>
<g id="a_clust4"><a xlink:href="dir_0ef45b72fea5c9869a86802e135ecac6.html" target="_top">
<polygon fill="#e6e6f4" stroke="#404040" points="241,-16 241,-216 341,-216 341,-16 241,-16"/>
</a>
</g>
</g>
<!-- dir_68267d1309a1af8e8297ef4c3efbcdba -->
<g id="node1" class="node">
<title>dir_68267d1309a1af8e8297ef4c3efbcdba</title>
<text text-anchor="middle" x="325" y="-361" font-family="Helvetica,sans-Serif" font-size="10.00">src</text>
</g>
<!-- dir_1a4c3eba48dd221f0ca8224765442bb6 -->
<g id="node2" class="node">
<title>dir_1a4c3eba48dd221f0ca8224765442bb6</title>
<g id="a_node2"><a xlink:href="dir_1a4c3eba48dd221f0ca8224765442bb6.html" target="_top" xlink:title="code_utils">
<polygon fill="#e6e6f4" stroke="#404040" points="448,-318 382,-318 382,-299 448,-299 448,-318"/>
<text text-anchor="middle" x="415" y="-306" font-family="Helvetica,sans-Serif" font-size="10.00">code_utils</text>
</a>
</g>
</g>
<!-- dir_68267d1309a1af8e8297ef4c3efbcdba&#45;&gt;dir_1a4c3eba48dd221f0ca8224765442bb6 -->
<g id="edge2" class="edge">
<title>dir_68267d1309a1af8e8297ef4c3efbcdba&#45;&gt;dir_1a4c3eba48dd221f0ca8224765442bb6</title>
<path fill="none" stroke="#63b8ff" d="M339.46,-353.98C353.42,-345.77 374.79,-333.18 391.25,-323.49"/>
<polygon fill="#63b8ff" stroke="#63b8ff" points="393.44,-326.26 400.28,-318.17 389.88,-320.23 393.44,-326.26"/>
<g id="a_edge2&#45;headlabel"><a xlink:href="dir_000010_000000.html" target="_top" xlink:title="1">
<text text-anchor="middle" x="391.78" y="-328.03" font-family="Helvetica,sans-Serif" font-size="10.00" fill="#63b8ff">1</text>
</a>
</g>
</g>
<!-- dir_dfdbda394c3f7a3aa55229f33a559c41 -->
<g id="node3" class="node">
<title>dir_dfdbda394c3f7a3aa55229f33a559c41</title>
<text text-anchor="middle" x="115" y="-306" font-family="Helvetica,sans-Serif" font-size="10.00">cpp</text>
</g>
<!-- dir_68267d1309a1af8e8297ef4c3efbcdba&#45;&gt;dir_dfdbda394c3f7a3aa55229f33a559c41 -->
<g id="edge5" class="edge">
<title>dir_68267d1309a1af8e8297ef4c3efbcdba&#45;&gt;dir_dfdbda394c3f7a3aa55229f33a559c41</title>
<path fill="none" stroke="#63b8ff" d="M309.04,-361C276.92,-357.62 202.54,-347.91 144,-326 141.71,-325.14 139.39,-324.12 137.11,-323.01"/>
<polygon fill="#63b8ff" stroke="#63b8ff" points="138.6,-319.84 128.14,-318.15 135.26,-325.99 138.6,-319.84"/>
<g id="a_edge5&#45;headlabel"><a xlink:href="dir_000010_000001.html" target="_top" xlink:title="1">
<text text-anchor="middle" x="143.11" y="-316.55" font-family="Helvetica,sans-Serif" font-size="10.00" fill="#63b8ff">1</text>
</a>
</g>
</g>
<!-- dir_c1a212d0c0bddfcb10e4961fdd534e6f -->
<g id="node5" class="node">
<title>dir_c1a212d0c0bddfcb10e4961fdd534e6f</title>
<text text-anchor="middle" x="247" y="-306" font-family="Helvetica,sans-Serif" font-size="10.00">data_analyze</text>
</g>
<!-- dir_68267d1309a1af8e8297ef4c3efbcdba&#45;&gt;dir_c1a212d0c0bddfcb10e4961fdd534e6f -->
<g id="edge4" class="edge">
<title>dir_68267d1309a1af8e8297ef4c3efbcdba&#45;&gt;dir_c1a212d0c0bddfcb10e4961fdd534e6f</title>
<path fill="none" stroke="#63b8ff" d="M312.47,-353.98C300.6,-345.92 282.54,-333.65 268.39,-324.03"/>
<polygon fill="#63b8ff" stroke="#63b8ff" points="270,-320.9 259.76,-318.17 266.06,-326.69 270,-320.9"/>
<g id="a_edge4&#45;headlabel"><a xlink:href="dir_000010_000002.html" target="_top" xlink:title="3">
<text text-anchor="middle" x="274.57" y="-318.07" font-family="Helvetica,sans-Serif" font-size="10.00" fill="#63b8ff">3</text>
</a>
</g>
</g>
<!-- dir_251697ed71d3107a084c4be76de6bea7 -->
<g id="node8" class="node">
<title>dir_251697ed71d3107a084c4be76de6bea7</title>
<g id="a_node8"><a xlink:href="dir_251697ed71d3107a084c4be76de6bea7.html" target="_top" xlink:title="files">
<polygon fill="#e6e6f4" stroke="#404040" points="343.5,-318 306.5,-318 306.5,-299 343.5,-299 343.5,-318"/>
<text text-anchor="middle" x="325" y="-306" font-family="Helvetica,sans-Serif" font-size="10.00">files</text>
</a>
</g>
</g>
<!-- dir_68267d1309a1af8e8297ef4c3efbcdba&#45;&gt;dir_251697ed71d3107a084c4be76de6bea7 -->
<g id="edge3" class="edge">
<title>dir_68267d1309a1af8e8297ef4c3efbcdba&#45;&gt;dir_251697ed71d3107a084c4be76de6bea7</title>
<path fill="none" stroke="#63b8ff" d="M325,-353.75C325,-346.8 325,-336.85 325,-328.13"/>
<polygon fill="#63b8ff" stroke="#63b8ff" points="328.5,-328.09 325,-318.09 321.5,-328.09 328.5,-328.09"/>
<g id="a_edge3&#45;headlabel"><a xlink:href="dir_000010_000006.html" target="_top" xlink:title="1">
<text text-anchor="middle" x="331.34" y="-329.18" font-family="Helvetica,sans-Serif" font-size="10.00" fill="#63b8ff">1</text>
</a>
</g>
</g>
<!-- dir_0ef45b72fea5c9869a86802e135ecac6 -->
<g id="node9" class="node">
<title>dir_0ef45b72fea5c9869a86802e135ecac6</title>
<text text-anchor="middle" x="291" y="-196" font-family="Helvetica,sans-Serif" font-size="10.00">general</text>
</g>
<!-- dir_68267d1309a1af8e8297ef4c3efbcdba&#45;&gt;dir_0ef45b72fea5c9869a86802e135ecac6 -->
<g id="edge1" class="edge">
<title>dir_68267d1309a1af8e8297ef4c3efbcdba&#45;&gt;dir_0ef45b72fea5c9869a86802e135ecac6</title>
<path fill="none" stroke="#63b8ff" d="M334.27,-353.91C340.91,-347.08 349.3,-336.89 353,-326 358,-311.27 357.56,-305.87 353,-291 343.9,-261.36 321.6,-232.69 306.37,-215.57"/>
<polygon fill="#63b8ff" stroke="#63b8ff" points="308.9,-213.14 299.56,-208.14 303.74,-217.87 308.9,-213.14"/>
<g id="a_edge1&#45;headlabel"><a xlink:href="dir_000010_000008.html" target="_top" xlink:title="28">
<text text-anchor="middle" x="313.42" y="-211.37" font-family="Helvetica,sans-Serif" font-size="10.00" fill="#63b8ff">28</text>
</a>
</g>
</g>
<!-- dir_1a4c3eba48dd221f0ca8224765442bb6&#45;&gt;dir_0ef45b72fea5c9869a86802e135ecac6 -->
<g id="edge6" class="edge">
<title>dir_1a4c3eba48dd221f0ca8224765442bb6&#45;&gt;dir_0ef45b72fea5c9869a86802e135ecac6</title>
<path fill="none" stroke="#63b8ff" d="M411.27,-298.93C404.54,-284.3 389.07,-254.33 368,-236 356.12,-225.66 340.81,-217.61 326.97,-211.74"/>
<polygon fill="#63b8ff" stroke="#63b8ff" points="328.27,-208.49 317.69,-208.01 325.67,-214.98 328.27,-208.49"/>
<g id="a_edge6&#45;headlabel"><a xlink:href="dir_000000_000008.html" target="_top" xlink:title="1">
<text text-anchor="middle" x="332.67" y="-204.69" font-family="Helvetica,sans-Serif" font-size="10.00" fill="#63b8ff">1</text>
</a>
</g>
</g>
<!-- dir_2f601d846e8e89e376af36b1a1fc90a5 -->
<g id="node10" class="node">
<title>dir_2f601d846e8e89e376af36b1a1fc90a5</title>
<g id="a_node10"><a xlink:href="dir_2f601d846e8e89e376af36b1a1fc90a5.html" target="_top" xlink:title="preprocessor">
<polygon fill="#dfdff1" stroke="#404040" points="330,-43 250,-43 250,-24 330,-24 330,-43"/>
<text text-anchor="middle" x="290" y="-31" font-family="Helvetica,sans-Serif" font-size="10.00">preprocessor</text>
</a>
</g>
</g>
<!-- dir_dfdbda394c3f7a3aa55229f33a559c41&#45;&gt;dir_2f601d846e8e89e376af36b1a1fc90a5 -->
<g id="edge7" class="edge">
<title>dir_dfdbda394c3f7a3aa55229f33a559c41&#45;&gt;dir_2f601d846e8e89e376af36b1a1fc90a5</title>
<path fill="none" stroke="#63b8ff" d="M116.48,-298.85C119.49,-280.57 126,-236.63 126,-199.5 126,-199.5 126,-199.5 126,-142.5 126,-87.16 191.93,-58.58 240.19,-45.07"/>
<polygon fill="#63b8ff" stroke="#63b8ff" points="241.12,-48.45 249.88,-42.49 239.32,-41.68 241.12,-48.45"/>
<g id="a_edge7&#45;headlabel"><a xlink:href="dir_000001_000009.html" target="_top" xlink:title="1">
<text text-anchor="middle" x="238.38" y="-49.61" font-family="Helvetica,sans-Serif" font-size="10.00" fill="#63b8ff">1</text>
</a>
</g>
</g>
<!-- dir_5750ed1ae22948c14f9a6055985347e9 -->
<g id="node4" class="node">
<title>dir_5750ed1ae22948c14f9a6055985347e9</title>
<g id="a_node4"><a xlink:href="dir_5750ed1ae22948c14f9a6055985347e9.html" target="_top" xlink:title="FMC_dir">
<polygon fill="#dfdff1" stroke="#404040" points="80,-318 24,-318 24,-299 80,-299 80,-318"/>
<text text-anchor="middle" x="52" y="-306" font-family="Helvetica,sans-Serif" font-size="10.00">FMC_dir</text>
</a>
</g>
</g>
<!-- dir_ca56c180fed0fc7bbd2d0f8f23b95c0a -->
<g id="node6" class="node">
<title>dir_ca56c180fed0fc7bbd2d0f8f23b95c0a</title>
<g id="a_node6"><a xlink:href="dir_ca56c180fed0fc7bbd2d0f8f23b95c0a.html" target="_top" xlink:title="encodings">
<polygon fill="#dfdff1" stroke="#404040" points="222,-263 156,-263 156,-244 222,-244 222,-263"/>
<text text-anchor="middle" x="189" y="-251" font-family="Helvetica,sans-Serif" font-size="10.00">encodings</text>
</a>
</g>
</g>
<!-- dir_c1a212d0c0bddfcb10e4961fdd534e6f&#45;&gt;dir_ca56c180fed0fc7bbd2d0f8f23b95c0a -->
<g id="edge8" class="edge">
<title>dir_c1a212d0c0bddfcb10e4961fdd534e6f&#45;&gt;dir_ca56c180fed0fc7bbd2d0f8f23b95c0a</title>
<path fill="none" stroke="#63b8ff" d="M237.68,-298.98C229.19,-291.23 216.44,-279.58 206.12,-270.14"/>
<polygon fill="#63b8ff" stroke="#63b8ff" points="208.23,-267.33 198.49,-263.17 203.51,-272.5 208.23,-267.33"/>
<g id="a_edge8&#45;headlabel"><a xlink:href="dir_000002_000005.html" target="_top" xlink:title="1">
<text text-anchor="middle" x="212.8" y="-265.16" font-family="Helvetica,sans-Serif" font-size="10.00" fill="#63b8ff">1</text>
</a>
</g>
</g>
<!-- dir_cf8f0c2fafaf5855337ba759d356abe1 -->
<g id="node7" class="node">
<title>dir_cf8f0c2fafaf5855337ba759d356abe1</title>
<g id="a_node7"><a xlink:href="dir_cf8f0c2fafaf5855337ba759d356abe1.html" target="_top" xlink:title="strings">
<polygon fill="#dfdff1" stroke="#404040" points="290,-263 240,-263 240,-244 290,-244 290,-263"/>
<text text-anchor="middle" x="265" y="-251" font-family="Helvetica,sans-Serif" font-size="10.00">strings</text>
</a>
</g>
</g>
<!-- dir_c1a212d0c0bddfcb10e4961fdd534e6f&#45;&gt;dir_cf8f0c2fafaf5855337ba759d356abe1 -->
<g id="edge9" class="edge">
<title>dir_c1a212d0c0bddfcb10e4961fdd534e6f&#45;&gt;dir_cf8f0c2fafaf5855337ba759d356abe1</title>
<path fill="none" stroke="#63b8ff" d="M249.97,-298.75C252.36,-291.72 255.79,-281.62 258.77,-272.84"/>
<polygon fill="#63b8ff" stroke="#63b8ff" points="262.18,-273.68 262.08,-263.09 255.55,-271.43 262.18,-273.68"/>
<g id="a_edge9&#45;headlabel"><a xlink:href="dir_000002_000011.html" target="_top" xlink:title="1">
<text text-anchor="middle" x="263.71" y="-275.5" font-family="Helvetica,sans-Serif" font-size="10.00" fill="#63b8ff">1</text>
</a>
</g>
</g>
<!-- dir_ca56c180fed0fc7bbd2d0f8f23b95c0a&#45;&gt;dir_0ef45b72fea5c9869a86802e135ecac6 -->
<g id="edge10" class="edge">
<title>dir_ca56c180fed0fc7bbd2d0f8f23b95c0a&#45;&gt;dir_0ef45b72fea5c9869a86802e135ecac6</title>
<path fill="none" stroke="#63b8ff" d="M205.39,-243.98C221.57,-235.57 246.57,-222.59 265.38,-212.81"/>
<polygon fill="#63b8ff" stroke="#63b8ff" points="267.05,-215.89 274.31,-208.17 263.83,-209.68 267.05,-215.89"/>
<g id="a_edge10&#45;headlabel"><a xlink:href="dir_000005_000008.html" target="_top" xlink:title="1">
<text text-anchor="middle" x="265.17" y="-217.56" font-family="Helvetica,sans-Serif" font-size="10.00" fill="#63b8ff">1</text>
</a>
</g>
</g>
<!-- dir_cf8f0c2fafaf5855337ba759d356abe1&#45;&gt;dir_0ef45b72fea5c9869a86802e135ecac6 -->
<g id="edge11" class="edge">
<title>dir_cf8f0c2fafaf5855337ba759d356abe1&#45;&gt;dir_0ef45b72fea5c9869a86802e135ecac6</title>
<path fill="none" stroke="#63b8ff" d="M269.29,-243.75C272.81,-236.57 277.91,-226.18 282.28,-217.27"/>
<polygon fill="#63b8ff" stroke="#63b8ff" points="285.52,-218.61 286.79,-208.09 279.24,-215.53 285.52,-218.61"/>
<g id="a_edge11&#45;headlabel"><a xlink:href="dir_000011_000008.html" target="_top" xlink:title="1">
<text text-anchor="middle" x="286.49" y="-220.59" font-family="Helvetica,sans-Serif" font-size="10.00" fill="#63b8ff">1</text>
</a>
</g>
</g>
<!-- dir_251697ed71d3107a084c4be76de6bea7&#45;&gt;dir_0ef45b72fea5c9869a86802e135ecac6 -->
<g id="edge12" class="edge">
<title>dir_251697ed71d3107a084c4be76de6bea7&#45;&gt;dir_0ef45b72fea5c9869a86802e135ecac6</title>
<path fill="none" stroke="#63b8ff" d="M322.22,-298.66C316.69,-281.09 304.21,-241.45 296.81,-217.95"/>
<polygon fill="#63b8ff" stroke="#63b8ff" points="300.07,-216.65 293.73,-208.16 293.39,-218.75 300.07,-216.65"/>
<g id="a_edge12&#45;headlabel"><a xlink:href="dir_000006_000008.html" target="_top" xlink:title="1">
<text text-anchor="middle" x="303.85" y="-216.72" font-family="Helvetica,sans-Serif" font-size="10.00" fill="#63b8ff">1</text>
</a>
</g>
</g>
<!-- dir_0ef45b72fea5c9869a86802e135ecac6&#45;&gt;dir_2f601d846e8e89e376af36b1a1fc90a5 -->
<g id="edge13" class="edge">
<title>dir_0ef45b72fea5c9869a86802e135ecac6&#45;&gt;dir_2f601d846e8e89e376af36b1a1fc90a5</title>
<path fill="none" stroke="#63b8ff" d="M285.41,-188.81C273.48,-169.12 247.57,-119.67 260,-79 263.09,-68.9 269.32,-59.02 275.31,-51.15"/>
<polygon fill="#63b8ff" stroke="#63b8ff" points="278.18,-53.16 281.79,-43.2 272.76,-48.74 278.18,-53.16"/>
<g id="a_edge13&#45;headlabel"><a xlink:href="dir_000008_000009.html" target="_top" xlink:title="14">
<text text-anchor="middle" x="278.11" y="-55.24" font-family="Helvetica,sans-Serif" font-size="10.00" fill="#63b8ff">14</text>
</a>
</g>
</g>
<!-- dir_b54a0349da47a31968b20ffcc6408a68 -->
<g id="node11" class="node">
<title>dir_b54a0349da47a31968b20ffcc6408a68</title>
<g id="a_node11"><a xlink:href="dir_b54a0349da47a31968b20ffcc6408a68.html" target="_top" xlink:title="types">
<polygon fill="#dfdff1" stroke="#404040" points="313,-98 269,-98 269,-79 313,-79 313,-98"/>
<text text-anchor="middle" x="291" y="-86" font-family="Helvetica,sans-Serif" font-size="10.00">types</text>
</a>
</g>
</g>
<!-- dir_0ef45b72fea5c9869a86802e135ecac6&#45;&gt;dir_b54a0349da47a31968b20ffcc6408a68 -->
<g id="edge15" class="edge">
<title>dir_0ef45b72fea5c9869a86802e135ecac6&#45;&gt;dir_b54a0349da47a31968b20ffcc6408a68</title>
<path fill="none" stroke="#63b8ff" d="M289.76,-188.99C288.52,-180.05 286.7,-165.57 286,-153 285.16,-137.95 286.63,-120.93 288.19,-108.3"/>
<polygon fill="#63b8ff" stroke="#63b8ff" points="291.69,-108.5 289.58,-98.12 284.76,-107.55 291.69,-108.5"/>
<g id="a_edge15&#45;headlabel"><a xlink:href="dir_000008_000012.html" target="_top" xlink:title="4">
<text text-anchor="middle" x="294.02" y="-109.95" font-family="Helvetica,sans-Serif" font-size="10.00" fill="#63b8ff">4</text>
</a>
</g>
</g>
<!-- dir_70a81ec388f1d1f75a6a48d933a79dd6 -->
<g id="node12" class="node">
<title>dir_70a81ec388f1d1f75a6a48d933a79dd6</title>
<g id="a_node12"><a xlink:href="dir_70a81ec388f1d1f75a6a48d933a79dd6.html" target="_top" xlink:title="utils">
<polygon fill="#dfdff1" stroke="#404040" points="333,-153 295,-153 295,-134 333,-134 333,-153"/>
<text text-anchor="middle" x="314" y="-141" font-family="Helvetica,sans-Serif" font-size="10.00">utils</text>
</a>
</g>
</g>
<!-- dir_0ef45b72fea5c9869a86802e135ecac6&#45;&gt;dir_70a81ec388f1d1f75a6a48d933a79dd6 -->
<g id="edge14" class="edge">
<title>dir_0ef45b72fea5c9869a86802e135ecac6&#45;&gt;dir_70a81ec388f1d1f75a6a48d933a79dd6</title>
<path fill="none" stroke="#63b8ff" d="M294.8,-188.75C297.91,-181.57 302.42,-171.18 306.29,-162.27"/>
<polygon fill="#63b8ff" stroke="#63b8ff" points="309.5,-163.66 310.27,-153.09 303.08,-160.87 309.5,-163.66"/>
<g id="a_edge14&#45;headlabel"><a xlink:href="dir_000008_000013.html" target="_top" xlink:title="4">
<text text-anchor="middle" x="310.68" y="-165.58" font-family="Helvetica,sans-Serif" font-size="10.00" fill="#63b8ff">4</text>
</a>
</g>
</g>
<!-- dir_b54a0349da47a31968b20ffcc6408a68&#45;&gt;dir_2f601d846e8e89e376af36b1a1fc90a5 -->
<g id="edge16" class="edge">
<title>dir_b54a0349da47a31968b20ffcc6408a68&#45;&gt;dir_2f601d846e8e89e376af36b1a1fc90a5</title>
<path fill="none" stroke="#63b8ff" d="M290.83,-78.75C290.7,-71.8 290.52,-61.85 290.35,-53.13"/>
<polygon fill="#63b8ff" stroke="#63b8ff" points="293.85,-53.02 290.16,-43.09 286.85,-53.15 293.85,-53.02"/>
<g id="a_edge16&#45;headlabel"><a xlink:href="dir_000012_000009.html" target="_top" xlink:title="4">
<text text-anchor="middle" x="296.76" y="-54.06" font-family="Helvetica,sans-Serif" font-size="10.00" fill="#63b8ff">4</text>
</a>
</g>
</g>
<!-- dir_70a81ec388f1d1f75a6a48d933a79dd6&#45;&gt;dir_2f601d846e8e89e376af36b1a1fc90a5 -->
<g id="edge17" class="edge">
<title>dir_70a81ec388f1d1f75a6a48d933a79dd6&#45;&gt;dir_2f601d846e8e89e376af36b1a1fc90a5</title>
<path fill="none" stroke="#63b8ff" d="M317.46,-133.65C321.83,-121.17 328.07,-97.83 322,-79 318.66,-68.62 311.9,-58.62 305.45,-50.74"/>
<polygon fill="#63b8ff" stroke="#63b8ff" points="307.97,-48.31 298.75,-43.1 302.71,-52.92 307.97,-48.31"/>
<g id="a_edge17&#45;headlabel"><a xlink:href="dir_000013_000009.html" target="_top" xlink:title="6">
<text text-anchor="middle" x="312.48" y="-46.64" font-family="Helvetica,sans-Serif" font-size="10.00" fill="#63b8ff">6</text>
</a>
</g>
</g>
<!-- dir_70a81ec388f1d1f75a6a48d933a79dd6&#45;&gt;dir_b54a0349da47a31968b20ffcc6408a68 -->
<g id="edge18" class="edge">
<title>dir_70a81ec388f1d1f75a6a48d933a79dd6&#45;&gt;dir_b54a0349da47a31968b20ffcc6408a68</title>
<path fill="none" stroke="#63b8ff" d="M310.2,-133.75C307.09,-126.57 302.58,-116.18 298.71,-107.27"/>
<polygon fill="#63b8ff" stroke="#63b8ff" points="301.92,-105.87 294.73,-98.09 295.5,-108.66 301.92,-105.87"/>
<g id="a_edge18&#45;headlabel"><a xlink:href="dir_000013_000012.html" target="_top" xlink:title="1">
<text text-anchor="middle" x="305.95" y="-105.54" font-family="Helvetica,sans-Serif" font-size="10.00" fill="#63b8ff">1</text>
</a>
</g>
</g>
</g>
</svg>
