<?xml version="1.0" encoding="UTF-8" standalone="no"?>
<!DOCTYPE svg PUBLIC "-//W3C//DTD SVG 1.1//EN"
 "http://www.w3.org/Graphics/SVG/1.1/DTD/svg11.dtd">
<!-- Generated by graphviz version 2.43.0 (0)
 -->
<!-- Title: src/analyze.c Pages: 1 -->
<svg width="839pt" height="137pt"
 viewBox="0.00 0.00 839.00 137.00" xmlns="http://www.w3.org/2000/svg" xmlns:xlink="http://www.w3.org/1999/xlink">
<g id="graph0" class="graph" transform="scale(1 1) rotate(0) translate(4 133)">
<title>src/analyze.c</title>
<!-- Node1 -->
<g id="node1" class="node">
<title>Node1</title>
<g id="a_node1"><a xlink:title=" ">
<polygon fill="#999999" stroke="#666666" points="464,-129 384,-129 384,-110 464,-110 464,-129"/>
<text text-anchor="middle" x="424" y="-117" font-family="Helvetica,sans-Serif" font-size="10.00">src/analyze.c</text>
</a>
</g>
</g>
<!-- Node2 -->
<g id="node2" class="node">
<title>Node2</title>
<g id="a_node2"><a xlink:title=" ">
<polygon fill="#e0e0e0" stroke="#999999" points="50,-74 0,-74 0,-55 50,-55 50,-74"/>
<text text-anchor="middle" x="25" y="-62" font-family="Helvetica,sans-Serif" font-size="10.00">stdio.h</text>
</a>
</g>
</g>
<!-- Node1&#45;&gt;Node2 -->
<g id="edge1" class="edge">
<title>Node1&#45;&gt;Node2</title>
<path fill="none" stroke="#63b8ff" d="M383.79,-115.24C318.06,-109.55 183.41,-96.4 60.16,-74"/>
<polygon fill="#63b8ff" stroke="#63b8ff" points="60.64,-70.53 50.18,-72.16 59.38,-77.42 60.64,-70.53"/>
</g>
<!-- Node3 -->
<g id="node3" class="node">
<title>Node3</title>
<g id="a_node3"><a xlink:title=" ">
<polygon fill="#e0e0e0" stroke="#999999" points="121.5,-74 68.5,-74 68.5,-55 121.5,-55 121.5,-74"/>
<text text-anchor="middle" x="95" y="-62" font-family="Helvetica,sans-Serif" font-size="10.00">stdlib.h</text>
</a>
</g>
</g>
<!-- Node1&#45;&gt;Node3 -->
<g id="edge2" class="edge">
<title>Node1&#45;&gt;Node3</title>
<path fill="none" stroke="#63b8ff" d="M383.54,-113.41C328.73,-106.29 227.66,-92.33 131.57,-73.96"/>
<polygon fill="#63b8ff" stroke="#63b8ff" points="132.17,-70.51 121.68,-72.05 130.84,-77.39 132.17,-70.51"/>
</g>
<!-- Node4 -->
<g id="node4" class="node">
<title>Node4</title>
<g id="a_node4"><a xlink:title=" ">
<polygon fill="#e0e0e0" stroke="#999999" points="190.5,-74 139.5,-74 139.5,-55 190.5,-55 190.5,-74"/>
<text text-anchor="middle" x="165" y="-62" font-family="Helvetica,sans-Serif" font-size="10.00">errno.h</text>
</a>
</g>
</g>
<!-- Node1&#45;&gt;Node4 -->
<g id="edge3" class="edge">
<title>Node1&#45;&gt;Node4</title>
<path fill="none" stroke="#63b8ff" d="M383.83,-111.05C340.94,-102.97 270.74,-89.43 200.49,-74.03"/>
<polygon fill="#63b8ff" stroke="#63b8ff" points="201.1,-70.58 190.59,-71.85 199.6,-77.42 201.1,-70.58"/>
</g>
<!-- Node5 -->
<g id="node5" class="node">
<title>Node5</title>
<g id="a_node5"><a xlink:title=" ">
<polygon fill="#e0e0e0" stroke="#999999" points="261.5,-74 208.5,-74 208.5,-55 261.5,-55 261.5,-74"/>
<text text-anchor="middle" x="235" y="-62" font-family="Helvetica,sans-Serif" font-size="10.00">string.h</text>
</a>
</g>
</g>
<!-- Node1&#45;&gt;Node5 -->
<g id="edge4" class="edge">
<title>Node1&#45;&gt;Node5</title>
<path fill="none" stroke="#63b8ff" d="M393.63,-109.98C360.39,-100.66 307.11,-85.72 271.59,-75.76"/>
<polygon fill="#63b8ff" stroke="#63b8ff" points="272.2,-72.3 261.63,-72.97 270.31,-79.04 272.2,-72.3"/>
</g>
<!-- Node6 -->
<g id="node6" class="node">
<title>Node6</title>
<g id="a_node6"><a xlink:title=" ">
<polygon fill="#e0e0e0" stroke="#999999" points="342,-74 280,-74 280,-55 342,-55 342,-74"/>
<text text-anchor="middle" x="311" y="-62" font-family="Helvetica,sans-Serif" font-size="10.00">stdbool.h</text>
</a>
</g>
</g>
<!-- Node1&#45;&gt;Node6 -->
<g id="edge5" class="edge">
<title>Node1&#45;&gt;Node6</title>
<path fill="none" stroke="#63b8ff" d="M405.84,-109.98C387.75,-101.5 359.72,-88.35 338.81,-78.54"/>
<polygon fill="#63b8ff" stroke="#63b8ff" points="340.03,-75.25 329.49,-74.17 337.05,-81.59 340.03,-75.25"/>
</g>
<!-- Node7 -->
<g id="node7" class="node">
<title>Node7</title>
<g id="a_node7"><a xlink:title=" ">
<polygon fill="#e0e0e0" stroke="#999999" points="415.5,-74 360.5,-74 360.5,-55 415.5,-55 415.5,-74"/>
<text text-anchor="middle" x="388" y="-62" font-family="Helvetica,sans-Serif" font-size="10.00">locale.h</text>
</a>
</g>
</g>
<!-- Node1&#45;&gt;Node7 -->
<g id="edge6" class="edge">
<title>Node1&#45;&gt;Node7</title>
<path fill="none" stroke="#63b8ff" d="M418.06,-109.75C413.02,-102.34 405.66,-91.5 399.49,-82.41"/>
<polygon fill="#63b8ff" stroke="#63b8ff" points="402.35,-80.39 393.83,-74.09 396.56,-84.33 402.35,-80.39"/>
</g>
<!-- Node8 -->
<g id="node8" class="node">
<title>Node8</title>
<g id="a_node8"><a xlink:title=" ">
<polygon fill="#e0e0e0" stroke="#999999" points="486.5,-74 433.5,-74 433.5,-55 486.5,-55 486.5,-74"/>
<text text-anchor="middle" x="460" y="-62" font-family="Helvetica,sans-Serif" font-size="10.00">limits.h</text>
</a>
</g>
</g>
<!-- Node1&#45;&gt;Node8 -->
<g id="edge7" class="edge">
<title>Node1&#45;&gt;Node8</title>
<path fill="none" stroke="#63b8ff" d="M429.94,-109.75C434.98,-102.34 442.34,-91.5 448.51,-82.41"/>
<polygon fill="#63b8ff" stroke="#63b8ff" points="451.44,-84.33 454.17,-74.09 445.65,-80.39 451.44,-84.33"/>
</g>
<!-- Node9 -->
<g id="node9" class="node">
<title>Node9</title>
<g id="a_node9"><a xlink:title=" ">
<polygon fill="#e0e0e0" stroke="#999999" points="645,-19 589,-19 589,0 645,0 645,-19"/>
<text text-anchor="middle" x="617" y="-7" font-family="Helvetica,sans-Serif" font-size="10.00">stddef.h</text>
</a>
</g>
</g>
<!-- Node1&#45;&gt;Node9 -->
<g id="edge8" class="edge">
<title>Node1&#45;&gt;Node9</title>
<path fill="none" stroke="#63b8ff" d="M438.66,-109.97C459.85,-97.68 500.29,-74.35 535,-55 554.04,-44.39 575.73,-32.63 592.01,-23.87"/>
<polygon fill="#63b8ff" stroke="#63b8ff" points="593.76,-26.91 600.92,-19.09 590.45,-20.74 593.76,-26.91"/>
</g>
<!-- Node10 -->
<g id="node10" class="node">
<title>Node10</title>
<g id="a_node10"><a xlink:title=" ">
<polygon fill="#e0e0e0" stroke="#999999" points="596.5,-74 543.5,-74 543.5,-55 596.5,-55 596.5,-74"/>
<text text-anchor="middle" x="570" y="-62" font-family="Helvetica,sans-Serif" font-size="10.00">stdint.h</text>
</a>
</g>
</g>
<!-- Node1&#45;&gt;Node10 -->
<g id="edge9" class="edge">
<title>Node1&#45;&gt;Node10</title>
<path fill="none" stroke="#63b8ff" d="M447.46,-109.98C471.58,-101.23 509.37,-87.51 536.6,-77.62"/>
<polygon fill="#63b8ff" stroke="#63b8ff" points="537.91,-80.87 546.12,-74.17 535.52,-74.29 537.91,-80.87"/>
</g>
<!-- Node11 -->
<g id="node11" class="node">
<title>Node11</title>
<g id="a_node11"><a xlink:title=" ">
<polygon fill="#e0e0e0" stroke="#999999" points="669,-74 615,-74 615,-55 669,-55 669,-74"/>
<text text-anchor="middle" x="642" y="-62" font-family="Helvetica,sans-Serif" font-size="10.00">wchar.h</text>
</a>
</g>
</g>
<!-- Node1&#45;&gt;Node11 -->
<g id="edge10" class="edge">
<title>Node1&#45;&gt;Node11</title>
<path fill="none" stroke="#63b8ff" d="M459.03,-109.98C499.08,-100.25 564.37,-84.37 605.17,-74.46"/>
<polygon fill="#63b8ff" stroke="#63b8ff" points="606.09,-77.83 614.98,-72.07 604.44,-71.03 606.09,-77.83"/>
</g>
<!-- Node12 -->
<g id="node12" class="node">
<title>Node12</title>
<g id="a_node12"><a xlink:href="../../d8/d07/analyze_8h.html" target="_top" xlink:title=" ">
<polygon fill="white" stroke="#666666" points="751,-74 687,-74 687,-55 751,-55 751,-74"/>
<text text-anchor="middle" x="719" y="-62" font-family="Helvetica,sans-Serif" font-size="10.00">analyze.h</text>
</a>
</g>
</g>
<!-- Node1&#45;&gt;Node12 -->
<g id="edge11" class="edge">
<title>Node1&#45;&gt;Node12</title>
<path fill="none" stroke="#63b8ff" d="M464.1,-111.87C512.26,-103.82 595.74,-89.59 676.91,-74.16"/>
<polygon fill="#63b8ff" stroke="#63b8ff" points="677.62,-77.59 686.79,-72.28 676.31,-70.71 677.62,-77.59"/>
</g>
<!-- Node13 -->
<g id="node13" class="node">
<title>Node13</title>
<g id="a_node13"><a xlink:href="../../d7/d5b/fileMan_8h.html" target="_top" xlink:title="This header contains macro definitions and function declarations that are written in this file.">
<polygon fill="white" stroke="#666666" points="831,-74 769,-74 769,-55 831,-55 831,-74"/>
<text text-anchor="middle" x="800" y="-62" font-family="Helvetica,sans-Serif" font-size="10.00">fileMan.h</text>
</a>
</g>
</g>
<!-- Node1&#45;&gt;Node13 -->
<g id="edge13" class="edge">
<title>Node1&#45;&gt;Node13</title>
<path fill="none" stroke="#63b8ff" d="M464.24,-114.19C525.59,-107.41 646.39,-93.17 758.48,-74.15"/>
<polygon fill="#63b8ff" stroke="#63b8ff" points="759.34,-77.55 768.6,-72.41 758.15,-70.65 759.34,-77.55"/>
</g>
<!-- Node12&#45;&gt;Node9 -->
<g id="edge12" class="edge">
<title>Node12&#45;&gt;Node9</title>
<path fill="none" stroke="#63b8ff" d="M702.61,-54.98C686.43,-46.57 661.43,-33.59 642.62,-23.81"/>
<polygon fill="#63b8ff" stroke="#63b8ff" points="644.17,-20.68 633.69,-19.17 640.95,-26.89 644.17,-20.68"/>
</g>
</g>
</svg>
