<?xml version="1.0" encoding="UTF-8" standalone="no"?>
<!DOCTYPE svg PUBLIC "-//W3C//DTD SVG 1.1//EN"
 "http://www.w3.org/Graphics/SVG/1.1/DTD/svg11.dtd">
<!-- Generated by graphviz version 2.43.0 (0)
 -->
<!-- Title: FMC_FUNC_NONNULL Pages: 1 -->
<svg width="515pt" height="161pt"
 viewBox="0.00 0.00 515.00 161.00" xmlns="http://www.w3.org/2000/svg" xmlns:xlink="http://www.w3.org/1999/xlink">
<g id="graph0" class="graph" transform="scale(1 1) rotate(0) translate(4 157)">
<title>FMC_FUNC_NONNULL</title>
<!-- Node1 -->
<g id="node1" class="node">
<title>Node1</title>
<g id="a_node1"><a xlink:title=" ">
<polygon fill="#999999" stroke="#666666" points="125,-85.5 0,-85.5 0,-66.5 125,-66.5 125,-85.5"/>
<text text-anchor="middle" x="62.5" y="-73.5" font-family="Helvetica,sans-Serif" font-size="10.00">FMC_FUNC_NONNULL</text>
</a>
</g>
</g>
<!-- Node2 -->
<g id="node2" class="node">
<title>Node2</title>
<g id="a_node2"><a xlink:href="../../dd/ddf/FMC__errors_8h.html#a6f3db48b5173e8c1c93b0080aa95fa61" target="_top" xlink:title=" ">
<polygon fill="white" stroke="#666666" points="304,-104.5 167,-104.5 167,-85.5 304,-85.5 304,-104.5"/>
<text text-anchor="middle" x="235.5" y="-92.5" font-family="Helvetica,sans-Serif" font-size="10.00">FMC_printBrightRedError</text>
</a>
</g>
</g>
<!-- Node1&#45;&gt;Node2 -->
<g id="edge1" class="edge">
<title>Node1&#45;&gt;Node2</title>
<path fill="none" stroke="#63b8ff" d="M125.23,-82.86C135.46,-84 146.17,-85.19 156.73,-86.36"/>
<polygon fill="#63b8ff" stroke="#63b8ff" points="156.45,-89.85 166.78,-87.48 157.23,-82.89 156.45,-89.85"/>
</g>
<!-- Node6 -->
<g id="node6" class="node">
<title>Node6</title>
<g id="a_node6"><a xlink:href="../../dd/ddf/FMC__errors_8h.html#a2cca9e193cad8105bb9196ffdbcb45a7" target="_top" xlink:title=" ">
<polygon fill="white" stroke="#666666" points="310,-67.5 161,-67.5 161,-48.5 310,-48.5 310,-67.5"/>
<text text-anchor="middle" x="235.5" y="-55.5" font-family="Helvetica,sans-Serif" font-size="10.00">FMC_printBrightYellowError</text>
</a>
</g>
</g>
<!-- Node1&#45;&gt;Node6 -->
<g id="edge5" class="edge">
<title>Node1&#45;&gt;Node6</title>
<path fill="none" stroke="#63b8ff" d="M125.23,-69.5C133.55,-68.63 142.2,-67.72 150.82,-66.81"/>
<polygon fill="#63b8ff" stroke="#63b8ff" points="151.33,-70.27 160.91,-65.75 150.6,-63.31 151.33,-70.27"/>
</g>
<!-- Node3 -->
<g id="node3" class="node">
<title>Node3</title>
<g id="a_node3"><a xlink:href="../../dd/ddf/FMC__errors_8h.html#ac23433edede3d30268228d5718862b2f" target="_top" xlink:title=" ">
<polygon fill="white" stroke="#666666" points="506.5,-153 346.5,-153 346.5,-123 506.5,-123 506.5,-153"/>
<text text-anchor="start" x="354.5" y="-141" font-family="Helvetica,sans-Serif" font-size="10.00">FMC_changeStreamTextColor</text>
<text text-anchor="middle" x="426.5" y="-130" font-family="Helvetica,sans-Serif" font-size="10.00">ToBrightRed</text>
</a>
</g>
</g>
<!-- Node2&#45;&gt;Node3 -->
<g id="edge2" class="edge">
<title>Node2&#45;&gt;Node3</title>
<path fill="none" stroke="#63b8ff" d="M278.45,-104.54C299.38,-109.31 325.35,-115.22 349.63,-120.74"/>
<polygon fill="#63b8ff" stroke="#63b8ff" points="349.01,-124.19 359.54,-122.99 350.57,-117.36 349.01,-124.19"/>
</g>
<!-- Node4 -->
<g id="node4" class="node">
<title>Node4</title>
<g id="a_node4"><a xlink:href="../../dd/ddf/FMC__errors_8h.html#af11b1f617ef7bc80184285957c3aeee0" target="_top" xlink:title=" ">
<polygon fill="white" stroke="#666666" points="507,-104.5 346,-104.5 346,-85.5 507,-85.5 507,-104.5"/>
<text text-anchor="middle" x="426.5" y="-92.5" font-family="Helvetica,sans-Serif" font-size="10.00">FMC_resetStreamOutputStyle</text>
</a>
</g>
</g>
<!-- Node2&#45;&gt;Node4 -->
<g id="edge3" class="edge">
<title>Node2&#45;&gt;Node4</title>
<path fill="none" stroke="#63b8ff" d="M304.2,-95C314.39,-95 325.04,-95 335.61,-95"/>
<polygon fill="#63b8ff" stroke="#63b8ff" points="335.71,-98.5 345.71,-95 335.71,-91.5 335.71,-98.5"/>
</g>
<!-- Node5 -->
<g id="node5" class="node">
<title>Node5</title>
<g id="a_node5"><a xlink:href="../../dd/ddf/FMC__errors_8h.html#a33a1a2c6f6a143bc6a836ef37778a07f" target="_top" xlink:title=" ">
<polygon fill="white" stroke="#666666" points="494.5,-67.5 358.5,-67.5 358.5,-48.5 494.5,-48.5 494.5,-67.5"/>
<text text-anchor="middle" x="426.5" y="-55.5" font-family="Helvetica,sans-Serif" font-size="10.00">FMC_setTextStyleToBold</text>
</a>
</g>
</g>
<!-- Node2&#45;&gt;Node5 -->
<g id="edge4" class="edge">
<title>Node2&#45;&gt;Node5</title>
<path fill="none" stroke="#63b8ff" d="M285.17,-85.47C310.1,-80.59 340.63,-74.61 366.85,-69.48"/>
<polygon fill="#63b8ff" stroke="#63b8ff" points="367.52,-72.92 376.66,-67.56 366.18,-66.05 367.52,-72.92"/>
</g>
<!-- Node6&#45;&gt;Node4 -->
<g id="edge7" class="edge">
<title>Node6&#45;&gt;Node4</title>
<path fill="none" stroke="#63b8ff" d="M285.17,-67.53C310.1,-72.41 340.63,-78.39 366.85,-83.52"/>
<polygon fill="#63b8ff" stroke="#63b8ff" points="366.18,-86.95 376.66,-85.44 367.52,-80.08 366.18,-86.95"/>
</g>
<!-- Node6&#45;&gt;Node5 -->
<g id="edge8" class="edge">
<title>Node6&#45;&gt;Node5</title>
<path fill="none" stroke="#63b8ff" d="M310.11,-58C322.5,-58 335.4,-58 347.88,-58"/>
<polygon fill="#63b8ff" stroke="#63b8ff" points="348.26,-61.5 358.26,-58 348.26,-54.5 348.26,-61.5"/>
</g>
<!-- Node7 -->
<g id="node7" class="node">
<title>Node7</title>
<g id="a_node7"><a xlink:href="../../dd/ddf/FMC__errors_8h.html#ab3c0b7aa180c19747600cb8854bfa503" target="_top" xlink:title=" ">
<polygon fill="white" stroke="#666666" points="506.5,-30 346.5,-30 346.5,0 506.5,0 506.5,-30"/>
<text text-anchor="start" x="354.5" y="-18" font-family="Helvetica,sans-Serif" font-size="10.00">FMC_changeStreamTextColor</text>
<text text-anchor="middle" x="426.5" y="-7" font-family="Helvetica,sans-Serif" font-size="10.00">ToBrightYellow</text>
</a>
</g>
</g>
<!-- Node6&#45;&gt;Node7 -->
<g id="edge6" class="edge">
<title>Node6&#45;&gt;Node7</title>
<path fill="none" stroke="#63b8ff" d="M278.45,-48.46C299.38,-43.69 325.35,-37.78 349.63,-32.26"/>
<polygon fill="#63b8ff" stroke="#63b8ff" points="350.57,-35.64 359.54,-30.01 349.01,-28.81 350.57,-35.64"/>
</g>
</g>
</svg>
