<?xml version="1.0" encoding="UTF-8" standalone="no"?>
<!DOCTYPE svg PUBLIC "-//W3C//DTD SVG 1.1//EN"
 "http://www.w3.org/Graphics/SVG/1.1/DTD/svg11.dtd">
<!-- Generated by graphviz version 7.1.0 (20230121.1956)
 -->
<!-- Title: src/general/preprocessor/FMC_attributes.h Pages: 1 -->
<!--zoomable 478 -->
<svg id="main" version="1.1" xmlns="http://www.w3.org/2000/svg" xmlns:xlink="http://www.w3.org/1999/xlink" xml:space="preserve" onload="init(evt)">
<style type="text/css"><![CDATA[
.edge:hover path { stroke: red; }
.edge:hover polygon { stroke: red; fill: red; }
]]></style>
<script type="text/javascript"><![CDATA[
var edges = document.getElementsByTagName('g');
if (edges && edges.length) {
  for (var i=0;i<edges.length;i++) {
    if (edges[i].id.substr(0,4)=='edge') {
      edges[i].setAttribute('class','edge');
    }
  }
}
]]></script>
        <defs>
                <circle id="rim" cx="0" cy="0" r="7"/>
                <circle id="rim2" cx="0" cy="0" r="3.5"/>
                <g id="zoomPlus">
                        <use xlink:href="#rim" fill="#404040">
                                <set attributeName="fill" to="#808080" begin="zoomplus.mouseover" end="zoomplus.mouseout"/>
                        </use>
                        <path d="M-4,0h8M0,-4v8" fill="none" stroke="white" stroke-width="1.5" pointer-events="none"/>
                </g>
                <g id="zoomMin">
                        <use xlink:href="#rim" fill="#404040">
                                <set attributeName="fill" to="#808080" begin="zoomminus.mouseover" end="zoomminus.mouseout"/>
                        </use>
                        <path d="M-4,0h8" fill="none" stroke="white" stroke-width="1.5" pointer-events="none"/>
                </g>
                <g id="dirArrow">
                        <path fill="none" stroke="white" stroke-width="1.5" d="M0,-3.0v7 M-2.5,-0.5L0,-3.0L2.5,-0.5"/>
                </g>
               <g id="resetDef">
                       <use xlink:href="#rim2" fill="#404040">
                               <set attributeName="fill" to="#808080" begin="reset.mouseover" end="reset.mouseout"/>
                       </use>
               </g>
        </defs>

<script type="text/javascript">
var viewWidth = 869;
var viewHeight = 478;
var sectionId = 'dynsection-1';
</script>
<script xlink:href="../../svgpan.js"/>
<svg id="graph" class="graph">
<g id="viewport">
<title>src/general/preprocessor/FMC_attributes.h</title>
<!-- Node1 -->
<g id="node1" class="node">
<title>Node1</title>
<g id="a_node1"><a xlink:title=" ">
<polygon fill="#999999" stroke="#666666" points="490,-470 366,-470 366,-440 490,-440 490,-470"/>
<text text-anchor="start" x="374" y="-458" font-family="Helvetica,sans-Serif" font-size="10.00">src/general/preprocessor</text>
<text text-anchor="middle" x="428" y="-447" font-family="Helvetica,sans-Serif" font-size="10.00">/FMC_attributes.h</text>
</a>
</g>
</g>
<!-- Node2 -->
<g id="node2" class="node">
<title>Node2</title>
<g id="a_node2"><a xlink:href="../../d0/d07/_f_m_c__macros_8h.html" target="_top" xlink:title=" ">
<polygon fill="white" stroke="#666666" points="490,-404 366,-404 366,-374 490,-374 490,-404"/>
<text text-anchor="start" x="374" y="-392" font-family="Helvetica,sans-Serif" font-size="10.00">src/general/preprocessor</text>
<text text-anchor="middle" x="428" y="-381" font-family="Helvetica,sans-Serif" font-size="10.00">/FMC_macros.h</text>
</a>
</g>
</g>
<!-- Node1&#45;&gt;Node2 -->
<g id="edge1" class="edge">
<title>Node1&#45;&gt;Node2</title>
<path fill="none" stroke="#63b8ff" d="M421.37,-428.39C421.05,-420.13 421.36,-411.28 422.29,-404.16"/>
<polygon fill="#63b8ff" stroke="#63b8ff" points="417.88,-428.6 422.16,-438.29 424.85,-428.04 417.88,-428.6"/>
</g>
<!-- Node22 -->
<g id="node22" class="node">
<title>Node22</title>
<g id="a_node22"><a xlink:href="../../d8/d32/_f_m_c__deprecated_8h.html" target="_top" xlink:title=" ">
<polygon fill="white" stroke="#666666" points="695,-404 585,-404 585,-374 695,-374 695,-404"/>
<text text-anchor="start" x="593" y="-392" font-family="Helvetica,sans-Serif" font-size="10.00">src/general/utils/FMC</text>
<text text-anchor="middle" x="640" y="-381" font-family="Helvetica,sans-Serif" font-size="10.00">_deprecated.h</text>
</a>
</g>
</g>
<!-- Node1&#45;&gt;Node22 -->
<g id="edge36" class="edge">
<title>Node1&#45;&gt;Node22</title>
<path fill="none" stroke="#63b8ff" d="M486.8,-436.25C520.05,-426.21 561.1,-413.82 592.33,-404.39"/>
<polygon fill="#63b8ff" stroke="#63b8ff" points="485.85,-432.88 477.29,-439.12 487.88,-439.58 485.85,-432.88"/>
</g>
<!-- Node2&#45;&gt;Node1 -->
<g id="edge20" class="edge">
<title>Node2&#45;&gt;Node1</title>
<path fill="none" stroke="#63b8ff" d="M434.63,-415.56C434.95,-423.82 434.64,-432.67 433.72,-439.8"/>
<polygon fill="#63b8ff" stroke="#63b8ff" points="438.12,-415.36 433.84,-405.67 431.14,-415.92 438.12,-415.36"/>
</g>
<!-- Node3 -->
<g id="node3" class="node">
<title>Node3</title>
<g id="a_node3"><a xlink:href="../../de/d04/_f_m_c__wrapper_8h.html" target="_top" xlink:title=" ">
<polygon fill="white" stroke="#666666" points="142,-332.5 22,-332.5 22,-313.5 142,-313.5 142,-332.5"/>
<text text-anchor="middle" x="82" y="-320.5" font-family="Helvetica,sans-Serif" font-size="10.00">src/cpp/FMC_wrapper.h</text>
</a>
</g>
</g>
<!-- Node2&#45;&gt;Node3 -->
<g id="edge2" class="edge">
<title>Node2&#45;&gt;Node3</title>
<path fill="none" stroke="#63b8ff" d="M354.6,-374.61C299.85,-364.6 223.23,-350.54 156,-338 147.39,-336.39 138.22,-334.67 129.37,-333"/>
<polygon fill="#63b8ff" stroke="#63b8ff" points="353.64,-378 364.11,-376.35 354.9,-371.11 353.64,-378"/>
</g>
<!-- Node6 -->
<g id="node6" class="node">
<title>Node6</title>
<g id="a_node6"><a xlink:href="../../d2/db5/_f_m_c__general_8h.html" target="_top" xlink:title=" ">
<polygon fill="white" stroke="#666666" points="410,-206 276,-206 276,-187 410,-187 410,-206"/>
<text text-anchor="middle" x="343" y="-194" font-family="Helvetica,sans-Serif" font-size="10.00">src/general/FMC_general.h</text>
</a>
</g>
</g>
<!-- Node2&#45;&gt;Node6 -->
<g id="edge5" class="edge">
<title>Node2&#45;&gt;Node6</title>
<path fill="none" stroke="#63b8ff" d="M354.4,-382.6C292.06,-376.31 209.6,-363.36 189,-338 164.44,-307.77 215.76,-249.24 224,-242 244.47,-224.03 272.88,-213.04 296.81,-206.48"/>
<polygon fill="#63b8ff" stroke="#63b8ff" points="353.99,-386.07 364.28,-383.55 354.66,-379.11 353.99,-386.07"/>
</g>
<!-- Node16 -->
<g id="node16" class="node">
<title>Node16</title>
<g id="a_node16"><a xlink:href="../../d9/dab/_f_m_c__enums_8h.html" target="_top" xlink:title=" ">
<polygon fill="white" stroke="#666666" points="314,-338 198,-338 198,-308 314,-308 314,-338"/>
<text text-anchor="start" x="206" y="-326" font-family="Helvetica,sans-Serif" font-size="10.00">src/general/types/FMC</text>
<text text-anchor="middle" x="256" y="-315" font-family="Helvetica,sans-Serif" font-size="10.00">_enums.h</text>
</a>
</g>
</g>
<!-- Node2&#45;&gt;Node16 -->
<g id="edge21" class="edge">
<title>Node2&#45;&gt;Node16</title>
<path fill="none" stroke="#63b8ff" d="M378.74,-369.67C352.08,-359.75 319.61,-347.67 294.77,-338.43"/>
<polygon fill="#63b8ff" stroke="#63b8ff" points="377.39,-372.9 387.98,-373.11 379.83,-366.34 377.39,-372.9"/>
</g>
<!-- Node17 -->
<g id="node17" class="node">
<title>Node17</title>
<g id="a_node17"><a xlink:href="../../d5/d7a/_f_m_c__structs_8h.html" target="_top" xlink:title=" ">
<polygon fill="white" stroke="#666666" points="358,-272 242,-272 242,-242 358,-242 358,-272"/>
<text text-anchor="start" x="250" y="-260" font-family="Helvetica,sans-Serif" font-size="10.00">src/general/types/FMC</text>
<text text-anchor="middle" x="300" y="-249" font-family="Helvetica,sans-Serif" font-size="10.00">_structs.h</text>
</a>
</g>
</g>
<!-- Node2&#45;&gt;Node17 -->
<g id="edge25" class="edge">
<title>Node2&#45;&gt;Node17</title>
<path fill="none" stroke="#63b8ff" d="M396.24,-367.07C384.58,-358.69 371.64,-348.53 361,-338 340.02,-317.24 320.16,-289.02 309.08,-272.24"/>
<polygon fill="#63b8ff" stroke="#63b8ff" points="394.21,-369.92 404.41,-372.79 398.23,-364.19 394.21,-369.92"/>
</g>
<!-- Node18 -->
<g id="node18" class="node">
<title>Node18</title>
<g id="a_node18"><a xlink:href="../../df/dc3/_f_m_c__typedefs_8h.html" target="_top" xlink:title=" ">
<polygon fill="white" stroke="#666666" points="486,-338 370,-338 370,-308 486,-308 486,-338"/>
<text text-anchor="start" x="378" y="-326" font-family="Helvetica,sans-Serif" font-size="10.00">src/general/types/FMC</text>
<text text-anchor="middle" x="428" y="-315" font-family="Helvetica,sans-Serif" font-size="10.00">_typedefs.h</text>
</a>
</g>
</g>
<!-- Node2&#45;&gt;Node18 -->
<g id="edge26" class="edge">
<title>Node2&#45;&gt;Node18</title>
<path fill="none" stroke="#63b8ff" d="M428,-362.39C428,-354.13 428,-345.28 428,-338.16"/>
<polygon fill="#63b8ff" stroke="#63b8ff" points="424.5,-362.28 428,-372.28 431.5,-362.28 424.5,-362.28"/>
</g>
<!-- Node19 -->
<g id="node19" class="node">
<title>Node19</title>
<g id="a_node19"><a xlink:href="../../de/d83/_f_m_c__globals_8h.html" target="_top" xlink:title=" ">
<polygon fill="white" stroke="#666666" points="524,-272 414,-272 414,-242 524,-242 524,-272"/>
<text text-anchor="start" x="422" y="-260" font-family="Helvetica,sans-Serif" font-size="10.00">src/general/utils/FMC</text>
<text text-anchor="middle" x="469" y="-249" font-family="Helvetica,sans-Serif" font-size="10.00">_globals.h</text>
</a>
</g>
</g>
<!-- Node2&#45;&gt;Node19 -->
<g id="edge35" class="edge">
<title>Node2&#45;&gt;Node19</title>
<path fill="none" stroke="#63b8ff" d="M467.88,-367.44C478.67,-359.76 489.01,-349.94 495,-338 505.93,-316.2 491.54,-288.8 480.21,-272.38"/>
<polygon fill="#63b8ff" stroke="#63b8ff" points="466.11,-364.41 459.64,-372.81 469.93,-370.28 466.11,-364.41"/>
</g>
<!-- Node20 -->
<g id="node20" class="node">
<title>Node20</title>
<g id="a_node20"><a xlink:href="../../d3/d3a/_f_m_c__errors_8c.html" target="_top" xlink:title=" ">
<polygon fill="white" stroke="#666666" points="652,-272 542,-272 542,-242 652,-242 652,-272"/>
<text text-anchor="start" x="550" y="-260" font-family="Helvetica,sans-Serif" font-size="10.00">src/general/utils/FMC</text>
<text text-anchor="middle" x="597" y="-249" font-family="Helvetica,sans-Serif" font-size="10.00">_errors.c</text>
</a>
</g>
</g>
<!-- Node2&#45;&gt;Node20 -->
<g id="edge31" class="edge">
<title>Node2&#45;&gt;Node20</title>
<path fill="none" stroke="#63b8ff" d="M464.91,-367.97C479.69,-359.39 496.59,-348.86 511,-338 538.52,-317.26 567.19,-289.04 583.49,-272.25"/>
<polygon fill="#63b8ff" stroke="#63b8ff" points="463.34,-364.83 456.39,-372.83 466.81,-370.92 463.34,-364.83"/>
</g>
<!-- Node21 -->
<g id="node21" class="node">
<title>Node21</title>
<g id="a_node21"><a xlink:href="../../dc/de1/_f_m_c__errors_8h.html" target="_top" xlink:title=" ">
<polygon fill="white" stroke="#666666" points="690,-338 580,-338 580,-308 690,-308 690,-338"/>
<text text-anchor="start" x="588" y="-326" font-family="Helvetica,sans-Serif" font-size="10.00">src/general/utils/FMC</text>
<text text-anchor="middle" x="635" y="-315" font-family="Helvetica,sans-Serif" font-size="10.00">_errors.h</text>
</a>
</g>
</g>
<!-- Node2&#45;&gt;Node21 -->
<g id="edge32" class="edge">
<title>Node2&#45;&gt;Node21</title>
<path fill="none" stroke="#63b8ff" d="M485.41,-370.25C517.88,-360.21 557.96,-347.82 588.46,-338.39"/>
<polygon fill="#63b8ff" stroke="#63b8ff" points="484.68,-366.81 476.16,-373.11 486.75,-373.5 484.68,-366.81"/>
</g>
<!-- Node4 -->
<g id="node4" class="node">
<title>Node4</title>
<g id="a_node4"><a xlink:href="../../d9/d0f/_f_m_c_8h.html" target="_top" xlink:title=" ">
<polygon fill="white" stroke="#666666" points="159,-19 97,-19 97,0 159,0 159,-19"/>
<text text-anchor="middle" x="128" y="-7" font-family="Helvetica,sans-Serif" font-size="10.00">src/FMC.h</text>
</a>
</g>
</g>
<!-- Node3&#45;&gt;Node4 -->
<g id="edge3" class="edge">
<title>Node3&#45;&gt;Node4</title>
<path fill="none" stroke="#63b8ff" d="M56.13,-307.15C43.18,-298.47 28.32,-286.38 19,-272 0.42,-243.32 0,-231.67 0,-197.5 0,-197.5 0,-197.5 0,-135 0,-76.25 70.14,-36.26 106.58,-19.45"/>
<polygon fill="#63b8ff" stroke="#63b8ff" points="53.93,-309.9 64.26,-312.3 57.68,-303.99 53.93,-309.9"/>
</g>
<!-- Node5 -->
<g id="node5" class="node">
<title>Node5</title>
<g id="a_node5"><a xlink:href="../../d8/ddf/_f_m_c__dir__wrapper_8cpp.html" target="_top" xlink:title=" ">
<polygon fill="white" stroke="#666666" points="141.5,-272 28.5,-272 28.5,-242 141.5,-242 141.5,-272"/>
<text text-anchor="start" x="36.5" y="-260" font-family="Helvetica,sans-Serif" font-size="10.00">src/cpp/FMC_dir/FMC</text>
<text text-anchor="middle" x="85" y="-249" font-family="Helvetica,sans-Serif" font-size="10.00">_dir_wrapper.cpp</text>
</a>
</g>
</g>
<!-- Node3&#45;&gt;Node5 -->
<g id="edge4" class="edge">
<title>Node3&#45;&gt;Node5</title>
<path fill="none" stroke="#63b8ff" d="M82.95,-301.78C83.4,-292.17 83.93,-280.92 84.33,-272.23"/>
<polygon fill="#63b8ff" stroke="#63b8ff" points="79.46,-301.44 82.49,-311.59 86.45,-301.76 79.46,-301.44"/>
</g>
<!-- Node6&#45;&gt;Node4 -->
<g id="edge6" class="edge">
<title>Node6&#45;&gt;Node4</title>
<path fill="none" stroke="#63b8ff" d="M264.18,-190.09C207.89,-184.39 139.06,-173.04 121,-151 88.8,-111.71 113.55,-43.51 123.96,-19.32"/>
<polygon fill="#63b8ff" stroke="#63b8ff" points="263.82,-193.57 274.11,-191.04 264.49,-186.6 263.82,-193.57"/>
</g>
<!-- Node7 -->
<g id="node7" class="node">
<title>Node7</title>
<g id="a_node7"><a xlink:href="../../d7/de5/_f_m_c__code__utils_8h.html" target="_top" xlink:title=" ">
<polygon fill="white" stroke="#666666" points="231.5,-151 130.5,-151 130.5,-121 231.5,-121 231.5,-151"/>
<text text-anchor="start" x="138.5" y="-139" font-family="Helvetica,sans-Serif" font-size="10.00">src/code_utils/FMC</text>
<text text-anchor="middle" x="181" y="-128" font-family="Helvetica,sans-Serif" font-size="10.00">_code_utils.h</text>
</a>
</g>
</g>
<!-- Node6&#45;&gt;Node7 -->
<g id="edge7" class="edge">
<title>Node6&#45;&gt;Node7</title>
<path fill="none" stroke="#63b8ff" d="M307.7,-182.75C282.14,-173.52 247.56,-161.04 220.99,-151.44"/>
<polygon fill="#63b8ff" stroke="#63b8ff" points="306.38,-186 316.97,-186.1 308.76,-179.41 306.38,-186"/>
</g>
<!-- Node8 -->
<g id="node8" class="node">
<title>Node8</title>
<g id="a_node8"><a xlink:href="../../d9/d1f/_f_m_c__encodings_8h.html" target="_top" xlink:title=" ">
<polygon fill="white" stroke="#666666" points="395,-151 257,-151 257,-121 395,-121 395,-151"/>
<text text-anchor="start" x="265" y="-139" font-family="Helvetica,sans-Serif" font-size="10.00">src/data_analyze/encodings</text>
<text text-anchor="middle" x="326" y="-128" font-family="Helvetica,sans-Serif" font-size="10.00">/FMC_encodings.h</text>
</a>
</g>
</g>
<!-- Node6&#45;&gt;Node8 -->
<g id="edge9" class="edge">
<title>Node6&#45;&gt;Node8</title>
<path fill="none" stroke="#63b8ff" d="M337.36,-176.08C334.99,-167.92 332.28,-158.6 330.1,-151.11"/>
<polygon fill="#63b8ff" stroke="#63b8ff" points="333.92,-176.79 340.07,-185.41 340.64,-174.84 333.92,-176.79"/>
</g>
<!-- Node11 -->
<g id="node11" class="node">
<title>Node11</title>
<g id="a_node11"><a xlink:href="../../d2/d1d/_f_m_c__strings_8h.html" target="_top" xlink:title=" ">
<polygon fill="white" stroke="#666666" points="536.5,-151 413.5,-151 413.5,-121 536.5,-121 536.5,-151"/>
<text text-anchor="start" x="421.5" y="-139" font-family="Helvetica,sans-Serif" font-size="10.00">src/data_analyze/strings</text>
<text text-anchor="middle" x="475" y="-128" font-family="Helvetica,sans-Serif" font-size="10.00">/FMC_strings.h</text>
</a>
</g>
</g>
<!-- Node6&#45;&gt;Node11 -->
<g id="edge13" class="edge">
<title>Node6&#45;&gt;Node11</title>
<path fill="none" stroke="#63b8ff" d="M373.46,-182C394.1,-172.85 421.35,-160.78 442.42,-151.44"/>
<polygon fill="#63b8ff" stroke="#63b8ff" points="372.16,-178.75 364.43,-186 374.99,-185.15 372.16,-178.75"/>
</g>
<!-- Node13 -->
<g id="node13" class="node">
<title>Node13</title>
<g id="a_node13"><a xlink:href="../../d8/d29/_f_m_c__file__management_8h.html" target="_top" xlink:title=" ">
<polygon fill="white" stroke="#666666" points="651,-151 559,-151 559,-121 651,-121 651,-151"/>
<text text-anchor="start" x="567" y="-139" font-family="Helvetica,sans-Serif" font-size="10.00">src/files/FMC_file</text>
<text text-anchor="middle" x="605" y="-128" font-family="Helvetica,sans-Serif" font-size="10.00">_management.h</text>
</a>
</g>
</g>
<!-- Node6&#45;&gt;Node13 -->
<g id="edge16" class="edge">
<title>Node6&#45;&gt;Node13</title>
<path fill="none" stroke="#63b8ff" d="M395.46,-184.13C436.26,-175.24 494.26,-162.51 545,-151 549.49,-149.98 554.16,-148.91 558.83,-147.83"/>
<polygon fill="#63b8ff" stroke="#63b8ff" points="394.93,-180.66 385.91,-186.21 396.42,-187.5 394.93,-180.66"/>
</g>
<!-- Node7&#45;&gt;Node4 -->
<g id="edge8" class="edge">
<title>Node7&#45;&gt;Node4</title>
<path fill="none" stroke="#63b8ff" d="M162.73,-111.76C157.04,-103.65 151.17,-94.25 147,-85 136.8,-62.37 131.39,-33.29 129.2,-19.09"/>
<polygon fill="#63b8ff" stroke="#63b8ff" points="159.82,-113.71 168.56,-119.7 165.46,-109.57 159.82,-113.71"/>
</g>
<!-- Node9 -->
<g id="node9" class="node">
<title>Node9</title>
<g id="a_node9"><a xlink:href="../../d7/d3a/_f_m_c__data__analyze_8h.html" target="_top" xlink:title=" ">
<polygon fill="white" stroke="#666666" points="427.5,-85 312.5,-85 312.5,-55 427.5,-55 427.5,-85"/>
<text text-anchor="start" x="320.5" y="-73" font-family="Helvetica,sans-Serif" font-size="10.00">src/data_analyze/FMC</text>
<text text-anchor="middle" x="370" y="-62" font-family="Helvetica,sans-Serif" font-size="10.00">_data_analyze.h</text>
</a>
</g>
</g>
<!-- Node8&#45;&gt;Node9 -->
<g id="edge10" class="edge">
<title>Node8&#45;&gt;Node9</title>
<path fill="none" stroke="#63b8ff" d="M342.23,-111.39C348.28,-102.59 354.97,-92.86 360.26,-85.16"/>
<polygon fill="#63b8ff" stroke="#63b8ff" points="339.4,-109.33 336.62,-119.55 345.17,-113.29 339.4,-109.33"/>
</g>
<!-- Node10 -->
<g id="node10" class="node">
<title>Node10</title>
<g id="a_node10"><a xlink:href="../../da/da9/_f_m_c__encodings_8c.html" target="_top" xlink:title=" ">
<polygon fill="white" stroke="#666666" points="294,-85 156,-85 156,-55 294,-55 294,-85"/>
<text text-anchor="start" x="164" y="-73" font-family="Helvetica,sans-Serif" font-size="10.00">src/data_analyze/encodings</text>
<text text-anchor="middle" x="225" y="-62" font-family="Helvetica,sans-Serif" font-size="10.00">/FMC_encodings.c</text>
</a>
</g>
</g>
<!-- Node8&#45;&gt;Node10 -->
<g id="edge12" class="edge">
<title>Node8&#45;&gt;Node10</title>
<path fill="none" stroke="#63b8ff" d="M293.87,-114.64C278.81,-105.09 261.22,-93.95 247.59,-85.31"/>
<polygon fill="#63b8ff" stroke="#63b8ff" points="291.73,-117.43 302.06,-119.83 295.48,-111.52 291.73,-117.43"/>
</g>
<!-- Node9&#45;&gt;Node4 -->
<g id="edge11" class="edge">
<title>Node9&#45;&gt;Node4</title>
<path fill="none" stroke="#63b8ff" d="M301.07,-52.34C254.39,-41.05 194.92,-26.68 159.24,-18.05"/>
<polygon fill="#63b8ff" stroke="#63b8ff" points="300.02,-55.68 310.56,-54.63 301.67,-48.88 300.02,-55.68"/>
</g>
<!-- Node11&#45;&gt;Node9 -->
<g id="edge14" class="edge">
<title>Node11&#45;&gt;Node9</title>
<path fill="none" stroke="#63b8ff" d="M442.04,-114.91C426.29,-105.31 407.79,-94.03 393.49,-85.31"/>
<polygon fill="#63b8ff" stroke="#63b8ff" points="439.78,-117.63 450.14,-119.85 443.43,-111.66 439.78,-117.63"/>
</g>
<!-- Node12 -->
<g id="node12" class="node">
<title>Node12</title>
<g id="a_node12"><a xlink:href="../../d5/dd0/_f_m_c__chars_8c.html" target="_top" xlink:title=" ">
<polygon fill="white" stroke="#666666" points="568.5,-85 445.5,-85 445.5,-55 568.5,-55 568.5,-85"/>
<text text-anchor="start" x="453.5" y="-73" font-family="Helvetica,sans-Serif" font-size="10.00">src/data_analyze/strings</text>
<text text-anchor="middle" x="507" y="-62" font-family="Helvetica,sans-Serif" font-size="10.00">/FMC_chars.c</text>
</a>
</g>
</g>
<!-- Node11&#45;&gt;Node12 -->
<g id="edge15" class="edge">
<title>Node11&#45;&gt;Node12</title>
<path fill="none" stroke="#63b8ff" d="M487.23,-110.54C491.52,-101.96 496.19,-92.61 499.92,-85.16"/>
<polygon fill="#63b8ff" stroke="#63b8ff" points="484.12,-108.93 482.78,-119.44 490.38,-112.06 484.12,-108.93"/>
</g>
<!-- Node13&#45;&gt;Node4 -->
<g id="edge17" class="edge">
<title>Node13&#45;&gt;Node4</title>
<path fill="none" stroke="#63b8ff" d="M603.06,-109.24C600.25,-91.14 593.43,-67.92 577,-55 544.25,-29.24 255.83,-15.56 159.31,-11.68"/>
<polygon fill="#63b8ff" stroke="#63b8ff" points="599.57,-109.49 604.24,-119 606.52,-108.66 599.57,-109.49"/>
</g>
<!-- Node14 -->
<g id="node14" class="node">
<title>Node14</title>
<g id="a_node14"><a xlink:href="../../d6/dc6/_f_m_c__files_8c.html" target="_top" xlink:title=" ">
<polygon fill="white" stroke="#666666" points="730.5,-79.5 625.5,-79.5 625.5,-60.5 730.5,-60.5 730.5,-79.5"/>
<text text-anchor="middle" x="678" y="-67.5" font-family="Helvetica,sans-Serif" font-size="10.00">src/files/FMC_files.c</text>
</a>
</g>
</g>
<!-- Node13&#45;&gt;Node14 -->
<g id="edge18" class="edge">
<title>Node13&#45;&gt;Node14</title>
<path fill="none" stroke="#63b8ff" d="M629.78,-113.27C642.83,-101.84 658.11,-88.44 667.91,-79.84"/>
<polygon fill="#63b8ff" stroke="#63b8ff" points="627.55,-110.57 622.34,-119.8 632.17,-115.84 627.55,-110.57"/>
</g>
<!-- Node15 -->
<g id="node15" class="node">
<title>Node15</title>
<g id="a_node15"><a xlink:href="../../da/d92/_f_m_c__paths_8c.html" target="_top" xlink:title=" ">
<polygon fill="white" stroke="#666666" points="861,-79.5 749,-79.5 749,-60.5 861,-60.5 861,-79.5"/>
<text text-anchor="middle" x="805" y="-67.5" font-family="Helvetica,sans-Serif" font-size="10.00">src/files/FMC_paths.c</text>
</a>
</g>
</g>
<!-- Node13&#45;&gt;Node15 -->
<g id="edge19" class="edge">
<title>Node13&#45;&gt;Node15</title>
<path fill="none" stroke="#63b8ff" d="M660.74,-117.16C698.54,-105.07 746.91,-89.59 776.92,-79.99"/>
<polygon fill="#63b8ff" stroke="#63b8ff" points="659.78,-113.79 651.33,-120.18 661.92,-120.46 659.78,-113.79"/>
</g>
<!-- Node16&#45;&gt;Node6 -->
<g id="edge22" class="edge">
<title>Node16&#45;&gt;Node6</title>
<path fill="none" stroke="#63b8ff" d="M239.14,-297.92C229.62,-281.11 221.69,-258.77 233,-242 245.44,-223.55 266.96,-212.75 287.68,-206.43"/>
<polygon fill="#63b8ff" stroke="#63b8ff" points="236.07,-299.63 244.31,-306.29 242.03,-295.94 236.07,-299.63"/>
</g>
<!-- Node16&#45;&gt;Node17 -->
<g id="edge23" class="edge">
<title>Node16&#45;&gt;Node17</title>
<path fill="none" stroke="#63b8ff" d="M272.23,-298.39C278.28,-289.59 284.97,-279.86 290.26,-272.16"/>
<polygon fill="#63b8ff" stroke="#63b8ff" points="269.4,-296.33 266.62,-306.55 275.17,-300.29 269.4,-296.33"/>
</g>
<!-- Node17&#45;&gt;Node6 -->
<g id="edge24" class="edge">
<title>Node17&#45;&gt;Node6</title>
<path fill="none" stroke="#63b8ff" d="M317.38,-232.35C324.18,-223.11 331.54,-213.09 336.62,-206.18"/>
<polygon fill="#63b8ff" stroke="#63b8ff" points="314.63,-230.19 311.53,-240.32 320.27,-234.34 314.63,-230.19"/>
</g>
<!-- Node18&#45;&gt;Node6 -->
<g id="edge27" class="edge">
<title>Node18&#45;&gt;Node6</title>
<path fill="none" stroke="#63b8ff" d="M411.8,-298.28C392.73,-270.34 362.01,-225.35 349.06,-206.38"/>
<polygon fill="#63b8ff" stroke="#63b8ff" points="408.87,-300.18 417.4,-306.47 414.65,-296.24 408.87,-300.18"/>
</g>
<!-- Node18&#45;&gt;Node17 -->
<g id="edge28" class="edge">
<title>Node18&#45;&gt;Node17</title>
<path fill="none" stroke="#63b8ff" d="M389.18,-302.59C369.68,-292.84 346.48,-281.24 328.63,-272.31"/>
<polygon fill="#63b8ff" stroke="#63b8ff" points="387.41,-305.62 397.92,-306.96 390.54,-299.36 387.41,-305.62"/>
</g>
<!-- Node18&#45;&gt;Node19 -->
<g id="edge29" class="edge">
<title>Node18&#45;&gt;Node19</title>
<path fill="none" stroke="#63b8ff" d="M443.3,-298.11C448.9,-289.38 455.05,-279.78 459.93,-272.16"/>
<polygon fill="#63b8ff" stroke="#63b8ff" points="440.36,-296.21 437.92,-306.52 446.26,-299.99 440.36,-296.21"/>
</g>
<!-- Node19&#45;&gt;Node6 -->
<g id="edge30" class="edge">
<title>Node19&#45;&gt;Node6</title>
<path fill="none" stroke="#63b8ff" d="M427.7,-236.83C405.58,-226.55 379.39,-214.4 362.05,-206.35"/>
<polygon fill="#63b8ff" stroke="#63b8ff" points="425.94,-239.87 436.48,-240.9 428.88,-233.52 425.94,-239.87"/>
</g>
<!-- Node21&#45;&gt;Node6 -->
<g id="edge33" class="edge">
<title>Node21&#45;&gt;Node6</title>
<path fill="none" stroke="#63b8ff" d="M653.43,-298.67C664.81,-281.29 674.83,-257.9 661,-242 629.17,-205.41 493.7,-198 410.18,-197.01"/>
<polygon fill="#63b8ff" stroke="#63b8ff" points="650.89,-296.2 647.99,-306.39 656.61,-300.24 650.89,-296.2"/>
</g>
<!-- Node21&#45;&gt;Node20 -->
<g id="edge34" class="edge">
<title>Node21&#45;&gt;Node20</title>
<path fill="none" stroke="#63b8ff" d="M620.82,-298.11C615.63,-289.38 609.93,-279.78 605.41,-272.16"/>
<polygon fill="#63b8ff" stroke="#63b8ff" points="617.68,-299.68 625.79,-306.49 623.7,-296.11 617.68,-299.68"/>
</g>
<!-- Node22&#45;&gt;Node6 -->
<g id="edge37" class="edge">
<title>Node22&#45;&gt;Node6</title>
<path fill="none" stroke="#63b8ff" d="M674.85,-366.83C684.49,-359.07 693.74,-349.36 699,-338 717.32,-298.46 712.22,-270.21 679,-242 639.7,-208.62 496.75,-200.09 410.47,-198.03"/>
<polygon fill="#63b8ff" stroke="#63b8ff" points="672.78,-364.01 666.82,-372.77 676.94,-369.64 672.78,-364.01"/>
</g>
</g>
</svg>
        <g id="navigator" transform="translate(0 0)" fill="#404254">
                <rect fill="#f2f5e9" fill-opacity="0.5" stroke="#606060" stroke-width=".5" x="0" y="0" width="60" height="60"/>
                <use id="zoomplus" xlink:href="#zoomPlus" x="17" y="9" onmousedown="handleZoom(evt,'in')"/>
                <use id="zoomminus" xlink:href="#zoomMin" x="42" y="9" onmousedown="handleZoom(evt,'out')"/>
                <use id="reset" xlink:href="#resetDef" x="30" y="36" onmousedown="handleReset()"/>
                <g id="arrowUp" xlink:href="#dirArrow" transform="translate(30 24)" onmousedown="handlePan(0,-1)">
                  <use xlink:href="#rim" fill="#404040">
                        <set attributeName="fill" to="#808080" begin="arrowUp.mouseover" end="arrowUp.mouseout"/>
                  </use>
                  <path fill="none" stroke="white" stroke-width="1.5" d="M0,-3.0v7 M-2.5,-0.5L0,-3.0L2.5,-0.5"/>
                </g>
                <g id="arrowRight" xlink:href="#dirArrow" transform="rotate(90) translate(36 -43)" onmousedown="handlePan(1,0)">
                  <use xlink:href="#rim" fill="#404040">
                        <set attributeName="fill" to="#808080" begin="arrowRight.mouseover" end="arrowRight.mouseout"/>
                  </use>
                  <path fill="none" stroke="white" stroke-width="1.5" d="M0,-3.0v7 M-2.5,-0.5L0,-3.0L2.5,-0.5"/>
                </g>
                <g id="arrowDown" xlink:href="#dirArrow" transform="rotate(180) translate(-30 -48)" onmousedown="handlePan(0,1)">
                  <use xlink:href="#rim" fill="#404040">
                        <set attributeName="fill" to="#808080" begin="arrowDown.mouseover" end="arrowDown.mouseout"/>
                  </use>
                  <path fill="none" stroke="white" stroke-width="1.5" d="M0,-3.0v7 M-2.5,-0.5L0,-3.0L2.5,-0.5"/>
                </g>
                <g id="arrowLeft" xlink:href="#dirArrow" transform="rotate(270) translate(-36 17)" onmousedown="handlePan(-1,0)">
                  <use xlink:href="#rim" fill="#404040">
                        <set attributeName="fill" to="#808080" begin="arrowLeft.mouseover" end="arrowLeft.mouseout"/>
                  </use>
                  <path fill="none" stroke="white" stroke-width="1.5" d="M0,-3.0v7 M-2.5,-0.5L0,-3.0L2.5,-0.5"/>
                </g>
        </g>
        <svg viewBox="0 0 15 15" width="100%" height="30px" preserveAspectRatio="xMaxYMin meet">
         <g id="arrow_out" transform="scale(0.3 0.3)">
          <a xlink:href="_f_m_c__attributes_8h__dep__incl_org.svg" target="_base">
           <rect id="button" ry="5" rx="5" y="6" x="6" height="38" width="38"
                fill="#f2f5e9" fill-opacity="0.5" stroke="#606060" stroke-width="1.0"/>
           <path id="arrow"
             d="M 11.500037,31.436501 C 11.940474,20.09759 22.043105,11.32322 32.158766,21.979434 L 37.068811,17.246167 C 37.068811,17.246167 37.088388,32 37.088388,32 L 22.160133,31.978069 C 22.160133,31.978069 26.997745,27.140456 26.997745,27.140456 C 18.528582,18.264221 13.291696,25.230495 11.500037,31.436501 z"
             style="fill:#404040;"/>
          </a>
         </g>
        </svg>
</svg>
