<?xml version="1.0" encoding="UTF-8" standalone="no"?>
<!DOCTYPE svg PUBLIC "-//W3C//DTD SVG 1.1//EN"
 "http://www.w3.org/Graphics/SVG/1.1/DTD/svg11.dtd">
<!-- Generated by graphviz version 7.1.0 (20230121.1956)
 -->
<!-- Title: src/general/preprocessor/FMC_flags.h Pages: 1 -->
<svg width="766pt" height="280pt"
 viewBox="0.00 0.00 766.28 280.00" xmlns="http://www.w3.org/2000/svg" xmlns:xlink="http://www.w3.org/1999/xlink">
<g id="graph0" class="graph" transform="scale(1 1) rotate(0) translate(4 276)">
<title>src/general/preprocessor/FMC_flags.h</title>
<!-- Node1 -->
<g id="node1" class="node">
<title>Node1</title>
<g id="a_node1"><a xlink:title=" ">
<polygon fill="#999999" stroke="#666666" points="266.28,-272 142.28,-272 142.28,-242 266.28,-242 266.28,-272"/>
<text text-anchor="start" x="150.28" y="-260" font-family="Helvetica,sans-Serif" font-size="10.00">src/general/preprocessor</text>
<text text-anchor="middle" x="204.28" y="-249" font-family="Helvetica,sans-Serif" font-size="10.00">/FMC_flags.h</text>
</a>
</g>
</g>
<!-- Node2 -->
<g id="node2" class="node">
<title>Node2</title>
<g id="a_node2"><a xlink:href="../../d2/db5/_f_m_c__general_8h.html" target="_top" xlink:title=" ">
<polygon fill="white" stroke="#666666" points="271.28,-206 137.28,-206 137.28,-187 271.28,-187 271.28,-206"/>
<text text-anchor="middle" x="204.28" y="-194" font-family="Helvetica,sans-Serif" font-size="10.00">src/general/FMC_general.h</text>
</a>
</g>
</g>
<!-- Node1&#45;&gt;Node2 -->
<g id="edge1" class="edge">
<title>Node1&#45;&gt;Node2</title>
<path fill="none" stroke="#63b8ff" d="M204.28,-230.3C204.28,-221.65 204.28,-212.58 204.28,-206.18"/>
<polygon fill="#63b8ff" stroke="#63b8ff" points="200.78,-230.03 204.28,-240.03 207.78,-230.03 200.78,-230.03"/>
</g>
<!-- Node3 -->
<g id="node3" class="node">
<title>Node3</title>
<g id="a_node3"><a xlink:href="../../d9/d0f/_f_m_c_8h.html" target="_top" xlink:title=" ">
<polygon fill="white" stroke="#666666" points="177.28,-19 115.28,-19 115.28,0 177.28,0 177.28,-19"/>
<text text-anchor="middle" x="146.28" y="-7" font-family="Helvetica,sans-Serif" font-size="10.00">src/FMC.h</text>
</a>
</g>
</g>
<!-- Node2&#45;&gt;Node3 -->
<g id="edge2" class="edge">
<title>Node2&#45;&gt;Node3</title>
<path fill="none" stroke="#63b8ff" d="M125.81,-187.85C77.26,-181.31 21.4,-169.89 6.28,-151 -15.39,-123.91 27.22,-62.8 35.28,-55 57.22,-33.78 90.56,-22.25 114.98,-16.29"/>
<polygon fill="#63b8ff" stroke="#63b8ff" points="125.13,-191.29 135.5,-189.1 126.02,-184.35 125.13,-191.29"/>
</g>
<!-- Node4 -->
<g id="node4" class="node">
<title>Node4</title>
<g id="a_node4"><a xlink:href="../../d7/de5/_f_m_c__code__utils_8h.html" target="_top" xlink:title=" ">
<polygon fill="white" stroke="#666666" points="116.78,-151 15.78,-151 15.78,-121 116.78,-121 116.78,-151"/>
<text text-anchor="start" x="23.78" y="-139" font-family="Helvetica,sans-Serif" font-size="10.00">src/code_utils/FMC</text>
<text text-anchor="middle" x="66.28" y="-128" font-family="Helvetica,sans-Serif" font-size="10.00">_code_utils.h</text>
</a>
</g>
</g>
<!-- Node2&#45;&gt;Node4 -->
<g id="edge3" class="edge">
<title>Node2&#45;&gt;Node4</title>
<path fill="none" stroke="#63b8ff" d="M172.74,-182.13C151.12,-172.96 122.48,-160.82 100.35,-151.44"/>
<polygon fill="#63b8ff" stroke="#63b8ff" points="171.36,-185.34 181.93,-186.02 174.09,-178.9 171.36,-185.34"/>
</g>
<!-- Node5 -->
<g id="node5" class="node">
<title>Node5</title>
<g id="a_node5"><a xlink:href="../../d9/d1f/_f_m_c__encodings_8h.html" target="_top" xlink:title=" ">
<polygon fill="white" stroke="#666666" points="273.28,-151 135.28,-151 135.28,-121 273.28,-121 273.28,-151"/>
<text text-anchor="start" x="143.28" y="-139" font-family="Helvetica,sans-Serif" font-size="10.00">src/data_analyze/encodings</text>
<text text-anchor="middle" x="204.28" y="-128" font-family="Helvetica,sans-Serif" font-size="10.00">/FMC_encodings.h</text>
</a>
</g>
</g>
<!-- Node2&#45;&gt;Node5 -->
<g id="edge5" class="edge">
<title>Node2&#45;&gt;Node5</title>
<path fill="none" stroke="#63b8ff" d="M204.28,-175.51C204.28,-167.49 204.28,-158.43 204.28,-151.11"/>
<polygon fill="#63b8ff" stroke="#63b8ff" points="200.78,-175.35 204.28,-185.35 207.78,-175.35 200.78,-175.35"/>
</g>
<!-- Node8 -->
<g id="node8" class="node">
<title>Node8</title>
<g id="a_node8"><a xlink:href="../../d2/d1d/_f_m_c__strings_8h.html" target="_top" xlink:title=" ">
<polygon fill="white" stroke="#666666" points="414.78,-151 291.78,-151 291.78,-121 414.78,-121 414.78,-151"/>
<text text-anchor="start" x="299.78" y="-139" font-family="Helvetica,sans-Serif" font-size="10.00">src/data_analyze/strings</text>
<text text-anchor="middle" x="353.28" y="-128" font-family="Helvetica,sans-Serif" font-size="10.00">/FMC_strings.h</text>
</a>
</g>
</g>
<!-- Node2&#45;&gt;Node8 -->
<g id="edge9" class="edge">
<title>Node2&#45;&gt;Node8</title>
<path fill="none" stroke="#63b8ff" d="M237.39,-182.5C260.83,-173.3 292.28,-160.95 316.51,-151.44"/>
<polygon fill="#63b8ff" stroke="#63b8ff" points="236.35,-179.15 228.32,-186.06 238.91,-185.67 236.35,-179.15"/>
</g>
<!-- Node10 -->
<g id="node10" class="node">
<title>Node10</title>
<g id="a_node10"><a xlink:href="../../d8/d29/_f_m_c__file__management_8h.html" target="_top" xlink:title=" ">
<polygon fill="white" stroke="#666666" points="580.28,-151 488.28,-151 488.28,-121 580.28,-121 580.28,-151"/>
<text text-anchor="start" x="496.28" y="-139" font-family="Helvetica,sans-Serif" font-size="10.00">src/files/FMC_file</text>
<text text-anchor="middle" x="534.28" y="-128" font-family="Helvetica,sans-Serif" font-size="10.00">_management.h</text>
</a>
</g>
</g>
<!-- Node2&#45;&gt;Node10 -->
<g id="edge12" class="edge">
<title>Node2&#45;&gt;Node10</title>
<path fill="none" stroke="#63b8ff" d="M265.96,-184.57C330.32,-173.16 429.78,-155.53 487.81,-145.24"/>
<polygon fill="#63b8ff" stroke="#63b8ff" points="265.49,-181.1 256.25,-186.29 266.71,-187.99 265.49,-181.1"/>
</g>
<!-- Node4&#45;&gt;Node3 -->
<g id="edge4" class="edge">
<title>Node4&#45;&gt;Node3</title>
<path fill="none" stroke="#63b8ff" d="M50.01,-110.98C40.85,-94.2 33.24,-71.87 44.28,-55 59.84,-31.24 91.16,-20.09 115.02,-14.91"/>
<polygon fill="#63b8ff" stroke="#63b8ff" points="46.86,-112.53 54.99,-119.32 52.87,-108.94 46.86,-112.53"/>
</g>
<!-- Node6 -->
<g id="node6" class="node">
<title>Node6</title>
<g id="a_node6"><a xlink:href="../../d7/d3a/_f_m_c__data__analyze_8h.html" target="_top" xlink:title=" ">
<polygon fill="white" stroke="#666666" points="324.78,-85 209.78,-85 209.78,-55 324.78,-55 324.78,-85"/>
<text text-anchor="start" x="217.78" y="-73" font-family="Helvetica,sans-Serif" font-size="10.00">src/data_analyze/FMC</text>
<text text-anchor="middle" x="267.28" y="-62" font-family="Helvetica,sans-Serif" font-size="10.00">_data_analyze.h</text>
</a>
</g>
</g>
<!-- Node5&#45;&gt;Node6 -->
<g id="edge6" class="edge">
<title>Node5&#45;&gt;Node6</title>
<path fill="none" stroke="#63b8ff" d="M226.13,-112.81C235.16,-103.64 245.36,-93.28 253.34,-85.16"/>
<polygon fill="#63b8ff" stroke="#63b8ff" points="223.85,-110.14 219.33,-119.72 228.84,-115.05 223.85,-110.14"/>
</g>
<!-- Node7 -->
<g id="node7" class="node">
<title>Node7</title>
<g id="a_node7"><a xlink:href="../../da/da9/_f_m_c__encodings_8c.html" target="_top" xlink:title=" ">
<polygon fill="white" stroke="#666666" points="191.28,-85 53.28,-85 53.28,-55 191.28,-55 191.28,-85"/>
<text text-anchor="start" x="61.28" y="-73" font-family="Helvetica,sans-Serif" font-size="10.00">src/data_analyze/encodings</text>
<text text-anchor="middle" x="122.28" y="-62" font-family="Helvetica,sans-Serif" font-size="10.00">/FMC_encodings.c</text>
</a>
</g>
</g>
<!-- Node5&#45;&gt;Node7 -->
<g id="edge8" class="edge">
<title>Node5&#45;&gt;Node7</title>
<path fill="none" stroke="#63b8ff" d="M177.35,-113.97C165.34,-104.61 151.51,-93.81 140.72,-85.39"/>
<polygon fill="#63b8ff" stroke="#63b8ff" points="174.86,-116.47 184.89,-119.87 179.16,-110.95 174.86,-116.47"/>
</g>
<!-- Node6&#45;&gt;Node3 -->
<g id="edge7" class="edge">
<title>Node6&#45;&gt;Node3</title>
<path fill="none" stroke="#63b8ff" d="M227.05,-49.55C205.93,-39.34 181.08,-27.32 164.58,-19.35"/>
<polygon fill="#63b8ff" stroke="#63b8ff" points="225.49,-52.68 236.01,-53.88 228.53,-46.38 225.49,-52.68"/>
</g>
<!-- Node8&#45;&gt;Node6 -->
<g id="edge10" class="edge">
<title>Node8&#45;&gt;Node6</title>
<path fill="none" stroke="#63b8ff" d="M325.03,-113.97C312.44,-104.61 297.94,-93.81 286.61,-85.39"/>
<polygon fill="#63b8ff" stroke="#63b8ff" points="322.87,-116.73 332.98,-119.89 327.05,-111.11 322.87,-116.73"/>
</g>
<!-- Node9 -->
<g id="node9" class="node">
<title>Node9</title>
<g id="a_node9"><a xlink:href="../../d5/dd0/_f_m_c__chars_8c.html" target="_top" xlink:title=" ">
<polygon fill="white" stroke="#666666" points="465.78,-85 342.78,-85 342.78,-55 465.78,-55 465.78,-85"/>
<text text-anchor="start" x="350.78" y="-73" font-family="Helvetica,sans-Serif" font-size="10.00">src/data_analyze/strings</text>
<text text-anchor="middle" x="404.28" y="-62" font-family="Helvetica,sans-Serif" font-size="10.00">/FMC_chars.c</text>
</a>
</g>
</g>
<!-- Node8&#45;&gt;Node9 -->
<g id="edge11" class="edge">
<title>Node8&#45;&gt;Node9</title>
<path fill="none" stroke="#63b8ff" d="M371.64,-111.96C378.78,-103 386.73,-93.03 393,-85.16"/>
<polygon fill="#63b8ff" stroke="#63b8ff" points="369.04,-109.61 365.55,-119.61 374.52,-113.97 369.04,-109.61"/>
</g>
<!-- Node10&#45;&gt;Node3 -->
<g id="edge13" class="edge">
<title>Node10&#45;&gt;Node3</title>
<path fill="none" stroke="#63b8ff" d="M522.74,-110.6C512.65,-92.15 496.18,-67.86 474.28,-55 424.36,-25.68 249.82,-14.95 177.76,-11.7"/>
<polygon fill="#63b8ff" stroke="#63b8ff" points="519.54,-112.04 527.24,-119.32 525.76,-108.83 519.54,-112.04"/>
</g>
<!-- Node11 -->
<g id="node11" class="node">
<title>Node11</title>
<g id="a_node11"><a xlink:href="../../d6/dc6/_f_m_c__files_8c.html" target="_top" xlink:title=" ">
<polygon fill="white" stroke="#666666" points="627.78,-79.5 522.78,-79.5 522.78,-60.5 627.78,-60.5 627.78,-79.5"/>
<text text-anchor="middle" x="575.28" y="-67.5" font-family="Helvetica,sans-Serif" font-size="10.00">src/files/FMC_files.c</text>
</a>
</g>
</g>
<!-- Node10&#45;&gt;Node11 -->
<g id="edge14" class="edge">
<title>Node10&#45;&gt;Node11</title>
<path fill="none" stroke="#63b8ff" d="M549.48,-111.28C556.51,-100.31 564.43,-87.94 569.62,-79.84"/>
<polygon fill="#63b8ff" stroke="#63b8ff" points="546.65,-109.21 544.2,-119.52 552.54,-112.99 546.65,-109.21"/>
</g>
<!-- Node12 -->
<g id="node12" class="node">
<title>Node12</title>
<g id="a_node12"><a xlink:href="../../da/d92/_f_m_c__paths_8c.html" target="_top" xlink:title=" ">
<polygon fill="white" stroke="#666666" points="758.28,-79.5 646.28,-79.5 646.28,-60.5 758.28,-60.5 758.28,-79.5"/>
<text text-anchor="middle" x="702.28" y="-67.5" font-family="Helvetica,sans-Serif" font-size="10.00">src/files/FMC_paths.c</text>
</a>
</g>
</g>
<!-- Node10&#45;&gt;Node12 -->
<g id="edge15" class="edge">
<title>Node10&#45;&gt;Node12</title>
<path fill="none" stroke="#63b8ff" d="M582.34,-116.69C613.9,-104.67 653.81,-89.47 678.7,-79.99"/>
<polygon fill="#63b8ff" stroke="#63b8ff" points="581.5,-113.27 573.4,-120.1 583.99,-119.81 581.5,-113.27"/>
</g>
</g>
</svg>
