<?xml version="1.0" encoding="UTF-8" standalone="no"?>
<!DOCTYPE svg PUBLIC "-//W3C//DTD SVG 1.1//EN"
 "http://www.w3.org/Graphics/SVG/1.1/DTD/svg11.dtd">
<!-- Generated by graphviz version 2.43.0 (0)
 -->
<!-- Title: src/data_analyze/strings/FMC_strings.h Pages: 1 -->
<svg width="882pt" height="313pt"
 viewBox="0.00 0.00 882.19 313.00" xmlns="http://www.w3.org/2000/svg" xmlns:xlink="http://www.w3.org/1999/xlink">
<g id="graph0" class="graph" transform="scale(1 1) rotate(0) translate(4 309)">
<title>src/data_analyze/strings/FMC_strings.h</title>
<!-- Node1 -->
<g id="node1" class="node">
<title>Node1</title>
<g id="a_node1"><a xlink:title=" ">
<polygon fill="#999999" stroke="#666666" points="412.69,-305 277.69,-305 277.69,-275 412.69,-275 412.69,-305"/>
<text text-anchor="start" x="285.69" y="-293" font-family="Helvetica,sans-Serif" font-size="10.00">src/data_analyze/strings</text>
<text text-anchor="middle" x="345.19" y="-282" font-family="Helvetica,sans-Serif" font-size="10.00">/FMC_strings.h</text>
</a>
</g>
</g>
<!-- Node2 -->
<g id="node2" class="node">
<title>Node2</title>
<g id="a_node2"><a xlink:href="../../d9/de1/FMC__general_8h.html" target="_top" xlink:title=" ">
<polygon fill="white" stroke="#666666" points="418.69,-239 271.69,-239 271.69,-220 418.69,-220 418.69,-239"/>
<text text-anchor="middle" x="345.19" y="-227" font-family="Helvetica,sans-Serif" font-size="10.00">../../general/FMC_general.h</text>
</a>
</g>
</g>
<!-- Node1&#45;&gt;Node2 -->
<g id="edge1" class="edge">
<title>Node1&#45;&gt;Node2</title>
<path fill="none" stroke="#63b8ff" d="M345.19,-274.84C345.19,-267.21 345.19,-257.7 345.19,-249.45"/>
<polygon fill="#63b8ff" stroke="#63b8ff" points="348.69,-249.27 345.19,-239.27 341.69,-249.27 348.69,-249.27"/>
</g>
<!-- Node3 -->
<g id="node3" class="node">
<title>Node3</title>
<g id="a_node3"><a xlink:href="../../d0/d28/FMC__macros_8h.html" target="_top" xlink:title=" ">
<polygon fill="white" stroke="#666666" points="319.69,-74 164.69,-74 164.69,-55 319.69,-55 319.69,-74"/>
<text text-anchor="middle" x="242.19" y="-62" font-family="Helvetica,sans-Serif" font-size="10.00">preprocessor/FMC_macros.h</text>
</a>
</g>
</g>
<!-- Node2&#45;&gt;Node3 -->
<g id="edge2" class="edge">
<title>Node2&#45;&gt;Node3</title>
<path fill="none" stroke="#63b8ff" d="M418.76,-220.24C464.44,-213.43 517.05,-201.92 531.19,-184 546.17,-165.01 532.2,-126.3 513.19,-110 486.2,-86.87 398.73,-75.59 330.37,-70.2"/>
<polygon fill="#63b8ff" stroke="#63b8ff" points="330.25,-66.68 320.01,-69.41 329.72,-73.66 330.25,-66.68"/>
</g>
<!-- Node4 -->
<g id="node4" class="node">
<title>Node4</title>
<g id="a_node4"><a xlink:href="../../d7/dff/FMC__platform_8h.html" target="_top" xlink:title=" ">
<polygon fill="white" stroke="#666666" points="103.69,-19 8.69,-19 8.69,0 103.69,0 103.69,-19"/>
<text text-anchor="middle" x="56.19" y="-7" font-family="Helvetica,sans-Serif" font-size="10.00">FMC_platform.h</text>
</a>
</g>
</g>
<!-- Node2&#45;&gt;Node4 -->
<g id="edge6" class="edge">
<title>Node2&#45;&gt;Node4</title>
<path fill="none" stroke="#63b8ff" d="M271.58,-226.44C215.38,-222.53 137.16,-211.96 74.19,-184 38.35,-168.09 22.21,-164.33 5.19,-129 -12.13,-93.06 19.35,-49.76 40.09,-26.75"/>
<polygon fill="#63b8ff" stroke="#63b8ff" points="42.85,-28.92 47.14,-19.24 37.75,-24.13 42.85,-28.92"/>
</g>
<!-- Node6 -->
<g id="node6" class="node">
<title>Node6</title>
<g id="a_node6"><a xlink:href="../../da/dd3/FMC__consts_8h.html" target="_top" xlink:title=" ">
<polygon fill="white" stroke="#666666" points="488.19,-129 338.19,-129 338.19,-110 488.19,-110 488.19,-129"/>
<text text-anchor="middle" x="413.19" y="-117" font-family="Helvetica,sans-Serif" font-size="10.00">preprocessor/FMC_consts.h</text>
</a>
</g>
</g>
<!-- Node2&#45;&gt;Node6 -->
<g id="edge7" class="edge">
<title>Node2&#45;&gt;Node6</title>
<path fill="none" stroke="#63b8ff" d="M350.75,-219.66C362.02,-201.77 387.69,-161 402.36,-137.69"/>
<polygon fill="#63b8ff" stroke="#63b8ff" points="405.37,-139.49 407.74,-129.16 399.45,-135.76 405.37,-139.49"/>
</g>
<!-- Node7 -->
<g id="node7" class="node">
<title>Node7</title>
<g id="a_node7"><a xlink:href="../../d5/de5/FMC__structs_8h.html" target="_top" xlink:title=" ">
<polygon fill="white" stroke="#666666" points="360.19,-184 244.19,-184 244.19,-165 360.19,-165 360.19,-184"/>
<text text-anchor="middle" x="302.19" y="-172" font-family="Helvetica,sans-Serif" font-size="10.00">types/FMC_structs.h</text>
</a>
</g>
</g>
<!-- Node2&#45;&gt;Node7 -->
<g id="edge8" class="edge">
<title>Node2&#45;&gt;Node7</title>
<path fill="none" stroke="#63b8ff" d="M338.09,-219.75C332.01,-212.26 323.1,-201.28 315.68,-192.13"/>
<polygon fill="#63b8ff" stroke="#63b8ff" points="318.17,-189.65 309.16,-184.09 312.74,-194.06 318.17,-189.65"/>
</g>
<!-- Node9 -->
<g id="node9" class="node">
<title>Node9</title>
<g id="a_node9"><a xlink:href="../../d6/d25/FMC__enums_8h.html" target="_top" xlink:title=" ">
<polygon fill="white" stroke="#666666" points="100.19,-129 14.19,-129 14.19,-110 100.19,-110 100.19,-129"/>
<text text-anchor="middle" x="57.19" y="-117" font-family="Helvetica,sans-Serif" font-size="10.00">FMC_enums.h</text>
</a>
</g>
</g>
<!-- Node2&#45;&gt;Node9 -->
<g id="edge18" class="edge">
<title>Node2&#45;&gt;Node9</title>
<path fill="none" stroke="#63b8ff" d="M271.41,-222.01C208.56,-215.28 124.13,-203.05 96.19,-184 80.19,-173.09 69.57,-153.23 63.5,-138.62"/>
<polygon fill="#63b8ff" stroke="#63b8ff" points="66.71,-137.21 59.88,-129.11 60.17,-139.7 66.71,-137.21"/>
</g>
<!-- Node10 -->
<g id="node10" class="node">
<title>Node10</title>
<g id="a_node10"><a xlink:href="../../df/df8/FMC__typedefs_8h.html" target="_top" xlink:title=" ">
<polygon fill="white" stroke="#666666" points="213.69,-129 118.69,-129 118.69,-110 213.69,-110 213.69,-129"/>
<text text-anchor="middle" x="166.19" y="-117" font-family="Helvetica,sans-Serif" font-size="10.00">FMC_typedefs.h</text>
</a>
</g>
</g>
<!-- Node2&#45;&gt;Node10 -->
<g id="edge17" class="edge">
<title>Node2&#45;&gt;Node10</title>
<path fill="none" stroke="#63b8ff" d="M271.49,-224.91C208.93,-220.13 126.09,-209.13 105.19,-184 90.07,-165.82 115.49,-146.42 137.98,-133.92"/>
<polygon fill="#63b8ff" stroke="#63b8ff" points="139.79,-136.93 147,-129.17 136.52,-130.74 139.79,-136.93"/>
</g>
<!-- Node11 -->
<g id="node11" class="node">
<title>Node11</title>
<g id="a_node11"><a xlink:href="../../d2/d5e/FMC__flags_8h.html" target="_top" xlink:title=" ">
<polygon fill="white" stroke="#666666" points="874.19,-184 732.19,-184 732.19,-165 874.19,-165 874.19,-184"/>
<text text-anchor="middle" x="803.19" y="-172" font-family="Helvetica,sans-Serif" font-size="10.00">preprocessor/FMC_flags.h</text>
</a>
</g>
</g>
<!-- Node2&#45;&gt;Node11 -->
<g id="edge16" class="edge">
<title>Node2&#45;&gt;Node11</title>
<path fill="none" stroke="#63b8ff" d="M418.77,-219.98C501.72,-210.39 636.16,-194.83 722.08,-184.89"/>
<polygon fill="#63b8ff" stroke="#63b8ff" points="722.51,-188.36 732.05,-183.73 721.71,-181.41 722.51,-188.36"/>
</g>
<!-- Node12 -->
<g id="node12" class="node">
<title>Node12</title>
<g id="a_node12"><a xlink:href="../../dd/ddf/FMC__errors_8h.html" target="_top" xlink:title=" ">
<polygon fill="white" stroke="#666666" points="521.69,-184 416.69,-184 416.69,-165 521.69,-165 521.69,-184"/>
<text text-anchor="middle" x="469.19" y="-172" font-family="Helvetica,sans-Serif" font-size="10.00">utils/FMC_errors.h</text>
</a>
</g>
</g>
<!-- Node2&#45;&gt;Node12 -->
<g id="edge19" class="edge">
<title>Node2&#45;&gt;Node12</title>
<path fill="none" stroke="#63b8ff" d="M365.11,-219.98C385.24,-211.38 416.57,-197.99 439.6,-188.15"/>
<polygon fill="#63b8ff" stroke="#63b8ff" points="441.08,-191.32 448.9,-184.17 438.33,-184.88 441.08,-191.32"/>
</g>
<!-- Node13 -->
<g id="node13" class="node">
<title>Node13</title>
<g id="a_node13"><a xlink:href="../../de/d86/FMC__globals_8h.html" target="_top" xlink:title=" ">
<polygon fill="white" stroke="#666666" points="226.19,-184 114.19,-184 114.19,-165 226.19,-165 226.19,-184"/>
<text text-anchor="middle" x="170.19" y="-172" font-family="Helvetica,sans-Serif" font-size="10.00">utils/FMC_globals.h</text>
</a>
</g>
</g>
<!-- Node2&#45;&gt;Node13 -->
<g id="edge23" class="edge">
<title>Node2&#45;&gt;Node13</title>
<path fill="none" stroke="#63b8ff" d="M317.07,-219.98C287.56,-211.05 241,-196.94 208.22,-187.02"/>
<polygon fill="#63b8ff" stroke="#63b8ff" points="209.11,-183.63 198.53,-184.08 207.08,-190.33 209.11,-183.63"/>
</g>
<!-- Node14 -->
<g id="node14" class="node">
<title>Node14</title>
<g id="a_node14"><a xlink:href="../../d4/d06/FMC__deprecated_8h.html" target="_top" xlink:title=" ">
<polygon fill="white" stroke="#666666" points="713.69,-184 582.69,-184 582.69,-165 713.69,-165 713.69,-184"/>
<text text-anchor="middle" x="648.19" y="-172" font-family="Helvetica,sans-Serif" font-size="10.00">utils/FMC_deprecated.h</text>
</a>
</g>
</g>
<!-- Node2&#45;&gt;Node14 -->
<g id="edge25" class="edge">
<title>Node2&#45;&gt;Node14</title>
<path fill="none" stroke="#63b8ff" d="M393.87,-219.98C447.13,-210.67 532.49,-195.74 589.44,-185.78"/>
<polygon fill="#63b8ff" stroke="#63b8ff" points="590.13,-189.21 599.38,-184.04 588.92,-182.31 590.13,-189.21"/>
</g>
<!-- Node3&#45;&gt;Node4 -->
<g id="edge3" class="edge">
<title>Node3&#45;&gt;Node4</title>
<path fill="none" stroke="#63b8ff" d="M212.3,-54.98C180.81,-46.01 131.02,-31.82 96.16,-21.89"/>
<polygon fill="#63b8ff" stroke="#63b8ff" points="96.88,-18.46 86.31,-19.08 94.96,-25.19 96.88,-18.46"/>
</g>
<!-- Node5 -->
<g id="node5" class="node">
<title>Node5</title>
<g id="a_node5"><a xlink:href="../../d1/d2e/FMC__attributes_8h.html" target="_top" xlink:title=" ">
<polygon fill="white" stroke="#666666" points="292.19,-19 192.19,-19 192.19,0 292.19,0 292.19,-19"/>
<text text-anchor="middle" x="242.19" y="-7" font-family="Helvetica,sans-Serif" font-size="10.00">FMC_attributes.h</text>
</a>
</g>
</g>
<!-- Node3&#45;&gt;Node5 -->
<g id="edge4" class="edge">
<title>Node3&#45;&gt;Node5</title>
<path fill="none" stroke="#63b8ff" d="M237.02,-54.75C235.53,-47.8 235.09,-37.85 235.71,-29.13"/>
<polygon fill="#63b8ff" stroke="#63b8ff" points="239.2,-29.47 237.06,-19.09 232.26,-28.53 239.2,-29.47"/>
</g>
<!-- Node5&#45;&gt;Node3 -->
<g id="edge5" class="edge">
<title>Node5&#45;&gt;Node3</title>
<path fill="none" stroke="#63b8ff" d="M247.32,-19.09C248.83,-25.99 249.28,-35.93 248.68,-44.66"/>
<polygon fill="#63b8ff" stroke="#63b8ff" points="245.19,-44.38 247.35,-54.75 252.13,-45.29 245.19,-44.38"/>
</g>
<!-- Node7&#45;&gt;Node3 -->
<g id="edge11" class="edge">
<title>Node7&#45;&gt;Node3</title>
<path fill="none" stroke="#63b8ff" d="M292.02,-164.95C282.75,-156.65 269.3,-143.24 261.19,-129 253.26,-115.08 248.34,-97.52 245.49,-84.4"/>
<polygon fill="#63b8ff" stroke="#63b8ff" points="248.86,-83.35 243.51,-74.21 241.99,-84.69 248.86,-83.35"/>
</g>
<!-- Node7&#45;&gt;Node6 -->
<g id="edge10" class="edge">
<title>Node7&#45;&gt;Node6</title>
<path fill="none" stroke="#63b8ff" d="M320.02,-164.98C337.8,-156.5 365.33,-143.35 385.87,-133.54"/>
<polygon fill="#63b8ff" stroke="#63b8ff" points="387.51,-136.64 395.03,-129.17 384.5,-130.32 387.51,-136.64"/>
</g>
<!-- Node8 -->
<g id="node8" class="node">
<title>Node8</title>
<g id="a_node8"><a xlink:title=" ">
<polygon fill="#e0e0e0" stroke="#999999" points="320.19,-129 270.19,-129 270.19,-110 320.19,-110 320.19,-129"/>
<text text-anchor="middle" x="295.19" y="-117" font-family="Helvetica,sans-Serif" font-size="10.00">stdio.h</text>
</a>
</g>
</g>
<!-- Node7&#45;&gt;Node8 -->
<g id="edge9" class="edge">
<title>Node7&#45;&gt;Node8</title>
<path fill="none" stroke="#63b8ff" d="M301.03,-164.75C300.11,-157.8 298.8,-147.85 297.65,-139.13"/>
<polygon fill="#63b8ff" stroke="#63b8ff" points="301.1,-138.54 296.32,-129.09 294.16,-139.46 301.1,-138.54"/>
</g>
<!-- Node7&#45;&gt;Node9 -->
<g id="edge12" class="edge">
<title>Node7&#45;&gt;Node9</title>
<path fill="none" stroke="#63b8ff" d="M262.82,-164.98C220.45,-155.82 152.93,-141.21 106.91,-131.26"/>
<polygon fill="#63b8ff" stroke="#63b8ff" points="107.37,-127.78 96.86,-129.08 105.89,-134.62 107.37,-127.78"/>
</g>
<!-- Node7&#45;&gt;Node10 -->
<g id="edge14" class="edge">
<title>Node7&#45;&gt;Node10</title>
<path fill="none" stroke="#63b8ff" d="M280.34,-164.98C258.06,-156.3 223.29,-142.75 197.97,-132.88"/>
<polygon fill="#63b8ff" stroke="#63b8ff" points="199.02,-129.54 188.44,-129.17 196.48,-136.06 199.02,-129.54"/>
</g>
<!-- Node9&#45;&gt;Node3 -->
<g id="edge13" class="edge">
<title>Node9&#45;&gt;Node3</title>
<path fill="none" stroke="#63b8ff" d="M86.91,-109.98C118.24,-101.01 167.76,-86.82 202.43,-76.89"/>
<polygon fill="#63b8ff" stroke="#63b8ff" points="203.58,-80.2 212.23,-74.08 201.65,-73.47 203.58,-80.2"/>
</g>
<!-- Node10&#45;&gt;Node3 -->
<g id="edge15" class="edge">
<title>Node10&#45;&gt;Node3</title>
<path fill="none" stroke="#63b8ff" d="M178.4,-109.98C189.96,-101.92 207.56,-89.65 221.35,-80.03"/>
<polygon fill="#63b8ff" stroke="#63b8ff" points="223.55,-82.76 229.76,-74.17 219.55,-77.02 223.55,-82.76"/>
</g>
<!-- Node12&#45;&gt;Node3 -->
<g id="edge22" class="edge">
<title>Node12&#45;&gt;Node3</title>
<path fill="none" stroke="#63b8ff" d="M478.39,-164.86C491.19,-151.8 511.3,-126.79 497.19,-110 475.95,-84.73 395.13,-73.81 330.09,-69.09"/>
<polygon fill="#63b8ff" stroke="#63b8ff" points="330.02,-65.58 319.8,-68.39 329.54,-72.56 330.02,-65.58"/>
</g>
<!-- Node12&#45;&gt;Node6 -->
<g id="edge21" class="edge">
<title>Node12&#45;&gt;Node6</title>
<path fill="none" stroke="#63b8ff" d="M460.19,-164.98C451.99,-157.23 439.68,-145.58 429.72,-136.14"/>
<polygon fill="#63b8ff" stroke="#63b8ff" points="432.02,-133.5 422.35,-129.17 427.21,-138.59 432.02,-133.5"/>
</g>
<!-- Node12&#45;&gt;Node8 -->
<g id="edge20" class="edge">
<title>Node12&#45;&gt;Node8</title>
<path fill="none" stroke="#63b8ff" d="M441.23,-164.98C410.94,-155.76 362.55,-141.02 329.86,-131.06"/>
<polygon fill="#63b8ff" stroke="#63b8ff" points="330.84,-127.7 320.25,-128.13 328.8,-134.4 330.84,-127.7"/>
</g>
<!-- Node13&#45;&gt;Node10 -->
<g id="edge24" class="edge">
<title>Node13&#45;&gt;Node10</title>
<path fill="none" stroke="#63b8ff" d="M169.53,-164.75C169,-157.8 168.25,-147.85 167.59,-139.13"/>
<polygon fill="#63b8ff" stroke="#63b8ff" points="171.08,-138.8 166.84,-129.09 164.1,-139.32 171.08,-138.8"/>
</g>
<!-- Node14&#45;&gt;Node5 -->
<g id="edge26" class="edge">
<title>Node14&#45;&gt;Node5</title>
<path fill="none" stroke="#63b8ff" d="M651.12,-164.58C654.92,-151.17 659.69,-125.69 647.19,-110 604.6,-56.56 404.61,-27.83 302.51,-16.43"/>
<polygon fill="#63b8ff" stroke="#63b8ff" points="302.66,-12.92 292.34,-15.31 301.9,-19.88 302.66,-12.92"/>
</g>
<!-- Node15 -->
<g id="node15" class="node">
<title>Node15</title>
<g id="a_node15"><a xlink:title=" ">
<polygon fill="#e0e0e0" stroke="#999999" points="638.19,-129 582.19,-129 582.19,-110 638.19,-110 638.19,-129"/>
<text text-anchor="middle" x="610.19" y="-117" font-family="Helvetica,sans-Serif" font-size="10.00">stddef.h</text>
</a>
</g>
</g>
<!-- Node14&#45;&gt;Node15 -->
<g id="edge27" class="edge">
<title>Node14&#45;&gt;Node15</title>
<path fill="none" stroke="#63b8ff" d="M641.91,-164.75C636.6,-157.34 628.83,-146.5 622.31,-137.41"/>
<polygon fill="#63b8ff" stroke="#63b8ff" points="625.02,-135.18 616.35,-129.09 619.33,-139.26 625.02,-135.18"/>
</g>
</g>
</svg>
