<?xml version="1.0" encoding="UTF-8" standalone="no"?>
<!DOCTYPE svg PUBLIC "-//W3C//DTD SVG 1.1//EN"
 "http://www.w3.org/Graphics/SVG/1.1/DTD/svg11.dtd">
<!-- Generated by graphviz version 7.1.0 (20230121.1956)
 -->
<!-- Title: src/data_analyze/encodings/FMC_encodings.c Pages: 1 -->
<!--zoomable 368 -->
<svg id="main" version="1.1" xmlns="http://www.w3.org/2000/svg" xmlns:xlink="http://www.w3.org/1999/xlink" xml:space="preserve" onload="init(evt)">
<style type="text/css"><![CDATA[
.edge:hover path { stroke: red; }
.edge:hover polygon { stroke: red; fill: red; }
]]></style>
<script type="text/javascript"><![CDATA[
var edges = document.getElementsByTagName('g');
if (edges && edges.length) {
  for (var i=0;i<edges.length;i++) {
    if (edges[i].id.substr(0,4)=='edge') {
      edges[i].setAttribute('class','edge');
    }
  }
}
]]></script>
        <defs>
                <circle id="rim" cx="0" cy="0" r="7"/>
                <circle id="rim2" cx="0" cy="0" r="3.5"/>
                <g id="zoomPlus">
                        <use xlink:href="#rim" fill="#404040">
                                <set attributeName="fill" to="#808080" begin="zoomplus.mouseover" end="zoomplus.mouseout"/>
                        </use>
                        <path d="M-4,0h8M0,-4v8" fill="none" stroke="white" stroke-width="1.5" pointer-events="none"/>
                </g>
                <g id="zoomMin">
                        <use xlink:href="#rim" fill="#404040">
                                <set attributeName="fill" to="#808080" begin="zoomminus.mouseover" end="zoomminus.mouseout"/>
                        </use>
                        <path d="M-4,0h8" fill="none" stroke="white" stroke-width="1.5" pointer-events="none"/>
                </g>
                <g id="dirArrow">
                        <path fill="none" stroke="white" stroke-width="1.5" d="M0,-3.0v7 M-2.5,-0.5L0,-3.0L2.5,-0.5"/>
                </g>
               <g id="resetDef">
                       <use xlink:href="#rim2" fill="#404040">
                               <set attributeName="fill" to="#808080" begin="reset.mouseover" end="reset.mouseout"/>
                       </use>
               </g>
        </defs>

<script type="text/javascript">
var viewWidth = 855;
var viewHeight = 368;
var sectionId = 'dynsection-0';
</script>
<script xlink:href="../../svgpan.js"/>
<svg id="graph" class="graph">
<g id="viewport">
<title>src/data_analyze/encodings/FMC_encodings.c</title>
<!-- Node1 -->
<g id="node1" class="node">
<title>Node1</title>
<g id="a_node1"><a xlink:title=" ">
<polygon fill="#999999" stroke="#666666" points="401,-360 263,-360 263,-330 401,-330 401,-360"/>
<text text-anchor="start" x="271" y="-348" font-family="Helvetica,sans-Serif" font-size="10.00">src/data_analyze/encodings</text>
<text text-anchor="middle" x="332" y="-337" font-family="Helvetica,sans-Serif" font-size="10.00">/FMC_encodings.c</text>
</a>
</g>
</g>
<!-- Node2 -->
<g id="node2" class="node">
<title>Node2</title>
<g id="a_node2"><a xlink:title=" ">
<polygon fill="#e0e0e0" stroke="#999999" points="324,-129 278,-129 278,-110 324,-110 324,-129"/>
<text text-anchor="middle" x="301" y="-117" font-family="Helvetica,sans-Serif" font-size="10.00">stdio.h</text>
</a>
</g>
</g>
<!-- Node1&#45;&gt;Node2 -->
<g id="edge1" class="edge">
<title>Node1&#45;&gt;Node2</title>
<path fill="none" stroke="#63b8ff" d="M262.85,-341.54C228.2,-336.37 189.03,-323.69 167,-294 122.75,-234.36 223.8,-164.84 274.36,-135.15"/>
<polygon fill="#63b8ff" stroke="#63b8ff" points="276.07,-138.2 283,-130.19 272.59,-132.13 276.07,-138.2"/>
</g>
<!-- Node3 -->
<g id="node3" class="node">
<title>Node3</title>
<g id="a_node3"><a xlink:title=" ">
<polygon fill="#e0e0e0" stroke="#999999" points="224,-294 176,-294 176,-275 224,-275 224,-294"/>
<text text-anchor="middle" x="200" y="-282" font-family="Helvetica,sans-Serif" font-size="10.00">stdlib.h</text>
</a>
</g>
</g>
<!-- Node1&#45;&gt;Node3 -->
<g id="edge2" class="edge">
<title>Node1&#45;&gt;Node3</title>
<path fill="none" stroke="#63b8ff" d="M299.37,-329.54C278.27,-320.19 251,-308.1 230.37,-298.96"/>
<polygon fill="#63b8ff" stroke="#63b8ff" points="231.9,-295.81 221.34,-294.96 229.07,-302.21 231.9,-295.81"/>
</g>
<!-- Node4 -->
<g id="node4" class="node">
<title>Node4</title>
<g id="a_node4"><a xlink:title=" ">
<polygon fill="#e0e0e0" stroke="#999999" points="289.5,-294 242.5,-294 242.5,-275 289.5,-275 289.5,-294"/>
<text text-anchor="middle" x="266" y="-282" font-family="Helvetica,sans-Serif" font-size="10.00">errno.h</text>
</a>
</g>
</g>
<!-- Node1&#45;&gt;Node4 -->
<g id="edge3" class="edge">
<title>Node1&#45;&gt;Node4</title>
<path fill="none" stroke="#63b8ff" d="M315.69,-329.54C306.2,-321.13 294.21,-310.51 284.39,-301.8"/>
<polygon fill="#63b8ff" stroke="#63b8ff" points="286.73,-299.19 276.92,-295.18 282.08,-304.43 286.73,-299.19"/>
</g>
<!-- Node5 -->
<g id="node5" class="node">
<title>Node5</title>
<g id="a_node5"><a xlink:title=" ">
<polygon fill="#e0e0e0" stroke="#999999" points="356.5,-294 307.5,-294 307.5,-275 356.5,-275 356.5,-294"/>
<text text-anchor="middle" x="332" y="-282" font-family="Helvetica,sans-Serif" font-size="10.00">string.h</text>
</a>
</g>
</g>
<!-- Node1&#45;&gt;Node5 -->
<g id="edge4" class="edge">
<title>Node1&#45;&gt;Node5</title>
<path fill="none" stroke="#63b8ff" d="M332,-329.54C332,-322.34 332,-313.53 332,-305.68"/>
<polygon fill="#63b8ff" stroke="#63b8ff" points="335.5,-305.69 332,-295.69 328.5,-305.69 335.5,-305.69"/>
</g>
<!-- Node6 -->
<g id="node6" class="node">
<title>Node6</title>
<g id="a_node6"><a xlink:title=" ">
<polygon fill="#e0e0e0" stroke="#999999" points="425,-294 375,-294 375,-275 425,-275 425,-294"/>
<text text-anchor="middle" x="400" y="-282" font-family="Helvetica,sans-Serif" font-size="10.00">wchar.h</text>
</a>
</g>
</g>
<!-- Node1&#45;&gt;Node6 -->
<g id="edge5" class="edge">
<title>Node1&#45;&gt;Node6</title>
<path fill="none" stroke="#63b8ff" d="M348.81,-329.54C358.69,-321.04 371.19,-310.29 381.37,-301.53"/>
<polygon fill="#63b8ff" stroke="#63b8ff" points="383.47,-304.34 388.77,-295.16 378.91,-299.03 383.47,-304.34"/>
</g>
<!-- Node7 -->
<g id="node7" class="node">
<title>Node7</title>
<g id="a_node7"><a xlink:title=" ">
<polygon fill="#e0e0e0" stroke="#999999" points="492.5,-294 443.5,-294 443.5,-275 492.5,-275 492.5,-294"/>
<text text-anchor="middle" x="468" y="-282" font-family="Helvetica,sans-Serif" font-size="10.00">stdint.h</text>
</a>
</g>
</g>
<!-- Node1&#45;&gt;Node7 -->
<g id="edge6" class="edge">
<title>Node1&#45;&gt;Node7</title>
<path fill="none" stroke="#63b8ff" d="M365.62,-329.54C387.45,-320.15 415.71,-307.99 437,-298.83"/>
<polygon fill="#63b8ff" stroke="#63b8ff" points="438.24,-302.11 446.04,-294.94 435.47,-295.68 438.24,-302.11"/>
</g>
<!-- Node8 -->
<g id="node8" class="node">
<title>Node8</title>
<g id="a_node8"><a xlink:href="../../d9/d1f/_f_m_c__encodings_8h.html" target="_top" xlink:title=" ">
<polygon fill="white" stroke="#666666" points="605.5,-294 510.5,-294 510.5,-275 605.5,-275 605.5,-294"/>
<text text-anchor="middle" x="558" y="-282" font-family="Helvetica,sans-Serif" font-size="10.00">FMC_encodings.h</text>
</a>
</g>
</g>
<!-- Node1&#45;&gt;Node8 -->
<g id="edge7" class="edge">
<title>Node1&#45;&gt;Node8</title>
<path fill="none" stroke="#63b8ff" d="M387.87,-329.54C426.2,-319.62 476.44,-306.61 512.36,-297.31"/>
<polygon fill="#63b8ff" stroke="#63b8ff" points="513.22,-300.71 522.03,-294.81 511.47,-293.93 513.22,-300.71"/>
</g>
<!-- Node9 -->
<g id="node9" class="node">
<title>Node9</title>
<g id="a_node9"><a xlink:href="../../d2/db5/_f_m_c__general_8h.html" target="_top" xlink:title=" ">
<polygon fill="white" stroke="#666666" points="625.5,-239 490.5,-239 490.5,-220 625.5,-220 625.5,-239"/>
<text text-anchor="middle" x="558" y="-227" font-family="Helvetica,sans-Serif" font-size="10.00">../../general/FMC_general.h</text>
</a>
</g>
</g>
<!-- Node8&#45;&gt;Node9 -->
<g id="edge8" class="edge">
<title>Node8&#45;&gt;Node9</title>
<path fill="none" stroke="#63b8ff" d="M558,-274.75C558,-268.27 558,-259.16 558,-250.9"/>
<polygon fill="#63b8ff" stroke="#63b8ff" points="561.5,-250.96 558,-240.96 554.5,-250.96 561.5,-250.96"/>
</g>
<!-- Node10 -->
<g id="node10" class="node">
<title>Node10</title>
<g id="a_node10"><a xlink:href="../../d0/d07/_f_m_c__macros_8h.html" target="_top" xlink:title=" ">
<polygon fill="white" stroke="#666666" points="653.5,-74 510.5,-74 510.5,-55 653.5,-55 653.5,-74"/>
<text text-anchor="middle" x="582" y="-62" font-family="Helvetica,sans-Serif" font-size="10.00">preprocessor/FMC_macros.h</text>
</a>
</g>
</g>
<!-- Node9&#45;&gt;Node10 -->
<g id="edge9" class="edge">
<title>Node9&#45;&gt;Node10</title>
<path fill="none" stroke="#63b8ff" d="M490.14,-229.16C405.34,-228.36 267.41,-221.18 235,-184 229.45,-177.63 232.69,-173.12 235,-165 242.85,-137.36 244.95,-125.73 269,-110 305.85,-85.9 419.47,-74.53 499.14,-69.4"/>
<polygon fill="#63b8ff" stroke="#63b8ff" points="498.88,-72.92 508.64,-68.81 498.44,-65.93 498.88,-72.92"/>
</g>
<!-- Node11 -->
<g id="node11" class="node">
<title>Node11</title>
<g id="a_node11"><a xlink:href="../../d0/dc4/_f_m_c__platform_8h.html" target="_top" xlink:title=" ">
<polygon fill="white" stroke="#666666" points="830,-19 744,-19 744,0 830,0 830,-19"/>
<text text-anchor="middle" x="787" y="-7" font-family="Helvetica,sans-Serif" font-size="10.00">FMC_platform.h</text>
</a>
</g>
</g>
<!-- Node9&#45;&gt;Node11 -->
<g id="edge13" class="edge">
<title>Node9&#45;&gt;Node11</title>
<path fill="none" stroke="#63b8ff" d="M625.85,-227.18C698.24,-224.16 806.04,-214.51 832,-184 871.09,-138.05 825.17,-62.2 800.58,-28.08"/>
<polygon fill="#63b8ff" stroke="#63b8ff" points="803.7,-26.42 794.92,-20.48 798.08,-30.59 803.7,-26.42"/>
</g>
<!-- Node13 -->
<g id="node13" class="node">
<title>Node13</title>
<g id="a_node13"><a xlink:href="../../d8/d6d/_f_m_c__consts_8h.html" target="_top" xlink:title=" ">
<polygon fill="white" stroke="#666666" points="520,-129 380,-129 380,-110 520,-110 520,-129"/>
<text text-anchor="middle" x="450" y="-117" font-family="Helvetica,sans-Serif" font-size="10.00">preprocessor/FMC_consts.h</text>
</a>
</g>
</g>
<!-- Node9&#45;&gt;Node13 -->
<g id="edge14" class="edge">
<title>Node9&#45;&gt;Node13</title>
<path fill="none" stroke="#63b8ff" d="M490.01,-228.87C407.17,-227.71 274.33,-220.07 243,-184 237.46,-177.62 237.69,-171.57 243,-165 258.89,-145.33 317.5,-133.95 368.31,-127.63"/>
<polygon fill="#63b8ff" stroke="#63b8ff" points="368.67,-131.11 378.18,-126.46 367.84,-124.16 368.67,-131.11"/>
</g>
<!-- Node14 -->
<g id="node14" class="node">
<title>Node14</title>
<g id="a_node14"><a xlink:href="../../d5/d7a/_f_m_c__structs_8h.html" target="_top" xlink:title=" ">
<polygon fill="white" stroke="#666666" points="625,-184 517,-184 517,-165 625,-165 625,-184"/>
<text text-anchor="middle" x="571" y="-172" font-family="Helvetica,sans-Serif" font-size="10.00">types/FMC_structs.h</text>
</a>
</g>
</g>
<!-- Node9&#45;&gt;Node14 -->
<g id="edge15" class="edge">
<title>Node9&#45;&gt;Node14</title>
<path fill="none" stroke="#63b8ff" d="M560.15,-219.75C561.76,-213.19 564.02,-203.95 566.07,-195.6"/>
<polygon fill="#63b8ff" stroke="#63b8ff" points="569.46,-196.46 568.45,-185.91 562.66,-194.79 569.46,-196.46"/>
</g>
<!-- Node15 -->
<g id="node15" class="node">
<title>Node15</title>
<g id="a_node15"><a xlink:href="../../d9/dab/_f_m_c__enums_8h.html" target="_top" xlink:title=" ">
<polygon fill="white" stroke="#666666" points="656,-129 576,-129 576,-110 656,-110 656,-129"/>
<text text-anchor="middle" x="616" y="-117" font-family="Helvetica,sans-Serif" font-size="10.00">FMC_enums.h</text>
</a>
</g>
</g>
<!-- Node9&#45;&gt;Node15 -->
<g id="edge25" class="edge">
<title>Node9&#45;&gt;Node15</title>
<path fill="none" stroke="#63b8ff" d="M587.15,-219.62C604.07,-212.79 623.96,-201.51 634,-184 642.09,-169.88 635.67,-151.88 628.34,-138.66"/>
<polygon fill="#63b8ff" stroke="#63b8ff" points="631.55,-137.2 623.32,-130.52 625.59,-140.87 631.55,-137.2"/>
</g>
<!-- Node16 -->
<g id="node16" class="node">
<title>Node16</title>
<g id="a_node16"><a xlink:href="../../df/dc3/_f_m_c__typedefs_8h.html" target="_top" xlink:title=" ">
<polygon fill="white" stroke="#666666" points="762,-129 674,-129 674,-110 762,-110 762,-129"/>
<text text-anchor="middle" x="718" y="-117" font-family="Helvetica,sans-Serif" font-size="10.00">FMC_typedefs.h</text>
</a>
</g>
</g>
<!-- Node9&#45;&gt;Node16 -->
<g id="edge24" class="edge">
<title>Node9&#45;&gt;Node16</title>
<path fill="none" stroke="#63b8ff" d="M580.68,-219.58C599.72,-211.6 627.22,-198.88 649,-184 669.07,-170.29 689.2,-150.97 702.49,-137.25"/>
<polygon fill="#63b8ff" stroke="#63b8ff" points="704.78,-139.92 709.13,-130.26 699.71,-135.1 704.78,-139.92"/>
</g>
<!-- Node17 -->
<g id="node17" class="node">
<title>Node17</title>
<g id="a_node17"><a xlink:href="../../de/d25/_f_m_c__flags_8h.html" target="_top" xlink:title=" ">
<polygon fill="white" stroke="#666666" points="383.5,-184 252.5,-184 252.5,-165 383.5,-165 383.5,-184"/>
<text text-anchor="middle" x="318" y="-172" font-family="Helvetica,sans-Serif" font-size="10.00">preprocessor/FMC_flags.h</text>
</a>
</g>
</g>
<!-- Node9&#45;&gt;Node17 -->
<g id="edge23" class="edge">
<title>Node9&#45;&gt;Node17</title>
<path fill="none" stroke="#63b8ff" d="M517.29,-219.51C476.57,-210.52 413.79,-196.65 369.6,-186.9"/>
<polygon fill="#63b8ff" stroke="#63b8ff" points="370.51,-183.51 359.99,-184.77 369,-190.35 370.51,-183.51"/>
</g>
<!-- Node18 -->
<g id="node18" class="node">
<title>Node18</title>
<g id="a_node18"><a xlink:href="../../dc/de1/_f_m_c__errors_8h.html" target="_top" xlink:title=" ">
<polygon fill="white" stroke="#666666" points="498.5,-184 401.5,-184 401.5,-165 498.5,-165 498.5,-184"/>
<text text-anchor="middle" x="450" y="-172" font-family="Helvetica,sans-Serif" font-size="10.00">utils/FMC_errors.h</text>
</a>
</g>
</g>
<!-- Node9&#45;&gt;Node18 -->
<g id="edge26" class="edge">
<title>Node9&#45;&gt;Node18</title>
<path fill="none" stroke="#63b8ff" d="M539.68,-219.51C522.82,-211.24 497.57,-198.84 478.15,-189.31"/>
<polygon fill="#63b8ff" stroke="#63b8ff" points="479.93,-186.29 469.41,-185.02 476.84,-192.57 479.93,-186.29"/>
</g>
<!-- Node19 -->
<g id="node19" class="node">
<title>Node19</title>
<g id="a_node19"><a xlink:href="../../de/d83/_f_m_c__globals_8h.html" target="_top" xlink:title=" ">
<polygon fill="white" stroke="#666666" points="822.5,-184 719.5,-184 719.5,-165 822.5,-165 822.5,-184"/>
<text text-anchor="middle" x="771" y="-172" font-family="Helvetica,sans-Serif" font-size="10.00">utils/FMC_globals.h</text>
</a>
</g>
</g>
<!-- Node9&#45;&gt;Node19 -->
<g id="edge30" class="edge">
<title>Node9&#45;&gt;Node19</title>
<path fill="none" stroke="#63b8ff" d="M594.13,-219.51C629.89,-210.61 684.8,-196.95 723.95,-187.21"/>
<polygon fill="#63b8ff" stroke="#63b8ff" points="724.72,-190.62 733.58,-184.81 723.03,-183.83 724.72,-190.62"/>
</g>
<!-- Node20 -->
<g id="node20" class="node">
<title>Node20</title>
<g id="a_node20"><a xlink:href="../../d8/d32/_f_m_c__deprecated_8h.html" target="_top" xlink:title=" ">
<polygon fill="white" stroke="#666666" points="120,-184 0,-184 0,-165 120,-165 120,-184"/>
<text text-anchor="middle" x="60" y="-172" font-family="Helvetica,sans-Serif" font-size="10.00">utils/FMC_deprecated.h</text>
</a>
</g>
</g>
<!-- Node9&#45;&gt;Node20 -->
<g id="edge33" class="edge">
<title>Node9&#45;&gt;Node20</title>
<path fill="none" stroke="#63b8ff" d="M490.06,-221.27C396.19,-211.28 227.6,-193.34 131.75,-183.14"/>
<polygon fill="#63b8ff" stroke="#63b8ff" points="132.26,-179.67 121.94,-182.09 131.52,-186.63 132.26,-179.67"/>
</g>
<!-- Node10&#45;&gt;Node11 -->
<g id="edge10" class="edge">
<title>Node10&#45;&gt;Node11</title>
<path fill="none" stroke="#63b8ff" d="M616.78,-54.51C651.19,-45.61 704.04,-31.95 741.72,-22.21"/>
<polygon fill="#63b8ff" stroke="#63b8ff" points="742.13,-25.72 750.93,-19.83 740.37,-18.94 742.13,-25.72"/>
</g>
<!-- Node12 -->
<g id="node12" class="node">
<title>Node12</title>
<g id="a_node12"><a xlink:href="../../d4/d62/_f_m_c__attributes_8h.html" target="_top" xlink:title=" ">
<polygon fill="white" stroke="#666666" points="628,-19 536,-19 536,0 628,0 628,-19"/>
<text text-anchor="middle" x="582" y="-7" font-family="Helvetica,sans-Serif" font-size="10.00">FMC_attributes.h</text>
</a>
</g>
</g>
<!-- Node10&#45;&gt;Node12 -->
<g id="edge11" class="edge">
<title>Node10&#45;&gt;Node12</title>
<path fill="none" stroke="#63b8ff" d="M576.83,-54.75C575.42,-48.19 574.96,-38.95 575.43,-30.6"/>
<polygon fill="#63b8ff" stroke="#63b8ff" points="578.87,-31.3 576.61,-20.94 571.92,-30.45 578.87,-31.3"/>
</g>
<!-- Node12&#45;&gt;Node10 -->
<g id="edge12" class="edge">
<title>Node12&#45;&gt;Node10</title>
<path fill="none" stroke="#63b8ff" d="M587.21,-19.44C588.58,-25.97 589.04,-35.1 588.57,-43.35"/>
<polygon fill="#63b8ff" stroke="#63b8ff" points="585.1,-42.89 587.35,-53.25 592.05,-43.75 585.1,-42.89"/>
</g>
<!-- Node14&#45;&gt;Node2 -->
<g id="edge16" class="edge">
<title>Node14&#45;&gt;Node2</title>
<path fill="none" stroke="#63b8ff" d="M525.2,-164.51C471.55,-153.98 383.87,-136.77 335.6,-127.29"/>
<polygon fill="#63b8ff" stroke="#63b8ff" points="336.47,-123.9 325.98,-125.4 335.12,-130.77 336.47,-123.9"/>
</g>
<!-- Node14&#45;&gt;Node10 -->
<g id="edge18" class="edge">
<title>Node14&#45;&gt;Node10</title>
<path fill="none" stroke="#63b8ff" d="M569.23,-164.81C566.99,-152.52 563.82,-129.4 567,-110 568.37,-101.66 571.09,-92.77 573.84,-85.15"/>
<polygon fill="#63b8ff" stroke="#63b8ff" points="577.08,-86.48 577.45,-75.89 570.56,-83.94 577.08,-86.48"/>
</g>
<!-- Node14&#45;&gt;Node13 -->
<g id="edge17" class="edge">
<title>Node14&#45;&gt;Node13</title>
<path fill="none" stroke="#63b8ff" d="M550.47,-164.51C531.32,-156.12 502.5,-143.5 480.63,-133.92"/>
<polygon fill="#63b8ff" stroke="#63b8ff" points="482.17,-130.77 471.61,-129.97 479.36,-137.18 482.17,-130.77"/>
</g>
<!-- Node14&#45;&gt;Node15 -->
<g id="edge19" class="edge">
<title>Node14&#45;&gt;Node15</title>
<path fill="none" stroke="#63b8ff" d="M578.43,-164.75C584.58,-157.5 593.51,-146.98 601.13,-138.02"/>
<polygon fill="#63b8ff" stroke="#63b8ff" points="603.62,-140.48 607.43,-130.6 598.29,-135.95 603.62,-140.48"/>
</g>
<!-- Node14&#45;&gt;Node16 -->
<g id="edge21" class="edge">
<title>Node14&#45;&gt;Node16</title>
<path fill="none" stroke="#63b8ff" d="M595.94,-164.51C619.84,-155.89 656.14,-142.8 682.95,-133.14"/>
<polygon fill="#63b8ff" stroke="#63b8ff" points="683.79,-136.56 692.01,-129.87 681.41,-129.97 683.79,-136.56"/>
</g>
<!-- Node15&#45;&gt;Node10 -->
<g id="edge20" class="edge">
<title>Node15&#45;&gt;Node10</title>
<path fill="none" stroke="#63b8ff" d="M610.39,-109.75C605.88,-102.73 599.41,-92.64 593.79,-83.87"/>
<polygon fill="#63b8ff" stroke="#63b8ff" points="596.9,-82.24 588.55,-75.72 591.01,-86.02 596.9,-82.24"/>
</g>
<!-- Node16&#45;&gt;Node10 -->
<g id="edge22" class="edge">
<title>Node16&#45;&gt;Node10</title>
<path fill="none" stroke="#63b8ff" d="M694.93,-109.51C673.11,-101.01 640.12,-88.15 615.42,-78.53"/>
<polygon fill="#63b8ff" stroke="#63b8ff" points="616.73,-75.28 606.14,-74.91 614.19,-81.8 616.73,-75.28"/>
</g>
<!-- Node18&#45;&gt;Node2 -->
<g id="edge27" class="edge">
<title>Node18&#45;&gt;Node2</title>
<path fill="none" stroke="#63b8ff" d="M424.72,-164.51C400.06,-155.74 362.36,-142.33 335.06,-132.62"/>
<polygon fill="#63b8ff" stroke="#63b8ff" points="336.45,-129.4 325.86,-129.34 334.11,-135.99 336.45,-129.4"/>
</g>
<!-- Node18&#45;&gt;Node10 -->
<g id="edge29" class="edge">
<title>Node18&#45;&gt;Node10</title>
<path fill="none" stroke="#63b8ff" d="M422.6,-164.58C392.94,-153.49 352.21,-133.16 371,-110 387.23,-89.99 447.01,-78.63 498.81,-72.41"/>
<polygon fill="#63b8ff" stroke="#63b8ff" points="499.03,-75.91 508.57,-71.29 498.23,-68.95 499.03,-75.91"/>
</g>
<!-- Node18&#45;&gt;Node13 -->
<g id="edge28" class="edge">
<title>Node18&#45;&gt;Node13</title>
<path fill="none" stroke="#63b8ff" d="M450,-164.75C450,-158.27 450,-149.16 450,-140.9"/>
<polygon fill="#63b8ff" stroke="#63b8ff" points="453.5,-140.96 450,-130.96 446.5,-140.96 453.5,-140.96"/>
</g>
<!-- Node19&#45;&gt;Node10 -->
<g id="edge32" class="edge">
<title>Node19&#45;&gt;Node10</title>
<path fill="none" stroke="#63b8ff" d="M774.12,-164.59C778.2,-151.19 783.46,-125.73 771,-110 757.47,-92.92 709.4,-81.74 665.13,-74.86"/>
<polygon fill="#63b8ff" stroke="#63b8ff" points="665.88,-71.43 655.47,-73.42 664.85,-78.35 665.88,-71.43"/>
</g>
<!-- Node19&#45;&gt;Node16 -->
<g id="edge31" class="edge">
<title>Node19&#45;&gt;Node16</title>
<path fill="none" stroke="#63b8ff" d="M762.25,-164.75C754.85,-157.35 744.04,-146.54 734.95,-137.45"/>
<polygon fill="#63b8ff" stroke="#63b8ff" points="737.56,-135.11 728.01,-130.51 732.61,-140.06 737.56,-135.11"/>
</g>
<!-- Node20&#45;&gt;Node12 -->
<g id="edge34" class="edge">
<title>Node20&#45;&gt;Node12</title>
<path fill="none" stroke="#63b8ff" d="M59.95,-164.64C60.37,-150.81 63.33,-124.24 79,-110 143.87,-51.04 406.62,-23.91 524.4,-14.53"/>
<polygon fill="#63b8ff" stroke="#63b8ff" points="524.46,-18.04 534.16,-13.77 523.92,-11.06 524.46,-18.04"/>
</g>
<!-- Node21 -->
<g id="node21" class="node">
<title>Node21</title>
<g id="a_node21"><a xlink:title=" ">
<polygon fill="#e0e0e0" stroke="#999999" points="139.5,-129 88.5,-129 88.5,-110 139.5,-110 139.5,-129"/>
<text text-anchor="middle" x="114" y="-117" font-family="Helvetica,sans-Serif" font-size="10.00">stddef.h</text>
</a>
</g>
</g>
<!-- Node20&#45;&gt;Node21 -->
<g id="edge35" class="edge">
<title>Node20&#45;&gt;Node21</title>
<path fill="none" stroke="#63b8ff" d="M68.92,-164.75C76.45,-157.35 87.47,-146.54 96.73,-137.45"/>
<polygon fill="#63b8ff" stroke="#63b8ff" points="99.12,-140 103.81,-130.5 94.22,-135.01 99.12,-140"/>
</g>
</g>
</svg>
        <g id="navigator" transform="translate(0 0)" fill="#404254">
                <rect fill="#f2f5e9" fill-opacity="0.5" stroke="#606060" stroke-width=".5" x="0" y="0" width="60" height="60"/>
                <use id="zoomplus" xlink:href="#zoomPlus" x="17" y="9" onmousedown="handleZoom(evt,'in')"/>
                <use id="zoomminus" xlink:href="#zoomMin" x="42" y="9" onmousedown="handleZoom(evt,'out')"/>
                <use id="reset" xlink:href="#resetDef" x="30" y="36" onmousedown="handleReset()"/>
                <g id="arrowUp" xlink:href="#dirArrow" transform="translate(30 24)" onmousedown="handlePan(0,-1)">
                  <use xlink:href="#rim" fill="#404040">
                        <set attributeName="fill" to="#808080" begin="arrowUp.mouseover" end="arrowUp.mouseout"/>
                  </use>
                  <path fill="none" stroke="white" stroke-width="1.5" d="M0,-3.0v7 M-2.5,-0.5L0,-3.0L2.5,-0.5"/>
                </g>
                <g id="arrowRight" xlink:href="#dirArrow" transform="rotate(90) translate(36 -43)" onmousedown="handlePan(1,0)">
                  <use xlink:href="#rim" fill="#404040">
                        <set attributeName="fill" to="#808080" begin="arrowRight.mouseover" end="arrowRight.mouseout"/>
                  </use>
                  <path fill="none" stroke="white" stroke-width="1.5" d="M0,-3.0v7 M-2.5,-0.5L0,-3.0L2.5,-0.5"/>
                </g>
                <g id="arrowDown" xlink:href="#dirArrow" transform="rotate(180) translate(-30 -48)" onmousedown="handlePan(0,1)">
                  <use xlink:href="#rim" fill="#404040">
                        <set attributeName="fill" to="#808080" begin="arrowDown.mouseover" end="arrowDown.mouseout"/>
                  </use>
                  <path fill="none" stroke="white" stroke-width="1.5" d="M0,-3.0v7 M-2.5,-0.5L0,-3.0L2.5,-0.5"/>
                </g>
                <g id="arrowLeft" xlink:href="#dirArrow" transform="rotate(270) translate(-36 17)" onmousedown="handlePan(-1,0)">
                  <use xlink:href="#rim" fill="#404040">
                        <set attributeName="fill" to="#808080" begin="arrowLeft.mouseover" end="arrowLeft.mouseout"/>
                  </use>
                  <path fill="none" stroke="white" stroke-width="1.5" d="M0,-3.0v7 M-2.5,-0.5L0,-3.0L2.5,-0.5"/>
                </g>
        </g>
        <svg viewBox="0 0 15 15" width="100%" height="30px" preserveAspectRatio="xMaxYMin meet">
         <g id="arrow_out" transform="scale(0.3 0.3)">
          <a xlink:href="_f_m_c__encodings_8c__incl_org.svg" target="_base">
           <rect id="button" ry="5" rx="5" y="6" x="6" height="38" width="38"
                fill="#f2f5e9" fill-opacity="0.5" stroke="#606060" stroke-width="1.0"/>
           <path id="arrow"
             d="M 11.500037,31.436501 C 11.940474,20.09759 22.043105,11.32322 32.158766,21.979434 L 37.068811,17.246167 C 37.068811,17.246167 37.088388,32 37.088388,32 L 22.160133,31.978069 C 22.160133,31.978069 26.997745,27.140456 26.997745,27.140456 C 18.528582,18.264221 13.291696,25.230495 11.500037,31.436501 z"
             style="fill:#404040;"/>
          </a>
         </g>
        </svg>
</svg>
