<?xml version="1.0" encoding="UTF-8" standalone="no"?>
<!DOCTYPE svg PUBLIC "-//W3C//DTD SVG 1.1//EN"
 "http://www.w3.org/Graphics/SVG/1.1/DTD/svg11.dtd">
<!-- Generated by graphviz version 7.1.0 (20230121.1956)
 -->
<!-- Title: FMC_printRedError Pages: 1 -->
<svg width="292pt" height="113pt"
 viewBox="0.00 0.00 292.00 112.50" xmlns="http://www.w3.org/2000/svg" xmlns:xlink="http://www.w3.org/1999/xlink">
<g id="graph0" class="graph" transform="scale(1 1) rotate(0) translate(4 108.5)">
<title>FMC_printRedError</title>
<!-- Node1 -->
<g id="node1" class="node">
<title>Node1</title>
<g id="a_node1"><a xlink:title=" ">
<polygon fill="#999999" stroke="#666666" points="100,-56 0,-56 0,-37 100,-37 100,-56"/>
<text text-anchor="middle" x="50" y="-44" font-family="Helvetica,sans-Serif" font-size="10.00">FMC_printRedError</text>
</a>
</g>
</g>
<!-- Node2 -->
<g id="node2" class="node">
<title>Node2</title>
<g id="a_node2"><a xlink:href="../../dc/de1/_f_m_c__errors_8h.html#a4a9e7b1b2d781c6b3c57500f8e5f1b4b" target="_top" xlink:title=" ">
<polygon fill="white" stroke="#666666" points="283.5,-104.5 136.5,-104.5 136.5,-74.5 283.5,-74.5 283.5,-104.5"/>
<text text-anchor="start" x="144.5" y="-92.5" font-family="Helvetica,sans-Serif" font-size="10.00">FMC_changeStreamTextColor</text>
<text text-anchor="middle" x="210" y="-81.5" font-family="Helvetica,sans-Serif" font-size="10.00">ToRed</text>
</a>
</g>
</g>
<!-- Node1&#45;&gt;Node2 -->
<g id="edge1" class="edge">
<title>Node1&#45;&gt;Node2</title>
<path fill="none" stroke="#63b8ff" d="M87.65,-56.47C103.57,-60.81 122.76,-66.03 141.13,-71.03"/>
<polygon fill="#63b8ff" stroke="#63b8ff" points="140.1,-74.38 150.67,-73.62 141.94,-67.62 140.1,-74.38"/>
</g>
<!-- Node3 -->
<g id="node3" class="node">
<title>Node3</title>
<g id="a_node3"><a xlink:href="../../dc/de1/_f_m_c__errors_8h.html#a5dac1ddff314ba7b3bed3d87eb3f19f5" target="_top" xlink:title=" ">
<polygon fill="white" stroke="#666666" points="284,-56 136,-56 136,-37 284,-37 284,-56"/>
<text text-anchor="middle" x="210" y="-44" font-family="Helvetica,sans-Serif" font-size="10.00">FMC_resetStreamOutputStyle</text>
</a>
</g>
</g>
<!-- Node1&#45;&gt;Node3 -->
<g id="edge2" class="edge">
<title>Node1&#45;&gt;Node3</title>
<path fill="none" stroke="#63b8ff" d="M100.13,-46.5C107.85,-46.5 116.02,-46.5 124.27,-46.5"/>
<polygon fill="#63b8ff" stroke="#63b8ff" points="124.03,-50 134.03,-46.5 124.03,-43 124.03,-50"/>
</g>
<!-- Node4 -->
<g id="node4" class="node">
<title>Node4</title>
<g id="a_node4"><a xlink:href="../../dc/de1/_f_m_c__errors_8h.html#ad65d0a387448c0139270e9c628cf4126" target="_top" xlink:title=" ">
<polygon fill="white" stroke="#666666" points="274,-19 146,-19 146,0 274,0 274,-19"/>
<text text-anchor="middle" x="210" y="-7" font-family="Helvetica,sans-Serif" font-size="10.00">FMC_setTextStyleToBold</text>
</a>
</g>
</g>
<!-- Node1&#45;&gt;Node4 -->
<g id="edge3" class="edge">
<title>Node1&#45;&gt;Node4</title>
<path fill="none" stroke="#63b8ff" d="M93.34,-36.58C112.47,-32.11 135.28,-26.76 155.57,-22.01"/>
<polygon fill="#63b8ff" stroke="#63b8ff" points="156.13,-25.48 165.07,-19.79 154.53,-18.66 156.13,-25.48"/>
</g>
</g>
</svg>
