<?xml version="1.0" encoding="UTF-8" standalone="no"?>
<!DOCTYPE svg PUBLIC "-//W3C//DTD SVG 1.1//EN"
 "http://www.w3.org/Graphics/SVG/1.1/DTD/svg11.dtd">
<!-- Generated by graphviz version 7.1.0 (20230121.1956)
 -->
<!-- Title: FMC_changeStreamTextColorToMagenta Pages: 1 -->
<svg width="311pt" height="64pt"
 viewBox="0.00 0.00 311.00 64.00" xmlns="http://www.w3.org/2000/svg" xmlns:xlink="http://www.w3.org/1999/xlink">
<g id="graph0" class="graph" transform="scale(1 1) rotate(0) translate(4 60)">
<title>FMC_changeStreamTextColorToMagenta</title>
<!-- Node1 -->
<g id="node1" class="node">
<title>Node1</title>
<g id="a_node1"><a xlink:title=" ">
<polygon fill="#999999" stroke="#666666" points="303,-42.5 156,-42.5 156,-12.5 303,-12.5 303,-42.5"/>
<text text-anchor="start" x="164" y="-30.5" font-family="Helvetica,sans-Serif" font-size="10.00">FMC_changeStreamTextColor</text>
<text text-anchor="middle" x="229.5" y="-19.5" font-family="Helvetica,sans-Serif" font-size="10.00">ToMagenta</text>
</a>
</g>
</g>
<!-- Node2 -->
<g id="node2" class="node">
<title>Node2</title>
<g id="a_node2"><a xlink:href="../../dc/de1/_f_m_c__errors_8h.html#a5baf70d47076d8a69e144a29f96aaa83" target="_top" xlink:title=" ">
<polygon fill="white" stroke="#666666" points="120,-56 0,-56 0,-37 120,-37 120,-56"/>
<text text-anchor="middle" x="60" y="-44" font-family="Helvetica,sans-Serif" font-size="10.00">FMC_printMagentaError</text>
</a>
</g>
</g>
<!-- Node1&#45;&gt;Node2 -->
<g id="edge1" class="edge">
<title>Node1&#45;&gt;Node2</title>
<path fill="none" stroke="#63b8ff" d="M144.19,-37.06C136.17,-37.97 128.14,-38.88 120.42,-39.76"/>
<polygon fill="#63b8ff" stroke="#63b8ff" points="144.47,-40.55 154.02,-35.95 143.68,-33.6 144.47,-40.55"/>
</g>
<!-- Node3 -->
<g id="node3" class="node">
<title>Node3</title>
<g id="a_node3"><a xlink:href="../../dc/de1/_f_m_c__errors_8h.html#ac070f77b4b4bb3dd42d9e4bbbebf247e" target="_top" xlink:title=" ">
<polygon fill="white" stroke="#666666" points="119,-19 1,-19 1,0 119,0 119,-19"/>
<text text-anchor="middle" x="60" y="-7" font-family="Helvetica,sans-Serif" font-size="10.00">FMC_printMagentaText</text>
</a>
</g>
</g>
<!-- Node1&#45;&gt;Node3 -->
<g id="edge2" class="edge">
<title>Node1&#45;&gt;Node3</title>
<path fill="none" stroke="#63b8ff" d="M144.14,-18.43C135.77,-17.54 127.42,-16.64 119.4,-15.78"/>
<polygon fill="#63b8ff" stroke="#63b8ff" points="143.7,-21.91 154.01,-19.5 144.45,-14.95 143.7,-21.91"/>
</g>
</g>
</svg>
