<?xml version="1.0" encoding="UTF-8" standalone="no"?>
<!DOCTYPE svg PUBLIC "-//W3C//DTD SVG 1.1//EN"
 "http://www.w3.org/Graphics/SVG/1.1/DTD/svg11.dtd">
<!-- Generated by graphviz version 7.1.0 (20230121.1956)
 -->
<!-- Title: FMC_printCyanText Pages: 1 -->
<svg width="295pt" height="76pt"
 viewBox="0.00 0.00 295.00 75.50" xmlns="http://www.w3.org/2000/svg" xmlns:xlink="http://www.w3.org/1999/xlink">
<g id="graph0" class="graph" transform="scale(1 1) rotate(0) translate(4 71.5)">
<title>FMC_printCyanText</title>
<!-- Node1 -->
<g id="node1" class="node">
<title>Node1</title>
<g id="a_node1"><a xlink:title=" ">
<polygon fill="#999999" stroke="#666666" points="103,-40 0,-40 0,-21 103,-21 103,-40"/>
<text text-anchor="middle" x="51.5" y="-28" font-family="Helvetica,sans-Serif" font-size="10.00">FMC_printCyanText</text>
</a>
</g>
</g>
<!-- Node2 -->
<g id="node2" class="node">
<title>Node2</title>
<g id="a_node2"><a xlink:href="../../dc/de1/_f_m_c__errors_8h.html#a783bb339d04854160955cc2af5d9b8f2" target="_top" xlink:title=" ">
<polygon fill="white" stroke="#666666" points="286.5,-67.5 139.5,-67.5 139.5,-37.5 286.5,-37.5 286.5,-67.5"/>
<text text-anchor="start" x="147.5" y="-55.5" font-family="Helvetica,sans-Serif" font-size="10.00">FMC_changeStreamTextColor</text>
<text text-anchor="middle" x="213" y="-44.5" font-family="Helvetica,sans-Serif" font-size="10.00">ToCyan</text>
</a>
</g>
</g>
<!-- Node1&#45;&gt;Node2 -->
<g id="edge1" class="edge">
<title>Node1&#45;&gt;Node2</title>
<path fill="none" stroke="#63b8ff" d="M103.41,-37.52C111.24,-38.6 119.5,-39.74 127.83,-40.89"/>
<polygon fill="#63b8ff" stroke="#63b8ff" points="127.31,-44.35 137.7,-42.25 128.27,-37.42 127.31,-44.35"/>
</g>
<!-- Node3 -->
<g id="node3" class="node">
<title>Node3</title>
<g id="a_node3"><a xlink:href="../../dc/de1/_f_m_c__errors_8h.html#a5dac1ddff314ba7b3bed3d87eb3f19f5" target="_top" xlink:title=" ">
<polygon fill="white" stroke="#666666" points="287,-19 139,-19 139,0 287,0 287,-19"/>
<text text-anchor="middle" x="213" y="-7" font-family="Helvetica,sans-Serif" font-size="10.00">FMC_resetStreamOutputStyle</text>
</a>
</g>
</g>
<!-- Node1&#45;&gt;Node3 -->
<g id="edge2" class="edge">
<title>Node1&#45;&gt;Node3</title>
<path fill="none" stroke="#63b8ff" d="M103.41,-23.8C111.11,-22.78 119.24,-21.71 127.43,-20.63"/>
<polygon fill="#63b8ff" stroke="#63b8ff" points="127.66,-24.13 137.11,-19.36 126.74,-17.19 127.66,-24.13"/>
</g>
</g>
</svg>
