<?xml version="1.0" encoding="UTF-8" standalone="no"?>
<!DOCTYPE svg PUBLIC "-//W3C//DTD SVG 1.1//EN"
 "http://www.w3.org/Graphics/SVG/1.1/DTD/svg11.dtd">
<!-- Generated by graphviz version 7.1.0 (20230121.1956)
 -->
<!-- Title: FMC_changeStreamTextColorToBrightGreen Pages: 1 -->
<svg width="325pt" height="64pt"
 viewBox="0.00 0.00 325.00 64.00" xmlns="http://www.w3.org/2000/svg" xmlns:xlink="http://www.w3.org/1999/xlink">
<g id="graph0" class="graph" transform="scale(1 1) rotate(0) translate(4 60)">
<title>FMC_changeStreamTextColorToBrightGreen</title>
<!-- Node1 -->
<g id="node1" class="node">
<title>Node1</title>
<g id="a_node1"><a xlink:title=" ">
<polygon fill="#999999" stroke="#666666" points="317,-42.5 170,-42.5 170,-12.5 317,-12.5 317,-42.5"/>
<text text-anchor="start" x="178" y="-30.5" font-family="Helvetica,sans-Serif" font-size="10.00">FMC_changeStreamTextColor</text>
<text text-anchor="middle" x="243.5" y="-19.5" font-family="Helvetica,sans-Serif" font-size="10.00">ToBrightGreen</text>
</a>
</g>
</g>
<!-- Node2 -->
<g id="node2" class="node">
<title>Node2</title>
<g id="a_node2"><a xlink:href="../../dc/de1/_f_m_c__errors_8h.html#a133abc0a18c0f9f52d027fa9dad3f21f" target="_top" xlink:title=" ">
<polygon fill="white" stroke="#666666" points="134,-56 0,-56 0,-37 134,-37 134,-56"/>
<text text-anchor="middle" x="67" y="-44" font-family="Helvetica,sans-Serif" font-size="10.00">FMC_printBrightGreenError</text>
</a>
</g>
</g>
<!-- Node1&#45;&gt;Node2 -->
<g id="edge1" class="edge">
<title>Node1&#45;&gt;Node2</title>
<path fill="none" stroke="#63b8ff" d="M158.21,-36.68C150.18,-37.55 142.12,-38.43 134.3,-39.28"/>
<polygon fill="#63b8ff" stroke="#63b8ff" points="158.44,-40.17 168,-35.61 157.68,-33.21 158.44,-40.17"/>
</g>
<!-- Node3 -->
<g id="node3" class="node">
<title>Node3</title>
<g id="a_node3"><a xlink:href="../../dc/de1/_f_m_c__errors_8h.html#a0b9d431b21e604d61e2bad26eb6ff307" target="_top" xlink:title=" ">
<polygon fill="white" stroke="#666666" points="133,-19 1,-19 1,0 133,0 133,-19"/>
<text text-anchor="middle" x="67" y="-7" font-family="Helvetica,sans-Serif" font-size="10.00">FMC_printBrightGreenText</text>
</a>
</g>
</g>
<!-- Node1&#45;&gt;Node3 -->
<g id="edge2" class="edge">
<title>Node1&#45;&gt;Node3</title>
<path fill="none" stroke="#63b8ff" d="M158.22,-18.81C149.91,-17.95 141.56,-17.09 133.47,-16.25"/>
<polygon fill="#63b8ff" stroke="#63b8ff" points="157.7,-22.27 168,-19.82 158.41,-15.31 157.7,-22.27"/>
</g>
</g>
</svg>
