<?xml version="1.0" encoding="UTF-8" standalone="no"?>
<!DOCTYPE svg PUBLIC "-//W3C//DTD SVG 1.1//EN"
 "http://www.w3.org/Graphics/SVG/1.1/DTD/svg11.dtd">
<!-- Generated by graphviz version 7.1.0 (20230121.1956)
 -->
<!-- Title: FMC_printGreenText Pages: 1 -->
<svg width="299pt" height="76pt"
 viewBox="0.00 0.00 299.00 75.50" xmlns="http://www.w3.org/2000/svg" xmlns:xlink="http://www.w3.org/1999/xlink">
<g id="graph0" class="graph" transform="scale(1 1) rotate(0) translate(4 71.5)">
<title>FMC_printGreenText</title>
<!-- Node1 -->
<g id="node1" class="node">
<title>Node1</title>
<g id="a_node1"><a xlink:title=" ">
<polygon fill="#999999" stroke="#666666" points="107,-40 0,-40 0,-21 107,-21 107,-40"/>
<text text-anchor="middle" x="53.5" y="-28" font-family="Helvetica,sans-Serif" font-size="10.00">FMC_printGreenText</text>
</a>
</g>
</g>
<!-- Node2 -->
<g id="node2" class="node">
<title>Node2</title>
<g id="a_node2"><a xlink:href="../../dc/de1/_f_m_c__errors_8h.html#ab8572eccf1615a1c6694e200d3ce3665" target="_top" xlink:title=" ">
<polygon fill="white" stroke="#666666" points="290.5,-67.5 143.5,-67.5 143.5,-37.5 290.5,-37.5 290.5,-67.5"/>
<text text-anchor="start" x="151.5" y="-55.5" font-family="Helvetica,sans-Serif" font-size="10.00">FMC_changeStreamTextColor</text>
<text text-anchor="middle" x="217" y="-44.5" font-family="Helvetica,sans-Serif" font-size="10.00">ToGreen</text>
</a>
</g>
</g>
<!-- Node1&#45;&gt;Node2 -->
<g id="edge1" class="edge">
<title>Node1&#45;&gt;Node2</title>
<path fill="none" stroke="#63b8ff" d="M107.38,-37.7C115.22,-38.77 123.47,-39.89 131.76,-41.02"/>
<polygon fill="#63b8ff" stroke="#63b8ff" points="131.18,-44.48 141.56,-42.36 132.13,-37.54 131.18,-44.48"/>
</g>
<!-- Node3 -->
<g id="node3" class="node">
<title>Node3</title>
<g id="a_node3"><a xlink:href="../../dc/de1/_f_m_c__errors_8h.html#a5dac1ddff314ba7b3bed3d87eb3f19f5" target="_top" xlink:title=" ">
<polygon fill="white" stroke="#666666" points="291,-19 143,-19 143,0 291,0 291,-19"/>
<text text-anchor="middle" x="217" y="-7" font-family="Helvetica,sans-Serif" font-size="10.00">FMC_resetStreamOutputStyle</text>
</a>
</g>
</g>
<!-- Node1&#45;&gt;Node3 -->
<g id="edge2" class="edge">
<title>Node1&#45;&gt;Node3</title>
<path fill="none" stroke="#63b8ff" d="M107.38,-23.62C115.16,-22.61 123.33,-21.55 131.56,-20.48"/>
<polygon fill="#63b8ff" stroke="#63b8ff" points="131.8,-23.98 141.27,-19.22 130.9,-17.04 131.8,-23.98"/>
</g>
</g>
</svg>
