<?xml version="1.0" encoding="UTF-8" standalone="no"?>
<!DOCTYPE svg PUBLIC "-//W3C//DTD SVG 1.1//EN"
 "http://www.w3.org/Graphics/SVG/1.1/DTD/svg11.dtd">
<!-- Generated by graphviz version 7.1.0 (20230121.1956)
 -->
<!-- Title: FMC_changeStreamTextColorToBrightMagenta Pages: 1 -->
<svg width="337pt" height="64pt"
 viewBox="0.00 0.00 337.00 64.00" xmlns="http://www.w3.org/2000/svg" xmlns:xlink="http://www.w3.org/1999/xlink">
<g id="graph0" class="graph" transform="scale(1 1) rotate(0) translate(4 60)">
<title>FMC_changeStreamTextColorToBrightMagenta</title>
<!-- Node1 -->
<g id="node1" class="node">
<title>Node1</title>
<g id="a_node1"><a xlink:title=" ">
<polygon fill="#999999" stroke="#666666" points="329,-42.5 182,-42.5 182,-12.5 329,-12.5 329,-42.5"/>
<text text-anchor="start" x="190" y="-30.5" font-family="Helvetica,sans-Serif" font-size="10.00">FMC_changeStreamTextColor</text>
<text text-anchor="middle" x="255.5" y="-19.5" font-family="Helvetica,sans-Serif" font-size="10.00">ToBrightMagenta</text>
</a>
</g>
</g>
<!-- Node2 -->
<g id="node2" class="node">
<title>Node2</title>
<g id="a_node2"><a xlink:href="../../dc/de1/_f_m_c__errors_8h.html#a8b30c700dfc669e1bd513a249cf10870" target="_top" xlink:title=" ">
<polygon fill="white" stroke="#666666" points="146,-56 0,-56 0,-37 146,-37 146,-56"/>
<text text-anchor="middle" x="73" y="-44" font-family="Helvetica,sans-Serif" font-size="10.00">FMC_printBrightMagentaError</text>
</a>
</g>
</g>
<!-- Node1&#45;&gt;Node2 -->
<g id="edge1" class="edge">
<title>Node1&#45;&gt;Node2</title>
<path fill="none" stroke="#63b8ff" d="M170.32,-36.36C162.29,-37.21 154.19,-38.06 146.29,-38.89"/>
<polygon fill="#63b8ff" stroke="#63b8ff" points="170.52,-39.86 180.1,-35.33 169.79,-32.9 170.52,-39.86"/>
</g>
<!-- Node3 -->
<g id="node3" class="node">
<title>Node3</title>
<g id="a_node3"><a xlink:href="../../dc/de1/_f_m_c__errors_8h.html#aab6408cca4d942122d73844d14153705" target="_top" xlink:title=" ">
<polygon fill="white" stroke="#666666" points="144.5,-19 1.5,-19 1.5,0 144.5,0 144.5,-19"/>
<text text-anchor="middle" x="73" y="-7" font-family="Helvetica,sans-Serif" font-size="10.00">FMC_printBrightMagentaText</text>
</a>
</g>
</g>
<!-- Node1&#45;&gt;Node3 -->
<g id="edge2" class="edge">
<title>Node1&#45;&gt;Node3</title>
<path fill="none" stroke="#63b8ff" d="M170.42,-19.12C161.86,-18.26 153.22,-17.4 144.82,-16.56"/>
<polygon fill="#63b8ff" stroke="#63b8ff" points="169.8,-22.57 180.1,-20.08 170.49,-15.61 169.8,-22.57"/>
</g>
</g>
</svg>
