<?xml version="1.0" encoding="UTF-8" standalone="no"?>
<!DOCTYPE svg PUBLIC "-//W3C//DTD SVG 1.1//EN"
 "http://www.w3.org/Graphics/SVG/1.1/DTD/svg11.dtd">
<!-- Generated by graphviz version 7.1.0 (20230121.1956)
 -->
<!-- Title: FMC_changeStreamTextColorToBlue Pages: 1 -->
<svg width="293pt" height="64pt"
 viewBox="0.00 0.00 293.00 64.00" xmlns="http://www.w3.org/2000/svg" xmlns:xlink="http://www.w3.org/1999/xlink">
<g id="graph0" class="graph" transform="scale(1 1) rotate(0) translate(4 60)">
<title>FMC_changeStreamTextColorToBlue</title>
<!-- Node1 -->
<g id="node1" class="node">
<title>Node1</title>
<g id="a_node1"><a xlink:title=" ">
<polygon fill="#999999" stroke="#666666" points="285,-42.5 138,-42.5 138,-12.5 285,-12.5 285,-42.5"/>
<text text-anchor="start" x="146" y="-30.5" font-family="Helvetica,sans-Serif" font-size="10.00">FMC_changeStreamTextColor</text>
<text text-anchor="middle" x="211.5" y="-19.5" font-family="Helvetica,sans-Serif" font-size="10.00">ToBlue</text>
</a>
</g>
</g>
<!-- Node2 -->
<g id="node2" class="node">
<title>Node2</title>
<g id="a_node2"><a xlink:href="../../dc/de1/_f_m_c__errors_8h.html#a5820ba295df9ea6e2dd3df119a90396f" target="_top" xlink:title=" ">
<polygon fill="white" stroke="#666666" points="102,-56 0,-56 0,-37 102,-37 102,-56"/>
<text text-anchor="middle" x="51" y="-44" font-family="Helvetica,sans-Serif" font-size="10.00">FMC_printBlueError</text>
</a>
</g>
</g>
<!-- Node1&#45;&gt;Node2 -->
<g id="edge1" class="edge">
<title>Node1&#45;&gt;Node2</title>
<path fill="none" stroke="#63b8ff" d="M126.43,-37.58C118.14,-38.57 109.92,-39.56 102.13,-40.49"/>
<polygon fill="#63b8ff" stroke="#63b8ff" points="126.73,-41.07 136.24,-36.4 125.9,-34.12 126.73,-41.07"/>
</g>
<!-- Node3 -->
<g id="node3" class="node">
<title>Node3</title>
<g id="a_node3"><a xlink:href="../../dc/de1/_f_m_c__errors_8h.html#a11ce969a03ee03a50ddcf342e73e8b2b" target="_top" xlink:title=" ">
<polygon fill="white" stroke="#666666" points="101,-19 1,-19 1,0 101,0 101,-19"/>
<text text-anchor="middle" x="51" y="-7" font-family="Helvetica,sans-Serif" font-size="10.00">FMC_printBlueText</text>
</a>
</g>
</g>
<!-- Node1&#45;&gt;Node3 -->
<g id="edge2" class="edge">
<title>Node1&#45;&gt;Node3</title>
<path fill="none" stroke="#63b8ff" d="M126.41,-17.95C117.8,-16.97 109.26,-16 101.21,-15.09"/>
<polygon fill="#63b8ff" stroke="#63b8ff" points="125.91,-21.42 136.24,-19.07 126.7,-14.46 125.91,-21.42"/>
</g>
</g>
</svg>
