<?xml version="1.0" encoding="UTF-8" standalone="no"?>
<!DOCTYPE svg PUBLIC "-//W3C//DTD SVG 1.1//EN"
 "http://www.w3.org/Graphics/SVG/1.1/DTD/svg11.dtd">
<!-- Generated by graphviz version 7.1.0 (20230121.1956)
 -->
<!-- Title: FMC_printRedText Pages: 1 -->
<svg width="290pt" height="76pt"
 viewBox="0.00 0.00 290.00 75.50" xmlns="http://www.w3.org/2000/svg" xmlns:xlink="http://www.w3.org/1999/xlink">
<g id="graph0" class="graph" transform="scale(1 1) rotate(0) translate(4 71.5)">
<title>FMC_printRedText</title>
<!-- Node1 -->
<g id="node1" class="node">
<title>Node1</title>
<g id="a_node1"><a xlink:title=" ">
<polygon fill="#999999" stroke="#666666" points="98,-40 0,-40 0,-21 98,-21 98,-40"/>
<text text-anchor="middle" x="49" y="-28" font-family="Helvetica,sans-Serif" font-size="10.00">FMC_printRedText</text>
</a>
</g>
</g>
<!-- Node2 -->
<g id="node2" class="node">
<title>Node2</title>
<g id="a_node2"><a xlink:href="../../dc/de1/_f_m_c__errors_8h.html#a4a9e7b1b2d781c6b3c57500f8e5f1b4b" target="_top" xlink:title=" ">
<polygon fill="white" stroke="#666666" points="281.5,-67.5 134.5,-67.5 134.5,-37.5 281.5,-37.5 281.5,-67.5"/>
<text text-anchor="start" x="142.5" y="-55.5" font-family="Helvetica,sans-Serif" font-size="10.00">FMC_changeStreamTextColor</text>
<text text-anchor="middle" x="208" y="-44.5" font-family="Helvetica,sans-Serif" font-size="10.00">ToRed</text>
</a>
</g>
</g>
<!-- Node1&#45;&gt;Node2 -->
<g id="edge1" class="edge">
<title>Node1&#45;&gt;Node2</title>
<path fill="none" stroke="#63b8ff" d="M98.39,-37.28C106.28,-38.39 114.65,-39.56 123.11,-40.74"/>
<polygon fill="#63b8ff" stroke="#63b8ff" points="122.35,-44.17 132.74,-42.09 123.32,-37.24 122.35,-44.17"/>
</g>
<!-- Node3 -->
<g id="node3" class="node">
<title>Node3</title>
<g id="a_node3"><a xlink:href="../../dc/de1/_f_m_c__errors_8h.html#a5dac1ddff314ba7b3bed3d87eb3f19f5" target="_top" xlink:title=" ">
<polygon fill="white" stroke="#666666" points="282,-19 134,-19 134,0 282,0 282,-19"/>
<text text-anchor="middle" x="208" y="-7" font-family="Helvetica,sans-Serif" font-size="10.00">FMC_resetStreamOutputStyle</text>
</a>
</g>
</g>
<!-- Node1&#45;&gt;Node3 -->
<g id="edge2" class="edge">
<title>Node1&#45;&gt;Node3</title>
<path fill="none" stroke="#63b8ff" d="M98.39,-24.03C106.07,-23 114.2,-21.91 122.43,-20.81"/>
<polygon fill="#63b8ff" stroke="#63b8ff" points="122.71,-24.31 132.16,-19.51 121.78,-17.37 122.71,-24.31"/>
</g>
</g>
</svg>
