<?xml version="1.0" encoding="UTF-8" standalone="no"?>
<!DOCTYPE svg PUBLIC "-//W3C//DTD SVG 1.1//EN"
 "http://www.w3.org/Graphics/SVG/1.1/DTD/svg11.dtd">
<!-- Generated by graphviz version 7.1.0 (20230121.1956)
 -->
<!-- Title: FMC_changeStreamTextColorToBrightYellow Pages: 1 -->
<svg width="461pt" height="64pt"
 viewBox="0.00 0.00 461.00 64.00" xmlns="http://www.w3.org/2000/svg" xmlns:xlink="http://www.w3.org/1999/xlink">
<g id="graph0" class="graph" transform="scale(1 1) rotate(0) translate(4 60)">
<title>FMC_changeStreamTextColorToBrightYellow</title>
<!-- Node1 -->
<g id="node1" class="node">
<title>Node1</title>
<g id="a_node1"><a xlink:title=" ">
<polygon fill="#999999" stroke="#666666" points="453,-42.5 306,-42.5 306,-12.5 453,-12.5 453,-42.5"/>
<text text-anchor="start" x="314" y="-30.5" font-family="Helvetica,sans-Serif" font-size="10.00">FMC_changeStreamTextColor</text>
<text text-anchor="middle" x="379.5" y="-19.5" font-family="Helvetica,sans-Serif" font-size="10.00">ToBrightYellow</text>
</a>
</g>
</g>
<!-- Node2 -->
<g id="node2" class="node">
<title>Node2</title>
<g id="a_node2"><a xlink:href="../../dc/de1/_f_m_c__errors_8h.html#a8a9d04ab3b4e6f06e7eead7abd20581c" target="_top" xlink:title=" ">
<polygon fill="white" stroke="#666666" points="270,-56 133,-56 133,-37 270,-37 270,-56"/>
<text text-anchor="middle" x="201.5" y="-44" font-family="Helvetica,sans-Serif" font-size="10.00">FMC_printBrightYellowError</text>
</a>
</g>
</g>
<!-- Node1&#45;&gt;Node2 -->
<g id="edge1" class="edge">
<title>Node1&#45;&gt;Node2</title>
<path fill="none" stroke="#63b8ff" d="M294.29,-36.59C286.22,-37.46 278.11,-38.34 270.22,-39.19"/>
<polygon fill="#63b8ff" stroke="#63b8ff" points="294.57,-40.08 304.14,-35.53 293.82,-33.12 294.57,-40.08"/>
</g>
<!-- Node4 -->
<g id="node4" class="node">
<title>Node4</title>
<g id="a_node4"><a xlink:href="../../dc/de1/_f_m_c__errors_8h.html#ada66fd50420541f0e864c6a56fdd7bad" target="_top" xlink:title=" ">
<polygon fill="white" stroke="#666666" points="268.5,-19 134.5,-19 134.5,0 268.5,0 268.5,-19"/>
<text text-anchor="middle" x="201.5" y="-7" font-family="Helvetica,sans-Serif" font-size="10.00">FMC_printBrightYellowText</text>
</a>
</g>
</g>
<!-- Node1&#45;&gt;Node4 -->
<g id="edge3" class="edge">
<title>Node1&#45;&gt;Node4</title>
<path fill="none" stroke="#63b8ff" d="M294.41,-18.9C285.82,-18.02 277.18,-17.14 268.82,-16.28"/>
<polygon fill="#63b8ff" stroke="#63b8ff" points="293.83,-22.36 304.14,-19.89 294.55,-15.4 293.83,-22.36"/>
</g>
<!-- Node3 -->
<g id="node3" class="node">
<title>Node3</title>
<g id="a_node3"><a xlink:href="../../da/da9/_f_m_c__encodings_8c.html#ac43872885563da059b7870132977db9d" target="_top" xlink:title=" ">
<polygon fill="white" stroke="#666666" points="97,-56 0,-56 0,-37 97,-37 97,-56"/>
<text text-anchor="middle" x="48.5" y="-44" font-family="Helvetica,sans-Serif" font-size="10.00">FMC_getEncoding</text>
</a>
</g>
</g>
<!-- Node2&#45;&gt;Node3 -->
<g id="edge2" class="edge">
<title>Node2&#45;&gt;Node3</title>
<path fill="none" stroke="#63b8ff" d="M121.04,-46.5C112.92,-46.5 104.87,-46.5 97.26,-46.5"/>
<polygon fill="#63b8ff" stroke="#63b8ff" points="121,-50 131,-46.5 121,-43 121,-50"/>
</g>
</g>
</svg>
