<?xml version="1.0" encoding="UTF-8" standalone="no"?>
<!DOCTYPE svg PUBLIC "-//W3C//DTD SVG 1.1//EN"
 "http://www.w3.org/Graphics/SVG/1.1/DTD/svg11.dtd">
<!-- Generated by graphviz version 7.1.0 (20230121.1956)
 -->
<!-- Title: FMC_printBrightYellowError Pages: 1 -->
<svg width="329pt" height="113pt"
 viewBox="0.00 0.00 329.00 112.50" xmlns="http://www.w3.org/2000/svg" xmlns:xlink="http://www.w3.org/1999/xlink">
<g id="graph0" class="graph" transform="scale(1 1) rotate(0) translate(4 108.5)">
<title>FMC_printBrightYellowError</title>
<!-- Node1 -->
<g id="node1" class="node">
<title>Node1</title>
<g id="a_node1"><a xlink:title=" ">
<polygon fill="#999999" stroke="#666666" points="137,-56 0,-56 0,-37 137,-37 137,-56"/>
<text text-anchor="middle" x="68.5" y="-44" font-family="Helvetica,sans-Serif" font-size="10.00">FMC_printBrightYellowError</text>
</a>
</g>
</g>
<!-- Node2 -->
<g id="node2" class="node">
<title>Node2</title>
<g id="a_node2"><a xlink:href="../../dc/de1/_f_m_c__errors_8h.html#ae7a53e0773baed28896abfe5743a3a68" target="_top" xlink:title=" ">
<polygon fill="white" stroke="#666666" points="320.5,-104.5 173.5,-104.5 173.5,-74.5 320.5,-74.5 320.5,-104.5"/>
<text text-anchor="start" x="181.5" y="-92.5" font-family="Helvetica,sans-Serif" font-size="10.00">FMC_changeStreamTextColor</text>
<text text-anchor="middle" x="247" y="-81.5" font-family="Helvetica,sans-Serif" font-size="10.00">ToBrightYellow</text>
</a>
</g>
</g>
<!-- Node1&#45;&gt;Node2 -->
<g id="edge1" class="edge">
<title>Node1&#45;&gt;Node2</title>
<path fill="none" stroke="#63b8ff" d="M110.44,-56.47C128.56,-60.89 150.47,-66.23 171.34,-71.31"/>
<polygon fill="#63b8ff" stroke="#63b8ff" points="170.45,-74.7 181,-73.66 172.11,-67.9 170.45,-74.7"/>
</g>
<!-- Node3 -->
<g id="node3" class="node">
<title>Node3</title>
<g id="a_node3"><a xlink:href="../../dc/de1/_f_m_c__errors_8h.html#a5dac1ddff314ba7b3bed3d87eb3f19f5" target="_top" xlink:title=" ">
<polygon fill="white" stroke="#666666" points="321,-56 173,-56 173,-37 321,-37 321,-56"/>
<text text-anchor="middle" x="247" y="-44" font-family="Helvetica,sans-Serif" font-size="10.00">FMC_resetStreamOutputStyle</text>
</a>
</g>
</g>
<!-- Node1&#45;&gt;Node3 -->
<g id="edge2" class="edge">
<title>Node1&#45;&gt;Node3</title>
<path fill="none" stroke="#63b8ff" d="M137.49,-46.5C145.34,-46.5 153.42,-46.5 161.46,-46.5"/>
<polygon fill="#63b8ff" stroke="#63b8ff" points="161.26,-50 171.26,-46.5 161.26,-43 161.26,-50"/>
</g>
<!-- Node4 -->
<g id="node4" class="node">
<title>Node4</title>
<g id="a_node4"><a xlink:href="../../dc/de1/_f_m_c__errors_8h.html#ad65d0a387448c0139270e9c628cf4126" target="_top" xlink:title=" ">
<polygon fill="white" stroke="#666666" points="311,-19 183,-19 183,0 311,0 311,-19"/>
<text text-anchor="middle" x="247" y="-7" font-family="Helvetica,sans-Serif" font-size="10.00">FMC_setTextStyleToBold</text>
</a>
</g>
</g>
<!-- Node1&#45;&gt;Node4 -->
<g id="edge3" class="edge">
<title>Node1&#45;&gt;Node4</title>
<path fill="none" stroke="#63b8ff" d="M116.8,-36.58C138.56,-32.02 164.59,-26.57 187.57,-21.75"/>
<polygon fill="#63b8ff" stroke="#63b8ff" points="188.02,-25.23 197.09,-19.75 186.58,-18.38 188.02,-25.23"/>
</g>
</g>
</svg>
