<?xml version="1.0" encoding="UTF-8" standalone="no"?>
<!DOCTYPE svg PUBLIC "-//W3C//DTD SVG 1.1//EN"
 "http://www.w3.org/Graphics/SVG/1.1/DTD/svg11.dtd">
<!-- Generated by graphviz version 7.1.0 (20230121.1956)
 -->
<!-- Title: FMC_printBrightBlueText Pages: 1 -->
<svg width="317pt" height="76pt"
 viewBox="0.00 0.00 317.00 75.50" xmlns="http://www.w3.org/2000/svg" xmlns:xlink="http://www.w3.org/1999/xlink">
<g id="graph0" class="graph" transform="scale(1 1) rotate(0) translate(4 71.5)">
<title>FMC_printBrightBlueText</title>
<!-- Node1 -->
<g id="node1" class="node">
<title>Node1</title>
<g id="a_node1"><a xlink:title=" ">
<polygon fill="#999999" stroke="#666666" points="125,-40 0,-40 0,-21 125,-21 125,-40"/>
<text text-anchor="middle" x="62.5" y="-28" font-family="Helvetica,sans-Serif" font-size="10.00">FMC_printBrightBlueText</text>
</a>
</g>
</g>
<!-- Node2 -->
<g id="node2" class="node">
<title>Node2</title>
<g id="a_node2"><a xlink:href="../../dc/de1/_f_m_c__errors_8h.html#a86a623de91eaef521314035a9288905c" target="_top" xlink:title=" ">
<polygon fill="white" stroke="#666666" points="308.5,-67.5 161.5,-67.5 161.5,-37.5 308.5,-37.5 308.5,-67.5"/>
<text text-anchor="start" x="169.5" y="-55.5" font-family="Helvetica,sans-Serif" font-size="10.00">FMC_changeStreamTextColor</text>
<text text-anchor="middle" x="235" y="-44.5" font-family="Helvetica,sans-Serif" font-size="10.00">ToBrightBlue</text>
</a>
</g>
</g>
<!-- Node1&#45;&gt;Node2 -->
<g id="edge1" class="edge">
<title>Node1&#45;&gt;Node2</title>
<path fill="none" stroke="#63b8ff" d="M125.05,-38.44C133.12,-39.48 141.49,-40.56 149.85,-41.64"/>
<polygon fill="#63b8ff" stroke="#63b8ff" points="149.35,-45.11 159.71,-42.91 150.24,-38.16 149.35,-45.11"/>
</g>
<!-- Node3 -->
<g id="node3" class="node">
<title>Node3</title>
<g id="a_node3"><a xlink:href="../../dc/de1/_f_m_c__errors_8h.html#a5dac1ddff314ba7b3bed3d87eb3f19f5" target="_top" xlink:title=" ">
<polygon fill="white" stroke="#666666" points="309,-19 161,-19 161,0 309,0 309,-19"/>
<text text-anchor="middle" x="235" y="-7" font-family="Helvetica,sans-Serif" font-size="10.00">FMC_resetStreamOutputStyle</text>
</a>
</g>
</g>
<!-- Node1&#45;&gt;Node3 -->
<g id="edge2" class="edge">
<title>Node1&#45;&gt;Node3</title>
<path fill="none" stroke="#63b8ff" d="M125.05,-22.92C132.99,-21.94 141.22,-20.93 149.45,-19.91"/>
<polygon fill="#63b8ff" stroke="#63b8ff" points="149.63,-23.42 159.12,-18.72 148.77,-16.47 149.63,-23.42"/>
</g>
</g>
</svg>
