<?xml version="1.0" encoding="UTF-8" standalone="no"?>
<!DOCTYPE svg PUBLIC "-//W3C//DTD SVG 1.1//EN"
 "http://www.w3.org/Graphics/SVG/1.1/DTD/svg11.dtd">
<!-- Generated by graphviz version 7.1.0 (20230121.1956)
 -->
<!-- Title: FMC_printWhiteText Pages: 1 -->
<svg width="298pt" height="76pt"
 viewBox="0.00 0.00 298.00 75.50" xmlns="http://www.w3.org/2000/svg" xmlns:xlink="http://www.w3.org/1999/xlink">
<g id="graph0" class="graph" transform="scale(1 1) rotate(0) translate(4 71.5)">
<title>FMC_printWhiteText</title>
<!-- Node1 -->
<g id="node1" class="node">
<title>Node1</title>
<g id="a_node1"><a xlink:title=" ">
<polygon fill="#999999" stroke="#666666" points="106,-40 0,-40 0,-21 106,-21 106,-40"/>
<text text-anchor="middle" x="53" y="-28" font-family="Helvetica,sans-Serif" font-size="10.00">FMC_printWhiteText</text>
</a>
</g>
</g>
<!-- Node2 -->
<g id="node2" class="node">
<title>Node2</title>
<g id="a_node2"><a xlink:href="../../dc/de1/_f_m_c__errors_8h.html#a8341db3979a9fb2f84cfdc1a700a901a" target="_top" xlink:title=" ">
<polygon fill="white" stroke="#666666" points="289.5,-67.5 142.5,-67.5 142.5,-37.5 289.5,-37.5 289.5,-67.5"/>
<text text-anchor="start" x="150.5" y="-55.5" font-family="Helvetica,sans-Serif" font-size="10.00">FMC_changeStreamTextColor</text>
<text text-anchor="middle" x="216" y="-44.5" font-family="Helvetica,sans-Serif" font-size="10.00">ToWhite</text>
</a>
</g>
</g>
<!-- Node1&#45;&gt;Node2 -->
<g id="edge1" class="edge">
<title>Node1&#45;&gt;Node2</title>
<path fill="none" stroke="#63b8ff" d="M106.27,-37.64C114.16,-38.72 122.47,-39.86 130.83,-41"/>
<polygon fill="#63b8ff" stroke="#63b8ff" points="130.34,-44.46 140.72,-42.35 131.29,-37.53 130.34,-44.46"/>
</g>
<!-- Node3 -->
<g id="node3" class="node">
<title>Node3</title>
<g id="a_node3"><a xlink:href="../../dc/de1/_f_m_c__errors_8h.html#a5dac1ddff314ba7b3bed3d87eb3f19f5" target="_top" xlink:title=" ">
<polygon fill="white" stroke="#666666" points="290,-19 142,-19 142,0 290,0 290,-19"/>
<text text-anchor="middle" x="216" y="-7" font-family="Helvetica,sans-Serif" font-size="10.00">FMC_resetStreamOutputStyle</text>
</a>
</g>
</g>
<!-- Node1&#45;&gt;Node3 -->
<g id="edge2" class="edge">
<title>Node1&#45;&gt;Node3</title>
<path fill="none" stroke="#63b8ff" d="M106.27,-23.68C114.04,-22.67 122.2,-21.6 130.42,-20.53"/>
<polygon fill="#63b8ff" stroke="#63b8ff" points="130.68,-24.03 140.14,-19.26 129.77,-17.09 130.68,-24.03"/>
</g>
</g>
</svg>
