<?xml version="1.0" encoding="UTF-8" standalone="no"?>
<!DOCTYPE svg PUBLIC "-//W3C//DTD SVG 1.1//EN"
 "http://www.w3.org/Graphics/SVG/1.1/DTD/svg11.dtd">
<!-- Generated by graphviz version 7.1.0 (20230121.1956)
 -->
<!-- Title: FMC_changeStreamTextColorToBrightBlue Pages: 1 -->
<svg width="319pt" height="64pt"
 viewBox="0.00 0.00 319.00 64.00" xmlns="http://www.w3.org/2000/svg" xmlns:xlink="http://www.w3.org/1999/xlink">
<g id="graph0" class="graph" transform="scale(1 1) rotate(0) translate(4 60)">
<title>FMC_changeStreamTextColorToBrightBlue</title>
<!-- Node1 -->
<g id="node1" class="node">
<title>Node1</title>
<g id="a_node1"><a xlink:title=" ">
<polygon fill="#999999" stroke="#666666" points="311,-42.5 164,-42.5 164,-12.5 311,-12.5 311,-42.5"/>
<text text-anchor="start" x="172" y="-30.5" font-family="Helvetica,sans-Serif" font-size="10.00">FMC_changeStreamTextColor</text>
<text text-anchor="middle" x="237.5" y="-19.5" font-family="Helvetica,sans-Serif" font-size="10.00">ToBrightBlue</text>
</a>
</g>
</g>
<!-- Node2 -->
<g id="node2" class="node">
<title>Node2</title>
<g id="a_node2"><a xlink:href="../../dc/de1/_f_m_c__errors_8h.html#a69d43ae7c72935565e2f6d5848c7b371" target="_top" xlink:title=" ">
<polygon fill="white" stroke="#666666" points="128,-56 0,-56 0,-37 128,-37 128,-56"/>
<text text-anchor="middle" x="64" y="-44" font-family="Helvetica,sans-Serif" font-size="10.00">FMC_printBrightBlueError</text>
</a>
</g>
</g>
<!-- Node1&#45;&gt;Node2 -->
<g id="edge1" class="edge">
<title>Node1&#45;&gt;Node2</title>
<path fill="none" stroke="#63b8ff" d="M152.38,-36.82C144.29,-37.72 136.19,-38.61 128.35,-39.48"/>
<polygon fill="#63b8ff" stroke="#63b8ff" points="152.71,-40.3 162.26,-35.72 151.94,-33.35 152.71,-40.3"/>
</g>
<!-- Node3 -->
<g id="node3" class="node">
<title>Node3</title>
<g id="a_node3"><a xlink:href="../../dc/de1/_f_m_c__errors_8h.html#afc9ee400cd0f85ae6baf1cf5b5b83f49" target="_top" xlink:title=" ">
<polygon fill="white" stroke="#666666" points="126.5,-19 1.5,-19 1.5,0 126.5,0 126.5,-19"/>
<text text-anchor="middle" x="64" y="-7" font-family="Helvetica,sans-Serif" font-size="10.00">FMC_printBrightBlueText</text>
</a>
</g>
</g>
<!-- Node1&#45;&gt;Node3 -->
<g id="edge2" class="edge">
<title>Node1&#45;&gt;Node3</title>
<path fill="none" stroke="#63b8ff" d="M152.43,-18.68C143.77,-17.77 135.09,-16.86 126.74,-15.98"/>
<polygon fill="#63b8ff" stroke="#63b8ff" points="151.95,-22.15 162.26,-19.71 152.68,-15.18 151.95,-22.15"/>
</g>
</g>
</svg>
