<?xml version="1.0" encoding="UTF-8" standalone="no"?>
<!DOCTYPE svg PUBLIC "-//W3C//DTD SVG 1.1//EN"
 "http://www.w3.org/Graphics/SVG/1.1/DTD/svg11.dtd">
<!-- Generated by graphviz version 7.1.0 (20230121.1956)
 -->
<!-- Title: FMC_resetStreamOutputStyle Pages: 1 -->
<svg width="623pt" height="1026pt"
 viewBox="0.00 0.00 623.00 1026.00" xmlns="http://www.w3.org/2000/svg" xmlns:xlink="http://www.w3.org/1999/xlink">
<g id="graph0" class="graph" transform="scale(1 1) rotate(0) translate(4 1022)">
<title>FMC_resetStreamOutputStyle</title>
<!-- Node1 -->
<g id="node1" class="node">
<title>Node1</title>
<g id="a_node1"><a xlink:title=" ">
<polygon fill="#999999" stroke="#666666" points="615,-518 467,-518 467,-499 615,-499 615,-518"/>
<text text-anchor="middle" x="541" y="-506" font-family="Helvetica,sans-Serif" font-size="10.00">FMC_resetStreamOutputStyle</text>
</a>
</g>
</g>
<!-- Node2 -->
<g id="node2" class="node">
<title>Node2</title>
<g id="a_node2"><a xlink:href="../../dc/de1/_f_m_c__errors_8h.html#a5820ba295df9ea6e2dd3df119a90396f" target="_top" xlink:title=" ">
<polygon fill="white" stroke="#666666" points="409,-1018 307,-1018 307,-999 409,-999 409,-1018"/>
<text text-anchor="middle" x="358" y="-1006" font-family="Helvetica,sans-Serif" font-size="10.00">FMC_printBlueError</text>
</a>
</g>
</g>
<!-- Node1&#45;&gt;Node2 -->
<g id="edge1" class="edge">
<title>Node1&#45;&gt;Node2</title>
<path fill="none" stroke="#63b8ff" d="M538.15,-529.35C530.33,-612.97 497.25,-922.74 431,-990.5 425.06,-996.58 417.39,-1000.72 409.29,-1003.52"/>
<polygon fill="#63b8ff" stroke="#63b8ff" points="541.62,-529.92 539.04,-519.64 534.64,-529.28 541.62,-529.92"/>
</g>
<!-- Node3 -->
<g id="node3" class="node">
<title>Node3</title>
<g id="a_node3"><a xlink:href="../../dc/de1/_f_m_c__errors_8h.html#a11ce969a03ee03a50ddcf342e73e8b2b" target="_top" xlink:title=" ">
<polygon fill="white" stroke="#666666" points="408,-981 308,-981 308,-962 408,-962 408,-981"/>
<text text-anchor="middle" x="358" y="-969" font-family="Helvetica,sans-Serif" font-size="10.00">FMC_printBlueText</text>
</a>
</g>
</g>
<!-- Node1&#45;&gt;Node3 -->
<g id="edge2" class="edge">
<title>Node1&#45;&gt;Node3</title>
<path fill="none" stroke="#63b8ff" d="M537.71,-529.51C528.63,-609.24 492.52,-891.68 431,-953.5 424.82,-959.71 416.84,-963.89 408.46,-966.68"/>
<polygon fill="#63b8ff" stroke="#63b8ff" points="541.18,-529.98 538.81,-519.66 534.23,-529.21 541.18,-529.98"/>
</g>
<!-- Node4 -->
<g id="node4" class="node">
<title>Node4</title>
<g id="a_node4"><a xlink:href="../../dc/de1/_f_m_c__errors_8h.html#a69d43ae7c72935565e2f6d5848c7b371" target="_top" xlink:title=" ">
<polygon fill="white" stroke="#666666" points="422,-944 294,-944 294,-925 422,-925 422,-944"/>
<text text-anchor="middle" x="358" y="-932" font-family="Helvetica,sans-Serif" font-size="10.00">FMC_printBrightBlueError</text>
</a>
</g>
</g>
<!-- Node1&#45;&gt;Node4 -->
<g id="edge3" class="edge">
<title>Node1&#45;&gt;Node4</title>
<path fill="none" stroke="#63b8ff" d="M537.19,-529.69C526.75,-605.35 487.81,-860.6 431,-916.5 427.69,-919.75 423.89,-922.45 419.8,-924.68"/>
<polygon fill="#63b8ff" stroke="#63b8ff" points="540.64,-530.32 538.51,-519.94 533.7,-529.38 540.64,-530.32"/>
</g>
<!-- Node5 -->
<g id="node5" class="node">
<title>Node5</title>
<g id="a_node5"><a xlink:href="../../dc/de1/_f_m_c__errors_8h.html#afc9ee400cd0f85ae6baf1cf5b5b83f49" target="_top" xlink:title=" ">
<polygon fill="white" stroke="#666666" points="420.5,-907 295.5,-907 295.5,-888 420.5,-888 420.5,-907"/>
<text text-anchor="middle" x="358" y="-895" font-family="Helvetica,sans-Serif" font-size="10.00">FMC_printBrightBlueText</text>
</a>
</g>
</g>
<!-- Node1&#45;&gt;Node5 -->
<g id="edge4" class="edge">
<title>Node1&#45;&gt;Node5</title>
<path fill="none" stroke="#63b8ff" d="M540.55,-529.38C541,-592.2 533.39,-781.2 431,-879.5 427.65,-882.71 423.83,-885.38 419.72,-887.58"/>
<polygon fill="#63b8ff" stroke="#63b8ff" points="544.06,-529.72 540.39,-519.78 537.06,-529.83 544.06,-529.72"/>
</g>
<!-- Node6 -->
<g id="node6" class="node">
<title>Node6</title>
<g id="a_node6"><a xlink:href="../../dc/de1/_f_m_c__errors_8h.html#af08f34aa818a9a290a6b5efc5949cc0a" target="_top" xlink:title=" ">
<polygon fill="white" stroke="#666666" points="423.5,-870 292.5,-870 292.5,-851 423.5,-851 423.5,-870"/>
<text text-anchor="middle" x="358" y="-858" font-family="Helvetica,sans-Serif" font-size="10.00">FMC_printBrightCyanError</text>
</a>
</g>
</g>
<!-- Node1&#45;&gt;Node6 -->
<g id="edge5" class="edge">
<title>Node1&#45;&gt;Node6</title>
<path fill="none" stroke="#63b8ff" d="M539.74,-529.99C537.8,-589.17 523.93,-755.9 431,-842.5 427.51,-845.75 423.53,-848.44 419.27,-850.66"/>
<polygon fill="#63b8ff" stroke="#63b8ff" points="543.24,-530.08 539.97,-520 536.24,-529.92 543.24,-530.08"/>
</g>
<!-- Node7 -->
<g id="node7" class="node">
<title>Node7</title>
<g id="a_node7"><a xlink:href="../../dc/de1/_f_m_c__errors_8h.html#a1064b3b56fdee59b2e1fa27494204da0" target="_top" xlink:title=" ">
<polygon fill="white" stroke="#666666" points="422,-833 294,-833 294,-814 422,-814 422,-833"/>
<text text-anchor="middle" x="358" y="-821" font-family="Helvetica,sans-Serif" font-size="10.00">FMC_printBrightCyanText</text>
</a>
</g>
</g>
<!-- Node1&#45;&gt;Node7 -->
<g id="edge6" class="edge">
<title>Node1&#45;&gt;Node7</title>
<path fill="none" stroke="#63b8ff" d="M538.78,-529.42C534.45,-583.66 515.16,-729.88 431,-805.5 427.45,-808.69 423.43,-811.33 419.14,-813.51"/>
<polygon fill="#63b8ff" stroke="#63b8ff" points="542.25,-529.96 539.45,-519.74 535.27,-529.47 542.25,-529.96"/>
</g>
<!-- Node8 -->
<g id="node8" class="node">
<title>Node8</title>
<g id="a_node8"><a xlink:href="../../dc/de1/_f_m_c__errors_8h.html#a133abc0a18c0f9f52d027fa9dad3f21f" target="_top" xlink:title=" ">
<polygon fill="white" stroke="#666666" points="425,-796 291,-796 291,-777 425,-777 425,-796"/>
<text text-anchor="middle" x="358" y="-784" font-family="Helvetica,sans-Serif" font-size="10.00">FMC_printBrightGreenError</text>
</a>
</g>
</g>
<!-- Node1&#45;&gt;Node8 -->
<g id="edge7" class="edge">
<title>Node1&#45;&gt;Node8</title>
<path fill="none" stroke="#63b8ff" d="M537.55,-529.45C530.61,-578.98 506.16,-703.98 431,-768.5 427.29,-771.69 423.09,-774.33 418.63,-776.51"/>
<polygon fill="#63b8ff" stroke="#63b8ff" points="540.98,-530.18 538.79,-519.82 534.04,-529.29 540.98,-530.18"/>
</g>
<!-- Node9 -->
<g id="node9" class="node">
<title>Node9</title>
<g id="a_node9"><a xlink:href="../../dc/de1/_f_m_c__errors_8h.html#a0b9d431b21e604d61e2bad26eb6ff307" target="_top" xlink:title=" ">
<polygon fill="white" stroke="#666666" points="424,-759 292,-759 292,-740 424,-740 424,-759"/>
<text text-anchor="middle" x="358" y="-747" font-family="Helvetica,sans-Serif" font-size="10.00">FMC_printBrightGreenText</text>
</a>
</g>
</g>
<!-- Node1&#45;&gt;Node9 -->
<g id="edge8" class="edge">
<title>Node1&#45;&gt;Node9</title>
<path fill="none" stroke="#63b8ff" d="M535.95,-529.43C526.23,-573.85 497.29,-677.83 431,-731.5 426.99,-734.74 422.48,-737.41 417.72,-739.61"/>
<polygon fill="#63b8ff" stroke="#63b8ff" points="539.34,-530.34 537.94,-519.84 532.48,-528.92 539.34,-530.34"/>
</g>
<!-- Node10 -->
<g id="node10" class="node">
<title>Node10</title>
<g id="a_node10"><a xlink:href="../../dc/de1/_f_m_c__errors_8h.html#a8b30c700dfc669e1bd513a249cf10870" target="_top" xlink:title=" ">
<polygon fill="white" stroke="#666666" points="431,-722 285,-722 285,-703 431,-703 431,-722"/>
<text text-anchor="middle" x="358" y="-710" font-family="Helvetica,sans-Serif" font-size="10.00">FMC_printBrightMagentaError</text>
</a>
</g>
</g>
<!-- Node1&#45;&gt;Node10 -->
<g id="edge9" class="edge">
<title>Node1&#45;&gt;Node10</title>
<path fill="none" stroke="#63b8ff" d="M533.79,-529.36C521.14,-568.16 488.58,-651.38 431,-694.5 426.67,-697.74 421.82,-700.41 416.74,-702.6"/>
<polygon fill="#63b8ff" stroke="#63b8ff" points="537.11,-530.47 536.76,-519.88 530.43,-528.38 537.11,-530.47"/>
</g>
<!-- Node11 -->
<g id="node11" class="node">
<title>Node11</title>
<g id="a_node11"><a xlink:href="../../dc/de1/_f_m_c__errors_8h.html#aab6408cca4d942122d73844d14153705" target="_top" xlink:title=" ">
<polygon fill="white" stroke="#666666" points="429.5,-685 286.5,-685 286.5,-666 429.5,-666 429.5,-685"/>
<text text-anchor="middle" x="358" y="-673" font-family="Helvetica,sans-Serif" font-size="10.00">FMC_printBrightMagentaText</text>
</a>
</g>
</g>
<!-- Node1&#45;&gt;Node11 -->
<g id="edge10" class="edge">
<title>Node1&#45;&gt;Node11</title>
<path fill="none" stroke="#63b8ff" d="M530.91,-528.76C515.31,-561.16 480.27,-624.36 431,-657.5 426.19,-660.74 420.84,-663.39 415.3,-665.57"/>
<polygon fill="#63b8ff" stroke="#63b8ff" points="534.09,-530.24 535.14,-519.7 527.74,-527.28 534.09,-530.24"/>
</g>
<!-- Node12 -->
<g id="node12" class="node">
<title>Node12</title>
<g id="a_node12"><a xlink:href="../../dc/de1/_f_m_c__errors_8h.html#aa53062880249a772fa5af75cbb637d14" target="_top" xlink:title=" ">
<polygon fill="white" stroke="#666666" points="420.5,-648 295.5,-648 295.5,-629 420.5,-629 420.5,-648"/>
<text text-anchor="middle" x="358" y="-636" font-family="Helvetica,sans-Serif" font-size="10.00">FMC_printBrightRedError</text>
</a>
</g>
</g>
<!-- Node1&#45;&gt;Node12 -->
<g id="edge11" class="edge">
<title>Node1&#45;&gt;Node12</title>
<path fill="none" stroke="#63b8ff" d="M526.78,-527.6C508.3,-552.79 472.34,-596.72 431,-620.5 425.42,-623.71 419.27,-626.36 412.98,-628.53"/>
<polygon fill="#63b8ff" stroke="#63b8ff" points="529.54,-529.75 532.51,-519.58 523.84,-525.68 529.54,-529.75"/>
</g>
<!-- Node17 -->
<g id="node17" class="node">
<title>Node17</title>
<g id="a_node17"><a xlink:href="../../dc/de1/_f_m_c__errors_8h.html#af60117aab20c2e6247320fd68e54f585" target="_top" xlink:title=" ">
<polygon fill="white" stroke="#666666" points="419.5,-611 296.5,-611 296.5,-592 419.5,-592 419.5,-611"/>
<text text-anchor="middle" x="358" y="-599" font-family="Helvetica,sans-Serif" font-size="10.00">FMC_printBrightRedText</text>
</a>
</g>
</g>
<!-- Node1&#45;&gt;Node17 -->
<g id="edge17" class="edge">
<title>Node1&#45;&gt;Node17</title>
<path fill="none" stroke="#63b8ff" d="M520.15,-525.44C499.26,-542.45 464.77,-568.26 431,-583.5 423.95,-586.68 416.25,-589.36 408.6,-591.59"/>
<polygon fill="#63b8ff" stroke="#63b8ff" points="522.12,-528.36 527.58,-519.28 517.65,-522.97 522.12,-528.36"/>
</g>
<!-- Node18 -->
<g id="node18" class="node">
<title>Node18</title>
<g id="a_node18"><a xlink:href="../../dc/de1/_f_m_c__errors_8h.html#affdab952330911966f092113573bc8f7" target="_top" xlink:title=" ">
<polygon fill="white" stroke="#666666" points="425,-574 291,-574 291,-555 425,-555 425,-574"/>
<text text-anchor="middle" x="358" y="-562" font-family="Helvetica,sans-Serif" font-size="10.00">FMC_printBrightWhiteError</text>
</a>
</g>
</g>
<!-- Node1&#45;&gt;Node18 -->
<g id="edge18" class="edge">
<title>Node1&#45;&gt;Node18</title>
<path fill="none" stroke="#63b8ff" d="M503.09,-522.3C482.11,-529.91 455.25,-539.26 431,-546.5 421.49,-549.34 411.19,-552.1 401.43,-554.57"/>
<polygon fill="#63b8ff" stroke="#63b8ff" points="504.18,-525.63 512.37,-518.91 501.77,-519.06 504.18,-525.63"/>
</g>
<!-- Node19 -->
<g id="node19" class="node">
<title>Node19</title>
<g id="a_node19"><a xlink:href="../../dc/de1/_f_m_c__errors_8h.html#acbd079da4200c21ed0e95d1c207beda8" target="_top" xlink:title=" ">
<polygon fill="white" stroke="#666666" points="423.5,-537 292.5,-537 292.5,-518 423.5,-518 423.5,-537"/>
<text text-anchor="middle" x="358" y="-525" font-family="Helvetica,sans-Serif" font-size="10.00">FMC_printBrightWhiteText</text>
</a>
</g>
</g>
<!-- Node1&#45;&gt;Node19 -->
<g id="edge19" class="edge">
<title>Node1&#45;&gt;Node19</title>
<path fill="none" stroke="#63b8ff" d="M455.22,-517.4C444.64,-518.51 433.94,-519.63 423.73,-520.71"/>
<polygon fill="#63b8ff" stroke="#63b8ff" points="455.56,-520.88 465.14,-516.36 454.83,-513.92 455.56,-520.88"/>
</g>
<!-- Node20 -->
<g id="node20" class="node">
<title>Node20</title>
<g id="a_node20"><a xlink:href="../../dc/de1/_f_m_c__errors_8h.html#a8a9d04ab3b4e6f06e7eead7abd20581c" target="_top" xlink:title=" ">
<polygon fill="white" stroke="#666666" points="426.5,-500 289.5,-500 289.5,-481 426.5,-481 426.5,-500"/>
<text text-anchor="middle" x="358" y="-488" font-family="Helvetica,sans-Serif" font-size="10.00">FMC_printBrightYellowError</text>
</a>
</g>
</g>
<!-- Node1&#45;&gt;Node20 -->
<g id="edge20" class="edge">
<title>Node1&#45;&gt;Node20</title>
<path fill="none" stroke="#63b8ff" d="M455.47,-500.09C445.9,-499.14 436.23,-498.18 426.91,-497.25"/>
<polygon fill="#63b8ff" stroke="#63b8ff" points="454.84,-503.55 465.14,-501.05 455.53,-496.58 454.84,-503.55"/>
</g>
<!-- Node21 -->
<g id="node21" class="node">
<title>Node21</title>
<g id="a_node21"><a xlink:href="../../dc/de1/_f_m_c__errors_8h.html#ada66fd50420541f0e864c6a56fdd7bad" target="_top" xlink:title=" ">
<polygon fill="white" stroke="#666666" points="425,-463 291,-463 291,-444 425,-444 425,-463"/>
<text text-anchor="middle" x="358" y="-451" font-family="Helvetica,sans-Serif" font-size="10.00">FMC_printBrightYellowText</text>
</a>
</g>
</g>
<!-- Node1&#45;&gt;Node21 -->
<g id="edge22" class="edge">
<title>Node1&#45;&gt;Node21</title>
<path fill="none" stroke="#63b8ff" d="M502.21,-494.82C481.35,-487.48 454.89,-478.53 431,-471.5 421.48,-468.7 411.18,-465.96 401.42,-463.49"/>
<polygon fill="#63b8ff" stroke="#63b8ff" points="500.85,-498.05 511.45,-498.09 503.19,-491.45 500.85,-498.05"/>
</g>
<!-- Node22 -->
<g id="node22" class="node">
<title>Node22</title>
<g id="a_node22"><a xlink:href="../../dc/de1/_f_m_c__errors_8h.html#adde48fd1fee52588fc8c415ffee6cbf4" target="_top" xlink:title=" ">
<polygon fill="white" stroke="#666666" points="410.5,-426 305.5,-426 305.5,-407 410.5,-407 410.5,-426"/>
<text text-anchor="middle" x="358" y="-414" font-family="Helvetica,sans-Serif" font-size="10.00">FMC_printCyanError</text>
</a>
</g>
</g>
<!-- Node1&#45;&gt;Node22 -->
<g id="edge23" class="edge">
<title>Node1&#45;&gt;Node22</title>
<path fill="none" stroke="#63b8ff" d="M519.49,-491.3C498.51,-474.52 464.34,-449.42 431,-434.5 423.94,-431.34 416.24,-428.68 408.58,-426.44"/>
<polygon fill="#63b8ff" stroke="#63b8ff" points="517.27,-494.01 527.24,-497.61 521.7,-488.58 517.27,-494.01"/>
</g>
<!-- Node23 -->
<g id="node23" class="node">
<title>Node23</title>
<g id="a_node23"><a xlink:href="../../dc/de1/_f_m_c__errors_8h.html#aae9c62a751ad01c4a6a08b33a70e4ad9" target="_top" xlink:title=" ">
<polygon fill="white" stroke="#666666" points="409.5,-389 306.5,-389 306.5,-370 409.5,-370 409.5,-389"/>
<text text-anchor="middle" x="358" y="-377" font-family="Helvetica,sans-Serif" font-size="10.00">FMC_printCyanText</text>
</a>
</g>
</g>
<!-- Node1&#45;&gt;Node23 -->
<g id="edge24" class="edge">
<title>Node1&#45;&gt;Node23</title>
<path fill="none" stroke="#63b8ff" d="M526.74,-489.58C508.22,-464.61 472.21,-421.08 431,-397.5 424.51,-393.79 417.27,-390.83 409.95,-388.49"/>
<polygon fill="#63b8ff" stroke="#63b8ff" points="523.78,-491.46 532.48,-497.51 529.45,-487.36 523.78,-491.46"/>
</g>
<!-- Node24 -->
<g id="node24" class="node">
<title>Node24</title>
<g id="a_node24"><a xlink:href="../../dc/de1/_f_m_c__errors_8h.html#a3c06d7ced3399b1c6908f9d7fb1a3001" target="_top" xlink:title=" ">
<polygon fill="white" stroke="#666666" points="412.5,-352 303.5,-352 303.5,-333 412.5,-333 412.5,-352"/>
<text text-anchor="middle" x="358" y="-340" font-family="Helvetica,sans-Serif" font-size="10.00">FMC_printGreenError</text>
</a>
</g>
</g>
<!-- Node1&#45;&gt;Node24 -->
<g id="edge25" class="edge">
<title>Node1&#45;&gt;Node24</title>
<path fill="none" stroke="#63b8ff" d="M530.88,-488.38C515.22,-456.19 480.1,-393.41 431,-360.5 425.43,-356.77 419.16,-353.81 412.69,-351.47"/>
<polygon fill="#63b8ff" stroke="#63b8ff" points="527.69,-489.81 535.11,-497.37 534.02,-486.83 527.69,-489.81"/>
</g>
<!-- Node25 -->
<g id="node25" class="node">
<title>Node25</title>
<g id="a_node25"><a xlink:href="../../dc/de1/_f_m_c__errors_8h.html#aca146d0de6fca1c0f6293eb08cea1dfa" target="_top" xlink:title=" ">
<polygon fill="white" stroke="#666666" points="411.5,-315 304.5,-315 304.5,-296 411.5,-296 411.5,-315"/>
<text text-anchor="middle" x="358" y="-303" font-family="Helvetica,sans-Serif" font-size="10.00">FMC_printGreenText</text>
</a>
</g>
</g>
<!-- Node1&#45;&gt;Node25 -->
<g id="edge26" class="edge">
<title>Node1&#45;&gt;Node25</title>
<path fill="none" stroke="#63b8ff" d="M533.76,-487.75C521.05,-449.15 488.4,-366.38 431,-323.5 425.32,-319.26 418.76,-316.01 411.96,-313.52"/>
<polygon fill="#63b8ff" stroke="#63b8ff" points="530.39,-488.69 536.74,-497.17 537.06,-486.58 530.39,-488.69"/>
</g>
<!-- Node26 -->
<g id="node26" class="node">
<title>Node26</title>
<g id="a_node26"><a xlink:href="../../dc/de1/_f_m_c__errors_8h.html#a5baf70d47076d8a69e144a29f96aaa83" target="_top" xlink:title=" ">
<polygon fill="white" stroke="#666666" points="418,-278 298,-278 298,-259 418,-259 418,-278"/>
<text text-anchor="middle" x="358" y="-266" font-family="Helvetica,sans-Serif" font-size="10.00">FMC_printMagentaError</text>
</a>
</g>
</g>
<!-- Node1&#45;&gt;Node26 -->
<g id="edge27" class="edge">
<title>Node1&#45;&gt;Node26</title>
<path fill="none" stroke="#63b8ff" d="M535.92,-487.66C526.14,-443.44 497.1,-339.92 431,-286.5 426.99,-283.26 422.48,-280.59 417.71,-278.4"/>
<polygon fill="#63b8ff" stroke="#63b8ff" points="532.45,-488.14 537.92,-497.21 539.3,-486.7 532.45,-488.14"/>
</g>
<!-- Node27 -->
<g id="node27" class="node">
<title>Node27</title>
<g id="a_node27"><a xlink:href="../../dc/de1/_f_m_c__errors_8h.html#ac070f77b4b4bb3dd42d9e4bbbebf247e" target="_top" xlink:title=" ">
<polygon fill="white" stroke="#666666" points="417,-241 299,-241 299,-222 417,-222 417,-241"/>
<text text-anchor="middle" x="358" y="-229" font-family="Helvetica,sans-Serif" font-size="10.00">FMC_printMagentaText</text>
</a>
</g>
</g>
<!-- Node1&#45;&gt;Node27 -->
<g id="edge28" class="edge">
<title>Node1&#45;&gt;Node27</title>
<path fill="none" stroke="#63b8ff" d="M537.48,-487.32C530.42,-437.76 505.8,-313.62 431,-249.5 426.89,-245.98 422.19,-243.13 417.21,-240.82"/>
<polygon fill="#63b8ff" stroke="#63b8ff" points="534.01,-487.76 538.78,-497.22 540.95,-486.85 534.01,-487.76"/>
</g>
<!-- Node28 -->
<g id="node28" class="node">
<title>Node28</title>
<g id="a_node28"><a xlink:href="../../dc/de1/_f_m_c__errors_8h.html#a7e1dc9f65cdc87f4553b3df4e8a886d6" target="_top" xlink:title=" ">
<polygon fill="white" stroke="#666666" points="408,-204 308,-204 308,-185 408,-185 408,-204"/>
<text text-anchor="middle" x="358" y="-192" font-family="Helvetica,sans-Serif" font-size="10.00">FMC_printRedError</text>
</a>
</g>
</g>
<!-- Node1&#45;&gt;Node28 -->
<g id="edge29" class="edge">
<title>Node1&#45;&gt;Node28</title>
<path fill="none" stroke="#63b8ff" d="M538.73,-487.28C534.28,-432.93 514.76,-287.68 431,-212.5 424.58,-206.73 416.58,-202.75 408.28,-200.02"/>
<polygon fill="#63b8ff" stroke="#63b8ff" points="535.22,-487.29 539.42,-497.01 542.2,-486.79 535.22,-487.29"/>
</g>
<!-- Node29 -->
<g id="node29" class="node">
<title>Node29</title>
<g id="a_node29"><a xlink:href="../../dc/de1/_f_m_c__errors_8h.html#ae3c3c0d47d890c38b0930fe0afc0e011" target="_top" xlink:title=" ">
<polygon fill="white" stroke="#666666" points="407,-167 309,-167 309,-148 407,-148 407,-167"/>
<text text-anchor="middle" x="358" y="-155" font-family="Helvetica,sans-Serif" font-size="10.00">FMC_printRedText</text>
</a>
</g>
</g>
<!-- Node1&#45;&gt;Node29 -->
<g id="edge30" class="edge">
<title>Node1&#45;&gt;Node29</title>
<path fill="none" stroke="#63b8ff" d="M539.71,-487.08C537.72,-428.06 523.71,-261.82 431,-175.5 424.4,-169.35 416.02,-165.22 407.34,-162.47"/>
<polygon fill="#63b8ff" stroke="#63b8ff" points="536.21,-487.12 539.95,-497.03 543.21,-486.95 536.21,-487.12"/>
</g>
<!-- Node30 -->
<g id="node30" class="node">
<title>Node30</title>
<g id="a_node30"><a xlink:href="../../dc/de1/_f_m_c__errors_8h.html#a1e2616f3954e78e99866f2d3c12303c6" target="_top" xlink:title=" ">
<polygon fill="white" stroke="#666666" points="412,-130 304,-130 304,-111 412,-111 412,-130"/>
<text text-anchor="middle" x="358" y="-118" font-family="Helvetica,sans-Serif" font-size="10.00">FMC_printWhiteError</text>
</a>
</g>
</g>
<!-- Node1&#45;&gt;Node30 -->
<g id="edge31" class="edge">
<title>Node1&#45;&gt;Node30</title>
<path fill="none" stroke="#63b8ff" d="M540.53,-487.28C540.89,-424.23 532.96,-236.31 431,-138.5 425.7,-133.42 419.19,-129.7 412.27,-127"/>
<polygon fill="#63b8ff" stroke="#63b8ff" points="537.03,-487.2 540.38,-497.25 544.03,-487.3 537.03,-487.2"/>
</g>
<!-- Node31 -->
<g id="node31" class="node">
<title>Node31</title>
<g id="a_node31"><a xlink:href="../../dc/de1/_f_m_c__errors_8h.html#ad08b9bd97a59064bdc4350050bc04631" target="_top" xlink:title=" ">
<polygon fill="white" stroke="#666666" points="411,-93 305,-93 305,-74 411,-74 411,-93"/>
<text text-anchor="middle" x="358" y="-81" font-family="Helvetica,sans-Serif" font-size="10.00">FMC_printWhiteText</text>
</a>
</g>
</g>
<!-- Node1&#45;&gt;Node31 -->
<g id="edge32" class="edge">
<title>Node1&#45;&gt;Node31</title>
<path fill="none" stroke="#63b8ff" d="M537.18,-487.36C526.71,-411.88 487.7,-157.26 431,-101.5 425.49,-96.08 418.6,-92.21 411.3,-89.46"/>
<polygon fill="#63b8ff" stroke="#63b8ff" points="533.69,-487.65 538.51,-497.08 540.63,-486.7 533.69,-487.65"/>
</g>
<!-- Node32 -->
<g id="node32" class="node">
<title>Node32</title>
<g id="a_node32"><a xlink:href="../../dc/de1/_f_m_c__errors_8h.html#a44368b2a61e244b3d4260be1acd248d3" target="_top" xlink:title=" ">
<polygon fill="white" stroke="#666666" points="413.5,-56 302.5,-56 302.5,-37 413.5,-37 413.5,-56"/>
<text text-anchor="middle" x="358" y="-44" font-family="Helvetica,sans-Serif" font-size="10.00">FMC_printYellowError</text>
</a>
</g>
</g>
<!-- Node1&#45;&gt;Node32 -->
<g id="edge33" class="edge">
<title>Node1&#45;&gt;Node32</title>
<path fill="none" stroke="#63b8ff" d="M537.71,-487.53C528.59,-407.98 492.41,-126.17 431,-64.5 426.18,-59.66 420.27,-56.05 413.93,-53.38"/>
<polygon fill="#63b8ff" stroke="#63b8ff" points="534.22,-487.82 538.81,-497.36 541.17,-487.04 534.22,-487.82"/>
</g>
<!-- Node33 -->
<g id="node33" class="node">
<title>Node33</title>
<g id="a_node33"><a xlink:href="../../dc/de1/_f_m_c__errors_8h.html#a4f9e0c541589c29135862a9f35f2dc9e" target="_top" xlink:title=" ">
<polygon fill="white" stroke="#666666" points="412.5,-19 303.5,-19 303.5,0 412.5,0 412.5,-19"/>
<text text-anchor="middle" x="358" y="-7" font-family="Helvetica,sans-Serif" font-size="10.00">FMC_printYellowText</text>
</a>
</g>
</g>
<!-- Node1&#45;&gt;Node33 -->
<g id="edge34" class="edge">
<title>Node1&#45;&gt;Node33</title>
<path fill="none" stroke="#63b8ff" d="M538.12,-487.43C530.23,-403.6 497.07,-95.05 431,-27.5 425.95,-22.34 419.67,-18.58 412.93,-15.85"/>
<polygon fill="#63b8ff" stroke="#63b8ff" points="534.64,-487.74 539.03,-497.38 541.61,-487.1 534.64,-487.74"/>
</g>
<!-- Node13 -->
<g id="node13" class="node">
<title>Node13</title>
<g id="a_node13"><a xlink:href="../../da/d92/_f_m_c__paths_8c.html#a93ee980e87b59d6a3af6e5d4f1ec7ac0" target="_top" xlink:title=" ">
<polygon fill="white" stroke="#666666" points="240.5,-685 144.5,-685 144.5,-666 240.5,-666 240.5,-685"/>
<text text-anchor="middle" x="192.5" y="-673" font-family="Helvetica,sans-Serif" font-size="10.00">FMC_cutFilename</text>
</a>
</g>
</g>
<!-- Node12&#45;&gt;Node13 -->
<g id="edge12" class="edge">
<title>Node12&#45;&gt;Node13</title>
<path fill="none" stroke="#63b8ff" d="M302.13,-650.92C281.07,-655.68 257.34,-661.05 237.44,-665.56"/>
<polygon fill="#63b8ff" stroke="#63b8ff" points="302.73,-654.37 311.71,-648.75 301.18,-647.54 302.73,-654.37"/>
</g>
<!-- Node14 -->
<g id="node14" class="node">
<title>Node14</title>
<g id="a_node14"><a xlink:href="../../da/d92/_f_m_c__paths_8c.html#a1fa62fd52b6e1fa12794f480d51ba683" target="_top" xlink:title="Gets the filename from a complete path.">
<polygon fill="white" stroke="#666666" points="249,-648 136,-648 136,-629 249,-629 249,-648"/>
<text text-anchor="middle" x="192.5" y="-636" font-family="Helvetica,sans-Serif" font-size="10.00">FMC_extractFilename</text>
</a>
</g>
</g>
<!-- Node12&#45;&gt;Node14 -->
<g id="edge13" class="edge">
<title>Node12&#45;&gt;Node14</title>
<path fill="none" stroke="#63b8ff" d="M283.78,-638.5C272.27,-638.5 260.53,-638.5 249.49,-638.5"/>
<polygon fill="#63b8ff" stroke="#63b8ff" points="283.67,-642 293.67,-638.5 283.67,-635 283.67,-642"/>
</g>
<!-- Node15 -->
<g id="node15" class="node">
<title>Node15</title>
<g id="a_node15"><a xlink:href="../../da/d92/_f_m_c__paths_8c.html#ab8632eb234af95cea6075bc166278cff" target="_top" xlink:title=" ">
<polygon fill="white" stroke="#666666" points="100,-629 0,-629 0,-610 100,-610 100,-629"/>
<text text-anchor="middle" x="50" y="-617" font-family="Helvetica,sans-Serif" font-size="10.00">FMC_getExtension</text>
</a>
</g>
</g>
<!-- Node12&#45;&gt;Node15 -->
<g id="edge16" class="edge">
<title>Node12&#45;&gt;Node15</title>
<path fill="none" stroke="#63b8ff" d="M296.48,-626.66C281.06,-624.13 264.47,-621.82 249,-620.5 198.48,-616.19 140.45,-616.51 100.33,-617.56"/>
<polygon fill="#63b8ff" stroke="#63b8ff" points="295.54,-630.05 305.98,-628.28 296.71,-623.15 295.54,-630.05"/>
</g>
<!-- Node16 -->
<g id="node16" class="node">
<title>Node16</title>
<g id="a_node16"><a xlink:href="../../da/da9/_f_m_c__encodings_8c.html#ac43872885563da059b7870132977db9d" target="_top" xlink:title=" ">
<polygon fill="white" stroke="#666666" points="241,-536 144,-536 144,-517 241,-517 241,-536"/>
<text text-anchor="middle" x="192.5" y="-524" font-family="Helvetica,sans-Serif" font-size="10.00">FMC_getEncoding</text>
</a>
</g>
</g>
<!-- Node12&#45;&gt;Node16 -->
<g id="edge15" class="edge">
<title>Node12&#45;&gt;Node16</title>
<path fill="none" stroke="#63b8ff" d="M292.34,-624.27C289.81,-623.11 287.36,-621.85 285,-620.5 274.98,-614.74 223.32,-559.01 202.35,-536.18"/>
<polygon fill="#63b8ff" stroke="#63b8ff" points="291.02,-627.51 301.61,-627.97 293.62,-621.01 291.02,-627.51"/>
</g>
<!-- Node14&#45;&gt;Node15 -->
<g id="edge14" class="edge">
<title>Node14&#45;&gt;Node15</title>
<path fill="none" stroke="#63b8ff" d="M124.27,-629.41C116.22,-628.32 108.11,-627.22 100.38,-626.18"/>
<polygon fill="#63b8ff" stroke="#63b8ff" points="123.69,-632.86 134.07,-630.73 124.63,-625.92 123.69,-632.86"/>
</g>
<!-- Node20&#45;&gt;Node16 -->
<g id="edge21" class="edge">
<title>Node20&#45;&gt;Node16</title>
<path fill="none" stroke="#63b8ff" d="M300.9,-502.85C280.61,-507.32 257.98,-512.3 238.75,-516.54"/>
<polygon fill="#63b8ff" stroke="#63b8ff" points="301.4,-506.33 310.41,-500.76 299.89,-499.49 301.4,-506.33"/>
</g>
</g>
</svg>
