<?xml version="1.0" encoding="UTF-8" standalone="no"?>
<!DOCTYPE svg PUBLIC "-//W3C//DTD SVG 1.1//EN"
 "http://www.w3.org/Graphics/SVG/1.1/DTD/svg11.dtd">
<!-- Generated by graphviz version 7.1.0 (20230121.1956)
 -->
<!-- Title: FMC_printBrightGreenText Pages: 1 -->
<svg width="324pt" height="76pt"
 viewBox="0.00 0.00 324.00 75.50" xmlns="http://www.w3.org/2000/svg" xmlns:xlink="http://www.w3.org/1999/xlink">
<g id="graph0" class="graph" transform="scale(1 1) rotate(0) translate(4 71.5)">
<title>FMC_printBrightGreenText</title>
<!-- Node1 -->
<g id="node1" class="node">
<title>Node1</title>
<g id="a_node1"><a xlink:title=" ">
<polygon fill="#999999" stroke="#666666" points="132,-40 0,-40 0,-21 132,-21 132,-40"/>
<text text-anchor="middle" x="66" y="-28" font-family="Helvetica,sans-Serif" font-size="10.00">FMC_printBrightGreenText</text>
</a>
</g>
</g>
<!-- Node2 -->
<g id="node2" class="node">
<title>Node2</title>
<g id="a_node2"><a xlink:href="../../dc/de1/_f_m_c__errors_8h.html#aaa9ba0e7a25ccb25481bf9b9826917b0" target="_top" xlink:title=" ">
<polygon fill="white" stroke="#666666" points="315.5,-67.5 168.5,-67.5 168.5,-37.5 315.5,-37.5 315.5,-67.5"/>
<text text-anchor="start" x="176.5" y="-55.5" font-family="Helvetica,sans-Serif" font-size="10.00">FMC_changeStreamTextColor</text>
<text text-anchor="middle" x="242" y="-44.5" font-family="Helvetica,sans-Serif" font-size="10.00">ToBrightGreen</text>
</a>
</g>
</g>
<!-- Node1&#45;&gt;Node2 -->
<g id="edge1" class="edge">
<title>Node1&#45;&gt;Node2</title>
<path fill="none" stroke="#63b8ff" d="M132.29,-38.75C140.31,-39.77 148.59,-40.82 156.84,-41.86"/>
<polygon fill="#63b8ff" stroke="#63b8ff" points="156.18,-45.3 166.54,-43.09 157.06,-38.36 156.18,-45.3"/>
</g>
<!-- Node3 -->
<g id="node3" class="node">
<title>Node3</title>
<g id="a_node3"><a xlink:href="../../dc/de1/_f_m_c__errors_8h.html#a5dac1ddff314ba7b3bed3d87eb3f19f5" target="_top" xlink:title=" ">
<polygon fill="white" stroke="#666666" points="316,-19 168,-19 168,0 316,0 316,-19"/>
<text text-anchor="middle" x="242" y="-7" font-family="Helvetica,sans-Serif" font-size="10.00">FMC_resetStreamOutputStyle</text>
</a>
</g>
</g>
<!-- Node1&#45;&gt;Node3 -->
<g id="edge2" class="edge">
<title>Node1&#45;&gt;Node3</title>
<path fill="none" stroke="#63b8ff" d="M132.29,-22.62C140.15,-21.67 148.27,-20.69 156.36,-19.72"/>
<polygon fill="#63b8ff" stroke="#63b8ff" points="156.74,-23.19 166.25,-18.52 155.9,-16.25 156.74,-23.19"/>
</g>
</g>
</svg>
