<?xml version="1.0" encoding="UTF-8" standalone="no"?>
<!DOCTYPE svg PUBLIC "-//W3C//DTD SVG 1.1//EN"
 "http://www.w3.org/Graphics/SVG/1.1/DTD/svg11.dtd">
<!-- Generated by graphviz version 7.1.0 (20230121.1956)
 -->
<!-- Title: FMC_changeStreamTextColorToYellow Pages: 1 -->
<svg width="302pt" height="64pt"
 viewBox="0.00 0.00 302.00 64.00" xmlns="http://www.w3.org/2000/svg" xmlns:xlink="http://www.w3.org/1999/xlink">
<g id="graph0" class="graph" transform="scale(1 1) rotate(0) translate(4 60)">
<title>FMC_changeStreamTextColorToYellow</title>
<!-- Node1 -->
<g id="node1" class="node">
<title>Node1</title>
<g id="a_node1"><a xlink:title=" ">
<polygon fill="#999999" stroke="#666666" points="294,-42.5 147,-42.5 147,-12.5 294,-12.5 294,-42.5"/>
<text text-anchor="start" x="155" y="-30.5" font-family="Helvetica,sans-Serif" font-size="10.00">FMC_changeStreamTextColor</text>
<text text-anchor="middle" x="220.5" y="-19.5" font-family="Helvetica,sans-Serif" font-size="10.00">ToYellow</text>
</a>
</g>
</g>
<!-- Node2 -->
<g id="node2" class="node">
<title>Node2</title>
<g id="a_node2"><a xlink:href="../../dc/de1/_f_m_c__errors_8h.html#a44368b2a61e244b3d4260be1acd248d3" target="_top" xlink:title=" ">
<polygon fill="white" stroke="#666666" points="111,-56 0,-56 0,-37 111,-37 111,-56"/>
<text text-anchor="middle" x="55.5" y="-44" font-family="Helvetica,sans-Serif" font-size="10.00">FMC_printYellowError</text>
</a>
</g>
</g>
<!-- Node1&#45;&gt;Node2 -->
<g id="edge1" class="edge">
<title>Node1&#45;&gt;Node2</title>
<path fill="none" stroke="#63b8ff" d="M135.42,-37.3C127.22,-38.26 119.06,-39.21 111.27,-40.12"/>
<polygon fill="#63b8ff" stroke="#63b8ff" points="135.55,-40.81 145.08,-36.17 134.74,-33.86 135.55,-40.81"/>
</g>
<!-- Node3 -->
<g id="node3" class="node">
<title>Node3</title>
<g id="a_node3"><a xlink:href="../../dc/de1/_f_m_c__errors_8h.html#a4f9e0c541589c29135862a9f35f2dc9e" target="_top" xlink:title=" ">
<polygon fill="white" stroke="#666666" points="110,-19 1,-19 1,0 110,0 110,-19"/>
<text text-anchor="middle" x="55.5" y="-7" font-family="Helvetica,sans-Serif" font-size="10.00">FMC_printYellowText</text>
</a>
</g>
</g>
<!-- Node1&#45;&gt;Node3 -->
<g id="edge2" class="edge">
<title>Node1&#45;&gt;Node3</title>
<path fill="none" stroke="#63b8ff" d="M135.38,-18.21C126.86,-17.27 118.37,-16.33 110.3,-15.44"/>
<polygon fill="#63b8ff" stroke="#63b8ff" points="134.75,-21.66 145.08,-19.28 135.52,-14.7 134.75,-21.66"/>
</g>
</g>
</svg>
