<?xml version="1.0" encoding="UTF-8" standalone="no"?>
<!DOCTYPE svg PUBLIC "-//W3C//DTD SVG 1.1//EN"
 "http://www.w3.org/Graphics/SVG/1.1/DTD/svg11.dtd">
<!-- Generated by graphviz version 7.1.0 (20230121.1956)
 -->
<!-- Title: FMC_printWhiteError Pages: 1 -->
<svg width="300pt" height="113pt"
 viewBox="0.00 0.00 300.00 112.50" xmlns="http://www.w3.org/2000/svg" xmlns:xlink="http://www.w3.org/1999/xlink">
<g id="graph0" class="graph" transform="scale(1 1) rotate(0) translate(4 108.5)">
<title>FMC_printWhiteError</title>
<!-- Node1 -->
<g id="node1" class="node">
<title>Node1</title>
<g id="a_node1"><a xlink:title=" ">
<polygon fill="#999999" stroke="#666666" points="108,-56 0,-56 0,-37 108,-37 108,-56"/>
<text text-anchor="middle" x="54" y="-44" font-family="Helvetica,sans-Serif" font-size="10.00">FMC_printWhiteError</text>
</a>
</g>
</g>
<!-- Node2 -->
<g id="node2" class="node">
<title>Node2</title>
<g id="a_node2"><a xlink:href="../../dc/de1/_f_m_c__errors_8h.html#a8341db3979a9fb2f84cfdc1a700a901a" target="_top" xlink:title=" ">
<polygon fill="white" stroke="#666666" points="291.5,-104.5 144.5,-104.5 144.5,-74.5 291.5,-74.5 291.5,-104.5"/>
<text text-anchor="start" x="152.5" y="-92.5" font-family="Helvetica,sans-Serif" font-size="10.00">FMC_changeStreamTextColor</text>
<text text-anchor="middle" x="218" y="-81.5" font-family="Helvetica,sans-Serif" font-size="10.00">ToWhite</text>
</a>
</g>
</g>
<!-- Node1&#45;&gt;Node2 -->
<g id="edge1" class="edge">
<title>Node1&#45;&gt;Node2</title>
<path fill="none" stroke="#63b8ff" d="M92.57,-56.47C108.98,-60.83 128.77,-66.08 147.68,-71.1"/>
<polygon fill="#63b8ff" stroke="#63b8ff" points="146.66,-74.45 157.22,-73.63 148.46,-67.68 146.66,-74.45"/>
</g>
<!-- Node3 -->
<g id="node3" class="node">
<title>Node3</title>
<g id="a_node3"><a xlink:href="../../dc/de1/_f_m_c__errors_8h.html#a5dac1ddff314ba7b3bed3d87eb3f19f5" target="_top" xlink:title=" ">
<polygon fill="white" stroke="#666666" points="292,-56 144,-56 144,-37 292,-37 292,-56"/>
<text text-anchor="middle" x="218" y="-44" font-family="Helvetica,sans-Serif" font-size="10.00">FMC_resetStreamOutputStyle</text>
</a>
</g>
</g>
<!-- Node1&#45;&gt;Node3 -->
<g id="edge2" class="edge">
<title>Node1&#45;&gt;Node3</title>
<path fill="none" stroke="#63b8ff" d="M108.49,-46.5C116.14,-46.5 124.15,-46.5 132.21,-46.5"/>
<polygon fill="#63b8ff" stroke="#63b8ff" points="132.1,-50 142.1,-46.5 132.1,-43 132.1,-50"/>
</g>
<!-- Node4 -->
<g id="node4" class="node">
<title>Node4</title>
<g id="a_node4"><a xlink:href="../../dc/de1/_f_m_c__errors_8h.html#ad65d0a387448c0139270e9c628cf4126" target="_top" xlink:title=" ">
<polygon fill="white" stroke="#666666" points="282,-19 154,-19 154,0 282,0 282,-19"/>
<text text-anchor="middle" x="218" y="-7" font-family="Helvetica,sans-Serif" font-size="10.00">FMC_setTextStyleToBold</text>
</a>
</g>
</g>
<!-- Node1&#45;&gt;Node4 -->
<g id="edge3" class="edge">
<title>Node1&#45;&gt;Node4</title>
<path fill="none" stroke="#63b8ff" d="M98.41,-36.58C118.12,-32.08 141.63,-26.71 162.51,-21.95"/>
<polygon fill="#63b8ff" stroke="#63b8ff" points="163.02,-25.42 171.99,-19.78 161.46,-18.59 163.02,-25.42"/>
</g>
</g>
</svg>
