<?xml version="1.0" encoding="UTF-8" standalone="no"?>
<!DOCTYPE svg PUBLIC "-//W3C//DTD SVG 1.1//EN"
 "http://www.w3.org/Graphics/SVG/1.1/DTD/svg11.dtd">
<!-- Generated by graphviz version 7.1.0 (20230121.1956)
 -->
<!-- Title: FMC_printMagentaText Pages: 1 -->
<svg width="310pt" height="76pt"
 viewBox="0.00 0.00 310.00 75.50" xmlns="http://www.w3.org/2000/svg" xmlns:xlink="http://www.w3.org/1999/xlink">
<g id="graph0" class="graph" transform="scale(1 1) rotate(0) translate(4 71.5)">
<title>FMC_printMagentaText</title>
<!-- Node1 -->
<g id="node1" class="node">
<title>Node1</title>
<g id="a_node1"><a xlink:title=" ">
<polygon fill="#999999" stroke="#666666" points="118,-40 0,-40 0,-21 118,-21 118,-40"/>
<text text-anchor="middle" x="59" y="-28" font-family="Helvetica,sans-Serif" font-size="10.00">FMC_printMagentaText</text>
</a>
</g>
</g>
<!-- Node2 -->
<g id="node2" class="node">
<title>Node2</title>
<g id="a_node2"><a xlink:href="../../dc/de1/_f_m_c__errors_8h.html#a8975895d083a6168dcf9c56de3bed1fb" target="_top" xlink:title=" ">
<polygon fill="white" stroke="#666666" points="301.5,-67.5 154.5,-67.5 154.5,-37.5 301.5,-37.5 301.5,-67.5"/>
<text text-anchor="start" x="162.5" y="-55.5" font-family="Helvetica,sans-Serif" font-size="10.00">FMC_changeStreamTextColor</text>
<text text-anchor="middle" x="228" y="-44.5" font-family="Helvetica,sans-Serif" font-size="10.00">ToMagenta</text>
</a>
</g>
</g>
<!-- Node1&#45;&gt;Node2 -->
<g id="edge1" class="edge">
<title>Node1&#45;&gt;Node2</title>
<path fill="none" stroke="#63b8ff" d="M118.41,-38.19C126.36,-39.24 134.65,-40.33 142.95,-41.43"/>
<polygon fill="#63b8ff" stroke="#63b8ff" points="142.36,-44.88 152.73,-42.72 143.28,-37.94 142.36,-44.88"/>
</g>
<!-- Node3 -->
<g id="node3" class="node">
<title>Node3</title>
<g id="a_node3"><a xlink:href="../../dc/de1/_f_m_c__errors_8h.html#a5dac1ddff314ba7b3bed3d87eb3f19f5" target="_top" xlink:title=" ">
<polygon fill="white" stroke="#666666" points="302,-19 154,-19 154,0 302,0 302,-19"/>
<text text-anchor="middle" x="228" y="-7" font-family="Helvetica,sans-Serif" font-size="10.00">FMC_resetStreamOutputStyle</text>
</a>
</g>
</g>
<!-- Node1&#45;&gt;Node3 -->
<g id="edge2" class="edge">
<title>Node1&#45;&gt;Node3</title>
<path fill="none" stroke="#63b8ff" d="M118.41,-23.16C126.14,-22.18 134.2,-21.17 142.26,-20.16"/>
<polygon fill="#63b8ff" stroke="#63b8ff" points="142.66,-23.63 152.15,-18.91 141.79,-16.69 142.66,-23.63"/>
</g>
</g>
</svg>
