<?xml version="1.0" encoding="UTF-8" standalone="no"?>
<!DOCTYPE svg PUBLIC "-//W3C//DTD SVG 1.1//EN"
 "http://www.w3.org/Graphics/SVG/1.1/DTD/svg11.dtd">
<!-- Generated by graphviz version 2.43.0 (0)
 -->
<!-- Title: FMC_getExtension Pages: 1 -->
<svg width="644pt" height="113pt"
 viewBox="0.00 0.00 644.00 112.50" xmlns="http://www.w3.org/2000/svg" xmlns:xlink="http://www.w3.org/1999/xlink">
<g id="graph0" class="graph" transform="scale(1 1) rotate(0) translate(4 108.5)">
<title>FMC_getExtension</title>
<!-- Node1 -->
<g id="node1" class="node">
<title>Node1</title>
<g id="a_node1"><a xlink:title=" ">
<polygon fill="#999999" stroke="#666666" points="107,-56 0,-56 0,-37 107,-37 107,-56"/>
<text text-anchor="middle" x="53.5" y="-44" font-family="Helvetica,sans-Serif" font-size="10.00">FMC_getExtension</text>
</a>
</g>
</g>
<!-- Node2 -->
<g id="node2" class="node">
<title>Node2</title>
<g id="a_node2"><a xlink:href="../../dc/d5e/FMC__paths_8c.html#a1fa62fd52b6e1fa12794f480d51ba683" target="_top" xlink:title="Gets the filename from a complete path.">
<polygon fill="white" stroke="#666666" points="266,-75 143,-75 143,-56 266,-56 266,-75"/>
<text text-anchor="middle" x="204.5" y="-63" font-family="Helvetica,sans-Serif" font-size="10.00">FMC_extractFilename</text>
</a>
</g>
</g>
<!-- Node1&#45;&gt;Node2 -->
<g id="edge1" class="edge">
<title>Node1&#45;&gt;Node2</title>
<path fill="none" stroke="#63b8ff" d="M107.03,-53.2C115.34,-54.26 124.05,-55.37 132.7,-56.47"/>
<polygon fill="#63b8ff" stroke="#63b8ff" points="132.42,-59.96 142.79,-57.76 133.31,-53.02 132.42,-59.96"/>
</g>
<!-- Node3 -->
<g id="node3" class="node">
<title>Node3</title>
<g id="a_node3"><a xlink:href="../../dd/ddf/FMC__errors_8h.html#aa53062880249a772fa5af75cbb637d14" target="_top" xlink:title=" ">
<polygon fill="white" stroke="#666666" points="439,-56 302,-56 302,-37 439,-37 439,-56"/>
<text text-anchor="middle" x="370.5" y="-44" font-family="Helvetica,sans-Serif" font-size="10.00">FMC_printBrightRedError</text>
</a>
</g>
</g>
<!-- Node1&#45;&gt;Node3 -->
<g id="edge6" class="edge">
<title>Node1&#45;&gt;Node3</title>
<path fill="none" stroke="#63b8ff" d="M107.22,-46.5C157.62,-46.5 234.2,-46.5 291.62,-46.5"/>
<polygon fill="#63b8ff" stroke="#63b8ff" points="291.75,-50 301.75,-46.5 291.75,-43 291.75,-50"/>
</g>
<!-- Node2&#45;&gt;Node3 -->
<g id="edge2" class="edge">
<title>Node2&#45;&gt;Node3</title>
<path fill="none" stroke="#63b8ff" d="M266.1,-58.48C274.5,-57.51 283.21,-56.5 291.86,-55.49"/>
<polygon fill="#63b8ff" stroke="#63b8ff" points="292.44,-58.95 301.97,-54.32 291.63,-52 292.44,-58.95"/>
</g>
<!-- Node4 -->
<g id="node4" class="node">
<title>Node4</title>
<g id="a_node4"><a xlink:href="../../dd/ddf/FMC__errors_8h.html#abfd332c091d02782f186ebfa172b6acd" target="_top" xlink:title=" ">
<polygon fill="white" stroke="#666666" points="635.5,-104.5 475.5,-104.5 475.5,-74.5 635.5,-74.5 635.5,-104.5"/>
<text text-anchor="start" x="483.5" y="-92.5" font-family="Helvetica,sans-Serif" font-size="10.00">FMC_changeStreamTextColor</text>
<text text-anchor="middle" x="555.5" y="-81.5" font-family="Helvetica,sans-Serif" font-size="10.00">ToBrightRed</text>
</a>
</g>
</g>
<!-- Node3&#45;&gt;Node4 -->
<g id="edge3" class="edge">
<title>Node3&#45;&gt;Node4</title>
<path fill="none" stroke="#63b8ff" d="M412.11,-56.04C432.29,-60.78 457.31,-66.66 480.72,-72.16"/>
<polygon fill="#63b8ff" stroke="#63b8ff" points="480.1,-75.61 490.64,-74.49 481.7,-68.8 480.1,-75.61"/>
</g>
<!-- Node5 -->
<g id="node5" class="node">
<title>Node5</title>
<g id="a_node5"><a xlink:href="../../dd/ddf/FMC__errors_8h.html#a5dac1ddff314ba7b3bed3d87eb3f19f5" target="_top" xlink:title=" ">
<polygon fill="white" stroke="#666666" points="636,-56 475,-56 475,-37 636,-37 636,-56"/>
<text text-anchor="middle" x="555.5" y="-44" font-family="Helvetica,sans-Serif" font-size="10.00">FMC_resetStreamOutputStyle</text>
</a>
</g>
</g>
<!-- Node3&#45;&gt;Node5 -->
<g id="edge4" class="edge">
<title>Node3&#45;&gt;Node5</title>
<path fill="none" stroke="#63b8ff" d="M439.12,-46.5C447.47,-46.5 456.09,-46.5 464.7,-46.5"/>
<polygon fill="#63b8ff" stroke="#63b8ff" points="464.78,-50 474.78,-46.5 464.78,-43 464.78,-50"/>
</g>
<!-- Node6 -->
<g id="node6" class="node">
<title>Node6</title>
<g id="a_node6"><a xlink:href="../../dd/ddf/FMC__errors_8h.html#ad65d0a387448c0139270e9c628cf4126" target="_top" xlink:title=" ">
<polygon fill="white" stroke="#666666" points="623.5,-19 487.5,-19 487.5,0 623.5,0 623.5,-19"/>
<text text-anchor="middle" x="555.5" y="-7" font-family="Helvetica,sans-Serif" font-size="10.00">FMC_setTextStyleToBold</text>
</a>
</g>
</g>
<!-- Node3&#45;&gt;Node6 -->
<g id="edge5" class="edge">
<title>Node3&#45;&gt;Node6</title>
<path fill="none" stroke="#63b8ff" d="M418.63,-36.97C442.65,-32.11 472.07,-26.17 497.38,-21.05"/>
<polygon fill="#63b8ff" stroke="#63b8ff" points="498.11,-24.47 507.21,-19.06 496.72,-17.61 498.11,-24.47"/>
</g>
</g>
</svg>
