<?xml version="1.0" encoding="UTF-8" standalone="no"?>
<!DOCTYPE svg PUBLIC "-//W3C//DTD SVG 1.1//EN"
 "http://www.w3.org/Graphics/SVG/1.1/DTD/svg11.dtd">
<!-- Generated by graphviz version 2.43.0 (0)
 -->
<!-- Title: FMC_extractFilename Pages: 1 -->
<svg width="501pt" height="113pt"
 viewBox="0.00 0.00 501.00 112.50" xmlns="http://www.w3.org/2000/svg" xmlns:xlink="http://www.w3.org/1999/xlink">
<g id="graph0" class="graph" transform="scale(1 1) rotate(0) translate(4 108.5)">
<title>FMC_extractFilename</title>
<!-- Node1 -->
<g id="node1" class="node">
<title>Node1</title>
<g id="a_node1"><a xlink:title="Gets the filename from a complete path.">
<polygon fill="#999999" stroke="#666666" points="123,-74 0,-74 0,-55 123,-55 123,-74"/>
<text text-anchor="middle" x="61.5" y="-62" font-family="Helvetica,sans-Serif" font-size="10.00">FMC_extractFilename</text>
</a>
</g>
</g>
<!-- Node2 -->
<g id="node2" class="node">
<title>Node2</title>
<g id="a_node2"><a xlink:href="../../d0/ddd/FMC__globals_8c.html#ab5e5e97b744f2fbf4620b11069b863c7" target="_top" xlink:title=" ">
<polygon fill="white" stroke="#666666" points="285.5,-93 169.5,-93 169.5,-74 285.5,-74 285.5,-93"/>
<text text-anchor="middle" x="227.5" y="-81" font-family="Helvetica,sans-Serif" font-size="10.00">FMC_getDebugState</text>
</a>
</g>
</g>
<!-- Node1&#45;&gt;Node2 -->
<g id="edge1" class="edge">
<title>Node1&#45;&gt;Node2</title>
<path fill="none" stroke="#63b8ff" d="M123.1,-71.52C134.93,-72.89 147.41,-74.34 159.44,-75.73"/>
<polygon fill="#63b8ff" stroke="#63b8ff" points="159.08,-79.21 169.41,-76.89 159.88,-72.26 159.08,-79.21"/>
</g>
<!-- Node3 -->
<g id="node3" class="node">
<title>Node3</title>
<g id="a_node3"><a xlink:href="../../dd/ddf/FMC__errors_8h.html#aa53062880249a772fa5af75cbb637d14" target="_top" xlink:title=" ">
<polygon fill="white" stroke="#666666" points="296,-56 159,-56 159,-37 296,-37 296,-56"/>
<text text-anchor="middle" x="227.5" y="-44" font-family="Helvetica,sans-Serif" font-size="10.00">FMC_printBrightRedError</text>
</a>
</g>
</g>
<!-- Node1&#45;&gt;Node3 -->
<g id="edge2" class="edge">
<title>Node1&#45;&gt;Node3</title>
<path fill="none" stroke="#63b8ff" d="M123.1,-57.85C131.5,-56.93 140.21,-55.97 148.86,-55.02"/>
<polygon fill="#63b8ff" stroke="#63b8ff" points="149.41,-58.48 158.97,-53.91 148.64,-51.52 149.41,-58.48"/>
</g>
<!-- Node4 -->
<g id="node4" class="node">
<title>Node4</title>
<g id="a_node4"><a xlink:href="../../dd/ddf/FMC__errors_8h.html#abfd332c091d02782f186ebfa172b6acd" target="_top" xlink:title=" ">
<polygon fill="white" stroke="#666666" points="492.5,-104.5 332.5,-104.5 332.5,-74.5 492.5,-74.5 492.5,-104.5"/>
<text text-anchor="start" x="340.5" y="-92.5" font-family="Helvetica,sans-Serif" font-size="10.00">FMC_changeStreamTextColor</text>
<text text-anchor="middle" x="412.5" y="-81.5" font-family="Helvetica,sans-Serif" font-size="10.00">ToBrightRed</text>
</a>
</g>
</g>
<!-- Node3&#45;&gt;Node4 -->
<g id="edge3" class="edge">
<title>Node3&#45;&gt;Node4</title>
<path fill="none" stroke="#63b8ff" d="M269.11,-56.04C289.29,-60.78 314.31,-66.66 337.72,-72.16"/>
<polygon fill="#63b8ff" stroke="#63b8ff" points="337.1,-75.61 347.64,-74.49 338.7,-68.8 337.1,-75.61"/>
</g>
<!-- Node5 -->
<g id="node5" class="node">
<title>Node5</title>
<g id="a_node5"><a xlink:href="../../dd/ddf/FMC__errors_8h.html#a5dac1ddff314ba7b3bed3d87eb3f19f5" target="_top" xlink:title=" ">
<polygon fill="white" stroke="#666666" points="493,-56 332,-56 332,-37 493,-37 493,-56"/>
<text text-anchor="middle" x="412.5" y="-44" font-family="Helvetica,sans-Serif" font-size="10.00">FMC_resetStreamOutputStyle</text>
</a>
</g>
</g>
<!-- Node3&#45;&gt;Node5 -->
<g id="edge4" class="edge">
<title>Node3&#45;&gt;Node5</title>
<path fill="none" stroke="#63b8ff" d="M296.12,-46.5C304.47,-46.5 313.09,-46.5 321.7,-46.5"/>
<polygon fill="#63b8ff" stroke="#63b8ff" points="321.78,-50 331.78,-46.5 321.78,-43 321.78,-50"/>
</g>
<!-- Node6 -->
<g id="node6" class="node">
<title>Node6</title>
<g id="a_node6"><a xlink:href="../../dd/ddf/FMC__errors_8h.html#ad65d0a387448c0139270e9c628cf4126" target="_top" xlink:title=" ">
<polygon fill="white" stroke="#666666" points="480.5,-19 344.5,-19 344.5,0 480.5,0 480.5,-19"/>
<text text-anchor="middle" x="412.5" y="-7" font-family="Helvetica,sans-Serif" font-size="10.00">FMC_setTextStyleToBold</text>
</a>
</g>
</g>
<!-- Node3&#45;&gt;Node6 -->
<g id="edge5" class="edge">
<title>Node3&#45;&gt;Node6</title>
<path fill="none" stroke="#63b8ff" d="M275.63,-36.97C299.65,-32.11 329.07,-26.17 354.38,-21.05"/>
<polygon fill="#63b8ff" stroke="#63b8ff" points="355.11,-24.47 364.21,-19.06 353.72,-17.61 355.11,-24.47"/>
</g>
</g>
</svg>
