<?xml version="1.0" encoding="UTF-8" standalone="no"?>
<!DOCTYPE svg PUBLIC "-//W3C//DTD SVG 1.1//EN"
 "http://www.w3.org/Graphics/SVG/1.1/DTD/svg11.dtd">
<!-- Generated by graphviz version 2.43.0 (0)
 -->
<!-- Title: src/data_analyze/FMC_data_analyze.h Pages: 1 -->
<svg width="882pt" height="368pt"
 viewBox="0.00 0.00 882.25 368.00" xmlns="http://www.w3.org/2000/svg" xmlns:xlink="http://www.w3.org/1999/xlink">
<g id="graph0" class="graph" transform="scale(1 1) rotate(0) translate(4 364)">
<title>src/data_analyze/FMC_data_analyze.h</title>
<!-- Node1 -->
<g id="node1" class="node">
<title>Node1</title>
<g id="a_node1"><a xlink:title=" ">
<polygon fill="#999999" stroke="#666666" points="407.25,-360 283.25,-360 283.25,-330 407.25,-330 407.25,-360"/>
<text text-anchor="start" x="291.25" y="-348" font-family="Helvetica,sans-Serif" font-size="10.00">src/data_analyze/FMC</text>
<text text-anchor="middle" x="345.25" y="-337" font-family="Helvetica,sans-Serif" font-size="10.00">_data_analyze.h</text>
</a>
</g>
</g>
<!-- Node2 -->
<g id="node2" class="node">
<title>Node2</title>
<g id="a_node2"><a xlink:href="../../db/d30/FMC__encodings_8h.html" target="_top" xlink:title=" ">
<polygon fill="white" stroke="#666666" points="344.75,-294 189.75,-294 189.75,-275 344.75,-275 344.75,-294"/>
<text text-anchor="middle" x="267.25" y="-282" font-family="Helvetica,sans-Serif" font-size="10.00">encodings/FMC_encodings.h</text>
</a>
</g>
</g>
<!-- Node1&#45;&gt;Node2 -->
<g id="edge1" class="edge">
<title>Node1&#45;&gt;Node2</title>
<path fill="none" stroke="#63b8ff" d="M326.36,-329.84C314.46,-320.91 299.12,-309.41 287.05,-300.35"/>
<polygon fill="#63b8ff" stroke="#63b8ff" points="289.03,-297.47 278.93,-294.27 284.83,-303.07 289.03,-297.47"/>
</g>
<!-- Node17 -->
<g id="node17" class="node">
<title>Node17</title>
<g id="a_node17"><a xlink:href="../../d9/db5/FMC__strings_8h.html" target="_top" xlink:title=" ">
<polygon fill="white" stroke="#666666" points="485.25,-294 363.25,-294 363.25,-275 485.25,-275 485.25,-294"/>
<text text-anchor="middle" x="424.25" y="-282" font-family="Helvetica,sans-Serif" font-size="10.00">strings/FMC_strings.h</text>
</a>
</g>
</g>
<!-- Node1&#45;&gt;Node17 -->
<g id="edge29" class="edge">
<title>Node1&#45;&gt;Node17</title>
<path fill="none" stroke="#63b8ff" d="M364.37,-329.84C376.42,-320.91 391.96,-309.41 404.19,-300.35"/>
<polygon fill="#63b8ff" stroke="#63b8ff" points="406.45,-303.03 412.41,-294.27 402.29,-297.4 406.45,-303.03"/>
</g>
<!-- Node3 -->
<g id="node3" class="node">
<title>Node3</title>
<g id="a_node3"><a xlink:href="../../d9/de1/FMC__general_8h.html" target="_top" xlink:title=" ">
<polygon fill="white" stroke="#666666" points="418.75,-239 271.75,-239 271.75,-220 418.75,-220 418.75,-239"/>
<text text-anchor="middle" x="345.25" y="-227" font-family="Helvetica,sans-Serif" font-size="10.00">../../general/FMC_general.h</text>
</a>
</g>
</g>
<!-- Node2&#45;&gt;Node3 -->
<g id="edge2" class="edge">
<title>Node2&#45;&gt;Node3</title>
<path fill="none" stroke="#63b8ff" d="M279.78,-274.98C291.65,-266.92 309.71,-254.65 323.86,-245.03"/>
<polygon fill="#63b8ff" stroke="#63b8ff" points="326.18,-247.69 332.49,-239.17 322.25,-241.9 326.18,-247.69"/>
</g>
<!-- Node4 -->
<g id="node4" class="node">
<title>Node4</title>
<g id="a_node4"><a xlink:href="../../d0/d28/FMC__macros_8h.html" target="_top" xlink:title=" ">
<polygon fill="white" stroke="#666666" points="319.75,-74 164.75,-74 164.75,-55 319.75,-55 319.75,-74"/>
<text text-anchor="middle" x="242.25" y="-62" font-family="Helvetica,sans-Serif" font-size="10.00">preprocessor/FMC_macros.h</text>
</a>
</g>
</g>
<!-- Node3&#45;&gt;Node4 -->
<g id="edge3" class="edge">
<title>Node3&#45;&gt;Node4</title>
<path fill="none" stroke="#63b8ff" d="M418.82,-220.24C464.5,-213.43 517.11,-201.92 531.25,-184 545.88,-165.46 533.41,-126.69 514.25,-110 487.21,-86.45 398.6,-75.22 329.78,-69.96"/>
<polygon fill="#63b8ff" stroke="#63b8ff" points="330.01,-66.47 319.78,-69.23 329.49,-73.45 330.01,-66.47"/>
</g>
<!-- Node5 -->
<g id="node5" class="node">
<title>Node5</title>
<g id="a_node5"><a xlink:href="../../d7/dff/FMC__platform_8h.html" target="_top" xlink:title=" ">
<polygon fill="white" stroke="#666666" points="103.75,-19 8.75,-19 8.75,0 103.75,0 103.75,-19"/>
<text text-anchor="middle" x="56.25" y="-7" font-family="Helvetica,sans-Serif" font-size="10.00">FMC_platform.h</text>
</a>
</g>
</g>
<!-- Node3&#45;&gt;Node5 -->
<g id="edge7" class="edge">
<title>Node3&#45;&gt;Node5</title>
<path fill="none" stroke="#63b8ff" d="M271.67,-226.25C215.73,-222.23 137.97,-211.61 75.25,-184 39.03,-168.06 22.54,-164.59 5.25,-129 -12.19,-93.12 19.33,-49.8 40.12,-26.76"/>
<polygon fill="#63b8ff" stroke="#63b8ff" points="42.88,-28.93 47.18,-19.25 37.78,-24.14 42.88,-28.93"/>
</g>
<!-- Node7 -->
<g id="node7" class="node">
<title>Node7</title>
<g id="a_node7"><a xlink:href="../../da/dd3/FMC__consts_8h.html" target="_top" xlink:title=" ">
<polygon fill="white" stroke="#666666" points="488.25,-129 338.25,-129 338.25,-110 488.25,-110 488.25,-129"/>
<text text-anchor="middle" x="413.25" y="-117" font-family="Helvetica,sans-Serif" font-size="10.00">preprocessor/FMC_consts.h</text>
</a>
</g>
</g>
<!-- Node3&#45;&gt;Node7 -->
<g id="edge8" class="edge">
<title>Node3&#45;&gt;Node7</title>
<path fill="none" stroke="#63b8ff" d="M350.81,-219.66C362.07,-201.77 387.74,-161 402.42,-137.69"/>
<polygon fill="#63b8ff" stroke="#63b8ff" points="405.43,-139.49 407.79,-129.16 399.5,-135.76 405.43,-139.49"/>
</g>
<!-- Node8 -->
<g id="node8" class="node">
<title>Node8</title>
<g id="a_node8"><a xlink:href="../../d5/de5/FMC__structs_8h.html" target="_top" xlink:title=" ">
<polygon fill="white" stroke="#666666" points="360.25,-184 244.25,-184 244.25,-165 360.25,-165 360.25,-184"/>
<text text-anchor="middle" x="302.25" y="-172" font-family="Helvetica,sans-Serif" font-size="10.00">types/FMC_structs.h</text>
</a>
</g>
</g>
<!-- Node3&#45;&gt;Node8 -->
<g id="edge9" class="edge">
<title>Node3&#45;&gt;Node8</title>
<path fill="none" stroke="#63b8ff" d="M338.15,-219.75C332.07,-212.26 323.16,-201.28 315.74,-192.13"/>
<polygon fill="#63b8ff" stroke="#63b8ff" points="318.23,-189.65 309.21,-184.09 312.8,-194.06 318.23,-189.65"/>
</g>
<!-- Node10 -->
<g id="node10" class="node">
<title>Node10</title>
<g id="a_node10"><a xlink:href="../../d6/d25/FMC__enums_8h.html" target="_top" xlink:title=" ">
<polygon fill="white" stroke="#666666" points="100.25,-129 14.25,-129 14.25,-110 100.25,-110 100.25,-129"/>
<text text-anchor="middle" x="57.25" y="-117" font-family="Helvetica,sans-Serif" font-size="10.00">FMC_enums.h</text>
</a>
</g>
</g>
<!-- Node3&#45;&gt;Node10 -->
<g id="edge19" class="edge">
<title>Node3&#45;&gt;Node10</title>
<path fill="none" stroke="#63b8ff" d="M271.5,-221.87C208.98,-215.07 125.13,-202.8 97.25,-184 81.08,-173.1 70.14,-153.24 63.85,-138.62"/>
<polygon fill="#63b8ff" stroke="#63b8ff" points="67.01,-137.12 60.08,-129.11 60.51,-139.69 67.01,-137.12"/>
</g>
<!-- Node11 -->
<g id="node11" class="node">
<title>Node11</title>
<g id="a_node11"><a xlink:href="../../df/df8/FMC__typedefs_8h.html" target="_top" xlink:title=" ">
<polygon fill="white" stroke="#666666" points="213.75,-129 118.75,-129 118.75,-110 213.75,-110 213.75,-129"/>
<text text-anchor="middle" x="166.25" y="-117" font-family="Helvetica,sans-Serif" font-size="10.00">FMC_typedefs.h</text>
</a>
</g>
</g>
<!-- Node3&#45;&gt;Node11 -->
<g id="edge18" class="edge">
<title>Node3&#45;&gt;Node11</title>
<path fill="none" stroke="#63b8ff" d="M271.55,-224.91C208.99,-220.13 126.14,-209.13 105.25,-184 90.13,-165.82 115.55,-146.42 138.04,-133.92"/>
<polygon fill="#63b8ff" stroke="#63b8ff" points="139.85,-136.93 147.06,-129.17 136.58,-130.74 139.85,-136.93"/>
</g>
<!-- Node12 -->
<g id="node12" class="node">
<title>Node12</title>
<g id="a_node12"><a xlink:href="../../d2/d5e/FMC__flags_8h.html" target="_top" xlink:title=" ">
<polygon fill="white" stroke="#666666" points="874.25,-184 732.25,-184 732.25,-165 874.25,-165 874.25,-184"/>
<text text-anchor="middle" x="803.25" y="-172" font-family="Helvetica,sans-Serif" font-size="10.00">preprocessor/FMC_flags.h</text>
</a>
</g>
</g>
<!-- Node3&#45;&gt;Node12 -->
<g id="edge17" class="edge">
<title>Node3&#45;&gt;Node12</title>
<path fill="none" stroke="#63b8ff" d="M418.83,-219.98C501.77,-210.39 636.22,-194.83 722.13,-184.89"/>
<polygon fill="#63b8ff" stroke="#63b8ff" points="722.57,-188.36 732.1,-183.73 721.77,-181.41 722.57,-188.36"/>
</g>
<!-- Node13 -->
<g id="node13" class="node">
<title>Node13</title>
<g id="a_node13"><a xlink:href="../../dd/ddf/FMC__errors_8h.html" target="_top" xlink:title=" ">
<polygon fill="white" stroke="#666666" points="521.75,-184 416.75,-184 416.75,-165 521.75,-165 521.75,-184"/>
<text text-anchor="middle" x="469.25" y="-172" font-family="Helvetica,sans-Serif" font-size="10.00">utils/FMC_errors.h</text>
</a>
</g>
</g>
<!-- Node3&#45;&gt;Node13 -->
<g id="edge20" class="edge">
<title>Node3&#45;&gt;Node13</title>
<path fill="none" stroke="#63b8ff" d="M365.17,-219.98C385.3,-211.38 416.63,-197.99 439.66,-188.15"/>
<polygon fill="#63b8ff" stroke="#63b8ff" points="441.14,-191.32 448.96,-184.17 438.39,-184.88 441.14,-191.32"/>
</g>
<!-- Node14 -->
<g id="node14" class="node">
<title>Node14</title>
<g id="a_node14"><a xlink:href="../../de/d86/FMC__globals_8h.html" target="_top" xlink:title=" ">
<polygon fill="white" stroke="#666666" points="226.25,-184 114.25,-184 114.25,-165 226.25,-165 226.25,-184"/>
<text text-anchor="middle" x="170.25" y="-172" font-family="Helvetica,sans-Serif" font-size="10.00">utils/FMC_globals.h</text>
</a>
</g>
</g>
<!-- Node3&#45;&gt;Node14 -->
<g id="edge24" class="edge">
<title>Node3&#45;&gt;Node14</title>
<path fill="none" stroke="#63b8ff" d="M317.13,-219.98C287.62,-211.05 241.05,-196.94 208.28,-187.02"/>
<polygon fill="#63b8ff" stroke="#63b8ff" points="209.17,-183.63 198.58,-184.08 207.14,-190.33 209.17,-183.63"/>
</g>
<!-- Node15 -->
<g id="node15" class="node">
<title>Node15</title>
<g id="a_node15"><a xlink:href="../../d4/d06/FMC__deprecated_8h.html" target="_top" xlink:title=" ">
<polygon fill="white" stroke="#666666" points="713.75,-184 582.75,-184 582.75,-165 713.75,-165 713.75,-184"/>
<text text-anchor="middle" x="648.25" y="-172" font-family="Helvetica,sans-Serif" font-size="10.00">utils/FMC_deprecated.h</text>
</a>
</g>
</g>
<!-- Node3&#45;&gt;Node15 -->
<g id="edge26" class="edge">
<title>Node3&#45;&gt;Node15</title>
<path fill="none" stroke="#63b8ff" d="M393.93,-219.98C447.19,-210.67 532.55,-195.74 589.5,-185.78"/>
<polygon fill="#63b8ff" stroke="#63b8ff" points="590.19,-189.21 599.43,-184.04 588.98,-182.31 590.19,-189.21"/>
</g>
<!-- Node4&#45;&gt;Node5 -->
<g id="edge4" class="edge">
<title>Node4&#45;&gt;Node5</title>
<path fill="none" stroke="#63b8ff" d="M212.36,-54.98C180.86,-46.01 131.08,-31.82 96.22,-21.89"/>
<polygon fill="#63b8ff" stroke="#63b8ff" points="96.94,-18.46 86.36,-19.08 95.02,-25.19 96.94,-18.46"/>
</g>
<!-- Node6 -->
<g id="node6" class="node">
<title>Node6</title>
<g id="a_node6"><a xlink:href="../../d1/d2e/FMC__attributes_8h.html" target="_top" xlink:title=" ">
<polygon fill="white" stroke="#666666" points="292.25,-19 192.25,-19 192.25,0 292.25,0 292.25,-19"/>
<text text-anchor="middle" x="242.25" y="-7" font-family="Helvetica,sans-Serif" font-size="10.00">FMC_attributes.h</text>
</a>
</g>
</g>
<!-- Node4&#45;&gt;Node6 -->
<g id="edge5" class="edge">
<title>Node4&#45;&gt;Node6</title>
<path fill="none" stroke="#63b8ff" d="M237.08,-54.75C235.59,-47.8 235.15,-37.85 235.77,-29.13"/>
<polygon fill="#63b8ff" stroke="#63b8ff" points="239.25,-29.47 237.12,-19.09 232.32,-28.53 239.25,-29.47"/>
</g>
<!-- Node6&#45;&gt;Node4 -->
<g id="edge6" class="edge">
<title>Node6&#45;&gt;Node4</title>
<path fill="none" stroke="#63b8ff" d="M247.38,-19.09C248.89,-25.99 249.34,-35.93 248.74,-44.66"/>
<polygon fill="#63b8ff" stroke="#63b8ff" points="245.25,-44.38 247.41,-54.75 252.19,-45.29 245.25,-44.38"/>
</g>
<!-- Node8&#45;&gt;Node4 -->
<g id="edge12" class="edge">
<title>Node8&#45;&gt;Node4</title>
<path fill="none" stroke="#63b8ff" d="M292.08,-164.95C282.81,-156.65 269.35,-143.24 261.25,-129 253.32,-115.08 248.39,-97.52 245.55,-84.4"/>
<polygon fill="#63b8ff" stroke="#63b8ff" points="248.91,-83.35 243.57,-74.21 242.04,-84.69 248.91,-83.35"/>
</g>
<!-- Node8&#45;&gt;Node7 -->
<g id="edge11" class="edge">
<title>Node8&#45;&gt;Node7</title>
<path fill="none" stroke="#63b8ff" d="M320.08,-164.98C337.86,-156.5 365.39,-143.35 385.93,-133.54"/>
<polygon fill="#63b8ff" stroke="#63b8ff" points="387.57,-136.64 395.09,-129.17 384.56,-130.32 387.57,-136.64"/>
</g>
<!-- Node9 -->
<g id="node9" class="node">
<title>Node9</title>
<g id="a_node9"><a xlink:title=" ">
<polygon fill="#e0e0e0" stroke="#999999" points="320.25,-129 270.25,-129 270.25,-110 320.25,-110 320.25,-129"/>
<text text-anchor="middle" x="295.25" y="-117" font-family="Helvetica,sans-Serif" font-size="10.00">stdio.h</text>
</a>
</g>
</g>
<!-- Node8&#45;&gt;Node9 -->
<g id="edge10" class="edge">
<title>Node8&#45;&gt;Node9</title>
<path fill="none" stroke="#63b8ff" d="M301.09,-164.75C300.17,-157.8 298.86,-147.85 297.71,-139.13"/>
<polygon fill="#63b8ff" stroke="#63b8ff" points="301.16,-138.54 296.38,-129.09 294.22,-139.46 301.16,-138.54"/>
</g>
<!-- Node8&#45;&gt;Node10 -->
<g id="edge13" class="edge">
<title>Node8&#45;&gt;Node10</title>
<path fill="none" stroke="#63b8ff" d="M262.88,-164.98C220.5,-155.82 152.99,-141.21 106.97,-131.26"/>
<polygon fill="#63b8ff" stroke="#63b8ff" points="107.43,-127.78 96.92,-129.08 105.95,-134.62 107.43,-127.78"/>
</g>
<!-- Node8&#45;&gt;Node11 -->
<g id="edge15" class="edge">
<title>Node8&#45;&gt;Node11</title>
<path fill="none" stroke="#63b8ff" d="M280.4,-164.98C258.12,-156.3 223.34,-142.75 198.03,-132.88"/>
<polygon fill="#63b8ff" stroke="#63b8ff" points="199.08,-129.54 188.49,-129.17 196.54,-136.06 199.08,-129.54"/>
</g>
<!-- Node10&#45;&gt;Node4 -->
<g id="edge14" class="edge">
<title>Node10&#45;&gt;Node4</title>
<path fill="none" stroke="#63b8ff" d="M86.97,-109.98C118.3,-101.01 167.82,-86.82 202.49,-76.89"/>
<polygon fill="#63b8ff" stroke="#63b8ff" points="203.64,-80.2 212.29,-74.08 201.71,-73.47 203.64,-80.2"/>
</g>
<!-- Node11&#45;&gt;Node4 -->
<g id="edge16" class="edge">
<title>Node11&#45;&gt;Node4</title>
<path fill="none" stroke="#63b8ff" d="M178.46,-109.98C190.02,-101.92 207.62,-89.65 221.41,-80.03"/>
<polygon fill="#63b8ff" stroke="#63b8ff" points="223.61,-82.76 229.81,-74.17 219.61,-77.02 223.61,-82.76"/>
</g>
<!-- Node13&#45;&gt;Node4 -->
<g id="edge23" class="edge">
<title>Node13&#45;&gt;Node4</title>
<path fill="none" stroke="#63b8ff" d="M478.45,-164.86C491.25,-151.8 511.36,-126.79 497.25,-110 476.01,-84.73 395.19,-73.81 330.15,-69.09"/>
<polygon fill="#63b8ff" stroke="#63b8ff" points="330.08,-65.58 319.86,-68.39 329.6,-72.56 330.08,-65.58"/>
</g>
<!-- Node13&#45;&gt;Node7 -->
<g id="edge22" class="edge">
<title>Node13&#45;&gt;Node7</title>
<path fill="none" stroke="#63b8ff" d="M460.25,-164.98C452.05,-157.23 439.74,-145.58 429.77,-136.14"/>
<polygon fill="#63b8ff" stroke="#63b8ff" points="432.08,-133.5 422.41,-129.17 427.26,-138.59 432.08,-133.5"/>
</g>
<!-- Node13&#45;&gt;Node9 -->
<g id="edge21" class="edge">
<title>Node13&#45;&gt;Node9</title>
<path fill="none" stroke="#63b8ff" d="M441.29,-164.98C410.99,-155.76 362.61,-141.02 329.91,-131.06"/>
<polygon fill="#63b8ff" stroke="#63b8ff" points="330.9,-127.7 320.31,-128.13 328.86,-134.4 330.9,-127.7"/>
</g>
<!-- Node14&#45;&gt;Node11 -->
<g id="edge25" class="edge">
<title>Node14&#45;&gt;Node11</title>
<path fill="none" stroke="#63b8ff" d="M169.59,-164.75C169.06,-157.8 168.31,-147.85 167.65,-139.13"/>
<polygon fill="#63b8ff" stroke="#63b8ff" points="171.14,-138.8 166.89,-129.09 164.16,-139.32 171.14,-138.8"/>
</g>
<!-- Node15&#45;&gt;Node6 -->
<g id="edge27" class="edge">
<title>Node15&#45;&gt;Node6</title>
<path fill="none" stroke="#63b8ff" d="M651.18,-164.58C654.98,-151.17 659.75,-125.69 647.25,-110 604.66,-56.56 404.67,-27.83 302.56,-16.43"/>
<polygon fill="#63b8ff" stroke="#63b8ff" points="302.72,-12.92 292.4,-15.31 301.96,-19.88 302.72,-12.92"/>
</g>
<!-- Node16 -->
<g id="node16" class="node">
<title>Node16</title>
<g id="a_node16"><a xlink:title=" ">
<polygon fill="#e0e0e0" stroke="#999999" points="638.25,-129 582.25,-129 582.25,-110 638.25,-110 638.25,-129"/>
<text text-anchor="middle" x="610.25" y="-117" font-family="Helvetica,sans-Serif" font-size="10.00">stddef.h</text>
</a>
</g>
</g>
<!-- Node15&#45;&gt;Node16 -->
<g id="edge28" class="edge">
<title>Node15&#45;&gt;Node16</title>
<path fill="none" stroke="#63b8ff" d="M641.97,-164.75C636.66,-157.34 628.89,-146.5 622.37,-137.41"/>
<polygon fill="#63b8ff" stroke="#63b8ff" points="625.08,-135.18 616.4,-129.09 619.39,-139.26 625.08,-135.18"/>
</g>
<!-- Node17&#45;&gt;Node3 -->
<g id="edge30" class="edge">
<title>Node17&#45;&gt;Node3</title>
<path fill="none" stroke="#63b8ff" d="M411.55,-274.98C399.42,-266.84 380.89,-254.41 366.5,-244.76"/>
<polygon fill="#63b8ff" stroke="#63b8ff" points="368.42,-241.84 358.17,-239.17 364.52,-247.65 368.42,-241.84"/>
</g>
</g>
</svg>
