<?xml version="1.0" encoding="UTF-8" standalone="no"?>
<!DOCTYPE svg PUBLIC "-//W3C//DTD SVG 1.1//EN"
 "http://www.w3.org/Graphics/SVG/1.1/DTD/svg11.dtd">
<!-- Generated by graphviz version 2.43.0 (0)
 -->
<!-- Title: src/data_analyze/FMC_data_analyze.h Pages: 1 -->
<svg width="746pt" height="423pt"
 viewBox="0.00 0.00 746.00 423.00" xmlns="http://www.w3.org/2000/svg" xmlns:xlink="http://www.w3.org/1999/xlink">
<g id="graph0" class="graph" transform="scale(1 1) rotate(0) translate(4 419)">
<title>src/data_analyze/FMC_data_analyze.h</title>
<!-- Node1 -->
<g id="node1" class="node">
<title>Node1</title>
<g id="a_node1"><a xlink:title=" ">
<polygon fill="#999999" stroke="#666666" points="371,-415 247,-415 247,-385 371,-385 371,-415"/>
<text text-anchor="start" x="255" y="-403" font-family="Helvetica,sans-Serif" font-size="10.00">src/data_analyze/FMC</text>
<text text-anchor="middle" x="309" y="-392" font-family="Helvetica,sans-Serif" font-size="10.00">_data_analyze.h</text>
</a>
</g>
</g>
<!-- Node2 -->
<g id="node2" class="node">
<title>Node2</title>
<g id="a_node2"><a xlink:href="../../db/d30/FMC__encodings_8h.html" target="_top" xlink:title=" ">
<polygon fill="white" stroke="#666666" points="308.5,-349 153.5,-349 153.5,-330 308.5,-330 308.5,-349"/>
<text text-anchor="middle" x="231" y="-337" font-family="Helvetica,sans-Serif" font-size="10.00">encodings/FMC_encodings.h</text>
</a>
</g>
</g>
<!-- Node1&#45;&gt;Node2 -->
<g id="edge1" class="edge">
<title>Node1&#45;&gt;Node2</title>
<path fill="none" stroke="#63b8ff" d="M290.12,-384.84C278.22,-375.91 262.88,-364.41 250.8,-355.35"/>
<polygon fill="#63b8ff" stroke="#63b8ff" points="252.79,-352.47 242.69,-349.27 248.59,-358.07 252.79,-352.47"/>
</g>
<!-- Node15 -->
<g id="node15" class="node">
<title>Node15</title>
<g id="a_node15"><a xlink:href="../../d9/db5/FMC__strings_8h.html" target="_top" xlink:title=" ">
<polygon fill="white" stroke="#666666" points="449,-349 327,-349 327,-330 449,-330 449,-349"/>
<text text-anchor="middle" x="388" y="-337" font-family="Helvetica,sans-Serif" font-size="10.00">strings/FMC_strings.h</text>
</a>
</g>
</g>
<!-- Node1&#45;&gt;Node15 -->
<g id="edge27" class="edge">
<title>Node1&#45;&gt;Node15</title>
<path fill="none" stroke="#63b8ff" d="M328.12,-384.84C340.18,-375.91 355.71,-364.41 367.94,-355.35"/>
<polygon fill="#63b8ff" stroke="#63b8ff" points="370.21,-358.03 376.16,-349.27 366.04,-352.4 370.21,-358.03"/>
</g>
<!-- Node3 -->
<g id="node3" class="node">
<title>Node3</title>
<g id="a_node3"><a xlink:href="../../d9/de1/FMC__general_8h.html" target="_top" xlink:title=" ">
<polygon fill="white" stroke="#666666" points="382.5,-294 235.5,-294 235.5,-275 382.5,-275 382.5,-294"/>
<text text-anchor="middle" x="309" y="-282" font-family="Helvetica,sans-Serif" font-size="10.00">../../general/FMC_general.h</text>
</a>
</g>
</g>
<!-- Node2&#45;&gt;Node3 -->
<g id="edge2" class="edge">
<title>Node2&#45;&gt;Node3</title>
<path fill="none" stroke="#63b8ff" d="M243.53,-329.98C255.4,-321.92 273.46,-309.65 287.61,-300.03"/>
<polygon fill="#63b8ff" stroke="#63b8ff" points="289.94,-302.69 296.24,-294.17 286,-296.9 289.94,-302.69"/>
</g>
<!-- Node4 -->
<g id="node4" class="node">
<title>Node4</title>
<g id="a_node4"><a xlink:href="../../d0/d28/FMC__macros_8h.html" target="_top" xlink:title=" ">
<polygon fill="white" stroke="#666666" points="295.5,-129 140.5,-129 140.5,-110 295.5,-110 295.5,-129"/>
<text text-anchor="middle" x="218" y="-117" font-family="Helvetica,sans-Serif" font-size="10.00">preprocessor/FMC_macros.h</text>
</a>
</g>
</g>
<!-- Node3&#45;&gt;Node4 -->
<g id="edge3" class="edge">
<title>Node3&#45;&gt;Node4</title>
<path fill="none" stroke="#63b8ff" d="M382.81,-281.88C425.18,-277.68 477.44,-266.59 516,-239 545.29,-218.05 572.71,-192.11 549,-165 517.97,-129.52 392.88,-121.16 305.7,-119.78"/>
<polygon fill="#63b8ff" stroke="#63b8ff" points="305.57,-116.28 295.53,-119.65 305.48,-123.28 305.57,-116.28"/>
</g>
<!-- Node5 -->
<g id="node5" class="node">
<title>Node5</title>
<g id="a_node5"><a xlink:href="../../d7/dff/FMC__platform_8h.html" target="_top" xlink:title=" ">
<polygon fill="white" stroke="#666666" points="226.5,-19 131.5,-19 131.5,0 226.5,0 226.5,-19"/>
<text text-anchor="middle" x="179" y="-7" font-family="Helvetica,sans-Serif" font-size="10.00">FMC_platform.h</text>
</a>
</g>
</g>
<!-- Node3&#45;&gt;Node5 -->
<g id="edge8" class="edge">
<title>Node3&#45;&gt;Node5</title>
<path fill="none" stroke="#63b8ff" d="M235.28,-277.39C190.07,-271.61 131.87,-260.45 84,-239 41.29,-219.86 0,-222.3 0,-175.5 0,-175.5 0,-175.5 0,-118.5 0,-60.88 68.85,-33.19 121.15,-20.47"/>
<polygon fill="#63b8ff" stroke="#63b8ff" points="122.07,-23.85 131.03,-18.19 120.5,-17.02 122.07,-23.85"/>
</g>
<!-- Node7 -->
<g id="node7" class="node">
<title>Node7</title>
<g id="a_node7"><a xlink:href="../../da/dd3/FMC__consts_8h.html" target="_top" xlink:title=" ">
<polygon fill="white" stroke="#666666" points="540,-184 390,-184 390,-165 540,-165 540,-184"/>
<text text-anchor="middle" x="465" y="-172" font-family="Helvetica,sans-Serif" font-size="10.00">preprocessor/FMC_consts.h</text>
</a>
</g>
</g>
<!-- Node3&#45;&gt;Node7 -->
<g id="edge9" class="edge">
<title>Node3&#45;&gt;Node7</title>
<path fill="none" stroke="#63b8ff" d="M382.75,-275.76C430.04,-269.1 485.26,-257.57 500,-239 511.89,-224.03 497.35,-204.47 483.56,-191.04"/>
<polygon fill="#63b8ff" stroke="#63b8ff" points="485.89,-188.43 476.15,-184.27 481.18,-193.6 485.89,-188.43"/>
</g>
<!-- Node8 -->
<g id="node8" class="node">
<title>Node8</title>
<g id="a_node8"><a xlink:href="../../d5/de5/FMC__structs_8h.html" target="_top" xlink:title=" ">
<polygon fill="white" stroke="#666666" points="367,-239 251,-239 251,-220 367,-220 367,-239"/>
<text text-anchor="middle" x="309" y="-227" font-family="Helvetica,sans-Serif" font-size="10.00">types/FMC_structs.h</text>
</a>
</g>
</g>
<!-- Node3&#45;&gt;Node8 -->
<g id="edge10" class="edge">
<title>Node3&#45;&gt;Node8</title>
<path fill="none" stroke="#63b8ff" d="M309,-274.75C309,-267.8 309,-257.85 309,-249.13"/>
<polygon fill="#63b8ff" stroke="#63b8ff" points="312.5,-249.09 309,-239.09 305.5,-249.09 312.5,-249.09"/>
</g>
<!-- Node10 -->
<g id="node10" class="node">
<title>Node10</title>
<g id="a_node10"><a xlink:href="../../d6/d25/FMC__enums_8h.html" target="_top" xlink:title=" ">
<polygon fill="white" stroke="#666666" points="114,-184 28,-184 28,-165 114,-165 114,-184"/>
<text text-anchor="middle" x="71" y="-172" font-family="Helvetica,sans-Serif" font-size="10.00">FMC_enums.h</text>
</a>
</g>
</g>
<!-- Node3&#45;&gt;Node10 -->
<g id="edge20" class="edge">
<title>Node3&#45;&gt;Node10</title>
<path fill="none" stroke="#63b8ff" d="M240.46,-274.97C189.49,-267.47 125.23,-255.23 104,-239 89.53,-227.94 80.81,-208.72 76,-194.31"/>
<polygon fill="#63b8ff" stroke="#63b8ff" points="79.27,-193.03 73.05,-184.45 72.56,-195.03 79.27,-193.03"/>
</g>
<!-- Node11 -->
<g id="node11" class="node">
<title>Node11</title>
<g id="a_node11"><a xlink:href="../../df/df8/FMC__typedefs_8h.html" target="_top" xlink:title=" ">
<polygon fill="white" stroke="#666666" points="227.5,-184 132.5,-184 132.5,-165 227.5,-165 227.5,-184"/>
<text text-anchor="middle" x="180" y="-172" font-family="Helvetica,sans-Serif" font-size="10.00">FMC_typedefs.h</text>
</a>
</g>
</g>
<!-- Node3&#45;&gt;Node11 -->
<g id="edge19" class="edge">
<title>Node3&#45;&gt;Node11</title>
<path fill="none" stroke="#63b8ff" d="M235.32,-276.39C186.04,-269.93 127.49,-258.38 112,-239 96.44,-219.53 124.34,-200.47 148.96,-188.39"/>
<polygon fill="#63b8ff" stroke="#63b8ff" points="150.55,-191.51 158.14,-184.11 147.59,-185.16 150.55,-191.51"/>
</g>
<!-- Node12 -->
<g id="node12" class="node">
<title>Node12</title>
<g id="a_node12"><a xlink:href="../../d2/d5e/FMC__flags_8h.html" target="_top" xlink:title=" ">
<polygon fill="white" stroke="#666666" points="738,-239 596,-239 596,-220 738,-220 738,-239"/>
<text text-anchor="middle" x="667" y="-227" font-family="Helvetica,sans-Serif" font-size="10.00">preprocessor/FMC_flags.h</text>
</a>
</g>
</g>
<!-- Node3&#45;&gt;Node12 -->
<g id="edge18" class="edge">
<title>Node3&#45;&gt;Node12</title>
<path fill="none" stroke="#63b8ff" d="M366.52,-274.98C429.97,-265.59 531.98,-250.49 599.25,-240.53"/>
<polygon fill="#63b8ff" stroke="#63b8ff" points="599.95,-243.96 609.33,-239.04 598.92,-237.04 599.95,-243.96"/>
</g>
<!-- Node13 -->
<g id="node13" class="node">
<title>Node13</title>
<g id="a_node13"><a xlink:href="../../dd/ddf/FMC__errors_8h.html" target="_top" xlink:title=" ">
<polygon fill="white" stroke="#666666" points="490.5,-239 385.5,-239 385.5,-220 490.5,-220 490.5,-239"/>
<text text-anchor="middle" x="438" y="-227" font-family="Helvetica,sans-Serif" font-size="10.00">utils/FMC_errors.h</text>
</a>
</g>
</g>
<!-- Node3&#45;&gt;Node13 -->
<g id="edge21" class="edge">
<title>Node3&#45;&gt;Node13</title>
<path fill="none" stroke="#63b8ff" d="M329.73,-274.98C350.76,-266.34 383.55,-252.87 407.54,-243.02"/>
<polygon fill="#63b8ff" stroke="#63b8ff" points="408.98,-246.21 416.9,-239.17 406.32,-239.73 408.98,-246.21"/>
</g>
<!-- Node14 -->
<g id="node14" class="node">
<title>Node14</title>
<g id="a_node14"><a xlink:href="../../de/d86/FMC__globals_8h.html" target="_top" xlink:title=" ">
<polygon fill="white" stroke="#666666" points="233,-239 121,-239 121,-220 233,-220 233,-239"/>
<text text-anchor="middle" x="177" y="-227" font-family="Helvetica,sans-Serif" font-size="10.00">utils/FMC_globals.h</text>
</a>
</g>
</g>
<!-- Node3&#45;&gt;Node14 -->
<g id="edge25" class="edge">
<title>Node3&#45;&gt;Node14</title>
<path fill="none" stroke="#63b8ff" d="M287.79,-274.98C266.27,-266.34 232.72,-252.87 208.17,-243.02"/>
<polygon fill="#63b8ff" stroke="#63b8ff" points="209.18,-239.65 198.59,-239.17 206.57,-246.14 209.18,-239.65"/>
</g>
<!-- Node4&#45;&gt;Node5 -->
<g id="edge4" class="edge">
<title>Node4&#45;&gt;Node5</title>
<path fill="none" stroke="#63b8ff" d="M224.69,-109.96C233.62,-97.45 247.28,-73.62 238,-55 231.43,-41.82 218.9,-31.52 207.07,-24.16"/>
<polygon fill="#63b8ff" stroke="#63b8ff" points="208.68,-21.05 198.27,-19.1 205.2,-27.12 208.68,-21.05"/>
</g>
<!-- Node6 -->
<g id="node6" class="node">
<title>Node6</title>
<g id="a_node6"><a xlink:href="../../d1/d2e/FMC__attributes_8h.html" target="_top" xlink:title=" ">
<polygon fill="white" stroke="#666666" points="229,-74 129,-74 129,-55 229,-55 229,-74"/>
<text text-anchor="middle" x="179" y="-62" font-family="Helvetica,sans-Serif" font-size="10.00">FMC_attributes.h</text>
</a>
</g>
</g>
<!-- Node4&#45;&gt;Node6 -->
<g id="edge5" class="edge">
<title>Node4&#45;&gt;Node6</title>
<path fill="none" stroke="#63b8ff" d="M206.39,-109.75C199.42,-102.42 191.16,-91.73 185.29,-82.7"/>
<polygon fill="#63b8ff" stroke="#63b8ff" points="188.3,-80.91 180.19,-74.09 182.27,-84.48 188.3,-80.91"/>
</g>
<!-- Node6&#45;&gt;Node4 -->
<g id="edge7" class="edge">
<title>Node6&#45;&gt;Node4</title>
<path fill="none" stroke="#63b8ff" d="M190.45,-74.09C197.4,-81.37 205.67,-92.04 211.58,-101.1"/>
<polygon fill="#63b8ff" stroke="#63b8ff" points="208.6,-102.94 216.73,-109.75 214.62,-99.36 208.6,-102.94"/>
</g>
<!-- Node6&#45;&gt;Node5 -->
<g id="edge6" class="edge">
<title>Node6&#45;&gt;Node5</title>
<path fill="none" stroke="#63b8ff" d="M179,-54.75C179,-47.8 179,-37.85 179,-29.13"/>
<polygon fill="#63b8ff" stroke="#63b8ff" points="182.5,-29.09 179,-19.09 175.5,-29.09 182.5,-29.09"/>
</g>
<!-- Node8&#45;&gt;Node4 -->
<g id="edge13" class="edge">
<title>Node8&#45;&gt;Node4</title>
<path fill="none" stroke="#63b8ff" d="M301.55,-219.66C286.35,-201.61 251.52,-160.28 231.97,-137.08"/>
<polygon fill="#63b8ff" stroke="#63b8ff" points="234.42,-134.55 225.3,-129.16 229.06,-139.06 234.42,-134.55"/>
</g>
<!-- Node8&#45;&gt;Node7 -->
<g id="edge12" class="edge">
<title>Node8&#45;&gt;Node7</title>
<path fill="none" stroke="#63b8ff" d="M334.06,-219.98C360.03,-211.16 400.81,-197.31 429.96,-187.41"/>
<polygon fill="#63b8ff" stroke="#63b8ff" points="431.4,-190.61 439.74,-184.08 429.15,-183.99 431.4,-190.61"/>
</g>
<!-- Node9 -->
<g id="node9" class="node">
<title>Node9</title>
<g id="a_node9"><a xlink:title=" ">
<polygon fill="#e0e0e0" stroke="#999999" points="334,-184 284,-184 284,-165 334,-165 334,-184"/>
<text text-anchor="middle" x="309" y="-172" font-family="Helvetica,sans-Serif" font-size="10.00">stdio.h</text>
</a>
</g>
</g>
<!-- Node8&#45;&gt;Node9 -->
<g id="edge11" class="edge">
<title>Node8&#45;&gt;Node9</title>
<path fill="none" stroke="#63b8ff" d="M309,-219.75C309,-212.8 309,-202.85 309,-194.13"/>
<polygon fill="#63b8ff" stroke="#63b8ff" points="312.5,-194.09 309,-184.09 305.5,-194.09 312.5,-194.09"/>
</g>
<!-- Node8&#45;&gt;Node10 -->
<g id="edge14" class="edge">
<title>Node8&#45;&gt;Node10</title>
<path fill="none" stroke="#63b8ff" d="M270.76,-219.98C229.59,-210.82 164.01,-196.21 119.3,-186.26"/>
<polygon fill="#63b8ff" stroke="#63b8ff" points="120.06,-182.84 109.54,-184.08 118.54,-189.67 120.06,-182.84"/>
</g>
<!-- Node8&#45;&gt;Node11 -->
<g id="edge16" class="edge">
<title>Node8&#45;&gt;Node11</title>
<path fill="none" stroke="#63b8ff" d="M288.27,-219.98C267.24,-211.34 234.45,-197.87 210.46,-188.02"/>
<polygon fill="#63b8ff" stroke="#63b8ff" points="211.68,-184.73 201.1,-184.17 209.02,-191.21 211.68,-184.73"/>
</g>
<!-- Node10&#45;&gt;Node4 -->
<g id="edge15" class="edge">
<title>Node10&#45;&gt;Node4</title>
<path fill="none" stroke="#63b8ff" d="M94.62,-164.98C118.9,-156.23 156.95,-142.51 184.37,-132.62"/>
<polygon fill="#63b8ff" stroke="#63b8ff" points="185.73,-135.85 193.95,-129.17 183.36,-129.27 185.73,-135.85"/>
</g>
<!-- Node11&#45;&gt;Node4 -->
<g id="edge17" class="edge">
<title>Node11&#45;&gt;Node4</title>
<path fill="none" stroke="#63b8ff" d="M186.27,-164.75C191.59,-157.34 199.36,-146.5 205.88,-137.41"/>
<polygon fill="#63b8ff" stroke="#63b8ff" points="208.86,-139.26 211.84,-129.09 203.17,-135.18 208.86,-139.26"/>
</g>
<!-- Node13&#45;&gt;Node4 -->
<g id="edge24" class="edge">
<title>Node13&#45;&gt;Node4</title>
<path fill="none" stroke="#63b8ff" d="M427.14,-219.93C410.05,-206.74 375.44,-181.3 343,-165 315.77,-151.32 283.31,-139.9 258.29,-132.05"/>
<polygon fill="#63b8ff" stroke="#63b8ff" points="258.99,-128.6 248.41,-129.01 256.94,-135.3 258.99,-128.6"/>
</g>
<!-- Node13&#45;&gt;Node7 -->
<g id="edge23" class="edge">
<title>Node13&#45;&gt;Node7</title>
<path fill="none" stroke="#63b8ff" d="M442.46,-219.75C446.12,-212.57 451.41,-202.18 455.95,-193.27"/>
<polygon fill="#63b8ff" stroke="#63b8ff" points="459.2,-194.59 460.62,-184.09 452.97,-191.41 459.2,-194.59"/>
</g>
<!-- Node13&#45;&gt;Node9 -->
<g id="edge22" class="edge">
<title>Node13&#45;&gt;Node9</title>
<path fill="none" stroke="#63b8ff" d="M417.27,-219.98C396.24,-211.34 363.45,-197.87 339.46,-188.02"/>
<polygon fill="#63b8ff" stroke="#63b8ff" points="340.68,-184.73 330.1,-184.17 338.02,-191.21 340.68,-184.73"/>
</g>
<!-- Node14&#45;&gt;Node11 -->
<g id="edge26" class="edge">
<title>Node14&#45;&gt;Node11</title>
<path fill="none" stroke="#63b8ff" d="M177.5,-219.75C177.89,-212.8 178.45,-202.85 178.95,-194.13"/>
<polygon fill="#63b8ff" stroke="#63b8ff" points="182.44,-194.27 179.51,-184.09 175.45,-193.88 182.44,-194.27"/>
</g>
<!-- Node15&#45;&gt;Node3 -->
<g id="edge28" class="edge">
<title>Node15&#45;&gt;Node3</title>
<path fill="none" stroke="#63b8ff" d="M375.31,-329.98C363.17,-321.84 344.64,-309.41 330.25,-299.76"/>
<polygon fill="#63b8ff" stroke="#63b8ff" points="332.18,-296.84 321.92,-294.17 328.28,-302.65 332.18,-296.84"/>
</g>
</g>
</svg>
