<?xml version="1.0" encoding="UTF-8" standalone="no"?>
<!DOCTYPE svg PUBLIC "-//W3C//DTD SVG 1.1//EN"
 "http://www.w3.org/Graphics/SVG/1.1/DTD/svg11.dtd">
<!-- Generated by graphviz version 2.43.0 (0)
 -->
<!-- Title: src/data_analyze/FMC_data_analyze.h Pages: 1 -->
<svg width="732pt" height="368pt"
 viewBox="0.00 0.00 731.94 368.00" xmlns="http://www.w3.org/2000/svg" xmlns:xlink="http://www.w3.org/1999/xlink">
<g id="graph0" class="graph" transform="scale(1 1) rotate(0) translate(4 364)">
<title>src/data_analyze/FMC_data_analyze.h</title>
<!-- Node1 -->
<g id="node1" class="node">
<title>Node1</title>
<g id="a_node1"><a xlink:title=" ">
<polygon fill="#999999" stroke="#666666" points="356.94,-360 232.94,-360 232.94,-330 356.94,-330 356.94,-360"/>
<text text-anchor="start" x="240.94" y="-348" font-family="Helvetica,sans-Serif" font-size="10.00">src/data_analyze/FMC</text>
<text text-anchor="middle" x="294.94" y="-337" font-family="Helvetica,sans-Serif" font-size="10.00">_data_analyze.h</text>
</a>
</g>
</g>
<!-- Node2 -->
<g id="node2" class="node">
<title>Node2</title>
<g id="a_node2"><a xlink:href="../../db/d30/FMC__encodings_8h.html" target="_top" xlink:title=" ">
<polygon fill="white" stroke="#666666" points="294.44,-294 139.44,-294 139.44,-275 294.44,-275 294.44,-294"/>
<text text-anchor="middle" x="216.94" y="-282" font-family="Helvetica,sans-Serif" font-size="10.00">encodings/FMC_encodings.h</text>
</a>
</g>
</g>
<!-- Node1&#45;&gt;Node2 -->
<g id="edge1" class="edge">
<title>Node1&#45;&gt;Node2</title>
<path fill="none" stroke="#63b8ff" d="M276.06,-329.84C264.16,-320.91 248.82,-309.41 236.75,-300.35"/>
<polygon fill="#63b8ff" stroke="#63b8ff" points="238.73,-297.47 228.63,-294.27 234.53,-303.07 238.73,-297.47"/>
</g>
<!-- Node15 -->
<g id="node15" class="node">
<title>Node15</title>
<g id="a_node15"><a xlink:href="../../d9/db5/FMC__strings_8h.html" target="_top" xlink:title=" ">
<polygon fill="white" stroke="#666666" points="434.94,-294 312.94,-294 312.94,-275 434.94,-275 434.94,-294"/>
<text text-anchor="middle" x="373.94" y="-282" font-family="Helvetica,sans-Serif" font-size="10.00">strings/FMC_strings.h</text>
</a>
</g>
</g>
<!-- Node1&#45;&gt;Node15 -->
<g id="edge26" class="edge">
<title>Node1&#45;&gt;Node15</title>
<path fill="none" stroke="#63b8ff" d="M314.07,-329.84C326.12,-320.91 341.66,-309.41 353.89,-300.35"/>
<polygon fill="#63b8ff" stroke="#63b8ff" points="356.15,-303.03 362.11,-294.27 351.99,-297.4 356.15,-303.03"/>
</g>
<!-- Node3 -->
<g id="node3" class="node">
<title>Node3</title>
<g id="a_node3"><a xlink:href="../../d9/de1/FMC__general_8h.html" target="_top" xlink:title=" ">
<polygon fill="white" stroke="#666666" points="368.44,-239 221.44,-239 221.44,-220 368.44,-220 368.44,-239"/>
<text text-anchor="middle" x="294.94" y="-227" font-family="Helvetica,sans-Serif" font-size="10.00">../../general/FMC_general.h</text>
</a>
</g>
</g>
<!-- Node2&#45;&gt;Node3 -->
<g id="edge2" class="edge">
<title>Node2&#45;&gt;Node3</title>
<path fill="none" stroke="#63b8ff" d="M229.48,-274.98C241.35,-266.92 259.41,-254.65 273.56,-245.03"/>
<polygon fill="#63b8ff" stroke="#63b8ff" points="275.88,-247.69 282.18,-239.17 271.95,-241.9 275.88,-247.69"/>
</g>
<!-- Node4 -->
<g id="node4" class="node">
<title>Node4</title>
<g id="a_node4"><a xlink:href="../../d0/d28/FMC__macros_8h.html" target="_top" xlink:title=" ">
<polygon fill="white" stroke="#666666" points="281.44,-74 126.44,-74 126.44,-55 281.44,-55 281.44,-74"/>
<text text-anchor="middle" x="203.94" y="-62" font-family="Helvetica,sans-Serif" font-size="10.00">preprocessor/FMC_macros.h</text>
</a>
</g>
</g>
<!-- Node3&#45;&gt;Node4 -->
<g id="edge3" class="edge">
<title>Node3&#45;&gt;Node4</title>
<path fill="none" stroke="#63b8ff" d="M368.76,-226.88C411.12,-222.68 463.38,-211.59 501.94,-184 531.23,-163.05 558.65,-137.11 534.94,-110 503.92,-74.52 378.82,-66.16 291.64,-64.78"/>
<polygon fill="#63b8ff" stroke="#63b8ff" points="291.51,-61.28 281.47,-64.65 291.42,-68.28 291.51,-61.28"/>
</g>
<!-- Node5 -->
<g id="node5" class="node">
<title>Node5</title>
<g id="a_node5"><a xlink:href="../../d7/dff/FMC__platform_8h.html" target="_top" xlink:title=" ">
<polygon fill="white" stroke="#666666" points="103.44,-19 8.44,-19 8.44,0 103.44,0 103.44,-19"/>
<text text-anchor="middle" x="55.94" y="-7" font-family="Helvetica,sans-Serif" font-size="10.00">FMC_platform.h</text>
</a>
</g>
</g>
<!-- Node3&#45;&gt;Node5 -->
<g id="edge7" class="edge">
<title>Node3&#45;&gt;Node5</title>
<path fill="none" stroke="#63b8ff" d="M221.31,-223.37C175.86,-217.96 117.39,-206.85 69.94,-184 35.85,-167.58 20.87,-163.33 4.94,-129 -11.84,-92.81 19.42,-49.61 40,-26.68"/>
<polygon fill="#63b8ff" stroke="#63b8ff" points="42.72,-28.89 46.98,-19.2 37.6,-24.12 42.72,-28.89"/>
</g>
<!-- Node7 -->
<g id="node7" class="node">
<title>Node7</title>
<g id="a_node7"><a xlink:href="../../da/dd3/FMC__consts_8h.html" target="_top" xlink:title=" ">
<polygon fill="white" stroke="#666666" points="525.94,-129 375.94,-129 375.94,-110 525.94,-110 525.94,-129"/>
<text text-anchor="middle" x="450.94" y="-117" font-family="Helvetica,sans-Serif" font-size="10.00">preprocessor/FMC_consts.h</text>
</a>
</g>
</g>
<!-- Node3&#45;&gt;Node7 -->
<g id="edge8" class="edge">
<title>Node3&#45;&gt;Node7</title>
<path fill="none" stroke="#63b8ff" d="M368.69,-220.76C415.99,-214.1 471.21,-202.57 485.94,-184 497.83,-169.03 483.29,-149.47 469.5,-136.04"/>
<polygon fill="#63b8ff" stroke="#63b8ff" points="471.84,-133.43 462.09,-129.27 467.12,-138.6 471.84,-133.43"/>
</g>
<!-- Node8 -->
<g id="node8" class="node">
<title>Node8</title>
<g id="a_node8"><a xlink:href="../../d5/de5/FMC__structs_8h.html" target="_top" xlink:title=" ">
<polygon fill="white" stroke="#666666" points="352.94,-184 236.94,-184 236.94,-165 352.94,-165 352.94,-184"/>
<text text-anchor="middle" x="294.94" y="-172" font-family="Helvetica,sans-Serif" font-size="10.00">types/FMC_structs.h</text>
</a>
</g>
</g>
<!-- Node3&#45;&gt;Node8 -->
<g id="edge9" class="edge">
<title>Node3&#45;&gt;Node8</title>
<path fill="none" stroke="#63b8ff" d="M294.94,-219.75C294.94,-212.8 294.94,-202.85 294.94,-194.13"/>
<polygon fill="#63b8ff" stroke="#63b8ff" points="298.44,-194.09 294.94,-184.09 291.44,-194.09 298.44,-194.09"/>
</g>
<!-- Node10 -->
<g id="node10" class="node">
<title>Node10</title>
<g id="a_node10"><a xlink:href="../../d6/d25/FMC__enums_8h.html" target="_top" xlink:title=" ">
<polygon fill="white" stroke="#666666" points="99.94,-129 13.94,-129 13.94,-110 99.94,-110 99.94,-129"/>
<text text-anchor="middle" x="56.94" y="-117" font-family="Helvetica,sans-Serif" font-size="10.00">FMC_enums.h</text>
</a>
</g>
</g>
<!-- Node3&#45;&gt;Node10 -->
<g id="edge19" class="edge">
<title>Node3&#45;&gt;Node10</title>
<path fill="none" stroke="#63b8ff" d="M226.4,-219.97C175.43,-212.47 111.17,-200.23 89.94,-184 75.47,-172.94 66.75,-153.72 61.94,-139.31"/>
<polygon fill="#63b8ff" stroke="#63b8ff" points="65.21,-138.03 59,-129.45 58.5,-140.03 65.21,-138.03"/>
</g>
<!-- Node11 -->
<g id="node11" class="node">
<title>Node11</title>
<g id="a_node11"><a xlink:href="../../df/df8/FMC__typedefs_8h.html" target="_top" xlink:title=" ">
<polygon fill="white" stroke="#666666" points="213.44,-129 118.44,-129 118.44,-110 213.44,-110 213.44,-129"/>
<text text-anchor="middle" x="165.94" y="-117" font-family="Helvetica,sans-Serif" font-size="10.00">FMC_typedefs.h</text>
</a>
</g>
</g>
<!-- Node3&#45;&gt;Node11 -->
<g id="edge18" class="edge">
<title>Node3&#45;&gt;Node11</title>
<path fill="none" stroke="#63b8ff" d="M221.26,-221.39C171.99,-214.93 113.43,-203.38 97.94,-184 82.38,-164.53 110.28,-145.47 134.9,-133.39"/>
<polygon fill="#63b8ff" stroke="#63b8ff" points="136.49,-136.51 144.08,-129.11 133.54,-130.16 136.49,-136.51"/>
</g>
<!-- Node12 -->
<g id="node12" class="node">
<title>Node12</title>
<g id="a_node12"><a xlink:href="../../d2/d5e/FMC__flags_8h.html" target="_top" xlink:title=" ">
<polygon fill="white" stroke="#666666" points="723.94,-184 581.94,-184 581.94,-165 723.94,-165 723.94,-184"/>
<text text-anchor="middle" x="652.94" y="-172" font-family="Helvetica,sans-Serif" font-size="10.00">preprocessor/FMC_flags.h</text>
</a>
</g>
</g>
<!-- Node3&#45;&gt;Node12 -->
<g id="edge17" class="edge">
<title>Node3&#45;&gt;Node12</title>
<path fill="none" stroke="#63b8ff" d="M352.46,-219.98C415.91,-210.59 517.92,-195.49 585.2,-185.53"/>
<polygon fill="#63b8ff" stroke="#63b8ff" points="585.89,-188.96 595.27,-184.04 584.87,-182.04 585.89,-188.96"/>
</g>
<!-- Node13 -->
<g id="node13" class="node">
<title>Node13</title>
<g id="a_node13"><a xlink:href="../../dd/ddf/FMC__errors_8h.html" target="_top" xlink:title=" ">
<polygon fill="white" stroke="#666666" points="476.44,-184 371.44,-184 371.44,-165 476.44,-165 476.44,-184"/>
<text text-anchor="middle" x="423.94" y="-172" font-family="Helvetica,sans-Serif" font-size="10.00">utils/FMC_errors.h</text>
</a>
</g>
</g>
<!-- Node3&#45;&gt;Node13 -->
<g id="edge20" class="edge">
<title>Node3&#45;&gt;Node13</title>
<path fill="none" stroke="#63b8ff" d="M315.67,-219.98C336.7,-211.34 369.49,-197.87 393.48,-188.02"/>
<polygon fill="#63b8ff" stroke="#63b8ff" points="394.92,-191.21 402.84,-184.17 392.26,-184.73 394.92,-191.21"/>
</g>
<!-- Node14 -->
<g id="node14" class="node">
<title>Node14</title>
<g id="a_node14"><a xlink:href="../../de/d86/FMC__globals_8h.html" target="_top" xlink:title=" ">
<polygon fill="white" stroke="#666666" points="218.94,-184 106.94,-184 106.94,-165 218.94,-165 218.94,-184"/>
<text text-anchor="middle" x="162.94" y="-172" font-family="Helvetica,sans-Serif" font-size="10.00">utils/FMC_globals.h</text>
</a>
</g>
</g>
<!-- Node3&#45;&gt;Node14 -->
<g id="edge24" class="edge">
<title>Node3&#45;&gt;Node14</title>
<path fill="none" stroke="#63b8ff" d="M273.74,-219.98C252.21,-211.34 218.66,-197.87 194.12,-188.02"/>
<polygon fill="#63b8ff" stroke="#63b8ff" points="195.12,-184.65 184.54,-184.17 192.51,-191.14 195.12,-184.65"/>
</g>
<!-- Node4&#45;&gt;Node5 -->
<g id="edge4" class="edge">
<title>Node4&#45;&gt;Node5</title>
<path fill="none" stroke="#63b8ff" d="M180.17,-54.98C155.71,-46.23 117.41,-32.51 89.8,-22.62"/>
<polygon fill="#63b8ff" stroke="#63b8ff" points="90.75,-19.25 80.16,-19.17 88.39,-25.84 90.75,-19.25"/>
</g>
<!-- Node6 -->
<g id="node6" class="node">
<title>Node6</title>
<g id="a_node6"><a xlink:href="../../d1/d2e/FMC__attributes_8h.html" target="_top" xlink:title=" ">
<polygon fill="white" stroke="#666666" points="253.94,-19 153.94,-19 153.94,0 253.94,0 253.94,-19"/>
<text text-anchor="middle" x="203.94" y="-7" font-family="Helvetica,sans-Serif" font-size="10.00">FMC_attributes.h</text>
</a>
</g>
</g>
<!-- Node4&#45;&gt;Node6 -->
<g id="edge5" class="edge">
<title>Node4&#45;&gt;Node6</title>
<path fill="none" stroke="#63b8ff" d="M198.78,-54.75C197.28,-47.8 196.85,-37.85 197.47,-29.13"/>
<polygon fill="#63b8ff" stroke="#63b8ff" points="200.95,-29.47 198.81,-19.09 194.01,-28.53 200.95,-29.47"/>
</g>
<!-- Node6&#45;&gt;Node4 -->
<g id="edge6" class="edge">
<title>Node6&#45;&gt;Node4</title>
<path fill="none" stroke="#63b8ff" d="M209.07,-19.09C210.58,-25.99 211.04,-35.93 210.44,-44.66"/>
<polygon fill="#63b8ff" stroke="#63b8ff" points="206.94,-44.38 209.11,-54.75 213.88,-45.29 206.94,-44.38"/>
</g>
<!-- Node8&#45;&gt;Node4 -->
<g id="edge12" class="edge">
<title>Node8&#45;&gt;Node4</title>
<path fill="none" stroke="#63b8ff" d="M287.5,-164.66C272.29,-146.61 237.46,-105.28 217.91,-82.08"/>
<polygon fill="#63b8ff" stroke="#63b8ff" points="220.36,-79.55 211.24,-74.16 215.01,-84.06 220.36,-79.55"/>
</g>
<!-- Node8&#45;&gt;Node7 -->
<g id="edge11" class="edge">
<title>Node8&#45;&gt;Node7</title>
<path fill="none" stroke="#63b8ff" d="M320.01,-164.98C345.97,-156.16 386.75,-142.31 415.9,-132.41"/>
<polygon fill="#63b8ff" stroke="#63b8ff" points="417.34,-135.61 425.68,-129.08 415.09,-128.99 417.34,-135.61"/>
</g>
<!-- Node9 -->
<g id="node9" class="node">
<title>Node9</title>
<g id="a_node9"><a xlink:title=" ">
<polygon fill="#e0e0e0" stroke="#999999" points="319.94,-129 269.94,-129 269.94,-110 319.94,-110 319.94,-129"/>
<text text-anchor="middle" x="294.94" y="-117" font-family="Helvetica,sans-Serif" font-size="10.00">stdio.h</text>
</a>
</g>
</g>
<!-- Node8&#45;&gt;Node9 -->
<g id="edge10" class="edge">
<title>Node8&#45;&gt;Node9</title>
<path fill="none" stroke="#63b8ff" d="M294.94,-164.75C294.94,-157.8 294.94,-147.85 294.94,-139.13"/>
<polygon fill="#63b8ff" stroke="#63b8ff" points="298.44,-139.09 294.94,-129.09 291.44,-139.09 298.44,-139.09"/>
</g>
<!-- Node8&#45;&gt;Node10 -->
<g id="edge13" class="edge">
<title>Node8&#45;&gt;Node10</title>
<path fill="none" stroke="#63b8ff" d="M256.7,-164.98C215.54,-155.82 149.95,-141.21 105.25,-131.26"/>
<polygon fill="#63b8ff" stroke="#63b8ff" points="106,-127.84 95.48,-129.08 104.48,-134.67 106,-127.84"/>
</g>
<!-- Node8&#45;&gt;Node11 -->
<g id="edge15" class="edge">
<title>Node8&#45;&gt;Node11</title>
<path fill="none" stroke="#63b8ff" d="M274.22,-164.98C253.19,-156.34 220.39,-142.87 196.41,-133.02"/>
<polygon fill="#63b8ff" stroke="#63b8ff" points="197.63,-129.73 187.05,-129.17 194.97,-136.21 197.63,-129.73"/>
</g>
<!-- Node10&#45;&gt;Node4 -->
<g id="edge14" class="edge">
<title>Node10&#45;&gt;Node4</title>
<path fill="none" stroke="#63b8ff" d="M80.56,-109.98C104.85,-101.23 142.89,-87.51 170.32,-77.62"/>
<polygon fill="#63b8ff" stroke="#63b8ff" points="171.68,-80.85 179.9,-74.17 169.3,-74.27 171.68,-80.85"/>
</g>
<!-- Node11&#45;&gt;Node4 -->
<g id="edge16" class="edge">
<title>Node11&#45;&gt;Node4</title>
<path fill="none" stroke="#63b8ff" d="M172.22,-109.75C177.53,-102.34 185.3,-91.5 191.82,-82.41"/>
<polygon fill="#63b8ff" stroke="#63b8ff" points="194.8,-84.26 197.79,-74.09 189.11,-80.18 194.8,-84.26"/>
</g>
<!-- Node13&#45;&gt;Node4 -->
<g id="edge23" class="edge">
<title>Node13&#45;&gt;Node4</title>
<path fill="none" stroke="#63b8ff" d="M413.09,-164.93C395.99,-151.74 361.38,-126.3 328.94,-110 301.72,-96.32 269.25,-84.9 244.23,-77.05"/>
<polygon fill="#63b8ff" stroke="#63b8ff" points="244.94,-73.6 234.35,-74.01 242.88,-80.3 244.94,-73.6"/>
</g>
<!-- Node13&#45;&gt;Node7 -->
<g id="edge22" class="edge">
<title>Node13&#45;&gt;Node7</title>
<path fill="none" stroke="#63b8ff" d="M428.4,-164.75C432.06,-157.57 437.35,-147.18 441.89,-138.27"/>
<polygon fill="#63b8ff" stroke="#63b8ff" points="445.15,-139.59 446.57,-129.09 438.91,-136.41 445.15,-139.59"/>
</g>
<!-- Node13&#45;&gt;Node9 -->
<g id="edge21" class="edge">
<title>Node13&#45;&gt;Node9</title>
<path fill="none" stroke="#63b8ff" d="M403.22,-164.98C382.19,-156.34 349.39,-142.87 325.41,-133.02"/>
<polygon fill="#63b8ff" stroke="#63b8ff" points="326.63,-129.73 316.05,-129.17 323.97,-136.21 326.63,-129.73"/>
</g>
<!-- Node14&#45;&gt;Node11 -->
<g id="edge25" class="edge">
<title>Node14&#45;&gt;Node11</title>
<path fill="none" stroke="#63b8ff" d="M163.44,-164.75C163.83,-157.8 164.4,-147.85 164.89,-139.13"/>
<polygon fill="#63b8ff" stroke="#63b8ff" points="168.39,-139.27 165.46,-129.09 161.4,-138.88 168.39,-139.27"/>
</g>
<!-- Node15&#45;&gt;Node3 -->
<g id="edge27" class="edge">
<title>Node15&#45;&gt;Node3</title>
<path fill="none" stroke="#63b8ff" d="M361.25,-274.98C349.11,-266.84 330.59,-254.41 316.2,-244.76"/>
<polygon fill="#63b8ff" stroke="#63b8ff" points="318.12,-241.84 307.87,-239.17 314.22,-247.65 318.12,-241.84"/>
</g>
</g>
</svg>
