<?xml version="1.0" encoding="UTF-8" standalone="no"?>
<!DOCTYPE svg PUBLIC "-//W3C//DTD SVG 1.1//EN"
 "http://www.w3.org/Graphics/SVG/1.1/DTD/svg11.dtd">
<!-- Generated by graphviz version 2.43.0 (0)
 -->
<!-- Title: src/cpp/FMC_dir/FMC_dir_wrapper.cpp Pages: 1 -->
<svg width="394pt" height="214pt"
 viewBox="0.00 0.00 393.50 214.00" xmlns="http://www.w3.org/2000/svg" xmlns:xlink="http://www.w3.org/1999/xlink">
<g id="graph0" class="graph" transform="scale(1 1) rotate(0) translate(4 210)">
<title>src/cpp/FMC_dir/FMC_dir_wrapper.cpp</title>
<!-- Node1 -->
<g id="node1" class="node">
<title>Node1</title>
<g id="a_node1"><a xlink:title=" ">
<polygon fill="#999999" stroke="#666666" points="332,-206 213,-206 213,-176 332,-176 332,-206"/>
<text text-anchor="start" x="221" y="-194" font-family="Helvetica,sans-Serif" font-size="10.00">src/cpp/FMC_dir/FMC</text>
<text text-anchor="middle" x="272.5" y="-183" font-family="Helvetica,sans-Serif" font-size="10.00">_dir_wrapper.cpp</text>
</a>
</g>
</g>
<!-- Node2 -->
<g id="node2" class="node">
<title>Node2</title>
<g id="a_node2"><a xlink:href="../../d4/db9/FMC__wrapper_8h.html" target="_top" xlink:title=" ">
<polygon fill="white" stroke="#666666" points="216,-140 115,-140 115,-121 216,-121 216,-140"/>
<text text-anchor="middle" x="165.5" y="-128" font-family="Helvetica,sans-Serif" font-size="10.00">../FMC_wrapper.h</text>
</a>
</g>
</g>
<!-- Node1&#45;&gt;Node2 -->
<g id="edge1" class="edge">
<title>Node1&#45;&gt;Node2</title>
<path fill="none" stroke="#63b8ff" d="M246.87,-175.99C229.66,-166.58 207.1,-154.24 190.1,-144.95"/>
<polygon fill="#63b8ff" stroke="#63b8ff" points="191.75,-141.87 181.3,-140.14 188.4,-148.01 191.75,-141.87"/>
</g>
<!-- Node7 -->
<g id="node7" class="node">
<title>Node7</title>
<g id="a_node7"><a xlink:href="../../d8/d5e/FMC__dir_8hpp.html" target="_top" xlink:title=" ">
<polygon fill="white" stroke="#666666" points="311,-140 234,-140 234,-121 311,-121 311,-140"/>
<text text-anchor="middle" x="272.5" y="-128" font-family="Helvetica,sans-Serif" font-size="10.00">FMC_dir.hpp</text>
</a>
</g>
</g>
<!-- Node1&#45;&gt;Node7 -->
<g id="edge7" class="edge">
<title>Node1&#45;&gt;Node7</title>
<path fill="none" stroke="#63b8ff" d="M272.5,-175.84C272.5,-168.21 272.5,-158.7 272.5,-150.45"/>
<polygon fill="#63b8ff" stroke="#63b8ff" points="276,-150.27 272.5,-140.27 269,-150.27 276,-150.27"/>
</g>
<!-- Node8 -->
<g id="node8" class="node">
<title>Node8</title>
<g id="a_node8"><a xlink:title=" ">
<polygon fill="#e0e0e0" stroke="#999999" points="385.5,-140 329.5,-140 329.5,-121 385.5,-121 385.5,-140"/>
<text text-anchor="middle" x="357.5" y="-128" font-family="Helvetica,sans-Serif" font-size="10.00">stddef.h</text>
</a>
</g>
</g>
<!-- Node1&#45;&gt;Node8 -->
<g id="edge9" class="edge">
<title>Node1&#45;&gt;Node8</title>
<path fill="none" stroke="#63b8ff" d="M293.08,-175.84C306.17,-166.83 323.09,-155.18 336.3,-146.09"/>
<polygon fill="#63b8ff" stroke="#63b8ff" points="338.51,-148.82 344.76,-140.27 334.54,-143.05 338.51,-148.82"/>
</g>
<!-- Node3 -->
<g id="node3" class="node">
<title>Node3</title>
<g id="a_node3"><a xlink:href="../../d0/d28/FMC__macros_8h.html" target="_top" xlink:title=" ">
<polygon fill="white" stroke="#666666" points="227.5,-85 99.5,-85 99.5,-55 227.5,-55 227.5,-85"/>
<text text-anchor="start" x="107.5" y="-73" font-family="Helvetica,sans-Serif" font-size="10.00">../general/preprocessor</text>
<text text-anchor="middle" x="163.5" y="-62" font-family="Helvetica,sans-Serif" font-size="10.00">/FMC_macros.h</text>
</a>
</g>
</g>
<!-- Node2&#45;&gt;Node3 -->
<g id="edge2" class="edge">
<title>Node2&#45;&gt;Node3</title>
<path fill="none" stroke="#63b8ff" d="M165.2,-120.87C164.97,-114.11 164.64,-104.35 164.33,-95.26"/>
<polygon fill="#63b8ff" stroke="#63b8ff" points="167.82,-94.99 163.98,-85.11 160.83,-95.23 167.82,-94.99"/>
</g>
<!-- Node6 -->
<g id="node6" class="node">
<title>Node6</title>
<g id="a_node6"><a xlink:title=" ">
<polygon fill="#e0e0e0" stroke="#999999" points="299,-79.5 246,-79.5 246,-60.5 299,-60.5 299,-79.5"/>
<text text-anchor="middle" x="272.5" y="-67.5" font-family="Helvetica,sans-Serif" font-size="10.00">cstddef</text>
</a>
</g>
</g>
<!-- Node2&#45;&gt;Node6 -->
<g id="edge6" class="edge">
<title>Node2&#45;&gt;Node6</title>
<path fill="none" stroke="#63b8ff" d="M181.29,-120.87C198.83,-111.28 227.38,-95.67 247.87,-84.47"/>
<polygon fill="#63b8ff" stroke="#63b8ff" points="249.55,-87.54 256.65,-79.67 246.19,-81.39 249.55,-87.54"/>
</g>
<!-- Node4 -->
<g id="node4" class="node">
<title>Node4</title>
<g id="a_node4"><a xlink:href="../../d7/dff/FMC__platform_8h.html" target="_top" xlink:title=" ">
<polygon fill="white" stroke="#666666" points="95,-19 0,-19 0,0 95,0 95,-19"/>
<text text-anchor="middle" x="47.5" y="-7" font-family="Helvetica,sans-Serif" font-size="10.00">FMC_platform.h</text>
</a>
</g>
</g>
<!-- Node3&#45;&gt;Node4 -->
<g id="edge3" class="edge">
<title>Node3&#45;&gt;Node4</title>
<path fill="none" stroke="#63b8ff" d="M135.72,-54.99C116.88,-45.49 92.15,-33.02 73.66,-23.69"/>
<polygon fill="#63b8ff" stroke="#63b8ff" points="75.14,-20.52 64.63,-19.14 71.98,-26.77 75.14,-20.52"/>
</g>
<!-- Node5 -->
<g id="node5" class="node">
<title>Node5</title>
<g id="a_node5"><a xlink:href="../../d1/d2e/FMC__attributes_8h.html" target="_top" xlink:title=" ">
<polygon fill="white" stroke="#666666" points="213.5,-19 113.5,-19 113.5,0 213.5,0 213.5,-19"/>
<text text-anchor="middle" x="163.5" y="-7" font-family="Helvetica,sans-Serif" font-size="10.00">FMC_attributes.h</text>
</a>
</g>
</g>
<!-- Node3&#45;&gt;Node5 -->
<g id="edge4" class="edge">
<title>Node3&#45;&gt;Node5</title>
<path fill="none" stroke="#63b8ff" d="M157.62,-54.84C156.65,-47.21 156.49,-37.7 157.14,-29.45"/>
<polygon fill="#63b8ff" stroke="#63b8ff" points="160.64,-29.65 158.52,-19.27 153.71,-28.71 160.64,-29.65"/>
</g>
<!-- Node5&#45;&gt;Node3 -->
<g id="edge5" class="edge">
<title>Node5&#45;&gt;Node3</title>
<path fill="none" stroke="#63b8ff" d="M168.48,-19.27C169.92,-26.03 170.48,-35.72 170.16,-44.75"/>
<polygon fill="#63b8ff" stroke="#63b8ff" points="166.66,-44.6 169.38,-54.84 173.64,-45.14 166.66,-44.6"/>
</g>
<!-- Node7&#45;&gt;Node6 -->
<g id="edge8" class="edge">
<title>Node7&#45;&gt;Node6</title>
<path fill="none" stroke="#63b8ff" d="M272.5,-120.87C272.5,-112.75 272.5,-100.31 272.5,-89.89"/>
<polygon fill="#63b8ff" stroke="#63b8ff" points="276,-89.67 272.5,-79.67 269,-89.67 276,-89.67"/>
</g>
</g>
</svg>
