<?xml version="1.0" encoding="UTF-8" standalone="no"?>
<!DOCTYPE svg PUBLIC "-//W3C//DTD SVG 1.1//EN"
 "http://www.w3.org/Graphics/SVG/1.1/DTD/svg11.dtd">
<!-- Generated by graphviz version 2.43.0 (0)
 -->
<!-- Title: src/cpp/FMC_dir/FMC_dir_wrapper.cpp Pages: 1 -->
<svg width="391pt" height="214pt"
 viewBox="0.00 0.00 391.00 214.00" xmlns="http://www.w3.org/2000/svg" xmlns:xlink="http://www.w3.org/1999/xlink">
<g id="graph0" class="graph" transform="scale(1 1) rotate(0) translate(4 210)">
<title>src/cpp/FMC_dir/FMC_dir_wrapper.cpp</title>
<!-- Node1 -->
<g id="node1" class="node">
<title>Node1</title>
<g id="a_node1"><a xlink:title=" ">
<polygon fill="#999999" stroke="#666666" points="334,-206 215,-206 215,-176 334,-176 334,-206"/>
<text text-anchor="start" x="223" y="-194" font-family="Helvetica,sans-Serif" font-size="10.00">src/cpp/FMC_dir/FMC</text>
<text text-anchor="middle" x="274.5" y="-183" font-family="Helvetica,sans-Serif" font-size="10.00">_dir_wrapper.cpp</text>
</a>
</g>
</g>
<!-- Node2 -->
<g id="node2" class="node">
<title>Node2</title>
<g id="a_node2"><a xlink:href="../../d4/db9/FMC__wrapper_8h.html" target="_top" xlink:title=" ">
<polygon fill="white" stroke="#666666" points="246,-140 145,-140 145,-121 246,-121 246,-140"/>
<text text-anchor="middle" x="195.5" y="-128" font-family="Helvetica,sans-Serif" font-size="10.00">../FMC_wrapper.h</text>
</a>
</g>
</g>
<!-- Node1&#45;&gt;Node2 -->
<g id="edge1" class="edge">
<title>Node1&#45;&gt;Node2</title>
<path fill="none" stroke="#63b8ff" d="M255.38,-175.84C243.32,-166.91 227.79,-155.41 215.56,-146.35"/>
<polygon fill="#63b8ff" stroke="#63b8ff" points="217.46,-143.4 207.34,-140.27 213.29,-149.03 217.46,-143.4"/>
</g>
<!-- Node6 -->
<g id="node6" class="node">
<title>Node6</title>
<g id="a_node6"><a xlink:title=" ">
<polygon fill="#e0e0e0" stroke="#999999" points="301.5,-79.5 245.5,-79.5 245.5,-60.5 301.5,-60.5 301.5,-79.5"/>
<text text-anchor="middle" x="273.5" y="-67.5" font-family="Helvetica,sans-Serif" font-size="10.00">stddef.h</text>
</a>
</g>
</g>
<!-- Node1&#45;&gt;Node6 -->
<g id="edge9" class="edge">
<title>Node1&#45;&gt;Node6</title>
<path fill="none" stroke="#63b8ff" d="M274.38,-175.88C274.2,-154.51 273.86,-113.89 273.66,-89.96"/>
<polygon fill="#63b8ff" stroke="#63b8ff" points="277.16,-89.68 273.57,-79.71 270.16,-89.74 277.16,-89.68"/>
</g>
<!-- Node7 -->
<g id="node7" class="node">
<title>Node7</title>
<g id="a_node7"><a xlink:href="../../d8/d5e/FMC__dir_8hpp.html" target="_top" xlink:title=" ">
<polygon fill="white" stroke="#666666" points="383,-140 306,-140 306,-121 383,-121 383,-140"/>
<text text-anchor="middle" x="344.5" y="-128" font-family="Helvetica,sans-Serif" font-size="10.00">FMC_dir.hpp</text>
</a>
</g>
</g>
<!-- Node1&#45;&gt;Node7 -->
<g id="edge7" class="edge">
<title>Node1&#45;&gt;Node7</title>
<path fill="none" stroke="#63b8ff" d="M291.45,-175.84C301.92,-167.09 315.36,-155.85 326.09,-146.88"/>
<polygon fill="#63b8ff" stroke="#63b8ff" points="328.58,-149.36 334.01,-140.27 324.09,-143.99 328.58,-149.36"/>
</g>
<!-- Node3 -->
<g id="node3" class="node">
<title>Node3</title>
<g id="a_node3"><a xlink:href="../../d0/d28/FMC__macros_8h.html" target="_top" xlink:title=" ">
<polygon fill="white" stroke="#666666" points="227.5,-85 99.5,-85 99.5,-55 227.5,-55 227.5,-85"/>
<text text-anchor="start" x="107.5" y="-73" font-family="Helvetica,sans-Serif" font-size="10.00">../general/preprocessor</text>
<text text-anchor="middle" x="163.5" y="-62" font-family="Helvetica,sans-Serif" font-size="10.00">/FMC_macros.h</text>
</a>
</g>
</g>
<!-- Node2&#45;&gt;Node3 -->
<g id="edge2" class="edge">
<title>Node2&#45;&gt;Node3</title>
<path fill="none" stroke="#63b8ff" d="M190.78,-120.87C186.92,-113.81 181.28,-103.5 176.13,-94.08"/>
<polygon fill="#63b8ff" stroke="#63b8ff" points="179.09,-92.21 171.22,-85.11 172.95,-95.57 179.09,-92.21"/>
</g>
<!-- Node2&#45;&gt;Node6 -->
<g id="edge6" class="edge">
<title>Node2&#45;&gt;Node6</title>
<path fill="none" stroke="#63b8ff" d="M207.01,-120.87C219.34,-111.62 239.12,-96.78 253.91,-85.69"/>
<polygon fill="#63b8ff" stroke="#63b8ff" points="256.04,-88.47 261.94,-79.67 251.84,-82.87 256.04,-88.47"/>
</g>
<!-- Node4 -->
<g id="node4" class="node">
<title>Node4</title>
<g id="a_node4"><a xlink:href="../../d7/dff/FMC__platform_8h.html" target="_top" xlink:title=" ">
<polygon fill="white" stroke="#666666" points="95,-19 0,-19 0,0 95,0 95,-19"/>
<text text-anchor="middle" x="47.5" y="-7" font-family="Helvetica,sans-Serif" font-size="10.00">FMC_platform.h</text>
</a>
</g>
</g>
<!-- Node3&#45;&gt;Node4 -->
<g id="edge3" class="edge">
<title>Node3&#45;&gt;Node4</title>
<path fill="none" stroke="#63b8ff" d="M135.72,-54.99C116.88,-45.49 92.15,-33.02 73.66,-23.69"/>
<polygon fill="#63b8ff" stroke="#63b8ff" points="75.14,-20.52 64.63,-19.14 71.98,-26.77 75.14,-20.52"/>
</g>
<!-- Node5 -->
<g id="node5" class="node">
<title>Node5</title>
<g id="a_node5"><a xlink:href="../../d1/d2e/FMC__attributes_8h.html" target="_top" xlink:title=" ">
<polygon fill="white" stroke="#666666" points="213.5,-19 113.5,-19 113.5,0 213.5,0 213.5,-19"/>
<text text-anchor="middle" x="163.5" y="-7" font-family="Helvetica,sans-Serif" font-size="10.00">FMC_attributes.h</text>
</a>
</g>
</g>
<!-- Node3&#45;&gt;Node5 -->
<g id="edge4" class="edge">
<title>Node3&#45;&gt;Node5</title>
<path fill="none" stroke="#63b8ff" d="M157.62,-54.84C156.65,-47.21 156.49,-37.7 157.14,-29.45"/>
<polygon fill="#63b8ff" stroke="#63b8ff" points="160.64,-29.65 158.52,-19.27 153.71,-28.71 160.64,-29.65"/>
</g>
<!-- Node5&#45;&gt;Node3 -->
<g id="edge5" class="edge">
<title>Node5&#45;&gt;Node3</title>
<path fill="none" stroke="#63b8ff" d="M168.48,-19.27C169.92,-26.03 170.48,-35.72 170.16,-44.75"/>
<polygon fill="#63b8ff" stroke="#63b8ff" points="166.66,-44.6 169.38,-54.84 173.64,-45.14 166.66,-44.6"/>
</g>
<!-- Node8 -->
<g id="node8" class="node">
<title>Node8</title>
<g id="a_node8"><a xlink:title=" ">
<polygon fill="#e0e0e0" stroke="#999999" points="373,-79.5 320,-79.5 320,-60.5 373,-60.5 373,-79.5"/>
<text text-anchor="middle" x="346.5" y="-67.5" font-family="Helvetica,sans-Serif" font-size="10.00">cstddef</text>
</a>
</g>
</g>
<!-- Node7&#45;&gt;Node8 -->
<g id="edge8" class="edge">
<title>Node7&#45;&gt;Node8</title>
<path fill="none" stroke="#63b8ff" d="M344.8,-120.87C345.07,-112.75 345.5,-100.31 345.85,-89.89"/>
<polygon fill="#63b8ff" stroke="#63b8ff" points="349.36,-89.78 346.2,-79.67 342.36,-89.54 349.36,-89.78"/>
</g>
</g>
</svg>
