<?xml version="1.0" encoding="UTF-8" standalone="no"?>
<!DOCTYPE svg PUBLIC "-//W3C//DTD SVG 1.1//EN"
 "http://www.w3.org/Graphics/SVG/1.1/DTD/svg11.dtd">
<!-- Generated by graphviz version 2.43.0 (0)
 -->
<!-- Title: src/cpp/FMC_dir/FMC_dir_wrapper.cpp Pages: 1 -->
<svg width="530pt" height="214pt"
 viewBox="0.00 0.00 529.50 214.00" xmlns="http://www.w3.org/2000/svg" xmlns:xlink="http://www.w3.org/1999/xlink">
<g id="graph0" class="graph" transform="scale(1 1) rotate(0) translate(4 210)">
<title>src/cpp/FMC_dir/FMC_dir_wrapper.cpp</title>
<!-- Node1 -->
<g id="node1" class="node">
<title>Node1</title>
<g id="a_node1"><a xlink:title=" ">
<polygon fill="#999999" stroke="#666666" points="403,-206 284,-206 284,-176 403,-176 403,-206"/>
<text text-anchor="start" x="292" y="-194" font-family="Helvetica,sans-Serif" font-size="10.00">src/cpp/FMC_dir/FMC</text>
<text text-anchor="middle" x="343.5" y="-183" font-family="Helvetica,sans-Serif" font-size="10.00">_dir_wrapper.cpp</text>
</a>
</g>
</g>
<!-- Node2 -->
<g id="node2" class="node">
<title>Node2</title>
<g id="a_node2"><a xlink:href="../../d4/db9/FMC__wrapper_8h.html" target="_top" xlink:title=" ">
<polygon fill="white" stroke="#666666" points="248,-140 147,-140 147,-121 248,-121 248,-140"/>
<text text-anchor="middle" x="197.5" y="-128" font-family="Helvetica,sans-Serif" font-size="10.00">../FMC_wrapper.h</text>
</a>
</g>
</g>
<!-- Node1&#45;&gt;Node2 -->
<g id="edge1" class="edge">
<title>Node1&#45;&gt;Node2</title>
<path fill="none" stroke="#63b8ff" d="M308.53,-175.99C284.17,-166.23 251.97,-153.33 228.53,-143.93"/>
<polygon fill="#63b8ff" stroke="#63b8ff" points="229.65,-140.61 219.06,-140.14 227.04,-147.11 229.65,-140.61"/>
</g>
<!-- Node6 -->
<g id="node6" class="node">
<title>Node6</title>
<g id="a_node6"><a xlink:title=" ">
<polygon fill="#e0e0e0" stroke="#999999" points="301.5,-79.5 245.5,-79.5 245.5,-60.5 301.5,-60.5 301.5,-79.5"/>
<text text-anchor="middle" x="273.5" y="-67.5" font-family="Helvetica,sans-Serif" font-size="10.00">stddef.h</text>
</a>
</g>
</g>
<!-- Node1&#45;&gt;Node6 -->
<g id="edge9" class="edge">
<title>Node1&#45;&gt;Node6</title>
<path fill="none" stroke="#63b8ff" d="M326.77,-175.68C316.8,-166.37 304.56,-153.5 296.5,-140 287.1,-124.26 280.97,-104.18 277.42,-89.74"/>
<polygon fill="#63b8ff" stroke="#63b8ff" points="280.73,-88.55 275.11,-79.57 273.91,-90.1 280.73,-88.55"/>
</g>
<!-- Node7 -->
<g id="node7" class="node">
<title>Node7</title>
<g id="a_node7"><a xlink:href="../../d8/d5e/FMC__dir_8hpp.html" target="_top" xlink:title=" ">
<polygon fill="white" stroke="#666666" points="382,-140 305,-140 305,-121 382,-121 382,-140"/>
<text text-anchor="middle" x="343.5" y="-128" font-family="Helvetica,sans-Serif" font-size="10.00">FMC_dir.hpp</text>
</a>
</g>
</g>
<!-- Node1&#45;&gt;Node7 -->
<g id="edge7" class="edge">
<title>Node1&#45;&gt;Node7</title>
<path fill="none" stroke="#63b8ff" d="M343.5,-175.84C343.5,-168.21 343.5,-158.7 343.5,-150.45"/>
<polygon fill="#63b8ff" stroke="#63b8ff" points="347,-150.27 343.5,-140.27 340,-150.27 347,-150.27"/>
</g>
<!-- Node9 -->
<g id="node9" class="node">
<title>Node9</title>
<g id="a_node9"><a xlink:title=" ">
<polygon fill="#e0e0e0" stroke="#999999" points="453,-140 400,-140 400,-121 453,-121 453,-140"/>
<text text-anchor="middle" x="426.5" y="-128" font-family="Helvetica,sans-Serif" font-size="10.00">string.h</text>
</a>
</g>
</g>
<!-- Node1&#45;&gt;Node9 -->
<g id="edge10" class="edge">
<title>Node1&#45;&gt;Node9</title>
<path fill="none" stroke="#63b8ff" d="M363.59,-175.84C376.38,-166.83 392.9,-155.18 405.8,-146.09"/>
<polygon fill="#63b8ff" stroke="#63b8ff" points="407.91,-148.89 414.06,-140.27 403.87,-143.17 407.91,-148.89"/>
</g>
<!-- Node10 -->
<g id="node10" class="node">
<title>Node10</title>
<g id="a_node10"><a xlink:title=" ">
<polygon fill="#e0e0e0" stroke="#999999" points="521.5,-140 471.5,-140 471.5,-121 521.5,-121 521.5,-140"/>
<text text-anchor="middle" x="496.5" y="-128" font-family="Helvetica,sans-Serif" font-size="10.00">stdio.h</text>
</a>
</g>
</g>
<!-- Node1&#45;&gt;Node10 -->
<g id="edge11" class="edge">
<title>Node1&#45;&gt;Node10</title>
<path fill="none" stroke="#63b8ff" d="M380.15,-175.99C405.79,-166.18 439.72,-153.21 464.32,-143.81"/>
<polygon fill="#63b8ff" stroke="#63b8ff" points="465.81,-146.98 473.91,-140.14 463.31,-140.44 465.81,-146.98"/>
</g>
<!-- Node3 -->
<g id="node3" class="node">
<title>Node3</title>
<g id="a_node3"><a xlink:href="../../d0/d28/FMC__macros_8h.html" target="_top" xlink:title=" ">
<polygon fill="white" stroke="#666666" points="227.5,-85 99.5,-85 99.5,-55 227.5,-55 227.5,-85"/>
<text text-anchor="start" x="107.5" y="-73" font-family="Helvetica,sans-Serif" font-size="10.00">../general/preprocessor</text>
<text text-anchor="middle" x="163.5" y="-62" font-family="Helvetica,sans-Serif" font-size="10.00">/FMC_macros.h</text>
</a>
</g>
</g>
<!-- Node2&#45;&gt;Node3 -->
<g id="edge2" class="edge">
<title>Node2&#45;&gt;Node3</title>
<path fill="none" stroke="#63b8ff" d="M192.48,-120.87C188.34,-113.74 182.26,-103.28 176.74,-93.79"/>
<polygon fill="#63b8ff" stroke="#63b8ff" points="179.75,-92 171.7,-85.11 173.7,-95.52 179.75,-92"/>
</g>
<!-- Node2&#45;&gt;Node6 -->
<g id="edge6" class="edge">
<title>Node2&#45;&gt;Node6</title>
<path fill="none" stroke="#63b8ff" d="M208.71,-120.87C220.61,-111.71 239.64,-97.06 254.01,-86.01"/>
<polygon fill="#63b8ff" stroke="#63b8ff" points="256.45,-88.54 262.24,-79.67 252.18,-82.99 256.45,-88.54"/>
</g>
<!-- Node4 -->
<g id="node4" class="node">
<title>Node4</title>
<g id="a_node4"><a xlink:href="../../d7/dff/FMC__platform_8h.html" target="_top" xlink:title=" ">
<polygon fill="white" stroke="#666666" points="95,-19 0,-19 0,0 95,0 95,-19"/>
<text text-anchor="middle" x="47.5" y="-7" font-family="Helvetica,sans-Serif" font-size="10.00">FMC_platform.h</text>
</a>
</g>
</g>
<!-- Node3&#45;&gt;Node4 -->
<g id="edge3" class="edge">
<title>Node3&#45;&gt;Node4</title>
<path fill="none" stroke="#63b8ff" d="M135.72,-54.99C116.88,-45.49 92.15,-33.02 73.66,-23.69"/>
<polygon fill="#63b8ff" stroke="#63b8ff" points="75.14,-20.52 64.63,-19.14 71.98,-26.77 75.14,-20.52"/>
</g>
<!-- Node5 -->
<g id="node5" class="node">
<title>Node5</title>
<g id="a_node5"><a xlink:href="../../d1/d2e/FMC__attributes_8h.html" target="_top" xlink:title=" ">
<polygon fill="white" stroke="#666666" points="213.5,-19 113.5,-19 113.5,0 213.5,0 213.5,-19"/>
<text text-anchor="middle" x="163.5" y="-7" font-family="Helvetica,sans-Serif" font-size="10.00">FMC_attributes.h</text>
</a>
</g>
</g>
<!-- Node3&#45;&gt;Node5 -->
<g id="edge4" class="edge">
<title>Node3&#45;&gt;Node5</title>
<path fill="none" stroke="#63b8ff" d="M157.62,-54.84C156.65,-47.21 156.49,-37.7 157.14,-29.45"/>
<polygon fill="#63b8ff" stroke="#63b8ff" points="160.64,-29.65 158.52,-19.27 153.71,-28.71 160.64,-29.65"/>
</g>
<!-- Node5&#45;&gt;Node3 -->
<g id="edge5" class="edge">
<title>Node5&#45;&gt;Node3</title>
<path fill="none" stroke="#63b8ff" d="M168.48,-19.27C169.92,-26.03 170.48,-35.72 170.16,-44.75"/>
<polygon fill="#63b8ff" stroke="#63b8ff" points="166.66,-44.6 169.38,-54.84 173.64,-45.14 166.66,-44.6"/>
</g>
<!-- Node8 -->
<g id="node8" class="node">
<title>Node8</title>
<g id="a_node8"><a xlink:title=" ">
<polygon fill="#e0e0e0" stroke="#999999" points="373,-79.5 320,-79.5 320,-60.5 373,-60.5 373,-79.5"/>
<text text-anchor="middle" x="346.5" y="-67.5" font-family="Helvetica,sans-Serif" font-size="10.00">cstddef</text>
</a>
</g>
</g>
<!-- Node7&#45;&gt;Node8 -->
<g id="edge8" class="edge">
<title>Node7&#45;&gt;Node8</title>
<path fill="none" stroke="#63b8ff" d="M343.94,-120.87C344.36,-112.75 345,-100.31 345.53,-89.89"/>
<polygon fill="#63b8ff" stroke="#63b8ff" points="349.04,-89.83 346.06,-79.67 342.05,-89.47 349.04,-89.83"/>
</g>
</g>
</svg>
