<?xml version="1.0" encoding="UTF-8" standalone="no"?>
<!DOCTYPE svg PUBLIC "-//W3C//DTD SVG 1.1//EN"
 "http://www.w3.org/Graphics/SVG/1.1/DTD/svg11.dtd">
<!-- Generated by graphviz version 2.43.0 (0)
 -->
<!-- Title: src/cpp/FMC_dir/FMC_dir_wrapper.cpp Pages: 1 -->
<svg width="240pt" height="269pt"
 viewBox="0.00 0.00 240.00 269.00" xmlns="http://www.w3.org/2000/svg" xmlns:xlink="http://www.w3.org/1999/xlink">
<g id="graph0" class="graph" transform="scale(1 1) rotate(0) translate(4 265)">
<title>src/cpp/FMC_dir/FMC_dir_wrapper.cpp</title>
<!-- Node1 -->
<g id="node1" class="node">
<title>Node1</title>
<g id="a_node1"><a xlink:title=" ">
<polygon fill="#999999" stroke="#666666" points="199,-261 80,-261 80,-231 199,-231 199,-261"/>
<text text-anchor="start" x="88" y="-249" font-family="Helvetica,sans-Serif" font-size="10.00">src/cpp/FMC_dir/FMC</text>
<text text-anchor="middle" x="139.5" y="-238" font-family="Helvetica,sans-Serif" font-size="10.00">_dir_wrapper.cpp</text>
</a>
</g>
</g>
<!-- Node2 -->
<g id="node2" class="node">
<title>Node2</title>
<g id="a_node2"><a xlink:href="../../d4/db9/FMC__wrapper_8h.html" target="_top" xlink:title=" ">
<polygon fill="white" stroke="#666666" points="137,-195 36,-195 36,-176 137,-176 137,-195"/>
<text text-anchor="middle" x="86.5" y="-183" font-family="Helvetica,sans-Serif" font-size="10.00">../FMC_wrapper.h</text>
</a>
</g>
</g>
<!-- Node1&#45;&gt;Node2 -->
<g id="edge1" class="edge">
<title>Node1&#45;&gt;Node2</title>
<path fill="none" stroke="#63b8ff" d="M126.67,-230.84C118.98,-222.35 109.17,-211.52 101.17,-202.69"/>
<polygon fill="#63b8ff" stroke="#63b8ff" points="103.75,-200.33 94.44,-195.27 98.56,-205.03 103.75,-200.33"/>
</g>
<!-- Node6 -->
<g id="node6" class="node">
<title>Node6</title>
<g id="a_node6"><a xlink:href="../../d8/d5e/FMC__dir_8hpp.html" target="_top" xlink:title=" ">
<polygon fill="white" stroke="#666666" points="232,-195 155,-195 155,-176 232,-176 232,-195"/>
<text text-anchor="middle" x="193.5" y="-183" font-family="Helvetica,sans-Serif" font-size="10.00">FMC_dir.hpp</text>
</a>
</g>
</g>
<!-- Node1&#45;&gt;Node6 -->
<g id="edge7" class="edge">
<title>Node1&#45;&gt;Node6</title>
<path fill="none" stroke="#63b8ff" d="M152.57,-230.84C160.41,-222.35 170.41,-211.52 178.56,-202.69"/>
<polygon fill="#63b8ff" stroke="#63b8ff" points="181.2,-204.99 185.41,-195.27 176.05,-200.24 181.2,-204.99"/>
</g>
<!-- Node3 -->
<g id="node3" class="node">
<title>Node3</title>
<g id="a_node3"><a xlink:href="../../d0/d28/FMC__macros_8h.html" target="_top" xlink:title=" ">
<polygon fill="white" stroke="#666666" points="150.5,-140 22.5,-140 22.5,-110 150.5,-110 150.5,-140"/>
<text text-anchor="start" x="30.5" y="-128" font-family="Helvetica,sans-Serif" font-size="10.00">../general/preprocessor</text>
<text text-anchor="middle" x="86.5" y="-117" font-family="Helvetica,sans-Serif" font-size="10.00">/FMC_macros.h</text>
</a>
</g>
</g>
<!-- Node2&#45;&gt;Node3 -->
<g id="edge2" class="edge">
<title>Node2&#45;&gt;Node3</title>
<path fill="none" stroke="#63b8ff" d="M86.5,-175.87C86.5,-169.11 86.5,-159.35 86.5,-150.26"/>
<polygon fill="#63b8ff" stroke="#63b8ff" points="90,-150.11 86.5,-140.11 83,-150.11 90,-150.11"/>
</g>
<!-- Node4 -->
<g id="node4" class="node">
<title>Node4</title>
<g id="a_node4"><a xlink:href="../../d7/dff/FMC__platform_8h.html" target="_top" xlink:title=" ">
<polygon fill="white" stroke="#666666" points="95,-19 0,-19 0,0 95,0 95,-19"/>
<text text-anchor="middle" x="47.5" y="-7" font-family="Helvetica,sans-Serif" font-size="10.00">FMC_platform.h</text>
</a>
</g>
</g>
<!-- Node3&#45;&gt;Node4 -->
<g id="edge3" class="edge">
<title>Node3&#45;&gt;Node4</title>
<path fill="none" stroke="#63b8ff" d="M61.2,-109.88C48.56,-101.31 34.5,-89.11 27.5,-74 20.54,-58.98 27.63,-40.89 35.23,-27.86"/>
<polygon fill="#63b8ff" stroke="#63b8ff" points="38.21,-29.7 40.65,-19.39 32.31,-25.93 38.21,-29.7"/>
</g>
<!-- Node5 -->
<g id="node5" class="node">
<title>Node5</title>
<g id="a_node5"><a xlink:href="../../d1/d2e/FMC__attributes_8h.html" target="_top" xlink:title=" ">
<polygon fill="white" stroke="#666666" points="136.5,-74 36.5,-74 36.5,-55 136.5,-55 136.5,-74"/>
<text text-anchor="middle" x="86.5" y="-62" font-family="Helvetica,sans-Serif" font-size="10.00">FMC_attributes.h</text>
</a>
</g>
</g>
<!-- Node3&#45;&gt;Node5 -->
<g id="edge4" class="edge">
<title>Node3&#45;&gt;Node5</title>
<path fill="none" stroke="#63b8ff" d="M80.62,-109.84C79.65,-102.21 79.49,-92.7 80.14,-84.45"/>
<polygon fill="#63b8ff" stroke="#63b8ff" points="83.64,-84.65 81.52,-74.27 76.71,-83.71 83.64,-84.65"/>
</g>
<!-- Node5&#45;&gt;Node3 -->
<g id="edge6" class="edge">
<title>Node5&#45;&gt;Node3</title>
<path fill="none" stroke="#63b8ff" d="M91.48,-74.27C92.92,-81.03 93.48,-90.72 93.16,-99.75"/>
<polygon fill="#63b8ff" stroke="#63b8ff" points="89.66,-99.6 92.38,-109.84 96.64,-100.14 89.66,-99.6"/>
</g>
<!-- Node5&#45;&gt;Node4 -->
<g id="edge5" class="edge">
<title>Node5&#45;&gt;Node4</title>
<path fill="none" stroke="#63b8ff" d="M80.06,-54.75C74.61,-47.34 66.64,-36.5 59.94,-27.41"/>
<polygon fill="#63b8ff" stroke="#63b8ff" points="62.57,-25.07 53.82,-19.09 56.93,-29.22 62.57,-25.07"/>
</g>
</g>
</svg>
