<?xml version="1.0" encoding="UTF-8" standalone="no"?>
<!DOCTYPE svg PUBLIC "-//W3C//DTD SVG 1.1//EN"
 "http://www.w3.org/Graphics/SVG/1.1/DTD/svg11.dtd">
<!-- Generated by graphviz version 2.43.0 (0)
 -->
<!-- Title: src/cpp/FMC_dir/FMC_dir_wrapper.cpp Pages: 1 -->
<svg width="438pt" height="214pt"
 viewBox="0.00 0.00 438.00 214.00" xmlns="http://www.w3.org/2000/svg" xmlns:xlink="http://www.w3.org/1999/xlink">
<g id="graph0" class="graph" transform="scale(1 1) rotate(0) translate(4 210)">
<title>src/cpp/FMC_dir/FMC_dir_wrapper.cpp</title>
<!-- Node1 -->
<g id="node1" class="node">
<title>Node1</title>
<g id="a_node1"><a xlink:title=" ">
<polygon fill="#999999" stroke="#666666" points="381,-206 262,-206 262,-176 381,-176 381,-206"/>
<text text-anchor="start" x="270" y="-194" font-family="Helvetica,sans-Serif" font-size="10.00">src/cpp/FMC_dir/FMC</text>
<text text-anchor="middle" x="321.5" y="-183" font-family="Helvetica,sans-Serif" font-size="10.00">_dir_wrapper.cpp</text>
</a>
</g>
</g>
<!-- Node2 -->
<g id="node2" class="node">
<title>Node2</title>
<g id="a_node2"><a xlink:href="../../d4/db9/FMC__wrapper_8h.html" target="_top" xlink:title=" ">
<polygon fill="white" stroke="#666666" points="293,-140 192,-140 192,-121 293,-121 293,-140"/>
<text text-anchor="middle" x="242.5" y="-128" font-family="Helvetica,sans-Serif" font-size="10.00">../FMC_wrapper.h</text>
</a>
</g>
</g>
<!-- Node1&#45;&gt;Node2 -->
<g id="edge1" class="edge">
<title>Node1&#45;&gt;Node2</title>
<path fill="none" stroke="#63b8ff" d="M302.38,-175.84C290.32,-166.91 274.79,-155.41 262.56,-146.35"/>
<polygon fill="#63b8ff" stroke="#63b8ff" points="264.46,-143.4 254.34,-140.27 260.29,-149.03 264.46,-143.4"/>
</g>
<!-- Node7 -->
<g id="node7" class="node">
<title>Node7</title>
<g id="a_node7"><a xlink:title=" ">
<polygon fill="#e0e0e0" stroke="#999999" points="348.5,-79.5 292.5,-79.5 292.5,-60.5 348.5,-60.5 348.5,-79.5"/>
<text text-anchor="middle" x="320.5" y="-67.5" font-family="Helvetica,sans-Serif" font-size="10.00">stddef.h</text>
</a>
</g>
</g>
<!-- Node1&#45;&gt;Node7 -->
<g id="edge10" class="edge">
<title>Node1&#45;&gt;Node7</title>
<path fill="none" stroke="#63b8ff" d="M321.38,-175.88C321.2,-154.51 320.86,-113.89 320.66,-89.96"/>
<polygon fill="#63b8ff" stroke="#63b8ff" points="324.16,-89.68 320.57,-79.71 317.16,-89.74 324.16,-89.68"/>
</g>
<!-- Node8 -->
<g id="node8" class="node">
<title>Node8</title>
<g id="a_node8"><a xlink:href="../../d8/d5e/FMC__dir_8hpp.html" target="_top" xlink:title=" ">
<polygon fill="white" stroke="#666666" points="430,-140 353,-140 353,-121 430,-121 430,-140"/>
<text text-anchor="middle" x="391.5" y="-128" font-family="Helvetica,sans-Serif" font-size="10.00">FMC_dir.hpp</text>
</a>
</g>
</g>
<!-- Node1&#45;&gt;Node8 -->
<g id="edge8" class="edge">
<title>Node1&#45;&gt;Node8</title>
<path fill="none" stroke="#63b8ff" d="M338.45,-175.84C348.92,-167.09 362.36,-155.85 373.09,-146.88"/>
<polygon fill="#63b8ff" stroke="#63b8ff" points="375.58,-149.36 381.01,-140.27 371.09,-143.99 375.58,-149.36"/>
</g>
<!-- Node3 -->
<g id="node3" class="node">
<title>Node3</title>
<g id="a_node3"><a xlink:href="../../d0/d28/FMC__macros_8h.html" target="_top" xlink:title=" ">
<polygon fill="white" stroke="#666666" points="274.5,-85 146.5,-85 146.5,-55 274.5,-55 274.5,-85"/>
<text text-anchor="start" x="154.5" y="-73" font-family="Helvetica,sans-Serif" font-size="10.00">../general/preprocessor</text>
<text text-anchor="middle" x="210.5" y="-62" font-family="Helvetica,sans-Serif" font-size="10.00">/FMC_macros.h</text>
</a>
</g>
</g>
<!-- Node2&#45;&gt;Node3 -->
<g id="edge2" class="edge">
<title>Node2&#45;&gt;Node3</title>
<path fill="none" stroke="#63b8ff" d="M237.78,-120.87C233.92,-113.81 228.28,-103.5 223.13,-94.08"/>
<polygon fill="#63b8ff" stroke="#63b8ff" points="226.09,-92.21 218.22,-85.11 219.95,-95.57 226.09,-92.21"/>
</g>
<!-- Node2&#45;&gt;Node7 -->
<g id="edge7" class="edge">
<title>Node2&#45;&gt;Node7</title>
<path fill="none" stroke="#63b8ff" d="M254.01,-120.87C266.34,-111.62 286.12,-96.78 300.91,-85.69"/>
<polygon fill="#63b8ff" stroke="#63b8ff" points="303.04,-88.47 308.94,-79.67 298.84,-82.87 303.04,-88.47"/>
</g>
<!-- Node4 -->
<g id="node4" class="node">
<title>Node4</title>
<g id="a_node4"><a xlink:href="../../d7/dff/FMC__platform_8h.html" target="_top" xlink:title=" ">
<polygon fill="white" stroke="#666666" points="95,-19 0,-19 0,0 95,0 95,-19"/>
<text text-anchor="middle" x="47.5" y="-7" font-family="Helvetica,sans-Serif" font-size="10.00">FMC_platform.h</text>
</a>
</g>
</g>
<!-- Node3&#45;&gt;Node4 -->
<g id="edge3" class="edge">
<title>Node3&#45;&gt;Node4</title>
<path fill="none" stroke="#63b8ff" d="M171.46,-54.99C143.9,-45.1 107.35,-31.98 81.09,-22.56"/>
<polygon fill="#63b8ff" stroke="#63b8ff" points="82.17,-19.22 71.57,-19.14 79.8,-25.81 82.17,-19.22"/>
</g>
<!-- Node5 -->
<g id="node5" class="node">
<title>Node5</title>
<g id="a_node5"><a xlink:title=" ">
<polygon fill="#e0e0e0" stroke="#999999" points="197.5,-19 113.5,-19 113.5,0 197.5,0 197.5,-19"/>
<text text-anchor="middle" x="155.5" y="-7" font-family="Helvetica,sans-Serif" font-size="10.00">metalang99.h</text>
</a>
</g>
</g>
<!-- Node3&#45;&gt;Node5 -->
<g id="edge4" class="edge">
<title>Node3&#45;&gt;Node5</title>
<path fill="none" stroke="#63b8ff" d="M197.19,-54.84C189.2,-46.35 179.02,-35.52 170.72,-26.69"/>
<polygon fill="#63b8ff" stroke="#63b8ff" points="173.14,-24.15 163.74,-19.27 168.04,-28.95 173.14,-24.15"/>
</g>
<!-- Node6 -->
<g id="node6" class="node">
<title>Node6</title>
<g id="a_node6"><a xlink:href="../../d1/d2e/FMC__attributes_8h.html" target="_top" xlink:title=" ">
<polygon fill="white" stroke="#666666" points="315.5,-19 215.5,-19 215.5,0 315.5,0 315.5,-19"/>
<text text-anchor="middle" x="265.5" y="-7" font-family="Helvetica,sans-Serif" font-size="10.00">FMC_attributes.h</text>
</a>
</g>
</g>
<!-- Node3&#45;&gt;Node6 -->
<g id="edge5" class="edge">
<title>Node3&#45;&gt;Node6</title>
<path fill="none" stroke="#63b8ff" d="M217.94,-54.84C224.98,-46.17 235.36,-35.08 244.73,-26.15"/>
<polygon fill="#63b8ff" stroke="#63b8ff" points="247.25,-28.59 252.27,-19.27 242.53,-23.42 247.25,-28.59"/>
</g>
<!-- Node6&#45;&gt;Node3 -->
<g id="edge6" class="edge">
<title>Node6&#45;&gt;Node3</title>
<path fill="none" stroke="#63b8ff" d="M262.24,-19.27C256.79,-26.76 246.88,-37.86 237.08,-47.67"/>
<polygon fill="#63b8ff" stroke="#63b8ff" points="234.43,-45.36 229.69,-54.84 239.31,-50.39 234.43,-45.36"/>
</g>
<!-- Node9 -->
<g id="node9" class="node">
<title>Node9</title>
<g id="a_node9"><a xlink:title=" ">
<polygon fill="#e0e0e0" stroke="#999999" points="420,-79.5 367,-79.5 367,-60.5 420,-60.5 420,-79.5"/>
<text text-anchor="middle" x="393.5" y="-67.5" font-family="Helvetica,sans-Serif" font-size="10.00">cstddef</text>
</a>
</g>
</g>
<!-- Node8&#45;&gt;Node9 -->
<g id="edge9" class="edge">
<title>Node8&#45;&gt;Node9</title>
<path fill="none" stroke="#63b8ff" d="M391.8,-120.87C392.07,-112.75 392.5,-100.31 392.85,-89.89"/>
<polygon fill="#63b8ff" stroke="#63b8ff" points="396.36,-89.78 393.2,-79.67 389.36,-89.54 396.36,-89.78"/>
</g>
</g>
</svg>
